%TF.GenerationSoftware,KiCad,Pcbnew,(6.0.10)*%
%TF.CreationDate,2023-04-08T13:18:27+03:00*%
%TF.ProjectId,DelSol_Mixer,44656c53-6f6c-45f4-9d69-7865722e6b69,rev?*%
%TF.SameCoordinates,Original*%
%TF.FileFunction,Legend,Bot*%
%TF.FilePolarity,Positive*%
%FSLAX46Y46*%
G04 Gerber Fmt 4.6, Leading zero omitted, Abs format (unit mm)*
G04 Created by KiCad (PCBNEW (6.0.10)) date 2023-04-08 13:18:27*
%MOMM*%
%LPD*%
G01*
G04 APERTURE LIST*
G04 Aperture macros list*
%AMRoundRect*
0 Rectangle with rounded corners*
0 $1 Rounding radius*
0 $2 $3 $4 $5 $6 $7 $8 $9 X,Y pos of 4 corners*
0 Add a 4 corners polygon primitive as box body*
4,1,4,$2,$3,$4,$5,$6,$7,$8,$9,$2,$3,0*
0 Add four circle primitives for the rounded corners*
1,1,$1+$1,$2,$3*
1,1,$1+$1,$4,$5*
1,1,$1+$1,$6,$7*
1,1,$1+$1,$8,$9*
0 Add four rect primitives between the rounded corners*
20,1,$1+$1,$2,$3,$4,$5,0*
20,1,$1+$1,$4,$5,$6,$7,0*
20,1,$1+$1,$6,$7,$8,$9,0*
20,1,$1+$1,$8,$9,$2,$3,0*%
G04 Aperture macros list end*
%ADD10C,0.150000*%
%ADD11C,0.120000*%
%ADD12R,1.700000X1.700000*%
%ADD13O,1.700000X1.700000*%
%ADD14C,3.200000*%
%ADD15C,3.000000*%
%ADD16C,1.600000*%
%ADD17R,1.600000X1.600000*%
%ADD18O,1.600000X1.600000*%
%ADD19RoundRect,0.250000X0.625000X-0.400000X0.625000X0.400000X-0.625000X0.400000X-0.625000X-0.400000X0*%
%ADD20RoundRect,0.250000X-0.625000X0.400000X-0.625000X-0.400000X0.625000X-0.400000X0.625000X0.400000X0*%
%ADD21RoundRect,0.250000X-0.412500X-0.650000X0.412500X-0.650000X0.412500X0.650000X-0.412500X0.650000X0*%
%ADD22RoundRect,0.250000X0.475000X-0.337500X0.475000X0.337500X-0.475000X0.337500X-0.475000X-0.337500X0*%
%ADD23RoundRect,0.250000X-0.400000X-0.625000X0.400000X-0.625000X0.400000X0.625000X-0.400000X0.625000X0*%
%ADD24RoundRect,0.250000X-0.337500X-0.475000X0.337500X-0.475000X0.337500X0.475000X-0.337500X0.475000X0*%
%ADD25RoundRect,0.250000X0.400000X0.625000X-0.400000X0.625000X-0.400000X-0.625000X0.400000X-0.625000X0*%
%ADD26RoundRect,0.250000X-0.650000X0.412500X-0.650000X-0.412500X0.650000X-0.412500X0.650000X0.412500X0*%
%ADD27RoundRect,0.250000X0.650000X-0.412500X0.650000X0.412500X-0.650000X0.412500X-0.650000X-0.412500X0*%
%ADD28RoundRect,0.250000X0.337500X0.475000X-0.337500X0.475000X-0.337500X-0.475000X0.337500X-0.475000X0*%
%ADD29RoundRect,0.250000X0.412500X0.650000X-0.412500X0.650000X-0.412500X-0.650000X0.412500X-0.650000X0*%
G04 APERTURE END LIST*
D10*
X16962380Y-65397142D02*
X16486190Y-65063809D01*
X16962380Y-64825714D02*
X15962380Y-64825714D01*
X15962380Y-65206666D01*
X16010000Y-65301904D01*
X16057619Y-65349523D01*
X16152857Y-65397142D01*
X16295714Y-65397142D01*
X16390952Y-65349523D01*
X16438571Y-65301904D01*
X16486190Y-65206666D01*
X16486190Y-64825714D01*
X16295714Y-66254285D02*
X16962380Y-66254285D01*
X15914761Y-66016190D02*
X16629047Y-65778095D01*
X16629047Y-66397142D01*
X15962380Y-66682857D02*
X15962380Y-67349523D01*
X16962380Y-66920952D01*
X252632380Y-34917142D02*
X252156190Y-34583809D01*
X252632380Y-34345714D02*
X251632380Y-34345714D01*
X251632380Y-34726666D01*
X251680000Y-34821904D01*
X251727619Y-34869523D01*
X251822857Y-34917142D01*
X251965714Y-34917142D01*
X252060952Y-34869523D01*
X252108571Y-34821904D01*
X252156190Y-34726666D01*
X252156190Y-34345714D01*
X251632380Y-35821904D02*
X251632380Y-35345714D01*
X252108571Y-35298095D01*
X252060952Y-35345714D01*
X252013333Y-35440952D01*
X252013333Y-35679047D01*
X252060952Y-35774285D01*
X252108571Y-35821904D01*
X252203809Y-35869523D01*
X252441904Y-35869523D01*
X252537142Y-35821904D01*
X252584761Y-35774285D01*
X252632380Y-35679047D01*
X252632380Y-35440952D01*
X252584761Y-35345714D01*
X252537142Y-35298095D01*
X251632380Y-36488571D02*
X251632380Y-36583809D01*
X251680000Y-36679047D01*
X251727619Y-36726666D01*
X251822857Y-36774285D01*
X252013333Y-36821904D01*
X252251428Y-36821904D01*
X252441904Y-36774285D01*
X252537142Y-36726666D01*
X252584761Y-36679047D01*
X252632380Y-36583809D01*
X252632380Y-36488571D01*
X252584761Y-36393333D01*
X252537142Y-36345714D01*
X252441904Y-36298095D01*
X252251428Y-36250476D01*
X252013333Y-36250476D01*
X251822857Y-36298095D01*
X251727619Y-36345714D01*
X251680000Y-36393333D01*
X251632380Y-36488571D01*
X114942857Y-56817142D02*
X114990476Y-56864761D01*
X115133333Y-56912380D01*
X115228571Y-56912380D01*
X115371428Y-56864761D01*
X115466666Y-56769523D01*
X115514285Y-56674285D01*
X115561904Y-56483809D01*
X115561904Y-56340952D01*
X115514285Y-56150476D01*
X115466666Y-56055238D01*
X115371428Y-55960000D01*
X115228571Y-55912380D01*
X115133333Y-55912380D01*
X114990476Y-55960000D01*
X114942857Y-56007619D01*
X113990476Y-56912380D02*
X114561904Y-56912380D01*
X114276190Y-56912380D02*
X114276190Y-55912380D01*
X114371428Y-56055238D01*
X114466666Y-56150476D01*
X114561904Y-56198095D01*
X113609523Y-56007619D02*
X113561904Y-55960000D01*
X113466666Y-55912380D01*
X113228571Y-55912380D01*
X113133333Y-55960000D01*
X113085714Y-56007619D01*
X113038095Y-56102857D01*
X113038095Y-56198095D01*
X113085714Y-56340952D01*
X113657142Y-56912380D01*
X113038095Y-56912380D01*
X141972380Y-51427142D02*
X141496190Y-51093809D01*
X141972380Y-50855714D02*
X140972380Y-50855714D01*
X140972380Y-51236666D01*
X141020000Y-51331904D01*
X141067619Y-51379523D01*
X141162857Y-51427142D01*
X141305714Y-51427142D01*
X141400952Y-51379523D01*
X141448571Y-51331904D01*
X141496190Y-51236666D01*
X141496190Y-50855714D01*
X141067619Y-51808095D02*
X141020000Y-51855714D01*
X140972380Y-51950952D01*
X140972380Y-52189047D01*
X141020000Y-52284285D01*
X141067619Y-52331904D01*
X141162857Y-52379523D01*
X141258095Y-52379523D01*
X141400952Y-52331904D01*
X141972380Y-51760476D01*
X141972380Y-52379523D01*
X141067619Y-52760476D02*
X141020000Y-52808095D01*
X140972380Y-52903333D01*
X140972380Y-53141428D01*
X141020000Y-53236666D01*
X141067619Y-53284285D01*
X141162857Y-53331904D01*
X141258095Y-53331904D01*
X141400952Y-53284285D01*
X141972380Y-52712857D01*
X141972380Y-53331904D01*
X244006666Y-65072142D02*
X244054285Y-65119761D01*
X244197142Y-65167380D01*
X244292380Y-65167380D01*
X244435238Y-65119761D01*
X244530476Y-65024523D01*
X244578095Y-64929285D01*
X244625714Y-64738809D01*
X244625714Y-64595952D01*
X244578095Y-64405476D01*
X244530476Y-64310238D01*
X244435238Y-64215000D01*
X244292380Y-64167380D01*
X244197142Y-64167380D01*
X244054285Y-64215000D01*
X244006666Y-64262619D01*
X243673333Y-64167380D02*
X243006666Y-64167380D01*
X243435238Y-65167380D01*
X36327142Y-62857142D02*
X36374761Y-62809523D01*
X36422380Y-62666666D01*
X36422380Y-62571428D01*
X36374761Y-62428571D01*
X36279523Y-62333333D01*
X36184285Y-62285714D01*
X35993809Y-62238095D01*
X35850952Y-62238095D01*
X35660476Y-62285714D01*
X35565238Y-62333333D01*
X35470000Y-62428571D01*
X35422380Y-62571428D01*
X35422380Y-62666666D01*
X35470000Y-62809523D01*
X35517619Y-62857142D01*
X35422380Y-63190476D02*
X35422380Y-63809523D01*
X35803333Y-63476190D01*
X35803333Y-63619047D01*
X35850952Y-63714285D01*
X35898571Y-63761904D01*
X35993809Y-63809523D01*
X36231904Y-63809523D01*
X36327142Y-63761904D01*
X36374761Y-63714285D01*
X36422380Y-63619047D01*
X36422380Y-63333333D01*
X36374761Y-63238095D01*
X36327142Y-63190476D01*
X36422380Y-64761904D02*
X36422380Y-64190476D01*
X36422380Y-64476190D02*
X35422380Y-64476190D01*
X35565238Y-64380952D01*
X35660476Y-64285714D01*
X35708095Y-64190476D01*
X121292857Y-56882380D02*
X121626190Y-56406190D01*
X121864285Y-56882380D02*
X121864285Y-55882380D01*
X121483333Y-55882380D01*
X121388095Y-55930000D01*
X121340476Y-55977619D01*
X121292857Y-56072857D01*
X121292857Y-56215714D01*
X121340476Y-56310952D01*
X121388095Y-56358571D01*
X121483333Y-56406190D01*
X121864285Y-56406190D01*
X120340476Y-56882380D02*
X120911904Y-56882380D01*
X120626190Y-56882380D02*
X120626190Y-55882380D01*
X120721428Y-56025238D01*
X120816666Y-56120476D01*
X120911904Y-56168095D01*
X120007142Y-55882380D02*
X119340476Y-55882380D01*
X119769047Y-56882380D01*
X64142857Y-47347142D02*
X64190476Y-47394761D01*
X64333333Y-47442380D01*
X64428571Y-47442380D01*
X64571428Y-47394761D01*
X64666666Y-47299523D01*
X64714285Y-47204285D01*
X64761904Y-47013809D01*
X64761904Y-46870952D01*
X64714285Y-46680476D01*
X64666666Y-46585238D01*
X64571428Y-46490000D01*
X64428571Y-46442380D01*
X64333333Y-46442380D01*
X64190476Y-46490000D01*
X64142857Y-46537619D01*
X63761904Y-46537619D02*
X63714285Y-46490000D01*
X63619047Y-46442380D01*
X63380952Y-46442380D01*
X63285714Y-46490000D01*
X63238095Y-46537619D01*
X63190476Y-46632857D01*
X63190476Y-46728095D01*
X63238095Y-46870952D01*
X63809523Y-47442380D01*
X63190476Y-47442380D01*
X62333333Y-46775714D02*
X62333333Y-47442380D01*
X62571428Y-46394761D02*
X62809523Y-47109047D01*
X62190476Y-47109047D01*
X93797380Y-25747142D02*
X93321190Y-25413809D01*
X93797380Y-25175714D02*
X92797380Y-25175714D01*
X92797380Y-25556666D01*
X92845000Y-25651904D01*
X92892619Y-25699523D01*
X92987857Y-25747142D01*
X93130714Y-25747142D01*
X93225952Y-25699523D01*
X93273571Y-25651904D01*
X93321190Y-25556666D01*
X93321190Y-25175714D01*
X93130714Y-26604285D02*
X93797380Y-26604285D01*
X92749761Y-26366190D02*
X93464047Y-26128095D01*
X93464047Y-26747142D01*
X92797380Y-27318571D02*
X92797380Y-27413809D01*
X92845000Y-27509047D01*
X92892619Y-27556666D01*
X92987857Y-27604285D01*
X93178333Y-27651904D01*
X93416428Y-27651904D01*
X93606904Y-27604285D01*
X93702142Y-27556666D01*
X93749761Y-27509047D01*
X93797380Y-27413809D01*
X93797380Y-27318571D01*
X93749761Y-27223333D01*
X93702142Y-27175714D01*
X93606904Y-27128095D01*
X93416428Y-27080476D01*
X93178333Y-27080476D01*
X92987857Y-27128095D01*
X92892619Y-27175714D01*
X92845000Y-27223333D01*
X92797380Y-27318571D01*
X21407380Y-59047142D02*
X20931190Y-58713809D01*
X21407380Y-58475714D02*
X20407380Y-58475714D01*
X20407380Y-58856666D01*
X20455000Y-58951904D01*
X20502619Y-58999523D01*
X20597857Y-59047142D01*
X20740714Y-59047142D01*
X20835952Y-58999523D01*
X20883571Y-58951904D01*
X20931190Y-58856666D01*
X20931190Y-58475714D01*
X20740714Y-59904285D02*
X21407380Y-59904285D01*
X20359761Y-59666190D02*
X21074047Y-59428095D01*
X21074047Y-60047142D01*
X20407380Y-60332857D02*
X20407380Y-60951904D01*
X20788333Y-60618571D01*
X20788333Y-60761428D01*
X20835952Y-60856666D01*
X20883571Y-60904285D01*
X20978809Y-60951904D01*
X21216904Y-60951904D01*
X21312142Y-60904285D01*
X21359761Y-60856666D01*
X21407380Y-60761428D01*
X21407380Y-60475714D01*
X21359761Y-60380476D01*
X21312142Y-60332857D01*
X233846666Y-53242380D02*
X234180000Y-52766190D01*
X234418095Y-53242380D02*
X234418095Y-52242380D01*
X234037142Y-52242380D01*
X233941904Y-52290000D01*
X233894285Y-52337619D01*
X233846666Y-52432857D01*
X233846666Y-52575714D01*
X233894285Y-52670952D01*
X233941904Y-52718571D01*
X234037142Y-52766190D01*
X234418095Y-52766190D01*
X232989523Y-52242380D02*
X233180000Y-52242380D01*
X233275238Y-52290000D01*
X233322857Y-52337619D01*
X233418095Y-52480476D01*
X233465714Y-52670952D01*
X233465714Y-53051904D01*
X233418095Y-53147142D01*
X233370476Y-53194761D01*
X233275238Y-53242380D01*
X233084761Y-53242380D01*
X232989523Y-53194761D01*
X232941904Y-53147142D01*
X232894285Y-53051904D01*
X232894285Y-52813809D01*
X232941904Y-52718571D01*
X232989523Y-52670952D01*
X233084761Y-52623333D01*
X233275238Y-52623333D01*
X233370476Y-52670952D01*
X233418095Y-52718571D01*
X233465714Y-52813809D01*
X192705357Y-56817142D02*
X192752976Y-56864761D01*
X192895833Y-56912380D01*
X192991071Y-56912380D01*
X193133928Y-56864761D01*
X193229166Y-56769523D01*
X193276785Y-56674285D01*
X193324404Y-56483809D01*
X193324404Y-56340952D01*
X193276785Y-56150476D01*
X193229166Y-56055238D01*
X193133928Y-55960000D01*
X192991071Y-55912380D01*
X192895833Y-55912380D01*
X192752976Y-55960000D01*
X192705357Y-56007619D01*
X191752976Y-56912380D02*
X192324404Y-56912380D01*
X192038690Y-56912380D02*
X192038690Y-55912380D01*
X192133928Y-56055238D01*
X192229166Y-56150476D01*
X192324404Y-56198095D01*
X191181547Y-56340952D02*
X191276785Y-56293333D01*
X191324404Y-56245714D01*
X191372023Y-56150476D01*
X191372023Y-56102857D01*
X191324404Y-56007619D01*
X191276785Y-55960000D01*
X191181547Y-55912380D01*
X190991071Y-55912380D01*
X190895833Y-55960000D01*
X190848214Y-56007619D01*
X190800595Y-56102857D01*
X190800595Y-56150476D01*
X190848214Y-56245714D01*
X190895833Y-56293333D01*
X190991071Y-56340952D01*
X191181547Y-56340952D01*
X191276785Y-56388571D01*
X191324404Y-56436190D01*
X191372023Y-56531428D01*
X191372023Y-56721904D01*
X191324404Y-56817142D01*
X191276785Y-56864761D01*
X191181547Y-56912380D01*
X190991071Y-56912380D01*
X190895833Y-56864761D01*
X190848214Y-56817142D01*
X190800595Y-56721904D01*
X190800595Y-56531428D01*
X190848214Y-56436190D01*
X190895833Y-56388571D01*
X190991071Y-56340952D01*
X173767142Y-55420833D02*
X173814761Y-55373214D01*
X173862380Y-55230357D01*
X173862380Y-55135119D01*
X173814761Y-54992261D01*
X173719523Y-54897023D01*
X173624285Y-54849404D01*
X173433809Y-54801785D01*
X173290952Y-54801785D01*
X173100476Y-54849404D01*
X173005238Y-54897023D01*
X172910000Y-54992261D01*
X172862380Y-55135119D01*
X172862380Y-55230357D01*
X172910000Y-55373214D01*
X172957619Y-55420833D01*
X172957619Y-55801785D02*
X172910000Y-55849404D01*
X172862380Y-55944642D01*
X172862380Y-56182738D01*
X172910000Y-56277976D01*
X172957619Y-56325595D01*
X173052857Y-56373214D01*
X173148095Y-56373214D01*
X173290952Y-56325595D01*
X173862380Y-55754166D01*
X173862380Y-56373214D01*
X157147142Y-59815833D02*
X157194761Y-59768214D01*
X157242380Y-59625357D01*
X157242380Y-59530119D01*
X157194761Y-59387261D01*
X157099523Y-59292023D01*
X157004285Y-59244404D01*
X156813809Y-59196785D01*
X156670952Y-59196785D01*
X156480476Y-59244404D01*
X156385238Y-59292023D01*
X156290000Y-59387261D01*
X156242380Y-59530119D01*
X156242380Y-59625357D01*
X156290000Y-59768214D01*
X156337619Y-59815833D01*
X156242380Y-60720595D02*
X156242380Y-60244404D01*
X156718571Y-60196785D01*
X156670952Y-60244404D01*
X156623333Y-60339642D01*
X156623333Y-60577738D01*
X156670952Y-60672976D01*
X156718571Y-60720595D01*
X156813809Y-60768214D01*
X157051904Y-60768214D01*
X157147142Y-60720595D01*
X157194761Y-60672976D01*
X157242380Y-60577738D01*
X157242380Y-60339642D01*
X157194761Y-60244404D01*
X157147142Y-60196785D01*
X27662142Y-64127142D02*
X27709761Y-64079523D01*
X27757380Y-63936666D01*
X27757380Y-63841428D01*
X27709761Y-63698571D01*
X27614523Y-63603333D01*
X27519285Y-63555714D01*
X27328809Y-63508095D01*
X27185952Y-63508095D01*
X26995476Y-63555714D01*
X26900238Y-63603333D01*
X26805000Y-63698571D01*
X26757380Y-63841428D01*
X26757380Y-63936666D01*
X26805000Y-64079523D01*
X26852619Y-64127142D01*
X26852619Y-64508095D02*
X26805000Y-64555714D01*
X26757380Y-64650952D01*
X26757380Y-64889047D01*
X26805000Y-64984285D01*
X26852619Y-65031904D01*
X26947857Y-65079523D01*
X27043095Y-65079523D01*
X27185952Y-65031904D01*
X27757380Y-64460476D01*
X27757380Y-65079523D01*
X27757380Y-65555714D02*
X27757380Y-65746190D01*
X27709761Y-65841428D01*
X27662142Y-65889047D01*
X27519285Y-65984285D01*
X27328809Y-66031904D01*
X26947857Y-66031904D01*
X26852619Y-65984285D01*
X26805000Y-65936666D01*
X26757380Y-65841428D01*
X26757380Y-65650952D01*
X26805000Y-65555714D01*
X26852619Y-65508095D01*
X26947857Y-65460476D01*
X27185952Y-65460476D01*
X27281190Y-65508095D01*
X27328809Y-65555714D01*
X27376428Y-65650952D01*
X27376428Y-65841428D01*
X27328809Y-65936666D01*
X27281190Y-65984285D01*
X27185952Y-66031904D01*
X257712380Y-39997142D02*
X257236190Y-39663809D01*
X257712380Y-39425714D02*
X256712380Y-39425714D01*
X256712380Y-39806666D01*
X256760000Y-39901904D01*
X256807619Y-39949523D01*
X256902857Y-39997142D01*
X257045714Y-39997142D01*
X257140952Y-39949523D01*
X257188571Y-39901904D01*
X257236190Y-39806666D01*
X257236190Y-39425714D01*
X256712380Y-40901904D02*
X256712380Y-40425714D01*
X257188571Y-40378095D01*
X257140952Y-40425714D01*
X257093333Y-40520952D01*
X257093333Y-40759047D01*
X257140952Y-40854285D01*
X257188571Y-40901904D01*
X257283809Y-40949523D01*
X257521904Y-40949523D01*
X257617142Y-40901904D01*
X257664761Y-40854285D01*
X257712380Y-40759047D01*
X257712380Y-40520952D01*
X257664761Y-40425714D01*
X257617142Y-40378095D01*
X256712380Y-41282857D02*
X256712380Y-41901904D01*
X257093333Y-41568571D01*
X257093333Y-41711428D01*
X257140952Y-41806666D01*
X257188571Y-41854285D01*
X257283809Y-41901904D01*
X257521904Y-41901904D01*
X257617142Y-41854285D01*
X257664761Y-41806666D01*
X257712380Y-41711428D01*
X257712380Y-41425714D01*
X257664761Y-41330476D01*
X257617142Y-41282857D01*
X76652380Y-41902142D02*
X76176190Y-41568809D01*
X76652380Y-41330714D02*
X75652380Y-41330714D01*
X75652380Y-41711666D01*
X75700000Y-41806904D01*
X75747619Y-41854523D01*
X75842857Y-41902142D01*
X75985714Y-41902142D01*
X76080952Y-41854523D01*
X76128571Y-41806904D01*
X76176190Y-41711666D01*
X76176190Y-41330714D01*
X75652380Y-42235476D02*
X75652380Y-42854523D01*
X76033333Y-42521190D01*
X76033333Y-42664047D01*
X76080952Y-42759285D01*
X76128571Y-42806904D01*
X76223809Y-42854523D01*
X76461904Y-42854523D01*
X76557142Y-42806904D01*
X76604761Y-42759285D01*
X76652380Y-42664047D01*
X76652380Y-42378333D01*
X76604761Y-42283095D01*
X76557142Y-42235476D01*
X75652380Y-43187857D02*
X75652380Y-43854523D01*
X76652380Y-43425952D01*
X121292857Y-61962380D02*
X121626190Y-61486190D01*
X121864285Y-61962380D02*
X121864285Y-60962380D01*
X121483333Y-60962380D01*
X121388095Y-61010000D01*
X121340476Y-61057619D01*
X121292857Y-61152857D01*
X121292857Y-61295714D01*
X121340476Y-61390952D01*
X121388095Y-61438571D01*
X121483333Y-61486190D01*
X121864285Y-61486190D01*
X120911904Y-61057619D02*
X120864285Y-61010000D01*
X120769047Y-60962380D01*
X120530952Y-60962380D01*
X120435714Y-61010000D01*
X120388095Y-61057619D01*
X120340476Y-61152857D01*
X120340476Y-61248095D01*
X120388095Y-61390952D01*
X120959523Y-61962380D01*
X120340476Y-61962380D01*
X119483333Y-61295714D02*
X119483333Y-61962380D01*
X119721428Y-60914761D02*
X119959523Y-61629047D01*
X119340476Y-61629047D01*
X235952380Y-35393333D02*
X235476190Y-35060000D01*
X235952380Y-34821904D02*
X234952380Y-34821904D01*
X234952380Y-35202857D01*
X235000000Y-35298095D01*
X235047619Y-35345714D01*
X235142857Y-35393333D01*
X235285714Y-35393333D01*
X235380952Y-35345714D01*
X235428571Y-35298095D01*
X235476190Y-35202857D01*
X235476190Y-34821904D01*
X234952380Y-36298095D02*
X234952380Y-35821904D01*
X235428571Y-35774285D01*
X235380952Y-35821904D01*
X235333333Y-35917142D01*
X235333333Y-36155238D01*
X235380952Y-36250476D01*
X235428571Y-36298095D01*
X235523809Y-36345714D01*
X235761904Y-36345714D01*
X235857142Y-36298095D01*
X235904761Y-36250476D01*
X235952380Y-36155238D01*
X235952380Y-35917142D01*
X235904761Y-35821904D01*
X235857142Y-35774285D01*
X160662857Y-64587380D02*
X160996190Y-64111190D01*
X161234285Y-64587380D02*
X161234285Y-63587380D01*
X160853333Y-63587380D01*
X160758095Y-63635000D01*
X160710476Y-63682619D01*
X160662857Y-63777857D01*
X160662857Y-63920714D01*
X160710476Y-64015952D01*
X160758095Y-64063571D01*
X160853333Y-64111190D01*
X161234285Y-64111190D01*
X159710476Y-64587380D02*
X160281904Y-64587380D01*
X159996190Y-64587380D02*
X159996190Y-63587380D01*
X160091428Y-63730238D01*
X160186666Y-63825476D01*
X160281904Y-63873095D01*
X159091428Y-63587380D02*
X158996190Y-63587380D01*
X158900952Y-63635000D01*
X158853333Y-63682619D01*
X158805714Y-63777857D01*
X158758095Y-63968333D01*
X158758095Y-64206428D01*
X158805714Y-64396904D01*
X158853333Y-64492142D01*
X158900952Y-64539761D01*
X158996190Y-64587380D01*
X159091428Y-64587380D01*
X159186666Y-64539761D01*
X159234285Y-64492142D01*
X159281904Y-64396904D01*
X159329523Y-64206428D01*
X159329523Y-63968333D01*
X159281904Y-63777857D01*
X159234285Y-63682619D01*
X159186666Y-63635000D01*
X159091428Y-63587380D01*
X219487142Y-51719642D02*
X219534761Y-51672023D01*
X219582380Y-51529166D01*
X219582380Y-51433928D01*
X219534761Y-51291071D01*
X219439523Y-51195833D01*
X219344285Y-51148214D01*
X219153809Y-51100595D01*
X219010952Y-51100595D01*
X218820476Y-51148214D01*
X218725238Y-51195833D01*
X218630000Y-51291071D01*
X218582380Y-51433928D01*
X218582380Y-51529166D01*
X218630000Y-51672023D01*
X218677619Y-51719642D01*
X218915714Y-52576785D02*
X219582380Y-52576785D01*
X218534761Y-52338690D02*
X219249047Y-52100595D01*
X219249047Y-52719642D01*
X218677619Y-53052976D02*
X218630000Y-53100595D01*
X218582380Y-53195833D01*
X218582380Y-53433928D01*
X218630000Y-53529166D01*
X218677619Y-53576785D01*
X218772857Y-53624404D01*
X218868095Y-53624404D01*
X219010952Y-53576785D01*
X219582380Y-53005357D01*
X219582380Y-53624404D01*
X230872380Y-49643333D02*
X230396190Y-49310000D01*
X230872380Y-49071904D02*
X229872380Y-49071904D01*
X229872380Y-49452857D01*
X229920000Y-49548095D01*
X229967619Y-49595714D01*
X230062857Y-49643333D01*
X230205714Y-49643333D01*
X230300952Y-49595714D01*
X230348571Y-49548095D01*
X230396190Y-49452857D01*
X230396190Y-49071904D01*
X230300952Y-50214761D02*
X230253333Y-50119523D01*
X230205714Y-50071904D01*
X230110476Y-50024285D01*
X230062857Y-50024285D01*
X229967619Y-50071904D01*
X229920000Y-50119523D01*
X229872380Y-50214761D01*
X229872380Y-50405238D01*
X229920000Y-50500476D01*
X229967619Y-50548095D01*
X230062857Y-50595714D01*
X230110476Y-50595714D01*
X230205714Y-50548095D01*
X230253333Y-50500476D01*
X230300952Y-50405238D01*
X230300952Y-50214761D01*
X230348571Y-50119523D01*
X230396190Y-50071904D01*
X230491428Y-50024285D01*
X230681904Y-50024285D01*
X230777142Y-50071904D01*
X230824761Y-50119523D01*
X230872380Y-50214761D01*
X230872380Y-50405238D01*
X230824761Y-50500476D01*
X230777142Y-50548095D01*
X230681904Y-50595714D01*
X230491428Y-50595714D01*
X230396190Y-50548095D01*
X230348571Y-50500476D01*
X230300952Y-50405238D01*
X27757380Y-59047142D02*
X27281190Y-58713809D01*
X27757380Y-58475714D02*
X26757380Y-58475714D01*
X26757380Y-58856666D01*
X26805000Y-58951904D01*
X26852619Y-58999523D01*
X26947857Y-59047142D01*
X27090714Y-59047142D01*
X27185952Y-58999523D01*
X27233571Y-58951904D01*
X27281190Y-58856666D01*
X27281190Y-58475714D01*
X27090714Y-59904285D02*
X27757380Y-59904285D01*
X26709761Y-59666190D02*
X27424047Y-59428095D01*
X27424047Y-60047142D01*
X26757380Y-60856666D02*
X26757380Y-60666190D01*
X26805000Y-60570952D01*
X26852619Y-60523333D01*
X26995476Y-60428095D01*
X27185952Y-60380476D01*
X27566904Y-60380476D01*
X27662142Y-60428095D01*
X27709761Y-60475714D01*
X27757380Y-60570952D01*
X27757380Y-60761428D01*
X27709761Y-60856666D01*
X27662142Y-60904285D01*
X27566904Y-60951904D01*
X27328809Y-60951904D01*
X27233571Y-60904285D01*
X27185952Y-60856666D01*
X27138333Y-60761428D01*
X27138333Y-60570952D01*
X27185952Y-60475714D01*
X27233571Y-60428095D01*
X27328809Y-60380476D01*
X210637380Y-22497142D02*
X210161190Y-22163809D01*
X210637380Y-21925714D02*
X209637380Y-21925714D01*
X209637380Y-22306666D01*
X209685000Y-22401904D01*
X209732619Y-22449523D01*
X209827857Y-22497142D01*
X209970714Y-22497142D01*
X210065952Y-22449523D01*
X210113571Y-22401904D01*
X210161190Y-22306666D01*
X210161190Y-21925714D01*
X210637380Y-23449523D02*
X210637380Y-22878095D01*
X210637380Y-23163809D02*
X209637380Y-23163809D01*
X209780238Y-23068571D01*
X209875476Y-22973333D01*
X209923095Y-22878095D01*
X209637380Y-24306666D02*
X209637380Y-24116190D01*
X209685000Y-24020952D01*
X209732619Y-23973333D01*
X209875476Y-23878095D01*
X210065952Y-23830476D01*
X210446904Y-23830476D01*
X210542142Y-23878095D01*
X210589761Y-23925714D01*
X210637380Y-24020952D01*
X210637380Y-24211428D01*
X210589761Y-24306666D01*
X210542142Y-24354285D01*
X210446904Y-24401904D01*
X210208809Y-24401904D01*
X210113571Y-24354285D01*
X210065952Y-24306666D01*
X210018333Y-24211428D01*
X210018333Y-24020952D01*
X210065952Y-23925714D01*
X210113571Y-23878095D01*
X210208809Y-23830476D01*
X51887380Y-34917142D02*
X51411190Y-34583809D01*
X51887380Y-34345714D02*
X50887380Y-34345714D01*
X50887380Y-34726666D01*
X50935000Y-34821904D01*
X50982619Y-34869523D01*
X51077857Y-34917142D01*
X51220714Y-34917142D01*
X51315952Y-34869523D01*
X51363571Y-34821904D01*
X51411190Y-34726666D01*
X51411190Y-34345714D01*
X51887380Y-35869523D02*
X51887380Y-35298095D01*
X51887380Y-35583809D02*
X50887380Y-35583809D01*
X51030238Y-35488571D01*
X51125476Y-35393333D01*
X51173095Y-35298095D01*
X51887380Y-36821904D02*
X51887380Y-36250476D01*
X51887380Y-36536190D02*
X50887380Y-36536190D01*
X51030238Y-36440952D01*
X51125476Y-36345714D01*
X51173095Y-36250476D01*
X160186666Y-58322380D02*
X160520000Y-57846190D01*
X160758095Y-58322380D02*
X160758095Y-57322380D01*
X160377142Y-57322380D01*
X160281904Y-57370000D01*
X160234285Y-57417619D01*
X160186666Y-57512857D01*
X160186666Y-57655714D01*
X160234285Y-57750952D01*
X160281904Y-57798571D01*
X160377142Y-57846190D01*
X160758095Y-57846190D01*
X159853333Y-57322380D02*
X159234285Y-57322380D01*
X159567619Y-57703333D01*
X159424761Y-57703333D01*
X159329523Y-57750952D01*
X159281904Y-57798571D01*
X159234285Y-57893809D01*
X159234285Y-58131904D01*
X159281904Y-58227142D01*
X159329523Y-58274761D01*
X159424761Y-58322380D01*
X159710476Y-58322380D01*
X159805714Y-58274761D01*
X159853333Y-58227142D01*
X144597380Y-25747142D02*
X144121190Y-25413809D01*
X144597380Y-25175714D02*
X143597380Y-25175714D01*
X143597380Y-25556666D01*
X143645000Y-25651904D01*
X143692619Y-25699523D01*
X143787857Y-25747142D01*
X143930714Y-25747142D01*
X144025952Y-25699523D01*
X144073571Y-25651904D01*
X144121190Y-25556666D01*
X144121190Y-25175714D01*
X143597380Y-26080476D02*
X143597380Y-26699523D01*
X143978333Y-26366190D01*
X143978333Y-26509047D01*
X144025952Y-26604285D01*
X144073571Y-26651904D01*
X144168809Y-26699523D01*
X144406904Y-26699523D01*
X144502142Y-26651904D01*
X144549761Y-26604285D01*
X144597380Y-26509047D01*
X144597380Y-26223333D01*
X144549761Y-26128095D01*
X144502142Y-26080476D01*
X144025952Y-27270952D02*
X143978333Y-27175714D01*
X143930714Y-27128095D01*
X143835476Y-27080476D01*
X143787857Y-27080476D01*
X143692619Y-27128095D01*
X143645000Y-27175714D01*
X143597380Y-27270952D01*
X143597380Y-27461428D01*
X143645000Y-27556666D01*
X143692619Y-27604285D01*
X143787857Y-27651904D01*
X143835476Y-27651904D01*
X143930714Y-27604285D01*
X143978333Y-27556666D01*
X144025952Y-27461428D01*
X144025952Y-27270952D01*
X144073571Y-27175714D01*
X144121190Y-27128095D01*
X144216428Y-27080476D01*
X144406904Y-27080476D01*
X144502142Y-27128095D01*
X144549761Y-27175714D01*
X144597380Y-27270952D01*
X144597380Y-27461428D01*
X144549761Y-27556666D01*
X144502142Y-27604285D01*
X144406904Y-27651904D01*
X144216428Y-27651904D01*
X144121190Y-27604285D01*
X144073571Y-27556666D01*
X144025952Y-27461428D01*
X191142857Y-47927142D02*
X191190476Y-47974761D01*
X191333333Y-48022380D01*
X191428571Y-48022380D01*
X191571428Y-47974761D01*
X191666666Y-47879523D01*
X191714285Y-47784285D01*
X191761904Y-47593809D01*
X191761904Y-47450952D01*
X191714285Y-47260476D01*
X191666666Y-47165238D01*
X191571428Y-47070000D01*
X191428571Y-47022380D01*
X191333333Y-47022380D01*
X191190476Y-47070000D01*
X191142857Y-47117619D01*
X190190476Y-48022380D02*
X190761904Y-48022380D01*
X190476190Y-48022380D02*
X190476190Y-47022380D01*
X190571428Y-47165238D01*
X190666666Y-47260476D01*
X190761904Y-47308095D01*
X189857142Y-47022380D02*
X189238095Y-47022380D01*
X189571428Y-47403333D01*
X189428571Y-47403333D01*
X189333333Y-47450952D01*
X189285714Y-47498571D01*
X189238095Y-47593809D01*
X189238095Y-47831904D01*
X189285714Y-47927142D01*
X189333333Y-47974761D01*
X189428571Y-48022380D01*
X189714285Y-48022380D01*
X189809523Y-47974761D01*
X189857142Y-47927142D01*
X119197380Y-25747142D02*
X118721190Y-25413809D01*
X119197380Y-25175714D02*
X118197380Y-25175714D01*
X118197380Y-25556666D01*
X118245000Y-25651904D01*
X118292619Y-25699523D01*
X118387857Y-25747142D01*
X118530714Y-25747142D01*
X118625952Y-25699523D01*
X118673571Y-25651904D01*
X118721190Y-25556666D01*
X118721190Y-25175714D01*
X118197380Y-26080476D02*
X118197380Y-26699523D01*
X118578333Y-26366190D01*
X118578333Y-26509047D01*
X118625952Y-26604285D01*
X118673571Y-26651904D01*
X118768809Y-26699523D01*
X119006904Y-26699523D01*
X119102142Y-26651904D01*
X119149761Y-26604285D01*
X119197380Y-26509047D01*
X119197380Y-26223333D01*
X119149761Y-26128095D01*
X119102142Y-26080476D01*
X118197380Y-27032857D02*
X118197380Y-27651904D01*
X118578333Y-27318571D01*
X118578333Y-27461428D01*
X118625952Y-27556666D01*
X118673571Y-27604285D01*
X118768809Y-27651904D01*
X119006904Y-27651904D01*
X119102142Y-27604285D01*
X119149761Y-27556666D01*
X119197380Y-27461428D01*
X119197380Y-27175714D01*
X119149761Y-27080476D01*
X119102142Y-27032857D01*
X147677142Y-46982142D02*
X147724761Y-46934523D01*
X147772380Y-46791666D01*
X147772380Y-46696428D01*
X147724761Y-46553571D01*
X147629523Y-46458333D01*
X147534285Y-46410714D01*
X147343809Y-46363095D01*
X147200952Y-46363095D01*
X147010476Y-46410714D01*
X146915238Y-46458333D01*
X146820000Y-46553571D01*
X146772380Y-46696428D01*
X146772380Y-46791666D01*
X146820000Y-46934523D01*
X146867619Y-46982142D01*
X146772380Y-47315476D02*
X146772380Y-47934523D01*
X147153333Y-47601190D01*
X147153333Y-47744047D01*
X147200952Y-47839285D01*
X147248571Y-47886904D01*
X147343809Y-47934523D01*
X147581904Y-47934523D01*
X147677142Y-47886904D01*
X147724761Y-47839285D01*
X147772380Y-47744047D01*
X147772380Y-47458333D01*
X147724761Y-47363095D01*
X147677142Y-47315476D01*
X147105714Y-48791666D02*
X147772380Y-48791666D01*
X146724761Y-48553571D02*
X147439047Y-48315476D01*
X147439047Y-48934523D01*
X74112380Y-55237142D02*
X73636190Y-54903809D01*
X74112380Y-54665714D02*
X73112380Y-54665714D01*
X73112380Y-55046666D01*
X73160000Y-55141904D01*
X73207619Y-55189523D01*
X73302857Y-55237142D01*
X73445714Y-55237142D01*
X73540952Y-55189523D01*
X73588571Y-55141904D01*
X73636190Y-55046666D01*
X73636190Y-54665714D01*
X73112380Y-55570476D02*
X73112380Y-56189523D01*
X73493333Y-55856190D01*
X73493333Y-55999047D01*
X73540952Y-56094285D01*
X73588571Y-56141904D01*
X73683809Y-56189523D01*
X73921904Y-56189523D01*
X74017142Y-56141904D01*
X74064761Y-56094285D01*
X74112380Y-55999047D01*
X74112380Y-55713333D01*
X74064761Y-55618095D01*
X74017142Y-55570476D01*
X74112380Y-56665714D02*
X74112380Y-56856190D01*
X74064761Y-56951428D01*
X74017142Y-56999047D01*
X73874285Y-57094285D01*
X73683809Y-57141904D01*
X73302857Y-57141904D01*
X73207619Y-57094285D01*
X73160000Y-57046666D01*
X73112380Y-56951428D01*
X73112380Y-56760952D01*
X73160000Y-56665714D01*
X73207619Y-56618095D01*
X73302857Y-56570476D01*
X73540952Y-56570476D01*
X73636190Y-56618095D01*
X73683809Y-56665714D01*
X73731428Y-56760952D01*
X73731428Y-56951428D01*
X73683809Y-57046666D01*
X73636190Y-57094285D01*
X73540952Y-57141904D01*
X234322857Y-59507380D02*
X234656190Y-59031190D01*
X234894285Y-59507380D02*
X234894285Y-58507380D01*
X234513333Y-58507380D01*
X234418095Y-58555000D01*
X234370476Y-58602619D01*
X234322857Y-58697857D01*
X234322857Y-58840714D01*
X234370476Y-58935952D01*
X234418095Y-58983571D01*
X234513333Y-59031190D01*
X234894285Y-59031190D01*
X233370476Y-59507380D02*
X233941904Y-59507380D01*
X233656190Y-59507380D02*
X233656190Y-58507380D01*
X233751428Y-58650238D01*
X233846666Y-58745476D01*
X233941904Y-58793095D01*
X232513333Y-58840714D02*
X232513333Y-59507380D01*
X232751428Y-58459761D02*
X232989523Y-59174047D01*
X232370476Y-59174047D01*
X74112380Y-41902142D02*
X73636190Y-41568809D01*
X74112380Y-41330714D02*
X73112380Y-41330714D01*
X73112380Y-41711666D01*
X73160000Y-41806904D01*
X73207619Y-41854523D01*
X73302857Y-41902142D01*
X73445714Y-41902142D01*
X73540952Y-41854523D01*
X73588571Y-41806904D01*
X73636190Y-41711666D01*
X73636190Y-41330714D01*
X73112380Y-42235476D02*
X73112380Y-42854523D01*
X73493333Y-42521190D01*
X73493333Y-42664047D01*
X73540952Y-42759285D01*
X73588571Y-42806904D01*
X73683809Y-42854523D01*
X73921904Y-42854523D01*
X74017142Y-42806904D01*
X74064761Y-42759285D01*
X74112380Y-42664047D01*
X74112380Y-42378333D01*
X74064761Y-42283095D01*
X74017142Y-42235476D01*
X73207619Y-43235476D02*
X73160000Y-43283095D01*
X73112380Y-43378333D01*
X73112380Y-43616428D01*
X73160000Y-43711666D01*
X73207619Y-43759285D01*
X73302857Y-43806904D01*
X73398095Y-43806904D01*
X73540952Y-43759285D01*
X74112380Y-43187857D01*
X74112380Y-43806904D01*
X236037380Y-22693333D02*
X235561190Y-22360000D01*
X236037380Y-22121904D02*
X235037380Y-22121904D01*
X235037380Y-22502857D01*
X235085000Y-22598095D01*
X235132619Y-22645714D01*
X235227857Y-22693333D01*
X235370714Y-22693333D01*
X235465952Y-22645714D01*
X235513571Y-22598095D01*
X235561190Y-22502857D01*
X235561190Y-22121904D01*
X236037380Y-23645714D02*
X236037380Y-23074285D01*
X236037380Y-23360000D02*
X235037380Y-23360000D01*
X235180238Y-23264761D01*
X235275476Y-23169523D01*
X235323095Y-23074285D01*
X208922857Y-50617380D02*
X209256190Y-50141190D01*
X209494285Y-50617380D02*
X209494285Y-49617380D01*
X209113333Y-49617380D01*
X209018095Y-49665000D01*
X208970476Y-49712619D01*
X208922857Y-49807857D01*
X208922857Y-49950714D01*
X208970476Y-50045952D01*
X209018095Y-50093571D01*
X209113333Y-50141190D01*
X209494285Y-50141190D01*
X208541904Y-49712619D02*
X208494285Y-49665000D01*
X208399047Y-49617380D01*
X208160952Y-49617380D01*
X208065714Y-49665000D01*
X208018095Y-49712619D01*
X207970476Y-49807857D01*
X207970476Y-49903095D01*
X208018095Y-50045952D01*
X208589523Y-50617380D01*
X207970476Y-50617380D01*
X207018095Y-50617380D02*
X207589523Y-50617380D01*
X207303809Y-50617380D02*
X207303809Y-49617380D01*
X207399047Y-49760238D01*
X207494285Y-49855476D01*
X207589523Y-49903095D01*
X169997380Y-25697142D02*
X169521190Y-25363809D01*
X169997380Y-25125714D02*
X168997380Y-25125714D01*
X168997380Y-25506666D01*
X169045000Y-25601904D01*
X169092619Y-25649523D01*
X169187857Y-25697142D01*
X169330714Y-25697142D01*
X169425952Y-25649523D01*
X169473571Y-25601904D01*
X169521190Y-25506666D01*
X169521190Y-25125714D01*
X168997380Y-26030476D02*
X168997380Y-26649523D01*
X169378333Y-26316190D01*
X169378333Y-26459047D01*
X169425952Y-26554285D01*
X169473571Y-26601904D01*
X169568809Y-26649523D01*
X169806904Y-26649523D01*
X169902142Y-26601904D01*
X169949761Y-26554285D01*
X169997380Y-26459047D01*
X169997380Y-26173333D01*
X169949761Y-26078095D01*
X169902142Y-26030476D01*
X169997380Y-27601904D02*
X169997380Y-27030476D01*
X169997380Y-27316190D02*
X168997380Y-27316190D01*
X169140238Y-27220952D01*
X169235476Y-27125714D01*
X169283095Y-27030476D01*
X88907857Y-52427142D02*
X88955476Y-52474761D01*
X89098333Y-52522380D01*
X89193571Y-52522380D01*
X89336428Y-52474761D01*
X89431666Y-52379523D01*
X89479285Y-52284285D01*
X89526904Y-52093809D01*
X89526904Y-51950952D01*
X89479285Y-51760476D01*
X89431666Y-51665238D01*
X89336428Y-51570000D01*
X89193571Y-51522380D01*
X89098333Y-51522380D01*
X88955476Y-51570000D01*
X88907857Y-51617619D01*
X88526904Y-51617619D02*
X88479285Y-51570000D01*
X88384047Y-51522380D01*
X88145952Y-51522380D01*
X88050714Y-51570000D01*
X88003095Y-51617619D01*
X87955476Y-51712857D01*
X87955476Y-51808095D01*
X88003095Y-51950952D01*
X88574523Y-52522380D01*
X87955476Y-52522380D01*
X87622142Y-51522380D02*
X87003095Y-51522380D01*
X87336428Y-51903333D01*
X87193571Y-51903333D01*
X87098333Y-51950952D01*
X87050714Y-51998571D01*
X87003095Y-52093809D01*
X87003095Y-52331904D01*
X87050714Y-52427142D01*
X87098333Y-52474761D01*
X87193571Y-52522380D01*
X87479285Y-52522380D01*
X87574523Y-52474761D01*
X87622142Y-52427142D01*
X170346666Y-55782380D02*
X170680000Y-55306190D01*
X170918095Y-55782380D02*
X170918095Y-54782380D01*
X170537142Y-54782380D01*
X170441904Y-54830000D01*
X170394285Y-54877619D01*
X170346666Y-54972857D01*
X170346666Y-55115714D01*
X170394285Y-55210952D01*
X170441904Y-55258571D01*
X170537142Y-55306190D01*
X170918095Y-55306190D01*
X169965714Y-54877619D02*
X169918095Y-54830000D01*
X169822857Y-54782380D01*
X169584761Y-54782380D01*
X169489523Y-54830000D01*
X169441904Y-54877619D01*
X169394285Y-54972857D01*
X169394285Y-55068095D01*
X169441904Y-55210952D01*
X170013333Y-55782380D01*
X169394285Y-55782380D01*
X83192857Y-32837380D02*
X83526190Y-32361190D01*
X83764285Y-32837380D02*
X83764285Y-31837380D01*
X83383333Y-31837380D01*
X83288095Y-31885000D01*
X83240476Y-31932619D01*
X83192857Y-32027857D01*
X83192857Y-32170714D01*
X83240476Y-32265952D01*
X83288095Y-32313571D01*
X83383333Y-32361190D01*
X83764285Y-32361190D01*
X82335714Y-32170714D02*
X82335714Y-32837380D01*
X82573809Y-31789761D02*
X82811904Y-32504047D01*
X82192857Y-32504047D01*
X81859523Y-31932619D02*
X81811904Y-31885000D01*
X81716666Y-31837380D01*
X81478571Y-31837380D01*
X81383333Y-31885000D01*
X81335714Y-31932619D01*
X81288095Y-32027857D01*
X81288095Y-32123095D01*
X81335714Y-32265952D01*
X81907142Y-32837380D01*
X81288095Y-32837380D01*
X33027857Y-49887142D02*
X33075476Y-49934761D01*
X33218333Y-49982380D01*
X33313571Y-49982380D01*
X33456428Y-49934761D01*
X33551666Y-49839523D01*
X33599285Y-49744285D01*
X33646904Y-49553809D01*
X33646904Y-49410952D01*
X33599285Y-49220476D01*
X33551666Y-49125238D01*
X33456428Y-49030000D01*
X33313571Y-48982380D01*
X33218333Y-48982380D01*
X33075476Y-49030000D01*
X33027857Y-49077619D01*
X32694523Y-48982380D02*
X32075476Y-48982380D01*
X32408809Y-49363333D01*
X32265952Y-49363333D01*
X32170714Y-49410952D01*
X32123095Y-49458571D01*
X32075476Y-49553809D01*
X32075476Y-49791904D01*
X32123095Y-49887142D01*
X32170714Y-49934761D01*
X32265952Y-49982380D01*
X32551666Y-49982380D01*
X32646904Y-49934761D01*
X32694523Y-49887142D01*
X31170714Y-48982380D02*
X31646904Y-48982380D01*
X31694523Y-49458571D01*
X31646904Y-49410952D01*
X31551666Y-49363333D01*
X31313571Y-49363333D01*
X31218333Y-49410952D01*
X31170714Y-49458571D01*
X31123095Y-49553809D01*
X31123095Y-49791904D01*
X31170714Y-49887142D01*
X31218333Y-49934761D01*
X31313571Y-49982380D01*
X31551666Y-49982380D01*
X31646904Y-49934761D01*
X31694523Y-49887142D01*
X230807142Y-54735833D02*
X230854761Y-54688214D01*
X230902380Y-54545357D01*
X230902380Y-54450119D01*
X230854761Y-54307261D01*
X230759523Y-54212023D01*
X230664285Y-54164404D01*
X230473809Y-54116785D01*
X230330952Y-54116785D01*
X230140476Y-54164404D01*
X230045238Y-54212023D01*
X229950000Y-54307261D01*
X229902380Y-54450119D01*
X229902380Y-54545357D01*
X229950000Y-54688214D01*
X229997619Y-54735833D01*
X230330952Y-55307261D02*
X230283333Y-55212023D01*
X230235714Y-55164404D01*
X230140476Y-55116785D01*
X230092857Y-55116785D01*
X229997619Y-55164404D01*
X229950000Y-55212023D01*
X229902380Y-55307261D01*
X229902380Y-55497738D01*
X229950000Y-55592976D01*
X229997619Y-55640595D01*
X230092857Y-55688214D01*
X230140476Y-55688214D01*
X230235714Y-55640595D01*
X230283333Y-55592976D01*
X230330952Y-55497738D01*
X230330952Y-55307261D01*
X230378571Y-55212023D01*
X230426190Y-55164404D01*
X230521428Y-55116785D01*
X230711904Y-55116785D01*
X230807142Y-55164404D01*
X230854761Y-55212023D01*
X230902380Y-55307261D01*
X230902380Y-55497738D01*
X230854761Y-55592976D01*
X230807142Y-55640595D01*
X230711904Y-55688214D01*
X230521428Y-55688214D01*
X230426190Y-55640595D01*
X230378571Y-55592976D01*
X230330952Y-55497738D01*
X31122857Y-42912380D02*
X31456190Y-42436190D01*
X31694285Y-42912380D02*
X31694285Y-41912380D01*
X31313333Y-41912380D01*
X31218095Y-41960000D01*
X31170476Y-42007619D01*
X31122857Y-42102857D01*
X31122857Y-42245714D01*
X31170476Y-42340952D01*
X31218095Y-42388571D01*
X31313333Y-42436190D01*
X31694285Y-42436190D01*
X30170476Y-42912380D02*
X30741904Y-42912380D01*
X30456190Y-42912380D02*
X30456190Y-41912380D01*
X30551428Y-42055238D01*
X30646666Y-42150476D01*
X30741904Y-42198095D01*
X29789523Y-42007619D02*
X29741904Y-41960000D01*
X29646666Y-41912380D01*
X29408571Y-41912380D01*
X29313333Y-41960000D01*
X29265714Y-42007619D01*
X29218095Y-42102857D01*
X29218095Y-42198095D01*
X29265714Y-42340952D01*
X29837142Y-42912380D01*
X29218095Y-42912380D01*
X244006666Y-50702380D02*
X244340000Y-50226190D01*
X244578095Y-50702380D02*
X244578095Y-49702380D01*
X244197142Y-49702380D01*
X244101904Y-49750000D01*
X244054285Y-49797619D01*
X244006666Y-49892857D01*
X244006666Y-50035714D01*
X244054285Y-50130952D01*
X244101904Y-50178571D01*
X244197142Y-50226190D01*
X244578095Y-50226190D01*
X243149523Y-50035714D02*
X243149523Y-50702380D01*
X243387619Y-49654761D02*
X243625714Y-50369047D01*
X243006666Y-50369047D01*
X18422857Y-39272380D02*
X18756190Y-38796190D01*
X18994285Y-39272380D02*
X18994285Y-38272380D01*
X18613333Y-38272380D01*
X18518095Y-38320000D01*
X18470476Y-38367619D01*
X18422857Y-38462857D01*
X18422857Y-38605714D01*
X18470476Y-38700952D01*
X18518095Y-38748571D01*
X18613333Y-38796190D01*
X18994285Y-38796190D01*
X18041904Y-38367619D02*
X17994285Y-38320000D01*
X17899047Y-38272380D01*
X17660952Y-38272380D01*
X17565714Y-38320000D01*
X17518095Y-38367619D01*
X17470476Y-38462857D01*
X17470476Y-38558095D01*
X17518095Y-38700952D01*
X18089523Y-39272380D01*
X17470476Y-39272380D01*
X16994285Y-39272380D02*
X16803809Y-39272380D01*
X16708571Y-39224761D01*
X16660952Y-39177142D01*
X16565714Y-39034285D01*
X16518095Y-38843809D01*
X16518095Y-38462857D01*
X16565714Y-38367619D01*
X16613333Y-38320000D01*
X16708571Y-38272380D01*
X16899047Y-38272380D01*
X16994285Y-38320000D01*
X17041904Y-38367619D01*
X17089523Y-38462857D01*
X17089523Y-38700952D01*
X17041904Y-38796190D01*
X16994285Y-38843809D01*
X16899047Y-38891428D01*
X16708571Y-38891428D01*
X16613333Y-38843809D01*
X16565714Y-38796190D01*
X16518095Y-38700952D01*
X257712380Y-34917142D02*
X257236190Y-34583809D01*
X257712380Y-34345714D02*
X256712380Y-34345714D01*
X256712380Y-34726666D01*
X256760000Y-34821904D01*
X256807619Y-34869523D01*
X256902857Y-34917142D01*
X257045714Y-34917142D01*
X257140952Y-34869523D01*
X257188571Y-34821904D01*
X257236190Y-34726666D01*
X257236190Y-34345714D01*
X256712380Y-35821904D02*
X256712380Y-35345714D01*
X257188571Y-35298095D01*
X257140952Y-35345714D01*
X257093333Y-35440952D01*
X257093333Y-35679047D01*
X257140952Y-35774285D01*
X257188571Y-35821904D01*
X257283809Y-35869523D01*
X257521904Y-35869523D01*
X257617142Y-35821904D01*
X257664761Y-35774285D01*
X257712380Y-35679047D01*
X257712380Y-35440952D01*
X257664761Y-35345714D01*
X257617142Y-35298095D01*
X256807619Y-36250476D02*
X256760000Y-36298095D01*
X256712380Y-36393333D01*
X256712380Y-36631428D01*
X256760000Y-36726666D01*
X256807619Y-36774285D01*
X256902857Y-36821904D01*
X256998095Y-36821904D01*
X257140952Y-36774285D01*
X257712380Y-36202857D01*
X257712380Y-36821904D01*
X18422857Y-50702380D02*
X18756190Y-50226190D01*
X18994285Y-50702380D02*
X18994285Y-49702380D01*
X18613333Y-49702380D01*
X18518095Y-49750000D01*
X18470476Y-49797619D01*
X18422857Y-49892857D01*
X18422857Y-50035714D01*
X18470476Y-50130952D01*
X18518095Y-50178571D01*
X18613333Y-50226190D01*
X18994285Y-50226190D01*
X17565714Y-50035714D02*
X17565714Y-50702380D01*
X17803809Y-49654761D02*
X18041904Y-50369047D01*
X17422857Y-50369047D01*
X16899047Y-50130952D02*
X16994285Y-50083333D01*
X17041904Y-50035714D01*
X17089523Y-49940476D01*
X17089523Y-49892857D01*
X17041904Y-49797619D01*
X16994285Y-49750000D01*
X16899047Y-49702380D01*
X16708571Y-49702380D01*
X16613333Y-49750000D01*
X16565714Y-49797619D01*
X16518095Y-49892857D01*
X16518095Y-49940476D01*
X16565714Y-50035714D01*
X16613333Y-50083333D01*
X16708571Y-50130952D01*
X16899047Y-50130952D01*
X16994285Y-50178571D01*
X17041904Y-50226190D01*
X17089523Y-50321428D01*
X17089523Y-50511904D01*
X17041904Y-50607142D01*
X16994285Y-50654761D01*
X16899047Y-50702380D01*
X16708571Y-50702380D01*
X16613333Y-50654761D01*
X16565714Y-50607142D01*
X16518095Y-50511904D01*
X16518095Y-50321428D01*
X16565714Y-50226190D01*
X16613333Y-50178571D01*
X16708571Y-50130952D01*
X47757142Y-33647142D02*
X47804761Y-33599523D01*
X47852380Y-33456666D01*
X47852380Y-33361428D01*
X47804761Y-33218571D01*
X47709523Y-33123333D01*
X47614285Y-33075714D01*
X47423809Y-33028095D01*
X47280952Y-33028095D01*
X47090476Y-33075714D01*
X46995238Y-33123333D01*
X46900000Y-33218571D01*
X46852380Y-33361428D01*
X46852380Y-33456666D01*
X46900000Y-33599523D01*
X46947619Y-33647142D01*
X47852380Y-34599523D02*
X47852380Y-34028095D01*
X47852380Y-34313809D02*
X46852380Y-34313809D01*
X46995238Y-34218571D01*
X47090476Y-34123333D01*
X47138095Y-34028095D01*
X46852380Y-35218571D02*
X46852380Y-35313809D01*
X46900000Y-35409047D01*
X46947619Y-35456666D01*
X47042857Y-35504285D01*
X47233333Y-35551904D01*
X47471428Y-35551904D01*
X47661904Y-35504285D01*
X47757142Y-35456666D01*
X47804761Y-35409047D01*
X47852380Y-35313809D01*
X47852380Y-35218571D01*
X47804761Y-35123333D01*
X47757142Y-35075714D01*
X47661904Y-35028095D01*
X47471428Y-34980476D01*
X47233333Y-34980476D01*
X47042857Y-35028095D01*
X46947619Y-35075714D01*
X46900000Y-35123333D01*
X46852380Y-35218571D01*
X114942857Y-61897142D02*
X114990476Y-61944761D01*
X115133333Y-61992380D01*
X115228571Y-61992380D01*
X115371428Y-61944761D01*
X115466666Y-61849523D01*
X115514285Y-61754285D01*
X115561904Y-61563809D01*
X115561904Y-61420952D01*
X115514285Y-61230476D01*
X115466666Y-61135238D01*
X115371428Y-61040000D01*
X115228571Y-60992380D01*
X115133333Y-60992380D01*
X114990476Y-61040000D01*
X114942857Y-61087619D01*
X113990476Y-61992380D02*
X114561904Y-61992380D01*
X114276190Y-61992380D02*
X114276190Y-60992380D01*
X114371428Y-61135238D01*
X114466666Y-61230476D01*
X114561904Y-61278095D01*
X113133333Y-61325714D02*
X113133333Y-61992380D01*
X113371428Y-60944761D02*
X113609523Y-61659047D01*
X112990476Y-61659047D01*
X208922857Y-56882380D02*
X209256190Y-56406190D01*
X209494285Y-56882380D02*
X209494285Y-55882380D01*
X209113333Y-55882380D01*
X209018095Y-55930000D01*
X208970476Y-55977619D01*
X208922857Y-56072857D01*
X208922857Y-56215714D01*
X208970476Y-56310952D01*
X209018095Y-56358571D01*
X209113333Y-56406190D01*
X209494285Y-56406190D01*
X208541904Y-55977619D02*
X208494285Y-55930000D01*
X208399047Y-55882380D01*
X208160952Y-55882380D01*
X208065714Y-55930000D01*
X208018095Y-55977619D01*
X207970476Y-56072857D01*
X207970476Y-56168095D01*
X208018095Y-56310952D01*
X208589523Y-56882380D01*
X207970476Y-56882380D01*
X207637142Y-55882380D02*
X206970476Y-55882380D01*
X207399047Y-56882380D01*
X210552380Y-34917142D02*
X210076190Y-34583809D01*
X210552380Y-34345714D02*
X209552380Y-34345714D01*
X209552380Y-34726666D01*
X209600000Y-34821904D01*
X209647619Y-34869523D01*
X209742857Y-34917142D01*
X209885714Y-34917142D01*
X209980952Y-34869523D01*
X210028571Y-34821904D01*
X210076190Y-34726666D01*
X210076190Y-34345714D01*
X209647619Y-35298095D02*
X209600000Y-35345714D01*
X209552380Y-35440952D01*
X209552380Y-35679047D01*
X209600000Y-35774285D01*
X209647619Y-35821904D01*
X209742857Y-35869523D01*
X209838095Y-35869523D01*
X209980952Y-35821904D01*
X210552380Y-35250476D01*
X210552380Y-35869523D01*
X209552380Y-36488571D02*
X209552380Y-36583809D01*
X209600000Y-36679047D01*
X209647619Y-36726666D01*
X209742857Y-36774285D01*
X209933333Y-36821904D01*
X210171428Y-36821904D01*
X210361904Y-36774285D01*
X210457142Y-36726666D01*
X210504761Y-36679047D01*
X210552380Y-36583809D01*
X210552380Y-36488571D01*
X210504761Y-36393333D01*
X210457142Y-36345714D01*
X210361904Y-36298095D01*
X210171428Y-36250476D01*
X209933333Y-36250476D01*
X209742857Y-36298095D01*
X209647619Y-36345714D01*
X209600000Y-36393333D01*
X209552380Y-36488571D01*
X219487142Y-46054642D02*
X219534761Y-46007023D01*
X219582380Y-45864166D01*
X219582380Y-45768928D01*
X219534761Y-45626071D01*
X219439523Y-45530833D01*
X219344285Y-45483214D01*
X219153809Y-45435595D01*
X219010952Y-45435595D01*
X218820476Y-45483214D01*
X218725238Y-45530833D01*
X218630000Y-45626071D01*
X218582380Y-45768928D01*
X218582380Y-45864166D01*
X218630000Y-46007023D01*
X218677619Y-46054642D01*
X218582380Y-46387976D02*
X218582380Y-47007023D01*
X218963333Y-46673690D01*
X218963333Y-46816547D01*
X219010952Y-46911785D01*
X219058571Y-46959404D01*
X219153809Y-47007023D01*
X219391904Y-47007023D01*
X219487142Y-46959404D01*
X219534761Y-46911785D01*
X219582380Y-46816547D01*
X219582380Y-46530833D01*
X219534761Y-46435595D01*
X219487142Y-46387976D01*
X218582380Y-47340357D02*
X218582380Y-48007023D01*
X219582380Y-47578452D01*
X88907857Y-47347142D02*
X88955476Y-47394761D01*
X89098333Y-47442380D01*
X89193571Y-47442380D01*
X89336428Y-47394761D01*
X89431666Y-47299523D01*
X89479285Y-47204285D01*
X89526904Y-47013809D01*
X89526904Y-46870952D01*
X89479285Y-46680476D01*
X89431666Y-46585238D01*
X89336428Y-46490000D01*
X89193571Y-46442380D01*
X89098333Y-46442380D01*
X88955476Y-46490000D01*
X88907857Y-46537619D01*
X88526904Y-46537619D02*
X88479285Y-46490000D01*
X88384047Y-46442380D01*
X88145952Y-46442380D01*
X88050714Y-46490000D01*
X88003095Y-46537619D01*
X87955476Y-46632857D01*
X87955476Y-46728095D01*
X88003095Y-46870952D01*
X88574523Y-47442380D01*
X87955476Y-47442380D01*
X87050714Y-46442380D02*
X87526904Y-46442380D01*
X87574523Y-46918571D01*
X87526904Y-46870952D01*
X87431666Y-46823333D01*
X87193571Y-46823333D01*
X87098333Y-46870952D01*
X87050714Y-46918571D01*
X87003095Y-47013809D01*
X87003095Y-47251904D01*
X87050714Y-47347142D01*
X87098333Y-47394761D01*
X87193571Y-47442380D01*
X87431666Y-47442380D01*
X87526904Y-47394761D01*
X87574523Y-47347142D01*
X130817857Y-57602380D02*
X131151190Y-57126190D01*
X131389285Y-57602380D02*
X131389285Y-56602380D01*
X131008333Y-56602380D01*
X130913095Y-56650000D01*
X130865476Y-56697619D01*
X130817857Y-56792857D01*
X130817857Y-56935714D01*
X130865476Y-57030952D01*
X130913095Y-57078571D01*
X131008333Y-57126190D01*
X131389285Y-57126190D01*
X129865476Y-57602380D02*
X130436904Y-57602380D01*
X130151190Y-57602380D02*
X130151190Y-56602380D01*
X130246428Y-56745238D01*
X130341666Y-56840476D01*
X130436904Y-56888095D01*
X129294047Y-57030952D02*
X129389285Y-56983333D01*
X129436904Y-56935714D01*
X129484523Y-56840476D01*
X129484523Y-56792857D01*
X129436904Y-56697619D01*
X129389285Y-56650000D01*
X129294047Y-56602380D01*
X129103571Y-56602380D01*
X129008333Y-56650000D01*
X128960714Y-56697619D01*
X128913095Y-56792857D01*
X128913095Y-56840476D01*
X128960714Y-56935714D01*
X129008333Y-56983333D01*
X129103571Y-57030952D01*
X129294047Y-57030952D01*
X129389285Y-57078571D01*
X129436904Y-57126190D01*
X129484523Y-57221428D01*
X129484523Y-57411904D01*
X129436904Y-57507142D01*
X129389285Y-57554761D01*
X129294047Y-57602380D01*
X129103571Y-57602380D01*
X129008333Y-57554761D01*
X128960714Y-57507142D01*
X128913095Y-57411904D01*
X128913095Y-57221428D01*
X128960714Y-57126190D01*
X129008333Y-57078571D01*
X129103571Y-57030952D01*
X198762857Y-51887380D02*
X199096190Y-51411190D01*
X199334285Y-51887380D02*
X199334285Y-50887380D01*
X198953333Y-50887380D01*
X198858095Y-50935000D01*
X198810476Y-50982619D01*
X198762857Y-51077857D01*
X198762857Y-51220714D01*
X198810476Y-51315952D01*
X198858095Y-51363571D01*
X198953333Y-51411190D01*
X199334285Y-51411190D01*
X197810476Y-51887380D02*
X198381904Y-51887380D01*
X198096190Y-51887380D02*
X198096190Y-50887380D01*
X198191428Y-51030238D01*
X198286666Y-51125476D01*
X198381904Y-51173095D01*
X197334285Y-51887380D02*
X197143809Y-51887380D01*
X197048571Y-51839761D01*
X197000952Y-51792142D01*
X196905714Y-51649285D01*
X196858095Y-51458809D01*
X196858095Y-51077857D01*
X196905714Y-50982619D01*
X196953333Y-50935000D01*
X197048571Y-50887380D01*
X197239047Y-50887380D01*
X197334285Y-50935000D01*
X197381904Y-50982619D01*
X197429523Y-51077857D01*
X197429523Y-51315952D01*
X197381904Y-51411190D01*
X197334285Y-51458809D01*
X197239047Y-51506428D01*
X197048571Y-51506428D01*
X196953333Y-51458809D01*
X196905714Y-51411190D01*
X196858095Y-51315952D01*
X48077380Y-28567142D02*
X47601190Y-28233809D01*
X48077380Y-27995714D02*
X47077380Y-27995714D01*
X47077380Y-28376666D01*
X47125000Y-28471904D01*
X47172619Y-28519523D01*
X47267857Y-28567142D01*
X47410714Y-28567142D01*
X47505952Y-28519523D01*
X47553571Y-28471904D01*
X47601190Y-28376666D01*
X47601190Y-27995714D01*
X48077380Y-29519523D02*
X48077380Y-28948095D01*
X48077380Y-29233809D02*
X47077380Y-29233809D01*
X47220238Y-29138571D01*
X47315476Y-29043333D01*
X47363095Y-28948095D01*
X47077380Y-30424285D02*
X47077380Y-29948095D01*
X47553571Y-29900476D01*
X47505952Y-29948095D01*
X47458333Y-30043333D01*
X47458333Y-30281428D01*
X47505952Y-30376666D01*
X47553571Y-30424285D01*
X47648809Y-30471904D01*
X47886904Y-30471904D01*
X47982142Y-30424285D01*
X48029761Y-30376666D01*
X48077380Y-30281428D01*
X48077380Y-30043333D01*
X48029761Y-29948095D01*
X47982142Y-29900476D01*
X64142857Y-49887142D02*
X64190476Y-49934761D01*
X64333333Y-49982380D01*
X64428571Y-49982380D01*
X64571428Y-49934761D01*
X64666666Y-49839523D01*
X64714285Y-49744285D01*
X64761904Y-49553809D01*
X64761904Y-49410952D01*
X64714285Y-49220476D01*
X64666666Y-49125238D01*
X64571428Y-49030000D01*
X64428571Y-48982380D01*
X64333333Y-48982380D01*
X64190476Y-49030000D01*
X64142857Y-49077619D01*
X63809523Y-48982380D02*
X63190476Y-48982380D01*
X63523809Y-49363333D01*
X63380952Y-49363333D01*
X63285714Y-49410952D01*
X63238095Y-49458571D01*
X63190476Y-49553809D01*
X63190476Y-49791904D01*
X63238095Y-49887142D01*
X63285714Y-49934761D01*
X63380952Y-49982380D01*
X63666666Y-49982380D01*
X63761904Y-49934761D01*
X63809523Y-49887142D01*
X62333333Y-48982380D02*
X62523809Y-48982380D01*
X62619047Y-49030000D01*
X62666666Y-49077619D01*
X62761904Y-49220476D01*
X62809523Y-49410952D01*
X62809523Y-49791904D01*
X62761904Y-49887142D01*
X62714285Y-49934761D01*
X62619047Y-49982380D01*
X62428571Y-49982380D01*
X62333333Y-49934761D01*
X62285714Y-49887142D01*
X62238095Y-49791904D01*
X62238095Y-49553809D01*
X62285714Y-49458571D01*
X62333333Y-49410952D01*
X62428571Y-49363333D01*
X62619047Y-49363333D01*
X62714285Y-49410952D01*
X62761904Y-49458571D01*
X62809523Y-49553809D01*
X175719166Y-60737142D02*
X175766785Y-60784761D01*
X175909642Y-60832380D01*
X176004880Y-60832380D01*
X176147738Y-60784761D01*
X176242976Y-60689523D01*
X176290595Y-60594285D01*
X176338214Y-60403809D01*
X176338214Y-60260952D01*
X176290595Y-60070476D01*
X176242976Y-59975238D01*
X176147738Y-59880000D01*
X176004880Y-59832380D01*
X175909642Y-59832380D01*
X175766785Y-59880000D01*
X175719166Y-59927619D01*
X174862023Y-60165714D02*
X174862023Y-60832380D01*
X175100119Y-59784761D02*
X175338214Y-60499047D01*
X174719166Y-60499047D01*
X148947142Y-60952142D02*
X148994761Y-60904523D01*
X149042380Y-60761666D01*
X149042380Y-60666428D01*
X148994761Y-60523571D01*
X148899523Y-60428333D01*
X148804285Y-60380714D01*
X148613809Y-60333095D01*
X148470952Y-60333095D01*
X148280476Y-60380714D01*
X148185238Y-60428333D01*
X148090000Y-60523571D01*
X148042380Y-60666428D01*
X148042380Y-60761666D01*
X148090000Y-60904523D01*
X148137619Y-60952142D01*
X149042380Y-61904523D02*
X149042380Y-61333095D01*
X149042380Y-61618809D02*
X148042380Y-61618809D01*
X148185238Y-61523571D01*
X148280476Y-61428333D01*
X148328095Y-61333095D01*
X148042380Y-62237857D02*
X148042380Y-62904523D01*
X149042380Y-62475952D01*
X19502380Y-65397142D02*
X19026190Y-65063809D01*
X19502380Y-64825714D02*
X18502380Y-64825714D01*
X18502380Y-65206666D01*
X18550000Y-65301904D01*
X18597619Y-65349523D01*
X18692857Y-65397142D01*
X18835714Y-65397142D01*
X18930952Y-65349523D01*
X18978571Y-65301904D01*
X19026190Y-65206666D01*
X19026190Y-64825714D01*
X18835714Y-66254285D02*
X19502380Y-66254285D01*
X18454761Y-66016190D02*
X19169047Y-65778095D01*
X19169047Y-66397142D01*
X18835714Y-67206666D02*
X19502380Y-67206666D01*
X18454761Y-66968571D02*
X19169047Y-66730476D01*
X19169047Y-67349523D01*
X21367142Y-50157142D02*
X21414761Y-50109523D01*
X21462380Y-49966666D01*
X21462380Y-49871428D01*
X21414761Y-49728571D01*
X21319523Y-49633333D01*
X21224285Y-49585714D01*
X21033809Y-49538095D01*
X20890952Y-49538095D01*
X20700476Y-49585714D01*
X20605238Y-49633333D01*
X20510000Y-49728571D01*
X20462380Y-49871428D01*
X20462380Y-49966666D01*
X20510000Y-50109523D01*
X20557619Y-50157142D01*
X20795714Y-51014285D02*
X21462380Y-51014285D01*
X20414761Y-50776190D02*
X21129047Y-50538095D01*
X21129047Y-51157142D01*
X20462380Y-51728571D02*
X20462380Y-51823809D01*
X20510000Y-51919047D01*
X20557619Y-51966666D01*
X20652857Y-52014285D01*
X20843333Y-52061904D01*
X21081428Y-52061904D01*
X21271904Y-52014285D01*
X21367142Y-51966666D01*
X21414761Y-51919047D01*
X21462380Y-51823809D01*
X21462380Y-51728571D01*
X21414761Y-51633333D01*
X21367142Y-51585714D01*
X21271904Y-51538095D01*
X21081428Y-51490476D01*
X20843333Y-51490476D01*
X20652857Y-51538095D01*
X20557619Y-51585714D01*
X20510000Y-51633333D01*
X20462380Y-51728571D01*
X198762857Y-56882380D02*
X199096190Y-56406190D01*
X199334285Y-56882380D02*
X199334285Y-55882380D01*
X198953333Y-55882380D01*
X198858095Y-55930000D01*
X198810476Y-55977619D01*
X198762857Y-56072857D01*
X198762857Y-56215714D01*
X198810476Y-56310952D01*
X198858095Y-56358571D01*
X198953333Y-56406190D01*
X199334285Y-56406190D01*
X198381904Y-55977619D02*
X198334285Y-55930000D01*
X198239047Y-55882380D01*
X198000952Y-55882380D01*
X197905714Y-55930000D01*
X197858095Y-55977619D01*
X197810476Y-56072857D01*
X197810476Y-56168095D01*
X197858095Y-56310952D01*
X198429523Y-56882380D01*
X197810476Y-56882380D01*
X196953333Y-55882380D02*
X197143809Y-55882380D01*
X197239047Y-55930000D01*
X197286666Y-55977619D01*
X197381904Y-56120476D01*
X197429523Y-56310952D01*
X197429523Y-56691904D01*
X197381904Y-56787142D01*
X197334285Y-56834761D01*
X197239047Y-56882380D01*
X197048571Y-56882380D01*
X196953333Y-56834761D01*
X196905714Y-56787142D01*
X196858095Y-56691904D01*
X196858095Y-56453809D01*
X196905714Y-56358571D01*
X196953333Y-56310952D01*
X197048571Y-56263333D01*
X197239047Y-56263333D01*
X197334285Y-56310952D01*
X197381904Y-56358571D01*
X197429523Y-56453809D01*
X76652380Y-55237142D02*
X76176190Y-54903809D01*
X76652380Y-54665714D02*
X75652380Y-54665714D01*
X75652380Y-55046666D01*
X75700000Y-55141904D01*
X75747619Y-55189523D01*
X75842857Y-55237142D01*
X75985714Y-55237142D01*
X76080952Y-55189523D01*
X76128571Y-55141904D01*
X76176190Y-55046666D01*
X76176190Y-54665714D01*
X75652380Y-55570476D02*
X75652380Y-56189523D01*
X76033333Y-55856190D01*
X76033333Y-55999047D01*
X76080952Y-56094285D01*
X76128571Y-56141904D01*
X76223809Y-56189523D01*
X76461904Y-56189523D01*
X76557142Y-56141904D01*
X76604761Y-56094285D01*
X76652380Y-55999047D01*
X76652380Y-55713333D01*
X76604761Y-55618095D01*
X76557142Y-55570476D01*
X75652380Y-56808571D02*
X75652380Y-56903809D01*
X75700000Y-56999047D01*
X75747619Y-57046666D01*
X75842857Y-57094285D01*
X76033333Y-57141904D01*
X76271428Y-57141904D01*
X76461904Y-57094285D01*
X76557142Y-57046666D01*
X76604761Y-56999047D01*
X76652380Y-56903809D01*
X76652380Y-56808571D01*
X76604761Y-56713333D01*
X76557142Y-56665714D01*
X76461904Y-56618095D01*
X76271428Y-56570476D01*
X76033333Y-56570476D01*
X75842857Y-56618095D01*
X75747619Y-56665714D01*
X75700000Y-56713333D01*
X75652380Y-56808571D01*
X170346666Y-60862380D02*
X170680000Y-60386190D01*
X170918095Y-60862380D02*
X170918095Y-59862380D01*
X170537142Y-59862380D01*
X170441904Y-59910000D01*
X170394285Y-59957619D01*
X170346666Y-60052857D01*
X170346666Y-60195714D01*
X170394285Y-60290952D01*
X170441904Y-60338571D01*
X170537142Y-60386190D01*
X170918095Y-60386190D01*
X169870476Y-60862380D02*
X169680000Y-60862380D01*
X169584761Y-60814761D01*
X169537142Y-60767142D01*
X169441904Y-60624285D01*
X169394285Y-60433809D01*
X169394285Y-60052857D01*
X169441904Y-59957619D01*
X169489523Y-59910000D01*
X169584761Y-59862380D01*
X169775238Y-59862380D01*
X169870476Y-59910000D01*
X169918095Y-59957619D01*
X169965714Y-60052857D01*
X169965714Y-60290952D01*
X169918095Y-60386190D01*
X169870476Y-60433809D01*
X169775238Y-60481428D01*
X169584761Y-60481428D01*
X169489523Y-60433809D01*
X169441904Y-60386190D01*
X169394285Y-60290952D01*
X26487380Y-34917142D02*
X26011190Y-34583809D01*
X26487380Y-34345714D02*
X25487380Y-34345714D01*
X25487380Y-34726666D01*
X25535000Y-34821904D01*
X25582619Y-34869523D01*
X25677857Y-34917142D01*
X25820714Y-34917142D01*
X25915952Y-34869523D01*
X25963571Y-34821904D01*
X26011190Y-34726666D01*
X26011190Y-34345714D01*
X25582619Y-35298095D02*
X25535000Y-35345714D01*
X25487380Y-35440952D01*
X25487380Y-35679047D01*
X25535000Y-35774285D01*
X25582619Y-35821904D01*
X25677857Y-35869523D01*
X25773095Y-35869523D01*
X25915952Y-35821904D01*
X26487380Y-35250476D01*
X26487380Y-35869523D01*
X25915952Y-36440952D02*
X25868333Y-36345714D01*
X25820714Y-36298095D01*
X25725476Y-36250476D01*
X25677857Y-36250476D01*
X25582619Y-36298095D01*
X25535000Y-36345714D01*
X25487380Y-36440952D01*
X25487380Y-36631428D01*
X25535000Y-36726666D01*
X25582619Y-36774285D01*
X25677857Y-36821904D01*
X25725476Y-36821904D01*
X25820714Y-36774285D01*
X25868333Y-36726666D01*
X25915952Y-36631428D01*
X25915952Y-36440952D01*
X25963571Y-36345714D01*
X26011190Y-36298095D01*
X26106428Y-36250476D01*
X26296904Y-36250476D01*
X26392142Y-36298095D01*
X26439761Y-36345714D01*
X26487380Y-36440952D01*
X26487380Y-36631428D01*
X26439761Y-36726666D01*
X26392142Y-36774285D01*
X26296904Y-36821904D01*
X26106428Y-36821904D01*
X26011190Y-36774285D01*
X25963571Y-36726666D01*
X25915952Y-36631428D01*
X33027857Y-52427142D02*
X33075476Y-52474761D01*
X33218333Y-52522380D01*
X33313571Y-52522380D01*
X33456428Y-52474761D01*
X33551666Y-52379523D01*
X33599285Y-52284285D01*
X33646904Y-52093809D01*
X33646904Y-51950952D01*
X33599285Y-51760476D01*
X33551666Y-51665238D01*
X33456428Y-51570000D01*
X33313571Y-51522380D01*
X33218333Y-51522380D01*
X33075476Y-51570000D01*
X33027857Y-51617619D01*
X32646904Y-51617619D02*
X32599285Y-51570000D01*
X32504047Y-51522380D01*
X32265952Y-51522380D01*
X32170714Y-51570000D01*
X32123095Y-51617619D01*
X32075476Y-51712857D01*
X32075476Y-51808095D01*
X32123095Y-51950952D01*
X32694523Y-52522380D01*
X32075476Y-52522380D01*
X31742142Y-51522380D02*
X31075476Y-51522380D01*
X31504047Y-52522380D01*
X141907142Y-56507142D02*
X141954761Y-56459523D01*
X142002380Y-56316666D01*
X142002380Y-56221428D01*
X141954761Y-56078571D01*
X141859523Y-55983333D01*
X141764285Y-55935714D01*
X141573809Y-55888095D01*
X141430952Y-55888095D01*
X141240476Y-55935714D01*
X141145238Y-55983333D01*
X141050000Y-56078571D01*
X141002380Y-56221428D01*
X141002380Y-56316666D01*
X141050000Y-56459523D01*
X141097619Y-56507142D01*
X142002380Y-57459523D02*
X142002380Y-56888095D01*
X142002380Y-57173809D02*
X141002380Y-57173809D01*
X141145238Y-57078571D01*
X141240476Y-56983333D01*
X141288095Y-56888095D01*
X141002380Y-58364285D02*
X141002380Y-57888095D01*
X141478571Y-57840476D01*
X141430952Y-57888095D01*
X141383333Y-57983333D01*
X141383333Y-58221428D01*
X141430952Y-58316666D01*
X141478571Y-58364285D01*
X141573809Y-58411904D01*
X141811904Y-58411904D01*
X141907142Y-58364285D01*
X141954761Y-58316666D01*
X142002380Y-58221428D01*
X142002380Y-57983333D01*
X141954761Y-57888095D01*
X141907142Y-57840476D01*
X141972380Y-37457142D02*
X141496190Y-37123809D01*
X141972380Y-36885714D02*
X140972380Y-36885714D01*
X140972380Y-37266666D01*
X141020000Y-37361904D01*
X141067619Y-37409523D01*
X141162857Y-37457142D01*
X141305714Y-37457142D01*
X141400952Y-37409523D01*
X141448571Y-37361904D01*
X141496190Y-37266666D01*
X141496190Y-36885714D01*
X141305714Y-38314285D02*
X141972380Y-38314285D01*
X140924761Y-38076190D02*
X141639047Y-37838095D01*
X141639047Y-38457142D01*
X141972380Y-39361904D02*
X141972380Y-38790476D01*
X141972380Y-39076190D02*
X140972380Y-39076190D01*
X141115238Y-38980952D01*
X141210476Y-38885714D01*
X141258095Y-38790476D01*
X23026666Y-42902142D02*
X23074285Y-42949761D01*
X23217142Y-42997380D01*
X23312380Y-42997380D01*
X23455238Y-42949761D01*
X23550476Y-42854523D01*
X23598095Y-42759285D01*
X23645714Y-42568809D01*
X23645714Y-42425952D01*
X23598095Y-42235476D01*
X23550476Y-42140238D01*
X23455238Y-42045000D01*
X23312380Y-41997380D01*
X23217142Y-41997380D01*
X23074285Y-42045000D01*
X23026666Y-42092619D01*
X22074285Y-42997380D02*
X22645714Y-42997380D01*
X22360000Y-42997380D02*
X22360000Y-41997380D01*
X22455238Y-42140238D01*
X22550476Y-42235476D01*
X22645714Y-42283095D01*
X215632380Y-46347142D02*
X215156190Y-46013809D01*
X215632380Y-45775714D02*
X214632380Y-45775714D01*
X214632380Y-46156666D01*
X214680000Y-46251904D01*
X214727619Y-46299523D01*
X214822857Y-46347142D01*
X214965714Y-46347142D01*
X215060952Y-46299523D01*
X215108571Y-46251904D01*
X215156190Y-46156666D01*
X215156190Y-45775714D01*
X214727619Y-46728095D02*
X214680000Y-46775714D01*
X214632380Y-46870952D01*
X214632380Y-47109047D01*
X214680000Y-47204285D01*
X214727619Y-47251904D01*
X214822857Y-47299523D01*
X214918095Y-47299523D01*
X215060952Y-47251904D01*
X215632380Y-46680476D01*
X215632380Y-47299523D01*
X214632380Y-47632857D02*
X214632380Y-48251904D01*
X215013333Y-47918571D01*
X215013333Y-48061428D01*
X215060952Y-48156666D01*
X215108571Y-48204285D01*
X215203809Y-48251904D01*
X215441904Y-48251904D01*
X215537142Y-48204285D01*
X215584761Y-48156666D01*
X215632380Y-48061428D01*
X215632380Y-47775714D01*
X215584761Y-47680476D01*
X215537142Y-47632857D01*
X130817857Y-60142380D02*
X131151190Y-59666190D01*
X131389285Y-60142380D02*
X131389285Y-59142380D01*
X131008333Y-59142380D01*
X130913095Y-59190000D01*
X130865476Y-59237619D01*
X130817857Y-59332857D01*
X130817857Y-59475714D01*
X130865476Y-59570952D01*
X130913095Y-59618571D01*
X131008333Y-59666190D01*
X131389285Y-59666190D01*
X130436904Y-59237619D02*
X130389285Y-59190000D01*
X130294047Y-59142380D01*
X130055952Y-59142380D01*
X129960714Y-59190000D01*
X129913095Y-59237619D01*
X129865476Y-59332857D01*
X129865476Y-59428095D01*
X129913095Y-59570952D01*
X130484523Y-60142380D01*
X129865476Y-60142380D01*
X128960714Y-59142380D02*
X129436904Y-59142380D01*
X129484523Y-59618571D01*
X129436904Y-59570952D01*
X129341666Y-59523333D01*
X129103571Y-59523333D01*
X129008333Y-59570952D01*
X128960714Y-59618571D01*
X128913095Y-59713809D01*
X128913095Y-59951904D01*
X128960714Y-60047142D01*
X129008333Y-60094761D01*
X129103571Y-60142380D01*
X129341666Y-60142380D01*
X129436904Y-60094761D01*
X129484523Y-60047142D01*
X244482857Y-55782380D02*
X244816190Y-55306190D01*
X245054285Y-55782380D02*
X245054285Y-54782380D01*
X244673333Y-54782380D01*
X244578095Y-54830000D01*
X244530476Y-54877619D01*
X244482857Y-54972857D01*
X244482857Y-55115714D01*
X244530476Y-55210952D01*
X244578095Y-55258571D01*
X244673333Y-55306190D01*
X245054285Y-55306190D01*
X243530476Y-55782380D02*
X244101904Y-55782380D01*
X243816190Y-55782380D02*
X243816190Y-54782380D01*
X243911428Y-54925238D01*
X244006666Y-55020476D01*
X244101904Y-55068095D01*
X243197142Y-54782380D02*
X242578095Y-54782380D01*
X242911428Y-55163333D01*
X242768571Y-55163333D01*
X242673333Y-55210952D01*
X242625714Y-55258571D01*
X242578095Y-55353809D01*
X242578095Y-55591904D01*
X242625714Y-55687142D01*
X242673333Y-55734761D01*
X242768571Y-55782380D01*
X243054285Y-55782380D01*
X243149523Y-55734761D01*
X243197142Y-55687142D01*
X88907857Y-49887142D02*
X88955476Y-49934761D01*
X89098333Y-49982380D01*
X89193571Y-49982380D01*
X89336428Y-49934761D01*
X89431666Y-49839523D01*
X89479285Y-49744285D01*
X89526904Y-49553809D01*
X89526904Y-49410952D01*
X89479285Y-49220476D01*
X89431666Y-49125238D01*
X89336428Y-49030000D01*
X89193571Y-48982380D01*
X89098333Y-48982380D01*
X88955476Y-49030000D01*
X88907857Y-49077619D01*
X88050714Y-49315714D02*
X88050714Y-49982380D01*
X88288809Y-48934761D02*
X88526904Y-49649047D01*
X87907857Y-49649047D01*
X87003095Y-49982380D02*
X87574523Y-49982380D01*
X87288809Y-49982380D02*
X87288809Y-48982380D01*
X87384047Y-49125238D01*
X87479285Y-49220476D01*
X87574523Y-49268095D01*
X22677380Y-28567142D02*
X22201190Y-28233809D01*
X22677380Y-27995714D02*
X21677380Y-27995714D01*
X21677380Y-28376666D01*
X21725000Y-28471904D01*
X21772619Y-28519523D01*
X21867857Y-28567142D01*
X22010714Y-28567142D01*
X22105952Y-28519523D01*
X22153571Y-28471904D01*
X22201190Y-28376666D01*
X22201190Y-27995714D01*
X21677380Y-28900476D02*
X21677380Y-29519523D01*
X22058333Y-29186190D01*
X22058333Y-29329047D01*
X22105952Y-29424285D01*
X22153571Y-29471904D01*
X22248809Y-29519523D01*
X22486904Y-29519523D01*
X22582142Y-29471904D01*
X22629761Y-29424285D01*
X22677380Y-29329047D01*
X22677380Y-29043333D01*
X22629761Y-28948095D01*
X22582142Y-28900476D01*
X22010714Y-30376666D02*
X22677380Y-30376666D01*
X21629761Y-30138571D02*
X22344047Y-29900476D01*
X22344047Y-30519523D01*
X31122857Y-64587380D02*
X31456190Y-64111190D01*
X31694285Y-64587380D02*
X31694285Y-63587380D01*
X31313333Y-63587380D01*
X31218095Y-63635000D01*
X31170476Y-63682619D01*
X31122857Y-63777857D01*
X31122857Y-63920714D01*
X31170476Y-64015952D01*
X31218095Y-64063571D01*
X31313333Y-64111190D01*
X31694285Y-64111190D01*
X30265714Y-63920714D02*
X30265714Y-64587380D01*
X30503809Y-63539761D02*
X30741904Y-64254047D01*
X30122857Y-64254047D01*
X29694285Y-64587380D02*
X29503809Y-64587380D01*
X29408571Y-64539761D01*
X29360952Y-64492142D01*
X29265714Y-64349285D01*
X29218095Y-64158809D01*
X29218095Y-63777857D01*
X29265714Y-63682619D01*
X29313333Y-63635000D01*
X29408571Y-63587380D01*
X29599047Y-63587380D01*
X29694285Y-63635000D01*
X29741904Y-63682619D01*
X29789523Y-63777857D01*
X29789523Y-64015952D01*
X29741904Y-64111190D01*
X29694285Y-64158809D01*
X29599047Y-64206428D01*
X29408571Y-64206428D01*
X29313333Y-64158809D01*
X29265714Y-64111190D01*
X29218095Y-64015952D01*
X146407142Y-60952142D02*
X146454761Y-60904523D01*
X146502380Y-60761666D01*
X146502380Y-60666428D01*
X146454761Y-60523571D01*
X146359523Y-60428333D01*
X146264285Y-60380714D01*
X146073809Y-60333095D01*
X145930952Y-60333095D01*
X145740476Y-60380714D01*
X145645238Y-60428333D01*
X145550000Y-60523571D01*
X145502380Y-60666428D01*
X145502380Y-60761666D01*
X145550000Y-60904523D01*
X145597619Y-60952142D01*
X145502380Y-61285476D02*
X145502380Y-61904523D01*
X145883333Y-61571190D01*
X145883333Y-61714047D01*
X145930952Y-61809285D01*
X145978571Y-61856904D01*
X146073809Y-61904523D01*
X146311904Y-61904523D01*
X146407142Y-61856904D01*
X146454761Y-61809285D01*
X146502380Y-61714047D01*
X146502380Y-61428333D01*
X146454761Y-61333095D01*
X146407142Y-61285476D01*
X146502380Y-62380714D02*
X146502380Y-62571190D01*
X146454761Y-62666428D01*
X146407142Y-62714047D01*
X146264285Y-62809285D01*
X146073809Y-62856904D01*
X145692857Y-62856904D01*
X145597619Y-62809285D01*
X145550000Y-62761666D01*
X145502380Y-62666428D01*
X145502380Y-62475952D01*
X145550000Y-62380714D01*
X145597619Y-62333095D01*
X145692857Y-62285476D01*
X145930952Y-62285476D01*
X146026190Y-62333095D01*
X146073809Y-62380714D01*
X146121428Y-62475952D01*
X146121428Y-62666428D01*
X146073809Y-62761666D01*
X146026190Y-62809285D01*
X145930952Y-62856904D01*
X83472857Y-40372380D02*
X83806190Y-39896190D01*
X84044285Y-40372380D02*
X84044285Y-39372380D01*
X83663333Y-39372380D01*
X83568095Y-39420000D01*
X83520476Y-39467619D01*
X83472857Y-39562857D01*
X83472857Y-39705714D01*
X83520476Y-39800952D01*
X83568095Y-39848571D01*
X83663333Y-39896190D01*
X84044285Y-39896190D01*
X83139523Y-39372380D02*
X82520476Y-39372380D01*
X82853809Y-39753333D01*
X82710952Y-39753333D01*
X82615714Y-39800952D01*
X82568095Y-39848571D01*
X82520476Y-39943809D01*
X82520476Y-40181904D01*
X82568095Y-40277142D01*
X82615714Y-40324761D01*
X82710952Y-40372380D01*
X82996666Y-40372380D01*
X83091904Y-40324761D01*
X83139523Y-40277142D01*
X81663333Y-39372380D02*
X81853809Y-39372380D01*
X81949047Y-39420000D01*
X81996666Y-39467619D01*
X82091904Y-39610476D01*
X82139523Y-39800952D01*
X82139523Y-40181904D01*
X82091904Y-40277142D01*
X82044285Y-40324761D01*
X81949047Y-40372380D01*
X81758571Y-40372380D01*
X81663333Y-40324761D01*
X81615714Y-40277142D01*
X81568095Y-40181904D01*
X81568095Y-39943809D01*
X81615714Y-39848571D01*
X81663333Y-39800952D01*
X81758571Y-39753333D01*
X81949047Y-39753333D01*
X82044285Y-39800952D01*
X82091904Y-39848571D01*
X82139523Y-39943809D01*
X34932857Y-57602380D02*
X35266190Y-57126190D01*
X35504285Y-57602380D02*
X35504285Y-56602380D01*
X35123333Y-56602380D01*
X35028095Y-56650000D01*
X34980476Y-56697619D01*
X34932857Y-56792857D01*
X34932857Y-56935714D01*
X34980476Y-57030952D01*
X35028095Y-57078571D01*
X35123333Y-57126190D01*
X35504285Y-57126190D01*
X34075714Y-56935714D02*
X34075714Y-57602380D01*
X34313809Y-56554761D02*
X34551904Y-57269047D01*
X33932857Y-57269047D01*
X33075714Y-56602380D02*
X33551904Y-56602380D01*
X33599523Y-57078571D01*
X33551904Y-57030952D01*
X33456666Y-56983333D01*
X33218571Y-56983333D01*
X33123333Y-57030952D01*
X33075714Y-57078571D01*
X33028095Y-57173809D01*
X33028095Y-57411904D01*
X33075714Y-57507142D01*
X33123333Y-57554761D01*
X33218571Y-57602380D01*
X33456666Y-57602380D01*
X33551904Y-57554761D01*
X33599523Y-57507142D01*
X22582142Y-33647142D02*
X22629761Y-33599523D01*
X22677380Y-33456666D01*
X22677380Y-33361428D01*
X22629761Y-33218571D01*
X22534523Y-33123333D01*
X22439285Y-33075714D01*
X22248809Y-33028095D01*
X22105952Y-33028095D01*
X21915476Y-33075714D01*
X21820238Y-33123333D01*
X21725000Y-33218571D01*
X21677380Y-33361428D01*
X21677380Y-33456666D01*
X21725000Y-33599523D01*
X21772619Y-33647142D01*
X21772619Y-34028095D02*
X21725000Y-34075714D01*
X21677380Y-34170952D01*
X21677380Y-34409047D01*
X21725000Y-34504285D01*
X21772619Y-34551904D01*
X21867857Y-34599523D01*
X21963095Y-34599523D01*
X22105952Y-34551904D01*
X22677380Y-33980476D01*
X22677380Y-34599523D01*
X22677380Y-35551904D02*
X22677380Y-34980476D01*
X22677380Y-35266190D02*
X21677380Y-35266190D01*
X21820238Y-35170952D01*
X21915476Y-35075714D01*
X21963095Y-34980476D01*
X157212380Y-54723333D02*
X156736190Y-54390000D01*
X157212380Y-54151904D02*
X156212380Y-54151904D01*
X156212380Y-54532857D01*
X156260000Y-54628095D01*
X156307619Y-54675714D01*
X156402857Y-54723333D01*
X156545714Y-54723333D01*
X156640952Y-54675714D01*
X156688571Y-54628095D01*
X156736190Y-54532857D01*
X156736190Y-54151904D01*
X156212380Y-55056666D02*
X156212380Y-55723333D01*
X157212380Y-55294761D01*
X215567142Y-51427142D02*
X215614761Y-51379523D01*
X215662380Y-51236666D01*
X215662380Y-51141428D01*
X215614761Y-50998571D01*
X215519523Y-50903333D01*
X215424285Y-50855714D01*
X215233809Y-50808095D01*
X215090952Y-50808095D01*
X214900476Y-50855714D01*
X214805238Y-50903333D01*
X214710000Y-50998571D01*
X214662380Y-51141428D01*
X214662380Y-51236666D01*
X214710000Y-51379523D01*
X214757619Y-51427142D01*
X215662380Y-52379523D02*
X215662380Y-51808095D01*
X215662380Y-52093809D02*
X214662380Y-52093809D01*
X214805238Y-51998571D01*
X214900476Y-51903333D01*
X214948095Y-51808095D01*
X215662380Y-52855714D02*
X215662380Y-53046190D01*
X215614761Y-53141428D01*
X215567142Y-53189047D01*
X215424285Y-53284285D01*
X215233809Y-53331904D01*
X214852857Y-53331904D01*
X214757619Y-53284285D01*
X214710000Y-53236666D01*
X214662380Y-53141428D01*
X214662380Y-52950952D01*
X214710000Y-52855714D01*
X214757619Y-52808095D01*
X214852857Y-52760476D01*
X215090952Y-52760476D01*
X215186190Y-52808095D01*
X215233809Y-52855714D01*
X215281428Y-52950952D01*
X215281428Y-53141428D01*
X215233809Y-53236666D01*
X215186190Y-53284285D01*
X215090952Y-53331904D01*
X167457380Y-39997142D02*
X166981190Y-39663809D01*
X167457380Y-39425714D02*
X166457380Y-39425714D01*
X166457380Y-39806666D01*
X166505000Y-39901904D01*
X166552619Y-39949523D01*
X166647857Y-39997142D01*
X166790714Y-39997142D01*
X166885952Y-39949523D01*
X166933571Y-39901904D01*
X166981190Y-39806666D01*
X166981190Y-39425714D01*
X166457380Y-40330476D02*
X166457380Y-40949523D01*
X166838333Y-40616190D01*
X166838333Y-40759047D01*
X166885952Y-40854285D01*
X166933571Y-40901904D01*
X167028809Y-40949523D01*
X167266904Y-40949523D01*
X167362142Y-40901904D01*
X167409761Y-40854285D01*
X167457380Y-40759047D01*
X167457380Y-40473333D01*
X167409761Y-40378095D01*
X167362142Y-40330476D01*
X166457380Y-41854285D02*
X166457380Y-41378095D01*
X166933571Y-41330476D01*
X166885952Y-41378095D01*
X166838333Y-41473333D01*
X166838333Y-41711428D01*
X166885952Y-41806666D01*
X166933571Y-41854285D01*
X167028809Y-41901904D01*
X167266904Y-41901904D01*
X167362142Y-41854285D01*
X167409761Y-41806666D01*
X167457380Y-41711428D01*
X167457380Y-41473333D01*
X167409761Y-41378095D01*
X167362142Y-41330476D01*
X252632380Y-39997142D02*
X252156190Y-39663809D01*
X252632380Y-39425714D02*
X251632380Y-39425714D01*
X251632380Y-39806666D01*
X251680000Y-39901904D01*
X251727619Y-39949523D01*
X251822857Y-39997142D01*
X251965714Y-39997142D01*
X252060952Y-39949523D01*
X252108571Y-39901904D01*
X252156190Y-39806666D01*
X252156190Y-39425714D01*
X251632380Y-40901904D02*
X251632380Y-40425714D01*
X252108571Y-40378095D01*
X252060952Y-40425714D01*
X252013333Y-40520952D01*
X252013333Y-40759047D01*
X252060952Y-40854285D01*
X252108571Y-40901904D01*
X252203809Y-40949523D01*
X252441904Y-40949523D01*
X252537142Y-40901904D01*
X252584761Y-40854285D01*
X252632380Y-40759047D01*
X252632380Y-40520952D01*
X252584761Y-40425714D01*
X252537142Y-40378095D01*
X252632380Y-41901904D02*
X252632380Y-41330476D01*
X252632380Y-41616190D02*
X251632380Y-41616190D01*
X251775238Y-41520952D01*
X251870476Y-41425714D01*
X251918095Y-41330476D01*
X254937142Y-54735833D02*
X254984761Y-54688214D01*
X255032380Y-54545357D01*
X255032380Y-54450119D01*
X254984761Y-54307261D01*
X254889523Y-54212023D01*
X254794285Y-54164404D01*
X254603809Y-54116785D01*
X254460952Y-54116785D01*
X254270476Y-54164404D01*
X254175238Y-54212023D01*
X254080000Y-54307261D01*
X254032380Y-54450119D01*
X254032380Y-54545357D01*
X254080000Y-54688214D01*
X254127619Y-54735833D01*
X254032380Y-55069166D02*
X254032380Y-55688214D01*
X254413333Y-55354880D01*
X254413333Y-55497738D01*
X254460952Y-55592976D01*
X254508571Y-55640595D01*
X254603809Y-55688214D01*
X254841904Y-55688214D01*
X254937142Y-55640595D01*
X254984761Y-55592976D01*
X255032380Y-55497738D01*
X255032380Y-55212023D01*
X254984761Y-55116785D01*
X254937142Y-55069166D01*
X21312142Y-63865890D02*
X21359761Y-63818271D01*
X21407380Y-63675414D01*
X21407380Y-63580176D01*
X21359761Y-63437319D01*
X21264523Y-63342081D01*
X21169285Y-63294462D01*
X20978809Y-63246843D01*
X20835952Y-63246843D01*
X20645476Y-63294462D01*
X20550238Y-63342081D01*
X20455000Y-63437319D01*
X20407380Y-63580176D01*
X20407380Y-63675414D01*
X20455000Y-63818271D01*
X20502619Y-63865890D01*
X20502619Y-64246843D02*
X20455000Y-64294462D01*
X20407380Y-64389700D01*
X20407380Y-64627795D01*
X20455000Y-64723033D01*
X20502619Y-64770652D01*
X20597857Y-64818271D01*
X20693095Y-64818271D01*
X20835952Y-64770652D01*
X21407380Y-64199224D01*
X21407380Y-64818271D01*
X20835952Y-65389700D02*
X20788333Y-65294462D01*
X20740714Y-65246843D01*
X20645476Y-65199224D01*
X20597857Y-65199224D01*
X20502619Y-65246843D01*
X20455000Y-65294462D01*
X20407380Y-65389700D01*
X20407380Y-65580176D01*
X20455000Y-65675414D01*
X20502619Y-65723033D01*
X20597857Y-65770652D01*
X20645476Y-65770652D01*
X20740714Y-65723033D01*
X20788333Y-65675414D01*
X20835952Y-65580176D01*
X20835952Y-65389700D01*
X20883571Y-65294462D01*
X20931190Y-65246843D01*
X21026428Y-65199224D01*
X21216904Y-65199224D01*
X21312142Y-65246843D01*
X21359761Y-65294462D01*
X21407380Y-65389700D01*
X21407380Y-65580176D01*
X21359761Y-65675414D01*
X21312142Y-65723033D01*
X21216904Y-65770652D01*
X21026428Y-65770652D01*
X20931190Y-65723033D01*
X20883571Y-65675414D01*
X20835952Y-65580176D01*
X257182857Y-44227142D02*
X257230476Y-44274761D01*
X257373333Y-44322380D01*
X257468571Y-44322380D01*
X257611428Y-44274761D01*
X257706666Y-44179523D01*
X257754285Y-44084285D01*
X257801904Y-43893809D01*
X257801904Y-43750952D01*
X257754285Y-43560476D01*
X257706666Y-43465238D01*
X257611428Y-43370000D01*
X257468571Y-43322380D01*
X257373333Y-43322380D01*
X257230476Y-43370000D01*
X257182857Y-43417619D01*
X256325714Y-43655714D02*
X256325714Y-44322380D01*
X256563809Y-43274761D02*
X256801904Y-43989047D01*
X256182857Y-43989047D01*
X255897142Y-43322380D02*
X255278095Y-43322380D01*
X255611428Y-43703333D01*
X255468571Y-43703333D01*
X255373333Y-43750952D01*
X255325714Y-43798571D01*
X255278095Y-43893809D01*
X255278095Y-44131904D01*
X255325714Y-44227142D01*
X255373333Y-44274761D01*
X255468571Y-44322380D01*
X255754285Y-44322380D01*
X255849523Y-44274761D01*
X255897142Y-44227142D01*
X64142857Y-52427142D02*
X64190476Y-52474761D01*
X64333333Y-52522380D01*
X64428571Y-52522380D01*
X64571428Y-52474761D01*
X64666666Y-52379523D01*
X64714285Y-52284285D01*
X64761904Y-52093809D01*
X64761904Y-51950952D01*
X64714285Y-51760476D01*
X64666666Y-51665238D01*
X64571428Y-51570000D01*
X64428571Y-51522380D01*
X64333333Y-51522380D01*
X64190476Y-51570000D01*
X64142857Y-51617619D01*
X63761904Y-51617619D02*
X63714285Y-51570000D01*
X63619047Y-51522380D01*
X63380952Y-51522380D01*
X63285714Y-51570000D01*
X63238095Y-51617619D01*
X63190476Y-51712857D01*
X63190476Y-51808095D01*
X63238095Y-51950952D01*
X63809523Y-52522380D01*
X63190476Y-52522380D01*
X62333333Y-51522380D02*
X62523809Y-51522380D01*
X62619047Y-51570000D01*
X62666666Y-51617619D01*
X62761904Y-51760476D01*
X62809523Y-51950952D01*
X62809523Y-52331904D01*
X62761904Y-52427142D01*
X62714285Y-52474761D01*
X62619047Y-52522380D01*
X62428571Y-52522380D01*
X62333333Y-52474761D01*
X62285714Y-52427142D01*
X62238095Y-52331904D01*
X62238095Y-52093809D01*
X62285714Y-51998571D01*
X62333333Y-51950952D01*
X62428571Y-51903333D01*
X62619047Y-51903333D01*
X62714285Y-51950952D01*
X62761904Y-51998571D01*
X62809523Y-52093809D01*
D11*
X15600000Y-62967064D02*
X15600000Y-61512936D01*
X17420000Y-62967064D02*
X17420000Y-61512936D01*
X254910000Y-34832936D02*
X254910000Y-36287064D01*
X253090000Y-34832936D02*
X253090000Y-36287064D01*
X113588748Y-53700000D02*
X115011252Y-53700000D01*
X113588748Y-55520000D02*
X115011252Y-55520000D01*
X138790000Y-52797064D02*
X138790000Y-51342936D01*
X140610000Y-52797064D02*
X140610000Y-51342936D01*
X243128748Y-61955000D02*
X244551252Y-61955000D01*
X243128748Y-63775000D02*
X244551252Y-63775000D01*
X33555000Y-63761252D02*
X33555000Y-63238748D01*
X35025000Y-63761252D02*
X35025000Y-63238748D01*
X119922936Y-55520000D02*
X121377064Y-55520000D01*
X119922936Y-53700000D02*
X121377064Y-53700000D01*
X67048748Y-47725000D02*
X67571252Y-47725000D01*
X67048748Y-46255000D02*
X67571252Y-46255000D01*
X92350000Y-25662936D02*
X92350000Y-27117064D01*
X90530000Y-25662936D02*
X90530000Y-27117064D01*
X21950000Y-60417064D02*
X21950000Y-58962936D01*
X23770000Y-60417064D02*
X23770000Y-58962936D01*
X234407064Y-55520000D02*
X232952936Y-55520000D01*
X234407064Y-53700000D02*
X232952936Y-53700000D01*
X191351248Y-53700000D02*
X192773752Y-53700000D01*
X191351248Y-55520000D02*
X192773752Y-55520000D01*
X174350000Y-54876248D02*
X174350000Y-56298752D01*
X176170000Y-54876248D02*
X176170000Y-56298752D01*
X155850000Y-60693752D02*
X155850000Y-59271248D01*
X154030000Y-60693752D02*
X154030000Y-59271248D01*
X24665000Y-65031252D02*
X24665000Y-64508748D01*
X26135000Y-65031252D02*
X26135000Y-64508748D01*
X259990000Y-39912936D02*
X259990000Y-41367064D01*
X258170000Y-39912936D02*
X258170000Y-41367064D01*
X75290000Y-46262936D02*
X75290000Y-47717064D01*
X77110000Y-46262936D02*
X77110000Y-47717064D01*
X119922936Y-58780000D02*
X121377064Y-58780000D01*
X119922936Y-60600000D02*
X121377064Y-60600000D01*
X234590000Y-36287064D02*
X234590000Y-34832936D01*
X232770000Y-36287064D02*
X232770000Y-34832936D01*
X160747064Y-61320000D02*
X159292936Y-61320000D01*
X160747064Y-63140000D02*
X159292936Y-63140000D01*
X221890000Y-51651248D02*
X221890000Y-53073752D01*
X220070000Y-51651248D02*
X220070000Y-53073752D01*
X227690000Y-50537064D02*
X227690000Y-49082936D01*
X229510000Y-50537064D02*
X229510000Y-49082936D01*
X26310000Y-60417064D02*
X26310000Y-58962936D01*
X24490000Y-60417064D02*
X24490000Y-58962936D01*
X207370000Y-22412936D02*
X207370000Y-23867064D01*
X209190000Y-22412936D02*
X209190000Y-23867064D01*
X50440000Y-34832936D02*
X50440000Y-36287064D01*
X48620000Y-34832936D02*
X48620000Y-36287064D01*
X160747064Y-60600000D02*
X159292936Y-60600000D01*
X160747064Y-58780000D02*
X159292936Y-58780000D01*
X141330000Y-25662936D02*
X141330000Y-27117064D01*
X143150000Y-25662936D02*
X143150000Y-27117064D01*
X189788748Y-44810000D02*
X191211252Y-44810000D01*
X189788748Y-46630000D02*
X191211252Y-46630000D01*
X115930000Y-25662936D02*
X115930000Y-27117064D01*
X117750000Y-25662936D02*
X117750000Y-27117064D01*
X148230000Y-51358748D02*
X148230000Y-52781252D01*
X146410000Y-51358748D02*
X146410000Y-52781252D01*
X74570000Y-52797064D02*
X74570000Y-51342936D01*
X72750000Y-52797064D02*
X72750000Y-51342936D01*
X234407064Y-58060000D02*
X232952936Y-58060000D01*
X234407064Y-56240000D02*
X232952936Y-56240000D01*
X72750000Y-46262936D02*
X72750000Y-47717064D01*
X74570000Y-46262936D02*
X74570000Y-47717064D01*
X234590000Y-22132936D02*
X234590000Y-23587064D01*
X232770000Y-22132936D02*
X232770000Y-23587064D01*
X207552936Y-51160000D02*
X209007064Y-51160000D01*
X207552936Y-52980000D02*
X209007064Y-52980000D01*
X166730000Y-25612936D02*
X166730000Y-27067064D01*
X168550000Y-25612936D02*
X168550000Y-27067064D01*
X83081252Y-52805000D02*
X82558748Y-52805000D01*
X83081252Y-51335000D02*
X82558748Y-51335000D01*
X170907064Y-56240000D02*
X169452936Y-56240000D01*
X170907064Y-58060000D02*
X169452936Y-58060000D01*
X82102936Y-33380000D02*
X83557064Y-33380000D01*
X82102936Y-35200000D02*
X83557064Y-35200000D01*
X27228748Y-48630000D02*
X28651252Y-48630000D01*
X27228748Y-50450000D02*
X28651252Y-50450000D01*
X227690000Y-55613752D02*
X227690000Y-54191248D01*
X229510000Y-55613752D02*
X229510000Y-54191248D01*
X29752936Y-39730000D02*
X31207064Y-39730000D01*
X29752936Y-41550000D02*
X31207064Y-41550000D01*
X244567064Y-52980000D02*
X243112936Y-52980000D01*
X244567064Y-51160000D02*
X243112936Y-51160000D01*
X18507064Y-39730000D02*
X17052936Y-39730000D01*
X18507064Y-41550000D02*
X17052936Y-41550000D01*
X258170000Y-34832936D02*
X258170000Y-36287064D01*
X259990000Y-34832936D02*
X259990000Y-36287064D01*
X18507064Y-52980000D02*
X17052936Y-52980000D01*
X18507064Y-51160000D02*
X17052936Y-51160000D01*
X44985000Y-34551252D02*
X44985000Y-34028748D01*
X46455000Y-34551252D02*
X46455000Y-34028748D01*
X113588748Y-58780000D02*
X115011252Y-58780000D01*
X113588748Y-60600000D02*
X115011252Y-60600000D01*
X207552936Y-55520000D02*
X209007064Y-55520000D01*
X207552936Y-53700000D02*
X209007064Y-53700000D01*
X209190000Y-36287064D02*
X209190000Y-34832936D01*
X207370000Y-36287064D02*
X207370000Y-34832936D01*
X221890000Y-45986248D02*
X221890000Y-47408752D01*
X220070000Y-45986248D02*
X220070000Y-47408752D01*
X83081252Y-47725000D02*
X82558748Y-47725000D01*
X83081252Y-46255000D02*
X82558748Y-46255000D01*
X133612936Y-58060000D02*
X135067064Y-58060000D01*
X133612936Y-56240000D02*
X135067064Y-56240000D01*
X197392936Y-50440000D02*
X198847064Y-50440000D01*
X197392936Y-48620000D02*
X198847064Y-48620000D01*
X44810000Y-28482936D02*
X44810000Y-29937064D01*
X46630000Y-28482936D02*
X46630000Y-29937064D01*
X68021252Y-50440000D02*
X66598748Y-50440000D01*
X68021252Y-48620000D02*
X66598748Y-48620000D01*
X176263752Y-63140000D02*
X174841248Y-63140000D01*
X176263752Y-61320000D02*
X174841248Y-61320000D01*
X149500000Y-56438748D02*
X149500000Y-57861252D01*
X147680000Y-56438748D02*
X147680000Y-57861252D01*
X18145000Y-62967064D02*
X18145000Y-61512936D01*
X19965000Y-62967064D02*
X19965000Y-61512936D01*
X21950000Y-50088748D02*
X21950000Y-51511252D01*
X23770000Y-50088748D02*
X23770000Y-51511252D01*
X197392936Y-55520000D02*
X198847064Y-55520000D01*
X197392936Y-53700000D02*
X198847064Y-53700000D01*
X77110000Y-52797064D02*
X77110000Y-51342936D01*
X75290000Y-52797064D02*
X75290000Y-51342936D01*
X170907064Y-63140000D02*
X169452936Y-63140000D01*
X170907064Y-61320000D02*
X169452936Y-61320000D01*
X25040000Y-34832936D02*
X25040000Y-36287064D01*
X23220000Y-34832936D02*
X23220000Y-36287064D01*
X28651252Y-51160000D02*
X27228748Y-51160000D01*
X28651252Y-52980000D02*
X27228748Y-52980000D01*
X140610000Y-57861252D02*
X140610000Y-56438748D01*
X138790000Y-57861252D02*
X138790000Y-56438748D01*
X138790000Y-38827064D02*
X138790000Y-37372936D01*
X140610000Y-38827064D02*
X140610000Y-37372936D01*
X24053748Y-45360000D02*
X25476252Y-45360000D01*
X24053748Y-43540000D02*
X25476252Y-43540000D01*
X214270000Y-47717064D02*
X214270000Y-46262936D01*
X212450000Y-47717064D02*
X212450000Y-46262936D01*
X133612936Y-60600000D02*
X135067064Y-60600000D01*
X133612936Y-58780000D02*
X135067064Y-58780000D01*
X244567064Y-56240000D02*
X243112936Y-56240000D01*
X244567064Y-58060000D02*
X243112936Y-58060000D01*
X84531252Y-48620000D02*
X83108748Y-48620000D01*
X84531252Y-50440000D02*
X83108748Y-50440000D01*
X19410000Y-28482936D02*
X19410000Y-29937064D01*
X21230000Y-28482936D02*
X21230000Y-29937064D01*
X31207064Y-61320000D02*
X29752936Y-61320000D01*
X31207064Y-63140000D02*
X29752936Y-63140000D01*
X145140000Y-56438748D02*
X145140000Y-57861252D01*
X146960000Y-56438748D02*
X146960000Y-57861252D01*
X82102936Y-37190000D02*
X83557064Y-37190000D01*
X82102936Y-39010000D02*
X83557064Y-39010000D01*
X29472936Y-56250000D02*
X30927064Y-56250000D01*
X29472936Y-58070000D02*
X30927064Y-58070000D01*
X21055000Y-34551252D02*
X21055000Y-34028748D01*
X19585000Y-34551252D02*
X19585000Y-34028748D01*
X155850000Y-55617064D02*
X155850000Y-54162936D01*
X154030000Y-55617064D02*
X154030000Y-54162936D01*
X212450000Y-52781252D02*
X212450000Y-51358748D01*
X214270000Y-52781252D02*
X214270000Y-51358748D01*
X164190000Y-41367064D02*
X164190000Y-39912936D01*
X166010000Y-41367064D02*
X166010000Y-39912936D01*
X254910000Y-39912936D02*
X254910000Y-41367064D01*
X253090000Y-39912936D02*
X253090000Y-41367064D01*
X253640000Y-55613752D02*
X253640000Y-54191248D01*
X251820000Y-55613752D02*
X251820000Y-54191248D01*
X23595000Y-65031252D02*
X23595000Y-64508748D01*
X22125000Y-65031252D02*
X22125000Y-64508748D01*
X257251252Y-46630000D02*
X255828748Y-46630000D01*
X257251252Y-44810000D02*
X255828748Y-44810000D01*
X67048748Y-51335000D02*
X67571252Y-51335000D01*
X67048748Y-52805000D02*
X67571252Y-52805000D01*
%LPC*%
D12*
X238760000Y-52070000D03*
D13*
X238760000Y-54610000D03*
X238760000Y-57150000D03*
D14*
X205740000Y-64770000D03*
D15*
X88405000Y-28025000D03*
X104635000Y-28025000D03*
X88405000Y-21675000D03*
X104635000Y-21675000D03*
X88405000Y-34375000D03*
X104635000Y-34375000D03*
D12*
X127000000Y-54610000D03*
D13*
X127000000Y-57150000D03*
X127000000Y-59690000D03*
D12*
X254000000Y-22860000D03*
D13*
X256540000Y-22860000D03*
X259080000Y-22860000D03*
D15*
X230645000Y-28025000D03*
X246875000Y-28025000D03*
X230645000Y-21675000D03*
X246875000Y-21675000D03*
X230645000Y-34375000D03*
X246875000Y-34375000D03*
X139205000Y-28025000D03*
X155435000Y-28025000D03*
X139205000Y-21675000D03*
X155435000Y-21675000D03*
X139205000Y-34375000D03*
X155435000Y-34375000D03*
D16*
X135890000Y-53340000D03*
X135890000Y-50840000D03*
D15*
X205245000Y-28025000D03*
X221475000Y-28025000D03*
X205245000Y-21675000D03*
X221475000Y-21675000D03*
X205245000Y-34375000D03*
X221475000Y-34375000D03*
D12*
X55875000Y-46990000D03*
D13*
X53335000Y-46990000D03*
X50795000Y-46990000D03*
X48255000Y-46990000D03*
X45715000Y-46990000D03*
D16*
X209550000Y-48260000D03*
X209550000Y-45760000D03*
D14*
X73660000Y-22860000D03*
D15*
X17285000Y-28025000D03*
X33515000Y-28025000D03*
X17285000Y-21675000D03*
X33515000Y-21675000D03*
X17285000Y-34375000D03*
X33515000Y-34375000D03*
D16*
X29210000Y-43815000D03*
X31710000Y-43815000D03*
D12*
X191770000Y-49530000D03*
D13*
X189230000Y-49530000D03*
D12*
X248920000Y-55880000D03*
D13*
X248920000Y-53340000D03*
D14*
X193040000Y-22860000D03*
D15*
X164605000Y-28025000D03*
X180835000Y-28025000D03*
X164605000Y-21675000D03*
X180835000Y-21675000D03*
X164605000Y-34375000D03*
X180835000Y-34375000D03*
D16*
X29215000Y-59700000D03*
X31715000Y-59700000D03*
D15*
X42685000Y-28025000D03*
X58915000Y-28025000D03*
X42685000Y-21675000D03*
X58915000Y-21675000D03*
X42685000Y-34375000D03*
X58915000Y-34375000D03*
D12*
X39370000Y-53355000D03*
D13*
X39370000Y-55895000D03*
X39370000Y-58435000D03*
D14*
X60960000Y-64770000D03*
D17*
X217180000Y-45730000D03*
D18*
X217180000Y-48270000D03*
X217180000Y-50810000D03*
X217180000Y-53350000D03*
X224800000Y-53350000D03*
X224800000Y-50810000D03*
X224800000Y-48270000D03*
X224800000Y-45730000D03*
D12*
X203200000Y-49530000D03*
D13*
X203200000Y-52070000D03*
X203200000Y-54610000D03*
D17*
X71300000Y-41910000D03*
D18*
X71300000Y-44450000D03*
X71300000Y-46990000D03*
X71300000Y-49530000D03*
X71300000Y-52070000D03*
X71300000Y-54610000D03*
X71300000Y-57150000D03*
X78920000Y-57150000D03*
X78920000Y-54610000D03*
X78920000Y-52070000D03*
X78920000Y-49530000D03*
X78920000Y-46990000D03*
X78920000Y-44450000D03*
X78920000Y-41910000D03*
D17*
X143520000Y-50810000D03*
D18*
X143520000Y-53350000D03*
X143520000Y-55890000D03*
X143520000Y-58430000D03*
X151140000Y-58430000D03*
X151140000Y-55890000D03*
X151140000Y-53350000D03*
X151140000Y-50810000D03*
D16*
X158750000Y-55880000D03*
X158750000Y-53380000D03*
D12*
X254000000Y-30480000D03*
D13*
X256540000Y-30480000D03*
X259080000Y-30480000D03*
D17*
X31755000Y-47000000D03*
D18*
X29215000Y-47000000D03*
X26675000Y-47000000D03*
X24135000Y-47000000D03*
X21595000Y-47000000D03*
X19055000Y-47000000D03*
X16515000Y-47000000D03*
X16515000Y-54620000D03*
X19055000Y-54620000D03*
X21595000Y-54620000D03*
X24135000Y-54620000D03*
X26675000Y-54620000D03*
X29215000Y-54620000D03*
X31755000Y-54620000D03*
D16*
X232410000Y-50800000D03*
X232410000Y-48300000D03*
D12*
X165100000Y-57165000D03*
D13*
X165100000Y-59705000D03*
X165100000Y-62245000D03*
D16*
X19050000Y-57785000D03*
X16550000Y-57785000D03*
D12*
X92710000Y-55880000D03*
D13*
X92710000Y-53340000D03*
X92710000Y-50800000D03*
X92710000Y-48260000D03*
X92710000Y-45720000D03*
D15*
X113805000Y-28025000D03*
X130035000Y-28025000D03*
X113805000Y-21675000D03*
X130035000Y-21675000D03*
X113805000Y-34375000D03*
X130035000Y-34375000D03*
D16*
X19030000Y-43815000D03*
X16530000Y-43815000D03*
D19*
X16510000Y-63790000D03*
X16510000Y-60690000D03*
D20*
X254000000Y-34010000D03*
X254000000Y-37110000D03*
D21*
X112737500Y-54610000D03*
X115862500Y-54610000D03*
D19*
X139700000Y-53620000D03*
X139700000Y-50520000D03*
D21*
X242277500Y-62865000D03*
X245402500Y-62865000D03*
D22*
X34290000Y-64537500D03*
X34290000Y-62462500D03*
D23*
X119100000Y-54610000D03*
X122200000Y-54610000D03*
D24*
X66272500Y-46990000D03*
X68347500Y-46990000D03*
D20*
X91440000Y-24840000D03*
X91440000Y-27940000D03*
D19*
X22860000Y-61240000D03*
X22860000Y-58140000D03*
D25*
X235230000Y-54610000D03*
X232130000Y-54610000D03*
D21*
X190500000Y-54610000D03*
X193625000Y-54610000D03*
D26*
X175260000Y-54025000D03*
X175260000Y-57150000D03*
D27*
X154940000Y-61545000D03*
X154940000Y-58420000D03*
D22*
X25400000Y-65807500D03*
X25400000Y-63732500D03*
D20*
X259080000Y-39090000D03*
X259080000Y-42190000D03*
X76200000Y-45440000D03*
X76200000Y-48540000D03*
D23*
X119100000Y-59690000D03*
X122200000Y-59690000D03*
D19*
X233680000Y-37110000D03*
X233680000Y-34010000D03*
D25*
X161570000Y-62230000D03*
X158470000Y-62230000D03*
D26*
X220980000Y-50800000D03*
X220980000Y-53925000D03*
D19*
X228600000Y-51360000D03*
X228600000Y-48260000D03*
X25400000Y-61240000D03*
X25400000Y-58140000D03*
D20*
X208280000Y-21590000D03*
X208280000Y-24690000D03*
X49530000Y-34010000D03*
X49530000Y-37110000D03*
D25*
X161570000Y-59690000D03*
X158470000Y-59690000D03*
D20*
X142240000Y-24840000D03*
X142240000Y-27940000D03*
D21*
X188937500Y-45720000D03*
X192062500Y-45720000D03*
D20*
X116840000Y-24840000D03*
X116840000Y-27940000D03*
D26*
X147320000Y-50507500D03*
X147320000Y-53632500D03*
D19*
X73660000Y-53620000D03*
X73660000Y-50520000D03*
D25*
X235230000Y-57150000D03*
X232130000Y-57150000D03*
D20*
X73660000Y-45440000D03*
X73660000Y-48540000D03*
X233680000Y-21310000D03*
X233680000Y-24410000D03*
D23*
X206730000Y-52070000D03*
X209830000Y-52070000D03*
D20*
X167640000Y-24790000D03*
X167640000Y-27890000D03*
D28*
X83857500Y-52070000D03*
X81782500Y-52070000D03*
D25*
X171730000Y-57150000D03*
X168630000Y-57150000D03*
D23*
X81280000Y-34290000D03*
X84380000Y-34290000D03*
D21*
X26377500Y-49540000D03*
X29502500Y-49540000D03*
D27*
X228600000Y-56465000D03*
X228600000Y-53340000D03*
D23*
X28930000Y-40640000D03*
X32030000Y-40640000D03*
D25*
X245390000Y-52070000D03*
X242290000Y-52070000D03*
X19330000Y-40640000D03*
X16230000Y-40640000D03*
D20*
X259080000Y-34010000D03*
X259080000Y-37110000D03*
D25*
X19330000Y-52070000D03*
X16230000Y-52070000D03*
D22*
X45720000Y-35327500D03*
X45720000Y-33252500D03*
D21*
X112737500Y-59690000D03*
X115862500Y-59690000D03*
D23*
X206730000Y-54610000D03*
X209830000Y-54610000D03*
D19*
X208280000Y-37110000D03*
X208280000Y-34010000D03*
D26*
X220980000Y-45135000D03*
X220980000Y-48260000D03*
D28*
X83857500Y-46990000D03*
X81782500Y-46990000D03*
D23*
X132790000Y-57150000D03*
X135890000Y-57150000D03*
X196570000Y-49530000D03*
X199670000Y-49530000D03*
D20*
X45720000Y-27660000D03*
X45720000Y-30760000D03*
D29*
X68872500Y-49530000D03*
X65747500Y-49530000D03*
X177115000Y-62230000D03*
X173990000Y-62230000D03*
D26*
X148590000Y-55587500D03*
X148590000Y-58712500D03*
D19*
X19055000Y-63790000D03*
X19055000Y-60690000D03*
D26*
X22860000Y-49237500D03*
X22860000Y-52362500D03*
D23*
X196570000Y-54610000D03*
X199670000Y-54610000D03*
D19*
X76200000Y-53620000D03*
X76200000Y-50520000D03*
D25*
X171730000Y-62230000D03*
X168630000Y-62230000D03*
D20*
X24130000Y-34010000D03*
X24130000Y-37110000D03*
D29*
X29502500Y-52070000D03*
X26377500Y-52070000D03*
D27*
X139700000Y-58712500D03*
X139700000Y-55587500D03*
D19*
X139700000Y-39650000D03*
X139700000Y-36550000D03*
D21*
X23202500Y-44450000D03*
X26327500Y-44450000D03*
D19*
X213360000Y-48540000D03*
X213360000Y-45440000D03*
D23*
X132790000Y-59690000D03*
X135890000Y-59690000D03*
D25*
X245390000Y-57150000D03*
X242290000Y-57150000D03*
D29*
X85382500Y-49530000D03*
X82257500Y-49530000D03*
D20*
X20320000Y-27660000D03*
X20320000Y-30760000D03*
D25*
X32030000Y-62230000D03*
X28930000Y-62230000D03*
D26*
X146050000Y-55587500D03*
X146050000Y-58712500D03*
D23*
X81280000Y-38100000D03*
X84380000Y-38100000D03*
X28650000Y-57160000D03*
X31750000Y-57160000D03*
D22*
X20320000Y-35327500D03*
X20320000Y-33252500D03*
D19*
X154940000Y-56440000D03*
X154940000Y-53340000D03*
D27*
X213360000Y-53632500D03*
X213360000Y-50507500D03*
D19*
X165100000Y-42190000D03*
X165100000Y-39090000D03*
D20*
X254000000Y-39090000D03*
X254000000Y-42190000D03*
D27*
X252730000Y-56465000D03*
X252730000Y-53340000D03*
D22*
X22860000Y-65807500D03*
X22860000Y-63732500D03*
D29*
X258102500Y-45720000D03*
X254977500Y-45720000D03*
D24*
X66272500Y-52070000D03*
X68347500Y-52070000D03*
M02*
