M48
; DRILL file {KiCad (6.0.10)} date Sat Apr  8 13:18:20 2023
; FORMAT={-:-/ absolute / inch / decimal}
; #@! TF.CreationDate,2023-04-08T13:18:20+03:00
; #@! TF.GenerationSoftware,Kicad,Pcbnew,(6.0.10)
; #@! TF.FileFunction,Plated,1,2,PTH
FMAT,2
INCH
; #@! TA.AperFunction,Plated,PTH,ViaDrill
T1C0.0157
; #@! TA.AperFunction,Plated,PTH,ComponentDrill
T2C0.0315
; #@! TA.AperFunction,Plated,PTH,ComponentDrill
T3C0.0394
; #@! TA.AperFunction,Plated,PTH,ComponentDrill
T4C0.0551
%
G90
G05
T1
X0.55Y-1.45
X0.975Y-0.7785
X0.975Y-1.275
X0.975Y-1.675
X0.975Y-1.975
X1.0301Y-1.6
X1.05Y-0.7785
X1.05Y-1.375
X1.05Y-1.525
X1.125Y-0.7785
X1.125Y-1.375
X1.125Y-1.975
X1.2Y-1.525
X1.9Y-2.4
X2.1Y-2.425
X2.7Y-0.65
X2.875Y-1.2
X2.95Y-1.2
X2.95Y-1.55
X2.9735Y-1.8504
X3.0Y-1.2
X3.05Y-0.55
X3.0775Y-0.6
X3.55Y-2.6785
X3.7215Y-2.3
X3.725Y-2.525
X3.725Y-2.6
X3.75Y-1.425
X3.825Y-2.3
X4.5Y-2.55
X4.5Y-2.6
X5.9Y-0.6
X5.9Y-1.6
X5.9Y-1.85
X5.95Y-0.55
X5.95Y-1.6
X5.95Y-1.85
X6.05Y-1.85
X6.375Y-0.65
X6.375Y-1.6
X6.375Y-1.85
X6.425Y-2.1
X6.925Y-2.6
X7.025Y-2.6
X7.1Y-2.2
X7.1Y-2.625
X8.6Y-0.6
X9.775Y-0.6
X9.875Y-0.575
X9.9Y-1.475
X10.15Y-1.9
X10.2Y-1.575
X10.2Y-2.2
X10.375Y-0.65
T2
X0.6502Y-1.8504
X0.6502Y-2.1504
X0.6508Y-1.725
X0.6516Y-2.275
X0.7492Y-1.725
X0.75Y-2.275
X0.7502Y-1.8504
X0.7502Y-2.1504
X0.8502Y-1.8504
X0.8502Y-2.1504
X0.9502Y-1.8504
X0.9502Y-2.1504
X1.0502Y-1.8504
X1.0502Y-2.1504
X1.15Y-1.725
X1.1502Y-1.8504
X1.1502Y-2.1504
X1.1502Y-2.3504
X1.2484Y-1.725
X1.2486Y-2.3504
X1.2502Y-1.8504
X1.2502Y-2.1504
X2.8071Y-1.65
X2.8071Y-1.75
X2.8071Y-1.85
X2.8071Y-1.95
X2.8071Y-2.05
X2.8071Y-2.15
X2.8071Y-2.25
X3.1071Y-1.65
X3.1071Y-1.75
X3.1071Y-1.85
X3.1071Y-1.95
X3.1071Y-2.05
X3.1071Y-2.15
X3.1071Y-2.25
X5.35Y-2.0016
X5.35Y-2.1
X5.6504Y-2.0004
X5.6504Y-2.1004
X5.6504Y-2.2004
X5.6504Y-2.3004
X5.9504Y-2.0004
X5.9504Y-2.1004
X5.9504Y-2.2004
X5.9504Y-2.3004
X6.25Y-2.1016
X6.25Y-2.2
X8.25Y-1.8016
X8.25Y-1.9
X8.5504Y-1.8004
X8.5504Y-1.9004
X8.5504Y-2.0004
X8.5504Y-2.1004
X8.8504Y-1.8004
X8.8504Y-1.9004
X8.8504Y-2.0004
X8.8504Y-2.1004
X9.15Y-1.9016
X9.15Y-2.0
T3
X1.55Y-2.1006
X1.55Y-2.2006
X1.55Y-2.3006
X1.7998Y-1.85
X1.8998Y-1.85
X1.9998Y-1.85
X2.0998Y-1.85
X2.1998Y-1.85
X3.65Y-1.8
X3.65Y-1.9
X3.65Y-2.0
X3.65Y-2.1
X3.65Y-2.2
X5.0Y-2.15
X5.0Y-2.25
X5.0Y-2.35
X6.5Y-2.2506
X6.5Y-2.3506
X6.5Y-2.4506
X7.45Y-1.95
X7.55Y-1.95
X8.0Y-1.95
X8.0Y-2.05
X8.0Y-2.15
X9.4Y-2.05
X9.4Y-2.15
X9.4Y-2.25
X9.8Y-2.1
X9.8Y-2.2
X10.0Y-0.9
X10.0Y-1.2
X10.1Y-0.9
X10.1Y-1.2
X10.2Y-0.9
X10.2Y-1.2
T4
X0.6805Y-0.8533
X0.6805Y-1.1033
X0.6805Y-1.3533
X1.3195Y-0.8533
X1.3195Y-1.1033
X1.3195Y-1.3533
X1.6805Y-0.8533
X1.6805Y-1.1033
X1.6805Y-1.3533
X2.3195Y-0.8533
X2.3195Y-1.1033
X2.3195Y-1.3533
X3.4805Y-0.8533
X3.4805Y-1.1033
X3.4805Y-1.3533
X4.1195Y-0.8533
X4.1195Y-1.1033
X4.1195Y-1.3533
X4.4805Y-0.8533
X4.4805Y-1.1033
X4.4805Y-1.3533
X5.1195Y-0.8533
X5.1195Y-1.1033
X5.1195Y-1.3533
X5.4805Y-0.8533
X5.4805Y-1.1033
X5.4805Y-1.3533
X6.1195Y-0.8533
X6.1195Y-1.1033
X6.1195Y-1.3533
X6.4805Y-0.8533
X6.4805Y-1.1033
X6.4805Y-1.3533
X7.1195Y-0.8533
X7.1195Y-1.1033
X7.1195Y-1.3533
X8.0805Y-0.8533
X8.0805Y-1.1033
X8.0805Y-1.3533
X8.7195Y-0.8533
X8.7195Y-1.1033
X8.7195Y-1.3533
X9.0805Y-0.8533
X9.0805Y-1.1033
X9.0805Y-1.3533
X9.7195Y-0.8533
X9.7195Y-1.1033
X9.7195Y-1.3533
T0
M30
