%TF.GenerationSoftware,KiCad,Pcbnew,(6.0.10)*%
%TF.CreationDate,2023-04-08T13:18:27+03:00*%
%TF.ProjectId,DelSol_Mixer,44656c53-6f6c-45f4-9d69-7865722e6b69,rev?*%
%TF.SameCoordinates,Original*%
%TF.FileFunction,Soldermask,Bot*%
%TF.FilePolarity,Negative*%
%FSLAX46Y46*%
G04 Gerber Fmt 4.6, Leading zero omitted, Abs format (unit mm)*
G04 Created by KiCad (PCBNEW (6.0.10)) date 2023-04-08 13:18:27*
%MOMM*%
%LPD*%
G01*
G04 APERTURE LIST*
G04 Aperture macros list*
%AMRoundRect*
0 Rectangle with rounded corners*
0 $1 Rounding radius*
0 $2 $3 $4 $5 $6 $7 $8 $9 X,Y pos of 4 corners*
0 Add a 4 corners polygon primitive as box body*
4,1,4,$2,$3,$4,$5,$6,$7,$8,$9,$2,$3,0*
0 Add four circle primitives for the rounded corners*
1,1,$1+$1,$2,$3*
1,1,$1+$1,$4,$5*
1,1,$1+$1,$6,$7*
1,1,$1+$1,$8,$9*
0 Add four rect primitives between the rounded corners*
20,1,$1+$1,$2,$3,$4,$5,0*
20,1,$1+$1,$4,$5,$6,$7,0*
20,1,$1+$1,$6,$7,$8,$9,0*
20,1,$1+$1,$8,$9,$2,$3,0*%
G04 Aperture macros list end*
%ADD10R,1.700000X1.700000*%
%ADD11O,1.700000X1.700000*%
%ADD12C,3.200000*%
%ADD13C,3.000000*%
%ADD14C,1.600000*%
%ADD15R,1.600000X1.600000*%
%ADD16O,1.600000X1.600000*%
%ADD17RoundRect,0.250000X0.625000X-0.400000X0.625000X0.400000X-0.625000X0.400000X-0.625000X-0.400000X0*%
%ADD18RoundRect,0.250000X-0.625000X0.400000X-0.625000X-0.400000X0.625000X-0.400000X0.625000X0.400000X0*%
%ADD19RoundRect,0.250000X-0.412500X-0.650000X0.412500X-0.650000X0.412500X0.650000X-0.412500X0.650000X0*%
%ADD20RoundRect,0.250000X0.475000X-0.337500X0.475000X0.337500X-0.475000X0.337500X-0.475000X-0.337500X0*%
%ADD21RoundRect,0.250000X-0.400000X-0.625000X0.400000X-0.625000X0.400000X0.625000X-0.400000X0.625000X0*%
%ADD22RoundRect,0.250000X-0.337500X-0.475000X0.337500X-0.475000X0.337500X0.475000X-0.337500X0.475000X0*%
%ADD23RoundRect,0.250000X0.400000X0.625000X-0.400000X0.625000X-0.400000X-0.625000X0.400000X-0.625000X0*%
%ADD24RoundRect,0.250000X-0.650000X0.412500X-0.650000X-0.412500X0.650000X-0.412500X0.650000X0.412500X0*%
%ADD25RoundRect,0.250000X0.650000X-0.412500X0.650000X0.412500X-0.650000X0.412500X-0.650000X-0.412500X0*%
%ADD26RoundRect,0.250000X0.337500X0.475000X-0.337500X0.475000X-0.337500X-0.475000X0.337500X-0.475000X0*%
%ADD27RoundRect,0.250000X0.412500X0.650000X-0.412500X0.650000X-0.412500X-0.650000X0.412500X-0.650000X0*%
G04 APERTURE END LIST*
D10*
X238760000Y-52070000D03*
D11*
X238760000Y-54610000D03*
X238760000Y-57150000D03*
D12*
X205740000Y-64770000D03*
D13*
X88405000Y-28025000D03*
X104635000Y-28025000D03*
X88405000Y-21675000D03*
X104635000Y-21675000D03*
X88405000Y-34375000D03*
X104635000Y-34375000D03*
D10*
X127000000Y-54610000D03*
D11*
X127000000Y-57150000D03*
X127000000Y-59690000D03*
D10*
X254000000Y-22860000D03*
D11*
X256540000Y-22860000D03*
X259080000Y-22860000D03*
D13*
X230645000Y-28025000D03*
X246875000Y-28025000D03*
X230645000Y-21675000D03*
X246875000Y-21675000D03*
X230645000Y-34375000D03*
X246875000Y-34375000D03*
X139205000Y-28025000D03*
X155435000Y-28025000D03*
X139205000Y-21675000D03*
X155435000Y-21675000D03*
X139205000Y-34375000D03*
X155435000Y-34375000D03*
D14*
X135890000Y-53340000D03*
X135890000Y-50840000D03*
D13*
X205245000Y-28025000D03*
X221475000Y-28025000D03*
X205245000Y-21675000D03*
X221475000Y-21675000D03*
X205245000Y-34375000D03*
X221475000Y-34375000D03*
D10*
X55875000Y-46990000D03*
D11*
X53335000Y-46990000D03*
X50795000Y-46990000D03*
X48255000Y-46990000D03*
X45715000Y-46990000D03*
D14*
X209550000Y-48260000D03*
X209550000Y-45760000D03*
D12*
X73660000Y-22860000D03*
D13*
X17285000Y-28025000D03*
X33515000Y-28025000D03*
X17285000Y-21675000D03*
X33515000Y-21675000D03*
X17285000Y-34375000D03*
X33515000Y-34375000D03*
D14*
X29210000Y-43815000D03*
X31710000Y-43815000D03*
D10*
X191770000Y-49530000D03*
D11*
X189230000Y-49530000D03*
D10*
X248920000Y-55880000D03*
D11*
X248920000Y-53340000D03*
D12*
X193040000Y-22860000D03*
D13*
X164605000Y-28025000D03*
X180835000Y-28025000D03*
X164605000Y-21675000D03*
X180835000Y-21675000D03*
X164605000Y-34375000D03*
X180835000Y-34375000D03*
D14*
X29215000Y-59700000D03*
X31715000Y-59700000D03*
D13*
X42685000Y-28025000D03*
X58915000Y-28025000D03*
X42685000Y-21675000D03*
X58915000Y-21675000D03*
X42685000Y-34375000D03*
X58915000Y-34375000D03*
D10*
X39370000Y-53355000D03*
D11*
X39370000Y-55895000D03*
X39370000Y-58435000D03*
D12*
X60960000Y-64770000D03*
D15*
X217180000Y-45730000D03*
D16*
X217180000Y-48270000D03*
X217180000Y-50810000D03*
X217180000Y-53350000D03*
X224800000Y-53350000D03*
X224800000Y-50810000D03*
X224800000Y-48270000D03*
X224800000Y-45730000D03*
D10*
X203200000Y-49530000D03*
D11*
X203200000Y-52070000D03*
X203200000Y-54610000D03*
D15*
X71300000Y-41910000D03*
D16*
X71300000Y-44450000D03*
X71300000Y-46990000D03*
X71300000Y-49530000D03*
X71300000Y-52070000D03*
X71300000Y-54610000D03*
X71300000Y-57150000D03*
X78920000Y-57150000D03*
X78920000Y-54610000D03*
X78920000Y-52070000D03*
X78920000Y-49530000D03*
X78920000Y-46990000D03*
X78920000Y-44450000D03*
X78920000Y-41910000D03*
D15*
X143520000Y-50810000D03*
D16*
X143520000Y-53350000D03*
X143520000Y-55890000D03*
X143520000Y-58430000D03*
X151140000Y-58430000D03*
X151140000Y-55890000D03*
X151140000Y-53350000D03*
X151140000Y-50810000D03*
D14*
X158750000Y-55880000D03*
X158750000Y-53380000D03*
D10*
X254000000Y-30480000D03*
D11*
X256540000Y-30480000D03*
X259080000Y-30480000D03*
D15*
X31755000Y-47000000D03*
D16*
X29215000Y-47000000D03*
X26675000Y-47000000D03*
X24135000Y-47000000D03*
X21595000Y-47000000D03*
X19055000Y-47000000D03*
X16515000Y-47000000D03*
X16515000Y-54620000D03*
X19055000Y-54620000D03*
X21595000Y-54620000D03*
X24135000Y-54620000D03*
X26675000Y-54620000D03*
X29215000Y-54620000D03*
X31755000Y-54620000D03*
D14*
X232410000Y-50800000D03*
X232410000Y-48300000D03*
D10*
X165100000Y-57165000D03*
D11*
X165100000Y-59705000D03*
X165100000Y-62245000D03*
D14*
X19050000Y-57785000D03*
X16550000Y-57785000D03*
D10*
X92710000Y-55880000D03*
D11*
X92710000Y-53340000D03*
X92710000Y-50800000D03*
X92710000Y-48260000D03*
X92710000Y-45720000D03*
D13*
X113805000Y-28025000D03*
X130035000Y-28025000D03*
X113805000Y-21675000D03*
X130035000Y-21675000D03*
X113805000Y-34375000D03*
X130035000Y-34375000D03*
D14*
X19030000Y-43815000D03*
X16530000Y-43815000D03*
D17*
X16510000Y-63790000D03*
X16510000Y-60690000D03*
D18*
X254000000Y-34010000D03*
X254000000Y-37110000D03*
D19*
X112737500Y-54610000D03*
X115862500Y-54610000D03*
D17*
X139700000Y-53620000D03*
X139700000Y-50520000D03*
D19*
X242277500Y-62865000D03*
X245402500Y-62865000D03*
D20*
X34290000Y-64537500D03*
X34290000Y-62462500D03*
D21*
X119100000Y-54610000D03*
X122200000Y-54610000D03*
D22*
X66272500Y-46990000D03*
X68347500Y-46990000D03*
D18*
X91440000Y-24840000D03*
X91440000Y-27940000D03*
D17*
X22860000Y-61240000D03*
X22860000Y-58140000D03*
D23*
X235230000Y-54610000D03*
X232130000Y-54610000D03*
D19*
X190500000Y-54610000D03*
X193625000Y-54610000D03*
D24*
X175260000Y-54025000D03*
X175260000Y-57150000D03*
D25*
X154940000Y-61545000D03*
X154940000Y-58420000D03*
D20*
X25400000Y-65807500D03*
X25400000Y-63732500D03*
D18*
X259080000Y-39090000D03*
X259080000Y-42190000D03*
X76200000Y-45440000D03*
X76200000Y-48540000D03*
D21*
X119100000Y-59690000D03*
X122200000Y-59690000D03*
D17*
X233680000Y-37110000D03*
X233680000Y-34010000D03*
D23*
X161570000Y-62230000D03*
X158470000Y-62230000D03*
D24*
X220980000Y-50800000D03*
X220980000Y-53925000D03*
D17*
X228600000Y-51360000D03*
X228600000Y-48260000D03*
X25400000Y-61240000D03*
X25400000Y-58140000D03*
D18*
X208280000Y-21590000D03*
X208280000Y-24690000D03*
X49530000Y-34010000D03*
X49530000Y-37110000D03*
D23*
X161570000Y-59690000D03*
X158470000Y-59690000D03*
D18*
X142240000Y-24840000D03*
X142240000Y-27940000D03*
D19*
X188937500Y-45720000D03*
X192062500Y-45720000D03*
D18*
X116840000Y-24840000D03*
X116840000Y-27940000D03*
D24*
X147320000Y-50507500D03*
X147320000Y-53632500D03*
D17*
X73660000Y-53620000D03*
X73660000Y-50520000D03*
D23*
X235230000Y-57150000D03*
X232130000Y-57150000D03*
D18*
X73660000Y-45440000D03*
X73660000Y-48540000D03*
X233680000Y-21310000D03*
X233680000Y-24410000D03*
D21*
X206730000Y-52070000D03*
X209830000Y-52070000D03*
D18*
X167640000Y-24790000D03*
X167640000Y-27890000D03*
D26*
X83857500Y-52070000D03*
X81782500Y-52070000D03*
D23*
X171730000Y-57150000D03*
X168630000Y-57150000D03*
D21*
X81280000Y-34290000D03*
X84380000Y-34290000D03*
D19*
X26377500Y-49540000D03*
X29502500Y-49540000D03*
D25*
X228600000Y-56465000D03*
X228600000Y-53340000D03*
D21*
X28930000Y-40640000D03*
X32030000Y-40640000D03*
D23*
X245390000Y-52070000D03*
X242290000Y-52070000D03*
X19330000Y-40640000D03*
X16230000Y-40640000D03*
D18*
X259080000Y-34010000D03*
X259080000Y-37110000D03*
D23*
X19330000Y-52070000D03*
X16230000Y-52070000D03*
D20*
X45720000Y-35327500D03*
X45720000Y-33252500D03*
D19*
X112737500Y-59690000D03*
X115862500Y-59690000D03*
D21*
X206730000Y-54610000D03*
X209830000Y-54610000D03*
D17*
X208280000Y-37110000D03*
X208280000Y-34010000D03*
D24*
X220980000Y-45135000D03*
X220980000Y-48260000D03*
D26*
X83857500Y-46990000D03*
X81782500Y-46990000D03*
D21*
X132790000Y-57150000D03*
X135890000Y-57150000D03*
X196570000Y-49530000D03*
X199670000Y-49530000D03*
D18*
X45720000Y-27660000D03*
X45720000Y-30760000D03*
D27*
X68872500Y-49530000D03*
X65747500Y-49530000D03*
X177115000Y-62230000D03*
X173990000Y-62230000D03*
D24*
X148590000Y-55587500D03*
X148590000Y-58712500D03*
D17*
X19055000Y-63790000D03*
X19055000Y-60690000D03*
D24*
X22860000Y-49237500D03*
X22860000Y-52362500D03*
D21*
X196570000Y-54610000D03*
X199670000Y-54610000D03*
D17*
X76200000Y-53620000D03*
X76200000Y-50520000D03*
D23*
X171730000Y-62230000D03*
X168630000Y-62230000D03*
D18*
X24130000Y-34010000D03*
X24130000Y-37110000D03*
D27*
X29502500Y-52070000D03*
X26377500Y-52070000D03*
D25*
X139700000Y-58712500D03*
X139700000Y-55587500D03*
D17*
X139700000Y-39650000D03*
X139700000Y-36550000D03*
D19*
X23202500Y-44450000D03*
X26327500Y-44450000D03*
D17*
X213360000Y-48540000D03*
X213360000Y-45440000D03*
D21*
X132790000Y-59690000D03*
X135890000Y-59690000D03*
D23*
X245390000Y-57150000D03*
X242290000Y-57150000D03*
D27*
X85382500Y-49530000D03*
X82257500Y-49530000D03*
D18*
X20320000Y-27660000D03*
X20320000Y-30760000D03*
D23*
X32030000Y-62230000D03*
X28930000Y-62230000D03*
D24*
X146050000Y-55587500D03*
X146050000Y-58712500D03*
D21*
X81280000Y-38100000D03*
X84380000Y-38100000D03*
X28650000Y-57160000D03*
X31750000Y-57160000D03*
D20*
X20320000Y-35327500D03*
X20320000Y-33252500D03*
D17*
X154940000Y-56440000D03*
X154940000Y-53340000D03*
D25*
X213360000Y-53632500D03*
X213360000Y-50507500D03*
D17*
X165100000Y-42190000D03*
X165100000Y-39090000D03*
D18*
X254000000Y-39090000D03*
X254000000Y-42190000D03*
D25*
X252730000Y-56465000D03*
X252730000Y-53340000D03*
D20*
X22860000Y-65807500D03*
X22860000Y-63732500D03*
D27*
X258102500Y-45720000D03*
X254977500Y-45720000D03*
D22*
X66272500Y-52070000D03*
X68347500Y-52070000D03*
M02*
