%TF.GenerationSoftware,KiCad,Pcbnew,(6.0.10)*%
%TF.CreationDate,2023-04-08T13:18:27+03:00*%
%TF.ProjectId,DelSol_Mixer,44656c53-6f6c-45f4-9d69-7865722e6b69,rev?*%
%TF.SameCoordinates,Original*%
%TF.FileFunction,Soldermask,Top*%
%TF.FilePolarity,Negative*%
%FSLAX46Y46*%
G04 Gerber Fmt 4.6, Leading zero omitted, Abs format (unit mm)*
G04 Created by KiCad (PCBNEW (6.0.10)) date 2023-04-08 13:18:27*
%MOMM*%
%LPD*%
G01*
G04 APERTURE LIST*
G04 Aperture macros list*
%AMRoundRect*
0 Rectangle with rounded corners*
0 $1 Rounding radius*
0 $2 $3 $4 $5 $6 $7 $8 $9 X,Y pos of 4 corners*
0 Add a 4 corners polygon primitive as box body*
4,1,4,$2,$3,$4,$5,$6,$7,$8,$9,$2,$3,0*
0 Add four circle primitives for the rounded corners*
1,1,$1+$1,$2,$3*
1,1,$1+$1,$4,$5*
1,1,$1+$1,$6,$7*
1,1,$1+$1,$8,$9*
0 Add four rect primitives between the rounded corners*
20,1,$1+$1,$2,$3,$4,$5,0*
20,1,$1+$1,$4,$5,$6,$7,0*
20,1,$1+$1,$6,$7,$8,$9,0*
20,1,$1+$1,$8,$9,$2,$3,0*%
G04 Aperture macros list end*
%ADD10R,1.700000X1.700000*%
%ADD11O,1.700000X1.700000*%
%ADD12C,3.200000*%
%ADD13C,3.000000*%
%ADD14RoundRect,0.250000X0.550000X-1.412500X0.550000X1.412500X-0.550000X1.412500X-0.550000X-1.412500X0*%
%ADD15RoundRect,0.250000X-0.550000X1.412500X-0.550000X-1.412500X0.550000X-1.412500X0.550000X1.412500X0*%
%ADD16C,1.600000*%
%ADD17R,1.600000X1.600000*%
%ADD18O,1.600000X1.600000*%
G04 APERTURE END LIST*
D10*
X238760000Y-52070000D03*
D11*
X238760000Y-54610000D03*
X238760000Y-57150000D03*
D12*
X205740000Y-64770000D03*
D13*
X88405000Y-28025000D03*
X104635000Y-28025000D03*
X88405000Y-21675000D03*
X104635000Y-21675000D03*
X88405000Y-34375000D03*
X104635000Y-34375000D03*
D14*
X259080000Y-58417500D03*
X259080000Y-53342500D03*
D10*
X127000000Y-54610000D03*
D11*
X127000000Y-57150000D03*
X127000000Y-59690000D03*
D15*
X251460000Y-43182500D03*
X251460000Y-48257500D03*
D10*
X254000000Y-22860000D03*
D11*
X256540000Y-22860000D03*
X259080000Y-22860000D03*
D13*
X230645000Y-28025000D03*
X246875000Y-28025000D03*
X230645000Y-21675000D03*
X246875000Y-21675000D03*
X230645000Y-34375000D03*
X246875000Y-34375000D03*
X139205000Y-28025000D03*
X155435000Y-28025000D03*
X139205000Y-21675000D03*
X155435000Y-21675000D03*
X139205000Y-34375000D03*
X155435000Y-34375000D03*
D16*
X135890000Y-53340000D03*
X135890000Y-50840000D03*
D13*
X205245000Y-28025000D03*
X221475000Y-28025000D03*
X205245000Y-21675000D03*
X221475000Y-21675000D03*
X205245000Y-34375000D03*
X221475000Y-34375000D03*
D10*
X55875000Y-46990000D03*
D11*
X53335000Y-46990000D03*
X50795000Y-46990000D03*
X48255000Y-46990000D03*
X45715000Y-46990000D03*
D16*
X209550000Y-48260000D03*
X209550000Y-45760000D03*
D12*
X73660000Y-22860000D03*
D13*
X17285000Y-28025000D03*
X33515000Y-28025000D03*
X17285000Y-21675000D03*
X33515000Y-21675000D03*
X17285000Y-34375000D03*
X33515000Y-34375000D03*
D16*
X29210000Y-43815000D03*
X31710000Y-43815000D03*
D10*
X191770000Y-49530000D03*
D11*
X189230000Y-49530000D03*
D10*
X248920000Y-55880000D03*
D11*
X248920000Y-53340000D03*
D12*
X193040000Y-22860000D03*
D13*
X164605000Y-28025000D03*
X180835000Y-28025000D03*
X164605000Y-21675000D03*
X180835000Y-21675000D03*
X164605000Y-34375000D03*
X180835000Y-34375000D03*
D16*
X29215000Y-59700000D03*
X31715000Y-59700000D03*
D13*
X42685000Y-28025000D03*
X58915000Y-28025000D03*
X42685000Y-21675000D03*
X58915000Y-21675000D03*
X42685000Y-34375000D03*
X58915000Y-34375000D03*
D14*
X259080000Y-48257500D03*
X259080000Y-43182500D03*
D10*
X39370000Y-53355000D03*
D11*
X39370000Y-55895000D03*
X39370000Y-58435000D03*
D12*
X60960000Y-64770000D03*
D17*
X217180000Y-45730000D03*
D18*
X217180000Y-48270000D03*
X217180000Y-50810000D03*
X217180000Y-53350000D03*
X224800000Y-53350000D03*
X224800000Y-50810000D03*
X224800000Y-48270000D03*
X224800000Y-45730000D03*
D10*
X203200000Y-49530000D03*
D11*
X203200000Y-52070000D03*
X203200000Y-54610000D03*
D17*
X71300000Y-41910000D03*
D18*
X71300000Y-44450000D03*
X71300000Y-46990000D03*
X71300000Y-49530000D03*
X71300000Y-52070000D03*
X71300000Y-54610000D03*
X71300000Y-57150000D03*
X78920000Y-57150000D03*
X78920000Y-54610000D03*
X78920000Y-52070000D03*
X78920000Y-49530000D03*
X78920000Y-46990000D03*
X78920000Y-44450000D03*
X78920000Y-41910000D03*
D17*
X143520000Y-50810000D03*
D18*
X143520000Y-53350000D03*
X143520000Y-55890000D03*
X143520000Y-58430000D03*
X151140000Y-58430000D03*
X151140000Y-55890000D03*
X151140000Y-53350000D03*
X151140000Y-50810000D03*
D16*
X158750000Y-55880000D03*
X158750000Y-53380000D03*
D10*
X254000000Y-30480000D03*
D11*
X256540000Y-30480000D03*
X259080000Y-30480000D03*
D17*
X31755000Y-47000000D03*
D18*
X29215000Y-47000000D03*
X26675000Y-47000000D03*
X24135000Y-47000000D03*
X21595000Y-47000000D03*
X19055000Y-47000000D03*
X16515000Y-47000000D03*
X16515000Y-54620000D03*
X19055000Y-54620000D03*
X21595000Y-54620000D03*
X24135000Y-54620000D03*
X26675000Y-54620000D03*
X29215000Y-54620000D03*
X31755000Y-54620000D03*
D16*
X232410000Y-50800000D03*
X232410000Y-48300000D03*
D10*
X165100000Y-57165000D03*
D11*
X165100000Y-59705000D03*
X165100000Y-62245000D03*
D16*
X19050000Y-57785000D03*
X16550000Y-57785000D03*
D10*
X92710000Y-55880000D03*
D11*
X92710000Y-53340000D03*
X92710000Y-50800000D03*
X92710000Y-48260000D03*
X92710000Y-45720000D03*
D13*
X113805000Y-28025000D03*
X130035000Y-28025000D03*
X113805000Y-21675000D03*
X130035000Y-21675000D03*
X113805000Y-34375000D03*
X130035000Y-34375000D03*
D16*
X19030000Y-43815000D03*
X16530000Y-43815000D03*
M02*
