%TF.GenerationSoftware,KiCad,Pcbnew,(6.0.10)*%
%TF.CreationDate,2023-04-08T13:18:27+03:00*%
%TF.ProjectId,DelSol_Mixer,44656c53-6f6c-45f4-9d69-7865722e6b69,rev?*%
%TF.SameCoordinates,Original*%
%TF.FileFunction,Copper,L2,Bot*%
%TF.FilePolarity,Positive*%
%FSLAX46Y46*%
G04 Gerber Fmt 4.6, Leading zero omitted, Abs format (unit mm)*
G04 Created by KiCad (PCBNEW (6.0.10)) date 2023-04-08 13:18:27*
%MOMM*%
%LPD*%
G01*
G04 APERTURE LIST*
G04 Aperture macros list*
%AMRoundRect*
0 Rectangle with rounded corners*
0 $1 Rounding radius*
0 $2 $3 $4 $5 $6 $7 $8 $9 X,Y pos of 4 corners*
0 Add a 4 corners polygon primitive as box body*
4,1,4,$2,$3,$4,$5,$6,$7,$8,$9,$2,$3,0*
0 Add four circle primitives for the rounded corners*
1,1,$1+$1,$2,$3*
1,1,$1+$1,$4,$5*
1,1,$1+$1,$6,$7*
1,1,$1+$1,$8,$9*
0 Add four rect primitives between the rounded corners*
20,1,$1+$1,$2,$3,$4,$5,0*
20,1,$1+$1,$4,$5,$6,$7,0*
20,1,$1+$1,$6,$7,$8,$9,0*
20,1,$1+$1,$8,$9,$2,$3,0*%
G04 Aperture macros list end*
%TA.AperFunction,ComponentPad*%
%ADD10R,1.700000X1.700000*%
%TD*%
%TA.AperFunction,ComponentPad*%
%ADD11O,1.700000X1.700000*%
%TD*%
%TA.AperFunction,ComponentPad*%
%ADD12C,3.000000*%
%TD*%
%TA.AperFunction,ComponentPad*%
%ADD13C,1.600000*%
%TD*%
%TA.AperFunction,ComponentPad*%
%ADD14R,1.600000X1.600000*%
%TD*%
%TA.AperFunction,ComponentPad*%
%ADD15O,1.600000X1.600000*%
%TD*%
%TA.AperFunction,SMDPad,CuDef*%
%ADD16RoundRect,0.250000X0.625000X-0.400000X0.625000X0.400000X-0.625000X0.400000X-0.625000X-0.400000X0*%
%TD*%
%TA.AperFunction,SMDPad,CuDef*%
%ADD17RoundRect,0.250000X-0.625000X0.400000X-0.625000X-0.400000X0.625000X-0.400000X0.625000X0.400000X0*%
%TD*%
%TA.AperFunction,SMDPad,CuDef*%
%ADD18RoundRect,0.250000X-0.412500X-0.650000X0.412500X-0.650000X0.412500X0.650000X-0.412500X0.650000X0*%
%TD*%
%TA.AperFunction,SMDPad,CuDef*%
%ADD19RoundRect,0.250000X0.475000X-0.337500X0.475000X0.337500X-0.475000X0.337500X-0.475000X-0.337500X0*%
%TD*%
%TA.AperFunction,SMDPad,CuDef*%
%ADD20RoundRect,0.250000X-0.400000X-0.625000X0.400000X-0.625000X0.400000X0.625000X-0.400000X0.625000X0*%
%TD*%
%TA.AperFunction,SMDPad,CuDef*%
%ADD21RoundRect,0.250000X-0.337500X-0.475000X0.337500X-0.475000X0.337500X0.475000X-0.337500X0.475000X0*%
%TD*%
%TA.AperFunction,SMDPad,CuDef*%
%ADD22RoundRect,0.250000X0.400000X0.625000X-0.400000X0.625000X-0.400000X-0.625000X0.400000X-0.625000X0*%
%TD*%
%TA.AperFunction,SMDPad,CuDef*%
%ADD23RoundRect,0.250000X-0.650000X0.412500X-0.650000X-0.412500X0.650000X-0.412500X0.650000X0.412500X0*%
%TD*%
%TA.AperFunction,SMDPad,CuDef*%
%ADD24RoundRect,0.250000X0.650000X-0.412500X0.650000X0.412500X-0.650000X0.412500X-0.650000X-0.412500X0*%
%TD*%
%TA.AperFunction,SMDPad,CuDef*%
%ADD25RoundRect,0.250000X0.337500X0.475000X-0.337500X0.475000X-0.337500X-0.475000X0.337500X-0.475000X0*%
%TD*%
%TA.AperFunction,SMDPad,CuDef*%
%ADD26RoundRect,0.250000X0.412500X0.650000X-0.412500X0.650000X-0.412500X-0.650000X0.412500X-0.650000X0*%
%TD*%
%TA.AperFunction,ViaPad*%
%ADD27C,0.800000*%
%TD*%
%TA.AperFunction,Conductor*%
%ADD28C,0.250000*%
%TD*%
%TA.AperFunction,Conductor*%
%ADD29C,0.200000*%
%TD*%
G04 APERTURE END LIST*
D10*
X238760000Y-52070000D03*
D11*
X238760000Y-54610000D03*
X238760000Y-57150000D03*
D12*
X88405000Y-28025000D03*
X104635000Y-28025000D03*
X88405000Y-21675000D03*
X104635000Y-21675000D03*
X88405000Y-34375000D03*
X104635000Y-34375000D03*
D10*
X127000000Y-54610000D03*
D11*
X127000000Y-57150000D03*
X127000000Y-59690000D03*
D10*
X254000000Y-22860000D03*
D11*
X256540000Y-22860000D03*
X259080000Y-22860000D03*
D12*
X230645000Y-28025000D03*
X246875000Y-28025000D03*
X230645000Y-21675000D03*
X246875000Y-21675000D03*
X230645000Y-34375000D03*
X246875000Y-34375000D03*
X139205000Y-28025000D03*
X155435000Y-28025000D03*
X139205000Y-21675000D03*
X155435000Y-21675000D03*
X139205000Y-34375000D03*
X155435000Y-34375000D03*
D13*
X135890000Y-53340000D03*
X135890000Y-50840000D03*
D12*
X205245000Y-28025000D03*
X221475000Y-28025000D03*
X205245000Y-21675000D03*
X221475000Y-21675000D03*
X205245000Y-34375000D03*
X221475000Y-34375000D03*
D10*
X55875000Y-46990000D03*
D11*
X53335000Y-46990000D03*
X50795000Y-46990000D03*
X48255000Y-46990000D03*
X45715000Y-46990000D03*
D13*
X209550000Y-48260000D03*
X209550000Y-45760000D03*
D12*
X17285000Y-28025000D03*
X33515000Y-28025000D03*
X17285000Y-21675000D03*
X33515000Y-21675000D03*
X17285000Y-34375000D03*
X33515000Y-34375000D03*
D13*
X29210000Y-43815000D03*
X31710000Y-43815000D03*
D10*
X191770000Y-49530000D03*
D11*
X189230000Y-49530000D03*
D10*
X248920000Y-55880000D03*
D11*
X248920000Y-53340000D03*
D12*
X164605000Y-28025000D03*
X180835000Y-28025000D03*
X164605000Y-21675000D03*
X180835000Y-21675000D03*
X164605000Y-34375000D03*
X180835000Y-34375000D03*
D13*
X29215000Y-59700000D03*
X31715000Y-59700000D03*
D12*
X42685000Y-28025000D03*
X58915000Y-28025000D03*
X42685000Y-21675000D03*
X58915000Y-21675000D03*
X42685000Y-34375000D03*
X58915000Y-34375000D03*
D10*
X39370000Y-53355000D03*
D11*
X39370000Y-55895000D03*
X39370000Y-58435000D03*
D14*
X217180000Y-45730000D03*
D15*
X217180000Y-48270000D03*
X217180000Y-50810000D03*
X217180000Y-53350000D03*
X224800000Y-53350000D03*
X224800000Y-50810000D03*
X224800000Y-48270000D03*
X224800000Y-45730000D03*
D10*
X203200000Y-49530000D03*
D11*
X203200000Y-52070000D03*
X203200000Y-54610000D03*
D14*
X71300000Y-41910000D03*
D15*
X71300000Y-44450000D03*
X71300000Y-46990000D03*
X71300000Y-49530000D03*
X71300000Y-52070000D03*
X71300000Y-54610000D03*
X71300000Y-57150000D03*
X78920000Y-57150000D03*
X78920000Y-54610000D03*
X78920000Y-52070000D03*
X78920000Y-49530000D03*
X78920000Y-46990000D03*
X78920000Y-44450000D03*
X78920000Y-41910000D03*
D14*
X143520000Y-50810000D03*
D15*
X143520000Y-53350000D03*
X143520000Y-55890000D03*
X143520000Y-58430000D03*
X151140000Y-58430000D03*
X151140000Y-55890000D03*
X151140000Y-53350000D03*
X151140000Y-50810000D03*
D13*
X158750000Y-55880000D03*
X158750000Y-53380000D03*
D10*
X254000000Y-30480000D03*
D11*
X256540000Y-30480000D03*
X259080000Y-30480000D03*
D14*
X31755000Y-47000000D03*
D15*
X29215000Y-47000000D03*
X26675000Y-47000000D03*
X24135000Y-47000000D03*
X21595000Y-47000000D03*
X19055000Y-47000000D03*
X16515000Y-47000000D03*
X16515000Y-54620000D03*
X19055000Y-54620000D03*
X21595000Y-54620000D03*
X24135000Y-54620000D03*
X26675000Y-54620000D03*
X29215000Y-54620000D03*
X31755000Y-54620000D03*
D13*
X232410000Y-50800000D03*
X232410000Y-48300000D03*
D10*
X165100000Y-57165000D03*
D11*
X165100000Y-59705000D03*
X165100000Y-62245000D03*
D13*
X19050000Y-57785000D03*
X16550000Y-57785000D03*
D10*
X92710000Y-55880000D03*
D11*
X92710000Y-53340000D03*
X92710000Y-50800000D03*
X92710000Y-48260000D03*
X92710000Y-45720000D03*
D12*
X113805000Y-28025000D03*
X130035000Y-28025000D03*
X113805000Y-21675000D03*
X130035000Y-21675000D03*
X113805000Y-34375000D03*
X130035000Y-34375000D03*
D13*
X19030000Y-43815000D03*
X16530000Y-43815000D03*
D16*
X16510000Y-63790000D03*
X16510000Y-60690000D03*
D17*
X254000000Y-34010000D03*
X254000000Y-37110000D03*
D18*
X112737500Y-54610000D03*
X115862500Y-54610000D03*
D16*
X139700000Y-53620000D03*
X139700000Y-50520000D03*
D18*
X242277500Y-62865000D03*
X245402500Y-62865000D03*
D19*
X34290000Y-64537500D03*
X34290000Y-62462500D03*
D20*
X119100000Y-54610000D03*
X122200000Y-54610000D03*
D21*
X66272500Y-46990000D03*
X68347500Y-46990000D03*
D17*
X91440000Y-24840000D03*
X91440000Y-27940000D03*
D16*
X22860000Y-61240000D03*
X22860000Y-58140000D03*
D22*
X235230000Y-54610000D03*
X232130000Y-54610000D03*
D18*
X190500000Y-54610000D03*
X193625000Y-54610000D03*
D23*
X175260000Y-54025000D03*
X175260000Y-57150000D03*
D24*
X154940000Y-61545000D03*
X154940000Y-58420000D03*
D19*
X25400000Y-65807500D03*
X25400000Y-63732500D03*
D17*
X259080000Y-39090000D03*
X259080000Y-42190000D03*
X76200000Y-45440000D03*
X76200000Y-48540000D03*
D20*
X119100000Y-59690000D03*
X122200000Y-59690000D03*
D16*
X233680000Y-37110000D03*
X233680000Y-34010000D03*
D22*
X161570000Y-62230000D03*
X158470000Y-62230000D03*
D23*
X220980000Y-50800000D03*
X220980000Y-53925000D03*
D16*
X228600000Y-51360000D03*
X228600000Y-48260000D03*
X25400000Y-61240000D03*
X25400000Y-58140000D03*
D17*
X208280000Y-21590000D03*
X208280000Y-24690000D03*
X49530000Y-34010000D03*
X49530000Y-37110000D03*
D22*
X161570000Y-59690000D03*
X158470000Y-59690000D03*
D17*
X142240000Y-24840000D03*
X142240000Y-27940000D03*
D18*
X188937500Y-45720000D03*
X192062500Y-45720000D03*
D17*
X116840000Y-24840000D03*
X116840000Y-27940000D03*
D23*
X147320000Y-50507500D03*
X147320000Y-53632500D03*
D16*
X73660000Y-53620000D03*
X73660000Y-50520000D03*
D22*
X235230000Y-57150000D03*
X232130000Y-57150000D03*
D17*
X73660000Y-45440000D03*
X73660000Y-48540000D03*
X233680000Y-21310000D03*
X233680000Y-24410000D03*
D20*
X206730000Y-52070000D03*
X209830000Y-52070000D03*
D17*
X167640000Y-24790000D03*
X167640000Y-27890000D03*
D25*
X83857500Y-52070000D03*
X81782500Y-52070000D03*
D22*
X171730000Y-57150000D03*
X168630000Y-57150000D03*
D20*
X81280000Y-34290000D03*
X84380000Y-34290000D03*
D18*
X26377500Y-49540000D03*
X29502500Y-49540000D03*
D24*
X228600000Y-56465000D03*
X228600000Y-53340000D03*
D20*
X28930000Y-40640000D03*
X32030000Y-40640000D03*
D22*
X245390000Y-52070000D03*
X242290000Y-52070000D03*
X19330000Y-40640000D03*
X16230000Y-40640000D03*
D17*
X259080000Y-34010000D03*
X259080000Y-37110000D03*
D22*
X19330000Y-52070000D03*
X16230000Y-52070000D03*
D19*
X45720000Y-35327500D03*
X45720000Y-33252500D03*
D18*
X112737500Y-59690000D03*
X115862500Y-59690000D03*
D20*
X206730000Y-54610000D03*
X209830000Y-54610000D03*
D16*
X208280000Y-37110000D03*
X208280000Y-34010000D03*
D23*
X220980000Y-45135000D03*
X220980000Y-48260000D03*
D25*
X83857500Y-46990000D03*
X81782500Y-46990000D03*
D20*
X132790000Y-57150000D03*
X135890000Y-57150000D03*
X196570000Y-49530000D03*
X199670000Y-49530000D03*
D17*
X45720000Y-27660000D03*
X45720000Y-30760000D03*
D26*
X68872500Y-49530000D03*
X65747500Y-49530000D03*
X177115000Y-62230000D03*
X173990000Y-62230000D03*
D23*
X148590000Y-55587500D03*
X148590000Y-58712500D03*
D16*
X19055000Y-63790000D03*
X19055000Y-60690000D03*
D23*
X22860000Y-49237500D03*
X22860000Y-52362500D03*
D20*
X196570000Y-54610000D03*
X199670000Y-54610000D03*
D16*
X76200000Y-53620000D03*
X76200000Y-50520000D03*
D22*
X171730000Y-62230000D03*
X168630000Y-62230000D03*
D17*
X24130000Y-34010000D03*
X24130000Y-37110000D03*
D26*
X29502500Y-52070000D03*
X26377500Y-52070000D03*
D24*
X139700000Y-58712500D03*
X139700000Y-55587500D03*
D16*
X139700000Y-39650000D03*
X139700000Y-36550000D03*
D18*
X23202500Y-44450000D03*
X26327500Y-44450000D03*
D16*
X213360000Y-48540000D03*
X213360000Y-45440000D03*
D20*
X132790000Y-59690000D03*
X135890000Y-59690000D03*
D22*
X245390000Y-57150000D03*
X242290000Y-57150000D03*
D26*
X85382500Y-49530000D03*
X82257500Y-49530000D03*
D17*
X20320000Y-27660000D03*
X20320000Y-30760000D03*
D22*
X32030000Y-62230000D03*
X28930000Y-62230000D03*
D23*
X146050000Y-55587500D03*
X146050000Y-58712500D03*
D20*
X81280000Y-38100000D03*
X84380000Y-38100000D03*
X28650000Y-57160000D03*
X31750000Y-57160000D03*
D19*
X20320000Y-35327500D03*
X20320000Y-33252500D03*
D16*
X154940000Y-56440000D03*
X154940000Y-53340000D03*
D24*
X213360000Y-53632500D03*
X213360000Y-50507500D03*
D16*
X165100000Y-42190000D03*
X165100000Y-39090000D03*
D17*
X254000000Y-39090000D03*
X254000000Y-42190000D03*
D24*
X252730000Y-56465000D03*
X252730000Y-53340000D03*
D19*
X22860000Y-65807500D03*
X22860000Y-63732500D03*
D26*
X258102500Y-45720000D03*
X254977500Y-45720000D03*
D21*
X66272500Y-52070000D03*
X68347500Y-52070000D03*
D27*
X24765000Y-50165000D03*
X28575000Y-50165000D03*
X153670000Y-46990000D03*
X257810000Y-48260000D03*
X68580000Y-16510000D03*
X161925000Y-40640000D03*
X73025000Y-30480000D03*
X28575000Y-19774500D03*
X75527015Y-47000768D03*
X161925000Y-46990000D03*
X161925000Y-16510000D03*
X26164500Y-40640000D03*
X28575000Y-34925000D03*
X263525000Y-16510000D03*
X259080000Y-55880000D03*
X94525500Y-58420000D03*
X97155000Y-58420000D03*
X180340000Y-55880000D03*
X180340000Y-66675000D03*
X163195000Y-53340000D03*
X90170000Y-68034500D03*
X94615000Y-66040000D03*
X48260000Y-60960000D03*
X175895000Y-66040000D03*
X114300000Y-66040000D03*
X178435000Y-66040000D03*
X95250000Y-36195000D03*
X94615000Y-64135000D03*
X13970000Y-36830000D03*
X114300000Y-64770000D03*
X53340000Y-61595000D03*
X250825000Y-14605000D03*
X74930000Y-30480000D03*
X74930000Y-39370000D03*
X24765000Y-32385000D03*
X151130000Y-40640000D03*
X151130000Y-46990000D03*
X151130000Y-13970000D03*
X77470000Y-13970000D03*
X24765000Y-19774500D03*
X251460000Y-37465000D03*
X24765000Y-42545000D03*
X259080000Y-40005000D03*
X149860000Y-15240000D03*
X149860000Y-46990000D03*
X78169500Y-15240000D03*
X218440000Y-15240000D03*
X149860000Y-40640000D03*
X26670000Y-34925000D03*
X26670000Y-19774500D03*
X76200000Y-30480000D03*
X248285000Y-15240000D03*
X26670000Y-38735000D03*
X30480000Y-38735000D03*
D28*
X198120000Y-51435000D02*
X198120000Y-22225000D01*
X243840000Y-48260000D02*
X244767500Y-47332500D01*
X254977500Y-45720000D02*
X254977500Y-47332500D01*
X228190000Y-24130000D02*
X230645000Y-21675000D01*
X45355000Y-28025000D02*
X42685000Y-28025000D01*
X22860000Y-49237500D02*
X23837500Y-49237500D01*
X33645000Y-49540000D02*
X29502500Y-49540000D01*
X91440000Y-24840000D02*
X91440000Y-22225000D01*
X28877500Y-50165000D02*
X29502500Y-49540000D01*
X139205000Y-21675000D02*
X142240000Y-24710000D01*
X146050000Y-55587500D02*
X147662500Y-55587500D01*
X142240000Y-24710000D02*
X142240000Y-24840000D01*
X53970000Y-48895000D02*
X55875000Y-46990000D01*
X255905000Y-48260000D02*
X257810000Y-48260000D01*
X22860000Y-49237500D02*
X22860000Y-44792500D01*
X19955000Y-28025000D02*
X17285000Y-28025000D01*
X116840000Y-24840000D02*
X116840000Y-22225000D01*
X208195000Y-21675000D02*
X208280000Y-21590000D01*
X45715000Y-46990000D02*
X47620000Y-48895000D01*
X116840000Y-22225000D02*
X116205000Y-21590000D01*
X65747500Y-49530000D02*
X63500000Y-49530000D01*
X36195000Y-46990000D02*
X33645000Y-49540000D01*
X29502500Y-52070000D02*
X29502500Y-49540000D01*
X219075000Y-25400000D02*
X220345000Y-24130000D01*
X238760000Y-54610000D02*
X243205000Y-54610000D01*
X28575000Y-50165000D02*
X28877500Y-50165000D01*
X230645000Y-21675000D02*
X233315000Y-21675000D01*
X116205000Y-21590000D02*
X116120000Y-21675000D01*
X116120000Y-21675000D02*
X113805000Y-21675000D01*
X147320000Y-55245000D02*
X147662500Y-55587500D01*
X45720000Y-27660000D02*
X45355000Y-28025000D01*
X220980000Y-50800000D02*
X220980000Y-48260000D01*
X47620000Y-48895000D02*
X53970000Y-48895000D01*
X167640000Y-24710000D02*
X167640000Y-24790000D01*
X153035000Y-52070000D02*
X153670000Y-51435000D01*
X90890000Y-21675000D02*
X88405000Y-21675000D01*
X89192500Y-45720000D02*
X92710000Y-45720000D01*
X20320000Y-27660000D02*
X19955000Y-28025000D01*
X198755000Y-52070000D02*
X198120000Y-51435000D01*
X244767500Y-47332500D02*
X254977500Y-47332500D01*
X220980000Y-48260000D02*
X219075000Y-46355000D01*
X45715000Y-46990000D02*
X36195000Y-46990000D01*
X60960000Y-46990000D02*
X55875000Y-46990000D01*
X148882500Y-52070000D02*
X153035000Y-52070000D01*
X220345000Y-24130000D02*
X228190000Y-24130000D01*
X233315000Y-21675000D02*
X233680000Y-21310000D01*
X153670000Y-51435000D02*
X153670000Y-46990000D01*
X23837500Y-49237500D02*
X24765000Y-50165000D01*
X91440000Y-22225000D02*
X90890000Y-21675000D01*
X147662500Y-55587500D02*
X148590000Y-55587500D01*
X243840000Y-53975000D02*
X243840000Y-48260000D01*
X147320000Y-53632500D02*
X148882500Y-52070000D01*
X205245000Y-21675000D02*
X208195000Y-21675000D01*
X254977500Y-47332500D02*
X255905000Y-48260000D01*
X63500000Y-49530000D02*
X60960000Y-46990000D01*
X219075000Y-46355000D02*
X219075000Y-25400000D01*
X147320000Y-53632500D02*
X147320000Y-55245000D01*
X203200000Y-52070000D02*
X198755000Y-52070000D01*
X164605000Y-21675000D02*
X167640000Y-24710000D01*
X243205000Y-54610000D02*
X243840000Y-53975000D01*
X256540000Y-22860000D02*
X256540000Y-30480000D01*
X198670000Y-21675000D02*
X205245000Y-21675000D01*
X85382500Y-49530000D02*
X89192500Y-45720000D01*
X22860000Y-44792500D02*
X23202500Y-44450000D01*
X198120000Y-22225000D02*
X198670000Y-21675000D01*
X222250000Y-52070000D02*
X223530000Y-53350000D01*
X259080000Y-42190000D02*
X260705000Y-42190000D01*
X25682500Y-51375000D02*
X26377500Y-52070000D01*
X26675000Y-52367500D02*
X26377500Y-52070000D01*
X21595000Y-51751827D02*
X21971827Y-51375000D01*
X73025000Y-30480000D02*
X68580000Y-26035000D01*
X245110000Y-54610000D02*
X259080000Y-54610000D01*
X28575000Y-34925000D02*
X28575000Y-19774500D01*
X76200000Y-48540000D02*
X76200000Y-50520000D01*
X151140000Y-58430000D02*
X152400000Y-59690000D01*
X21595000Y-54620000D02*
X21595000Y-51751827D01*
X263525000Y-39370000D02*
X263525000Y-16510000D01*
X259080000Y-44742500D02*
X258102500Y-45720000D01*
X254000000Y-42190000D02*
X259080000Y-42190000D01*
X76200000Y-48540000D02*
X76200000Y-47673753D01*
X223530000Y-53350000D02*
X224800000Y-53350000D01*
X226060000Y-59055000D02*
X242223173Y-59055000D01*
X152400000Y-59690000D02*
X155575000Y-59690000D01*
X161925000Y-40640000D02*
X161925000Y-16510000D01*
X148872500Y-58430000D02*
X148590000Y-58712500D01*
X26675000Y-47000000D02*
X27474999Y-47799999D01*
X151140000Y-58430000D02*
X148872500Y-58430000D01*
X27474999Y-47799999D02*
X27474999Y-50972501D01*
X76200000Y-47673753D02*
X75527015Y-47000768D01*
X217180000Y-50810000D02*
X218440000Y-52070000D01*
X224800000Y-57795000D02*
X226060000Y-59055000D01*
X143520000Y-55890000D02*
X144780000Y-57150000D01*
X73660000Y-48540000D02*
X76200000Y-48540000D01*
X259080000Y-46697500D02*
X259080000Y-54610000D01*
X22165000Y-51375000D02*
X25682500Y-51375000D01*
X27474999Y-50972501D02*
X26377500Y-52070000D01*
X260705000Y-42190000D02*
X263525000Y-39370000D01*
X157480000Y-57785000D02*
X160655000Y-57785000D01*
X242223173Y-59055000D02*
X243840000Y-57438173D01*
X26675000Y-44797500D02*
X26327500Y-44450000D01*
X218440000Y-52070000D02*
X222250000Y-52070000D01*
X26675000Y-47000000D02*
X26675000Y-44797500D01*
X259080000Y-54610000D02*
X259080000Y-55880000D01*
X26327500Y-44450000D02*
X26327500Y-40803000D01*
X224800000Y-53350000D02*
X224800000Y-57795000D01*
X258102500Y-45720000D02*
X259080000Y-46697500D01*
X73660000Y-50520000D02*
X73660000Y-48540000D01*
X21971827Y-51375000D02*
X22165000Y-51375000D01*
X243840000Y-57438173D02*
X243840000Y-55880000D01*
X21595000Y-50805000D02*
X22165000Y-51375000D01*
X155575000Y-59690000D02*
X157480000Y-57785000D01*
X243840000Y-55880000D02*
X245110000Y-54610000D01*
X26675000Y-54620000D02*
X26675000Y-52367500D01*
X161925000Y-56515000D02*
X161925000Y-54610000D01*
X68580000Y-26035000D02*
X68580000Y-16510000D01*
X148590000Y-57785000D02*
X148590000Y-58712500D01*
X144780000Y-57150000D02*
X147955000Y-57150000D01*
X26327500Y-40803000D02*
X26164500Y-40640000D01*
X160655000Y-57785000D02*
X161925000Y-56515000D01*
X161925000Y-54610000D02*
X161925000Y-46990000D01*
X259080000Y-42190000D02*
X259080000Y-44742500D01*
X21595000Y-47000000D02*
X21595000Y-50805000D01*
X147955000Y-57150000D02*
X148590000Y-57785000D01*
X189230000Y-49530000D02*
X177165000Y-49530000D01*
X243840000Y-64770000D02*
X244475000Y-65405000D01*
X112737500Y-45377500D02*
X112737500Y-54610000D01*
X192405000Y-52705000D02*
X192405000Y-56515000D01*
X66272500Y-54842500D02*
X66272500Y-52070000D01*
X190500000Y-48260000D02*
X190500000Y-44450000D01*
X244475000Y-65405000D02*
X248285000Y-65405000D01*
X192405000Y-56515000D02*
X196215000Y-60325000D01*
X189230000Y-49530000D02*
X190500000Y-48260000D01*
X175260000Y-51435000D02*
X175260000Y-54025000D01*
X248285000Y-65405000D02*
X248920000Y-64770000D01*
X65390000Y-55895000D02*
X66272500Y-55012500D01*
X243840000Y-60960000D02*
X243840000Y-64770000D01*
X243205000Y-60325000D02*
X243840000Y-60960000D01*
X66272500Y-55012500D02*
X66272500Y-54842500D01*
X97155000Y-55245000D02*
X97155000Y-58420000D01*
X177165000Y-49530000D02*
X175260000Y-51435000D01*
X69850000Y-58420000D02*
X66272500Y-54842500D01*
X112737500Y-54610000D02*
X97790000Y-54610000D01*
X94525500Y-58420000D02*
X69850000Y-58420000D01*
X189230000Y-49530000D02*
X192405000Y-52705000D01*
X248920000Y-64770000D02*
X248920000Y-55880000D01*
X196215000Y-60325000D02*
X243205000Y-60325000D01*
X39370000Y-55895000D02*
X65390000Y-55895000D01*
X114300000Y-43815000D02*
X112737500Y-45377500D01*
X190500000Y-44450000D02*
X189865000Y-43815000D01*
X189865000Y-43815000D02*
X114300000Y-43815000D01*
X97790000Y-54610000D02*
X97155000Y-55245000D01*
X171730000Y-57150000D02*
X175260000Y-57150000D01*
X180340000Y-55880000D02*
X165735000Y-55880000D01*
X154930000Y-53350000D02*
X154940000Y-53340000D01*
X252730000Y-66675000D02*
X252659999Y-66745001D01*
X151140000Y-53350000D02*
X154930000Y-53350000D01*
X252659999Y-66745001D02*
X180410001Y-66745001D01*
X154980000Y-53380000D02*
X154940000Y-53340000D01*
X252730000Y-56465000D02*
X252730000Y-66675000D01*
X180410001Y-66745001D02*
X180340000Y-66675000D01*
X158750000Y-53380000D02*
X154980000Y-53380000D01*
X165735000Y-55880000D02*
X163195000Y-53340000D01*
X247650000Y-52070000D02*
X245390000Y-52070000D01*
X248920000Y-53340000D02*
X252730000Y-53340000D01*
X248920000Y-53340000D02*
X247650000Y-52070000D01*
X177115000Y-67360000D02*
X176440500Y-68034500D01*
X90080500Y-67945000D02*
X23495000Y-67945000D01*
X22860000Y-67310000D02*
X22860000Y-65807500D01*
X83857500Y-53302500D02*
X83857500Y-52070000D01*
X177115000Y-62230000D02*
X177115000Y-67360000D01*
X90170000Y-68034500D02*
X90080500Y-67945000D01*
X83895000Y-53340000D02*
X83857500Y-53302500D01*
X92710000Y-53340000D02*
X83895000Y-53340000D01*
X23495000Y-67945000D02*
X22860000Y-67310000D01*
X176440500Y-68034500D02*
X90170000Y-68034500D01*
X171730000Y-62230000D02*
X173990000Y-62230000D01*
X154940000Y-61545000D02*
X157785000Y-61545000D01*
X157785000Y-61545000D02*
X158470000Y-62230000D01*
X158470000Y-62230000D02*
X158470000Y-59690000D01*
X151140000Y-55890000D02*
X154390000Y-55890000D01*
X154940000Y-58420000D02*
X154940000Y-56440000D01*
X158750000Y-55880000D02*
X155500000Y-55880000D01*
X154390000Y-55890000D02*
X154940000Y-56440000D01*
X155500000Y-55880000D02*
X154940000Y-56440000D01*
X48255000Y-46990000D02*
X48255000Y-44445000D01*
X27800000Y-47175991D02*
X27800000Y-38595000D01*
X175895000Y-66040000D02*
X114300000Y-66040000D01*
X32030000Y-40640000D02*
X31710000Y-40960000D01*
X94615000Y-66040000D02*
X91369999Y-62794999D01*
X28749009Y-48125000D02*
X27800000Y-47175991D01*
X181680001Y-62794999D02*
X178435000Y-66040000D01*
X21545000Y-36240000D02*
X16465000Y-36240000D01*
X31755000Y-43225000D02*
X31710000Y-43180000D01*
X31710000Y-43815000D02*
X31710000Y-43180000D01*
X242277500Y-62865000D02*
X242207499Y-62794999D01*
X31755000Y-47000000D02*
X31755000Y-43860000D01*
X21650000Y-36135000D02*
X21545000Y-36240000D01*
X48255000Y-44445000D02*
X46990000Y-43180000D01*
X31710000Y-40960000D02*
X31710000Y-43815000D01*
X46990000Y-43180000D02*
X31710000Y-43180000D01*
X30630000Y-48125000D02*
X28749009Y-48125000D01*
X14605000Y-65405000D02*
X18415000Y-65405000D01*
X27800000Y-38595000D02*
X25340000Y-36135000D01*
X13970000Y-38735000D02*
X13970000Y-64770000D01*
X31755000Y-47000000D02*
X30630000Y-48125000D01*
X31755000Y-43860000D02*
X31710000Y-43815000D01*
X242207499Y-62794999D02*
X181680001Y-62794999D01*
X13970000Y-64770000D02*
X14605000Y-65405000D01*
X91369999Y-62794999D02*
X50094999Y-62794999D01*
X19055000Y-64765000D02*
X19055000Y-63790000D01*
X25340000Y-36135000D02*
X21650000Y-36135000D01*
X16465000Y-36240000D02*
X13970000Y-38735000D01*
X18415000Y-65405000D02*
X19055000Y-64765000D01*
X50094999Y-62794999D02*
X48260000Y-60960000D01*
X245402500Y-62865000D02*
X245390000Y-62852500D01*
X245390000Y-62852500D02*
X245390000Y-57150000D01*
X232130000Y-57150000D02*
X232130000Y-54610000D01*
X228600000Y-56465000D02*
X231445000Y-56465000D01*
X231445000Y-56465000D02*
X232130000Y-57150000D01*
X228600000Y-53340000D02*
X228600000Y-51360000D01*
X232410000Y-50800000D02*
X229160000Y-50800000D01*
X228050000Y-50810000D02*
X228600000Y-51360000D01*
X229160000Y-50800000D02*
X228600000Y-51360000D01*
X224800000Y-50810000D02*
X228050000Y-50810000D01*
X232410000Y-48300000D02*
X232410000Y-38380000D01*
X228640000Y-48300000D02*
X232410000Y-48300000D01*
X228600000Y-48260000D02*
X228640000Y-48300000D01*
X228590000Y-48270000D02*
X228600000Y-48260000D01*
X224800000Y-48270000D02*
X228590000Y-48270000D01*
X232410000Y-38380000D02*
X233680000Y-37110000D01*
X48212500Y-35327500D02*
X49530000Y-34010000D01*
X45720000Y-35327500D02*
X48212500Y-35327500D01*
X33515000Y-34375000D02*
X42685000Y-34375000D01*
X43807500Y-33252500D02*
X42685000Y-34375000D01*
X45720000Y-33252500D02*
X43807500Y-33252500D01*
X45720000Y-33252500D02*
X45720000Y-30760000D01*
X29215000Y-47000000D02*
X29215000Y-43820000D01*
X49530000Y-37110000D02*
X30200000Y-37110000D01*
X30200000Y-37110000D02*
X28930000Y-38380000D01*
X29210000Y-40920000D02*
X28930000Y-40640000D01*
X29210000Y-43815000D02*
X29210000Y-40920000D01*
X28930000Y-38380000D02*
X28930000Y-40640000D01*
X29215000Y-43820000D02*
X29210000Y-43815000D01*
X115862500Y-54610000D02*
X119100000Y-54610000D01*
X145415000Y-45720000D02*
X143520000Y-47615000D01*
X139380000Y-50840000D02*
X139700000Y-50520000D01*
X143520000Y-50810000D02*
X139990000Y-50810000D01*
X188937500Y-45720000D02*
X145415000Y-45720000D01*
X135890000Y-50840000D02*
X139380000Y-50840000D01*
X143520000Y-47615000D02*
X143520000Y-50810000D01*
X139990000Y-50810000D02*
X139700000Y-50520000D01*
X191770000Y-46012500D02*
X192062500Y-45720000D01*
X196570000Y-49530000D02*
X191770000Y-49530000D01*
X191770000Y-49530000D02*
X191770000Y-46012500D01*
X66272500Y-46990000D02*
X66272500Y-32787500D01*
X95885000Y-48895000D02*
X95885000Y-67310000D01*
X95885000Y-67310000D02*
X80645000Y-67310000D01*
X34290000Y-66040000D02*
X35560000Y-67310000D01*
X66272500Y-32787500D02*
X67310000Y-31750000D01*
X35560000Y-67310000D02*
X80555500Y-67310000D01*
X95250000Y-48260000D02*
X95885000Y-48895000D01*
X111760000Y-67310000D02*
X112737500Y-66332500D01*
X94615000Y-31750000D02*
X95250000Y-32385000D01*
X92710000Y-48260000D02*
X95250000Y-48260000D01*
X34290000Y-64537500D02*
X34290000Y-66040000D01*
X95885000Y-67310000D02*
X111760000Y-67310000D01*
X112737500Y-66332500D02*
X112737500Y-59690000D01*
X67310000Y-31750000D02*
X94615000Y-31750000D01*
X95250000Y-32385000D02*
X95250000Y-36195000D01*
X115862500Y-59690000D02*
X119100000Y-59690000D01*
X135890000Y-57150000D02*
X135890000Y-59690000D01*
X136867500Y-58712500D02*
X135890000Y-59690000D01*
X139700000Y-58712500D02*
X136867500Y-58712500D01*
X143520000Y-53350000D02*
X139970000Y-53350000D01*
X139700000Y-53620000D02*
X139700000Y-55587500D01*
X135890000Y-53340000D02*
X139420000Y-53340000D01*
X139420000Y-53340000D02*
X139700000Y-53620000D01*
X139970000Y-53350000D02*
X139700000Y-53620000D01*
X175260000Y-64770000D02*
X174625000Y-65405000D01*
X53335000Y-20315000D02*
X52070000Y-19050000D01*
X174625000Y-65405000D02*
X114935000Y-65405000D01*
X15310000Y-62590000D02*
X15310000Y-53835000D01*
X16230000Y-40640000D02*
X16530000Y-40940000D01*
X16530000Y-40940000D02*
X16530000Y-43815000D01*
X176530000Y-59690000D02*
X175260000Y-60960000D01*
X180340000Y-59690000D02*
X176530000Y-59690000D01*
X92075000Y-61595000D02*
X53340000Y-61595000D01*
X53335000Y-46990000D02*
X53335000Y-20315000D01*
X15255000Y-53780000D02*
X15255000Y-48260000D01*
X15310000Y-53835000D02*
X15255000Y-53780000D01*
X52070000Y-19050000D02*
X14605000Y-19050000D01*
X94615000Y-64135000D02*
X92075000Y-61595000D01*
X14605000Y-19050000D02*
X13970000Y-19685000D01*
X16230000Y-40640000D02*
X16550000Y-40960000D01*
X190500000Y-54610000D02*
X185420000Y-54610000D01*
X16510000Y-63790000D02*
X15310000Y-62590000D01*
X15255000Y-48260000D02*
X16515000Y-47000000D01*
X114935000Y-65405000D02*
X114300000Y-64770000D01*
X175260000Y-60960000D02*
X175260000Y-64770000D01*
X180975000Y-59055000D02*
X180340000Y-59690000D01*
X185420000Y-54610000D02*
X180975000Y-59055000D01*
X13970000Y-19685000D02*
X13970000Y-36830000D01*
X16515000Y-47000000D02*
X16515000Y-43830000D01*
X16515000Y-43830000D02*
X16530000Y-43815000D01*
X193625000Y-54610000D02*
X196570000Y-54610000D01*
X210807500Y-53632500D02*
X209830000Y-54610000D01*
X213360000Y-53632500D02*
X210807500Y-53632500D01*
X209830000Y-52070000D02*
X209830000Y-54610000D01*
X209550000Y-48260000D02*
X213080000Y-48260000D01*
X213080000Y-48260000D02*
X213360000Y-48540000D01*
X213360000Y-50507500D02*
X213360000Y-48540000D01*
X213630000Y-48270000D02*
X213360000Y-48540000D01*
X217180000Y-48270000D02*
X213630000Y-48270000D01*
X217180000Y-45730000D02*
X213650000Y-45730000D01*
X209550000Y-45760000D02*
X209550000Y-38380000D01*
X213040000Y-45760000D02*
X209550000Y-45760000D01*
X213650000Y-45730000D02*
X213360000Y-45440000D01*
X209550000Y-38380000D02*
X208280000Y-37110000D01*
X213360000Y-45440000D02*
X213040000Y-45760000D01*
X22812500Y-35327500D02*
X24130000Y-34010000D01*
X20320000Y-35327500D02*
X22812500Y-35327500D01*
X18407500Y-33252500D02*
X20320000Y-33252500D01*
X20320000Y-33252500D02*
X20320000Y-30760000D01*
X17285000Y-34375000D02*
X18407500Y-33252500D01*
X22860000Y-40640000D02*
X24130000Y-39370000D01*
X19330000Y-40640000D02*
X22860000Y-40640000D01*
X19030000Y-43815000D02*
X19030000Y-46975000D01*
X19030000Y-46975000D02*
X19055000Y-47000000D01*
X24130000Y-39370000D02*
X24130000Y-37110000D01*
X19030000Y-40940000D02*
X19030000Y-43815000D01*
X19330000Y-40640000D02*
X19030000Y-40940000D01*
X78920000Y-52070000D02*
X81782500Y-52070000D01*
X78920000Y-52070000D02*
X77370000Y-53620000D01*
X77370000Y-53620000D02*
X76200000Y-53620000D01*
X72850000Y-45440000D02*
X73660000Y-45440000D01*
X71300000Y-46990000D02*
X72850000Y-45440000D01*
X68347500Y-46990000D02*
X71300000Y-46990000D01*
X94615000Y-60325000D02*
X95250000Y-59690000D01*
X33655000Y-63500000D02*
X38735000Y-63500000D01*
X95250000Y-51435000D02*
X94615000Y-50800000D01*
X84776827Y-50800000D02*
X92710000Y-50800000D01*
X67945000Y-60325000D02*
X94615000Y-60325000D01*
X25400000Y-65807500D02*
X31347500Y-65807500D01*
X83857500Y-49880673D02*
X84776827Y-50800000D01*
X31347500Y-65807500D02*
X33655000Y-63500000D01*
X39370000Y-58435000D02*
X66055000Y-58435000D01*
X38735000Y-63500000D02*
X39370000Y-62865000D01*
X83857500Y-46990000D02*
X83857500Y-49880673D01*
X94615000Y-50800000D02*
X92710000Y-50800000D01*
X95250000Y-59690000D02*
X95250000Y-51435000D01*
X66055000Y-58435000D02*
X67945000Y-60325000D01*
X39370000Y-62865000D02*
X39370000Y-58435000D01*
X78920000Y-46990000D02*
X81782500Y-46990000D01*
X78920000Y-46990000D02*
X77370000Y-45440000D01*
X77370000Y-45440000D02*
X76200000Y-45440000D01*
X72850000Y-53620000D02*
X73660000Y-53620000D01*
X68347500Y-52070000D02*
X71300000Y-52070000D01*
X71300000Y-52070000D02*
X72850000Y-53620000D01*
X22860000Y-61240000D02*
X22860000Y-63732500D01*
X25400000Y-63732500D02*
X25400000Y-61240000D01*
X29215000Y-56595000D02*
X28650000Y-57160000D01*
X29215000Y-57725000D02*
X28650000Y-57160000D01*
X25400000Y-58140000D02*
X27670000Y-58140000D01*
X22860000Y-58140000D02*
X25400000Y-58140000D01*
X28930000Y-62230000D02*
X29215000Y-61945000D01*
X29215000Y-59700000D02*
X29215000Y-57725000D01*
X29215000Y-61945000D02*
X29215000Y-59700000D01*
X27670000Y-58140000D02*
X28650000Y-57160000D01*
X29215000Y-54620000D02*
X29215000Y-56595000D01*
X31715000Y-59700000D02*
X31715000Y-57195000D01*
X38105000Y-54620000D02*
X39370000Y-53355000D01*
X31715000Y-57195000D02*
X31750000Y-57160000D01*
X31755000Y-54620000D02*
X31755000Y-57155000D01*
X31755000Y-54620000D02*
X38105000Y-54620000D01*
X31755000Y-57155000D02*
X31750000Y-57160000D01*
X34057500Y-62230000D02*
X34290000Y-62462500D01*
X32030000Y-62230000D02*
X34057500Y-62230000D01*
D29*
X250825000Y-31115000D02*
X250825000Y-36195000D01*
X224800000Y-32375000D02*
X226060000Y-31115000D01*
X224800000Y-45730000D02*
X224800000Y-32375000D01*
X151140000Y-47000000D02*
X151130000Y-46990000D01*
X71300000Y-49097183D02*
X74007183Y-46390000D01*
X251460000Y-37465000D02*
X251460000Y-36830000D01*
X24765000Y-32385000D02*
X24765000Y-19774500D01*
X221575000Y-45730000D02*
X224800000Y-45730000D01*
X68872500Y-49530000D02*
X71300000Y-49530000D01*
X250825000Y-14605000D02*
X250825000Y-31115000D01*
X147320000Y-50507500D02*
X147622500Y-50810000D01*
X26377500Y-49242500D02*
X26377500Y-49540000D01*
X77470000Y-27940000D02*
X77470000Y-13970000D01*
X250825000Y-36195000D02*
X251460000Y-36830000D01*
X74894999Y-46390000D02*
X74930000Y-46354999D01*
X24135000Y-47000000D02*
X26377500Y-49242500D01*
X226060000Y-31115000D02*
X250825000Y-31115000D01*
X74930000Y-30480000D02*
X77470000Y-27940000D01*
X151130000Y-40640000D02*
X151130000Y-13970000D01*
X74007183Y-46390000D02*
X74894999Y-46390000D01*
X24135000Y-47000000D02*
X24765000Y-46370000D01*
X251460000Y-36830000D02*
X251740000Y-37110000D01*
X251740000Y-37110000D02*
X254000000Y-37110000D01*
X220980000Y-45135000D02*
X221575000Y-45730000D01*
X147622500Y-50810000D02*
X151140000Y-50810000D01*
X254000000Y-39090000D02*
X254000000Y-37110000D01*
X151140000Y-50810000D02*
X151140000Y-47000000D01*
X24765000Y-46370000D02*
X24765000Y-42545000D01*
X74930000Y-46354999D02*
X74930000Y-39370000D01*
X71300000Y-49530000D02*
X71300000Y-49097183D01*
X143520000Y-58430000D02*
X142420000Y-57330000D01*
X145415000Y-48260000D02*
X146685000Y-46990000D01*
X217965000Y-49370000D02*
X218440000Y-48895000D01*
X143520000Y-58430000D02*
X145767500Y-58430000D01*
X143404365Y-54450000D02*
X144305000Y-54450000D01*
X22860000Y-53345000D02*
X24135000Y-54620000D01*
X145415000Y-53340000D02*
X145415000Y-48260000D01*
X262255000Y-33935000D02*
X262255000Y-16510000D01*
X259080000Y-37110000D02*
X259360000Y-36830000D01*
X78920000Y-49530000D02*
X82257500Y-49530000D01*
X76200000Y-30480000D02*
X78105000Y-28575000D01*
X259080000Y-40005000D02*
X259080000Y-39090000D01*
X144305000Y-54450000D02*
X145415000Y-53340000D01*
X259080000Y-13335000D02*
X250190000Y-13335000D01*
X262255000Y-16510000D02*
X261620000Y-15875000D01*
X142420000Y-57330000D02*
X142420000Y-55434365D01*
X217064365Y-49370000D02*
X217965000Y-49370000D01*
X259080000Y-37110000D02*
X259080000Y-39090000D01*
X217180000Y-53350000D02*
X220405000Y-53350000D01*
X220405000Y-53350000D02*
X220980000Y-53925000D01*
X142420000Y-55434365D02*
X143404365Y-54450000D01*
X149860000Y-40640000D02*
X149860000Y-15240000D01*
X216080000Y-50354365D02*
X217064365Y-49370000D01*
X218440000Y-48895000D02*
X218440000Y-15240000D01*
X250190000Y-13335000D02*
X248285000Y-15240000D01*
X22860000Y-52362500D02*
X22860000Y-53345000D01*
X146685000Y-46990000D02*
X149860000Y-46990000D01*
X26670000Y-19774500D02*
X26670000Y-34925000D01*
X217180000Y-53350000D02*
X216080000Y-52250000D01*
X261620000Y-15875000D02*
X259080000Y-13335000D01*
X78105000Y-28575000D02*
X78105000Y-15304500D01*
X145767500Y-58430000D02*
X146050000Y-58712500D01*
X216080000Y-52250000D02*
X216080000Y-50354365D01*
X259360000Y-36830000D02*
X262255000Y-33935000D01*
X78105000Y-15304500D02*
X78169500Y-15240000D01*
D28*
X233680000Y-24410000D02*
X233680000Y-24990000D01*
X233680000Y-24990000D02*
X230645000Y-28025000D01*
X230645000Y-34375000D02*
X233315000Y-34375000D01*
X233315000Y-34375000D02*
X233680000Y-34010000D01*
X16550000Y-54655000D02*
X16515000Y-54620000D01*
X16230000Y-52070000D02*
X20320000Y-47980000D01*
X20320000Y-47980000D02*
X20320000Y-45085000D01*
X16550000Y-57785000D02*
X16550000Y-54655000D01*
X16515000Y-52355000D02*
X16230000Y-52070000D01*
X20320000Y-45085000D02*
X26670000Y-38735000D01*
X16515000Y-54620000D02*
X16515000Y-52355000D01*
X30480000Y-38735000D02*
X49530000Y-38735000D01*
X49530000Y-38735000D02*
X50795000Y-40000000D01*
X50795000Y-40000000D02*
X50795000Y-46990000D01*
X16555000Y-54660000D02*
X16515000Y-54620000D01*
X163180000Y-57165000D02*
X161570000Y-58775000D01*
X168615000Y-57165000D02*
X165100000Y-57165000D01*
X168630000Y-57150000D02*
X168615000Y-57165000D01*
X165100000Y-57165000D02*
X163180000Y-57165000D01*
X161570000Y-58775000D02*
X161570000Y-59690000D01*
X161585000Y-62245000D02*
X161570000Y-62230000D01*
X165100000Y-62245000D02*
X168615000Y-62245000D01*
X168615000Y-62245000D02*
X168630000Y-62230000D01*
X165100000Y-62245000D02*
X161585000Y-62245000D01*
X242290000Y-52070000D02*
X238760000Y-52070000D01*
X238760000Y-52070000D02*
X237490000Y-52070000D01*
X235230000Y-54330000D02*
X235230000Y-54610000D01*
X237490000Y-52070000D02*
X235230000Y-54330000D01*
X238760000Y-57150000D02*
X242290000Y-57150000D01*
X235230000Y-57150000D02*
X238760000Y-57150000D01*
X205245000Y-28025000D02*
X208280000Y-24990000D01*
X208280000Y-24990000D02*
X208280000Y-24690000D01*
X207915000Y-34375000D02*
X208280000Y-34010000D01*
X205245000Y-34375000D02*
X207915000Y-34375000D01*
X130250000Y-54610000D02*
X132790000Y-57150000D01*
X127000000Y-54610000D02*
X130250000Y-54610000D01*
X122200000Y-54610000D02*
X127000000Y-54610000D01*
X127000000Y-59690000D02*
X132790000Y-59690000D01*
X122200000Y-59690000D02*
X127000000Y-59690000D01*
X205740000Y-49530000D02*
X206730000Y-50520000D01*
X203200000Y-49530000D02*
X205740000Y-49530000D01*
X203200000Y-49530000D02*
X199670000Y-49530000D01*
X206730000Y-50520000D02*
X206730000Y-52070000D01*
X203200000Y-54610000D02*
X199670000Y-54610000D01*
X203200000Y-54610000D02*
X206730000Y-54610000D01*
X167505000Y-28025000D02*
X167640000Y-27890000D01*
X164605000Y-28025000D02*
X167505000Y-28025000D01*
X165100000Y-39090000D02*
X164605000Y-38595000D01*
X164605000Y-38595000D02*
X164605000Y-34375000D01*
X116755000Y-28025000D02*
X116840000Y-27940000D01*
X113805000Y-28025000D02*
X116755000Y-28025000D01*
X84380000Y-38100000D02*
X112395000Y-38100000D01*
X112395000Y-38100000D02*
X113805000Y-36690000D01*
X113805000Y-36690000D02*
X113805000Y-34375000D01*
X139205000Y-28025000D02*
X142155000Y-28025000D01*
X142155000Y-28025000D02*
X142240000Y-27940000D01*
X139700000Y-34870000D02*
X139205000Y-34375000D01*
X139700000Y-36550000D02*
X139700000Y-34870000D01*
X88405000Y-28025000D02*
X91355000Y-28025000D01*
X91355000Y-28025000D02*
X91440000Y-27940000D01*
X84380000Y-34290000D02*
X84465000Y-34375000D01*
X84465000Y-34375000D02*
X88405000Y-34375000D01*
X254000000Y-22860000D02*
X254000000Y-30480000D01*
X254000000Y-34010000D02*
X254000000Y-30480000D01*
X259080000Y-22860000D02*
X259080000Y-30480000D01*
X259080000Y-34010000D02*
X259080000Y-30480000D01*
X83245000Y-48175000D02*
X82695000Y-47625000D01*
X78920000Y-57150000D02*
X78920000Y-54610000D01*
X80868173Y-54610000D02*
X82945000Y-52533173D01*
X83245000Y-50740000D02*
X83245000Y-48175000D01*
X82945000Y-51040000D02*
X83245000Y-50740000D01*
X83185000Y-41910000D02*
X164820000Y-41910000D01*
X82695000Y-42400000D02*
X83185000Y-41910000D01*
X164820000Y-41910000D02*
X165100000Y-42190000D01*
X82695000Y-47625000D02*
X82695000Y-42400000D01*
X78920000Y-54610000D02*
X80868173Y-54610000D01*
X82945000Y-52533173D02*
X82945000Y-51040000D01*
X72390000Y-38100000D02*
X71300000Y-39190000D01*
X81280000Y-38100000D02*
X72390000Y-38100000D01*
X71300000Y-39190000D02*
X71300000Y-41910000D01*
X71300000Y-44450000D02*
X71300000Y-41910000D01*
X78920000Y-41910000D02*
X80190000Y-40640000D01*
X80190000Y-40640000D02*
X138710000Y-40640000D01*
X138710000Y-40640000D02*
X139700000Y-39650000D01*
X78920000Y-44450000D02*
X78920000Y-41910000D01*
X71300000Y-54610000D02*
X71300000Y-57150000D01*
X69215000Y-34290000D02*
X81280000Y-34290000D01*
X69261827Y-54610000D02*
X67435000Y-52783173D01*
X67435000Y-52783173D02*
X67435000Y-36070000D01*
X67435000Y-36070000D02*
X69215000Y-34290000D01*
X71300000Y-54610000D02*
X69261827Y-54610000D01*
X19055000Y-60690000D02*
X16510000Y-60690000D01*
X19050000Y-60685000D02*
X19050000Y-57785000D01*
X19055000Y-54620000D02*
X19055000Y-52345000D01*
X19050000Y-54625000D02*
X19055000Y-54620000D01*
X19050000Y-57785000D02*
X19050000Y-54625000D01*
X19055000Y-52345000D02*
X19330000Y-52070000D01*
X19055000Y-60690000D02*
X19050000Y-60685000D01*
M02*
