%TF.GenerationSoftware,KiCad,Pcbnew,(6.0.10)*%
%TF.CreationDate,2023-04-08T13:31:08+03:00*%
%TF.ProjectId,DelSol_Preamp,44656c53-6f6c-45f5-9072-65616d702e6b,rev?*%
%TF.SameCoordinates,Original*%
%TF.FileFunction,Copper,L2,Bot*%
%TF.FilePolarity,Positive*%
%FSLAX46Y46*%
G04 Gerber Fmt 4.6, Leading zero omitted, Abs format (unit mm)*
G04 Created by KiCad (PCBNEW (6.0.10)) date 2023-04-08 13:31:08*
%MOMM*%
%LPD*%
G01*
G04 APERTURE LIST*
G04 Aperture macros list*
%AMRoundRect*
0 Rectangle with rounded corners*
0 $1 Rounding radius*
0 $2 $3 $4 $5 $6 $7 $8 $9 X,Y pos of 4 corners*
0 Add a 4 corners polygon primitive as box body*
4,1,4,$2,$3,$4,$5,$6,$7,$8,$9,$2,$3,0*
0 Add four circle primitives for the rounded corners*
1,1,$1+$1,$2,$3*
1,1,$1+$1,$4,$5*
1,1,$1+$1,$6,$7*
1,1,$1+$1,$8,$9*
0 Add four rect primitives between the rounded corners*
20,1,$1+$1,$2,$3,$4,$5,0*
20,1,$1+$1,$4,$5,$6,$7,0*
20,1,$1+$1,$6,$7,$8,$9,0*
20,1,$1+$1,$8,$9,$2,$3,0*%
G04 Aperture macros list end*
%TA.AperFunction,ComponentPad*%
%ADD10R,1.560000X1.560000*%
%TD*%
%TA.AperFunction,ComponentPad*%
%ADD11C,1.560000*%
%TD*%
%TA.AperFunction,ComponentPad*%
%ADD12R,1.600000X1.600000*%
%TD*%
%TA.AperFunction,ComponentPad*%
%ADD13O,1.600000X1.600000*%
%TD*%
%TA.AperFunction,ComponentPad*%
%ADD14R,1.700000X1.700000*%
%TD*%
%TA.AperFunction,ComponentPad*%
%ADD15O,1.700000X1.700000*%
%TD*%
%TA.AperFunction,ComponentPad*%
%ADD16C,1.600000*%
%TD*%
%TA.AperFunction,SMDPad,CuDef*%
%ADD17RoundRect,0.250000X-0.625000X0.400000X-0.625000X-0.400000X0.625000X-0.400000X0.625000X0.400000X0*%
%TD*%
%TA.AperFunction,SMDPad,CuDef*%
%ADD18RoundRect,0.250000X-0.650000X0.412500X-0.650000X-0.412500X0.650000X-0.412500X0.650000X0.412500X0*%
%TD*%
%TA.AperFunction,SMDPad,CuDef*%
%ADD19RoundRect,0.250000X0.475000X-0.337500X0.475000X0.337500X-0.475000X0.337500X-0.475000X-0.337500X0*%
%TD*%
%TA.AperFunction,SMDPad,CuDef*%
%ADD20RoundRect,0.250000X-0.337500X-0.475000X0.337500X-0.475000X0.337500X0.475000X-0.337500X0.475000X0*%
%TD*%
%TA.AperFunction,SMDPad,CuDef*%
%ADD21RoundRect,0.250000X-0.400000X-0.625000X0.400000X-0.625000X0.400000X0.625000X-0.400000X0.625000X0*%
%TD*%
%TA.AperFunction,SMDPad,CuDef*%
%ADD22RoundRect,0.250000X0.337500X0.475000X-0.337500X0.475000X-0.337500X-0.475000X0.337500X-0.475000X0*%
%TD*%
%TA.AperFunction,SMDPad,CuDef*%
%ADD23RoundRect,0.250000X-0.475000X0.337500X-0.475000X-0.337500X0.475000X-0.337500X0.475000X0.337500X0*%
%TD*%
%TA.AperFunction,SMDPad,CuDef*%
%ADD24RoundRect,0.250000X0.625000X-0.400000X0.625000X0.400000X-0.625000X0.400000X-0.625000X-0.400000X0*%
%TD*%
%TA.AperFunction,SMDPad,CuDef*%
%ADD25RoundRect,0.250000X0.650000X-0.412500X0.650000X0.412500X-0.650000X0.412500X-0.650000X-0.412500X0*%
%TD*%
%TA.AperFunction,SMDPad,CuDef*%
%ADD26RoundRect,0.250000X0.400000X0.625000X-0.400000X0.625000X-0.400000X-0.625000X0.400000X-0.625000X0*%
%TD*%
%TA.AperFunction,SMDPad,CuDef*%
%ADD27RoundRect,0.250000X-0.412500X-0.650000X0.412500X-0.650000X0.412500X0.650000X-0.412500X0.650000X0*%
%TD*%
%TA.AperFunction,ViaPad*%
%ADD28C,0.800000*%
%TD*%
%TA.AperFunction,Conductor*%
%ADD29C,0.400000*%
%TD*%
%TA.AperFunction,Conductor*%
%ADD30C,1.000000*%
%TD*%
G04 APERTURE END LIST*
D10*
X137120000Y-41610000D03*
D11*
X134620000Y-36610000D03*
X132120000Y-41610000D03*
D12*
X138440000Y-23650000D03*
D13*
X138440000Y-26190000D03*
X138440000Y-28730000D03*
X138440000Y-31270000D03*
X146060000Y-31270000D03*
X146060000Y-28730000D03*
X146060000Y-26190000D03*
X146060000Y-23650000D03*
D14*
X87630000Y-20320000D03*
D15*
X85090000Y-20320000D03*
X82550000Y-20320000D03*
X80010000Y-20320000D03*
X77470000Y-20320000D03*
X74930000Y-20320000D03*
D14*
X54610000Y-30485000D03*
D15*
X54610000Y-33025000D03*
X54610000Y-35565000D03*
X54610000Y-38105000D03*
X54610000Y-40645000D03*
D16*
X101600000Y-37770000D03*
X99100000Y-37770000D03*
D12*
X73035000Y-36840000D03*
D13*
X73035000Y-39380000D03*
X73035000Y-41920000D03*
X73035000Y-44460000D03*
X80655000Y-44460000D03*
X80655000Y-41920000D03*
X80655000Y-39380000D03*
X80655000Y-36840000D03*
D14*
X146050000Y-48260000D03*
D15*
X148590000Y-48260000D03*
X151130000Y-48260000D03*
D10*
X82510000Y-31450000D03*
D11*
X80010000Y-26450000D03*
X77510000Y-31450000D03*
D10*
X69810000Y-31450000D03*
D11*
X67310000Y-26450000D03*
X64810000Y-31450000D03*
D16*
X67330000Y-36830000D03*
X69830000Y-36830000D03*
D14*
X102870000Y-27610000D03*
D15*
X102870000Y-25070000D03*
X102870000Y-22530000D03*
D10*
X92670000Y-31420000D03*
D11*
X90170000Y-26420000D03*
X87670000Y-31420000D03*
D16*
X115570000Y-28880000D03*
X115570000Y-26380000D03*
D14*
X151130000Y-26180000D03*
D15*
X151130000Y-28720000D03*
X151130000Y-31260000D03*
D16*
X67330000Y-45085000D03*
X69830000Y-45085000D03*
D14*
X146065000Y-53340000D03*
D15*
X148605000Y-53340000D03*
X151145000Y-53340000D03*
D14*
X111760000Y-27610000D03*
D15*
X111760000Y-25070000D03*
X111760000Y-22530000D03*
D12*
X113020000Y-49205000D03*
D13*
X113020000Y-46665000D03*
X113020000Y-44125000D03*
X113020000Y-41585000D03*
X113020000Y-39045000D03*
X113020000Y-36505000D03*
X113020000Y-33965000D03*
X105400000Y-33965000D03*
X105400000Y-36505000D03*
X105400000Y-39045000D03*
X105400000Y-41585000D03*
X105400000Y-44125000D03*
X105400000Y-46665000D03*
X105400000Y-49205000D03*
D14*
X120650000Y-27610000D03*
D15*
X120650000Y-25070000D03*
X120650000Y-22530000D03*
D17*
X124460000Y-19710000D03*
X124460000Y-22810000D03*
D18*
X138430000Y-50507500D03*
X138430000Y-53632500D03*
D19*
X110490000Y-49200000D03*
X110490000Y-47125000D03*
D20*
X99525000Y-42205000D03*
X101600000Y-42205000D03*
X116035000Y-46640000D03*
X118110000Y-46640000D03*
D21*
X139420000Y-35070000D03*
X142520000Y-35070000D03*
D19*
X124480000Y-28917500D03*
X124480000Y-26842500D03*
X134620000Y-24677500D03*
X134620000Y-22602500D03*
D17*
X117310000Y-40030000D03*
X117310000Y-43130000D03*
X123190000Y-35000000D03*
X123190000Y-38100000D03*
D22*
X143277500Y-28720000D03*
X141202500Y-28720000D03*
D21*
X98780000Y-49200000D03*
X101880000Y-49200000D03*
D23*
X130810000Y-22602500D03*
X130810000Y-24677500D03*
D21*
X67030000Y-41910000D03*
X70130000Y-41910000D03*
D23*
X78105000Y-42777500D03*
X78105000Y-44852500D03*
D17*
X115570000Y-19710000D03*
X115570000Y-22810000D03*
D24*
X134620000Y-30270000D03*
X134620000Y-27170000D03*
D21*
X60680000Y-45720000D03*
X63780000Y-45720000D03*
D18*
X110490000Y-41287500D03*
X110490000Y-44412500D03*
D22*
X114067500Y-53010000D03*
X111992500Y-53010000D03*
D19*
X73025000Y-27707500D03*
X73025000Y-25632500D03*
D21*
X105130000Y-53010000D03*
X108230000Y-53010000D03*
D24*
X86995000Y-42190000D03*
X86995000Y-39090000D03*
D19*
X60960000Y-30247500D03*
X60960000Y-28172500D03*
D23*
X107950000Y-46892500D03*
X107950000Y-48967500D03*
D19*
X99060000Y-29216252D03*
X99060000Y-27141252D03*
D18*
X75565000Y-41617500D03*
X75565000Y-44742500D03*
D17*
X110490000Y-34950000D03*
X110490000Y-38050000D03*
D18*
X156210000Y-44157500D03*
X156210000Y-47282500D03*
X123660000Y-41617500D03*
X123660000Y-44742500D03*
D24*
X83820000Y-42190000D03*
X83820000Y-39090000D03*
D21*
X116560000Y-33960000D03*
X119660000Y-33960000D03*
D20*
X84052500Y-45085000D03*
X86127500Y-45085000D03*
D21*
X98780000Y-44925000D03*
X101880000Y-44925000D03*
D17*
X107950000Y-34950000D03*
X107950000Y-38050000D03*
D25*
X107950000Y-44412500D03*
X107950000Y-41287500D03*
D21*
X152120000Y-50800000D03*
X155220000Y-50800000D03*
D17*
X106680000Y-19710000D03*
X106680000Y-22810000D03*
X130810000Y-27170000D03*
X130810000Y-30270000D03*
D21*
X116560000Y-49200000D03*
X119660000Y-49200000D03*
X60680000Y-41910000D03*
X63780000Y-41910000D03*
D18*
X143510000Y-23347500D03*
X143510000Y-26472500D03*
D25*
X140970000Y-26472500D03*
X140970000Y-23347500D03*
D26*
X145060000Y-50800000D03*
X141960000Y-50800000D03*
X133910000Y-19830000D03*
X130810000Y-19830000D03*
D18*
X78105000Y-37172500D03*
X78105000Y-40297500D03*
D24*
X120650000Y-44780000D03*
X120650000Y-41680000D03*
D26*
X101880000Y-33960000D03*
X98780000Y-33960000D03*
D27*
X148297500Y-37610000D03*
X151422500Y-37610000D03*
D22*
X118886248Y-36500000D03*
X116811248Y-36500000D03*
D24*
X60960000Y-36475000D03*
X60960000Y-33375000D03*
X73025000Y-33300000D03*
X73025000Y-30200000D03*
D28*
X107950000Y-43180000D03*
X121920000Y-48260000D03*
X82550000Y-54610000D03*
X120650000Y-43180000D03*
X140335000Y-50800000D03*
X141605000Y-29845000D03*
X158750000Y-46355000D03*
X140970000Y-24765000D03*
X123190000Y-33655000D03*
X146342500Y-37807500D03*
X95885000Y-43180000D03*
X95885000Y-46990000D03*
X118745000Y-38100000D03*
X123190000Y-40005000D03*
D29*
X70140000Y-41920000D02*
X70130000Y-41910000D01*
X73035000Y-41920000D02*
X70140000Y-41920000D01*
X70130000Y-41910000D02*
X70130000Y-42285000D01*
X70130000Y-42285000D02*
X67330000Y-45085000D01*
X76945000Y-41617500D02*
X78105000Y-42777500D01*
X110490000Y-47125000D02*
X110490000Y-44412500D01*
X151130000Y-26180000D02*
X152400000Y-27450000D01*
X78507500Y-43180000D02*
X82550000Y-43180000D01*
D30*
X138430000Y-53632500D02*
X139687500Y-54890000D01*
D29*
X152400000Y-29990000D02*
X151130000Y-31260000D01*
D30*
X148605000Y-48275000D02*
X148590000Y-48260000D01*
X148590000Y-46355000D02*
X148590000Y-48260000D01*
D29*
X74062500Y-43120000D02*
X75565000Y-41617500D01*
X53340000Y-31755000D02*
X54610000Y-30485000D01*
D30*
X148605000Y-53960000D02*
X148605000Y-53340000D01*
D29*
X140072500Y-22450000D02*
X140970000Y-23347500D01*
X145012500Y-24850000D02*
X149800000Y-24850000D01*
X78105000Y-42777500D02*
X78507500Y-43180000D01*
X76500000Y-38400000D02*
X76500000Y-31450000D01*
D30*
X147675000Y-54890000D02*
X148605000Y-53960000D01*
D29*
X134620000Y-22602500D02*
X134772500Y-22450000D01*
X69830000Y-45085000D02*
X71795000Y-43120000D01*
X82550000Y-43180000D02*
X84052500Y-44682500D01*
X86070000Y-33020000D02*
X87670000Y-31420000D01*
X151130000Y-37317500D02*
X151130000Y-31260000D01*
X71795000Y-43120000D02*
X74062500Y-43120000D01*
X55885000Y-29210000D02*
X54610000Y-30485000D01*
X62570000Y-29210000D02*
X55885000Y-29210000D01*
X134620000Y-22602500D02*
X134620000Y-20540000D01*
X87670000Y-31420000D02*
X91350000Y-27740000D01*
X149800000Y-24850000D02*
X151130000Y-26180000D01*
X72170000Y-31450000D02*
X76500000Y-31450000D01*
X91350000Y-21500000D02*
X90170000Y-20320000D01*
X152400000Y-27450000D02*
X152400000Y-29990000D01*
X107950000Y-44412500D02*
X107950000Y-43180000D01*
X54610000Y-40645000D02*
X53340000Y-39375000D01*
X70990000Y-32630000D02*
X72170000Y-31450000D01*
X64810000Y-31450000D02*
X62570000Y-29210000D01*
X143510000Y-23347500D02*
X145012500Y-24850000D01*
X53340000Y-39375000D02*
X53340000Y-31755000D01*
X90170000Y-20320000D02*
X87630000Y-20320000D01*
X123660000Y-46520000D02*
X121920000Y-48260000D01*
X134620000Y-20540000D02*
X133910000Y-19830000D01*
X134772500Y-22450000D02*
X140072500Y-22450000D01*
X140970000Y-23347500D02*
X143510000Y-23347500D01*
X79080000Y-33020000D02*
X86070000Y-33020000D01*
X78105000Y-40005000D02*
X76500000Y-38400000D01*
X84052500Y-44682500D02*
X84052500Y-45085000D01*
X78105000Y-40297500D02*
X78105000Y-42777500D01*
D30*
X148605000Y-53340000D02*
X148605000Y-48275000D01*
X156210000Y-44157500D02*
X150787500Y-44157500D01*
D29*
X65990000Y-32630000D02*
X70990000Y-32630000D01*
D30*
X150787500Y-44157500D02*
X148590000Y-46355000D01*
X139687500Y-54890000D02*
X147675000Y-54890000D01*
D29*
X107950000Y-44412500D02*
X110490000Y-44412500D01*
X64810000Y-31450000D02*
X65990000Y-32630000D01*
X151422500Y-37610000D02*
X151130000Y-37317500D01*
X91350000Y-27740000D02*
X91350000Y-21500000D01*
X123660000Y-44742500D02*
X123660000Y-46520000D01*
X77510000Y-31450000D02*
X79080000Y-33020000D01*
X75565000Y-41617500D02*
X76945000Y-41617500D01*
X76500000Y-31450000D02*
X77510000Y-31450000D01*
X78105000Y-40297500D02*
X78105000Y-40005000D01*
X73025000Y-30200000D02*
X73025000Y-27707500D01*
X73025000Y-25632500D02*
X76692500Y-25632500D01*
X76692500Y-25632500D02*
X82510000Y-31450000D01*
X82825000Y-54885000D02*
X82550000Y-54610000D01*
X137120000Y-41610000D02*
X137120000Y-49197500D01*
X138430000Y-50507500D02*
X138430000Y-50800000D01*
X134345000Y-54885000D02*
X82825000Y-54885000D01*
D30*
X141960000Y-50800000D02*
X140335000Y-50800000D01*
D29*
X140042500Y-50507500D02*
X140335000Y-50800000D01*
X137120000Y-49197500D02*
X138430000Y-50507500D01*
X113020000Y-41585000D02*
X117785000Y-41585000D01*
X120650000Y-43180000D02*
X120650000Y-44780000D01*
X120650000Y-44450000D02*
X120650000Y-44780000D01*
X143792500Y-26190000D02*
X143510000Y-26472500D01*
X117785000Y-41585000D02*
X120650000Y-44450000D01*
X78437500Y-36840000D02*
X78105000Y-37172500D01*
X146060000Y-26190000D02*
X143792500Y-26190000D01*
X113020000Y-41585000D02*
X110787500Y-41585000D01*
X138430000Y-50507500D02*
X140042500Y-50507500D01*
X138430000Y-50800000D02*
X134345000Y-54885000D01*
X110787500Y-41585000D02*
X110490000Y-41287500D01*
X80655000Y-36840000D02*
X78437500Y-36840000D01*
X67330000Y-41610000D02*
X67030000Y-41910000D01*
X67330000Y-36830000D02*
X67330000Y-41610000D01*
X67030000Y-41910000D02*
X63780000Y-41910000D01*
X73035000Y-36840000D02*
X73035000Y-33310000D01*
X73035000Y-33310000D02*
X73025000Y-33300000D01*
X69830000Y-36830000D02*
X73025000Y-36830000D01*
X73035000Y-39380000D02*
X73035000Y-36840000D01*
X73025000Y-36830000D02*
X73035000Y-36840000D01*
X60960000Y-33375000D02*
X60960000Y-30247500D01*
X68812500Y-28172500D02*
X69810000Y-29170000D01*
X60960000Y-28172500D02*
X68812500Y-28172500D01*
X69810000Y-29170000D02*
X69810000Y-31450000D01*
X143277500Y-34312500D02*
X142520000Y-35070000D01*
X143277500Y-28720000D02*
X143277500Y-34312500D01*
X146060000Y-28730000D02*
X143287500Y-28730000D01*
X143287500Y-28730000D02*
X143277500Y-28720000D01*
X146070000Y-28720000D02*
X146060000Y-28730000D01*
X151130000Y-28720000D02*
X146070000Y-28720000D01*
X141605000Y-29122500D02*
X141202500Y-28720000D01*
X141605000Y-29845000D02*
X141605000Y-29122500D01*
X138440000Y-26190000D02*
X135600000Y-26190000D01*
X135600000Y-26190000D02*
X134620000Y-27170000D01*
X86750000Y-18660000D02*
X129640000Y-18660000D01*
X85090000Y-20320000D02*
X86750000Y-18660000D01*
X130810000Y-22602500D02*
X130810000Y-19830000D01*
X129640000Y-18660000D02*
X130810000Y-19830000D01*
X130810000Y-24677500D02*
X130810000Y-27170000D01*
X133345000Y-25952500D02*
X133345000Y-28995000D01*
X133345000Y-28995000D02*
X134620000Y-30270000D01*
X137940000Y-35070000D02*
X134620000Y-31750000D01*
X134620000Y-31750000D02*
X134620000Y-30270000D01*
X139420000Y-35070000D02*
X137940000Y-35070000D01*
X130810000Y-30270000D02*
X134620000Y-30270000D01*
X134620000Y-24677500D02*
X133345000Y-25952500D01*
D30*
X156210000Y-47282500D02*
X157822500Y-47282500D01*
D29*
X105400000Y-41585000D02*
X107652500Y-41585000D01*
D30*
X157822500Y-47282500D02*
X158750000Y-46355000D01*
D29*
X73035000Y-44460000D02*
X75282500Y-44460000D01*
X107652500Y-41585000D02*
X107950000Y-41287500D01*
X140970000Y-24765000D02*
X140970000Y-26472500D01*
X123190000Y-33655000D02*
X123190000Y-35000000D01*
X137160000Y-27940000D02*
X137160000Y-29990000D01*
D30*
X155220000Y-50800000D02*
X155220000Y-48272500D01*
X155220000Y-48272500D02*
X156210000Y-47282500D01*
D29*
X140970000Y-26472500D02*
X139912500Y-27530000D01*
X137160000Y-29990000D02*
X138440000Y-31270000D01*
X75282500Y-44460000D02*
X75565000Y-44742500D01*
X139912500Y-27530000D02*
X137570000Y-27530000D01*
X137570000Y-27530000D02*
X137160000Y-27940000D01*
X63780000Y-45720000D02*
X65050000Y-46990000D01*
X65050000Y-46990000D02*
X75967500Y-46990000D01*
X80262500Y-44852500D02*
X80655000Y-44460000D01*
X75967500Y-46990000D02*
X78105000Y-44852500D01*
X78105000Y-44852500D02*
X80262500Y-44852500D01*
X140970000Y-35560000D02*
X139920000Y-36610000D01*
X140970000Y-31260000D02*
X140970000Y-35560000D01*
X139920000Y-36610000D02*
X134620000Y-36610000D01*
X148297500Y-37610000D02*
X148297500Y-37807500D01*
X146342500Y-37807500D02*
X143217500Y-37807500D01*
X148297500Y-37807500D02*
X146342500Y-37807500D01*
X138440000Y-28730000D02*
X140970000Y-31260000D01*
X143217500Y-37807500D02*
X140970000Y-35560000D01*
X95885000Y-43180000D02*
X95885000Y-32385000D01*
X114067500Y-53010000D02*
X112792500Y-54285000D01*
X95885000Y-32385000D02*
X94920000Y-31420000D01*
X96830000Y-54285000D02*
X95885000Y-53340000D01*
X95885000Y-53340000D02*
X95885000Y-46990000D01*
X94920000Y-31420000D02*
X92670000Y-31420000D01*
X112792500Y-54285000D02*
X96830000Y-54285000D01*
X108230000Y-53010000D02*
X111992500Y-53010000D01*
X110490000Y-51507500D02*
X111992500Y-53010000D01*
X110490000Y-49200000D02*
X110490000Y-51507500D01*
X99525000Y-42205000D02*
X100400000Y-41330000D01*
X100400000Y-30080000D02*
X102870000Y-27610000D01*
X100400000Y-41330000D02*
X100400000Y-30080000D01*
X102870000Y-27610000D02*
X111760000Y-27610000D01*
X120650000Y-27610000D02*
X111760000Y-27610000D01*
X105400000Y-44125000D02*
X102680000Y-44125000D01*
X101600000Y-42205000D02*
X101600000Y-44645000D01*
X102680000Y-44125000D02*
X101880000Y-44925000D01*
X101600000Y-44645000D02*
X101880000Y-44925000D01*
X86995000Y-42190000D02*
X86995000Y-44217500D01*
X86995000Y-44217500D02*
X86127500Y-45085000D01*
X100342500Y-47637500D02*
X100342500Y-43827500D01*
X97155000Y-41910000D02*
X97155000Y-20955000D01*
X100342500Y-43827500D02*
X99845000Y-43330000D01*
X107722500Y-46665000D02*
X107950000Y-46892500D01*
X100342500Y-47637500D02*
X98780000Y-49200000D01*
X105400000Y-46665000D02*
X101315000Y-46665000D01*
X105400000Y-46665000D02*
X107722500Y-46665000D01*
X99845000Y-43330000D02*
X98575000Y-43330000D01*
X101315000Y-46665000D02*
X100342500Y-47637500D01*
X98400000Y-19710000D02*
X106680000Y-19710000D01*
X106680000Y-19710000D02*
X115570000Y-19710000D01*
X115570000Y-19710000D02*
X124460000Y-19710000D01*
X97155000Y-20955000D02*
X98400000Y-19710000D01*
X98575000Y-43330000D02*
X97155000Y-41910000D01*
X105395000Y-49200000D02*
X105400000Y-49205000D01*
X101880000Y-49200000D02*
X105395000Y-49200000D01*
X105400000Y-52740000D02*
X105130000Y-53010000D01*
X105400000Y-49205000D02*
X107712500Y-49205000D01*
X107712500Y-49205000D02*
X107950000Y-48967500D01*
X105400000Y-49205000D02*
X105400000Y-52740000D01*
X115895000Y-44125000D02*
X117165000Y-44125000D01*
X113020000Y-44125000D02*
X115895000Y-44125000D01*
X117310000Y-43130000D02*
X117310000Y-43980000D01*
X116035000Y-46640000D02*
X116035000Y-44265000D01*
X116035000Y-44265000D02*
X115895000Y-44125000D01*
X117165000Y-44125000D02*
X117310000Y-43980000D01*
X118110000Y-47650000D02*
X119660000Y-49200000D01*
X124790000Y-49200000D02*
X119660000Y-49200000D01*
X124480000Y-28917500D02*
X125730000Y-30167500D01*
X118110000Y-46640000D02*
X118110000Y-47650000D01*
X125730000Y-48260000D02*
X124790000Y-49200000D01*
X125730000Y-30167500D02*
X125730000Y-48260000D01*
X120650000Y-25070000D02*
X122707500Y-25070000D01*
X122707500Y-25070000D02*
X124480000Y-26842500D01*
X118745000Y-38100000D02*
X118745000Y-36641248D01*
X110490000Y-38050000D02*
X111485000Y-39045000D01*
X111485000Y-39045000D02*
X113020000Y-39045000D01*
X118745000Y-36641248D02*
X118886248Y-36500000D01*
X119660000Y-32970000D02*
X119660000Y-33960000D01*
X115570000Y-28880000D02*
X119660000Y-32970000D01*
X117120000Y-36500000D02*
X119660000Y-33960000D01*
X116811248Y-36500000D02*
X117120000Y-36500000D01*
X114260000Y-25070000D02*
X115570000Y-26380000D01*
X111760000Y-25070000D02*
X114260000Y-25070000D01*
X102875000Y-39045000D02*
X101600000Y-37770000D01*
X105400000Y-39045000D02*
X102875000Y-39045000D01*
X106955000Y-39045000D02*
X107950000Y-38050000D01*
X105400000Y-39045000D02*
X106955000Y-39045000D01*
X99100000Y-34280000D02*
X98780000Y-33960000D01*
X99100000Y-37770000D02*
X99100000Y-34280000D01*
X99060000Y-33680000D02*
X98780000Y-33960000D01*
X99060000Y-29216252D02*
X99060000Y-33680000D01*
X102870000Y-25070000D02*
X101131252Y-25070000D01*
X101131252Y-25070000D02*
X99060000Y-27141252D01*
X115125000Y-37845000D02*
X117310000Y-40030000D01*
X117310000Y-40030000D02*
X118960000Y-41680000D01*
X120712500Y-41617500D02*
X120650000Y-41680000D01*
X110490000Y-34950000D02*
X110490000Y-35672057D01*
X123190000Y-38100000D02*
X123190000Y-40005000D01*
X112662943Y-37845000D02*
X115125000Y-37845000D01*
X123190000Y-40005000D02*
X123190000Y-41147500D01*
X118960000Y-41680000D02*
X120650000Y-41680000D01*
X110490000Y-35672057D02*
X112662943Y-37845000D01*
X123660000Y-41617500D02*
X120712500Y-41617500D01*
X110490000Y-34950000D02*
X107950000Y-34950000D01*
X123190000Y-41147500D02*
X123660000Y-41617500D01*
X84840000Y-26420000D02*
X90170000Y-26420000D01*
X82550000Y-20320000D02*
X82550000Y-24130000D01*
X82550000Y-24130000D02*
X84840000Y-26420000D01*
X80010000Y-26450000D02*
X80010000Y-20320000D01*
X77470000Y-21590000D02*
X76200000Y-22860000D01*
X76200000Y-22860000D02*
X67310000Y-22860000D01*
X67310000Y-22860000D02*
X67310000Y-26450000D01*
X77470000Y-20320000D02*
X77470000Y-21590000D01*
X60680000Y-45720000D02*
X60680000Y-41910000D01*
X54610000Y-35565000D02*
X60050000Y-35565000D01*
X60680000Y-41910000D02*
X60680000Y-36755000D01*
X60050000Y-35565000D02*
X60960000Y-36475000D01*
X60680000Y-36755000D02*
X60960000Y-36475000D01*
X120650000Y-22530000D02*
X124180000Y-22530000D01*
X124180000Y-22530000D02*
X124460000Y-22810000D01*
X115290000Y-22530000D02*
X115570000Y-22810000D01*
X111760000Y-22530000D02*
X115290000Y-22530000D01*
X106400000Y-22530000D02*
X106680000Y-22810000D01*
X102870000Y-22530000D02*
X106400000Y-22530000D01*
D30*
X146065000Y-48275000D02*
X146050000Y-48260000D01*
X146050000Y-50800000D02*
X146065000Y-50785000D01*
X146065000Y-50785000D02*
X146065000Y-48275000D01*
X145060000Y-50800000D02*
X146050000Y-50800000D01*
X146065000Y-53340000D02*
X146065000Y-50785000D01*
X151145000Y-50785000D02*
X151145000Y-48275000D01*
X151145000Y-48275000D02*
X151130000Y-48260000D01*
X151145000Y-53340000D02*
X151145000Y-50785000D01*
X151160000Y-50800000D02*
X151145000Y-50785000D01*
X152120000Y-50800000D02*
X151160000Y-50800000D01*
D29*
X86080000Y-36830000D02*
X91440000Y-36830000D01*
X93185000Y-44925000D02*
X98780000Y-44925000D01*
X92710000Y-44450000D02*
X93185000Y-44925000D01*
X83820000Y-39090000D02*
X86080000Y-36830000D01*
X83530000Y-39380000D02*
X83820000Y-39090000D01*
X91440000Y-36830000D02*
X92710000Y-38100000D01*
X80655000Y-39380000D02*
X83530000Y-39380000D01*
X92710000Y-38100000D02*
X92710000Y-44450000D01*
X80655000Y-41920000D02*
X83550000Y-41920000D01*
X86920000Y-39090000D02*
X83820000Y-42190000D01*
X83550000Y-41920000D02*
X83820000Y-42190000D01*
X86995000Y-39090000D02*
X86920000Y-39090000D01*
X113025000Y-49200000D02*
X113020000Y-49205000D01*
X116560000Y-49200000D02*
X113025000Y-49200000D01*
X113020000Y-46665000D02*
X113020000Y-49205000D01*
X113020000Y-36505000D02*
X113020000Y-33965000D01*
X113025000Y-33960000D02*
X113020000Y-33965000D01*
X116560000Y-33960000D02*
X113025000Y-33960000D01*
X101880000Y-33960000D02*
X105395000Y-33960000D01*
X105400000Y-36505000D02*
X105400000Y-33965000D01*
X105395000Y-33960000D02*
X105400000Y-33965000D01*
M02*
