%TF.GenerationSoftware,KiCad,Pcbnew,(6.0.10)*%
%TF.CreationDate,2023-04-08T13:31:08+03:00*%
%TF.ProjectId,DelSol_Preamp,44656c53-6f6c-45f5-9072-65616d702e6b,rev?*%
%TF.SameCoordinates,Original*%
%TF.FileFunction,Paste,Bot*%
%TF.FilePolarity,Positive*%
%FSLAX46Y46*%
G04 Gerber Fmt 4.6, Leading zero omitted, Abs format (unit mm)*
G04 Created by KiCad (PCBNEW (6.0.10)) date 2023-04-08 13:31:08*
%MOMM*%
%LPD*%
G01*
G04 APERTURE LIST*
G04 Aperture macros list*
%AMRoundRect*
0 Rectangle with rounded corners*
0 $1 Rounding radius*
0 $2 $3 $4 $5 $6 $7 $8 $9 X,Y pos of 4 corners*
0 Add a 4 corners polygon primitive as box body*
4,1,4,$2,$3,$4,$5,$6,$7,$8,$9,$2,$3,0*
0 Add four circle primitives for the rounded corners*
1,1,$1+$1,$2,$3*
1,1,$1+$1,$4,$5*
1,1,$1+$1,$6,$7*
1,1,$1+$1,$8,$9*
0 Add four rect primitives between the rounded corners*
20,1,$1+$1,$2,$3,$4,$5,0*
20,1,$1+$1,$4,$5,$6,$7,0*
20,1,$1+$1,$6,$7,$8,$9,0*
20,1,$1+$1,$8,$9,$2,$3,0*%
G04 Aperture macros list end*
%ADD10RoundRect,0.250000X-0.625000X0.400000X-0.625000X-0.400000X0.625000X-0.400000X0.625000X0.400000X0*%
%ADD11RoundRect,0.250000X-0.650000X0.412500X-0.650000X-0.412500X0.650000X-0.412500X0.650000X0.412500X0*%
%ADD12RoundRect,0.250000X0.475000X-0.337500X0.475000X0.337500X-0.475000X0.337500X-0.475000X-0.337500X0*%
%ADD13RoundRect,0.250000X-0.337500X-0.475000X0.337500X-0.475000X0.337500X0.475000X-0.337500X0.475000X0*%
%ADD14RoundRect,0.250000X-0.400000X-0.625000X0.400000X-0.625000X0.400000X0.625000X-0.400000X0.625000X0*%
%ADD15RoundRect,0.250000X0.337500X0.475000X-0.337500X0.475000X-0.337500X-0.475000X0.337500X-0.475000X0*%
%ADD16RoundRect,0.250000X-0.475000X0.337500X-0.475000X-0.337500X0.475000X-0.337500X0.475000X0.337500X0*%
%ADD17RoundRect,0.250000X0.625000X-0.400000X0.625000X0.400000X-0.625000X0.400000X-0.625000X-0.400000X0*%
%ADD18RoundRect,0.250000X0.650000X-0.412500X0.650000X0.412500X-0.650000X0.412500X-0.650000X-0.412500X0*%
%ADD19RoundRect,0.250000X0.400000X0.625000X-0.400000X0.625000X-0.400000X-0.625000X0.400000X-0.625000X0*%
%ADD20RoundRect,0.250000X-0.412500X-0.650000X0.412500X-0.650000X0.412500X0.650000X-0.412500X0.650000X0*%
G04 APERTURE END LIST*
D10*
X124460000Y-19710000D03*
X124460000Y-22810000D03*
D11*
X138430000Y-50507500D03*
X138430000Y-53632500D03*
D12*
X110490000Y-49200000D03*
X110490000Y-47125000D03*
D13*
X99525000Y-42205000D03*
X101600000Y-42205000D03*
X116035000Y-46640000D03*
X118110000Y-46640000D03*
D14*
X139420000Y-35070000D03*
X142520000Y-35070000D03*
D12*
X124480000Y-28917500D03*
X124480000Y-26842500D03*
X134620000Y-24677500D03*
X134620000Y-22602500D03*
D10*
X117310000Y-40030000D03*
X117310000Y-43130000D03*
X123190000Y-35000000D03*
X123190000Y-38100000D03*
D15*
X143277500Y-28720000D03*
X141202500Y-28720000D03*
D14*
X98780000Y-49200000D03*
X101880000Y-49200000D03*
D16*
X130810000Y-22602500D03*
X130810000Y-24677500D03*
D14*
X67030000Y-41910000D03*
X70130000Y-41910000D03*
D16*
X78105000Y-42777500D03*
X78105000Y-44852500D03*
D10*
X115570000Y-19710000D03*
X115570000Y-22810000D03*
D17*
X134620000Y-30270000D03*
X134620000Y-27170000D03*
D14*
X60680000Y-45720000D03*
X63780000Y-45720000D03*
D11*
X110490000Y-41287500D03*
X110490000Y-44412500D03*
D15*
X114067500Y-53010000D03*
X111992500Y-53010000D03*
D12*
X73025000Y-27707500D03*
X73025000Y-25632500D03*
D14*
X105130000Y-53010000D03*
X108230000Y-53010000D03*
D17*
X86995000Y-42190000D03*
X86995000Y-39090000D03*
D12*
X60960000Y-30247500D03*
X60960000Y-28172500D03*
D16*
X107950000Y-46892500D03*
X107950000Y-48967500D03*
D12*
X99060000Y-29216252D03*
X99060000Y-27141252D03*
D11*
X75565000Y-41617500D03*
X75565000Y-44742500D03*
D10*
X110490000Y-34950000D03*
X110490000Y-38050000D03*
D11*
X156210000Y-44157500D03*
X156210000Y-47282500D03*
X123660000Y-41617500D03*
X123660000Y-44742500D03*
D17*
X83820000Y-42190000D03*
X83820000Y-39090000D03*
D14*
X116560000Y-33960000D03*
X119660000Y-33960000D03*
D13*
X84052500Y-45085000D03*
X86127500Y-45085000D03*
D14*
X98780000Y-44925000D03*
X101880000Y-44925000D03*
D10*
X107950000Y-34950000D03*
X107950000Y-38050000D03*
D18*
X107950000Y-44412500D03*
X107950000Y-41287500D03*
D14*
X152120000Y-50800000D03*
X155220000Y-50800000D03*
D10*
X106680000Y-19710000D03*
X106680000Y-22810000D03*
X130810000Y-27170000D03*
X130810000Y-30270000D03*
D14*
X116560000Y-49200000D03*
X119660000Y-49200000D03*
X60680000Y-41910000D03*
X63780000Y-41910000D03*
D11*
X143510000Y-23347500D03*
X143510000Y-26472500D03*
D18*
X140970000Y-26472500D03*
X140970000Y-23347500D03*
D19*
X145060000Y-50800000D03*
X141960000Y-50800000D03*
X133910000Y-19830000D03*
X130810000Y-19830000D03*
D11*
X78105000Y-37172500D03*
X78105000Y-40297500D03*
D17*
X120650000Y-44780000D03*
X120650000Y-41680000D03*
D19*
X101880000Y-33960000D03*
X98780000Y-33960000D03*
D20*
X148297500Y-37610000D03*
X151422500Y-37610000D03*
D15*
X118886248Y-36500000D03*
X116811248Y-36500000D03*
D17*
X60960000Y-36475000D03*
X60960000Y-33375000D03*
X73025000Y-33300000D03*
X73025000Y-30200000D03*
M02*
