M48
; DRILL file {KiCad (6.0.10)} date Sat Apr  8 13:31:04 2023
; FORMAT={-:-/ absolute / inch / decimal}
; #@! TF.CreationDate,2023-04-08T13:31:04+03:00
; #@! TF.GenerationSoftware,Kicad,Pcbnew,(6.0.10)
; #@! TF.FileFunction,Plated,1,2,PTH
FMAT,2
INCH
; #@! TA.AperFunction,Plated,PTH,ViaDrill
T1C0.0157
; #@! TA.AperFunction,Plated,PTH,ComponentDrill
T2C0.0315
; #@! TA.AperFunction,Plated,PTH,ComponentDrill
T3C0.0394
%
G90
G05
T1
X3.25Y-2.15
X3.775Y-1.7
X3.775Y-1.85
X4.25Y-1.7
X4.675Y-1.5
X4.75Y-1.7
X4.8Y-1.9
X4.85Y-1.325
X4.85Y-1.575
X5.525Y-2.0
X5.55Y-0.975
X5.575Y-1.175
X5.7615Y-1.4885
X6.25Y-1.825
T2
X2.6508Y-1.45
X2.6508Y-1.775
X2.7492Y-1.45
X2.7492Y-1.775
X2.8754Y-1.4504
X2.8754Y-1.5504
X2.8754Y-1.6504
X2.8754Y-1.7504
X3.1754Y-1.4504
X3.1754Y-1.5504
X3.1754Y-1.6504
X3.1754Y-1.7504
X3.9016Y-1.487
X4.0Y-1.487
X4.1496Y-1.3372
X4.1496Y-1.4372
X4.1496Y-1.5372
X4.1496Y-1.6372
X4.1496Y-1.7372
X4.1496Y-1.8372
X4.1496Y-1.9372
X4.4496Y-1.3372
X4.4496Y-1.4372
X4.4496Y-1.5372
X4.4496Y-1.6372
X4.4496Y-1.7372
X4.4496Y-1.8372
X4.4496Y-1.9372
X4.55Y-1.0386
X4.55Y-1.137
X5.4504Y-0.9311
X5.4504Y-1.0311
X5.4504Y-1.1311
X5.4504Y-1.2311
X5.7504Y-0.9311
X5.7504Y-1.0311
X5.7504Y-1.1311
X5.7504Y-1.2311
T3
X2.15Y-1.2002
X2.15Y-1.3002
X2.15Y-1.4002
X2.15Y-1.5002
X2.15Y-1.6002
X2.5516Y-1.2382
X2.65Y-1.0413
X2.7484Y-1.2382
X2.95Y-0.8
X3.05Y-0.8
X3.0516Y-1.2382
X3.15Y-0.8
X3.15Y-1.0413
X3.2484Y-1.2382
X3.25Y-0.8
X3.35Y-0.8
X3.45Y-0.8
X3.4516Y-1.237
X3.55Y-1.0402
X3.6484Y-1.237
X4.05Y-0.887
X4.05Y-0.987
X4.05Y-1.087
X4.4Y-0.887
X4.4Y-0.987
X4.4Y-1.087
X4.75Y-0.887
X4.75Y-0.987
X4.75Y-1.087
X5.2016Y-1.6382
X5.3Y-1.4413
X5.3984Y-1.6382
X5.75Y-1.9
X5.7506Y-2.1
X5.85Y-1.9
X5.8506Y-2.1
X5.95Y-1.0307
X5.95Y-1.1307
X5.95Y-1.2307
X5.95Y-1.9
X5.9506Y-2.1
T0
M30
