%TF.GenerationSoftware,KiCad,Pcbnew,(6.0.10)*%
%TF.CreationDate,2023-04-08T13:18:27+03:00*%
%TF.ProjectId,DelSol_Mixer,44656c53-6f6c-45f4-9d69-7865722e6b69,rev?*%
%TF.SameCoordinates,Original*%
%TF.FileFunction,Paste,Bot*%
%TF.FilePolarity,Positive*%
%FSLAX46Y46*%
G04 Gerber Fmt 4.6, Leading zero omitted, Abs format (unit mm)*
G04 Created by KiCad (PCBNEW (6.0.10)) date 2023-04-08 13:18:27*
%MOMM*%
%LPD*%
G01*
G04 APERTURE LIST*
G04 Aperture macros list*
%AMRoundRect*
0 Rectangle with rounded corners*
0 $1 Rounding radius*
0 $2 $3 $4 $5 $6 $7 $8 $9 X,Y pos of 4 corners*
0 Add a 4 corners polygon primitive as box body*
4,1,4,$2,$3,$4,$5,$6,$7,$8,$9,$2,$3,0*
0 Add four circle primitives for the rounded corners*
1,1,$1+$1,$2,$3*
1,1,$1+$1,$4,$5*
1,1,$1+$1,$6,$7*
1,1,$1+$1,$8,$9*
0 Add four rect primitives between the rounded corners*
20,1,$1+$1,$2,$3,$4,$5,0*
20,1,$1+$1,$4,$5,$6,$7,0*
20,1,$1+$1,$6,$7,$8,$9,0*
20,1,$1+$1,$8,$9,$2,$3,0*%
G04 Aperture macros list end*
%ADD10RoundRect,0.250000X0.625000X-0.400000X0.625000X0.400000X-0.625000X0.400000X-0.625000X-0.400000X0*%
%ADD11RoundRect,0.250000X-0.625000X0.400000X-0.625000X-0.400000X0.625000X-0.400000X0.625000X0.400000X0*%
%ADD12RoundRect,0.250000X-0.412500X-0.650000X0.412500X-0.650000X0.412500X0.650000X-0.412500X0.650000X0*%
%ADD13RoundRect,0.250000X0.475000X-0.337500X0.475000X0.337500X-0.475000X0.337500X-0.475000X-0.337500X0*%
%ADD14RoundRect,0.250000X-0.400000X-0.625000X0.400000X-0.625000X0.400000X0.625000X-0.400000X0.625000X0*%
%ADD15RoundRect,0.250000X-0.337500X-0.475000X0.337500X-0.475000X0.337500X0.475000X-0.337500X0.475000X0*%
%ADD16RoundRect,0.250000X0.400000X0.625000X-0.400000X0.625000X-0.400000X-0.625000X0.400000X-0.625000X0*%
%ADD17RoundRect,0.250000X-0.650000X0.412500X-0.650000X-0.412500X0.650000X-0.412500X0.650000X0.412500X0*%
%ADD18RoundRect,0.250000X0.650000X-0.412500X0.650000X0.412500X-0.650000X0.412500X-0.650000X-0.412500X0*%
%ADD19RoundRect,0.250000X0.337500X0.475000X-0.337500X0.475000X-0.337500X-0.475000X0.337500X-0.475000X0*%
%ADD20RoundRect,0.250000X0.412500X0.650000X-0.412500X0.650000X-0.412500X-0.650000X0.412500X-0.650000X0*%
G04 APERTURE END LIST*
D10*
X16510000Y-63790000D03*
X16510000Y-60690000D03*
D11*
X254000000Y-34010000D03*
X254000000Y-37110000D03*
D12*
X112737500Y-54610000D03*
X115862500Y-54610000D03*
D10*
X139700000Y-53620000D03*
X139700000Y-50520000D03*
D12*
X242277500Y-62865000D03*
X245402500Y-62865000D03*
D13*
X34290000Y-64537500D03*
X34290000Y-62462500D03*
D14*
X119100000Y-54610000D03*
X122200000Y-54610000D03*
D15*
X66272500Y-46990000D03*
X68347500Y-46990000D03*
D11*
X91440000Y-24840000D03*
X91440000Y-27940000D03*
D10*
X22860000Y-61240000D03*
X22860000Y-58140000D03*
D16*
X235230000Y-54610000D03*
X232130000Y-54610000D03*
D12*
X190500000Y-54610000D03*
X193625000Y-54610000D03*
D17*
X175260000Y-54025000D03*
X175260000Y-57150000D03*
D18*
X154940000Y-61545000D03*
X154940000Y-58420000D03*
D13*
X25400000Y-65807500D03*
X25400000Y-63732500D03*
D11*
X259080000Y-39090000D03*
X259080000Y-42190000D03*
X76200000Y-45440000D03*
X76200000Y-48540000D03*
D14*
X119100000Y-59690000D03*
X122200000Y-59690000D03*
D10*
X233680000Y-37110000D03*
X233680000Y-34010000D03*
D16*
X161570000Y-62230000D03*
X158470000Y-62230000D03*
D17*
X220980000Y-50800000D03*
X220980000Y-53925000D03*
D10*
X228600000Y-51360000D03*
X228600000Y-48260000D03*
X25400000Y-61240000D03*
X25400000Y-58140000D03*
D11*
X208280000Y-21590000D03*
X208280000Y-24690000D03*
X49530000Y-34010000D03*
X49530000Y-37110000D03*
D16*
X161570000Y-59690000D03*
X158470000Y-59690000D03*
D11*
X142240000Y-24840000D03*
X142240000Y-27940000D03*
D12*
X188937500Y-45720000D03*
X192062500Y-45720000D03*
D11*
X116840000Y-24840000D03*
X116840000Y-27940000D03*
D17*
X147320000Y-50507500D03*
X147320000Y-53632500D03*
D10*
X73660000Y-53620000D03*
X73660000Y-50520000D03*
D16*
X235230000Y-57150000D03*
X232130000Y-57150000D03*
D11*
X73660000Y-45440000D03*
X73660000Y-48540000D03*
X233680000Y-21310000D03*
X233680000Y-24410000D03*
D14*
X206730000Y-52070000D03*
X209830000Y-52070000D03*
D11*
X167640000Y-24790000D03*
X167640000Y-27890000D03*
D19*
X83857500Y-52070000D03*
X81782500Y-52070000D03*
D16*
X171730000Y-57150000D03*
X168630000Y-57150000D03*
D14*
X81280000Y-34290000D03*
X84380000Y-34290000D03*
D12*
X26377500Y-49540000D03*
X29502500Y-49540000D03*
D18*
X228600000Y-56465000D03*
X228600000Y-53340000D03*
D14*
X28930000Y-40640000D03*
X32030000Y-40640000D03*
D16*
X245390000Y-52070000D03*
X242290000Y-52070000D03*
X19330000Y-40640000D03*
X16230000Y-40640000D03*
D11*
X259080000Y-34010000D03*
X259080000Y-37110000D03*
D16*
X19330000Y-52070000D03*
X16230000Y-52070000D03*
D13*
X45720000Y-35327500D03*
X45720000Y-33252500D03*
D12*
X112737500Y-59690000D03*
X115862500Y-59690000D03*
D14*
X206730000Y-54610000D03*
X209830000Y-54610000D03*
D10*
X208280000Y-37110000D03*
X208280000Y-34010000D03*
D17*
X220980000Y-45135000D03*
X220980000Y-48260000D03*
D19*
X83857500Y-46990000D03*
X81782500Y-46990000D03*
D14*
X132790000Y-57150000D03*
X135890000Y-57150000D03*
X196570000Y-49530000D03*
X199670000Y-49530000D03*
D11*
X45720000Y-27660000D03*
X45720000Y-30760000D03*
D20*
X68872500Y-49530000D03*
X65747500Y-49530000D03*
X177115000Y-62230000D03*
X173990000Y-62230000D03*
D17*
X148590000Y-55587500D03*
X148590000Y-58712500D03*
D10*
X19055000Y-63790000D03*
X19055000Y-60690000D03*
D17*
X22860000Y-49237500D03*
X22860000Y-52362500D03*
D14*
X196570000Y-54610000D03*
X199670000Y-54610000D03*
D10*
X76200000Y-53620000D03*
X76200000Y-50520000D03*
D16*
X171730000Y-62230000D03*
X168630000Y-62230000D03*
D11*
X24130000Y-34010000D03*
X24130000Y-37110000D03*
D20*
X29502500Y-52070000D03*
X26377500Y-52070000D03*
D18*
X139700000Y-58712500D03*
X139700000Y-55587500D03*
D10*
X139700000Y-39650000D03*
X139700000Y-36550000D03*
D12*
X23202500Y-44450000D03*
X26327500Y-44450000D03*
D10*
X213360000Y-48540000D03*
X213360000Y-45440000D03*
D14*
X132790000Y-59690000D03*
X135890000Y-59690000D03*
D16*
X245390000Y-57150000D03*
X242290000Y-57150000D03*
D20*
X85382500Y-49530000D03*
X82257500Y-49530000D03*
D11*
X20320000Y-27660000D03*
X20320000Y-30760000D03*
D16*
X32030000Y-62230000D03*
X28930000Y-62230000D03*
D17*
X146050000Y-55587500D03*
X146050000Y-58712500D03*
D14*
X81280000Y-38100000D03*
X84380000Y-38100000D03*
X28650000Y-57160000D03*
X31750000Y-57160000D03*
D13*
X20320000Y-35327500D03*
X20320000Y-33252500D03*
D10*
X154940000Y-56440000D03*
X154940000Y-53340000D03*
D18*
X213360000Y-53632500D03*
X213360000Y-50507500D03*
D10*
X165100000Y-42190000D03*
X165100000Y-39090000D03*
D11*
X254000000Y-39090000D03*
X254000000Y-42190000D03*
D18*
X252730000Y-56465000D03*
X252730000Y-53340000D03*
D13*
X22860000Y-65807500D03*
X22860000Y-63732500D03*
D20*
X258102500Y-45720000D03*
X254977500Y-45720000D03*
D15*
X66272500Y-52070000D03*
X68347500Y-52070000D03*
M02*
