%TF.GenerationSoftware,KiCad,Pcbnew,(6.0.10)*%
%TF.CreationDate,2023-04-08T13:18:27+03:00*%
%TF.ProjectId,DelSol_Mixer,44656c53-6f6c-45f4-9d69-7865722e6b69,rev?*%
%TF.SameCoordinates,Original*%
%TF.FileFunction,Legend,Top*%
%TF.FilePolarity,Positive*%
%FSLAX46Y46*%
G04 Gerber Fmt 4.6, Leading zero omitted, Abs format (unit mm)*
G04 Created by KiCad (PCBNEW (6.0.10)) date 2023-04-08 13:18:27*
%MOMM*%
%LPD*%
G01*
G04 APERTURE LIST*
G04 Aperture macros list*
%AMRoundRect*
0 Rectangle with rounded corners*
0 $1 Rounding radius*
0 $2 $3 $4 $5 $6 $7 $8 $9 X,Y pos of 4 corners*
0 Add a 4 corners polygon primitive as box body*
4,1,4,$2,$3,$4,$5,$6,$7,$8,$9,$2,$3,0*
0 Add four circle primitives for the rounded corners*
1,1,$1+$1,$2,$3*
1,1,$1+$1,$4,$5*
1,1,$1+$1,$6,$7*
1,1,$1+$1,$8,$9*
0 Add four rect primitives between the rounded corners*
20,1,$1+$1,$2,$3,$4,$5,0*
20,1,$1+$1,$4,$5,$6,$7,0*
20,1,$1+$1,$6,$7,$8,$9,0*
20,1,$1+$1,$8,$9,$2,$3,0*%
G04 Aperture macros list end*
%ADD10C,0.150000*%
%ADD11C,0.120000*%
%ADD12R,1.700000X1.700000*%
%ADD13O,1.700000X1.700000*%
%ADD14C,3.200000*%
%ADD15C,3.000000*%
%ADD16RoundRect,0.250000X0.550000X-1.412500X0.550000X1.412500X-0.550000X1.412500X-0.550000X-1.412500X0*%
%ADD17RoundRect,0.250000X-0.550000X1.412500X-0.550000X-1.412500X0.550000X-1.412500X0.550000X1.412500X0*%
%ADD18C,1.600000*%
%ADD19R,1.600000X1.600000*%
%ADD20O,1.600000X1.600000*%
G04 APERTURE END LIST*
D10*
X107164523Y-45832380D02*
X107164523Y-44832380D01*
X107164523Y-45784761D02*
X107069285Y-45832380D01*
X106878809Y-45832380D01*
X106783571Y-45784761D01*
X106735952Y-45737142D01*
X106688333Y-45641904D01*
X106688333Y-45356190D01*
X106735952Y-45260952D01*
X106783571Y-45213333D01*
X106878809Y-45165714D01*
X107069285Y-45165714D01*
X107164523Y-45213333D01*
X107545476Y-45165714D02*
X108069285Y-45165714D01*
X107545476Y-45832380D01*
X108069285Y-45832380D01*
X109069285Y-45356190D02*
X109021666Y-45308571D01*
X108926428Y-45260952D01*
X108831190Y-45260952D01*
X108735952Y-45308571D01*
X108688333Y-45356190D01*
X108640714Y-45451428D01*
X108640714Y-45546666D01*
X108688333Y-45641904D01*
X108735952Y-45689523D01*
X108831190Y-45737142D01*
X108926428Y-45737142D01*
X109021666Y-45689523D01*
X109069285Y-45641904D01*
X109069285Y-45260952D02*
X109069285Y-45641904D01*
X109116904Y-45689523D01*
X109164523Y-45689523D01*
X109259761Y-45641904D01*
X109307380Y-45546666D01*
X109307380Y-45308571D01*
X109212142Y-45165714D01*
X109069285Y-45070476D01*
X108878809Y-45022857D01*
X108688333Y-45070476D01*
X108545476Y-45165714D01*
X108450238Y-45308571D01*
X108402619Y-45499047D01*
X108450238Y-45689523D01*
X108545476Y-45832380D01*
X108688333Y-45927619D01*
X108878809Y-45975238D01*
X109069285Y-45927619D01*
X109212142Y-45832380D01*
X110164523Y-45832380D02*
X110164523Y-44832380D01*
X110164523Y-45784761D02*
X110069285Y-45832380D01*
X109878809Y-45832380D01*
X109783571Y-45784761D01*
X109735952Y-45737142D01*
X109688333Y-45641904D01*
X109688333Y-45356190D01*
X109735952Y-45260952D01*
X109783571Y-45213333D01*
X109878809Y-45165714D01*
X110069285Y-45165714D01*
X110164523Y-45213333D01*
X110545476Y-45165714D02*
X111069285Y-45165714D01*
X110545476Y-45832380D01*
X111069285Y-45832380D01*
X111450238Y-45737142D02*
X111497857Y-45784761D01*
X111450238Y-45832380D01*
X111402619Y-45784761D01*
X111450238Y-45737142D01*
X111450238Y-45832380D01*
X111926428Y-45832380D02*
X111926428Y-45165714D01*
X111926428Y-45356190D02*
X111974047Y-45260952D01*
X112021666Y-45213333D01*
X112116904Y-45165714D01*
X112212142Y-45165714D01*
X112974047Y-45165714D02*
X112974047Y-45832380D01*
X112545476Y-45165714D02*
X112545476Y-45689523D01*
X112593095Y-45784761D01*
X112688333Y-45832380D01*
X112831190Y-45832380D01*
X112926428Y-45784761D01*
X112974047Y-45737142D01*
X104950238Y-47347142D02*
X104902619Y-47394761D01*
X104759761Y-47442380D01*
X104664523Y-47442380D01*
X104521666Y-47394761D01*
X104426428Y-47299523D01*
X104378809Y-47204285D01*
X104331190Y-47013809D01*
X104331190Y-46870952D01*
X104378809Y-46680476D01*
X104426428Y-46585238D01*
X104521666Y-46490000D01*
X104664523Y-46442380D01*
X104759761Y-46442380D01*
X104902619Y-46490000D01*
X104950238Y-46537619D01*
X105378809Y-47442380D02*
X105378809Y-46442380D01*
X105807380Y-47442380D02*
X105807380Y-46918571D01*
X105759761Y-46823333D01*
X105664523Y-46775714D01*
X105521666Y-46775714D01*
X105426428Y-46823333D01*
X105378809Y-46870952D01*
X106426428Y-47442380D02*
X106331190Y-47394761D01*
X106283571Y-47347142D01*
X106235952Y-47251904D01*
X106235952Y-46966190D01*
X106283571Y-46870952D01*
X106331190Y-46823333D01*
X106426428Y-46775714D01*
X106569285Y-46775714D01*
X106664523Y-46823333D01*
X106712142Y-46870952D01*
X106759761Y-46966190D01*
X106759761Y-47251904D01*
X106712142Y-47347142D01*
X106664523Y-47394761D01*
X106569285Y-47442380D01*
X106426428Y-47442380D01*
X107188333Y-47442380D02*
X107188333Y-46775714D01*
X107188333Y-46966190D02*
X107235952Y-46870952D01*
X107283571Y-46823333D01*
X107378809Y-46775714D01*
X107474047Y-46775714D01*
X108235952Y-46775714D02*
X108235952Y-47442380D01*
X107807380Y-46775714D02*
X107807380Y-47299523D01*
X107855000Y-47394761D01*
X107950238Y-47442380D01*
X108093095Y-47442380D01*
X108188333Y-47394761D01*
X108235952Y-47347142D01*
X108664523Y-47394761D02*
X108759761Y-47442380D01*
X108950238Y-47442380D01*
X109045476Y-47394761D01*
X109093095Y-47299523D01*
X109093095Y-47251904D01*
X109045476Y-47156666D01*
X108950238Y-47109047D01*
X108807380Y-47109047D01*
X108712142Y-47061428D01*
X108664523Y-46966190D01*
X108664523Y-46918571D01*
X108712142Y-46823333D01*
X108807380Y-46775714D01*
X108950238Y-46775714D01*
X109045476Y-46823333D01*
X110283571Y-47442380D02*
X110283571Y-46442380D01*
X110521666Y-46442380D01*
X110664523Y-46490000D01*
X110759761Y-46585238D01*
X110807380Y-46680476D01*
X110855000Y-46870952D01*
X110855000Y-47013809D01*
X110807380Y-47204285D01*
X110759761Y-47299523D01*
X110664523Y-47394761D01*
X110521666Y-47442380D01*
X110283571Y-47442380D01*
X111664523Y-47394761D02*
X111569285Y-47442380D01*
X111378809Y-47442380D01*
X111283571Y-47394761D01*
X111235952Y-47299523D01*
X111235952Y-46918571D01*
X111283571Y-46823333D01*
X111378809Y-46775714D01*
X111569285Y-46775714D01*
X111664523Y-46823333D01*
X111712142Y-46918571D01*
X111712142Y-47013809D01*
X111235952Y-47109047D01*
X112283571Y-47442380D02*
X112188333Y-47394761D01*
X112140714Y-47299523D01*
X112140714Y-46442380D01*
X113378809Y-47394761D02*
X113521666Y-47442380D01*
X113759761Y-47442380D01*
X113855000Y-47394761D01*
X113902619Y-47347142D01*
X113950238Y-47251904D01*
X113950238Y-47156666D01*
X113902619Y-47061428D01*
X113855000Y-47013809D01*
X113759761Y-46966190D01*
X113569285Y-46918571D01*
X113474047Y-46870952D01*
X113426428Y-46823333D01*
X113378809Y-46728095D01*
X113378809Y-46632857D01*
X113426428Y-46537619D01*
X113474047Y-46490000D01*
X113569285Y-46442380D01*
X113807380Y-46442380D01*
X113950238Y-46490000D01*
X114521666Y-47442380D02*
X114426428Y-47394761D01*
X114378809Y-47347142D01*
X114331190Y-47251904D01*
X114331190Y-46966190D01*
X114378809Y-46870952D01*
X114426428Y-46823333D01*
X114521666Y-46775714D01*
X114664523Y-46775714D01*
X114759761Y-46823333D01*
X114807380Y-46870952D01*
X114855000Y-46966190D01*
X114855000Y-47251904D01*
X114807380Y-47347142D01*
X114759761Y-47394761D01*
X114664523Y-47442380D01*
X114521666Y-47442380D01*
X115426428Y-47442380D02*
X115331190Y-47394761D01*
X115283571Y-47299523D01*
X115283571Y-46442380D01*
X108140714Y-49052380D02*
X108140714Y-48052380D01*
X108474047Y-48766666D01*
X108807380Y-48052380D01*
X108807380Y-49052380D01*
X109283571Y-49052380D02*
X109283571Y-48385714D01*
X109283571Y-48052380D02*
X109235952Y-48100000D01*
X109283571Y-48147619D01*
X109331190Y-48100000D01*
X109283571Y-48052380D01*
X109283571Y-48147619D01*
X109664523Y-49052380D02*
X110188333Y-48385714D01*
X109664523Y-48385714D02*
X110188333Y-49052380D01*
X110950238Y-49004761D02*
X110855000Y-49052380D01*
X110664523Y-49052380D01*
X110569285Y-49004761D01*
X110521666Y-48909523D01*
X110521666Y-48528571D01*
X110569285Y-48433333D01*
X110664523Y-48385714D01*
X110855000Y-48385714D01*
X110950238Y-48433333D01*
X110997857Y-48528571D01*
X110997857Y-48623809D01*
X110521666Y-48719047D01*
X111426428Y-49052380D02*
X111426428Y-48385714D01*
X111426428Y-48576190D02*
X111474047Y-48480952D01*
X111521666Y-48433333D01*
X111616904Y-48385714D01*
X111712142Y-48385714D01*
X258699047Y-25471428D02*
X259460952Y-25471428D01*
X90479523Y-48617142D02*
X90431904Y-48664761D01*
X90289047Y-48712380D01*
X90193809Y-48712380D01*
X90050952Y-48664761D01*
X89955714Y-48569523D01*
X89908095Y-48474285D01*
X89860476Y-48283809D01*
X89860476Y-48140952D01*
X89908095Y-47950476D01*
X89955714Y-47855238D01*
X90050952Y-47760000D01*
X90193809Y-47712380D01*
X90289047Y-47712380D01*
X90431904Y-47760000D01*
X90479523Y-47807619D01*
X49823809Y-44902380D02*
X49823809Y-43902380D01*
X50157142Y-44616666D01*
X50490476Y-43902380D01*
X50490476Y-44902380D01*
X50966666Y-44902380D02*
X50966666Y-44235714D01*
X50966666Y-43902380D02*
X50919047Y-43950000D01*
X50966666Y-43997619D01*
X51014285Y-43950000D01*
X50966666Y-43902380D01*
X50966666Y-43997619D01*
X51347619Y-44902380D02*
X51871428Y-44235714D01*
X51347619Y-44235714D02*
X51871428Y-44902380D01*
X53649523Y-44902380D02*
X53316190Y-44426190D01*
X53078095Y-44902380D02*
X53078095Y-43902380D01*
X53459047Y-43902380D01*
X53554285Y-43950000D01*
X53601904Y-43997619D01*
X53649523Y-44092857D01*
X53649523Y-44235714D01*
X53601904Y-44330952D01*
X53554285Y-44378571D01*
X53459047Y-44426190D01*
X53078095Y-44426190D01*
X235998095Y-60142380D02*
X235998095Y-59142380D01*
X236236190Y-59142380D01*
X236379047Y-59190000D01*
X236474285Y-59285238D01*
X236521904Y-59380476D01*
X236569523Y-59570952D01*
X236569523Y-59713809D01*
X236521904Y-59904285D01*
X236474285Y-59999523D01*
X236379047Y-60094761D01*
X236236190Y-60142380D01*
X235998095Y-60142380D01*
X236998095Y-60142380D02*
X236998095Y-59475714D01*
X236998095Y-59666190D02*
X237045714Y-59570952D01*
X237093333Y-59523333D01*
X237188571Y-59475714D01*
X237283809Y-59475714D01*
X237521904Y-59475714D02*
X237760000Y-60142380D01*
X237998095Y-59475714D02*
X237760000Y-60142380D01*
X237664761Y-60380476D01*
X237617142Y-60428095D01*
X237521904Y-60475714D01*
X239093333Y-59094761D02*
X238236190Y-60380476D01*
X239331428Y-59142380D02*
X239569523Y-60142380D01*
X239760000Y-59428095D01*
X239950476Y-60142380D01*
X240188571Y-59142380D01*
X240950476Y-60094761D02*
X240855238Y-60142380D01*
X240664761Y-60142380D01*
X240569523Y-60094761D01*
X240521904Y-59999523D01*
X240521904Y-59618571D01*
X240569523Y-59523333D01*
X240664761Y-59475714D01*
X240855238Y-59475714D01*
X240950476Y-59523333D01*
X240998095Y-59618571D01*
X240998095Y-59713809D01*
X240521904Y-59809047D01*
X241283809Y-59475714D02*
X241664761Y-59475714D01*
X241426666Y-59142380D02*
X241426666Y-59999523D01*
X241474285Y-60094761D01*
X241569523Y-60142380D01*
X241664761Y-60142380D01*
X48569523Y-44902380D02*
X48093333Y-44902380D01*
X48093333Y-43902380D01*
X200438095Y-57602380D02*
X200438095Y-56602380D01*
X200676190Y-56602380D01*
X200819047Y-56650000D01*
X200914285Y-56745238D01*
X200961904Y-56840476D01*
X201009523Y-57030952D01*
X201009523Y-57173809D01*
X200961904Y-57364285D01*
X200914285Y-57459523D01*
X200819047Y-57554761D01*
X200676190Y-57602380D01*
X200438095Y-57602380D01*
X201438095Y-57602380D02*
X201438095Y-56935714D01*
X201438095Y-57126190D02*
X201485714Y-57030952D01*
X201533333Y-56983333D01*
X201628571Y-56935714D01*
X201723809Y-56935714D01*
X201961904Y-56935714D02*
X202200000Y-57602380D01*
X202438095Y-56935714D02*
X202200000Y-57602380D01*
X202104761Y-57840476D01*
X202057142Y-57888095D01*
X201961904Y-57935714D01*
X203533333Y-56554761D02*
X202676190Y-57840476D01*
X203771428Y-56602380D02*
X204009523Y-57602380D01*
X204200000Y-56888095D01*
X204390476Y-57602380D01*
X204628571Y-56602380D01*
X205390476Y-57554761D02*
X205295238Y-57602380D01*
X205104761Y-57602380D01*
X205009523Y-57554761D01*
X204961904Y-57459523D01*
X204961904Y-57078571D01*
X205009523Y-56983333D01*
X205104761Y-56935714D01*
X205295238Y-56935714D01*
X205390476Y-56983333D01*
X205438095Y-57078571D01*
X205438095Y-57173809D01*
X204961904Y-57269047D01*
X205723809Y-56935714D02*
X206104761Y-56935714D01*
X205866666Y-56602380D02*
X205866666Y-57459523D01*
X205914285Y-57554761D01*
X206009523Y-57602380D01*
X206104761Y-57602380D01*
X156790476Y-65222380D02*
X156790476Y-64222380D01*
X157123809Y-64936666D01*
X157457142Y-64222380D01*
X157457142Y-65222380D01*
X158076190Y-65222380D02*
X157980952Y-65174761D01*
X157933333Y-65127142D01*
X157885714Y-65031904D01*
X157885714Y-64746190D01*
X157933333Y-64650952D01*
X157980952Y-64603333D01*
X158076190Y-64555714D01*
X158219047Y-64555714D01*
X158314285Y-64603333D01*
X158361904Y-64650952D01*
X158409523Y-64746190D01*
X158409523Y-65031904D01*
X158361904Y-65127142D01*
X158314285Y-65174761D01*
X158219047Y-65222380D01*
X158076190Y-65222380D01*
X158838095Y-64555714D02*
X158838095Y-65222380D01*
X158838095Y-64650952D02*
X158885714Y-64603333D01*
X158980952Y-64555714D01*
X159123809Y-64555714D01*
X159219047Y-64603333D01*
X159266666Y-64698571D01*
X159266666Y-65222380D01*
X159885714Y-65222380D02*
X159790476Y-65174761D01*
X159742857Y-65127142D01*
X159695238Y-65031904D01*
X159695238Y-64746190D01*
X159742857Y-64650952D01*
X159790476Y-64603333D01*
X159885714Y-64555714D01*
X160028571Y-64555714D01*
X160123809Y-64603333D01*
X160171428Y-64650952D01*
X160219047Y-64746190D01*
X160219047Y-65031904D01*
X160171428Y-65127142D01*
X160123809Y-65174761D01*
X160028571Y-65222380D01*
X159885714Y-65222380D01*
X161409523Y-64841428D02*
X162171428Y-64841428D01*
X163361904Y-65174761D02*
X163504761Y-65222380D01*
X163742857Y-65222380D01*
X163838095Y-65174761D01*
X163885714Y-65127142D01*
X163933333Y-65031904D01*
X163933333Y-64936666D01*
X163885714Y-64841428D01*
X163838095Y-64793809D01*
X163742857Y-64746190D01*
X163552380Y-64698571D01*
X163457142Y-64650952D01*
X163409523Y-64603333D01*
X163361904Y-64508095D01*
X163361904Y-64412857D01*
X163409523Y-64317619D01*
X163457142Y-64270000D01*
X163552380Y-64222380D01*
X163790476Y-64222380D01*
X163933333Y-64270000D01*
X164219047Y-64555714D02*
X164600000Y-64555714D01*
X164361904Y-64222380D02*
X164361904Y-65079523D01*
X164409523Y-65174761D01*
X164504761Y-65222380D01*
X164600000Y-65222380D01*
X165314285Y-65174761D02*
X165219047Y-65222380D01*
X165028571Y-65222380D01*
X164933333Y-65174761D01*
X164885714Y-65079523D01*
X164885714Y-64698571D01*
X164933333Y-64603333D01*
X165028571Y-64555714D01*
X165219047Y-64555714D01*
X165314285Y-64603333D01*
X165361904Y-64698571D01*
X165361904Y-64793809D01*
X164885714Y-64889047D01*
X165790476Y-65222380D02*
X165790476Y-64555714D01*
X165790476Y-64746190D02*
X165838095Y-64650952D01*
X165885714Y-64603333D01*
X165980952Y-64555714D01*
X166076190Y-64555714D01*
X166790476Y-65174761D02*
X166695238Y-65222380D01*
X166504761Y-65222380D01*
X166409523Y-65174761D01*
X166361904Y-65079523D01*
X166361904Y-64698571D01*
X166409523Y-64603333D01*
X166504761Y-64555714D01*
X166695238Y-64555714D01*
X166790476Y-64603333D01*
X166838095Y-64698571D01*
X166838095Y-64793809D01*
X166361904Y-64889047D01*
X167409523Y-65222380D02*
X167314285Y-65174761D01*
X167266666Y-65127142D01*
X167219047Y-65031904D01*
X167219047Y-64746190D01*
X167266666Y-64650952D01*
X167314285Y-64603333D01*
X167409523Y-64555714D01*
X167552380Y-64555714D01*
X167647619Y-64603333D01*
X167695238Y-64650952D01*
X167742857Y-64746190D01*
X167742857Y-65031904D01*
X167695238Y-65127142D01*
X167647619Y-65174761D01*
X167552380Y-65222380D01*
X167409523Y-65222380D01*
X168933333Y-64841428D02*
X169695238Y-64841428D01*
X170885714Y-64317619D02*
X170933333Y-64270000D01*
X171028571Y-64222380D01*
X171266666Y-64222380D01*
X171361904Y-64270000D01*
X171409523Y-64317619D01*
X171457142Y-64412857D01*
X171457142Y-64508095D01*
X171409523Y-64650952D01*
X170838095Y-65222380D01*
X171457142Y-65222380D01*
X172600000Y-64174761D02*
X171742857Y-65460476D01*
X172838095Y-64222380D02*
X173457142Y-64222380D01*
X173123809Y-64603333D01*
X173266666Y-64603333D01*
X173361904Y-64650952D01*
X173409523Y-64698571D01*
X173457142Y-64793809D01*
X173457142Y-65031904D01*
X173409523Y-65127142D01*
X173361904Y-65174761D01*
X173266666Y-65222380D01*
X172980952Y-65222380D01*
X172885714Y-65174761D01*
X172838095Y-65127142D01*
X90241428Y-50728571D02*
X90384285Y-50776190D01*
X90431904Y-50823809D01*
X90479523Y-50919047D01*
X90479523Y-51061904D01*
X90431904Y-51157142D01*
X90384285Y-51204761D01*
X90289047Y-51252380D01*
X89908095Y-51252380D01*
X89908095Y-50252380D01*
X90241428Y-50252380D01*
X90336666Y-50300000D01*
X90384285Y-50347619D01*
X90431904Y-50442857D01*
X90431904Y-50538095D01*
X90384285Y-50633333D01*
X90336666Y-50680952D01*
X90241428Y-50728571D01*
X89908095Y-50728571D01*
X89931904Y-53506666D02*
X90408095Y-53506666D01*
X89836666Y-53792380D02*
X90170000Y-52792380D01*
X90503333Y-53792380D01*
X118690476Y-63317380D02*
X118690476Y-62317380D01*
X119023809Y-63031666D01*
X119357142Y-62317380D01*
X119357142Y-63317380D01*
X119976190Y-63317380D02*
X119880952Y-63269761D01*
X119833333Y-63222142D01*
X119785714Y-63126904D01*
X119785714Y-62841190D01*
X119833333Y-62745952D01*
X119880952Y-62698333D01*
X119976190Y-62650714D01*
X120119047Y-62650714D01*
X120214285Y-62698333D01*
X120261904Y-62745952D01*
X120309523Y-62841190D01*
X120309523Y-63126904D01*
X120261904Y-63222142D01*
X120214285Y-63269761D01*
X120119047Y-63317380D01*
X119976190Y-63317380D01*
X120738095Y-62650714D02*
X120738095Y-63317380D01*
X120738095Y-62745952D02*
X120785714Y-62698333D01*
X120880952Y-62650714D01*
X121023809Y-62650714D01*
X121119047Y-62698333D01*
X121166666Y-62793571D01*
X121166666Y-63317380D01*
X121785714Y-63317380D02*
X121690476Y-63269761D01*
X121642857Y-63222142D01*
X121595238Y-63126904D01*
X121595238Y-62841190D01*
X121642857Y-62745952D01*
X121690476Y-62698333D01*
X121785714Y-62650714D01*
X121928571Y-62650714D01*
X122023809Y-62698333D01*
X122071428Y-62745952D01*
X122119047Y-62841190D01*
X122119047Y-63126904D01*
X122071428Y-63222142D01*
X122023809Y-63269761D01*
X121928571Y-63317380D01*
X121785714Y-63317380D01*
X123309523Y-62936428D02*
X124071428Y-62936428D01*
X125261904Y-63269761D02*
X125404761Y-63317380D01*
X125642857Y-63317380D01*
X125738095Y-63269761D01*
X125785714Y-63222142D01*
X125833333Y-63126904D01*
X125833333Y-63031666D01*
X125785714Y-62936428D01*
X125738095Y-62888809D01*
X125642857Y-62841190D01*
X125452380Y-62793571D01*
X125357142Y-62745952D01*
X125309523Y-62698333D01*
X125261904Y-62603095D01*
X125261904Y-62507857D01*
X125309523Y-62412619D01*
X125357142Y-62365000D01*
X125452380Y-62317380D01*
X125690476Y-62317380D01*
X125833333Y-62365000D01*
X126119047Y-62650714D02*
X126500000Y-62650714D01*
X126261904Y-62317380D02*
X126261904Y-63174523D01*
X126309523Y-63269761D01*
X126404761Y-63317380D01*
X126500000Y-63317380D01*
X127214285Y-63269761D02*
X127119047Y-63317380D01*
X126928571Y-63317380D01*
X126833333Y-63269761D01*
X126785714Y-63174523D01*
X126785714Y-62793571D01*
X126833333Y-62698333D01*
X126928571Y-62650714D01*
X127119047Y-62650714D01*
X127214285Y-62698333D01*
X127261904Y-62793571D01*
X127261904Y-62888809D01*
X126785714Y-62984047D01*
X127690476Y-63317380D02*
X127690476Y-62650714D01*
X127690476Y-62841190D02*
X127738095Y-62745952D01*
X127785714Y-62698333D01*
X127880952Y-62650714D01*
X127976190Y-62650714D01*
X128690476Y-63269761D02*
X128595238Y-63317380D01*
X128404761Y-63317380D01*
X128309523Y-63269761D01*
X128261904Y-63174523D01*
X128261904Y-62793571D01*
X128309523Y-62698333D01*
X128404761Y-62650714D01*
X128595238Y-62650714D01*
X128690476Y-62698333D01*
X128738095Y-62793571D01*
X128738095Y-62888809D01*
X128261904Y-62984047D01*
X129309523Y-63317380D02*
X129214285Y-63269761D01*
X129166666Y-63222142D01*
X129119047Y-63126904D01*
X129119047Y-62841190D01*
X129166666Y-62745952D01*
X129214285Y-62698333D01*
X129309523Y-62650714D01*
X129452380Y-62650714D01*
X129547619Y-62698333D01*
X129595238Y-62745952D01*
X129642857Y-62841190D01*
X129642857Y-63126904D01*
X129595238Y-63222142D01*
X129547619Y-63269761D01*
X129452380Y-63317380D01*
X129309523Y-63317380D01*
X130833333Y-62936428D02*
X131595238Y-62936428D01*
X132785714Y-62412619D02*
X132833333Y-62365000D01*
X132928571Y-62317380D01*
X133166666Y-62317380D01*
X133261904Y-62365000D01*
X133309523Y-62412619D01*
X133357142Y-62507857D01*
X133357142Y-62603095D01*
X133309523Y-62745952D01*
X132738095Y-63317380D01*
X133357142Y-63317380D01*
X134500000Y-62269761D02*
X133642857Y-63555476D01*
X134738095Y-62317380D02*
X135357142Y-62317380D01*
X135023809Y-62698333D01*
X135166666Y-62698333D01*
X135261904Y-62745952D01*
X135309523Y-62793571D01*
X135357142Y-62888809D01*
X135357142Y-63126904D01*
X135309523Y-63222142D01*
X135261904Y-63269761D01*
X135166666Y-63317380D01*
X134880952Y-63317380D01*
X134785714Y-63269761D01*
X134738095Y-63222142D01*
X253619047Y-25471428D02*
X254380952Y-25471428D01*
X254000000Y-25852380D02*
X254000000Y-25090476D01*
X238426666Y-49192380D02*
X238426666Y-49906666D01*
X238379047Y-50049523D01*
X238283809Y-50144761D01*
X238140952Y-50192380D01*
X238045714Y-50192380D01*
X239331428Y-49525714D02*
X239331428Y-50192380D01*
X239093333Y-49144761D02*
X238855238Y-49859047D01*
X239474285Y-49859047D01*
X84857380Y-28834523D02*
X85571666Y-28834523D01*
X85714523Y-28882142D01*
X85809761Y-28977380D01*
X85857380Y-29120238D01*
X85857380Y-29215476D01*
X85857380Y-27834523D02*
X85857380Y-28405952D01*
X85857380Y-28120238D02*
X84857380Y-28120238D01*
X85000238Y-28215476D01*
X85095476Y-28310714D01*
X85143095Y-28405952D01*
X84857380Y-27501190D02*
X84857380Y-26882142D01*
X85238333Y-27215476D01*
X85238333Y-27072619D01*
X85285952Y-26977380D01*
X85333571Y-26929761D01*
X85428809Y-26882142D01*
X85666904Y-26882142D01*
X85762142Y-26929761D01*
X85809761Y-26977380D01*
X85857380Y-27072619D01*
X85857380Y-27358333D01*
X85809761Y-27453571D01*
X85762142Y-27501190D01*
X255087142Y-56522857D02*
X255134761Y-56570476D01*
X255182380Y-56713333D01*
X255182380Y-56808571D01*
X255134761Y-56951428D01*
X255039523Y-57046666D01*
X254944285Y-57094285D01*
X254753809Y-57141904D01*
X254610952Y-57141904D01*
X254420476Y-57094285D01*
X254325238Y-57046666D01*
X254230000Y-56951428D01*
X254182380Y-56808571D01*
X254182380Y-56713333D01*
X254230000Y-56570476D01*
X254277619Y-56522857D01*
X254182380Y-56189523D02*
X254182380Y-55570476D01*
X254563333Y-55903809D01*
X254563333Y-55760952D01*
X254610952Y-55665714D01*
X254658571Y-55618095D01*
X254753809Y-55570476D01*
X254991904Y-55570476D01*
X255087142Y-55618095D01*
X255134761Y-55665714D01*
X255182380Y-55760952D01*
X255182380Y-56046666D01*
X255134761Y-56141904D01*
X255087142Y-56189523D01*
X254277619Y-55189523D02*
X254230000Y-55141904D01*
X254182380Y-55046666D01*
X254182380Y-54808571D01*
X254230000Y-54713333D01*
X254277619Y-54665714D01*
X254372857Y-54618095D01*
X254468095Y-54618095D01*
X254610952Y-54665714D01*
X255182380Y-55237142D01*
X255182380Y-54618095D01*
X126666666Y-51732380D02*
X126666666Y-52446666D01*
X126619047Y-52589523D01*
X126523809Y-52684761D01*
X126380952Y-52732380D01*
X126285714Y-52732380D01*
X127047619Y-51732380D02*
X127714285Y-51732380D01*
X127285714Y-52732380D01*
X263882142Y-45830638D02*
X263929761Y-45878257D01*
X263977380Y-46021114D01*
X263977380Y-46116352D01*
X263929761Y-46259209D01*
X263834523Y-46354447D01*
X263739285Y-46402066D01*
X263548809Y-46449685D01*
X263405952Y-46449685D01*
X263215476Y-46402066D01*
X263120238Y-46354447D01*
X263025000Y-46259209D01*
X262977380Y-46116352D01*
X262977380Y-46021114D01*
X263025000Y-45878257D01*
X263072619Y-45830638D01*
X262977380Y-45497304D02*
X262977380Y-44878257D01*
X263358333Y-45211590D01*
X263358333Y-45068733D01*
X263405952Y-44973495D01*
X263453571Y-44925876D01*
X263548809Y-44878257D01*
X263786904Y-44878257D01*
X263882142Y-44925876D01*
X263929761Y-44973495D01*
X263977380Y-45068733D01*
X263977380Y-45354447D01*
X263929761Y-45449685D01*
X263882142Y-45497304D01*
X262977380Y-44544923D02*
X262977380Y-43925876D01*
X263358333Y-44259209D01*
X263358333Y-44116352D01*
X263405952Y-44021114D01*
X263453571Y-43973495D01*
X263548809Y-43925876D01*
X263786904Y-43925876D01*
X263882142Y-43973495D01*
X263929761Y-44021114D01*
X263977380Y-44116352D01*
X263977380Y-44402066D01*
X263929761Y-44497304D01*
X263882142Y-44544923D01*
X251122380Y-23669523D02*
X251836666Y-23669523D01*
X251979523Y-23717142D01*
X252074761Y-23812380D01*
X252122380Y-23955238D01*
X252122380Y-24050476D01*
X252122380Y-22669523D02*
X252122380Y-23240952D01*
X252122380Y-22955238D02*
X251122380Y-22955238D01*
X251265238Y-23050476D01*
X251360476Y-23145714D01*
X251408095Y-23240952D01*
X251122380Y-21764761D02*
X251122380Y-22240952D01*
X251598571Y-22288571D01*
X251550952Y-22240952D01*
X251503333Y-22145714D01*
X251503333Y-21907619D01*
X251550952Y-21812380D01*
X251598571Y-21764761D01*
X251693809Y-21717142D01*
X251931904Y-21717142D01*
X252027142Y-21764761D01*
X252074761Y-21812380D01*
X252122380Y-21907619D01*
X252122380Y-22145714D01*
X252074761Y-22240952D01*
X252027142Y-22288571D01*
X227097380Y-28358333D02*
X227811666Y-28358333D01*
X227954523Y-28405952D01*
X228049761Y-28501190D01*
X228097380Y-28644047D01*
X228097380Y-28739285D01*
X228097380Y-27358333D02*
X228097380Y-27929761D01*
X228097380Y-27644047D02*
X227097380Y-27644047D01*
X227240238Y-27739285D01*
X227335476Y-27834523D01*
X227383095Y-27929761D01*
X135657380Y-28834523D02*
X136371666Y-28834523D01*
X136514523Y-28882142D01*
X136609761Y-28977380D01*
X136657380Y-29120238D01*
X136657380Y-29215476D01*
X136657380Y-27834523D02*
X136657380Y-28405952D01*
X136657380Y-28120238D02*
X135657380Y-28120238D01*
X135800238Y-28215476D01*
X135895476Y-28310714D01*
X135943095Y-28405952D01*
X135752619Y-27453571D02*
X135705000Y-27405952D01*
X135657380Y-27310714D01*
X135657380Y-27072619D01*
X135705000Y-26977380D01*
X135752619Y-26929761D01*
X135847857Y-26882142D01*
X135943095Y-26882142D01*
X136085952Y-26929761D01*
X136657380Y-27501190D01*
X136657380Y-26882142D01*
X133747142Y-52732857D02*
X133794761Y-52780476D01*
X133842380Y-52923333D01*
X133842380Y-53018571D01*
X133794761Y-53161428D01*
X133699523Y-53256666D01*
X133604285Y-53304285D01*
X133413809Y-53351904D01*
X133270952Y-53351904D01*
X133080476Y-53304285D01*
X132985238Y-53256666D01*
X132890000Y-53161428D01*
X132842380Y-53018571D01*
X132842380Y-52923333D01*
X132890000Y-52780476D01*
X132937619Y-52732857D01*
X133842380Y-51780476D02*
X133842380Y-52351904D01*
X133842380Y-52066190D02*
X132842380Y-52066190D01*
X132985238Y-52161428D01*
X133080476Y-52256666D01*
X133128095Y-52351904D01*
X132842380Y-50923333D02*
X132842380Y-51113809D01*
X132890000Y-51209047D01*
X132937619Y-51256666D01*
X133080476Y-51351904D01*
X133270952Y-51399523D01*
X133651904Y-51399523D01*
X133747142Y-51351904D01*
X133794761Y-51304285D01*
X133842380Y-51209047D01*
X133842380Y-51018571D01*
X133794761Y-50923333D01*
X133747142Y-50875714D01*
X133651904Y-50828095D01*
X133413809Y-50828095D01*
X133318571Y-50875714D01*
X133270952Y-50923333D01*
X133223333Y-51018571D01*
X133223333Y-51209047D01*
X133270952Y-51304285D01*
X133318571Y-51351904D01*
X133413809Y-51399523D01*
X201697380Y-28358333D02*
X202411666Y-28358333D01*
X202554523Y-28405952D01*
X202649761Y-28501190D01*
X202697380Y-28644047D01*
X202697380Y-28739285D01*
X201697380Y-27453571D02*
X201697380Y-27644047D01*
X201745000Y-27739285D01*
X201792619Y-27786904D01*
X201935476Y-27882142D01*
X202125952Y-27929761D01*
X202506904Y-27929761D01*
X202602142Y-27882142D01*
X202649761Y-27834523D01*
X202697380Y-27739285D01*
X202697380Y-27548809D01*
X202649761Y-27453571D01*
X202602142Y-27405952D01*
X202506904Y-27358333D01*
X202268809Y-27358333D01*
X202173571Y-27405952D01*
X202125952Y-27453571D01*
X202078333Y-27548809D01*
X202078333Y-27739285D01*
X202125952Y-27834523D01*
X202173571Y-27882142D01*
X202268809Y-27929761D01*
X45386666Y-48982380D02*
X45386666Y-49696666D01*
X45339047Y-49839523D01*
X45243809Y-49934761D01*
X45100952Y-49982380D01*
X45005714Y-49982380D01*
X45815238Y-49077619D02*
X45862857Y-49030000D01*
X45958095Y-48982380D01*
X46196190Y-48982380D01*
X46291428Y-49030000D01*
X46339047Y-49077619D01*
X46386666Y-49172857D01*
X46386666Y-49268095D01*
X46339047Y-49410952D01*
X45767619Y-49982380D01*
X46386666Y-49982380D01*
X207407142Y-47652857D02*
X207454761Y-47700476D01*
X207502380Y-47843333D01*
X207502380Y-47938571D01*
X207454761Y-48081428D01*
X207359523Y-48176666D01*
X207264285Y-48224285D01*
X207073809Y-48271904D01*
X206930952Y-48271904D01*
X206740476Y-48224285D01*
X206645238Y-48176666D01*
X206550000Y-48081428D01*
X206502380Y-47938571D01*
X206502380Y-47843333D01*
X206550000Y-47700476D01*
X206597619Y-47652857D01*
X206597619Y-47271904D02*
X206550000Y-47224285D01*
X206502380Y-47129047D01*
X206502380Y-46890952D01*
X206550000Y-46795714D01*
X206597619Y-46748095D01*
X206692857Y-46700476D01*
X206788095Y-46700476D01*
X206930952Y-46748095D01*
X207502380Y-47319523D01*
X207502380Y-46700476D01*
X206502380Y-46081428D02*
X206502380Y-45986190D01*
X206550000Y-45890952D01*
X206597619Y-45843333D01*
X206692857Y-45795714D01*
X206883333Y-45748095D01*
X207121428Y-45748095D01*
X207311904Y-45795714D01*
X207407142Y-45843333D01*
X207454761Y-45890952D01*
X207502380Y-45986190D01*
X207502380Y-46081428D01*
X207454761Y-46176666D01*
X207407142Y-46224285D01*
X207311904Y-46271904D01*
X207121428Y-46319523D01*
X206883333Y-46319523D01*
X206692857Y-46271904D01*
X206597619Y-46224285D01*
X206550000Y-46176666D01*
X206502380Y-46081428D01*
X13737380Y-28358333D02*
X14451666Y-28358333D01*
X14594523Y-28405952D01*
X14689761Y-28501190D01*
X14737380Y-28644047D01*
X14737380Y-28739285D01*
X14737380Y-27834523D02*
X14737380Y-27644047D01*
X14689761Y-27548809D01*
X14642142Y-27501190D01*
X14499285Y-27405952D01*
X14308809Y-27358333D01*
X13927857Y-27358333D01*
X13832619Y-27405952D01*
X13785000Y-27453571D01*
X13737380Y-27548809D01*
X13737380Y-27739285D01*
X13785000Y-27834523D01*
X13832619Y-27882142D01*
X13927857Y-27929761D01*
X14165952Y-27929761D01*
X14261190Y-27882142D01*
X14308809Y-27834523D01*
X14356428Y-27739285D01*
X14356428Y-27548809D01*
X14308809Y-27453571D01*
X14261190Y-27405952D01*
X14165952Y-27358333D01*
X34282142Y-42902142D02*
X34234523Y-42949761D01*
X34091666Y-42997380D01*
X33996428Y-42997380D01*
X33853571Y-42949761D01*
X33758333Y-42854523D01*
X33710714Y-42759285D01*
X33663095Y-42568809D01*
X33663095Y-42425952D01*
X33710714Y-42235476D01*
X33758333Y-42140238D01*
X33853571Y-42045000D01*
X33996428Y-41997380D01*
X34091666Y-41997380D01*
X34234523Y-42045000D01*
X34282142Y-42092619D01*
X35234523Y-42997380D02*
X34663095Y-42997380D01*
X34948809Y-42997380D02*
X34948809Y-41997380D01*
X34853571Y-42140238D01*
X34758333Y-42235476D01*
X34663095Y-42283095D01*
X36186904Y-42997380D02*
X35615476Y-42997380D01*
X35901190Y-42997380D02*
X35901190Y-41997380D01*
X35805952Y-42140238D01*
X35710714Y-42235476D01*
X35615476Y-42283095D01*
X187761666Y-44537380D02*
X187761666Y-45251666D01*
X187714047Y-45394523D01*
X187618809Y-45489761D01*
X187475952Y-45537380D01*
X187380714Y-45537380D01*
X188237857Y-45537380D02*
X188237857Y-44537380D01*
X188618809Y-44537380D01*
X188714047Y-44585000D01*
X188761666Y-44632619D01*
X188809285Y-44727857D01*
X188809285Y-44870714D01*
X188761666Y-44965952D01*
X188714047Y-45013571D01*
X188618809Y-45061190D01*
X188237857Y-45061190D01*
X189190238Y-44632619D02*
X189237857Y-44585000D01*
X189333095Y-44537380D01*
X189571190Y-44537380D01*
X189666428Y-44585000D01*
X189714047Y-44632619D01*
X189761666Y-44727857D01*
X189761666Y-44823095D01*
X189714047Y-44965952D01*
X189142619Y-45537380D01*
X189761666Y-45537380D01*
X248086666Y-57662380D02*
X248086666Y-58376666D01*
X248039047Y-58519523D01*
X247943809Y-58614761D01*
X247800952Y-58662380D01*
X247705714Y-58662380D01*
X248562857Y-58662380D02*
X248562857Y-57662380D01*
X248943809Y-57662380D01*
X249039047Y-57710000D01*
X249086666Y-57757619D01*
X249134285Y-57852857D01*
X249134285Y-57995714D01*
X249086666Y-58090952D01*
X249039047Y-58138571D01*
X248943809Y-58186190D01*
X248562857Y-58186190D01*
X250086666Y-58662380D02*
X249515238Y-58662380D01*
X249800952Y-58662380D02*
X249800952Y-57662380D01*
X249705714Y-57805238D01*
X249610476Y-57900476D01*
X249515238Y-57948095D01*
X161057380Y-28834523D02*
X161771666Y-28834523D01*
X161914523Y-28882142D01*
X162009761Y-28977380D01*
X162057380Y-29120238D01*
X162057380Y-29215476D01*
X162057380Y-27834523D02*
X162057380Y-28405952D01*
X162057380Y-28120238D02*
X161057380Y-28120238D01*
X161200238Y-28215476D01*
X161295476Y-28310714D01*
X161343095Y-28405952D01*
X161057380Y-27215476D02*
X161057380Y-27120238D01*
X161105000Y-27025000D01*
X161152619Y-26977380D01*
X161247857Y-26929761D01*
X161438333Y-26882142D01*
X161676428Y-26882142D01*
X161866904Y-26929761D01*
X161962142Y-26977380D01*
X162009761Y-27025000D01*
X162057380Y-27120238D01*
X162057380Y-27215476D01*
X162009761Y-27310714D01*
X161962142Y-27358333D01*
X161866904Y-27405952D01*
X161676428Y-27453571D01*
X161438333Y-27453571D01*
X161247857Y-27405952D01*
X161152619Y-27358333D01*
X161105000Y-27310714D01*
X161057380Y-27215476D01*
X29822142Y-57557142D02*
X29774523Y-57604761D01*
X29631666Y-57652380D01*
X29536428Y-57652380D01*
X29393571Y-57604761D01*
X29298333Y-57509523D01*
X29250714Y-57414285D01*
X29203095Y-57223809D01*
X29203095Y-57080952D01*
X29250714Y-56890476D01*
X29298333Y-56795238D01*
X29393571Y-56700000D01*
X29536428Y-56652380D01*
X29631666Y-56652380D01*
X29774523Y-56700000D01*
X29822142Y-56747619D01*
X30155476Y-56652380D02*
X30774523Y-56652380D01*
X30441190Y-57033333D01*
X30584047Y-57033333D01*
X30679285Y-57080952D01*
X30726904Y-57128571D01*
X30774523Y-57223809D01*
X30774523Y-57461904D01*
X30726904Y-57557142D01*
X30679285Y-57604761D01*
X30584047Y-57652380D01*
X30298333Y-57652380D01*
X30203095Y-57604761D01*
X30155476Y-57557142D01*
X31393571Y-56652380D02*
X31488809Y-56652380D01*
X31584047Y-56700000D01*
X31631666Y-56747619D01*
X31679285Y-56842857D01*
X31726904Y-57033333D01*
X31726904Y-57271428D01*
X31679285Y-57461904D01*
X31631666Y-57557142D01*
X31584047Y-57604761D01*
X31488809Y-57652380D01*
X31393571Y-57652380D01*
X31298333Y-57604761D01*
X31250714Y-57557142D01*
X31203095Y-57461904D01*
X31155476Y-57271428D01*
X31155476Y-57033333D01*
X31203095Y-56842857D01*
X31250714Y-56747619D01*
X31298333Y-56700000D01*
X31393571Y-56652380D01*
X39137380Y-28358333D02*
X39851666Y-28358333D01*
X39994523Y-28405952D01*
X40089761Y-28501190D01*
X40137380Y-28644047D01*
X40137380Y-28739285D01*
X39137380Y-27405952D02*
X39137380Y-27882142D01*
X39613571Y-27929761D01*
X39565952Y-27882142D01*
X39518333Y-27786904D01*
X39518333Y-27548809D01*
X39565952Y-27453571D01*
X39613571Y-27405952D01*
X39708809Y-27358333D01*
X39946904Y-27358333D01*
X40042142Y-27405952D01*
X40089761Y-27453571D01*
X40137380Y-27548809D01*
X40137380Y-27786904D01*
X40089761Y-27882142D01*
X40042142Y-27929761D01*
X247372142Y-45727857D02*
X247419761Y-45775476D01*
X247467380Y-45918333D01*
X247467380Y-46013571D01*
X247419761Y-46156428D01*
X247324523Y-46251666D01*
X247229285Y-46299285D01*
X247038809Y-46346904D01*
X246895952Y-46346904D01*
X246705476Y-46299285D01*
X246610238Y-46251666D01*
X246515000Y-46156428D01*
X246467380Y-46013571D01*
X246467380Y-45918333D01*
X246515000Y-45775476D01*
X246562619Y-45727857D01*
X246467380Y-45394523D02*
X246467380Y-44775476D01*
X246848333Y-45108809D01*
X246848333Y-44965952D01*
X246895952Y-44870714D01*
X246943571Y-44823095D01*
X247038809Y-44775476D01*
X247276904Y-44775476D01*
X247372142Y-44823095D01*
X247419761Y-44870714D01*
X247467380Y-44965952D01*
X247467380Y-45251666D01*
X247419761Y-45346904D01*
X247372142Y-45394523D01*
X246895952Y-44204047D02*
X246848333Y-44299285D01*
X246800714Y-44346904D01*
X246705476Y-44394523D01*
X246657857Y-44394523D01*
X246562619Y-44346904D01*
X246515000Y-44299285D01*
X246467380Y-44204047D01*
X246467380Y-44013571D01*
X246515000Y-43918333D01*
X246562619Y-43870714D01*
X246657857Y-43823095D01*
X246705476Y-43823095D01*
X246800714Y-43870714D01*
X246848333Y-43918333D01*
X246895952Y-44013571D01*
X246895952Y-44204047D01*
X246943571Y-44299285D01*
X246991190Y-44346904D01*
X247086428Y-44394523D01*
X247276904Y-44394523D01*
X247372142Y-44346904D01*
X247419761Y-44299285D01*
X247467380Y-44204047D01*
X247467380Y-44013571D01*
X247419761Y-43918333D01*
X247372142Y-43870714D01*
X247276904Y-43823095D01*
X247086428Y-43823095D01*
X246991190Y-43870714D01*
X246943571Y-43918333D01*
X246895952Y-44013571D01*
X38536666Y-50477380D02*
X38536666Y-51191666D01*
X38489047Y-51334523D01*
X38393809Y-51429761D01*
X38250952Y-51477380D01*
X38155714Y-51477380D01*
X39012857Y-51477380D02*
X39012857Y-50477380D01*
X39393809Y-50477380D01*
X39489047Y-50525000D01*
X39536666Y-50572619D01*
X39584285Y-50667857D01*
X39584285Y-50810714D01*
X39536666Y-50905952D01*
X39489047Y-50953571D01*
X39393809Y-51001190D01*
X39012857Y-51001190D01*
X39917619Y-50477380D02*
X40536666Y-50477380D01*
X40203333Y-50858333D01*
X40346190Y-50858333D01*
X40441428Y-50905952D01*
X40489047Y-50953571D01*
X40536666Y-51048809D01*
X40536666Y-51286904D01*
X40489047Y-51382142D01*
X40441428Y-51429761D01*
X40346190Y-51477380D01*
X40060476Y-51477380D01*
X39965238Y-51429761D01*
X39917619Y-51382142D01*
X220228095Y-42852380D02*
X220228095Y-43661904D01*
X220275714Y-43757142D01*
X220323333Y-43804761D01*
X220418571Y-43852380D01*
X220609047Y-43852380D01*
X220704285Y-43804761D01*
X220751904Y-43757142D01*
X220799523Y-43661904D01*
X220799523Y-42852380D01*
X221228095Y-42947619D02*
X221275714Y-42900000D01*
X221370952Y-42852380D01*
X221609047Y-42852380D01*
X221704285Y-42900000D01*
X221751904Y-42947619D01*
X221799523Y-43042857D01*
X221799523Y-43138095D01*
X221751904Y-43280952D01*
X221180476Y-43852380D01*
X221799523Y-43852380D01*
X202866666Y-46652380D02*
X202866666Y-47366666D01*
X202819047Y-47509523D01*
X202723809Y-47604761D01*
X202580952Y-47652380D01*
X202485714Y-47652380D01*
X203485714Y-47080952D02*
X203390476Y-47033333D01*
X203342857Y-46985714D01*
X203295238Y-46890476D01*
X203295238Y-46842857D01*
X203342857Y-46747619D01*
X203390476Y-46700000D01*
X203485714Y-46652380D01*
X203676190Y-46652380D01*
X203771428Y-46700000D01*
X203819047Y-46747619D01*
X203866666Y-46842857D01*
X203866666Y-46890476D01*
X203819047Y-46985714D01*
X203771428Y-47033333D01*
X203676190Y-47080952D01*
X203485714Y-47080952D01*
X203390476Y-47128571D01*
X203342857Y-47176190D01*
X203295238Y-47271428D01*
X203295238Y-47461904D01*
X203342857Y-47557142D01*
X203390476Y-47604761D01*
X203485714Y-47652380D01*
X203676190Y-47652380D01*
X203771428Y-47604761D01*
X203819047Y-47557142D01*
X203866666Y-47461904D01*
X203866666Y-47271428D01*
X203819047Y-47176190D01*
X203771428Y-47128571D01*
X203676190Y-47080952D01*
X74348095Y-59142380D02*
X74348095Y-59951904D01*
X74395714Y-60047142D01*
X74443333Y-60094761D01*
X74538571Y-60142380D01*
X74729047Y-60142380D01*
X74824285Y-60094761D01*
X74871904Y-60047142D01*
X74919523Y-59951904D01*
X74919523Y-59142380D01*
X75824285Y-59475714D02*
X75824285Y-60142380D01*
X75586190Y-59094761D02*
X75348095Y-59809047D01*
X75967142Y-59809047D01*
X146568095Y-47932380D02*
X146568095Y-48741904D01*
X146615714Y-48837142D01*
X146663333Y-48884761D01*
X146758571Y-48932380D01*
X146949047Y-48932380D01*
X147044285Y-48884761D01*
X147091904Y-48837142D01*
X147139523Y-48741904D01*
X147139523Y-47932380D01*
X148139523Y-48932380D02*
X147568095Y-48932380D01*
X147853809Y-48932380D02*
X147853809Y-47932380D01*
X147758571Y-48075238D01*
X147663333Y-48170476D01*
X147568095Y-48218095D01*
X156607142Y-54796666D02*
X156654761Y-54844285D01*
X156702380Y-54987142D01*
X156702380Y-55082380D01*
X156654761Y-55225238D01*
X156559523Y-55320476D01*
X156464285Y-55368095D01*
X156273809Y-55415714D01*
X156130952Y-55415714D01*
X155940476Y-55368095D01*
X155845238Y-55320476D01*
X155750000Y-55225238D01*
X155702380Y-55082380D01*
X155702380Y-54987142D01*
X155750000Y-54844285D01*
X155797619Y-54796666D01*
X155702380Y-53939523D02*
X155702380Y-54130000D01*
X155750000Y-54225238D01*
X155797619Y-54272857D01*
X155940476Y-54368095D01*
X156130952Y-54415714D01*
X156511904Y-54415714D01*
X156607142Y-54368095D01*
X156654761Y-54320476D01*
X156702380Y-54225238D01*
X156702380Y-54034761D01*
X156654761Y-53939523D01*
X156607142Y-53891904D01*
X156511904Y-53844285D01*
X156273809Y-53844285D01*
X156178571Y-53891904D01*
X156130952Y-53939523D01*
X156083333Y-54034761D01*
X156083333Y-54225238D01*
X156130952Y-54320476D01*
X156178571Y-54368095D01*
X156273809Y-54415714D01*
X251122380Y-31313333D02*
X251836666Y-31313333D01*
X251979523Y-31360952D01*
X252074761Y-31456190D01*
X252122380Y-31599047D01*
X252122380Y-31694285D01*
X252122380Y-30837142D02*
X251122380Y-30837142D01*
X251122380Y-30456190D01*
X251170000Y-30360952D01*
X251217619Y-30313333D01*
X251312857Y-30265714D01*
X251455714Y-30265714D01*
X251550952Y-30313333D01*
X251598571Y-30360952D01*
X251646190Y-30456190D01*
X251646190Y-30837142D01*
X251455714Y-29408571D02*
X252122380Y-29408571D01*
X251074761Y-29646666D02*
X251789047Y-29884761D01*
X251789047Y-29265714D01*
X33537380Y-51571904D02*
X34346904Y-51571904D01*
X34442142Y-51524285D01*
X34489761Y-51476666D01*
X34537380Y-51381428D01*
X34537380Y-51190952D01*
X34489761Y-51095714D01*
X34442142Y-51048095D01*
X34346904Y-51000476D01*
X33537380Y-51000476D01*
X33537380Y-50619523D02*
X33537380Y-50000476D01*
X33918333Y-50333809D01*
X33918333Y-50190952D01*
X33965952Y-50095714D01*
X34013571Y-50048095D01*
X34108809Y-50000476D01*
X34346904Y-50000476D01*
X34442142Y-50048095D01*
X34489761Y-50095714D01*
X34537380Y-50190952D01*
X34537380Y-50476666D01*
X34489761Y-50571904D01*
X34442142Y-50619523D01*
X230267142Y-49716666D02*
X230314761Y-49764285D01*
X230362380Y-49907142D01*
X230362380Y-50002380D01*
X230314761Y-50145238D01*
X230219523Y-50240476D01*
X230124285Y-50288095D01*
X229933809Y-50335714D01*
X229790952Y-50335714D01*
X229600476Y-50288095D01*
X229505238Y-50240476D01*
X229410000Y-50145238D01*
X229362380Y-50002380D01*
X229362380Y-49907142D01*
X229410000Y-49764285D01*
X229457619Y-49716666D01*
X230362380Y-49240476D02*
X230362380Y-49050000D01*
X230314761Y-48954761D01*
X230267142Y-48907142D01*
X230124285Y-48811904D01*
X229933809Y-48764285D01*
X229552857Y-48764285D01*
X229457619Y-48811904D01*
X229410000Y-48859523D01*
X229362380Y-48954761D01*
X229362380Y-49145238D01*
X229410000Y-49240476D01*
X229457619Y-49288095D01*
X229552857Y-49335714D01*
X229790952Y-49335714D01*
X229886190Y-49288095D01*
X229933809Y-49240476D01*
X229981428Y-49145238D01*
X229981428Y-48954761D01*
X229933809Y-48859523D01*
X229886190Y-48811904D01*
X229790952Y-48764285D01*
X164766666Y-54287380D02*
X164766666Y-55001666D01*
X164719047Y-55144523D01*
X164623809Y-55239761D01*
X164480952Y-55287380D01*
X164385714Y-55287380D01*
X165147619Y-54287380D02*
X165766666Y-54287380D01*
X165433333Y-54668333D01*
X165576190Y-54668333D01*
X165671428Y-54715952D01*
X165719047Y-54763571D01*
X165766666Y-54858809D01*
X165766666Y-55096904D01*
X165719047Y-55192142D01*
X165671428Y-55239761D01*
X165576190Y-55287380D01*
X165290476Y-55287380D01*
X165195238Y-55239761D01*
X165147619Y-55192142D01*
X17157142Y-60642142D02*
X17109523Y-60689761D01*
X16966666Y-60737380D01*
X16871428Y-60737380D01*
X16728571Y-60689761D01*
X16633333Y-60594523D01*
X16585714Y-60499285D01*
X16538095Y-60308809D01*
X16538095Y-60165952D01*
X16585714Y-59975476D01*
X16633333Y-59880238D01*
X16728571Y-59785000D01*
X16871428Y-59737380D01*
X16966666Y-59737380D01*
X17109523Y-59785000D01*
X17157142Y-59832619D01*
X18014285Y-60070714D02*
X18014285Y-60737380D01*
X17776190Y-59689761D02*
X17538095Y-60404047D01*
X18157142Y-60404047D01*
X18966666Y-60070714D02*
X18966666Y-60737380D01*
X18728571Y-59689761D02*
X18490476Y-60404047D01*
X19109523Y-60404047D01*
X95337380Y-56689523D02*
X96051666Y-56689523D01*
X96194523Y-56737142D01*
X96289761Y-56832380D01*
X96337380Y-56975238D01*
X96337380Y-57070476D01*
X96337380Y-55689523D02*
X96337380Y-56260952D01*
X96337380Y-55975238D02*
X95337380Y-55975238D01*
X95480238Y-56070476D01*
X95575476Y-56165714D01*
X95623095Y-56260952D01*
X95670714Y-54832380D02*
X96337380Y-54832380D01*
X95289761Y-55070476D02*
X96004047Y-55308571D01*
X96004047Y-54689523D01*
X110257380Y-28834523D02*
X110971666Y-28834523D01*
X111114523Y-28882142D01*
X111209761Y-28977380D01*
X111257380Y-29120238D01*
X111257380Y-29215476D01*
X111257380Y-27834523D02*
X111257380Y-28405952D01*
X111257380Y-28120238D02*
X110257380Y-28120238D01*
X110400238Y-28215476D01*
X110495476Y-28310714D01*
X110543095Y-28405952D01*
X111257380Y-26882142D02*
X111257380Y-27453571D01*
X111257380Y-27167857D02*
X110257380Y-27167857D01*
X110400238Y-27263095D01*
X110495476Y-27358333D01*
X110543095Y-27453571D01*
X21582142Y-42902142D02*
X21534523Y-42949761D01*
X21391666Y-42997380D01*
X21296428Y-42997380D01*
X21153571Y-42949761D01*
X21058333Y-42854523D01*
X21010714Y-42759285D01*
X20963095Y-42568809D01*
X20963095Y-42425952D01*
X21010714Y-42235476D01*
X21058333Y-42140238D01*
X21153571Y-42045000D01*
X21296428Y-41997380D01*
X21391666Y-41997380D01*
X21534523Y-42045000D01*
X21582142Y-42092619D01*
X21963095Y-42092619D02*
X22010714Y-42045000D01*
X22105952Y-41997380D01*
X22344047Y-41997380D01*
X22439285Y-42045000D01*
X22486904Y-42092619D01*
X22534523Y-42187857D01*
X22534523Y-42283095D01*
X22486904Y-42425952D01*
X21915476Y-42997380D01*
X22534523Y-42997380D01*
X22915476Y-42092619D02*
X22963095Y-42045000D01*
X23058333Y-41997380D01*
X23296428Y-41997380D01*
X23391666Y-42045000D01*
X23439285Y-42092619D01*
X23486904Y-42187857D01*
X23486904Y-42283095D01*
X23439285Y-42425952D01*
X22867857Y-42997380D01*
X23486904Y-42997380D01*
D11*
X237430000Y-52070000D02*
X237430000Y-50740000D01*
X237430000Y-50740000D02*
X238760000Y-50740000D01*
X237430000Y-58480000D02*
X240090000Y-58480000D01*
X240090000Y-53340000D02*
X240090000Y-58480000D01*
X237430000Y-53340000D02*
X237430000Y-58480000D01*
X237430000Y-53340000D02*
X240090000Y-53340000D01*
X105740000Y-29375000D02*
X105740000Y-32975000D01*
X90700000Y-17555000D02*
X90700000Y-14555000D01*
X105740000Y-35775000D02*
X105740000Y-38405000D01*
X105740000Y-17555000D02*
X102340000Y-17555000D01*
X102340000Y-14555000D02*
X90700000Y-14555000D01*
X92050000Y-38405000D02*
X87300000Y-38405000D01*
X105740000Y-38405000D02*
X100990000Y-38405000D01*
X105740000Y-23075000D02*
X105740000Y-26675000D01*
X100950000Y-41325000D02*
X92050000Y-41325000D01*
X87300000Y-32975000D02*
X87300000Y-29375000D01*
X87300000Y-38405000D02*
X87300000Y-35775000D01*
X90700000Y-17555000D02*
X87300000Y-17555000D01*
X105740000Y-17555000D02*
X105740000Y-20275000D01*
X87300000Y-17555000D02*
X87300000Y-20275000D01*
X102340000Y-17555000D02*
X102340000Y-14555000D01*
X87300000Y-26675000D02*
X87300000Y-23075000D01*
X92050000Y-41325000D02*
X92050000Y-38405000D01*
X100990000Y-41325000D02*
X100990000Y-38405000D01*
X255670000Y-58225563D02*
X255670000Y-52470000D01*
X256734437Y-59290000D02*
X255670000Y-58225563D01*
X261425563Y-59290000D02*
X260140000Y-59290000D01*
X255670000Y-52470000D02*
X258020000Y-52470000D01*
X256734437Y-59290000D02*
X258020000Y-59290000D01*
X262490000Y-58225563D02*
X262490000Y-52470000D01*
X262490000Y-52470000D02*
X260140000Y-52470000D01*
X261425563Y-59290000D02*
X262490000Y-58225563D01*
X125670000Y-61020000D02*
X128330000Y-61020000D01*
X125670000Y-55880000D02*
X128330000Y-55880000D01*
X125670000Y-55880000D02*
X125670000Y-61020000D01*
X125670000Y-54610000D02*
X125670000Y-53280000D01*
X125670000Y-53280000D02*
X127000000Y-53280000D01*
X128330000Y-55880000D02*
X128330000Y-61020000D01*
X249114437Y-42310000D02*
X248050000Y-43374437D01*
X249114437Y-42310000D02*
X250400000Y-42310000D01*
X254870000Y-49130000D02*
X252520000Y-49130000D01*
X254870000Y-43374437D02*
X254870000Y-49130000D01*
X253805563Y-42310000D02*
X252520000Y-42310000D01*
X248050000Y-43374437D02*
X248050000Y-49130000D01*
X253805563Y-42310000D02*
X254870000Y-43374437D01*
X248050000Y-49130000D02*
X250400000Y-49130000D01*
X255270000Y-24190000D02*
X260410000Y-24190000D01*
X255270000Y-21530000D02*
X260410000Y-21530000D01*
X255270000Y-24190000D02*
X255270000Y-21530000D01*
X252670000Y-24190000D02*
X252670000Y-22860000D01*
X254000000Y-24190000D02*
X252670000Y-24190000D01*
X260410000Y-24190000D02*
X260410000Y-21530000D01*
X232940000Y-17555000D02*
X229540000Y-17555000D01*
X247980000Y-23075000D02*
X247980000Y-26675000D01*
X247980000Y-17555000D02*
X247980000Y-20275000D01*
X234290000Y-41325000D02*
X234290000Y-38405000D01*
X247980000Y-29375000D02*
X247980000Y-32975000D01*
X247980000Y-35775000D02*
X247980000Y-38405000D01*
X229540000Y-17555000D02*
X229540000Y-20275000D01*
X243230000Y-41325000D02*
X243230000Y-38405000D01*
X234290000Y-38405000D02*
X229540000Y-38405000D01*
X232940000Y-17555000D02*
X232940000Y-14555000D01*
X229540000Y-38405000D02*
X229540000Y-35775000D01*
X243190000Y-41325000D02*
X234290000Y-41325000D01*
X247980000Y-38405000D02*
X243230000Y-38405000D01*
X229540000Y-26675000D02*
X229540000Y-23075000D01*
X244580000Y-17555000D02*
X244580000Y-14555000D01*
X247980000Y-17555000D02*
X244580000Y-17555000D01*
X229540000Y-32975000D02*
X229540000Y-29375000D01*
X244580000Y-14555000D02*
X232940000Y-14555000D01*
X156540000Y-17555000D02*
X156540000Y-20275000D01*
X141500000Y-17555000D02*
X141500000Y-14555000D01*
X153140000Y-14555000D02*
X141500000Y-14555000D01*
X156540000Y-38405000D02*
X151790000Y-38405000D01*
X156540000Y-17555000D02*
X153140000Y-17555000D01*
X138100000Y-38405000D02*
X138100000Y-35775000D01*
X156540000Y-35775000D02*
X156540000Y-38405000D01*
X151790000Y-41325000D02*
X151790000Y-38405000D01*
X138100000Y-26675000D02*
X138100000Y-23075000D01*
X138100000Y-17555000D02*
X138100000Y-20275000D01*
X142850000Y-38405000D02*
X138100000Y-38405000D01*
X138100000Y-32975000D02*
X138100000Y-29375000D01*
X142850000Y-41325000D02*
X142850000Y-38405000D01*
X151750000Y-41325000D02*
X142850000Y-41325000D01*
X156540000Y-23075000D02*
X156540000Y-26675000D01*
X156540000Y-29375000D02*
X156540000Y-32975000D01*
X141500000Y-17555000D02*
X138100000Y-17555000D01*
X153140000Y-17555000D02*
X153140000Y-14555000D01*
X134520000Y-54710000D02*
X134520000Y-49470000D01*
X137260000Y-54710000D02*
X137260000Y-49470000D01*
X134520000Y-54710000D02*
X137260000Y-54710000D01*
X134520000Y-49470000D02*
X137260000Y-49470000D01*
X222580000Y-23075000D02*
X222580000Y-26675000D01*
X204140000Y-26675000D02*
X204140000Y-23075000D01*
X222580000Y-17555000D02*
X219180000Y-17555000D01*
X222580000Y-35775000D02*
X222580000Y-38405000D01*
X222580000Y-29375000D02*
X222580000Y-32975000D01*
X207540000Y-17555000D02*
X207540000Y-14555000D01*
X217790000Y-41325000D02*
X208890000Y-41325000D01*
X219180000Y-14555000D02*
X207540000Y-14555000D01*
X204140000Y-32975000D02*
X204140000Y-29375000D01*
X217830000Y-41325000D02*
X217830000Y-38405000D01*
X207540000Y-17555000D02*
X204140000Y-17555000D01*
X222580000Y-17555000D02*
X222580000Y-20275000D01*
X208890000Y-41325000D02*
X208890000Y-38405000D01*
X222580000Y-38405000D02*
X217830000Y-38405000D01*
X208890000Y-38405000D02*
X204140000Y-38405000D01*
X204140000Y-17555000D02*
X204140000Y-20275000D01*
X204140000Y-38405000D02*
X204140000Y-35775000D01*
X219180000Y-17555000D02*
X219180000Y-14555000D01*
X57205000Y-45660000D02*
X57205000Y-46990000D01*
X55875000Y-45660000D02*
X57205000Y-45660000D01*
X54605000Y-45660000D02*
X44385000Y-45660000D01*
X54605000Y-48320000D02*
X44385000Y-48320000D01*
X44385000Y-45660000D02*
X44385000Y-48320000D01*
X54605000Y-45660000D02*
X54605000Y-48320000D01*
X208180000Y-49630000D02*
X210920000Y-49630000D01*
X210920000Y-49630000D02*
X210920000Y-44390000D01*
X208180000Y-44390000D02*
X210920000Y-44390000D01*
X208180000Y-49630000D02*
X208180000Y-44390000D01*
X16180000Y-17555000D02*
X16180000Y-20275000D01*
X19580000Y-17555000D02*
X16180000Y-17555000D01*
X16180000Y-26675000D02*
X16180000Y-23075000D01*
X34620000Y-17555000D02*
X34620000Y-20275000D01*
X34620000Y-35775000D02*
X34620000Y-38405000D01*
X16180000Y-38405000D02*
X16180000Y-35775000D01*
X16180000Y-32975000D02*
X16180000Y-29375000D01*
X34620000Y-23075000D02*
X34620000Y-26675000D01*
X34620000Y-38405000D02*
X29870000Y-38405000D01*
X29830000Y-41325000D02*
X20930000Y-41325000D01*
X34620000Y-29375000D02*
X34620000Y-32975000D01*
X19580000Y-17555000D02*
X19580000Y-14555000D01*
X20930000Y-41325000D02*
X20930000Y-38405000D01*
X29870000Y-41325000D02*
X29870000Y-38405000D01*
X31220000Y-17555000D02*
X31220000Y-14555000D01*
X34620000Y-17555000D02*
X31220000Y-17555000D01*
X20930000Y-38405000D02*
X16180000Y-38405000D01*
X31220000Y-14555000D02*
X19580000Y-14555000D01*
X27840000Y-42445000D02*
X27840000Y-45185000D01*
X27840000Y-45185000D02*
X33080000Y-45185000D01*
X27840000Y-42445000D02*
X33080000Y-42445000D01*
X33080000Y-42445000D02*
X33080000Y-45185000D01*
X193100000Y-48200000D02*
X193100000Y-49530000D01*
X190500000Y-48200000D02*
X190500000Y-50860000D01*
X191770000Y-48200000D02*
X193100000Y-48200000D01*
X190500000Y-48200000D02*
X187900000Y-48200000D01*
X190500000Y-50860000D02*
X187900000Y-50860000D01*
X187900000Y-48200000D02*
X187900000Y-50860000D01*
X250250000Y-54610000D02*
X250250000Y-52010000D01*
X250250000Y-52010000D02*
X247590000Y-52010000D01*
X250250000Y-55880000D02*
X250250000Y-57210000D01*
X250250000Y-54610000D02*
X247590000Y-54610000D01*
X247590000Y-54610000D02*
X247590000Y-52010000D01*
X250250000Y-57210000D02*
X248920000Y-57210000D01*
X163500000Y-38405000D02*
X163500000Y-35775000D01*
X181940000Y-23075000D02*
X181940000Y-26675000D01*
X163500000Y-26675000D02*
X163500000Y-23075000D01*
X178540000Y-17555000D02*
X178540000Y-14555000D01*
X166900000Y-17555000D02*
X166900000Y-14555000D01*
X181940000Y-17555000D02*
X181940000Y-20275000D01*
X181940000Y-35775000D02*
X181940000Y-38405000D01*
X163500000Y-17555000D02*
X163500000Y-20275000D01*
X177150000Y-41325000D02*
X168250000Y-41325000D01*
X181940000Y-29375000D02*
X181940000Y-32975000D01*
X178540000Y-14555000D02*
X166900000Y-14555000D01*
X163500000Y-32975000D02*
X163500000Y-29375000D01*
X181940000Y-38405000D02*
X177190000Y-38405000D01*
X166900000Y-17555000D02*
X163500000Y-17555000D01*
X177190000Y-41325000D02*
X177190000Y-38405000D01*
X168250000Y-38405000D02*
X163500000Y-38405000D01*
X168250000Y-41325000D02*
X168250000Y-38405000D01*
X181940000Y-17555000D02*
X178540000Y-17555000D01*
X27845000Y-61070000D02*
X33085000Y-61070000D01*
X33085000Y-58330000D02*
X33085000Y-61070000D01*
X27845000Y-58330000D02*
X27845000Y-61070000D01*
X27845000Y-58330000D02*
X33085000Y-58330000D01*
X41580000Y-26675000D02*
X41580000Y-23075000D01*
X46330000Y-38405000D02*
X41580000Y-38405000D01*
X60020000Y-17555000D02*
X60020000Y-20275000D01*
X41580000Y-32975000D02*
X41580000Y-29375000D01*
X41580000Y-38405000D02*
X41580000Y-35775000D01*
X60020000Y-23075000D02*
X60020000Y-26675000D01*
X44980000Y-17555000D02*
X44980000Y-14555000D01*
X56620000Y-14555000D02*
X44980000Y-14555000D01*
X55270000Y-41325000D02*
X55270000Y-38405000D01*
X46330000Y-41325000D02*
X46330000Y-38405000D01*
X56620000Y-17555000D02*
X56620000Y-14555000D01*
X60020000Y-17555000D02*
X56620000Y-17555000D01*
X41580000Y-17555000D02*
X41580000Y-20275000D01*
X60020000Y-35775000D02*
X60020000Y-38405000D01*
X55230000Y-41325000D02*
X46330000Y-41325000D01*
X44980000Y-17555000D02*
X41580000Y-17555000D01*
X60020000Y-38405000D02*
X55270000Y-38405000D01*
X60020000Y-29375000D02*
X60020000Y-32975000D01*
X261425563Y-49130000D02*
X260140000Y-49130000D01*
X262490000Y-42310000D02*
X260140000Y-42310000D01*
X256734437Y-49130000D02*
X255670000Y-48065563D01*
X256734437Y-49130000D02*
X258020000Y-49130000D01*
X262490000Y-48065563D02*
X262490000Y-42310000D01*
X255670000Y-48065563D02*
X255670000Y-42310000D01*
X261425563Y-49130000D02*
X262490000Y-48065563D01*
X255670000Y-42310000D02*
X258020000Y-42310000D01*
X38040000Y-54625000D02*
X38040000Y-59765000D01*
X38040000Y-54625000D02*
X40700000Y-54625000D01*
X38040000Y-52025000D02*
X39370000Y-52025000D01*
X40700000Y-54625000D02*
X40700000Y-59765000D01*
X38040000Y-53355000D02*
X38040000Y-52025000D01*
X38040000Y-59765000D02*
X40700000Y-59765000D01*
X218340000Y-54680000D02*
X223640000Y-54680000D01*
X223640000Y-54680000D02*
X223640000Y-44400000D01*
X219990000Y-44400000D02*
X218340000Y-44400000D01*
X223640000Y-44400000D02*
X221990000Y-44400000D01*
X218340000Y-44400000D02*
X218340000Y-54680000D01*
X219990000Y-44400000D02*
G75*
G03*
X221990000Y-44400000I1000000J0D01*
G01*
X204530000Y-50800000D02*
X204530000Y-55940000D01*
X201870000Y-48200000D02*
X203200000Y-48200000D01*
X201870000Y-55940000D02*
X204530000Y-55940000D01*
X201870000Y-50800000D02*
X204530000Y-50800000D01*
X201870000Y-49530000D02*
X201870000Y-48200000D01*
X201870000Y-50800000D02*
X201870000Y-55940000D01*
X72460000Y-40580000D02*
X72460000Y-58480000D01*
X74110000Y-40580000D02*
X72460000Y-40580000D01*
X77760000Y-58480000D02*
X77760000Y-40580000D01*
X77760000Y-40580000D02*
X76110000Y-40580000D01*
X72460000Y-58480000D02*
X77760000Y-58480000D01*
X74110000Y-40580000D02*
G75*
G03*
X76110000Y-40580000I1000000J0D01*
G01*
X149980000Y-49480000D02*
X148330000Y-49480000D01*
X144680000Y-49480000D02*
X144680000Y-59760000D01*
X144680000Y-59760000D02*
X149980000Y-59760000D01*
X149980000Y-59760000D02*
X149980000Y-49480000D01*
X146330000Y-49480000D02*
X144680000Y-49480000D01*
X146330000Y-49480000D02*
G75*
G03*
X148330000Y-49480000I1000000J0D01*
G01*
X157380000Y-52010000D02*
X160120000Y-52010000D01*
X157380000Y-57250000D02*
X157380000Y-52010000D01*
X160120000Y-57250000D02*
X160120000Y-52010000D01*
X157380000Y-57250000D02*
X160120000Y-57250000D01*
X255270000Y-29150000D02*
X260410000Y-29150000D01*
X260410000Y-31810000D02*
X260410000Y-29150000D01*
X254000000Y-31810000D02*
X252670000Y-31810000D01*
X255270000Y-31810000D02*
X255270000Y-29150000D01*
X255270000Y-31810000D02*
X260410000Y-31810000D01*
X252670000Y-31810000D02*
X252670000Y-30480000D01*
X33085000Y-49810000D02*
X33085000Y-48160000D01*
X33085000Y-48160000D02*
X15185000Y-48160000D01*
X15185000Y-48160000D02*
X15185000Y-53460000D01*
X15185000Y-53460000D02*
X33085000Y-53460000D01*
X33085000Y-53460000D02*
X33085000Y-51810000D01*
X33085000Y-49810000D02*
G75*
G03*
X33085000Y-51810000I0J-1000000D01*
G01*
X231040000Y-52170000D02*
X233780000Y-52170000D01*
X233780000Y-52170000D02*
X233780000Y-46930000D01*
X231040000Y-52170000D02*
X231040000Y-46930000D01*
X231040000Y-46930000D02*
X233780000Y-46930000D01*
X163770000Y-58435000D02*
X163770000Y-63575000D01*
X163770000Y-63575000D02*
X166430000Y-63575000D01*
X163770000Y-57165000D02*
X163770000Y-55835000D01*
X163770000Y-55835000D02*
X165100000Y-55835000D01*
X163770000Y-58435000D02*
X166430000Y-58435000D01*
X166430000Y-58435000D02*
X166430000Y-63575000D01*
X15180000Y-59155000D02*
X15180000Y-56415000D01*
X20420000Y-59155000D02*
X15180000Y-59155000D01*
X20420000Y-59155000D02*
X20420000Y-56415000D01*
X20420000Y-56415000D02*
X15180000Y-56415000D01*
X94040000Y-54610000D02*
X91380000Y-54610000D01*
X94040000Y-54610000D02*
X94040000Y-44390000D01*
X91380000Y-54610000D02*
X91380000Y-44390000D01*
X94040000Y-57210000D02*
X92710000Y-57210000D01*
X94040000Y-44390000D02*
X91380000Y-44390000D01*
X94040000Y-55880000D02*
X94040000Y-57210000D01*
X112700000Y-26675000D02*
X112700000Y-23075000D01*
X131140000Y-29375000D02*
X131140000Y-32975000D01*
X127740000Y-17555000D02*
X127740000Y-14555000D01*
X131140000Y-17555000D02*
X127740000Y-17555000D01*
X112700000Y-17555000D02*
X112700000Y-20275000D01*
X112700000Y-38405000D02*
X112700000Y-35775000D01*
X126390000Y-41325000D02*
X126390000Y-38405000D01*
X131140000Y-23075000D02*
X131140000Y-26675000D01*
X112700000Y-32975000D02*
X112700000Y-29375000D01*
X131140000Y-17555000D02*
X131140000Y-20275000D01*
X116100000Y-17555000D02*
X112700000Y-17555000D01*
X117450000Y-41325000D02*
X117450000Y-38405000D01*
X131140000Y-38405000D02*
X126390000Y-38405000D01*
X117450000Y-38405000D02*
X112700000Y-38405000D01*
X131140000Y-35775000D02*
X131140000Y-38405000D01*
X126350000Y-41325000D02*
X117450000Y-41325000D01*
X116100000Y-17555000D02*
X116100000Y-14555000D01*
X127740000Y-14555000D02*
X116100000Y-14555000D01*
X20400000Y-45185000D02*
X15160000Y-45185000D01*
X20400000Y-42445000D02*
X15160000Y-42445000D01*
X15160000Y-45185000D02*
X15160000Y-42445000D01*
X20400000Y-45185000D02*
X20400000Y-42445000D01*
%LPC*%
D12*
X238760000Y-52070000D03*
D13*
X238760000Y-54610000D03*
X238760000Y-57150000D03*
D14*
X205740000Y-64770000D03*
D15*
X88405000Y-28025000D03*
X104635000Y-28025000D03*
X88405000Y-21675000D03*
X104635000Y-21675000D03*
X88405000Y-34375000D03*
X104635000Y-34375000D03*
D16*
X259080000Y-58417500D03*
X259080000Y-53342500D03*
D12*
X127000000Y-54610000D03*
D13*
X127000000Y-57150000D03*
X127000000Y-59690000D03*
D17*
X251460000Y-43182500D03*
X251460000Y-48257500D03*
D12*
X254000000Y-22860000D03*
D13*
X256540000Y-22860000D03*
X259080000Y-22860000D03*
D15*
X230645000Y-28025000D03*
X246875000Y-28025000D03*
X230645000Y-21675000D03*
X246875000Y-21675000D03*
X230645000Y-34375000D03*
X246875000Y-34375000D03*
X139205000Y-28025000D03*
X155435000Y-28025000D03*
X139205000Y-21675000D03*
X155435000Y-21675000D03*
X139205000Y-34375000D03*
X155435000Y-34375000D03*
D18*
X135890000Y-53340000D03*
X135890000Y-50840000D03*
D15*
X205245000Y-28025000D03*
X221475000Y-28025000D03*
X205245000Y-21675000D03*
X221475000Y-21675000D03*
X205245000Y-34375000D03*
X221475000Y-34375000D03*
D12*
X55875000Y-46990000D03*
D13*
X53335000Y-46990000D03*
X50795000Y-46990000D03*
X48255000Y-46990000D03*
X45715000Y-46990000D03*
D18*
X209550000Y-48260000D03*
X209550000Y-45760000D03*
D14*
X73660000Y-22860000D03*
D15*
X17285000Y-28025000D03*
X33515000Y-28025000D03*
X17285000Y-21675000D03*
X33515000Y-21675000D03*
X17285000Y-34375000D03*
X33515000Y-34375000D03*
D18*
X29210000Y-43815000D03*
X31710000Y-43815000D03*
D12*
X191770000Y-49530000D03*
D13*
X189230000Y-49530000D03*
D12*
X248920000Y-55880000D03*
D13*
X248920000Y-53340000D03*
D14*
X193040000Y-22860000D03*
D15*
X164605000Y-28025000D03*
X180835000Y-28025000D03*
X164605000Y-21675000D03*
X180835000Y-21675000D03*
X164605000Y-34375000D03*
X180835000Y-34375000D03*
D18*
X29215000Y-59700000D03*
X31715000Y-59700000D03*
D15*
X42685000Y-28025000D03*
X58915000Y-28025000D03*
X42685000Y-21675000D03*
X58915000Y-21675000D03*
X42685000Y-34375000D03*
X58915000Y-34375000D03*
D16*
X259080000Y-48257500D03*
X259080000Y-43182500D03*
D12*
X39370000Y-53355000D03*
D13*
X39370000Y-55895000D03*
X39370000Y-58435000D03*
D14*
X60960000Y-64770000D03*
D19*
X217180000Y-45730000D03*
D20*
X217180000Y-48270000D03*
X217180000Y-50810000D03*
X217180000Y-53350000D03*
X224800000Y-53350000D03*
X224800000Y-50810000D03*
X224800000Y-48270000D03*
X224800000Y-45730000D03*
D12*
X203200000Y-49530000D03*
D13*
X203200000Y-52070000D03*
X203200000Y-54610000D03*
D19*
X71300000Y-41910000D03*
D20*
X71300000Y-44450000D03*
X71300000Y-46990000D03*
X71300000Y-49530000D03*
X71300000Y-52070000D03*
X71300000Y-54610000D03*
X71300000Y-57150000D03*
X78920000Y-57150000D03*
X78920000Y-54610000D03*
X78920000Y-52070000D03*
X78920000Y-49530000D03*
X78920000Y-46990000D03*
X78920000Y-44450000D03*
X78920000Y-41910000D03*
D19*
X143520000Y-50810000D03*
D20*
X143520000Y-53350000D03*
X143520000Y-55890000D03*
X143520000Y-58430000D03*
X151140000Y-58430000D03*
X151140000Y-55890000D03*
X151140000Y-53350000D03*
X151140000Y-50810000D03*
D18*
X158750000Y-55880000D03*
X158750000Y-53380000D03*
D12*
X254000000Y-30480000D03*
D13*
X256540000Y-30480000D03*
X259080000Y-30480000D03*
D19*
X31755000Y-47000000D03*
D20*
X29215000Y-47000000D03*
X26675000Y-47000000D03*
X24135000Y-47000000D03*
X21595000Y-47000000D03*
X19055000Y-47000000D03*
X16515000Y-47000000D03*
X16515000Y-54620000D03*
X19055000Y-54620000D03*
X21595000Y-54620000D03*
X24135000Y-54620000D03*
X26675000Y-54620000D03*
X29215000Y-54620000D03*
X31755000Y-54620000D03*
D18*
X232410000Y-50800000D03*
X232410000Y-48300000D03*
D12*
X165100000Y-57165000D03*
D13*
X165100000Y-59705000D03*
X165100000Y-62245000D03*
D18*
X19050000Y-57785000D03*
X16550000Y-57785000D03*
D12*
X92710000Y-55880000D03*
D13*
X92710000Y-53340000D03*
X92710000Y-50800000D03*
X92710000Y-48260000D03*
X92710000Y-45720000D03*
D15*
X113805000Y-28025000D03*
X130035000Y-28025000D03*
X113805000Y-21675000D03*
X130035000Y-21675000D03*
X113805000Y-34375000D03*
X130035000Y-34375000D03*
D18*
X19030000Y-43815000D03*
X16530000Y-43815000D03*
M02*
