%TF.GenerationSoftware,KiCad,Pcbnew,4.0.7*%
%TF.CreationDate,2018-04-11T16:34:22+03:00*%
%TF.ProjectId,capacity_sensor,63617061636974795F73656E736F722E,rev?*%
%TF.FileFunction,Copper,L2,Bot,Signal*%
%FSLAX46Y46*%
G04 Gerber Fmt 4.6, Leading zero omitted, Abs format (unit mm)*
G04 Created by KiCad (PCBNEW 4.0.7) date 04/11/18 16:34:22*
%MOMM*%
%LPD*%
G01*
G04 APERTURE LIST*
%ADD10C,0.100000*%
%ADD11R,1.250000X1.500000*%
%ADD12R,3.200000X1.500000*%
%ADD13R,2.400000X1.500000*%
%ADD14R,1.050000X1.500000*%
%ADD15R,1.700000X1.700000*%
%ADD16O,1.700000X1.700000*%
%ADD17R,3.960000X1.980000*%
%ADD18O,3.960000X1.980000*%
%ADD19R,1.500000X1.300000*%
%ADD20R,1.300000X1.500000*%
%ADD21C,1.440000*%
%ADD22R,1.600000X1.600000*%
%ADD23O,1.600000X1.600000*%
%ADD24C,0.600000*%
%ADD25C,1.000000*%
%ADD26C,0.500000*%
%ADD27C,0.254000*%
G04 APERTURE END LIST*
D10*
X119380000Y-129540000D02*
X119380000Y-83820000D01*
X161290000Y-129540000D02*
X119380000Y-129540000D01*
X161290000Y-83820000D02*
X161290000Y-129540000D01*
X119380000Y-83820000D02*
X161290000Y-83820000D01*
X159276051Y-125730000D02*
G75*
G03X159276051Y-125730000I-1796051J0D01*
G01*
X124986051Y-125730000D02*
G75*
G03X124986051Y-125730000I-1796051J0D01*
G01*
X159276051Y-87630000D02*
G75*
G03X159276051Y-87630000I-1796051J0D01*
G01*
X124986051Y-87630000D02*
G75*
G03X124986051Y-87630000I-1796051J0D01*
G01*
D11*
X136525000Y-119400000D03*
X136525000Y-121900000D03*
X123825000Y-96500000D03*
X123825000Y-94000000D03*
D12*
X150400000Y-91440000D03*
X154400000Y-91440000D03*
D11*
X149860000Y-104795000D03*
X149860000Y-107295000D03*
X127000000Y-96500000D03*
X127000000Y-94000000D03*
D13*
X154520000Y-107950000D03*
D14*
X152145000Y-107950000D03*
D15*
X127000000Y-111125000D03*
X121920000Y-119380000D03*
X142240000Y-123825000D03*
X142240000Y-117475000D03*
X151130000Y-111760000D03*
D16*
X148590000Y-111760000D03*
X146050000Y-111760000D03*
D15*
X144780000Y-105410000D03*
D17*
X154940000Y-94615000D03*
D18*
X154940000Y-99615000D03*
X154940000Y-104615000D03*
D15*
X156210000Y-111760000D03*
D19*
X134700000Y-99695000D03*
X132000000Y-99695000D03*
D20*
X132080000Y-93900000D03*
X132080000Y-96600000D03*
D19*
X121840000Y-114935000D03*
X124540000Y-114935000D03*
D20*
X149860000Y-99615000D03*
X149860000Y-102315000D03*
D21*
X134620000Y-86360000D03*
X132080000Y-86360000D03*
X129540000Y-86360000D03*
X121920000Y-111760000D03*
X121920000Y-109220000D03*
X121920000Y-106680000D03*
D22*
X121920000Y-93980000D03*
D23*
X129540000Y-101600000D03*
X121920000Y-96520000D03*
X129540000Y-99060000D03*
X121920000Y-99060000D03*
X129540000Y-96520000D03*
X121920000Y-101600000D03*
X129540000Y-93980000D03*
D24*
X138430000Y-114300000D03*
X153035000Y-114300000D03*
X147955000Y-123825000D03*
X135255000Y-123825000D03*
X128270000Y-113665000D03*
X147955000Y-102235000D03*
X135255000Y-122555000D03*
X131445000Y-116205000D03*
D25*
X136525000Y-119400000D02*
X136525000Y-114935000D01*
X137160000Y-114300000D02*
X138430000Y-114300000D01*
X138430000Y-114300000D02*
X153035000Y-114300000D01*
X136525000Y-114935000D02*
X137160000Y-114300000D01*
X129540000Y-93980000D02*
X129540000Y-86360000D01*
X129540000Y-86360000D02*
X132080000Y-86360000D01*
X150400000Y-91440000D02*
X150400000Y-93250000D01*
X151765000Y-94615000D02*
X154940000Y-94615000D01*
X150400000Y-93250000D02*
X151765000Y-94615000D01*
X127000000Y-94000000D02*
X129520000Y-94000000D01*
X129520000Y-94000000D02*
X129540000Y-93980000D01*
X149860000Y-107295000D02*
X150515000Y-107295000D01*
X150515000Y-107295000D02*
X153195000Y-104615000D01*
X153195000Y-104615000D02*
X154940000Y-104615000D01*
X123825000Y-94000000D02*
X123825000Y-92710000D01*
X154400000Y-85820000D02*
X154400000Y-91440000D01*
X153035000Y-84455000D02*
X154400000Y-85820000D01*
X128270000Y-84455000D02*
X153035000Y-84455000D01*
X127000000Y-85725000D02*
X128270000Y-84455000D01*
X127000000Y-89535000D02*
X127000000Y-85725000D01*
X123825000Y-92710000D02*
X127000000Y-89535000D01*
D26*
X147955000Y-123825000D02*
X147955000Y-127000000D01*
D25*
X136525000Y-121900000D02*
X136525000Y-125730000D01*
X158750000Y-121285000D02*
X158750000Y-104140000D01*
X158115000Y-121920000D02*
X158750000Y-121285000D01*
X155575000Y-121920000D02*
X158115000Y-121920000D01*
X154305000Y-123190000D02*
X155575000Y-121920000D01*
X154305000Y-125095000D02*
X154305000Y-123190000D01*
X152400000Y-127000000D02*
X154305000Y-125095000D01*
X137795000Y-127000000D02*
X147955000Y-127000000D01*
X147955000Y-127000000D02*
X152400000Y-127000000D01*
X136525000Y-125730000D02*
X137795000Y-127000000D01*
D26*
X136525000Y-121900000D02*
X136525000Y-122555000D01*
X136525000Y-122555000D02*
X135255000Y-123825000D01*
D25*
X154940000Y-104615000D02*
X158275000Y-104615000D01*
X158275000Y-104615000D02*
X158750000Y-104140000D01*
X157480000Y-91440000D02*
X154400000Y-91440000D01*
X158750000Y-92710000D02*
X157480000Y-91440000D01*
X158750000Y-104140000D02*
X158750000Y-97155000D01*
X158750000Y-97155000D02*
X158750000Y-92710000D01*
X121920000Y-93980000D02*
X123805000Y-93980000D01*
X123805000Y-93980000D02*
X123825000Y-94000000D01*
X123825000Y-94000000D02*
X124500000Y-94000000D01*
X124500000Y-94000000D02*
X127000000Y-96500000D01*
X123825000Y-96500000D02*
X123825000Y-97790000D01*
X125095000Y-99060000D02*
X129540000Y-99060000D01*
X123825000Y-97790000D02*
X125095000Y-99060000D01*
X129540000Y-99060000D02*
X131365000Y-99060000D01*
X131365000Y-99060000D02*
X132000000Y-99695000D01*
X121920000Y-96520000D02*
X123805000Y-96520000D01*
X123805000Y-96520000D02*
X123825000Y-96500000D01*
D26*
X123190000Y-109220000D02*
X121920000Y-109220000D01*
X123825000Y-109855000D02*
X123190000Y-109220000D01*
X123825000Y-113030000D02*
X123825000Y-109855000D01*
X124460000Y-113665000D02*
X123825000Y-113030000D01*
X128270000Y-113665000D02*
X124460000Y-113665000D01*
D25*
X121920000Y-109220000D02*
X121920000Y-106680000D01*
X152145000Y-107950000D02*
X152145000Y-108205000D01*
X152145000Y-108205000D02*
X151130000Y-109220000D01*
X151130000Y-109220000D02*
X147955000Y-109220000D01*
X147955000Y-109220000D02*
X147320000Y-108585000D01*
X147320000Y-108585000D02*
X147320000Y-105410000D01*
X147320000Y-105410000D02*
X147935000Y-104795000D01*
X147935000Y-104795000D02*
X149860000Y-104795000D01*
X148035000Y-102315000D02*
X149860000Y-102315000D01*
X147955000Y-102235000D02*
X148035000Y-102315000D01*
X149860000Y-104795000D02*
X149860000Y-102315000D01*
X156210000Y-111760000D02*
X156210000Y-109640000D01*
X156210000Y-109640000D02*
X154520000Y-107950000D01*
X149860000Y-99615000D02*
X154940000Y-99615000D01*
X129540000Y-96520000D02*
X132000000Y-96520000D01*
X132000000Y-96520000D02*
X132080000Y-96600000D01*
X134700000Y-99695000D02*
X134700000Y-97235000D01*
X134065000Y-96600000D02*
X132080000Y-96600000D01*
X134700000Y-97235000D02*
X134065000Y-96600000D01*
X132080000Y-93900000D02*
X132080000Y-90805000D01*
X134620000Y-88265000D02*
X134620000Y-86360000D01*
X132080000Y-90805000D02*
X134620000Y-88265000D01*
X121840000Y-114935000D02*
X121840000Y-111840000D01*
X121840000Y-111840000D02*
X121920000Y-111760000D01*
D26*
X127635000Y-114935000D02*
X124540000Y-114935000D01*
X135255000Y-122555000D02*
X127635000Y-114935000D01*
X130175000Y-106680000D02*
X122555000Y-99060000D01*
X130175000Y-114935000D02*
X130175000Y-106680000D01*
X131445000Y-116205000D02*
X130175000Y-114935000D01*
X122555000Y-99060000D02*
X121920000Y-99060000D01*
D27*
G36*
X160605000Y-128855000D02*
X120065000Y-128855000D01*
X120065000Y-125730000D01*
X120708949Y-125730000D01*
X120897808Y-126679457D01*
X121435632Y-127484368D01*
X122240543Y-128022192D01*
X123190000Y-128211051D01*
X124139457Y-128022192D01*
X124944368Y-127484368D01*
X125482192Y-126679457D01*
X125671051Y-125730000D01*
X154998949Y-125730000D01*
X155187808Y-126679457D01*
X155725632Y-127484368D01*
X156530543Y-128022192D01*
X157480000Y-128211051D01*
X158429457Y-128022192D01*
X159234368Y-127484368D01*
X159772192Y-126679457D01*
X159961051Y-125730000D01*
X159772192Y-124780543D01*
X159234368Y-123975632D01*
X158429457Y-123437808D01*
X157480000Y-123248949D01*
X156530543Y-123437808D01*
X155725632Y-123975632D01*
X155187808Y-124780543D01*
X154998949Y-125730000D01*
X125671051Y-125730000D01*
X125482192Y-124780543D01*
X124944368Y-123975632D01*
X124139457Y-123437808D01*
X123190000Y-123248949D01*
X122240543Y-123437808D01*
X121435632Y-123975632D01*
X120897808Y-124780543D01*
X120708949Y-125730000D01*
X120065000Y-125730000D01*
X120065000Y-118530000D01*
X120422560Y-118530000D01*
X120422560Y-120230000D01*
X120466838Y-120465317D01*
X120605910Y-120681441D01*
X120818110Y-120826431D01*
X121070000Y-120877440D01*
X122770000Y-120877440D01*
X123005317Y-120833162D01*
X123221441Y-120694090D01*
X123366431Y-120481890D01*
X123417440Y-120230000D01*
X123417440Y-118530000D01*
X123373162Y-118294683D01*
X123234090Y-118078559D01*
X123021890Y-117933569D01*
X122770000Y-117882560D01*
X121070000Y-117882560D01*
X120834683Y-117926838D01*
X120618559Y-118065910D01*
X120473569Y-118278110D01*
X120422560Y-118530000D01*
X120065000Y-118530000D01*
X120065000Y-114285000D01*
X120442560Y-114285000D01*
X120442560Y-115585000D01*
X120486838Y-115820317D01*
X120625910Y-116036441D01*
X120838110Y-116181431D01*
X121090000Y-116232440D01*
X122590000Y-116232440D01*
X122825317Y-116188162D01*
X123041441Y-116049090D01*
X123186431Y-115836890D01*
X123189081Y-115823803D01*
X123325910Y-116036441D01*
X123538110Y-116181431D01*
X123790000Y-116232440D01*
X125290000Y-116232440D01*
X125525317Y-116188162D01*
X125741441Y-116049090D01*
X125886431Y-115836890D01*
X125889851Y-115820000D01*
X127268420Y-115820000D01*
X134412255Y-122963834D01*
X134461883Y-123083943D01*
X134724673Y-123347192D01*
X135068201Y-123489838D01*
X135440167Y-123490162D01*
X135783943Y-123348117D01*
X135847170Y-123285000D01*
X136239250Y-123285000D01*
X136398000Y-123126250D01*
X136398000Y-122027000D01*
X136652000Y-122027000D01*
X136652000Y-123126250D01*
X136810750Y-123285000D01*
X137276310Y-123285000D01*
X137509699Y-123188327D01*
X137688327Y-123009698D01*
X137702699Y-122975000D01*
X140742560Y-122975000D01*
X140742560Y-124675000D01*
X140786838Y-124910317D01*
X140925910Y-125126441D01*
X141138110Y-125271431D01*
X141390000Y-125322440D01*
X143090000Y-125322440D01*
X143325317Y-125278162D01*
X143541441Y-125139090D01*
X143686431Y-124926890D01*
X143737440Y-124675000D01*
X143737440Y-122975000D01*
X143693162Y-122739683D01*
X143554090Y-122523559D01*
X143341890Y-122378569D01*
X143090000Y-122327560D01*
X141390000Y-122327560D01*
X141154683Y-122371838D01*
X140938559Y-122510910D01*
X140793569Y-122723110D01*
X140742560Y-122975000D01*
X137702699Y-122975000D01*
X137785000Y-122776309D01*
X137785000Y-122185750D01*
X137626250Y-122027000D01*
X136652000Y-122027000D01*
X136398000Y-122027000D01*
X136378000Y-122027000D01*
X136378000Y-121773000D01*
X136398000Y-121773000D01*
X136398000Y-121753000D01*
X136652000Y-121753000D01*
X136652000Y-121773000D01*
X137626250Y-121773000D01*
X137785000Y-121614250D01*
X137785000Y-121023691D01*
X137688327Y-120790302D01*
X137547090Y-120649064D01*
X137601441Y-120614090D01*
X137746431Y-120401890D01*
X137797440Y-120150000D01*
X137797440Y-118650000D01*
X137753162Y-118414683D01*
X137660000Y-118269905D01*
X137660000Y-116625000D01*
X140742560Y-116625000D01*
X140742560Y-118325000D01*
X140786838Y-118560317D01*
X140925910Y-118776441D01*
X141138110Y-118921431D01*
X141390000Y-118972440D01*
X143090000Y-118972440D01*
X143325317Y-118928162D01*
X143541441Y-118789090D01*
X143686431Y-118576890D01*
X143737440Y-118325000D01*
X143737440Y-116625000D01*
X143693162Y-116389683D01*
X143554090Y-116173559D01*
X143341890Y-116028569D01*
X143090000Y-115977560D01*
X141390000Y-115977560D01*
X141154683Y-116021838D01*
X140938559Y-116160910D01*
X140793569Y-116373110D01*
X140742560Y-116625000D01*
X137660000Y-116625000D01*
X137660000Y-115435000D01*
X153035000Y-115435000D01*
X153469346Y-115348603D01*
X153837566Y-115102566D01*
X154083603Y-114734346D01*
X154170000Y-114300000D01*
X154083603Y-113865654D01*
X153837566Y-113497434D01*
X153469346Y-113251397D01*
X153035000Y-113165000D01*
X152290163Y-113165000D01*
X152431441Y-113074090D01*
X152576431Y-112861890D01*
X152627440Y-112610000D01*
X152627440Y-110910000D01*
X152583162Y-110674683D01*
X152444090Y-110458559D01*
X152231890Y-110313569D01*
X151980000Y-110262560D01*
X151573390Y-110262560D01*
X151932566Y-110022566D01*
X152607692Y-109347440D01*
X152670000Y-109347440D01*
X152905317Y-109303162D01*
X152994228Y-109245949D01*
X153068110Y-109296431D01*
X153320000Y-109347440D01*
X154312308Y-109347440D01*
X155075000Y-110110132D01*
X155075000Y-110338808D01*
X154908559Y-110445910D01*
X154763569Y-110658110D01*
X154712560Y-110910000D01*
X154712560Y-112610000D01*
X154756838Y-112845317D01*
X154895910Y-113061441D01*
X155108110Y-113206431D01*
X155360000Y-113257440D01*
X157060000Y-113257440D01*
X157295317Y-113213162D01*
X157511441Y-113074090D01*
X157656431Y-112861890D01*
X157707440Y-112610000D01*
X157707440Y-110910000D01*
X157663162Y-110674683D01*
X157524090Y-110458559D01*
X157345000Y-110336192D01*
X157345000Y-109640000D01*
X157258603Y-109205654D01*
X157012566Y-108837434D01*
X156367440Y-108192308D01*
X156367440Y-107200000D01*
X156323162Y-106964683D01*
X156184090Y-106748559D01*
X155971890Y-106603569D01*
X155720000Y-106552560D01*
X153320000Y-106552560D01*
X153084683Y-106596838D01*
X152995772Y-106654051D01*
X152921890Y-106603569D01*
X152670000Y-106552560D01*
X151620000Y-106552560D01*
X151384683Y-106596838D01*
X151168559Y-106735910D01*
X151120000Y-106806978D01*
X151120000Y-106418691D01*
X151023327Y-106185302D01*
X150882090Y-106044064D01*
X150936441Y-106009090D01*
X151081431Y-105796890D01*
X151132440Y-105545000D01*
X151132440Y-104993865D01*
X152369782Y-104993865D01*
X152400095Y-105119528D01*
X152711149Y-105674246D01*
X153210807Y-106067703D01*
X153823000Y-106240000D01*
X154813000Y-106240000D01*
X154813000Y-104742000D01*
X155067000Y-104742000D01*
X155067000Y-106240000D01*
X156057000Y-106240000D01*
X156669193Y-106067703D01*
X157168851Y-105674246D01*
X157479905Y-105119528D01*
X157510218Y-104993865D01*
X157390740Y-104742000D01*
X155067000Y-104742000D01*
X154813000Y-104742000D01*
X152489260Y-104742000D01*
X152369782Y-104993865D01*
X151132440Y-104993865D01*
X151132440Y-104236135D01*
X152369782Y-104236135D01*
X152489260Y-104488000D01*
X154813000Y-104488000D01*
X154813000Y-102990000D01*
X155067000Y-102990000D01*
X155067000Y-104488000D01*
X157390740Y-104488000D01*
X157510218Y-104236135D01*
X157479905Y-104110472D01*
X157168851Y-103555754D01*
X156669193Y-103162297D01*
X156057000Y-102990000D01*
X155067000Y-102990000D01*
X154813000Y-102990000D01*
X153823000Y-102990000D01*
X153210807Y-103162297D01*
X152711149Y-103555754D01*
X152400095Y-104110472D01*
X152369782Y-104236135D01*
X151132440Y-104236135D01*
X151132440Y-104045000D01*
X151088162Y-103809683D01*
X150995000Y-103664905D01*
X150995000Y-103479975D01*
X151106431Y-103316890D01*
X151157440Y-103065000D01*
X151157440Y-101565000D01*
X151113162Y-101329683D01*
X150974090Y-101113559D01*
X150761890Y-100968569D01*
X150748803Y-100965919D01*
X150961441Y-100829090D01*
X151015481Y-100750000D01*
X152740333Y-100750000D01*
X152749720Y-100764049D01*
X153276908Y-101116304D01*
X153898769Y-101240000D01*
X155981231Y-101240000D01*
X156603092Y-101116304D01*
X157130280Y-100764049D01*
X157482535Y-100236861D01*
X157606231Y-99615000D01*
X157482535Y-98993139D01*
X157130280Y-98465951D01*
X156603092Y-98113696D01*
X155981231Y-97990000D01*
X153898769Y-97990000D01*
X153276908Y-98113696D01*
X152749720Y-98465951D01*
X152740333Y-98480000D01*
X151016844Y-98480000D01*
X150974090Y-98413559D01*
X150761890Y-98268569D01*
X150510000Y-98217560D01*
X149210000Y-98217560D01*
X148974683Y-98261838D01*
X148758559Y-98400910D01*
X148613569Y-98613110D01*
X148562560Y-98865000D01*
X148562560Y-100365000D01*
X148606838Y-100600317D01*
X148745910Y-100816441D01*
X148958110Y-100961431D01*
X148971197Y-100964081D01*
X148758559Y-101100910D01*
X148704519Y-101180000D01*
X148357185Y-101180000D01*
X147955000Y-101100000D01*
X147520655Y-101186397D01*
X147152434Y-101432434D01*
X146906397Y-101800655D01*
X146820000Y-102235000D01*
X146906397Y-102669345D01*
X147152434Y-103037566D01*
X147232434Y-103117566D01*
X147600654Y-103363603D01*
X148035000Y-103450000D01*
X148703156Y-103450000D01*
X148725000Y-103483946D01*
X148725000Y-103660000D01*
X147935000Y-103660000D01*
X147500654Y-103746397D01*
X147132434Y-103992434D01*
X146517434Y-104607434D01*
X146277440Y-104966610D01*
X146277440Y-104560000D01*
X146233162Y-104324683D01*
X146094090Y-104108559D01*
X145881890Y-103963569D01*
X145630000Y-103912560D01*
X143930000Y-103912560D01*
X143694683Y-103956838D01*
X143478559Y-104095910D01*
X143333569Y-104308110D01*
X143282560Y-104560000D01*
X143282560Y-106260000D01*
X143326838Y-106495317D01*
X143465910Y-106711441D01*
X143678110Y-106856431D01*
X143930000Y-106907440D01*
X145630000Y-106907440D01*
X145865317Y-106863162D01*
X146081441Y-106724090D01*
X146185000Y-106572526D01*
X146185000Y-108585000D01*
X146271397Y-109019346D01*
X146461037Y-109303162D01*
X146517434Y-109387566D01*
X147152434Y-110022566D01*
X147520655Y-110268604D01*
X147955000Y-110355000D01*
X148041553Y-110355000D01*
X148021715Y-110358946D01*
X147539946Y-110680853D01*
X147320000Y-111010026D01*
X147100054Y-110680853D01*
X146618285Y-110358946D01*
X146050000Y-110245907D01*
X145481715Y-110358946D01*
X144999946Y-110680853D01*
X144678039Y-111162622D01*
X144565000Y-111730907D01*
X144565000Y-111789093D01*
X144678039Y-112357378D01*
X144999946Y-112839147D01*
X145481715Y-113161054D01*
X145501553Y-113165000D01*
X137160000Y-113165000D01*
X136725655Y-113251396D01*
X136357434Y-113497434D01*
X135722434Y-114132434D01*
X135476397Y-114500654D01*
X135390000Y-114935000D01*
X135390000Y-118271614D01*
X135303569Y-118398110D01*
X135252560Y-118650000D01*
X135252560Y-120150000D01*
X135296838Y-120385317D01*
X135435910Y-120601441D01*
X135504006Y-120647969D01*
X135361673Y-120790302D01*
X135265000Y-121023691D01*
X135265000Y-121313421D01*
X130972985Y-117021405D01*
X131258201Y-117139838D01*
X131630167Y-117140162D01*
X131973943Y-116998117D01*
X132237192Y-116735327D01*
X132379838Y-116391799D01*
X132380162Y-116019833D01*
X132238117Y-115676057D01*
X131975327Y-115412808D01*
X131854013Y-115362434D01*
X131060000Y-114568420D01*
X131060000Y-106680000D01*
X130992633Y-106341325D01*
X130800790Y-106054210D01*
X130800787Y-106054208D01*
X124903485Y-100156905D01*
X125095000Y-100195000D01*
X128677233Y-100195000D01*
X128879275Y-100330000D01*
X128497189Y-100585302D01*
X128186120Y-101050849D01*
X128076887Y-101600000D01*
X128186120Y-102149151D01*
X128497189Y-102614698D01*
X128962736Y-102925767D01*
X129511887Y-103035000D01*
X129568113Y-103035000D01*
X130117264Y-102925767D01*
X130582811Y-102614698D01*
X130893880Y-102149151D01*
X131003113Y-101600000D01*
X130893880Y-101050849D01*
X130582811Y-100585302D01*
X130200725Y-100330000D01*
X130402767Y-100195000D01*
X130602560Y-100195000D01*
X130602560Y-100345000D01*
X130646838Y-100580317D01*
X130785910Y-100796441D01*
X130998110Y-100941431D01*
X131250000Y-100992440D01*
X132750000Y-100992440D01*
X132985317Y-100948162D01*
X133201441Y-100809090D01*
X133346431Y-100596890D01*
X133349081Y-100583803D01*
X133485910Y-100796441D01*
X133698110Y-100941431D01*
X133950000Y-100992440D01*
X135450000Y-100992440D01*
X135685317Y-100948162D01*
X135901441Y-100809090D01*
X136046431Y-100596890D01*
X136097440Y-100345000D01*
X136097440Y-99045000D01*
X136053162Y-98809683D01*
X135914090Y-98593559D01*
X135835000Y-98539519D01*
X135835000Y-97235000D01*
X135802011Y-97069151D01*
X135748604Y-96800655D01*
X135502566Y-96432434D01*
X134867566Y-95797434D01*
X134796576Y-95750000D01*
X134499346Y-95551397D01*
X134065000Y-95465000D01*
X133236844Y-95465000D01*
X133194090Y-95398559D01*
X132981890Y-95253569D01*
X132968803Y-95250919D01*
X133181441Y-95114090D01*
X133326431Y-94901890D01*
X133377440Y-94650000D01*
X133377440Y-93150000D01*
X133333162Y-92914683D01*
X133215000Y-92731054D01*
X133215000Y-91275132D01*
X133800132Y-90690000D01*
X148152560Y-90690000D01*
X148152560Y-92190000D01*
X148196838Y-92425317D01*
X148335910Y-92641441D01*
X148548110Y-92786431D01*
X148800000Y-92837440D01*
X149265000Y-92837440D01*
X149265000Y-93250000D01*
X149351397Y-93684346D01*
X149597434Y-94052566D01*
X150962434Y-95417567D01*
X151330655Y-95663604D01*
X151765000Y-95750000D01*
X152339844Y-95750000D01*
X152356838Y-95840317D01*
X152495910Y-96056441D01*
X152708110Y-96201431D01*
X152960000Y-96252440D01*
X156920000Y-96252440D01*
X157155317Y-96208162D01*
X157371441Y-96069090D01*
X157516431Y-95856890D01*
X157567440Y-95605000D01*
X157567440Y-93625000D01*
X157523162Y-93389683D01*
X157384090Y-93173559D01*
X157171890Y-93028569D01*
X156920000Y-92977560D01*
X152960000Y-92977560D01*
X152724683Y-93021838D01*
X152508559Y-93160910D01*
X152363569Y-93373110D01*
X152341923Y-93480000D01*
X152235133Y-93480000D01*
X151592572Y-92837440D01*
X152000000Y-92837440D01*
X152235317Y-92793162D01*
X152399493Y-92687518D01*
X152440302Y-92728327D01*
X152673691Y-92825000D01*
X154114250Y-92825000D01*
X154273000Y-92666250D01*
X154273000Y-91567000D01*
X154527000Y-91567000D01*
X154527000Y-92666250D01*
X154685750Y-92825000D01*
X156126309Y-92825000D01*
X156359698Y-92728327D01*
X156538327Y-92549699D01*
X156635000Y-92316310D01*
X156635000Y-91725750D01*
X156476250Y-91567000D01*
X154527000Y-91567000D01*
X154273000Y-91567000D01*
X154253000Y-91567000D01*
X154253000Y-91313000D01*
X154273000Y-91313000D01*
X154273000Y-90213750D01*
X154527000Y-90213750D01*
X154527000Y-91313000D01*
X156476250Y-91313000D01*
X156635000Y-91154250D01*
X156635000Y-90563690D01*
X156538327Y-90330301D01*
X156359698Y-90151673D01*
X156126309Y-90055000D01*
X154685750Y-90055000D01*
X154527000Y-90213750D01*
X154273000Y-90213750D01*
X154114250Y-90055000D01*
X152673691Y-90055000D01*
X152440302Y-90151673D01*
X152398340Y-90193634D01*
X152251890Y-90093569D01*
X152000000Y-90042560D01*
X148800000Y-90042560D01*
X148564683Y-90086838D01*
X148348559Y-90225910D01*
X148203569Y-90438110D01*
X148152560Y-90690000D01*
X133800132Y-90690000D01*
X135422566Y-89067567D01*
X135668603Y-88699346D01*
X135725037Y-88415632D01*
X135755000Y-88265000D01*
X135755000Y-87630000D01*
X154998949Y-87630000D01*
X155187808Y-88579457D01*
X155725632Y-89384368D01*
X156530543Y-89922192D01*
X157480000Y-90111051D01*
X158429457Y-89922192D01*
X159234368Y-89384368D01*
X159772192Y-88579457D01*
X159961051Y-87630000D01*
X159772192Y-86680543D01*
X159234368Y-85875632D01*
X158429457Y-85337808D01*
X157480000Y-85148949D01*
X156530543Y-85337808D01*
X155725632Y-85875632D01*
X155187808Y-86680543D01*
X154998949Y-87630000D01*
X135755000Y-87630000D01*
X135755000Y-87141568D01*
X135768043Y-87128548D01*
X135974764Y-86630709D01*
X135975235Y-86091656D01*
X135769383Y-85593457D01*
X135388548Y-85211957D01*
X134890709Y-85005236D01*
X134351656Y-85004765D01*
X133853457Y-85210617D01*
X133471957Y-85591452D01*
X133349955Y-85885264D01*
X133229383Y-85593457D01*
X132848548Y-85211957D01*
X132350709Y-85005236D01*
X131811656Y-85004765D01*
X131313457Y-85210617D01*
X131299049Y-85225000D01*
X130321568Y-85225000D01*
X130308548Y-85211957D01*
X129810709Y-85005236D01*
X129271656Y-85004765D01*
X128773457Y-85210617D01*
X128391957Y-85591452D01*
X128185236Y-86089291D01*
X128184765Y-86628344D01*
X128390617Y-87126543D01*
X128405000Y-87140951D01*
X128405000Y-92865000D01*
X128131844Y-92865000D01*
X128089090Y-92798559D01*
X127876890Y-92653569D01*
X127625000Y-92602560D01*
X126375000Y-92602560D01*
X126139683Y-92646838D01*
X125923559Y-92785910D01*
X125778569Y-92998110D01*
X125727560Y-93250000D01*
X125727560Y-94750000D01*
X125771838Y-94985317D01*
X125910910Y-95201441D01*
X125979006Y-95247969D01*
X125836673Y-95390302D01*
X125740000Y-95623691D01*
X125740000Y-96214250D01*
X125898750Y-96373000D01*
X126873000Y-96373000D01*
X126873000Y-96353000D01*
X127127000Y-96353000D01*
X127127000Y-96373000D01*
X127147000Y-96373000D01*
X127147000Y-96627000D01*
X127127000Y-96627000D01*
X127127000Y-97726250D01*
X127285750Y-97885000D01*
X127751310Y-97885000D01*
X127984699Y-97788327D01*
X128163327Y-97609698D01*
X128260000Y-97376309D01*
X128260000Y-97179720D01*
X128497189Y-97534698D01*
X128879275Y-97790000D01*
X128677233Y-97925000D01*
X125565132Y-97925000D01*
X125062529Y-97422397D01*
X125097440Y-97250000D01*
X125097440Y-96785750D01*
X125740000Y-96785750D01*
X125740000Y-97376309D01*
X125836673Y-97609698D01*
X126015301Y-97788327D01*
X126248690Y-97885000D01*
X126714250Y-97885000D01*
X126873000Y-97726250D01*
X126873000Y-96627000D01*
X125898750Y-96627000D01*
X125740000Y-96785750D01*
X125097440Y-96785750D01*
X125097440Y-95750000D01*
X125053162Y-95514683D01*
X124914090Y-95298559D01*
X124845994Y-95252031D01*
X124988327Y-95109698D01*
X125085000Y-94876309D01*
X125085000Y-94285750D01*
X124926250Y-94127000D01*
X123952000Y-94127000D01*
X123952000Y-94147000D01*
X123698000Y-94147000D01*
X123698000Y-94127000D01*
X123216250Y-94127000D01*
X123196250Y-94107000D01*
X122047000Y-94107000D01*
X122047000Y-94127000D01*
X121793000Y-94127000D01*
X121793000Y-94107000D01*
X120643750Y-94107000D01*
X120485000Y-94265750D01*
X120485000Y-94906310D01*
X120581673Y-95139699D01*
X120760302Y-95318327D01*
X120993691Y-95415000D01*
X121012335Y-95415000D01*
X120877189Y-95505302D01*
X120566120Y-95970849D01*
X120456887Y-96520000D01*
X120566120Y-97069151D01*
X120877189Y-97534698D01*
X121259275Y-97790000D01*
X120877189Y-98045302D01*
X120566120Y-98510849D01*
X120456887Y-99060000D01*
X120566120Y-99609151D01*
X120877189Y-100074698D01*
X121259275Y-100330000D01*
X120877189Y-100585302D01*
X120566120Y-101050849D01*
X120456887Y-101600000D01*
X120566120Y-102149151D01*
X120877189Y-102614698D01*
X121342736Y-102925767D01*
X121891887Y-103035000D01*
X121948113Y-103035000D01*
X122497264Y-102925767D01*
X122962811Y-102614698D01*
X123273880Y-102149151D01*
X123383113Y-101600000D01*
X123273880Y-101050849D01*
X123232823Y-100989403D01*
X129290000Y-107046579D01*
X129290000Y-114934995D01*
X129289999Y-114935000D01*
X129323331Y-115102566D01*
X129357367Y-115273675D01*
X129549210Y-115560790D01*
X130602255Y-116613834D01*
X130628196Y-116676617D01*
X128523505Y-114571925D01*
X128798943Y-114458117D01*
X129062192Y-114195327D01*
X129204838Y-113851799D01*
X129205162Y-113479833D01*
X129063117Y-113136057D01*
X128800327Y-112872808D01*
X128456799Y-112730162D01*
X128084833Y-112729838D01*
X127963431Y-112780000D01*
X124826579Y-112780000D01*
X124710000Y-112663420D01*
X124710000Y-110275000D01*
X125502560Y-110275000D01*
X125502560Y-111975000D01*
X125546838Y-112210317D01*
X125685910Y-112426441D01*
X125898110Y-112571431D01*
X126150000Y-112622440D01*
X127850000Y-112622440D01*
X128085317Y-112578162D01*
X128301441Y-112439090D01*
X128446431Y-112226890D01*
X128497440Y-111975000D01*
X128497440Y-110275000D01*
X128453162Y-110039683D01*
X128314090Y-109823559D01*
X128101890Y-109678569D01*
X127850000Y-109627560D01*
X126150000Y-109627560D01*
X125914683Y-109671838D01*
X125698559Y-109810910D01*
X125553569Y-110023110D01*
X125502560Y-110275000D01*
X124710000Y-110275000D01*
X124710000Y-109855005D01*
X124710001Y-109855000D01*
X124642634Y-109516326D01*
X124524817Y-109340000D01*
X124450790Y-109229210D01*
X124450787Y-109229208D01*
X123815790Y-108594210D01*
X123682277Y-108505000D01*
X123528675Y-108402367D01*
X123438073Y-108384345D01*
X123190000Y-108334999D01*
X123189995Y-108335000D01*
X123055000Y-108335000D01*
X123055000Y-107461568D01*
X123068043Y-107448548D01*
X123274764Y-106950709D01*
X123275235Y-106411656D01*
X123069383Y-105913457D01*
X122688548Y-105531957D01*
X122190709Y-105325236D01*
X121651656Y-105324765D01*
X121153457Y-105530617D01*
X120771957Y-105911452D01*
X120565236Y-106409291D01*
X120564765Y-106948344D01*
X120770617Y-107446543D01*
X120785000Y-107460951D01*
X120785000Y-108438432D01*
X120771957Y-108451452D01*
X120565236Y-108949291D01*
X120564765Y-109488344D01*
X120770617Y-109986543D01*
X121151452Y-110368043D01*
X121445264Y-110490045D01*
X121153457Y-110610617D01*
X120771957Y-110991452D01*
X120565236Y-111489291D01*
X120564765Y-112028344D01*
X120705000Y-112367738D01*
X120705000Y-113778156D01*
X120638559Y-113820910D01*
X120493569Y-114033110D01*
X120442560Y-114285000D01*
X120065000Y-114285000D01*
X120065000Y-93053690D01*
X120485000Y-93053690D01*
X120485000Y-93694250D01*
X120643750Y-93853000D01*
X121793000Y-93853000D01*
X121793000Y-92703750D01*
X122047000Y-92703750D01*
X122047000Y-93853000D01*
X122703750Y-93853000D01*
X122723750Y-93873000D01*
X123698000Y-93873000D01*
X123698000Y-92773750D01*
X123952000Y-92773750D01*
X123952000Y-93873000D01*
X124926250Y-93873000D01*
X125085000Y-93714250D01*
X125085000Y-93123691D01*
X124988327Y-92890302D01*
X124809699Y-92711673D01*
X124576310Y-92615000D01*
X124110750Y-92615000D01*
X123952000Y-92773750D01*
X123698000Y-92773750D01*
X123539250Y-92615000D01*
X123073690Y-92615000D01*
X123044497Y-92627092D01*
X122846309Y-92545000D01*
X122205750Y-92545000D01*
X122047000Y-92703750D01*
X121793000Y-92703750D01*
X121634250Y-92545000D01*
X120993691Y-92545000D01*
X120760302Y-92641673D01*
X120581673Y-92820301D01*
X120485000Y-93053690D01*
X120065000Y-93053690D01*
X120065000Y-87630000D01*
X120708949Y-87630000D01*
X120897808Y-88579457D01*
X121435632Y-89384368D01*
X122240543Y-89922192D01*
X123190000Y-90111051D01*
X124139457Y-89922192D01*
X124944368Y-89384368D01*
X125482192Y-88579457D01*
X125671051Y-87630000D01*
X125482192Y-86680543D01*
X124944368Y-85875632D01*
X124139457Y-85337808D01*
X123190000Y-85148949D01*
X122240543Y-85337808D01*
X121435632Y-85875632D01*
X120897808Y-86680543D01*
X120708949Y-87630000D01*
X120065000Y-87630000D01*
X120065000Y-84505000D01*
X160605000Y-84505000D01*
X160605000Y-128855000D01*
X160605000Y-128855000D01*
G37*
X160605000Y-128855000D02*
X120065000Y-128855000D01*
X120065000Y-125730000D01*
X120708949Y-125730000D01*
X120897808Y-126679457D01*
X121435632Y-127484368D01*
X122240543Y-128022192D01*
X123190000Y-128211051D01*
X124139457Y-128022192D01*
X124944368Y-127484368D01*
X125482192Y-126679457D01*
X125671051Y-125730000D01*
X154998949Y-125730000D01*
X155187808Y-126679457D01*
X155725632Y-127484368D01*
X156530543Y-128022192D01*
X157480000Y-128211051D01*
X158429457Y-128022192D01*
X159234368Y-127484368D01*
X159772192Y-126679457D01*
X159961051Y-125730000D01*
X159772192Y-124780543D01*
X159234368Y-123975632D01*
X158429457Y-123437808D01*
X157480000Y-123248949D01*
X156530543Y-123437808D01*
X155725632Y-123975632D01*
X155187808Y-124780543D01*
X154998949Y-125730000D01*
X125671051Y-125730000D01*
X125482192Y-124780543D01*
X124944368Y-123975632D01*
X124139457Y-123437808D01*
X123190000Y-123248949D01*
X122240543Y-123437808D01*
X121435632Y-123975632D01*
X120897808Y-124780543D01*
X120708949Y-125730000D01*
X120065000Y-125730000D01*
X120065000Y-118530000D01*
X120422560Y-118530000D01*
X120422560Y-120230000D01*
X120466838Y-120465317D01*
X120605910Y-120681441D01*
X120818110Y-120826431D01*
X121070000Y-120877440D01*
X122770000Y-120877440D01*
X123005317Y-120833162D01*
X123221441Y-120694090D01*
X123366431Y-120481890D01*
X123417440Y-120230000D01*
X123417440Y-118530000D01*
X123373162Y-118294683D01*
X123234090Y-118078559D01*
X123021890Y-117933569D01*
X122770000Y-117882560D01*
X121070000Y-117882560D01*
X120834683Y-117926838D01*
X120618559Y-118065910D01*
X120473569Y-118278110D01*
X120422560Y-118530000D01*
X120065000Y-118530000D01*
X120065000Y-114285000D01*
X120442560Y-114285000D01*
X120442560Y-115585000D01*
X120486838Y-115820317D01*
X120625910Y-116036441D01*
X120838110Y-116181431D01*
X121090000Y-116232440D01*
X122590000Y-116232440D01*
X122825317Y-116188162D01*
X123041441Y-116049090D01*
X123186431Y-115836890D01*
X123189081Y-115823803D01*
X123325910Y-116036441D01*
X123538110Y-116181431D01*
X123790000Y-116232440D01*
X125290000Y-116232440D01*
X125525317Y-116188162D01*
X125741441Y-116049090D01*
X125886431Y-115836890D01*
X125889851Y-115820000D01*
X127268420Y-115820000D01*
X134412255Y-122963834D01*
X134461883Y-123083943D01*
X134724673Y-123347192D01*
X135068201Y-123489838D01*
X135440167Y-123490162D01*
X135783943Y-123348117D01*
X135847170Y-123285000D01*
X136239250Y-123285000D01*
X136398000Y-123126250D01*
X136398000Y-122027000D01*
X136652000Y-122027000D01*
X136652000Y-123126250D01*
X136810750Y-123285000D01*
X137276310Y-123285000D01*
X137509699Y-123188327D01*
X137688327Y-123009698D01*
X137702699Y-122975000D01*
X140742560Y-122975000D01*
X140742560Y-124675000D01*
X140786838Y-124910317D01*
X140925910Y-125126441D01*
X141138110Y-125271431D01*
X141390000Y-125322440D01*
X143090000Y-125322440D01*
X143325317Y-125278162D01*
X143541441Y-125139090D01*
X143686431Y-124926890D01*
X143737440Y-124675000D01*
X143737440Y-122975000D01*
X143693162Y-122739683D01*
X143554090Y-122523559D01*
X143341890Y-122378569D01*
X143090000Y-122327560D01*
X141390000Y-122327560D01*
X141154683Y-122371838D01*
X140938559Y-122510910D01*
X140793569Y-122723110D01*
X140742560Y-122975000D01*
X137702699Y-122975000D01*
X137785000Y-122776309D01*
X137785000Y-122185750D01*
X137626250Y-122027000D01*
X136652000Y-122027000D01*
X136398000Y-122027000D01*
X136378000Y-122027000D01*
X136378000Y-121773000D01*
X136398000Y-121773000D01*
X136398000Y-121753000D01*
X136652000Y-121753000D01*
X136652000Y-121773000D01*
X137626250Y-121773000D01*
X137785000Y-121614250D01*
X137785000Y-121023691D01*
X137688327Y-120790302D01*
X137547090Y-120649064D01*
X137601441Y-120614090D01*
X137746431Y-120401890D01*
X137797440Y-120150000D01*
X137797440Y-118650000D01*
X137753162Y-118414683D01*
X137660000Y-118269905D01*
X137660000Y-116625000D01*
X140742560Y-116625000D01*
X140742560Y-118325000D01*
X140786838Y-118560317D01*
X140925910Y-118776441D01*
X141138110Y-118921431D01*
X141390000Y-118972440D01*
X143090000Y-118972440D01*
X143325317Y-118928162D01*
X143541441Y-118789090D01*
X143686431Y-118576890D01*
X143737440Y-118325000D01*
X143737440Y-116625000D01*
X143693162Y-116389683D01*
X143554090Y-116173559D01*
X143341890Y-116028569D01*
X143090000Y-115977560D01*
X141390000Y-115977560D01*
X141154683Y-116021838D01*
X140938559Y-116160910D01*
X140793569Y-116373110D01*
X140742560Y-116625000D01*
X137660000Y-116625000D01*
X137660000Y-115435000D01*
X153035000Y-115435000D01*
X153469346Y-115348603D01*
X153837566Y-115102566D01*
X154083603Y-114734346D01*
X154170000Y-114300000D01*
X154083603Y-113865654D01*
X153837566Y-113497434D01*
X153469346Y-113251397D01*
X153035000Y-113165000D01*
X152290163Y-113165000D01*
X152431441Y-113074090D01*
X152576431Y-112861890D01*
X152627440Y-112610000D01*
X152627440Y-110910000D01*
X152583162Y-110674683D01*
X152444090Y-110458559D01*
X152231890Y-110313569D01*
X151980000Y-110262560D01*
X151573390Y-110262560D01*
X151932566Y-110022566D01*
X152607692Y-109347440D01*
X152670000Y-109347440D01*
X152905317Y-109303162D01*
X152994228Y-109245949D01*
X153068110Y-109296431D01*
X153320000Y-109347440D01*
X154312308Y-109347440D01*
X155075000Y-110110132D01*
X155075000Y-110338808D01*
X154908559Y-110445910D01*
X154763569Y-110658110D01*
X154712560Y-110910000D01*
X154712560Y-112610000D01*
X154756838Y-112845317D01*
X154895910Y-113061441D01*
X155108110Y-113206431D01*
X155360000Y-113257440D01*
X157060000Y-113257440D01*
X157295317Y-113213162D01*
X157511441Y-113074090D01*
X157656431Y-112861890D01*
X157707440Y-112610000D01*
X157707440Y-110910000D01*
X157663162Y-110674683D01*
X157524090Y-110458559D01*
X157345000Y-110336192D01*
X157345000Y-109640000D01*
X157258603Y-109205654D01*
X157012566Y-108837434D01*
X156367440Y-108192308D01*
X156367440Y-107200000D01*
X156323162Y-106964683D01*
X156184090Y-106748559D01*
X155971890Y-106603569D01*
X155720000Y-106552560D01*
X153320000Y-106552560D01*
X153084683Y-106596838D01*
X152995772Y-106654051D01*
X152921890Y-106603569D01*
X152670000Y-106552560D01*
X151620000Y-106552560D01*
X151384683Y-106596838D01*
X151168559Y-106735910D01*
X151120000Y-106806978D01*
X151120000Y-106418691D01*
X151023327Y-106185302D01*
X150882090Y-106044064D01*
X150936441Y-106009090D01*
X151081431Y-105796890D01*
X151132440Y-105545000D01*
X151132440Y-104993865D01*
X152369782Y-104993865D01*
X152400095Y-105119528D01*
X152711149Y-105674246D01*
X153210807Y-106067703D01*
X153823000Y-106240000D01*
X154813000Y-106240000D01*
X154813000Y-104742000D01*
X155067000Y-104742000D01*
X155067000Y-106240000D01*
X156057000Y-106240000D01*
X156669193Y-106067703D01*
X157168851Y-105674246D01*
X157479905Y-105119528D01*
X157510218Y-104993865D01*
X157390740Y-104742000D01*
X155067000Y-104742000D01*
X154813000Y-104742000D01*
X152489260Y-104742000D01*
X152369782Y-104993865D01*
X151132440Y-104993865D01*
X151132440Y-104236135D01*
X152369782Y-104236135D01*
X152489260Y-104488000D01*
X154813000Y-104488000D01*
X154813000Y-102990000D01*
X155067000Y-102990000D01*
X155067000Y-104488000D01*
X157390740Y-104488000D01*
X157510218Y-104236135D01*
X157479905Y-104110472D01*
X157168851Y-103555754D01*
X156669193Y-103162297D01*
X156057000Y-102990000D01*
X155067000Y-102990000D01*
X154813000Y-102990000D01*
X153823000Y-102990000D01*
X153210807Y-103162297D01*
X152711149Y-103555754D01*
X152400095Y-104110472D01*
X152369782Y-104236135D01*
X151132440Y-104236135D01*
X151132440Y-104045000D01*
X151088162Y-103809683D01*
X150995000Y-103664905D01*
X150995000Y-103479975D01*
X151106431Y-103316890D01*
X151157440Y-103065000D01*
X151157440Y-101565000D01*
X151113162Y-101329683D01*
X150974090Y-101113559D01*
X150761890Y-100968569D01*
X150748803Y-100965919D01*
X150961441Y-100829090D01*
X151015481Y-100750000D01*
X152740333Y-100750000D01*
X152749720Y-100764049D01*
X153276908Y-101116304D01*
X153898769Y-101240000D01*
X155981231Y-101240000D01*
X156603092Y-101116304D01*
X157130280Y-100764049D01*
X157482535Y-100236861D01*
X157606231Y-99615000D01*
X157482535Y-98993139D01*
X157130280Y-98465951D01*
X156603092Y-98113696D01*
X155981231Y-97990000D01*
X153898769Y-97990000D01*
X153276908Y-98113696D01*
X152749720Y-98465951D01*
X152740333Y-98480000D01*
X151016844Y-98480000D01*
X150974090Y-98413559D01*
X150761890Y-98268569D01*
X150510000Y-98217560D01*
X149210000Y-98217560D01*
X148974683Y-98261838D01*
X148758559Y-98400910D01*
X148613569Y-98613110D01*
X148562560Y-98865000D01*
X148562560Y-100365000D01*
X148606838Y-100600317D01*
X148745910Y-100816441D01*
X148958110Y-100961431D01*
X148971197Y-100964081D01*
X148758559Y-101100910D01*
X148704519Y-101180000D01*
X148357185Y-101180000D01*
X147955000Y-101100000D01*
X147520655Y-101186397D01*
X147152434Y-101432434D01*
X146906397Y-101800655D01*
X146820000Y-102235000D01*
X146906397Y-102669345D01*
X147152434Y-103037566D01*
X147232434Y-103117566D01*
X147600654Y-103363603D01*
X148035000Y-103450000D01*
X148703156Y-103450000D01*
X148725000Y-103483946D01*
X148725000Y-103660000D01*
X147935000Y-103660000D01*
X147500654Y-103746397D01*
X147132434Y-103992434D01*
X146517434Y-104607434D01*
X146277440Y-104966610D01*
X146277440Y-104560000D01*
X146233162Y-104324683D01*
X146094090Y-104108559D01*
X145881890Y-103963569D01*
X145630000Y-103912560D01*
X143930000Y-103912560D01*
X143694683Y-103956838D01*
X143478559Y-104095910D01*
X143333569Y-104308110D01*
X143282560Y-104560000D01*
X143282560Y-106260000D01*
X143326838Y-106495317D01*
X143465910Y-106711441D01*
X143678110Y-106856431D01*
X143930000Y-106907440D01*
X145630000Y-106907440D01*
X145865317Y-106863162D01*
X146081441Y-106724090D01*
X146185000Y-106572526D01*
X146185000Y-108585000D01*
X146271397Y-109019346D01*
X146461037Y-109303162D01*
X146517434Y-109387566D01*
X147152434Y-110022566D01*
X147520655Y-110268604D01*
X147955000Y-110355000D01*
X148041553Y-110355000D01*
X148021715Y-110358946D01*
X147539946Y-110680853D01*
X147320000Y-111010026D01*
X147100054Y-110680853D01*
X146618285Y-110358946D01*
X146050000Y-110245907D01*
X145481715Y-110358946D01*
X144999946Y-110680853D01*
X144678039Y-111162622D01*
X144565000Y-111730907D01*
X144565000Y-111789093D01*
X144678039Y-112357378D01*
X144999946Y-112839147D01*
X145481715Y-113161054D01*
X145501553Y-113165000D01*
X137160000Y-113165000D01*
X136725655Y-113251396D01*
X136357434Y-113497434D01*
X135722434Y-114132434D01*
X135476397Y-114500654D01*
X135390000Y-114935000D01*
X135390000Y-118271614D01*
X135303569Y-118398110D01*
X135252560Y-118650000D01*
X135252560Y-120150000D01*
X135296838Y-120385317D01*
X135435910Y-120601441D01*
X135504006Y-120647969D01*
X135361673Y-120790302D01*
X135265000Y-121023691D01*
X135265000Y-121313421D01*
X130972985Y-117021405D01*
X131258201Y-117139838D01*
X131630167Y-117140162D01*
X131973943Y-116998117D01*
X132237192Y-116735327D01*
X132379838Y-116391799D01*
X132380162Y-116019833D01*
X132238117Y-115676057D01*
X131975327Y-115412808D01*
X131854013Y-115362434D01*
X131060000Y-114568420D01*
X131060000Y-106680000D01*
X130992633Y-106341325D01*
X130800790Y-106054210D01*
X130800787Y-106054208D01*
X124903485Y-100156905D01*
X125095000Y-100195000D01*
X128677233Y-100195000D01*
X128879275Y-100330000D01*
X128497189Y-100585302D01*
X128186120Y-101050849D01*
X128076887Y-101600000D01*
X128186120Y-102149151D01*
X128497189Y-102614698D01*
X128962736Y-102925767D01*
X129511887Y-103035000D01*
X129568113Y-103035000D01*
X130117264Y-102925767D01*
X130582811Y-102614698D01*
X130893880Y-102149151D01*
X131003113Y-101600000D01*
X130893880Y-101050849D01*
X130582811Y-100585302D01*
X130200725Y-100330000D01*
X130402767Y-100195000D01*
X130602560Y-100195000D01*
X130602560Y-100345000D01*
X130646838Y-100580317D01*
X130785910Y-100796441D01*
X130998110Y-100941431D01*
X131250000Y-100992440D01*
X132750000Y-100992440D01*
X132985317Y-100948162D01*
X133201441Y-100809090D01*
X133346431Y-100596890D01*
X133349081Y-100583803D01*
X133485910Y-100796441D01*
X133698110Y-100941431D01*
X133950000Y-100992440D01*
X135450000Y-100992440D01*
X135685317Y-100948162D01*
X135901441Y-100809090D01*
X136046431Y-100596890D01*
X136097440Y-100345000D01*
X136097440Y-99045000D01*
X136053162Y-98809683D01*
X135914090Y-98593559D01*
X135835000Y-98539519D01*
X135835000Y-97235000D01*
X135802011Y-97069151D01*
X135748604Y-96800655D01*
X135502566Y-96432434D01*
X134867566Y-95797434D01*
X134796576Y-95750000D01*
X134499346Y-95551397D01*
X134065000Y-95465000D01*
X133236844Y-95465000D01*
X133194090Y-95398559D01*
X132981890Y-95253569D01*
X132968803Y-95250919D01*
X133181441Y-95114090D01*
X133326431Y-94901890D01*
X133377440Y-94650000D01*
X133377440Y-93150000D01*
X133333162Y-92914683D01*
X133215000Y-92731054D01*
X133215000Y-91275132D01*
X133800132Y-90690000D01*
X148152560Y-90690000D01*
X148152560Y-92190000D01*
X148196838Y-92425317D01*
X148335910Y-92641441D01*
X148548110Y-92786431D01*
X148800000Y-92837440D01*
X149265000Y-92837440D01*
X149265000Y-93250000D01*
X149351397Y-93684346D01*
X149597434Y-94052566D01*
X150962434Y-95417567D01*
X151330655Y-95663604D01*
X151765000Y-95750000D01*
X152339844Y-95750000D01*
X152356838Y-95840317D01*
X152495910Y-96056441D01*
X152708110Y-96201431D01*
X152960000Y-96252440D01*
X156920000Y-96252440D01*
X157155317Y-96208162D01*
X157371441Y-96069090D01*
X157516431Y-95856890D01*
X157567440Y-95605000D01*
X157567440Y-93625000D01*
X157523162Y-93389683D01*
X157384090Y-93173559D01*
X157171890Y-93028569D01*
X156920000Y-92977560D01*
X152960000Y-92977560D01*
X152724683Y-93021838D01*
X152508559Y-93160910D01*
X152363569Y-93373110D01*
X152341923Y-93480000D01*
X152235133Y-93480000D01*
X151592572Y-92837440D01*
X152000000Y-92837440D01*
X152235317Y-92793162D01*
X152399493Y-92687518D01*
X152440302Y-92728327D01*
X152673691Y-92825000D01*
X154114250Y-92825000D01*
X154273000Y-92666250D01*
X154273000Y-91567000D01*
X154527000Y-91567000D01*
X154527000Y-92666250D01*
X154685750Y-92825000D01*
X156126309Y-92825000D01*
X156359698Y-92728327D01*
X156538327Y-92549699D01*
X156635000Y-92316310D01*
X156635000Y-91725750D01*
X156476250Y-91567000D01*
X154527000Y-91567000D01*
X154273000Y-91567000D01*
X154253000Y-91567000D01*
X154253000Y-91313000D01*
X154273000Y-91313000D01*
X154273000Y-90213750D01*
X154527000Y-90213750D01*
X154527000Y-91313000D01*
X156476250Y-91313000D01*
X156635000Y-91154250D01*
X156635000Y-90563690D01*
X156538327Y-90330301D01*
X156359698Y-90151673D01*
X156126309Y-90055000D01*
X154685750Y-90055000D01*
X154527000Y-90213750D01*
X154273000Y-90213750D01*
X154114250Y-90055000D01*
X152673691Y-90055000D01*
X152440302Y-90151673D01*
X152398340Y-90193634D01*
X152251890Y-90093569D01*
X152000000Y-90042560D01*
X148800000Y-90042560D01*
X148564683Y-90086838D01*
X148348559Y-90225910D01*
X148203569Y-90438110D01*
X148152560Y-90690000D01*
X133800132Y-90690000D01*
X135422566Y-89067567D01*
X135668603Y-88699346D01*
X135725037Y-88415632D01*
X135755000Y-88265000D01*
X135755000Y-87630000D01*
X154998949Y-87630000D01*
X155187808Y-88579457D01*
X155725632Y-89384368D01*
X156530543Y-89922192D01*
X157480000Y-90111051D01*
X158429457Y-89922192D01*
X159234368Y-89384368D01*
X159772192Y-88579457D01*
X159961051Y-87630000D01*
X159772192Y-86680543D01*
X159234368Y-85875632D01*
X158429457Y-85337808D01*
X157480000Y-85148949D01*
X156530543Y-85337808D01*
X155725632Y-85875632D01*
X155187808Y-86680543D01*
X154998949Y-87630000D01*
X135755000Y-87630000D01*
X135755000Y-87141568D01*
X135768043Y-87128548D01*
X135974764Y-86630709D01*
X135975235Y-86091656D01*
X135769383Y-85593457D01*
X135388548Y-85211957D01*
X134890709Y-85005236D01*
X134351656Y-85004765D01*
X133853457Y-85210617D01*
X133471957Y-85591452D01*
X133349955Y-85885264D01*
X133229383Y-85593457D01*
X132848548Y-85211957D01*
X132350709Y-85005236D01*
X131811656Y-85004765D01*
X131313457Y-85210617D01*
X131299049Y-85225000D01*
X130321568Y-85225000D01*
X130308548Y-85211957D01*
X129810709Y-85005236D01*
X129271656Y-85004765D01*
X128773457Y-85210617D01*
X128391957Y-85591452D01*
X128185236Y-86089291D01*
X128184765Y-86628344D01*
X128390617Y-87126543D01*
X128405000Y-87140951D01*
X128405000Y-92865000D01*
X128131844Y-92865000D01*
X128089090Y-92798559D01*
X127876890Y-92653569D01*
X127625000Y-92602560D01*
X126375000Y-92602560D01*
X126139683Y-92646838D01*
X125923559Y-92785910D01*
X125778569Y-92998110D01*
X125727560Y-93250000D01*
X125727560Y-94750000D01*
X125771838Y-94985317D01*
X125910910Y-95201441D01*
X125979006Y-95247969D01*
X125836673Y-95390302D01*
X125740000Y-95623691D01*
X125740000Y-96214250D01*
X125898750Y-96373000D01*
X126873000Y-96373000D01*
X126873000Y-96353000D01*
X127127000Y-96353000D01*
X127127000Y-96373000D01*
X127147000Y-96373000D01*
X127147000Y-96627000D01*
X127127000Y-96627000D01*
X127127000Y-97726250D01*
X127285750Y-97885000D01*
X127751310Y-97885000D01*
X127984699Y-97788327D01*
X128163327Y-97609698D01*
X128260000Y-97376309D01*
X128260000Y-97179720D01*
X128497189Y-97534698D01*
X128879275Y-97790000D01*
X128677233Y-97925000D01*
X125565132Y-97925000D01*
X125062529Y-97422397D01*
X125097440Y-97250000D01*
X125097440Y-96785750D01*
X125740000Y-96785750D01*
X125740000Y-97376309D01*
X125836673Y-97609698D01*
X126015301Y-97788327D01*
X126248690Y-97885000D01*
X126714250Y-97885000D01*
X126873000Y-97726250D01*
X126873000Y-96627000D01*
X125898750Y-96627000D01*
X125740000Y-96785750D01*
X125097440Y-96785750D01*
X125097440Y-95750000D01*
X125053162Y-95514683D01*
X124914090Y-95298559D01*
X124845994Y-95252031D01*
X124988327Y-95109698D01*
X125085000Y-94876309D01*
X125085000Y-94285750D01*
X124926250Y-94127000D01*
X123952000Y-94127000D01*
X123952000Y-94147000D01*
X123698000Y-94147000D01*
X123698000Y-94127000D01*
X123216250Y-94127000D01*
X123196250Y-94107000D01*
X122047000Y-94107000D01*
X122047000Y-94127000D01*
X121793000Y-94127000D01*
X121793000Y-94107000D01*
X120643750Y-94107000D01*
X120485000Y-94265750D01*
X120485000Y-94906310D01*
X120581673Y-95139699D01*
X120760302Y-95318327D01*
X120993691Y-95415000D01*
X121012335Y-95415000D01*
X120877189Y-95505302D01*
X120566120Y-95970849D01*
X120456887Y-96520000D01*
X120566120Y-97069151D01*
X120877189Y-97534698D01*
X121259275Y-97790000D01*
X120877189Y-98045302D01*
X120566120Y-98510849D01*
X120456887Y-99060000D01*
X120566120Y-99609151D01*
X120877189Y-100074698D01*
X121259275Y-100330000D01*
X120877189Y-100585302D01*
X120566120Y-101050849D01*
X120456887Y-101600000D01*
X120566120Y-102149151D01*
X120877189Y-102614698D01*
X121342736Y-102925767D01*
X121891887Y-103035000D01*
X121948113Y-103035000D01*
X122497264Y-102925767D01*
X122962811Y-102614698D01*
X123273880Y-102149151D01*
X123383113Y-101600000D01*
X123273880Y-101050849D01*
X123232823Y-100989403D01*
X129290000Y-107046579D01*
X129290000Y-114934995D01*
X129289999Y-114935000D01*
X129323331Y-115102566D01*
X129357367Y-115273675D01*
X129549210Y-115560790D01*
X130602255Y-116613834D01*
X130628196Y-116676617D01*
X128523505Y-114571925D01*
X128798943Y-114458117D01*
X129062192Y-114195327D01*
X129204838Y-113851799D01*
X129205162Y-113479833D01*
X129063117Y-113136057D01*
X128800327Y-112872808D01*
X128456799Y-112730162D01*
X128084833Y-112729838D01*
X127963431Y-112780000D01*
X124826579Y-112780000D01*
X124710000Y-112663420D01*
X124710000Y-110275000D01*
X125502560Y-110275000D01*
X125502560Y-111975000D01*
X125546838Y-112210317D01*
X125685910Y-112426441D01*
X125898110Y-112571431D01*
X126150000Y-112622440D01*
X127850000Y-112622440D01*
X128085317Y-112578162D01*
X128301441Y-112439090D01*
X128446431Y-112226890D01*
X128497440Y-111975000D01*
X128497440Y-110275000D01*
X128453162Y-110039683D01*
X128314090Y-109823559D01*
X128101890Y-109678569D01*
X127850000Y-109627560D01*
X126150000Y-109627560D01*
X125914683Y-109671838D01*
X125698559Y-109810910D01*
X125553569Y-110023110D01*
X125502560Y-110275000D01*
X124710000Y-110275000D01*
X124710000Y-109855005D01*
X124710001Y-109855000D01*
X124642634Y-109516326D01*
X124524817Y-109340000D01*
X124450790Y-109229210D01*
X124450787Y-109229208D01*
X123815790Y-108594210D01*
X123682277Y-108505000D01*
X123528675Y-108402367D01*
X123438073Y-108384345D01*
X123190000Y-108334999D01*
X123189995Y-108335000D01*
X123055000Y-108335000D01*
X123055000Y-107461568D01*
X123068043Y-107448548D01*
X123274764Y-106950709D01*
X123275235Y-106411656D01*
X123069383Y-105913457D01*
X122688548Y-105531957D01*
X122190709Y-105325236D01*
X121651656Y-105324765D01*
X121153457Y-105530617D01*
X120771957Y-105911452D01*
X120565236Y-106409291D01*
X120564765Y-106948344D01*
X120770617Y-107446543D01*
X120785000Y-107460951D01*
X120785000Y-108438432D01*
X120771957Y-108451452D01*
X120565236Y-108949291D01*
X120564765Y-109488344D01*
X120770617Y-109986543D01*
X121151452Y-110368043D01*
X121445264Y-110490045D01*
X121153457Y-110610617D01*
X120771957Y-110991452D01*
X120565236Y-111489291D01*
X120564765Y-112028344D01*
X120705000Y-112367738D01*
X120705000Y-113778156D01*
X120638559Y-113820910D01*
X120493569Y-114033110D01*
X120442560Y-114285000D01*
X120065000Y-114285000D01*
X120065000Y-93053690D01*
X120485000Y-93053690D01*
X120485000Y-93694250D01*
X120643750Y-93853000D01*
X121793000Y-93853000D01*
X121793000Y-92703750D01*
X122047000Y-92703750D01*
X122047000Y-93853000D01*
X122703750Y-93853000D01*
X122723750Y-93873000D01*
X123698000Y-93873000D01*
X123698000Y-92773750D01*
X123952000Y-92773750D01*
X123952000Y-93873000D01*
X124926250Y-93873000D01*
X125085000Y-93714250D01*
X125085000Y-93123691D01*
X124988327Y-92890302D01*
X124809699Y-92711673D01*
X124576310Y-92615000D01*
X124110750Y-92615000D01*
X123952000Y-92773750D01*
X123698000Y-92773750D01*
X123539250Y-92615000D01*
X123073690Y-92615000D01*
X123044497Y-92627092D01*
X122846309Y-92545000D01*
X122205750Y-92545000D01*
X122047000Y-92703750D01*
X121793000Y-92703750D01*
X121634250Y-92545000D01*
X120993691Y-92545000D01*
X120760302Y-92641673D01*
X120581673Y-92820301D01*
X120485000Y-93053690D01*
X120065000Y-93053690D01*
X120065000Y-87630000D01*
X120708949Y-87630000D01*
X120897808Y-88579457D01*
X121435632Y-89384368D01*
X122240543Y-89922192D01*
X123190000Y-90111051D01*
X124139457Y-89922192D01*
X124944368Y-89384368D01*
X125482192Y-88579457D01*
X125671051Y-87630000D01*
X125482192Y-86680543D01*
X124944368Y-85875632D01*
X124139457Y-85337808D01*
X123190000Y-85148949D01*
X122240543Y-85337808D01*
X121435632Y-85875632D01*
X120897808Y-86680543D01*
X120708949Y-87630000D01*
X120065000Y-87630000D01*
X120065000Y-84505000D01*
X160605000Y-84505000D01*
X160605000Y-128855000D01*
G36*
X148770910Y-105996441D02*
X148839006Y-106042969D01*
X148696673Y-106185302D01*
X148600000Y-106418691D01*
X148600000Y-107009250D01*
X148758750Y-107168000D01*
X149733000Y-107168000D01*
X149733000Y-107148000D01*
X149987000Y-107148000D01*
X149987000Y-107168000D01*
X150007000Y-107168000D01*
X150007000Y-107422000D01*
X149987000Y-107422000D01*
X149987000Y-107442000D01*
X149733000Y-107442000D01*
X149733000Y-107422000D01*
X148758750Y-107422000D01*
X148600000Y-107580750D01*
X148600000Y-108085000D01*
X148455000Y-108085000D01*
X148455000Y-105930000D01*
X148728156Y-105930000D01*
X148770910Y-105996441D01*
X148770910Y-105996441D01*
G37*
X148770910Y-105996441D02*
X148839006Y-106042969D01*
X148696673Y-106185302D01*
X148600000Y-106418691D01*
X148600000Y-107009250D01*
X148758750Y-107168000D01*
X149733000Y-107168000D01*
X149733000Y-107148000D01*
X149987000Y-107148000D01*
X149987000Y-107168000D01*
X150007000Y-107168000D01*
X150007000Y-107422000D01*
X149987000Y-107422000D01*
X149987000Y-107442000D01*
X149733000Y-107442000D01*
X149733000Y-107422000D01*
X148758750Y-107422000D01*
X148600000Y-107580750D01*
X148600000Y-108085000D01*
X148455000Y-108085000D01*
X148455000Y-105930000D01*
X148728156Y-105930000D01*
X148770910Y-105996441D01*
M02*
