%TF.GenerationSoftware,KiCad,Pcbnew,4.0.7*%
%TF.CreationDate,2018-04-11T16:34:22+03:00*%
%TF.ProjectId,capacity_sensor,63617061636974795F73656E736F722E,rev?*%
%TF.FileFunction,Copper,L1,Top,Signal*%
%FSLAX46Y46*%
G04 Gerber Fmt 4.6, Leading zero omitted, Abs format (unit mm)*
G04 Created by KiCad (PCBNEW 4.0.7) date 04/11/18 16:34:22*
%MOMM*%
%LPD*%
G01*
G04 APERTURE LIST*
%ADD10C,0.100000*%
%ADD11R,1.500000X1.250000*%
%ADD12R,3.200000X2.500000*%
%ADD13R,2.000000X1.700000*%
%ADD14R,1.600000X1.000000*%
%ADD15R,1.700000X1.700000*%
%ADD16O,1.700000X1.700000*%
%ADD17R,3.960000X1.980000*%
%ADD18O,3.960000X1.980000*%
%ADD19R,1.300000X1.500000*%
%ADD20R,1.500000X1.300000*%
%ADD21C,1.440000*%
%ADD22R,1.600000X1.600000*%
%ADD23O,1.600000X1.600000*%
%ADD24R,1.500000X0.600000*%
%ADD25R,0.800000X1.900000*%
%ADD26C,0.600000*%
%ADD27C,1.000000*%
%ADD28C,0.500000*%
G04 APERTURE END LIST*
D10*
X119380000Y-129540000D02*
X119380000Y-83820000D01*
X161290000Y-129540000D02*
X119380000Y-129540000D01*
X161290000Y-83820000D02*
X161290000Y-129540000D01*
X119380000Y-83820000D02*
X161290000Y-83820000D01*
X159276051Y-125730000D02*
G75*
G03X159276051Y-125730000I-1796051J0D01*
G01*
X124986051Y-125730000D02*
G75*
G03X124986051Y-125730000I-1796051J0D01*
G01*
X159276051Y-87630000D02*
G75*
G03X159276051Y-87630000I-1796051J0D01*
G01*
X124986051Y-87630000D02*
G75*
G03X124986051Y-87630000I-1796051J0D01*
G01*
D11*
X134600000Y-110490000D03*
X132100000Y-110490000D03*
X134600000Y-112395000D03*
X132100000Y-112395000D03*
D12*
X132960000Y-106680000D03*
X128660000Y-106680000D03*
D13*
X140875000Y-88900000D03*
X144875000Y-88900000D03*
D14*
X144780000Y-96750000D03*
X144780000Y-93750000D03*
X144780000Y-98830000D03*
X144780000Y-101830000D03*
D13*
X140875000Y-86360000D03*
X144875000Y-86360000D03*
D15*
X127000000Y-111125000D03*
X121920000Y-119380000D03*
X142240000Y-123825000D03*
X142240000Y-117475000D03*
X151130000Y-111760000D03*
D16*
X148590000Y-111760000D03*
X146050000Y-111760000D03*
D15*
X144780000Y-105410000D03*
D17*
X154940000Y-94615000D03*
D18*
X154940000Y-99615000D03*
X154940000Y-104615000D03*
D15*
X156210000Y-111760000D03*
D19*
X130175000Y-123270000D03*
X130175000Y-120570000D03*
X154305000Y-116760000D03*
X154305000Y-119460000D03*
D20*
X137080000Y-107315000D03*
X139780000Y-107315000D03*
X137080000Y-104140000D03*
X139780000Y-104140000D03*
X143590000Y-91440000D03*
X140890000Y-91440000D03*
D19*
X138430000Y-91520000D03*
X138430000Y-88820000D03*
D21*
X134620000Y-86360000D03*
X132080000Y-86360000D03*
X129540000Y-86360000D03*
X121920000Y-111760000D03*
X121920000Y-109220000D03*
X121920000Y-106680000D03*
D22*
X121920000Y-93980000D03*
D23*
X129540000Y-101600000D03*
X121920000Y-96520000D03*
X129540000Y-99060000D03*
X121920000Y-99060000D03*
X129540000Y-96520000D03*
X121920000Y-101600000D03*
X129540000Y-93980000D03*
D24*
X133190000Y-116205000D03*
X133190000Y-117475000D03*
X133190000Y-118745000D03*
X133190000Y-120015000D03*
X133190000Y-121285000D03*
X133190000Y-122555000D03*
X133190000Y-123825000D03*
X138590000Y-123825000D03*
X138590000Y-122555000D03*
X138590000Y-121285000D03*
X138590000Y-120015000D03*
X138590000Y-118745000D03*
X138590000Y-117475000D03*
X138590000Y-116205000D03*
X145890000Y-116205000D03*
X145890000Y-117475000D03*
X145890000Y-118745000D03*
X145890000Y-120015000D03*
X145890000Y-121285000D03*
X145890000Y-122555000D03*
X145890000Y-123825000D03*
X151290000Y-123825000D03*
X151290000Y-122555000D03*
X151290000Y-121285000D03*
X151290000Y-120015000D03*
X151290000Y-118745000D03*
X151290000Y-117475000D03*
X151290000Y-116205000D03*
D25*
X137480000Y-97385000D03*
X139380000Y-97385000D03*
X138430000Y-94385000D03*
D26*
X138430000Y-114300000D03*
X153035000Y-114300000D03*
X147955000Y-123825000D03*
X135255000Y-123825000D03*
X128270000Y-113665000D03*
X147955000Y-102235000D03*
X135255000Y-122555000D03*
X131445000Y-116205000D03*
D27*
X154940000Y-94615000D02*
X152400000Y-94615000D01*
X150495000Y-88900000D02*
X144875000Y-88900000D01*
X151765000Y-90170000D02*
X150495000Y-88900000D01*
X151765000Y-93980000D02*
X151765000Y-90170000D01*
X152400000Y-94615000D02*
X151765000Y-93980000D01*
X144875000Y-88900000D02*
X144875000Y-86360000D01*
X144875000Y-86360000D02*
X144780000Y-86265000D01*
X144780000Y-86265000D02*
X144780000Y-85725000D01*
X144780000Y-85725000D02*
X143510000Y-84455000D01*
X143510000Y-84455000D02*
X132715000Y-84455000D01*
X132715000Y-84455000D02*
X132080000Y-85090000D01*
X132080000Y-85090000D02*
X132080000Y-86360000D01*
D28*
X138590000Y-116205000D02*
X138590000Y-114460000D01*
X138590000Y-114460000D02*
X138430000Y-114300000D01*
D27*
X154940000Y-94615000D02*
X153035000Y-94615000D01*
X153035000Y-94615000D02*
X151765000Y-95885000D01*
X154305000Y-109855000D02*
X154305000Y-115570000D01*
X151765000Y-107315000D02*
X154305000Y-109855000D01*
X151765000Y-95885000D02*
X151765000Y-107315000D01*
X154305000Y-115570000D02*
X154305000Y-116760000D01*
X153035000Y-114300000D02*
X154305000Y-115570000D01*
D28*
X151290000Y-116205000D02*
X153750000Y-116205000D01*
X153750000Y-116205000D02*
X154305000Y-116760000D01*
D27*
X138430000Y-91520000D02*
X138430000Y-94385000D01*
X138430000Y-91520000D02*
X127555000Y-91520000D01*
X125095000Y-93980000D02*
X124460000Y-93980000D01*
X127555000Y-91520000D02*
X125095000Y-93980000D01*
X121920000Y-93980000D02*
X124460000Y-93980000D01*
X127000000Y-106680000D02*
X128660000Y-106680000D01*
X126365000Y-106045000D02*
X127000000Y-106680000D01*
X126365000Y-95885000D02*
X126365000Y-106045000D01*
X124460000Y-93980000D02*
X126365000Y-95885000D01*
X132100000Y-110490000D02*
X130810000Y-110490000D01*
X130810000Y-110490000D02*
X128660000Y-108340000D01*
X128660000Y-108340000D02*
X128660000Y-106680000D01*
X132100000Y-112395000D02*
X132100000Y-110490000D01*
D28*
X145890000Y-123825000D02*
X147955000Y-123825000D01*
X135255000Y-123825000D02*
X133190000Y-123825000D01*
X134600000Y-113645000D02*
X128290000Y-113645000D01*
X128290000Y-113645000D02*
X128270000Y-113665000D01*
X134600000Y-110490000D02*
X134600000Y-112395000D01*
X138590000Y-120015000D02*
X135890000Y-120015000D01*
X134600000Y-113645000D02*
X134600000Y-112395000D01*
X135320002Y-114365002D02*
X134600000Y-113645000D01*
X135320002Y-119445002D02*
X135320002Y-114365002D01*
X135890000Y-120015000D02*
X135320002Y-119445002D01*
X138590000Y-117475000D02*
X137160000Y-117475000D01*
X137080000Y-109300000D02*
X137080000Y-107315000D01*
X136525000Y-109855000D02*
X137080000Y-109300000D01*
X136525000Y-116840000D02*
X136525000Y-109855000D01*
X137160000Y-117475000D02*
X136525000Y-116840000D01*
D27*
X132960000Y-106680000D02*
X136445000Y-106680000D01*
X136445000Y-106680000D02*
X137080000Y-107315000D01*
X144780000Y-101830000D02*
X147550000Y-101830000D01*
X147550000Y-101830000D02*
X147955000Y-102235000D01*
X140890000Y-91440000D02*
X140890000Y-88915000D01*
X140890000Y-88915000D02*
X140875000Y-88900000D01*
X139380000Y-97385000D02*
X144375000Y-97385000D01*
X144375000Y-97385000D02*
X144780000Y-97790000D01*
X144780000Y-98830000D02*
X144780000Y-97790000D01*
X144780000Y-97790000D02*
X144780000Y-96750000D01*
X144780000Y-93750000D02*
X144780000Y-92075000D01*
X144780000Y-92075000D02*
X144145000Y-91440000D01*
X144145000Y-91440000D02*
X143590000Y-91440000D01*
X138430000Y-88820000D02*
X138430000Y-86995000D01*
X139065000Y-86360000D02*
X140875000Y-86360000D01*
X138430000Y-86995000D02*
X139065000Y-86360000D01*
D28*
X127000000Y-111125000D02*
X127000000Y-116840000D01*
X127635000Y-117475000D02*
X133190000Y-117475000D01*
X127000000Y-116840000D02*
X127635000Y-117475000D01*
X133190000Y-118745000D02*
X133190000Y-117475000D01*
X133190000Y-121285000D02*
X134620000Y-121285000D01*
X134620000Y-118745000D02*
X133190000Y-118745000D01*
X134620000Y-121285000D02*
X134620000Y-118745000D01*
X130175000Y-123270000D02*
X127715000Y-123270000D01*
X123825000Y-119380000D02*
X121920000Y-119380000D01*
X127715000Y-123270000D02*
X123825000Y-119380000D01*
X138590000Y-122555000D02*
X137160000Y-122555000D01*
X130175000Y-124460000D02*
X130175000Y-123270000D01*
X131445000Y-125730000D02*
X130175000Y-124460000D01*
X135255000Y-125730000D02*
X131445000Y-125730000D01*
X136525000Y-124460000D02*
X135255000Y-125730000D01*
X136525000Y-123190000D02*
X136525000Y-124460000D01*
X137160000Y-122555000D02*
X136525000Y-123190000D01*
X141605000Y-123825000D02*
X138590000Y-123825000D01*
X145890000Y-118745000D02*
X144145000Y-118745000D01*
X141605000Y-121285000D02*
X141605000Y-123825000D01*
X144145000Y-118745000D02*
X141605000Y-121285000D01*
X138590000Y-121285000D02*
X139700000Y-121285000D01*
X141605000Y-119380000D02*
X141605000Y-117475000D01*
X139700000Y-121285000D02*
X141605000Y-119380000D01*
X145890000Y-117475000D02*
X141605000Y-117475000D01*
X145890000Y-122555000D02*
X149860000Y-122555000D01*
X151130000Y-113665000D02*
X151130000Y-111760000D01*
X149860000Y-114935000D02*
X151130000Y-113665000D01*
X149860000Y-122555000D02*
X149860000Y-114935000D01*
D27*
X148590000Y-111760000D02*
X148590000Y-110490000D01*
X139780000Y-108665000D02*
X139780000Y-107315000D01*
X140335000Y-109220000D02*
X139780000Y-108665000D01*
X147320000Y-109220000D02*
X140335000Y-109220000D01*
X148590000Y-110490000D02*
X147320000Y-109220000D01*
D28*
X145890000Y-121285000D02*
X148590000Y-121285000D01*
X148590000Y-114935000D02*
X146050000Y-112395000D01*
X148590000Y-121285000D02*
X148590000Y-114935000D01*
X146050000Y-112395000D02*
X146050000Y-111760000D01*
X144780000Y-105410000D02*
X140335000Y-105410000D01*
X139780000Y-104855000D02*
X139780000Y-104140000D01*
X140335000Y-105410000D02*
X139780000Y-104855000D01*
X138590000Y-118745000D02*
X139700000Y-118745000D01*
X138430000Y-106045000D02*
X139700000Y-104775000D01*
X138430000Y-111125000D02*
X138430000Y-106045000D01*
X140335000Y-113030000D02*
X138430000Y-111125000D01*
X140335000Y-118110000D02*
X140335000Y-113030000D01*
X139700000Y-118745000D02*
X140335000Y-118110000D01*
X139700000Y-104775000D02*
X139700000Y-104220000D01*
X139700000Y-104220000D02*
X139780000Y-104140000D01*
D27*
X137080000Y-104140000D02*
X137080000Y-97785000D01*
X137080000Y-97785000D02*
X137480000Y-97385000D01*
D28*
X133190000Y-120015000D02*
X130730000Y-120015000D01*
X130730000Y-120015000D02*
X130175000Y-120570000D01*
X133190000Y-122555000D02*
X135255000Y-122555000D01*
X145890000Y-120015000D02*
X144145000Y-120015000D01*
X153035000Y-125730000D02*
X153035000Y-120015000D01*
X144145000Y-125730000D02*
X153035000Y-125730000D01*
X144145000Y-120015000D02*
X144145000Y-125730000D01*
X147254998Y-120015000D02*
X147254998Y-116270002D01*
X145890000Y-120015000D02*
X147254998Y-120015000D01*
X147189996Y-116205000D02*
X145890000Y-116205000D01*
X147254998Y-116270002D02*
X147189996Y-116205000D01*
X151290000Y-120015000D02*
X153035000Y-120015000D01*
X153035000Y-120015000D02*
X153750000Y-120015000D01*
X153750000Y-120015000D02*
X154305000Y-119460000D01*
X151290000Y-118745000D02*
X151290000Y-117475000D01*
X151290000Y-118745000D02*
X151290000Y-120015000D01*
X151290000Y-121285000D02*
X151290000Y-120015000D01*
X133190000Y-116205000D02*
X131445000Y-116205000D01*
M02*
