%TF.GenerationSoftware,KiCad,Pcbnew,(6.0.10)*%
%TF.CreationDate,2023-04-08T13:31:08+03:00*%
%TF.ProjectId,DelSol_Preamp,44656c53-6f6c-45f5-9072-65616d702e6b,rev?*%
%TF.SameCoordinates,Original*%
%TF.FileFunction,Soldermask,Top*%
%TF.FilePolarity,Negative*%
%FSLAX46Y46*%
G04 Gerber Fmt 4.6, Leading zero omitted, Abs format (unit mm)*
G04 Created by KiCad (PCBNEW (6.0.10)) date 2023-04-08 13:31:08*
%MOMM*%
%LPD*%
G01*
G04 APERTURE LIST*
G04 Aperture macros list*
%AMRoundRect*
0 Rectangle with rounded corners*
0 $1 Rounding radius*
0 $2 $3 $4 $5 $6 $7 $8 $9 X,Y pos of 4 corners*
0 Add a 4 corners polygon primitive as box body*
4,1,4,$2,$3,$4,$5,$6,$7,$8,$9,$2,$3,0*
0 Add four circle primitives for the rounded corners*
1,1,$1+$1,$2,$3*
1,1,$1+$1,$4,$5*
1,1,$1+$1,$6,$7*
1,1,$1+$1,$8,$9*
0 Add four rect primitives between the rounded corners*
20,1,$1+$1,$2,$3,$4,$5,0*
20,1,$1+$1,$4,$5,$6,$7,0*
20,1,$1+$1,$6,$7,$8,$9,0*
20,1,$1+$1,$8,$9,$2,$3,0*%
G04 Aperture macros list end*
%ADD10RoundRect,0.250000X-1.412500X-0.550000X1.412500X-0.550000X1.412500X0.550000X-1.412500X0.550000X0*%
%ADD11R,1.560000X1.560000*%
%ADD12C,1.560000*%
%ADD13R,1.600000X1.600000*%
%ADD14O,1.600000X1.600000*%
%ADD15R,1.700000X1.700000*%
%ADD16O,1.700000X1.700000*%
%ADD17C,1.600000*%
%ADD18C,3.200000*%
%ADD19RoundRect,0.250000X-0.550000X1.412500X-0.550000X-1.412500X0.550000X-1.412500X0.550000X1.412500X0*%
%ADD20RoundRect,0.250000X1.412500X0.550000X-1.412500X0.550000X-1.412500X-0.550000X1.412500X-0.550000X0*%
G04 APERTURE END LIST*
D10*
X147322500Y-40150000D03*
X152397500Y-40150000D03*
D11*
X137120000Y-41610000D03*
D12*
X134620000Y-36610000D03*
X132120000Y-41610000D03*
D13*
X138440000Y-23650000D03*
D14*
X138440000Y-26190000D03*
X138440000Y-28730000D03*
X138440000Y-31270000D03*
X146060000Y-31270000D03*
X146060000Y-28730000D03*
X146060000Y-26190000D03*
X146060000Y-23650000D03*
D15*
X87630000Y-20320000D03*
D16*
X85090000Y-20320000D03*
X82550000Y-20320000D03*
X80010000Y-20320000D03*
X77470000Y-20320000D03*
X74930000Y-20320000D03*
D15*
X54610000Y-30485000D03*
D16*
X54610000Y-33025000D03*
X54610000Y-35565000D03*
X54610000Y-38105000D03*
X54610000Y-40645000D03*
D17*
X101600000Y-37770000D03*
X99100000Y-37770000D03*
D18*
X158750000Y-21590000D03*
D13*
X73035000Y-36840000D03*
D14*
X73035000Y-39380000D03*
X73035000Y-41920000D03*
X73035000Y-44460000D03*
X80655000Y-44460000D03*
X80655000Y-41920000D03*
X80655000Y-39380000D03*
X80655000Y-36840000D03*
D19*
X158750000Y-33022500D03*
X158750000Y-38097500D03*
D15*
X146050000Y-48260000D03*
D16*
X148590000Y-48260000D03*
X151130000Y-48260000D03*
D11*
X82510000Y-31450000D03*
D12*
X80010000Y-26450000D03*
X77510000Y-31450000D03*
D18*
X55880000Y-21590000D03*
D20*
X134617500Y-50800000D03*
X129542500Y-50800000D03*
D11*
X69810000Y-31450000D03*
D12*
X67310000Y-26450000D03*
X64810000Y-31450000D03*
D17*
X67330000Y-36830000D03*
X69830000Y-36830000D03*
D15*
X102870000Y-27610000D03*
D16*
X102870000Y-25070000D03*
X102870000Y-22530000D03*
D11*
X92670000Y-31420000D03*
D12*
X90170000Y-26420000D03*
X87670000Y-31420000D03*
D17*
X115570000Y-28880000D03*
X115570000Y-26380000D03*
D15*
X151130000Y-26180000D03*
D16*
X151130000Y-28720000D03*
X151130000Y-31260000D03*
D17*
X67330000Y-45085000D03*
X69830000Y-45085000D03*
D15*
X146065000Y-53340000D03*
D16*
X148605000Y-53340000D03*
X151145000Y-53340000D03*
D15*
X111760000Y-27610000D03*
D16*
X111760000Y-25070000D03*
X111760000Y-22530000D03*
D13*
X113020000Y-49205000D03*
D14*
X113020000Y-46665000D03*
X113020000Y-44125000D03*
X113020000Y-41585000D03*
X113020000Y-39045000D03*
X113020000Y-36505000D03*
X113020000Y-33965000D03*
X105400000Y-33965000D03*
X105400000Y-36505000D03*
X105400000Y-39045000D03*
X105400000Y-41585000D03*
X105400000Y-44125000D03*
X105400000Y-46665000D03*
X105400000Y-49205000D03*
D15*
X120650000Y-27610000D03*
D16*
X120650000Y-25070000D03*
X120650000Y-22530000D03*
D18*
X158750000Y-52070000D03*
X55880000Y-52070000D03*
D19*
X121920000Y-40642500D03*
X121920000Y-45717500D03*
M02*
