%TF.GenerationSoftware,KiCad,Pcbnew,(6.0.10)*%
%TF.CreationDate,2023-04-08T13:13:14+03:00*%
%TF.ProjectId,DelSol_Voice,44656c53-6f6c-45f5-966f-6963652e6b69,rev?*%
%TF.SameCoordinates,Original*%
%TF.FileFunction,Legend,Top*%
%TF.FilePolarity,Positive*%
%FSLAX46Y46*%
G04 Gerber Fmt 4.6, Leading zero omitted, Abs format (unit mm)*
G04 Created by KiCad (PCBNEW (6.0.10)) date 2023-04-08 13:13:14*
%MOMM*%
%LPD*%
G01*
G04 APERTURE LIST*
G04 Aperture macros list*
%AMRoundRect*
0 Rectangle with rounded corners*
0 $1 Rounding radius*
0 $2 $3 $4 $5 $6 $7 $8 $9 X,Y pos of 4 corners*
0 Add a 4 corners polygon primitive as box body*
4,1,4,$2,$3,$4,$5,$6,$7,$8,$9,$2,$3,0*
0 Add four circle primitives for the rounded corners*
1,1,$1+$1,$2,$3*
1,1,$1+$1,$4,$5*
1,1,$1+$1,$6,$7*
1,1,$1+$1,$8,$9*
0 Add four rect primitives between the rounded corners*
20,1,$1+$1,$2,$3,$4,$5,0*
20,1,$1+$1,$4,$5,$6,$7,0*
20,1,$1+$1,$6,$7,$8,$9,0*
20,1,$1+$1,$8,$9,$2,$3,0*%
G04 Aperture macros list end*
%ADD10C,0.150000*%
%ADD11C,0.120000*%
%ADD12C,1.600000*%
%ADD13C,3.200000*%
%ADD14R,1.700000X1.700000*%
%ADD15O,1.700000X1.700000*%
%ADD16R,1.300000X1.300000*%
%ADD17C,1.300000*%
%ADD18RoundRect,0.250000X1.412500X0.550000X-1.412500X0.550000X-1.412500X-0.550000X1.412500X-0.550000X0*%
%ADD19R,2.800000X2.800000*%
%ADD20O,2.800000X2.800000*%
%ADD21RoundRect,0.250000X-1.412500X-0.550000X1.412500X-0.550000X1.412500X0.550000X-1.412500X0.550000X0*%
%ADD22C,2.600000*%
%ADD23RoundRect,0.250000X-0.550000X1.412500X-0.550000X-1.412500X0.550000X-1.412500X0.550000X1.412500X0*%
%ADD24R,1.600000X1.600000*%
%ADD25O,1.600000X1.600000*%
%ADD26R,1.500000X1.050000*%
%ADD27O,1.500000X1.050000*%
G04 APERTURE END LIST*
D10*
X96407619Y-109069523D02*
X97407619Y-109069523D01*
X96455238Y-109069523D02*
X96407619Y-108974285D01*
X96407619Y-108783809D01*
X96455238Y-108688571D01*
X96502857Y-108640952D01*
X96598095Y-108593333D01*
X96883809Y-108593333D01*
X96979047Y-108640952D01*
X97026666Y-108688571D01*
X97074285Y-108783809D01*
X97074285Y-108974285D01*
X97026666Y-109069523D01*
X97074285Y-109450476D02*
X97074285Y-109974285D01*
X96407619Y-109450476D01*
X96407619Y-109974285D01*
X96883809Y-110974285D02*
X96931428Y-110926666D01*
X96979047Y-110831428D01*
X96979047Y-110736190D01*
X96931428Y-110640952D01*
X96883809Y-110593333D01*
X96788571Y-110545714D01*
X96693333Y-110545714D01*
X96598095Y-110593333D01*
X96550476Y-110640952D01*
X96502857Y-110736190D01*
X96502857Y-110831428D01*
X96550476Y-110926666D01*
X96598095Y-110974285D01*
X96979047Y-110974285D02*
X96598095Y-110974285D01*
X96550476Y-111021904D01*
X96550476Y-111069523D01*
X96598095Y-111164761D01*
X96693333Y-111212380D01*
X96931428Y-111212380D01*
X97074285Y-111117142D01*
X97169523Y-110974285D01*
X97217142Y-110783809D01*
X97169523Y-110593333D01*
X97074285Y-110450476D01*
X96931428Y-110355238D01*
X96740952Y-110307619D01*
X96550476Y-110355238D01*
X96407619Y-110450476D01*
X96312380Y-110593333D01*
X96264761Y-110783809D01*
X96312380Y-110974285D01*
X96407619Y-111117142D01*
X96407619Y-112069523D02*
X97407619Y-112069523D01*
X96455238Y-112069523D02*
X96407619Y-111974285D01*
X96407619Y-111783809D01*
X96455238Y-111688571D01*
X96502857Y-111640952D01*
X96598095Y-111593333D01*
X96883809Y-111593333D01*
X96979047Y-111640952D01*
X97026666Y-111688571D01*
X97074285Y-111783809D01*
X97074285Y-111974285D01*
X97026666Y-112069523D01*
X97074285Y-112450476D02*
X97074285Y-112974285D01*
X96407619Y-112450476D01*
X96407619Y-112974285D01*
X96502857Y-113355238D02*
X96455238Y-113402857D01*
X96407619Y-113355238D01*
X96455238Y-113307619D01*
X96502857Y-113355238D01*
X96407619Y-113355238D01*
X96407619Y-113831428D02*
X97074285Y-113831428D01*
X96883809Y-113831428D02*
X96979047Y-113879047D01*
X97026666Y-113926666D01*
X97074285Y-114021904D01*
X97074285Y-114117142D01*
X97074285Y-114879047D02*
X96407619Y-114879047D01*
X97074285Y-114450476D02*
X96550476Y-114450476D01*
X96455238Y-114498095D01*
X96407619Y-114593333D01*
X96407619Y-114736190D01*
X96455238Y-114831428D01*
X96502857Y-114879047D01*
X94892857Y-106855238D02*
X94845238Y-106807619D01*
X94797619Y-106664761D01*
X94797619Y-106569523D01*
X94845238Y-106426666D01*
X94940476Y-106331428D01*
X95035714Y-106283809D01*
X95226190Y-106236190D01*
X95369047Y-106236190D01*
X95559523Y-106283809D01*
X95654761Y-106331428D01*
X95750000Y-106426666D01*
X95797619Y-106569523D01*
X95797619Y-106664761D01*
X95750000Y-106807619D01*
X95702380Y-106855238D01*
X94797619Y-107283809D02*
X95797619Y-107283809D01*
X94797619Y-107712380D02*
X95321428Y-107712380D01*
X95416666Y-107664761D01*
X95464285Y-107569523D01*
X95464285Y-107426666D01*
X95416666Y-107331428D01*
X95369047Y-107283809D01*
X94797619Y-108331428D02*
X94845238Y-108236190D01*
X94892857Y-108188571D01*
X94988095Y-108140952D01*
X95273809Y-108140952D01*
X95369047Y-108188571D01*
X95416666Y-108236190D01*
X95464285Y-108331428D01*
X95464285Y-108474285D01*
X95416666Y-108569523D01*
X95369047Y-108617142D01*
X95273809Y-108664761D01*
X94988095Y-108664761D01*
X94892857Y-108617142D01*
X94845238Y-108569523D01*
X94797619Y-108474285D01*
X94797619Y-108331428D01*
X94797619Y-109093333D02*
X95464285Y-109093333D01*
X95273809Y-109093333D02*
X95369047Y-109140952D01*
X95416666Y-109188571D01*
X95464285Y-109283809D01*
X95464285Y-109379047D01*
X95464285Y-110140952D02*
X94797619Y-110140952D01*
X95464285Y-109712380D02*
X94940476Y-109712380D01*
X94845238Y-109760000D01*
X94797619Y-109855238D01*
X94797619Y-109998095D01*
X94845238Y-110093333D01*
X94892857Y-110140952D01*
X94845238Y-110569523D02*
X94797619Y-110664761D01*
X94797619Y-110855238D01*
X94845238Y-110950476D01*
X94940476Y-110998095D01*
X94988095Y-110998095D01*
X95083333Y-110950476D01*
X95130952Y-110855238D01*
X95130952Y-110712380D01*
X95178571Y-110617142D01*
X95273809Y-110569523D01*
X95321428Y-110569523D01*
X95416666Y-110617142D01*
X95464285Y-110712380D01*
X95464285Y-110855238D01*
X95416666Y-110950476D01*
X94797619Y-112188571D02*
X95797619Y-112188571D01*
X95797619Y-112426666D01*
X95750000Y-112569523D01*
X95654761Y-112664761D01*
X95559523Y-112712380D01*
X95369047Y-112760000D01*
X95226190Y-112760000D01*
X95035714Y-112712380D01*
X94940476Y-112664761D01*
X94845238Y-112569523D01*
X94797619Y-112426666D01*
X94797619Y-112188571D01*
X94845238Y-113569523D02*
X94797619Y-113474285D01*
X94797619Y-113283809D01*
X94845238Y-113188571D01*
X94940476Y-113140952D01*
X95321428Y-113140952D01*
X95416666Y-113188571D01*
X95464285Y-113283809D01*
X95464285Y-113474285D01*
X95416666Y-113569523D01*
X95321428Y-113617142D01*
X95226190Y-113617142D01*
X95130952Y-113140952D01*
X94797619Y-114188571D02*
X94845238Y-114093333D01*
X94940476Y-114045714D01*
X95797619Y-114045714D01*
X94845238Y-115283809D02*
X94797619Y-115426666D01*
X94797619Y-115664761D01*
X94845238Y-115760000D01*
X94892857Y-115807619D01*
X94988095Y-115855238D01*
X95083333Y-115855238D01*
X95178571Y-115807619D01*
X95226190Y-115760000D01*
X95273809Y-115664761D01*
X95321428Y-115474285D01*
X95369047Y-115379047D01*
X95416666Y-115331428D01*
X95511904Y-115283809D01*
X95607142Y-115283809D01*
X95702380Y-115331428D01*
X95750000Y-115379047D01*
X95797619Y-115474285D01*
X95797619Y-115712380D01*
X95750000Y-115855238D01*
X94797619Y-116426666D02*
X94845238Y-116331428D01*
X94892857Y-116283809D01*
X94988095Y-116236190D01*
X95273809Y-116236190D01*
X95369047Y-116283809D01*
X95416666Y-116331428D01*
X95464285Y-116426666D01*
X95464285Y-116569523D01*
X95416666Y-116664761D01*
X95369047Y-116712380D01*
X95273809Y-116760000D01*
X94988095Y-116760000D01*
X94892857Y-116712380D01*
X94845238Y-116664761D01*
X94797619Y-116569523D01*
X94797619Y-116426666D01*
X94797619Y-117331428D02*
X94845238Y-117236190D01*
X94940476Y-117188571D01*
X95797619Y-117188571D01*
X93711428Y-107450476D02*
X93663809Y-107593333D01*
X93616190Y-107640952D01*
X93520952Y-107688571D01*
X93378095Y-107688571D01*
X93282857Y-107640952D01*
X93235238Y-107593333D01*
X93187619Y-107498095D01*
X93187619Y-107117142D01*
X94187619Y-107117142D01*
X94187619Y-107450476D01*
X94140000Y-107545714D01*
X94092380Y-107593333D01*
X93997142Y-107640952D01*
X93901904Y-107640952D01*
X93806666Y-107593333D01*
X93759047Y-107545714D01*
X93711428Y-107450476D01*
X93711428Y-107117142D01*
X93711428Y-108450476D02*
X93663809Y-108593333D01*
X93616190Y-108640952D01*
X93520952Y-108688571D01*
X93378095Y-108688571D01*
X93282857Y-108640952D01*
X93235238Y-108593333D01*
X93187619Y-108498095D01*
X93187619Y-108117142D01*
X94187619Y-108117142D01*
X94187619Y-108450476D01*
X94140000Y-108545714D01*
X94092380Y-108593333D01*
X93997142Y-108640952D01*
X93901904Y-108640952D01*
X93806666Y-108593333D01*
X93759047Y-108545714D01*
X93711428Y-108450476D01*
X93711428Y-108117142D01*
X93187619Y-109117142D02*
X94187619Y-109117142D01*
X94187619Y-109355238D01*
X94140000Y-109498095D01*
X94044761Y-109593333D01*
X93949523Y-109640952D01*
X93759047Y-109688571D01*
X93616190Y-109688571D01*
X93425714Y-109640952D01*
X93330476Y-109593333D01*
X93235238Y-109498095D01*
X93187619Y-109355238D01*
X93187619Y-109117142D01*
X93282857Y-111450476D02*
X93235238Y-111402857D01*
X93187619Y-111260000D01*
X93187619Y-111164761D01*
X93235238Y-111021904D01*
X93330476Y-110926666D01*
X93425714Y-110879047D01*
X93616190Y-110831428D01*
X93759047Y-110831428D01*
X93949523Y-110879047D01*
X94044761Y-110926666D01*
X94140000Y-111021904D01*
X94187619Y-111164761D01*
X94187619Y-111260000D01*
X94140000Y-111402857D01*
X94092380Y-111450476D01*
X93187619Y-111879047D02*
X94187619Y-111879047D01*
X93187619Y-112307619D02*
X93711428Y-112307619D01*
X93806666Y-112260000D01*
X93854285Y-112164761D01*
X93854285Y-112021904D01*
X93806666Y-111926666D01*
X93759047Y-111879047D01*
X93187619Y-113212380D02*
X93711428Y-113212380D01*
X93806666Y-113164761D01*
X93854285Y-113069523D01*
X93854285Y-112879047D01*
X93806666Y-112783809D01*
X93235238Y-113212380D02*
X93187619Y-113117142D01*
X93187619Y-112879047D01*
X93235238Y-112783809D01*
X93330476Y-112736190D01*
X93425714Y-112736190D01*
X93520952Y-112783809D01*
X93568571Y-112879047D01*
X93568571Y-113117142D01*
X93616190Y-113212380D01*
X93854285Y-113688571D02*
X93187619Y-113688571D01*
X93759047Y-113688571D02*
X93806666Y-113736190D01*
X93854285Y-113831428D01*
X93854285Y-113974285D01*
X93806666Y-114069523D01*
X93711428Y-114117142D01*
X93187619Y-114117142D01*
X93854285Y-114593333D02*
X93187619Y-114593333D01*
X93759047Y-114593333D02*
X93806666Y-114640952D01*
X93854285Y-114736190D01*
X93854285Y-114879047D01*
X93806666Y-114974285D01*
X93711428Y-115021904D01*
X93187619Y-115021904D01*
X93235238Y-115879047D02*
X93187619Y-115783809D01*
X93187619Y-115593333D01*
X93235238Y-115498095D01*
X93330476Y-115450476D01*
X93711428Y-115450476D01*
X93806666Y-115498095D01*
X93854285Y-115593333D01*
X93854285Y-115783809D01*
X93806666Y-115879047D01*
X93711428Y-115926666D01*
X93616190Y-115926666D01*
X93520952Y-115450476D01*
X93187619Y-116498095D02*
X93235238Y-116402857D01*
X93330476Y-116355238D01*
X94187619Y-116355238D01*
X195397380Y-104711428D02*
X195397380Y-105282857D01*
X195397380Y-104997142D02*
X194397380Y-104997142D01*
X194540238Y-105092380D01*
X194635476Y-105187619D01*
X194683095Y-105282857D01*
X194397380Y-103806666D02*
X194397380Y-104282857D01*
X194873571Y-104330476D01*
X194825952Y-104282857D01*
X194778333Y-104187619D01*
X194778333Y-103949523D01*
X194825952Y-103854285D01*
X194873571Y-103806666D01*
X194968809Y-103759047D01*
X195206904Y-103759047D01*
X195302142Y-103806666D01*
X195349761Y-103854285D01*
X195397380Y-103949523D01*
X195397380Y-104187619D01*
X195349761Y-104282857D01*
X195302142Y-104330476D01*
X194730714Y-103425714D02*
X195397380Y-103187619D01*
X194730714Y-102949523D01*
X188214047Y-106116428D02*
X188975952Y-106116428D01*
X188975952Y-101036428D02*
X188214047Y-101036428D01*
X188595000Y-101417380D02*
X188595000Y-100655476D01*
X128762095Y-122388380D02*
X128285904Y-122388380D01*
X128238285Y-122864571D01*
X128285904Y-122816952D01*
X128381142Y-122769333D01*
X128619238Y-122769333D01*
X128714476Y-122816952D01*
X128762095Y-122864571D01*
X128809714Y-122959809D01*
X128809714Y-123197904D01*
X128762095Y-123293142D01*
X128714476Y-123340761D01*
X128619238Y-123388380D01*
X128381142Y-123388380D01*
X128285904Y-123340761D01*
X128238285Y-123293142D01*
X179450952Y-101036428D02*
X178689047Y-101036428D01*
X179070000Y-101417380D02*
X179070000Y-100655476D01*
X178689047Y-106116428D02*
X179450952Y-106116428D01*
X181229047Y-118181428D02*
X181990952Y-118181428D01*
X134239047Y-117927428D02*
X135000952Y-117927428D01*
X134239047Y-123007428D02*
X135000952Y-123007428D01*
X134620000Y-123388380D02*
X134620000Y-122626476D01*
X181990952Y-113101428D02*
X181229047Y-113101428D01*
X181610000Y-113482380D02*
X181610000Y-112720476D01*
X161012142Y-115101666D02*
X161059761Y-115149285D01*
X161107380Y-115292142D01*
X161107380Y-115387380D01*
X161059761Y-115530238D01*
X160964523Y-115625476D01*
X160869285Y-115673095D01*
X160678809Y-115720714D01*
X160535952Y-115720714D01*
X160345476Y-115673095D01*
X160250238Y-115625476D01*
X160155000Y-115530238D01*
X160107380Y-115387380D01*
X160107380Y-115292142D01*
X160155000Y-115149285D01*
X160202619Y-115101666D01*
X160440714Y-114244523D02*
X161107380Y-114244523D01*
X160059761Y-114482619D02*
X160774047Y-114720714D01*
X160774047Y-114101666D01*
X147788333Y-100092142D02*
X147740714Y-100139761D01*
X147597857Y-100187380D01*
X147502619Y-100187380D01*
X147359761Y-100139761D01*
X147264523Y-100044523D01*
X147216904Y-99949285D01*
X147169285Y-99758809D01*
X147169285Y-99615952D01*
X147216904Y-99425476D01*
X147264523Y-99330238D01*
X147359761Y-99235000D01*
X147502619Y-99187380D01*
X147597857Y-99187380D01*
X147740714Y-99235000D01*
X147788333Y-99282619D01*
X148359761Y-99615952D02*
X148264523Y-99568333D01*
X148216904Y-99520714D01*
X148169285Y-99425476D01*
X148169285Y-99377857D01*
X148216904Y-99282619D01*
X148264523Y-99235000D01*
X148359761Y-99187380D01*
X148550238Y-99187380D01*
X148645476Y-99235000D01*
X148693095Y-99282619D01*
X148740714Y-99377857D01*
X148740714Y-99425476D01*
X148693095Y-99520714D01*
X148645476Y-99568333D01*
X148550238Y-99615952D01*
X148359761Y-99615952D01*
X148264523Y-99663571D01*
X148216904Y-99711190D01*
X148169285Y-99806428D01*
X148169285Y-99996904D01*
X148216904Y-100092142D01*
X148264523Y-100139761D01*
X148359761Y-100187380D01*
X148550238Y-100187380D01*
X148645476Y-100139761D01*
X148693095Y-100092142D01*
X148740714Y-99996904D01*
X148740714Y-99806428D01*
X148693095Y-99711190D01*
X148645476Y-99663571D01*
X148550238Y-99615952D01*
X130738666Y-115276380D02*
X130738666Y-115990666D01*
X130691047Y-116133523D01*
X130595809Y-116228761D01*
X130452952Y-116276380D01*
X130357714Y-116276380D01*
X131214857Y-116276380D02*
X131214857Y-115276380D01*
X131595809Y-115276380D01*
X131691047Y-115324000D01*
X131738666Y-115371619D01*
X131786285Y-115466857D01*
X131786285Y-115609714D01*
X131738666Y-115704952D01*
X131691047Y-115752571D01*
X131595809Y-115800190D01*
X131214857Y-115800190D01*
X132691047Y-115276380D02*
X132214857Y-115276380D01*
X132167238Y-115752571D01*
X132214857Y-115704952D01*
X132310095Y-115657333D01*
X132548190Y-115657333D01*
X132643428Y-115704952D01*
X132691047Y-115752571D01*
X132738666Y-115847809D01*
X132738666Y-116085904D01*
X132691047Y-116181142D01*
X132643428Y-116228761D01*
X132548190Y-116276380D01*
X132310095Y-116276380D01*
X132214857Y-116228761D01*
X132167238Y-116181142D01*
X166274761Y-114237619D02*
X166179523Y-114190000D01*
X166084285Y-114094761D01*
X165941428Y-113951904D01*
X165846190Y-113904285D01*
X165750952Y-113904285D01*
X165798571Y-114142380D02*
X165703333Y-114094761D01*
X165608095Y-113999523D01*
X165560476Y-113809047D01*
X165560476Y-113475714D01*
X165608095Y-113285238D01*
X165703333Y-113190000D01*
X165798571Y-113142380D01*
X165989047Y-113142380D01*
X166084285Y-113190000D01*
X166179523Y-113285238D01*
X166227142Y-113475714D01*
X166227142Y-113809047D01*
X166179523Y-113999523D01*
X166084285Y-114094761D01*
X165989047Y-114142380D01*
X165798571Y-114142380D01*
X166608095Y-113237619D02*
X166655714Y-113190000D01*
X166750952Y-113142380D01*
X166989047Y-113142380D01*
X167084285Y-113190000D01*
X167131904Y-113237619D01*
X167179523Y-113332857D01*
X167179523Y-113428095D01*
X167131904Y-113570952D01*
X166560476Y-114142380D01*
X167179523Y-114142380D01*
X154844761Y-114237619D02*
X154749523Y-114190000D01*
X154654285Y-114094761D01*
X154511428Y-113951904D01*
X154416190Y-113904285D01*
X154320952Y-113904285D01*
X154368571Y-114142380D02*
X154273333Y-114094761D01*
X154178095Y-113999523D01*
X154130476Y-113809047D01*
X154130476Y-113475714D01*
X154178095Y-113285238D01*
X154273333Y-113190000D01*
X154368571Y-113142380D01*
X154559047Y-113142380D01*
X154654285Y-113190000D01*
X154749523Y-113285238D01*
X154797142Y-113475714D01*
X154797142Y-113809047D01*
X154749523Y-113999523D01*
X154654285Y-114094761D01*
X154559047Y-114142380D01*
X154368571Y-114142380D01*
X155749523Y-114142380D02*
X155178095Y-114142380D01*
X155463809Y-114142380D02*
X155463809Y-113142380D01*
X155368571Y-113285238D01*
X155273333Y-113380476D01*
X155178095Y-113428095D01*
X106402142Y-110497857D02*
X106449761Y-110545476D01*
X106497380Y-110688333D01*
X106497380Y-110783571D01*
X106449761Y-110926428D01*
X106354523Y-111021666D01*
X106259285Y-111069285D01*
X106068809Y-111116904D01*
X105925952Y-111116904D01*
X105735476Y-111069285D01*
X105640238Y-111021666D01*
X105545000Y-110926428D01*
X105497380Y-110783571D01*
X105497380Y-110688333D01*
X105545000Y-110545476D01*
X105592619Y-110497857D01*
X106497380Y-109545476D02*
X106497380Y-110116904D01*
X106497380Y-109831190D02*
X105497380Y-109831190D01*
X105640238Y-109926428D01*
X105735476Y-110021666D01*
X105783095Y-110116904D01*
X105497380Y-108926428D02*
X105497380Y-108831190D01*
X105545000Y-108735952D01*
X105592619Y-108688333D01*
X105687857Y-108640714D01*
X105878333Y-108593095D01*
X106116428Y-108593095D01*
X106306904Y-108640714D01*
X106402142Y-108688333D01*
X106449761Y-108735952D01*
X106497380Y-108831190D01*
X106497380Y-108926428D01*
X106449761Y-109021666D01*
X106402142Y-109069285D01*
X106306904Y-109116904D01*
X106116428Y-109164523D01*
X105878333Y-109164523D01*
X105687857Y-109116904D01*
X105592619Y-109069285D01*
X105545000Y-109021666D01*
X105497380Y-108926428D01*
X99996666Y-100622380D02*
X99996666Y-101336666D01*
X99949047Y-101479523D01*
X99853809Y-101574761D01*
X99710952Y-101622380D01*
X99615714Y-101622380D01*
X100425238Y-100717619D02*
X100472857Y-100670000D01*
X100568095Y-100622380D01*
X100806190Y-100622380D01*
X100901428Y-100670000D01*
X100949047Y-100717619D01*
X100996666Y-100812857D01*
X100996666Y-100908095D01*
X100949047Y-101050952D01*
X100377619Y-101622380D01*
X100996666Y-101622380D01*
X189857142Y-118372142D02*
X189809523Y-118419761D01*
X189666666Y-118467380D01*
X189571428Y-118467380D01*
X189428571Y-118419761D01*
X189333333Y-118324523D01*
X189285714Y-118229285D01*
X189238095Y-118038809D01*
X189238095Y-117895952D01*
X189285714Y-117705476D01*
X189333333Y-117610238D01*
X189428571Y-117515000D01*
X189571428Y-117467380D01*
X189666666Y-117467380D01*
X189809523Y-117515000D01*
X189857142Y-117562619D01*
X190238095Y-117562619D02*
X190285714Y-117515000D01*
X190380952Y-117467380D01*
X190619047Y-117467380D01*
X190714285Y-117515000D01*
X190761904Y-117562619D01*
X190809523Y-117657857D01*
X190809523Y-117753095D01*
X190761904Y-117895952D01*
X190190476Y-118467380D01*
X190809523Y-118467380D01*
X191428571Y-117467380D02*
X191523809Y-117467380D01*
X191619047Y-117515000D01*
X191666666Y-117562619D01*
X191714285Y-117657857D01*
X191761904Y-117848333D01*
X191761904Y-118086428D01*
X191714285Y-118276904D01*
X191666666Y-118372142D01*
X191619047Y-118419761D01*
X191523809Y-118467380D01*
X191428571Y-118467380D01*
X191333333Y-118419761D01*
X191285714Y-118372142D01*
X191238095Y-118276904D01*
X191190476Y-118086428D01*
X191190476Y-117848333D01*
X191238095Y-117657857D01*
X191285714Y-117562619D01*
X191333333Y-117515000D01*
X191428571Y-117467380D01*
X147788333Y-114697142D02*
X147740714Y-114744761D01*
X147597857Y-114792380D01*
X147502619Y-114792380D01*
X147359761Y-114744761D01*
X147264523Y-114649523D01*
X147216904Y-114554285D01*
X147169285Y-114363809D01*
X147169285Y-114220952D01*
X147216904Y-114030476D01*
X147264523Y-113935238D01*
X147359761Y-113840000D01*
X147502619Y-113792380D01*
X147597857Y-113792380D01*
X147740714Y-113840000D01*
X147788333Y-113887619D01*
X148264523Y-114792380D02*
X148455000Y-114792380D01*
X148550238Y-114744761D01*
X148597857Y-114697142D01*
X148693095Y-114554285D01*
X148740714Y-114363809D01*
X148740714Y-113982857D01*
X148693095Y-113887619D01*
X148645476Y-113840000D01*
X148550238Y-113792380D01*
X148359761Y-113792380D01*
X148264523Y-113840000D01*
X148216904Y-113887619D01*
X148169285Y-113982857D01*
X148169285Y-114220952D01*
X148216904Y-114316190D01*
X148264523Y-114363809D01*
X148359761Y-114411428D01*
X148550238Y-114411428D01*
X148645476Y-114363809D01*
X148693095Y-114316190D01*
X148740714Y-114220952D01*
X142009904Y-127960380D02*
X142009904Y-126960380D01*
X142248000Y-126960380D01*
X142390857Y-127008000D01*
X142486095Y-127103238D01*
X142533714Y-127198476D01*
X142581333Y-127388952D01*
X142581333Y-127531809D01*
X142533714Y-127722285D01*
X142486095Y-127817523D01*
X142390857Y-127912761D01*
X142248000Y-127960380D01*
X142009904Y-127960380D01*
X143486095Y-126960380D02*
X143009904Y-126960380D01*
X142962285Y-127436571D01*
X143009904Y-127388952D01*
X143105142Y-127341333D01*
X143343238Y-127341333D01*
X143438476Y-127388952D01*
X143486095Y-127436571D01*
X143533714Y-127531809D01*
X143533714Y-127769904D01*
X143486095Y-127865142D01*
X143438476Y-127912761D01*
X143343238Y-127960380D01*
X143105142Y-127960380D01*
X143009904Y-127912761D01*
X142962285Y-127865142D01*
X154678095Y-127960380D02*
X154678095Y-126960380D01*
X155249523Y-127960380D02*
X154820952Y-127388952D01*
X155249523Y-126960380D02*
X154678095Y-127531809D01*
X172077142Y-114117142D02*
X172029523Y-114164761D01*
X171886666Y-114212380D01*
X171791428Y-114212380D01*
X171648571Y-114164761D01*
X171553333Y-114069523D01*
X171505714Y-113974285D01*
X171458095Y-113783809D01*
X171458095Y-113640952D01*
X171505714Y-113450476D01*
X171553333Y-113355238D01*
X171648571Y-113260000D01*
X171791428Y-113212380D01*
X171886666Y-113212380D01*
X172029523Y-113260000D01*
X172077142Y-113307619D01*
X173029523Y-114212380D02*
X172458095Y-114212380D01*
X172743809Y-114212380D02*
X172743809Y-113212380D01*
X172648571Y-113355238D01*
X172553333Y-113450476D01*
X172458095Y-113498095D01*
X173981904Y-114212380D02*
X173410476Y-114212380D01*
X173696190Y-114212380D02*
X173696190Y-113212380D01*
X173600952Y-113355238D01*
X173505714Y-113450476D01*
X173410476Y-113498095D01*
X114641333Y-126182380D02*
X114165142Y-126182380D01*
X114165142Y-125182380D01*
X115498476Y-126182380D02*
X114927047Y-126182380D01*
X115212761Y-126182380D02*
X115212761Y-125182380D01*
X115117523Y-125325238D01*
X115022285Y-125420476D01*
X114927047Y-125468095D01*
X178062142Y-104306666D02*
X178109761Y-104354285D01*
X178157380Y-104497142D01*
X178157380Y-104592380D01*
X178109761Y-104735238D01*
X178014523Y-104830476D01*
X177919285Y-104878095D01*
X177728809Y-104925714D01*
X177585952Y-104925714D01*
X177395476Y-104878095D01*
X177300238Y-104830476D01*
X177205000Y-104735238D01*
X177157380Y-104592380D01*
X177157380Y-104497142D01*
X177205000Y-104354285D01*
X177252619Y-104306666D01*
X177252619Y-103925714D02*
X177205000Y-103878095D01*
X177157380Y-103782857D01*
X177157380Y-103544761D01*
X177205000Y-103449523D01*
X177252619Y-103401904D01*
X177347857Y-103354285D01*
X177443095Y-103354285D01*
X177585952Y-103401904D01*
X178157380Y-103973333D01*
X178157380Y-103354285D01*
X136834666Y-115276380D02*
X136834666Y-115990666D01*
X136787047Y-116133523D01*
X136691809Y-116228761D01*
X136548952Y-116276380D01*
X136453714Y-116276380D01*
X137310857Y-116276380D02*
X137310857Y-115276380D01*
X137691809Y-115276380D01*
X137787047Y-115324000D01*
X137834666Y-115371619D01*
X137882285Y-115466857D01*
X137882285Y-115609714D01*
X137834666Y-115704952D01*
X137787047Y-115752571D01*
X137691809Y-115800190D01*
X137310857Y-115800190D01*
X138739428Y-115609714D02*
X138739428Y-116276380D01*
X138501333Y-115228761D02*
X138263238Y-115943047D01*
X138882285Y-115943047D01*
X193302142Y-123197857D02*
X193349761Y-123245476D01*
X193397380Y-123388333D01*
X193397380Y-123483571D01*
X193349761Y-123626428D01*
X193254523Y-123721666D01*
X193159285Y-123769285D01*
X192968809Y-123816904D01*
X192825952Y-123816904D01*
X192635476Y-123769285D01*
X192540238Y-123721666D01*
X192445000Y-123626428D01*
X192397380Y-123483571D01*
X192397380Y-123388333D01*
X192445000Y-123245476D01*
X192492619Y-123197857D01*
X193397380Y-122245476D02*
X193397380Y-122816904D01*
X193397380Y-122531190D02*
X192397380Y-122531190D01*
X192540238Y-122626428D01*
X192635476Y-122721666D01*
X192683095Y-122816904D01*
X192825952Y-121674047D02*
X192778333Y-121769285D01*
X192730714Y-121816904D01*
X192635476Y-121864523D01*
X192587857Y-121864523D01*
X192492619Y-121816904D01*
X192445000Y-121769285D01*
X192397380Y-121674047D01*
X192397380Y-121483571D01*
X192445000Y-121388333D01*
X192492619Y-121340714D01*
X192587857Y-121293095D01*
X192635476Y-121293095D01*
X192730714Y-121340714D01*
X192778333Y-121388333D01*
X192825952Y-121483571D01*
X192825952Y-121674047D01*
X192873571Y-121769285D01*
X192921190Y-121816904D01*
X193016428Y-121864523D01*
X193206904Y-121864523D01*
X193302142Y-121816904D01*
X193349761Y-121769285D01*
X193397380Y-121674047D01*
X193397380Y-121483571D01*
X193349761Y-121388333D01*
X193302142Y-121340714D01*
X193206904Y-121293095D01*
X193016428Y-121293095D01*
X192921190Y-121340714D01*
X192873571Y-121388333D01*
X192825952Y-121483571D01*
X125103095Y-110787380D02*
X125674523Y-110787380D01*
X125388809Y-111787380D02*
X125388809Y-110787380D01*
X126007857Y-111787380D02*
X126007857Y-110787380D01*
X126388809Y-110787380D01*
X126484047Y-110835000D01*
X126531666Y-110882619D01*
X126579285Y-110977857D01*
X126579285Y-111120714D01*
X126531666Y-111215952D01*
X126484047Y-111263571D01*
X126388809Y-111311190D01*
X126007857Y-111311190D01*
X127531666Y-111787380D02*
X126960238Y-111787380D01*
X127245952Y-111787380D02*
X127245952Y-110787380D01*
X127150714Y-110930238D01*
X127055476Y-111025476D01*
X126960238Y-111073095D01*
X129423095Y-100417380D02*
X129423095Y-101226904D01*
X129470714Y-101322142D01*
X129518333Y-101369761D01*
X129613571Y-101417380D01*
X129804047Y-101417380D01*
X129899285Y-101369761D01*
X129946904Y-101322142D01*
X129994523Y-101226904D01*
X129994523Y-100417380D01*
X130423095Y-100512619D02*
X130470714Y-100465000D01*
X130565952Y-100417380D01*
X130804047Y-100417380D01*
X130899285Y-100465000D01*
X130946904Y-100512619D01*
X130994523Y-100607857D01*
X130994523Y-100703095D01*
X130946904Y-100845952D01*
X130375476Y-101417380D01*
X130994523Y-101417380D01*
X123063095Y-96607380D02*
X123063095Y-97416904D01*
X123110714Y-97512142D01*
X123158333Y-97559761D01*
X123253571Y-97607380D01*
X123444047Y-97607380D01*
X123539285Y-97559761D01*
X123586904Y-97512142D01*
X123634523Y-97416904D01*
X123634523Y-96607380D01*
X124634523Y-97607380D02*
X124063095Y-97607380D01*
X124348809Y-97607380D02*
X124348809Y-96607380D01*
X124253571Y-96750238D01*
X124158333Y-96845476D01*
X124063095Y-96893095D01*
X164766666Y-97242380D02*
X164766666Y-97956666D01*
X164719047Y-98099523D01*
X164623809Y-98194761D01*
X164480952Y-98242380D01*
X164385714Y-98242380D01*
X165147619Y-97242380D02*
X165766666Y-97242380D01*
X165433333Y-97623333D01*
X165576190Y-97623333D01*
X165671428Y-97670952D01*
X165719047Y-97718571D01*
X165766666Y-97813809D01*
X165766666Y-98051904D01*
X165719047Y-98147142D01*
X165671428Y-98194761D01*
X165576190Y-98242380D01*
X165290476Y-98242380D01*
X165195238Y-98194761D01*
X165147619Y-98147142D01*
X154709904Y-117800380D02*
X154709904Y-116800380D01*
X154948000Y-116800380D01*
X155090857Y-116848000D01*
X155186095Y-116943238D01*
X155233714Y-117038476D01*
X155281333Y-117228952D01*
X155281333Y-117371809D01*
X155233714Y-117562285D01*
X155186095Y-117657523D01*
X155090857Y-117752761D01*
X154948000Y-117800380D01*
X154709904Y-117800380D01*
X156138476Y-116800380D02*
X155948000Y-116800380D01*
X155852761Y-116848000D01*
X155805142Y-116895619D01*
X155709904Y-117038476D01*
X155662285Y-117228952D01*
X155662285Y-117609904D01*
X155709904Y-117705142D01*
X155757523Y-117752761D01*
X155852761Y-117800380D01*
X156043238Y-117800380D01*
X156138476Y-117752761D01*
X156186095Y-117705142D01*
X156233714Y-117609904D01*
X156233714Y-117371809D01*
X156186095Y-117276571D01*
X156138476Y-117228952D01*
X156043238Y-117181333D01*
X155852761Y-117181333D01*
X155757523Y-117228952D01*
X155709904Y-117276571D01*
X155662285Y-117371809D01*
X167886095Y-121356380D02*
X167886095Y-120356380D01*
X168457523Y-121356380D02*
X168028952Y-120784952D01*
X168457523Y-120356380D02*
X167886095Y-120927809D01*
X192492380Y-107013333D02*
X193206666Y-107013333D01*
X193349523Y-107060952D01*
X193444761Y-107156190D01*
X193492380Y-107299047D01*
X193492380Y-107394285D01*
X192825714Y-106108571D02*
X193492380Y-106108571D01*
X192444761Y-106346666D02*
X193159047Y-106584761D01*
X193159047Y-105965714D01*
X103338333Y-126182380D02*
X102862142Y-126182380D01*
X102862142Y-125182380D01*
X103624047Y-125277619D02*
X103671666Y-125230000D01*
X103766904Y-125182380D01*
X104005000Y-125182380D01*
X104100238Y-125230000D01*
X104147857Y-125277619D01*
X104195476Y-125372857D01*
X104195476Y-125468095D01*
X104147857Y-125610952D01*
X103576428Y-126182380D01*
X104195476Y-126182380D01*
X157488095Y-102322380D02*
X158059523Y-102322380D01*
X157773809Y-103322380D02*
X157773809Y-102322380D01*
X158392857Y-103322380D02*
X158392857Y-102322380D01*
X158773809Y-102322380D01*
X158869047Y-102370000D01*
X158916666Y-102417619D01*
X158964285Y-102512857D01*
X158964285Y-102655714D01*
X158916666Y-102750952D01*
X158869047Y-102798571D01*
X158773809Y-102846190D01*
X158392857Y-102846190D01*
X159345238Y-102417619D02*
X159392857Y-102370000D01*
X159488095Y-102322380D01*
X159726190Y-102322380D01*
X159821428Y-102370000D01*
X159869047Y-102417619D01*
X159916666Y-102512857D01*
X159916666Y-102608095D01*
X159869047Y-102750952D01*
X159297619Y-103322380D01*
X159916666Y-103322380D01*
X126031666Y-101687380D02*
X126031666Y-102401666D01*
X125984047Y-102544523D01*
X125888809Y-102639761D01*
X125745952Y-102687380D01*
X125650714Y-102687380D01*
X127031666Y-102687380D02*
X126460238Y-102687380D01*
X126745952Y-102687380D02*
X126745952Y-101687380D01*
X126650714Y-101830238D01*
X126555476Y-101925476D01*
X126460238Y-101973095D01*
X178871666Y-108672380D02*
X178871666Y-109386666D01*
X178824047Y-109529523D01*
X178728809Y-109624761D01*
X178585952Y-109672380D01*
X178490714Y-109672380D01*
X179347857Y-109672380D02*
X179347857Y-108672380D01*
X179728809Y-108672380D01*
X179824047Y-108720000D01*
X179871666Y-108767619D01*
X179919285Y-108862857D01*
X179919285Y-109005714D01*
X179871666Y-109100952D01*
X179824047Y-109148571D01*
X179728809Y-109196190D01*
X179347857Y-109196190D01*
X180871666Y-109672380D02*
X180300238Y-109672380D01*
X180585952Y-109672380D02*
X180585952Y-108672380D01*
X180490714Y-108815238D01*
X180395476Y-108910476D01*
X180300238Y-108958095D01*
X158773904Y-127882380D02*
X158773904Y-126882380D01*
X159012000Y-126882380D01*
X159154857Y-126930000D01*
X159250095Y-127025238D01*
X159297714Y-127120476D01*
X159345333Y-127310952D01*
X159345333Y-127453809D01*
X159297714Y-127644285D01*
X159250095Y-127739523D01*
X159154857Y-127834761D01*
X159012000Y-127882380D01*
X158773904Y-127882380D01*
X159678666Y-126882380D02*
X160345333Y-126882380D01*
X159916761Y-127882380D01*
X171823095Y-127960380D02*
X171823095Y-126960380D01*
X172394523Y-127960380D02*
X171965952Y-127388952D01*
X172394523Y-126960380D02*
X171823095Y-127531809D01*
X122356666Y-124547380D02*
X122356666Y-125261666D01*
X122309047Y-125404523D01*
X122213809Y-125499761D01*
X122070952Y-125547380D01*
X121975714Y-125547380D01*
X122832857Y-125547380D02*
X122832857Y-124547380D01*
X123213809Y-124547380D01*
X123309047Y-124595000D01*
X123356666Y-124642619D01*
X123404285Y-124737857D01*
X123404285Y-124880714D01*
X123356666Y-124975952D01*
X123309047Y-125023571D01*
X123213809Y-125071190D01*
X122832857Y-125071190D01*
X123785238Y-124642619D02*
X123832857Y-124595000D01*
X123928095Y-124547380D01*
X124166190Y-124547380D01*
X124261428Y-124595000D01*
X124309047Y-124642619D01*
X124356666Y-124737857D01*
X124356666Y-124833095D01*
X124309047Y-124975952D01*
X123737619Y-125547380D01*
X124356666Y-125547380D01*
X180141666Y-98087380D02*
X180141666Y-98801666D01*
X180094047Y-98944523D01*
X179998809Y-99039761D01*
X179855952Y-99087380D01*
X179760714Y-99087380D01*
X180617857Y-99087380D02*
X180617857Y-98087380D01*
X180998809Y-98087380D01*
X181094047Y-98135000D01*
X181141666Y-98182619D01*
X181189285Y-98277857D01*
X181189285Y-98420714D01*
X181141666Y-98515952D01*
X181094047Y-98563571D01*
X180998809Y-98611190D01*
X180617857Y-98611190D01*
X181522619Y-98087380D02*
X182141666Y-98087380D01*
X181808333Y-98468333D01*
X181951190Y-98468333D01*
X182046428Y-98515952D01*
X182094047Y-98563571D01*
X182141666Y-98658809D01*
X182141666Y-98896904D01*
X182094047Y-98992142D01*
X182046428Y-99039761D01*
X181951190Y-99087380D01*
X181665476Y-99087380D01*
X181570238Y-99039761D01*
X181522619Y-98992142D01*
X147788333Y-107712142D02*
X147740714Y-107759761D01*
X147597857Y-107807380D01*
X147502619Y-107807380D01*
X147359761Y-107759761D01*
X147264523Y-107664523D01*
X147216904Y-107569285D01*
X147169285Y-107378809D01*
X147169285Y-107235952D01*
X147216904Y-107045476D01*
X147264523Y-106950238D01*
X147359761Y-106855000D01*
X147502619Y-106807380D01*
X147597857Y-106807380D01*
X147740714Y-106855000D01*
X147788333Y-106902619D01*
X148121666Y-106807380D02*
X148740714Y-106807380D01*
X148407380Y-107188333D01*
X148550238Y-107188333D01*
X148645476Y-107235952D01*
X148693095Y-107283571D01*
X148740714Y-107378809D01*
X148740714Y-107616904D01*
X148693095Y-107712142D01*
X148645476Y-107759761D01*
X148550238Y-107807380D01*
X148264523Y-107807380D01*
X148169285Y-107759761D01*
X148121666Y-107712142D01*
X106402142Y-103671666D02*
X106449761Y-103719285D01*
X106497380Y-103862142D01*
X106497380Y-103957380D01*
X106449761Y-104100238D01*
X106354523Y-104195476D01*
X106259285Y-104243095D01*
X106068809Y-104290714D01*
X105925952Y-104290714D01*
X105735476Y-104243095D01*
X105640238Y-104195476D01*
X105545000Y-104100238D01*
X105497380Y-103957380D01*
X105497380Y-103862142D01*
X105545000Y-103719285D01*
X105592619Y-103671666D01*
X106497380Y-102719285D02*
X106497380Y-103290714D01*
X106497380Y-103005000D02*
X105497380Y-103005000D01*
X105640238Y-103100238D01*
X105735476Y-103195476D01*
X105783095Y-103290714D01*
X175957380Y-124586904D02*
X176766904Y-124586904D01*
X176862142Y-124539285D01*
X176909761Y-124491666D01*
X176957380Y-124396428D01*
X176957380Y-124205952D01*
X176909761Y-124110714D01*
X176862142Y-124063095D01*
X176766904Y-124015476D01*
X175957380Y-124015476D01*
X175957380Y-123634523D02*
X175957380Y-123015476D01*
X176338333Y-123348809D01*
X176338333Y-123205952D01*
X176385952Y-123110714D01*
X176433571Y-123063095D01*
X176528809Y-123015476D01*
X176766904Y-123015476D01*
X176862142Y-123063095D01*
X176909761Y-123110714D01*
X176957380Y-123205952D01*
X176957380Y-123491666D01*
X176909761Y-123586904D01*
X176862142Y-123634523D01*
D11*
X159285000Y-107890000D02*
X162025000Y-107890000D01*
X159285000Y-113130000D02*
X162025000Y-113130000D01*
X159285000Y-113130000D02*
X159285000Y-107890000D01*
X162025000Y-113130000D02*
X162025000Y-107890000D01*
X145335000Y-100865000D02*
X145335000Y-103605000D01*
X145335000Y-103605000D02*
X150575000Y-103605000D01*
X150575000Y-100865000D02*
X150575000Y-103605000D01*
X145335000Y-100865000D02*
X150575000Y-100865000D01*
X132775000Y-119380000D02*
X132775000Y-124520000D01*
X130115000Y-118110000D02*
X130115000Y-116780000D01*
X130115000Y-124520000D02*
X132775000Y-124520000D01*
X130115000Y-119380000D02*
X132775000Y-119380000D01*
X130115000Y-119380000D02*
X130115000Y-124520000D01*
X130115000Y-116780000D02*
X131445000Y-116780000D01*
X168170000Y-108280000D02*
X164570000Y-108280000D01*
X166370000Y-112730001D02*
G75*
G03*
X168208478Y-108291522I0J2600001D01*
G01*
X164531522Y-108291522D02*
G75*
G03*
X166370000Y-112730000I1838478J-1838478D01*
G01*
X156740000Y-108280000D02*
X153140000Y-108280000D01*
X154940000Y-112730001D02*
G75*
G03*
X156778478Y-108291522I0J2600001D01*
G01*
X153101522Y-108291522D02*
G75*
G03*
X154940000Y-112730000I1838478J-1838478D01*
G01*
X111860000Y-112475000D02*
X111860000Y-107235000D01*
X109120000Y-107235000D02*
X111860000Y-107235000D01*
X109120000Y-112475000D02*
X111860000Y-112475000D01*
X109120000Y-112475000D02*
X109120000Y-107235000D01*
X99000000Y-104770000D02*
X101660000Y-104770000D01*
X99000000Y-102170000D02*
X100330000Y-102170000D01*
X101660000Y-104770000D02*
X101660000Y-107370000D01*
X99000000Y-103500000D02*
X99000000Y-102170000D01*
X99000000Y-107370000D02*
X101660000Y-107370000D01*
X99000000Y-104770000D02*
X99000000Y-107370000D01*
X192845563Y-117075000D02*
X187090000Y-117075000D01*
X193910000Y-116010563D02*
X193910000Y-114725000D01*
X193910000Y-111319437D02*
X193910000Y-112605000D01*
X192845563Y-110255000D02*
X187090000Y-110255000D01*
X193910000Y-111319437D02*
X192845563Y-110255000D01*
X193910000Y-116010563D02*
X192845563Y-117075000D01*
X187090000Y-110255000D02*
X187090000Y-112605000D01*
X187090000Y-117075000D02*
X187090000Y-114725000D01*
X145335000Y-115470000D02*
X150575000Y-115470000D01*
X150575000Y-115470000D02*
X150575000Y-118210000D01*
X145335000Y-118210000D02*
X150575000Y-118210000D01*
X145335000Y-115470000D02*
X145335000Y-118210000D01*
X153160000Y-122490000D02*
X144020000Y-122490000D01*
X151825000Y-126430000D02*
X151825000Y-122490000D01*
X144020000Y-126430000D02*
X153160000Y-126430000D01*
X153160000Y-126430000D02*
X153160000Y-122490000D01*
X151585000Y-126430000D02*
X151585000Y-122490000D01*
X153300000Y-124460000D02*
X153160000Y-124460000D01*
X144020000Y-122490000D02*
X144020000Y-126430000D01*
X151705000Y-126430000D02*
X151705000Y-122490000D01*
X143880000Y-124460000D02*
X144020000Y-124460000D01*
X176130000Y-114700000D02*
X176130000Y-117050000D01*
X169310000Y-115764437D02*
X169310000Y-117050000D01*
X169310000Y-120455563D02*
X170374437Y-121520000D01*
X170374437Y-121520000D02*
X176130000Y-121520000D01*
X169310000Y-115764437D02*
X170374437Y-114700000D01*
X169310000Y-120455563D02*
X169310000Y-119170000D01*
X170374437Y-114700000D02*
X176130000Y-114700000D01*
X176130000Y-121520000D02*
X176130000Y-119170000D01*
X123865000Y-120650000D02*
G75*
G03*
X123865000Y-120650000I-5120000J0D01*
G01*
X169945000Y-101794437D02*
X169945000Y-107550000D01*
X171009437Y-100730000D02*
X172295000Y-100730000D01*
X169945000Y-107550000D02*
X172295000Y-107550000D01*
X175700563Y-100730000D02*
X174415000Y-100730000D01*
X176765000Y-101794437D02*
X176765000Y-107550000D01*
X176765000Y-107550000D02*
X174415000Y-107550000D01*
X175700563Y-100730000D02*
X176765000Y-101794437D01*
X171009437Y-100730000D02*
X169945000Y-101794437D01*
X136465000Y-119395000D02*
X139125000Y-119395000D01*
X136465000Y-116795000D02*
X137795000Y-116795000D01*
X136465000Y-124535000D02*
X139125000Y-124535000D01*
X136465000Y-118125000D02*
X136465000Y-116795000D01*
X139125000Y-119395000D02*
X139125000Y-124535000D01*
X136465000Y-119395000D02*
X136465000Y-124535000D01*
X190940563Y-119145000D02*
X189655000Y-119145000D01*
X185185000Y-120209437D02*
X185185000Y-125965000D01*
X190940563Y-119145000D02*
X192005000Y-120209437D01*
X192005000Y-120209437D02*
X192005000Y-125965000D01*
X185185000Y-125965000D02*
X187535000Y-125965000D01*
X192005000Y-125965000D02*
X189655000Y-125965000D01*
X186249437Y-119145000D02*
X185185000Y-120209437D01*
X186249437Y-119145000D02*
X187535000Y-119145000D01*
X127695000Y-114935000D02*
X127695000Y-114995000D01*
X125035000Y-113665000D02*
X125035000Y-112335000D01*
X125035000Y-114935000D02*
X125035000Y-114995000D01*
X125035000Y-114995000D02*
X127695000Y-114995000D01*
X125035000Y-114935000D02*
X127695000Y-114935000D01*
X125035000Y-112335000D02*
X126365000Y-112335000D01*
X136645000Y-112465000D02*
X136645000Y-102185000D01*
X132995000Y-102185000D02*
X131345000Y-102185000D01*
X131345000Y-102185000D02*
X131345000Y-112465000D01*
X136645000Y-102185000D02*
X134995000Y-102185000D01*
X131345000Y-112465000D02*
X136645000Y-112465000D01*
X132995000Y-102185000D02*
G75*
G03*
X134995000Y-102185000I1000000J0D01*
G01*
X114835000Y-97090000D02*
X114835000Y-114990000D01*
X116485000Y-97090000D02*
X114835000Y-97090000D01*
X120135000Y-114990000D02*
X120135000Y-97090000D01*
X114835000Y-114990000D02*
X120135000Y-114990000D01*
X120135000Y-97090000D02*
X118485000Y-97090000D01*
X116485000Y-97090000D02*
G75*
G03*
X118485000Y-97090000I1000000J0D01*
G01*
X160655000Y-100390000D02*
X158055000Y-100390000D01*
X160655000Y-97730000D02*
X158055000Y-97730000D01*
X163255000Y-97730000D02*
X163255000Y-99060000D01*
X161925000Y-97730000D02*
X163255000Y-97730000D01*
X160655000Y-97730000D02*
X160655000Y-100390000D01*
X158055000Y-97730000D02*
X158055000Y-100390000D01*
X162380000Y-121985000D02*
X162380000Y-118045000D01*
X163955000Y-118045000D02*
X154815000Y-118045000D01*
X163955000Y-121985000D02*
X163955000Y-118045000D01*
X154675000Y-120015000D02*
X154815000Y-120015000D01*
X162500000Y-121985000D02*
X162500000Y-118045000D01*
X162620000Y-121985000D02*
X162620000Y-118045000D01*
X154815000Y-118045000D02*
X154815000Y-121985000D01*
X164095000Y-120015000D02*
X163955000Y-120015000D01*
X154815000Y-121985000D02*
X163955000Y-121985000D01*
X189170000Y-100980000D02*
X189170000Y-99650000D01*
X189170000Y-102250000D02*
X189170000Y-107390000D01*
X191830000Y-102250000D02*
X191830000Y-107390000D01*
X189170000Y-107390000D02*
X191830000Y-107390000D01*
X189170000Y-99650000D02*
X190500000Y-99650000D01*
X189170000Y-102250000D02*
X191830000Y-102250000D01*
X112435000Y-120610000D02*
G75*
G03*
X112435000Y-120610000I-5120000J0D01*
G01*
X160595000Y-104835000D02*
X163255000Y-104835000D01*
X160595000Y-102175000D02*
X161925000Y-102175000D01*
X160595000Y-104775000D02*
X163255000Y-104775000D01*
X160595000Y-103505000D02*
X160595000Y-102175000D01*
X163255000Y-104775000D02*
X163255000Y-104835000D01*
X160595000Y-104775000D02*
X160595000Y-104835000D01*
X127695000Y-109920000D02*
X126365000Y-109920000D01*
X127695000Y-104720000D02*
X125035000Y-104720000D01*
X127695000Y-108590000D02*
X127695000Y-109920000D01*
X127695000Y-107320000D02*
X127695000Y-104720000D01*
X127695000Y-107320000D02*
X125035000Y-107320000D01*
X125035000Y-107320000D02*
X125035000Y-104720000D01*
X181035000Y-116825000D02*
X181035000Y-111685000D01*
X178375000Y-116825000D02*
X178375000Y-111685000D01*
X181035000Y-116825000D02*
X178375000Y-116825000D01*
X181035000Y-119425000D02*
X179705000Y-119425000D01*
X181035000Y-118095000D02*
X181035000Y-119425000D01*
X181035000Y-111685000D02*
X178375000Y-111685000D01*
X168850000Y-126430000D02*
X168850000Y-122490000D01*
X161165000Y-122490000D02*
X161165000Y-126430000D01*
X168970000Y-126430000D02*
X168970000Y-122490000D01*
X161025000Y-124460000D02*
X161165000Y-124460000D01*
X170305000Y-122490000D02*
X161165000Y-122490000D01*
X168730000Y-126430000D02*
X168730000Y-122490000D01*
X170305000Y-126430000D02*
X170305000Y-122490000D01*
X170445000Y-124460000D02*
X170305000Y-124460000D01*
X161165000Y-126430000D02*
X170305000Y-126430000D01*
X125035000Y-118125000D02*
X125035000Y-116795000D01*
X125035000Y-124535000D02*
X127695000Y-124535000D01*
X125035000Y-116795000D02*
X126365000Y-116795000D01*
X127695000Y-119395000D02*
X127695000Y-124535000D01*
X125035000Y-119395000D02*
X125035000Y-124535000D01*
X125035000Y-119395000D02*
X127695000Y-119395000D01*
X179645000Y-102235000D02*
X182305000Y-102235000D01*
X179645000Y-99635000D02*
X180975000Y-99635000D01*
X179645000Y-107375000D02*
X182305000Y-107375000D01*
X179645000Y-100965000D02*
X179645000Y-99635000D01*
X179645000Y-102235000D02*
X179645000Y-107375000D01*
X182305000Y-102235000D02*
X182305000Y-107375000D01*
X145335000Y-108485000D02*
X150575000Y-108485000D01*
X150575000Y-108485000D02*
X150575000Y-111225000D01*
X145335000Y-111225000D02*
X150575000Y-111225000D01*
X145335000Y-108485000D02*
X145335000Y-111225000D01*
X109120000Y-106125000D02*
X109120000Y-100885000D01*
X109120000Y-100885000D02*
X111860000Y-100885000D01*
X109120000Y-106125000D02*
X111860000Y-106125000D01*
X111860000Y-106125000D02*
X111860000Y-100885000D01*
X181915000Y-125625000D02*
X181915000Y-122025000D01*
X177464999Y-123825000D02*
G75*
G03*
X181903478Y-125663478I2600001J0D01*
G01*
X181903478Y-121986522D02*
G75*
G03*
X177465000Y-123825000I-1838478J-1838478D01*
G01*
%LPC*%
D12*
X160655000Y-111760000D03*
X160655000Y-109260000D03*
X146705000Y-102235000D03*
X149205000Y-102235000D03*
D13*
X198120000Y-124460000D03*
D14*
X131445000Y-118110000D03*
D15*
X131445000Y-120650000D03*
X131445000Y-123190000D03*
D16*
X167640000Y-110130000D03*
D17*
X166370000Y-111400000D03*
X165100000Y-110130000D03*
D16*
X156210000Y-110130000D03*
D17*
X154940000Y-111400000D03*
X153670000Y-110130000D03*
D12*
X110490000Y-111105000D03*
X110490000Y-108605000D03*
D13*
X95250000Y-124460000D03*
X198120000Y-99695000D03*
D14*
X100330000Y-103500000D03*
D15*
X100330000Y-106040000D03*
D18*
X193037500Y-113665000D03*
X187962500Y-113665000D03*
D12*
X146705000Y-116840000D03*
X149205000Y-116840000D03*
D19*
X154940000Y-124460000D03*
D20*
X142240000Y-124460000D03*
D21*
X170182500Y-118110000D03*
X175257500Y-118110000D03*
D22*
X118745000Y-118150000D03*
X118745000Y-123150000D03*
D23*
X173355000Y-101602500D03*
X173355000Y-106677500D03*
D14*
X137795000Y-118125000D03*
D15*
X137795000Y-120665000D03*
X137795000Y-123205000D03*
D23*
X188595000Y-120017500D03*
X188595000Y-125092500D03*
D14*
X126365000Y-113665000D03*
D13*
X95250000Y-99695000D03*
D24*
X130185000Y-103515000D03*
D25*
X130185000Y-106055000D03*
X130185000Y-108595000D03*
X130185000Y-111135000D03*
X137805000Y-111135000D03*
X137805000Y-108595000D03*
X137805000Y-106055000D03*
X137805000Y-103515000D03*
D24*
X113675000Y-98420000D03*
D25*
X113675000Y-100960000D03*
X113675000Y-103500000D03*
X113675000Y-106040000D03*
X113675000Y-108580000D03*
X113675000Y-111120000D03*
X113675000Y-113660000D03*
X121295000Y-113660000D03*
X121295000Y-111120000D03*
X121295000Y-108580000D03*
X121295000Y-106040000D03*
X121295000Y-103500000D03*
X121295000Y-100960000D03*
X121295000Y-98420000D03*
D14*
X161925000Y-99060000D03*
D15*
X159385000Y-99060000D03*
D19*
X165735000Y-120015000D03*
D20*
X153035000Y-120015000D03*
D14*
X190500000Y-100980000D03*
D15*
X190500000Y-103520000D03*
X190500000Y-106060000D03*
D22*
X107315000Y-118110000D03*
X107315000Y-123110000D03*
D14*
X161925000Y-103505000D03*
X126365000Y-108590000D03*
D15*
X126365000Y-106050000D03*
D14*
X179705000Y-118095000D03*
D15*
X179705000Y-115555000D03*
X179705000Y-113015000D03*
D19*
X172085000Y-124460000D03*
D20*
X159385000Y-124460000D03*
D14*
X126365000Y-118125000D03*
D15*
X126365000Y-120665000D03*
X126365000Y-123205000D03*
D14*
X180975000Y-100965000D03*
D15*
X180975000Y-103505000D03*
X180975000Y-106045000D03*
D12*
X146705000Y-109855000D03*
X149205000Y-109855000D03*
X110490000Y-104755000D03*
X110490000Y-102255000D03*
D26*
X180065000Y-125095000D03*
D27*
X180065000Y-123825000D03*
X180065000Y-122555000D03*
M02*
