%TF.GenerationSoftware,KiCad,Pcbnew,(6.0.10)*%
%TF.CreationDate,2023-04-08T13:13:14+03:00*%
%TF.ProjectId,DelSol_Voice,44656c53-6f6c-45f5-966f-6963652e6b69,rev?*%
%TF.SameCoordinates,Original*%
%TF.FileFunction,Copper,L2,Bot*%
%TF.FilePolarity,Positive*%
%FSLAX46Y46*%
G04 Gerber Fmt 4.6, Leading zero omitted, Abs format (unit mm)*
G04 Created by KiCad (PCBNEW (6.0.10)) date 2023-04-08 13:13:14*
%MOMM*%
%LPD*%
G01*
G04 APERTURE LIST*
G04 Aperture macros list*
%AMRoundRect*
0 Rectangle with rounded corners*
0 $1 Rounding radius*
0 $2 $3 $4 $5 $6 $7 $8 $9 X,Y pos of 4 corners*
0 Add a 4 corners polygon primitive as box body*
4,1,4,$2,$3,$4,$5,$6,$7,$8,$9,$2,$3,0*
0 Add four circle primitives for the rounded corners*
1,1,$1+$1,$2,$3*
1,1,$1+$1,$4,$5*
1,1,$1+$1,$6,$7*
1,1,$1+$1,$8,$9*
0 Add four rect primitives between the rounded corners*
20,1,$1+$1,$2,$3,$4,$5,0*
20,1,$1+$1,$4,$5,$6,$7,0*
20,1,$1+$1,$6,$7,$8,$9,0*
20,1,$1+$1,$8,$9,$2,$3,0*%
G04 Aperture macros list end*
%TA.AperFunction,ComponentPad*%
%ADD10C,1.600000*%
%TD*%
%TA.AperFunction,ComponentPad*%
%ADD11R,1.700000X1.700000*%
%TD*%
%TA.AperFunction,ComponentPad*%
%ADD12O,1.700000X1.700000*%
%TD*%
%TA.AperFunction,ComponentPad*%
%ADD13R,1.300000X1.300000*%
%TD*%
%TA.AperFunction,ComponentPad*%
%ADD14C,1.300000*%
%TD*%
%TA.AperFunction,ComponentPad*%
%ADD15R,2.800000X2.800000*%
%TD*%
%TA.AperFunction,ComponentPad*%
%ADD16O,2.800000X2.800000*%
%TD*%
%TA.AperFunction,ComponentPad*%
%ADD17C,2.600000*%
%TD*%
%TA.AperFunction,ComponentPad*%
%ADD18R,1.600000X1.600000*%
%TD*%
%TA.AperFunction,ComponentPad*%
%ADD19O,1.600000X1.600000*%
%TD*%
%TA.AperFunction,ComponentPad*%
%ADD20R,1.500000X1.050000*%
%TD*%
%TA.AperFunction,ComponentPad*%
%ADD21O,1.500000X1.050000*%
%TD*%
%TA.AperFunction,SMDPad,CuDef*%
%ADD22RoundRect,0.250000X-0.400000X-0.625000X0.400000X-0.625000X0.400000X0.625000X-0.400000X0.625000X0*%
%TD*%
%TA.AperFunction,SMDPad,CuDef*%
%ADD23R,1.700000X3.300000*%
%TD*%
%TA.AperFunction,SMDPad,CuDef*%
%ADD24RoundRect,0.250000X-0.337500X-0.475000X0.337500X-0.475000X0.337500X0.475000X-0.337500X0.475000X0*%
%TD*%
%TA.AperFunction,SMDPad,CuDef*%
%ADD25RoundRect,0.250000X0.400000X0.625000X-0.400000X0.625000X-0.400000X-0.625000X0.400000X-0.625000X0*%
%TD*%
%TA.AperFunction,SMDPad,CuDef*%
%ADD26RoundRect,0.250000X-0.475000X0.337500X-0.475000X-0.337500X0.475000X-0.337500X0.475000X0.337500X0*%
%TD*%
%TA.AperFunction,SMDPad,CuDef*%
%ADD27RoundRect,0.250000X-0.650000X0.412500X-0.650000X-0.412500X0.650000X-0.412500X0.650000X0.412500X0*%
%TD*%
%TA.AperFunction,SMDPad,CuDef*%
%ADD28RoundRect,0.250000X0.625000X-0.400000X0.625000X0.400000X-0.625000X0.400000X-0.625000X-0.400000X0*%
%TD*%
%TA.AperFunction,SMDPad,CuDef*%
%ADD29RoundRect,0.250000X-0.625000X0.400000X-0.625000X-0.400000X0.625000X-0.400000X0.625000X0.400000X0*%
%TD*%
%TA.AperFunction,SMDPad,CuDef*%
%ADD30R,3.300000X1.700000*%
%TD*%
%TA.AperFunction,SMDPad,CuDef*%
%ADD31RoundRect,0.250000X0.475000X-0.337500X0.475000X0.337500X-0.475000X0.337500X-0.475000X-0.337500X0*%
%TD*%
%TA.AperFunction,SMDPad,CuDef*%
%ADD32RoundRect,0.250000X-0.412500X-0.650000X0.412500X-0.650000X0.412500X0.650000X-0.412500X0.650000X0*%
%TD*%
%TA.AperFunction,SMDPad,CuDef*%
%ADD33RoundRect,0.250000X0.337500X0.475000X-0.337500X0.475000X-0.337500X-0.475000X0.337500X-0.475000X0*%
%TD*%
%TA.AperFunction,ViaPad*%
%ADD34C,0.800000*%
%TD*%
%TA.AperFunction,Conductor*%
%ADD35C,0.500000*%
%TD*%
G04 APERTURE END LIST*
D10*
X160655000Y-111760000D03*
X160655000Y-109260000D03*
X146705000Y-102235000D03*
X149205000Y-102235000D03*
D11*
X131445000Y-118110000D03*
D12*
X131445000Y-120650000D03*
X131445000Y-123190000D03*
D13*
X167640000Y-110130000D03*
D14*
X166370000Y-111400000D03*
X165100000Y-110130000D03*
D13*
X156210000Y-110130000D03*
D14*
X154940000Y-111400000D03*
X153670000Y-110130000D03*
D10*
X110490000Y-111105000D03*
X110490000Y-108605000D03*
D11*
X100330000Y-103500000D03*
D12*
X100330000Y-106040000D03*
D10*
X146705000Y-116840000D03*
X149205000Y-116840000D03*
D15*
X154940000Y-124460000D03*
D16*
X142240000Y-124460000D03*
D17*
X118745000Y-118150000D03*
X118745000Y-123150000D03*
D11*
X137795000Y-118125000D03*
D12*
X137795000Y-120665000D03*
X137795000Y-123205000D03*
D11*
X126365000Y-113665000D03*
D18*
X130185000Y-103515000D03*
D19*
X130185000Y-106055000D03*
X130185000Y-108595000D03*
X130185000Y-111135000D03*
X137805000Y-111135000D03*
X137805000Y-108595000D03*
X137805000Y-106055000D03*
X137805000Y-103515000D03*
D18*
X113675000Y-98420000D03*
D19*
X113675000Y-100960000D03*
X113675000Y-103500000D03*
X113675000Y-106040000D03*
X113675000Y-108580000D03*
X113675000Y-111120000D03*
X113675000Y-113660000D03*
X121295000Y-113660000D03*
X121295000Y-111120000D03*
X121295000Y-108580000D03*
X121295000Y-106040000D03*
X121295000Y-103500000D03*
X121295000Y-100960000D03*
X121295000Y-98420000D03*
D11*
X161925000Y-99060000D03*
D12*
X159385000Y-99060000D03*
D15*
X165735000Y-120015000D03*
D16*
X153035000Y-120015000D03*
D11*
X190500000Y-100980000D03*
D12*
X190500000Y-103520000D03*
X190500000Y-106060000D03*
D17*
X107315000Y-118110000D03*
X107315000Y-123110000D03*
D11*
X161925000Y-103505000D03*
X126365000Y-108590000D03*
D12*
X126365000Y-106050000D03*
D11*
X179705000Y-118095000D03*
D12*
X179705000Y-115555000D03*
X179705000Y-113015000D03*
D15*
X172085000Y-124460000D03*
D16*
X159385000Y-124460000D03*
D11*
X126365000Y-118125000D03*
D12*
X126365000Y-120665000D03*
X126365000Y-123205000D03*
D11*
X180975000Y-100965000D03*
D12*
X180975000Y-103505000D03*
X180975000Y-106045000D03*
D10*
X146705000Y-109855000D03*
X149205000Y-109855000D03*
X110490000Y-104755000D03*
X110490000Y-102255000D03*
D20*
X180065000Y-125095000D03*
D21*
X180065000Y-123825000D03*
X180065000Y-122555000D03*
D22*
X145135000Y-106045000D03*
X148235000Y-106045000D03*
D23*
X182880000Y-119170000D03*
X182880000Y-124670000D03*
D24*
X189462500Y-112395000D03*
X191537500Y-112395000D03*
D22*
X132435000Y-103505000D03*
X135535000Y-103505000D03*
X140055000Y-100965000D03*
X143155000Y-100965000D03*
X164820000Y-106045000D03*
X167920000Y-106045000D03*
D25*
X188240000Y-123190000D03*
X185140000Y-123190000D03*
D26*
X177800000Y-122152500D03*
X177800000Y-124227500D03*
D22*
X146405000Y-113030000D03*
X149505000Y-113030000D03*
X158470000Y-114935000D03*
X161570000Y-114935000D03*
D27*
X173355000Y-102577500D03*
X173355000Y-105702500D03*
D28*
X116205000Y-108865000D03*
X116205000Y-105765000D03*
D22*
X153390000Y-114935000D03*
X156490000Y-114935000D03*
X163550000Y-114935000D03*
X166650000Y-114935000D03*
X155295000Y-103035000D03*
X158395000Y-103035000D03*
D29*
X116205000Y-100685000D03*
X116205000Y-103785000D03*
D25*
X173635000Y-120650000D03*
X170535000Y-120650000D03*
D22*
X132435000Y-106045000D03*
X135535000Y-106045000D03*
D27*
X103505000Y-105752500D03*
X103505000Y-108877500D03*
D30*
X131870000Y-125730000D03*
X137370000Y-125730000D03*
D22*
X155295000Y-106045000D03*
X158395000Y-106045000D03*
X188950000Y-114935000D03*
X192050000Y-114935000D03*
D26*
X118735000Y-97657500D03*
X118735000Y-99732500D03*
D31*
X191770000Y-122322500D03*
X191770000Y-120247500D03*
D29*
X171450000Y-112115000D03*
X171450000Y-115215000D03*
D27*
X184150000Y-103847500D03*
X184150000Y-106972500D03*
D30*
X191645000Y-125565000D03*
X186145000Y-125565000D03*
D27*
X106680000Y-105752500D03*
X106680000Y-108877500D03*
D32*
X125095000Y-102870000D03*
X128220000Y-102870000D03*
D25*
X143155000Y-103505000D03*
X140055000Y-103505000D03*
D22*
X104495000Y-102870000D03*
X107595000Y-102870000D03*
D25*
X143155000Y-106045000D03*
X140055000Y-106045000D03*
D30*
X110065000Y-113665000D03*
X104565000Y-113665000D03*
D33*
X172487500Y-118110000D03*
X170412500Y-118110000D03*
D22*
X150215000Y-106045000D03*
X153315000Y-106045000D03*
D27*
X187325000Y-100037500D03*
X187325000Y-103162500D03*
D31*
X175260000Y-125497500D03*
X175260000Y-123422500D03*
D30*
X110065000Y-99695000D03*
X104565000Y-99695000D03*
D34*
X173355000Y-99060000D03*
X175260000Y-120015000D03*
X193040000Y-111760000D03*
X173355000Y-109220000D03*
X117493850Y-101615051D03*
X139065000Y-127635000D03*
X168910000Y-119380000D03*
X133350000Y-99695000D03*
X180910000Y-96455000D03*
X182880000Y-113030000D03*
X184329502Y-123825000D03*
X173990000Y-127635000D03*
X169545000Y-126365000D03*
X180975000Y-120650000D03*
X190500000Y-123825000D03*
X176530000Y-127635000D03*
X187960000Y-112395000D03*
D35*
X110065000Y-99695000D02*
X110520000Y-99695000D01*
X113675000Y-100960000D02*
X111785000Y-100960000D01*
X116205000Y-100685000D02*
X113950000Y-100685000D01*
X113675000Y-98420000D02*
X113675000Y-100960000D01*
X110520000Y-99695000D02*
X111785000Y-100960000D01*
X111785000Y-100960000D02*
X110490000Y-102255000D01*
X113950000Y-100685000D02*
X113675000Y-100960000D01*
X192050000Y-112907500D02*
X191537500Y-112395000D01*
X175260000Y-120015000D02*
X174270000Y-120015000D01*
X145415000Y-113030000D02*
X146405000Y-113030000D01*
X146705000Y-106489949D02*
X144780000Y-108414949D01*
X173355000Y-99060000D02*
X173355000Y-102577500D01*
X146705000Y-116840000D02*
X146705000Y-113330000D01*
X192405000Y-99060000D02*
X191770000Y-98425000D01*
X159385000Y-99060000D02*
X155575000Y-99060000D01*
X148590000Y-99060000D02*
X147955000Y-99060000D01*
X192405000Y-101615000D02*
X192405000Y-99060000D01*
X140970000Y-99060000D02*
X148590000Y-99060000D01*
X187682500Y-103520000D02*
X187325000Y-103162500D01*
X160020000Y-97155000D02*
X171450000Y-97155000D01*
X128220000Y-102870000D02*
X129540000Y-102870000D01*
X183807500Y-103505000D02*
X184150000Y-103847500D01*
X172487500Y-119502500D02*
X173635000Y-120650000D01*
X186640000Y-103847500D02*
X187325000Y-103162500D01*
X191770000Y-120247500D02*
X191770000Y-115215000D01*
X132435000Y-106045000D02*
X132435000Y-103505000D01*
X144780000Y-112395000D02*
X145415000Y-113030000D01*
X159385000Y-99060000D02*
X159385000Y-97790000D01*
X144780000Y-108414949D02*
X144780000Y-112395000D01*
X192405000Y-105425000D02*
X192405000Y-111527500D01*
X192807500Y-111527500D02*
X193040000Y-111760000D01*
X140055000Y-100965000D02*
X140055000Y-99975000D01*
X190500000Y-103520000D02*
X187682500Y-103520000D01*
X133985000Y-100965000D02*
X132435000Y-102515000D01*
X192405000Y-111527500D02*
X192807500Y-111527500D01*
X132435000Y-102515000D02*
X132435000Y-103505000D01*
X190500000Y-103520000D02*
X192405000Y-101615000D01*
X140055000Y-100965000D02*
X133985000Y-100965000D01*
X159385000Y-97790000D02*
X160020000Y-97155000D01*
X192050000Y-114935000D02*
X192050000Y-112907500D01*
X147955000Y-99060000D02*
X146705000Y-100310000D01*
X191770000Y-98425000D02*
X173990000Y-98425000D01*
X155295000Y-103035000D02*
X155295000Y-99340000D01*
X172487500Y-118110000D02*
X172487500Y-119502500D01*
X191770000Y-115215000D02*
X192050000Y-114935000D01*
X192405000Y-111527500D02*
X191537500Y-112395000D01*
X171450000Y-97155000D02*
X173355000Y-99060000D01*
X146705000Y-113330000D02*
X146405000Y-113030000D01*
X146705000Y-100310000D02*
X146705000Y-102235000D01*
X174270000Y-120015000D02*
X173635000Y-120650000D01*
X155295000Y-99340000D02*
X155575000Y-99060000D01*
X140055000Y-99975000D02*
X140970000Y-99060000D01*
X146705000Y-102235000D02*
X146705000Y-106489949D01*
X130185000Y-103515000D02*
X132425000Y-103515000D01*
X180975000Y-103505000D02*
X183807500Y-103505000D01*
X155575000Y-99060000D02*
X148590000Y-99060000D01*
X190500000Y-103520000D02*
X192405000Y-105425000D01*
X184150000Y-103847500D02*
X186640000Y-103847500D01*
X132425000Y-103515000D02*
X132435000Y-103505000D01*
X129540000Y-102870000D02*
X130185000Y-103515000D01*
X173990000Y-98425000D02*
X173355000Y-99060000D01*
X167640000Y-110130000D02*
X171090000Y-110130000D01*
X172445000Y-110130000D02*
X171090000Y-110130000D01*
X171090000Y-110130000D02*
X171450000Y-110490000D01*
X173355000Y-105702500D02*
X173355000Y-109220000D01*
X171450000Y-110490000D02*
X171450000Y-112115000D01*
X173355000Y-109220000D02*
X172445000Y-110130000D01*
X150215000Y-106045000D02*
X148235000Y-106045000D01*
X146705000Y-107575000D02*
X148235000Y-106045000D01*
X146705000Y-109855000D02*
X146705000Y-107575000D01*
X149505000Y-113030000D02*
X149505000Y-110155000D01*
X153390000Y-114020000D02*
X153390000Y-114935000D01*
X153395000Y-109855000D02*
X153670000Y-110130000D01*
X149505000Y-113030000D02*
X152400000Y-113030000D01*
X149505000Y-110155000D02*
X149205000Y-109855000D01*
X152400000Y-113030000D02*
X153390000Y-114020000D01*
X149205000Y-109855000D02*
X153395000Y-109855000D01*
X158750000Y-111760000D02*
X160655000Y-111760000D01*
X158470000Y-112040000D02*
X158750000Y-111760000D01*
X158470000Y-114935000D02*
X158470000Y-112040000D01*
X156490000Y-114935000D02*
X158470000Y-114935000D01*
X164820000Y-106045000D02*
X164820000Y-109850000D01*
X164230000Y-109260000D02*
X165100000Y-110130000D01*
X160020000Y-104660000D02*
X160020000Y-108625000D01*
X160655000Y-109260000D02*
X164230000Y-109260000D01*
X158395000Y-103035000D02*
X160020000Y-104660000D01*
X164820000Y-109850000D02*
X165100000Y-110130000D01*
X160020000Y-108625000D02*
X160655000Y-109260000D01*
X125095000Y-104780000D02*
X126365000Y-106050000D01*
X125095000Y-102870000D02*
X125095000Y-104780000D01*
X100330000Y-106040000D02*
X103217500Y-106040000D01*
X103217500Y-106040000D02*
X103505000Y-105752500D01*
X107315000Y-118110000D02*
X112395000Y-118110000D01*
X103505000Y-108877500D02*
X106680000Y-108877500D01*
X112395000Y-118110000D02*
X113675000Y-116830000D01*
X106680000Y-108877500D02*
X106680000Y-117475000D01*
X113675000Y-116830000D02*
X113675000Y-113660000D01*
X106680000Y-117475000D02*
X107315000Y-118110000D01*
X118735000Y-99732500D02*
X118735000Y-100373901D01*
X118735000Y-100373901D02*
X117493850Y-101615051D01*
X104495000Y-102870000D02*
X104495000Y-104495000D01*
X105752500Y-105752500D02*
X106680000Y-105752500D01*
X104495000Y-102870000D02*
X100960000Y-102870000D01*
X100960000Y-102870000D02*
X100330000Y-103500000D01*
X104495000Y-104495000D02*
X105752500Y-105752500D01*
X153315000Y-103785000D02*
X153315000Y-106045000D01*
X149205000Y-102235000D02*
X151765000Y-102235000D01*
X155295000Y-106045000D02*
X153315000Y-106045000D01*
X151765000Y-102235000D02*
X153315000Y-103785000D01*
X161570000Y-115925000D02*
X161570000Y-114935000D01*
X160655000Y-116840000D02*
X161570000Y-115925000D01*
X149205000Y-116840000D02*
X160655000Y-116840000D01*
X161570000Y-114935000D02*
X163550000Y-114935000D01*
X113675000Y-111120000D02*
X113675000Y-108580000D01*
X116205000Y-108865000D02*
X113960000Y-108865000D01*
X113960000Y-108865000D02*
X113675000Y-108580000D01*
X110065000Y-111530000D02*
X110490000Y-111105000D01*
X110065000Y-113665000D02*
X110065000Y-111530000D01*
X110505000Y-111120000D02*
X110490000Y-111105000D01*
X113675000Y-111120000D02*
X110505000Y-111120000D01*
X113960000Y-103785000D02*
X113675000Y-103500000D01*
X117195000Y-103785000D02*
X116205000Y-103785000D01*
X120020000Y-100960000D02*
X117195000Y-103785000D01*
X121295000Y-100960000D02*
X120020000Y-100960000D01*
X116205000Y-103785000D02*
X113960000Y-103785000D01*
X170412500Y-118110000D02*
X170412500Y-120527500D01*
X170180000Y-118110000D02*
X168910000Y-119380000D01*
X131445000Y-125305000D02*
X131870000Y-125730000D01*
X139065000Y-127635000D02*
X171450000Y-127635000D01*
X172085000Y-122200000D02*
X170535000Y-120650000D01*
X171450000Y-127635000D02*
X172085000Y-127000000D01*
X172085000Y-127000000D02*
X172085000Y-124460000D01*
X170412500Y-120527500D02*
X170535000Y-120650000D01*
X131445000Y-123190000D02*
X131445000Y-125305000D01*
X172085000Y-124460000D02*
X172085000Y-122200000D01*
X170412500Y-118110000D02*
X170180000Y-118110000D01*
X179705000Y-113015000D02*
X178435000Y-111745000D01*
X182880000Y-120650000D02*
X182880000Y-119170000D01*
X180975000Y-122555000D02*
X182880000Y-120650000D01*
X187325000Y-100037500D02*
X181902500Y-100037500D01*
X179070000Y-100965000D02*
X180975000Y-100965000D01*
X133350000Y-99695000D02*
X133350000Y-97155000D01*
X182880000Y-119170000D02*
X182880000Y-113030000D01*
X179662500Y-122152500D02*
X180065000Y-122555000D01*
X134050000Y-96455000D02*
X180910000Y-96455000D01*
X181902500Y-100037500D02*
X180975000Y-100965000D01*
X187325000Y-100037500D02*
X189557500Y-100037500D01*
X133350000Y-97155000D02*
X134050000Y-96455000D01*
X178435000Y-111745000D02*
X178435000Y-101600000D01*
X180065000Y-122555000D02*
X180975000Y-122555000D01*
X177800000Y-122152500D02*
X179662500Y-122152500D01*
X189557500Y-100037500D02*
X190500000Y-100980000D01*
X178435000Y-101600000D02*
X179070000Y-100965000D01*
X184329502Y-123825000D02*
X184505000Y-123825000D01*
X179705000Y-118095000D02*
X181902500Y-115897500D01*
X178202500Y-123825000D02*
X177800000Y-124227500D01*
X181902500Y-106972500D02*
X180975000Y-106045000D01*
X180065000Y-123825000D02*
X178202500Y-123825000D01*
X189587500Y-106972500D02*
X190500000Y-106060000D01*
X184150000Y-106972500D02*
X181902500Y-106972500D01*
X181902500Y-115897500D02*
X181902500Y-106972500D01*
X175260000Y-123422500D02*
X176995000Y-123422500D01*
X176995000Y-123422500D02*
X177800000Y-124227500D01*
X184150000Y-106972500D02*
X189587500Y-106972500D01*
X184505000Y-123825000D02*
X185140000Y-123190000D01*
X126365000Y-127000000D02*
X127000000Y-127635000D01*
X175260000Y-125497500D02*
X179662500Y-125497500D01*
X174625000Y-127635000D02*
X173990000Y-127635000D01*
X175260000Y-127000000D02*
X174625000Y-127635000D01*
X137795000Y-123205000D02*
X137795000Y-125305000D01*
X137160000Y-127635000D02*
X137370000Y-127425000D01*
X175260000Y-125497500D02*
X175260000Y-127000000D01*
X179662500Y-125497500D02*
X180065000Y-125095000D01*
X140985000Y-123205000D02*
X142240000Y-124460000D01*
X126365000Y-123205000D02*
X126365000Y-127000000D01*
X182455000Y-125095000D02*
X182880000Y-124670000D01*
X180065000Y-125095000D02*
X182455000Y-125095000D01*
X142875000Y-126365000D02*
X142240000Y-125730000D01*
X169545000Y-126365000D02*
X142875000Y-126365000D01*
X142240000Y-125730000D02*
X142240000Y-124460000D01*
X127000000Y-127635000D02*
X137160000Y-127635000D01*
X137795000Y-125305000D02*
X137370000Y-125730000D01*
X137795000Y-123205000D02*
X140985000Y-123205000D01*
X137370000Y-127425000D02*
X137370000Y-125730000D01*
X118735000Y-97657500D02*
X120532500Y-97657500D01*
X120532500Y-97657500D02*
X121295000Y-98420000D01*
X167625000Y-118125000D02*
X168910000Y-116840000D01*
X191645000Y-125565000D02*
X191645000Y-122447500D01*
X168910000Y-116840000D02*
X175850000Y-116840000D01*
X175850000Y-116840000D02*
X179660000Y-120650000D01*
X190500000Y-123592500D02*
X191770000Y-122322500D01*
X190500000Y-123825000D02*
X190500000Y-123592500D01*
X190902500Y-123190000D02*
X191770000Y-122322500D01*
X188240000Y-123190000D02*
X190902500Y-123190000D01*
X191645000Y-122447500D02*
X191770000Y-122322500D01*
X179660000Y-120650000D02*
X180975000Y-120650000D01*
X137795000Y-118125000D02*
X167625000Y-118125000D01*
X185420000Y-127635000D02*
X176530000Y-127635000D01*
X186145000Y-126910000D02*
X185420000Y-127635000D01*
X186145000Y-125565000D02*
X186145000Y-126910000D01*
X188950000Y-112907500D02*
X189462500Y-112395000D01*
X186690000Y-125020000D02*
X186690000Y-115570000D01*
X189462500Y-112395000D02*
X187960000Y-112395000D01*
X186145000Y-125565000D02*
X186690000Y-125020000D01*
X187325000Y-114935000D02*
X188950000Y-114935000D01*
X186690000Y-115570000D02*
X187325000Y-114935000D01*
X188950000Y-114935000D02*
X188950000Y-112907500D01*
X106680000Y-99695000D02*
X104565000Y-99695000D01*
X108585000Y-105899949D02*
X108585000Y-103860000D01*
X102155000Y-108175051D02*
X103015051Y-107315000D01*
X107595000Y-102870000D02*
X107595000Y-100610000D01*
X107595000Y-100610000D02*
X106680000Y-99695000D01*
X102155000Y-111255000D02*
X102155000Y-108175051D01*
X107169949Y-107315000D02*
X108585000Y-105899949D01*
X103015051Y-107315000D02*
X107169949Y-107315000D01*
X104565000Y-113665000D02*
X102155000Y-111255000D01*
X108585000Y-103860000D02*
X107595000Y-102870000D01*
X153035000Y-120015000D02*
X153035000Y-122555000D01*
X153035000Y-122555000D02*
X154940000Y-124460000D01*
X164465000Y-124460000D02*
X165735000Y-123190000D01*
X165735000Y-123190000D02*
X165735000Y-120015000D01*
X159385000Y-124460000D02*
X164465000Y-124460000D01*
X126370000Y-108595000D02*
X126365000Y-108590000D01*
X130185000Y-108595000D02*
X126370000Y-108595000D01*
X161925000Y-99060000D02*
X161925000Y-103505000D01*
X161925000Y-103505000D02*
X166370000Y-103505000D01*
X166370000Y-103505000D02*
X167920000Y-105055000D01*
X167920000Y-105055000D02*
X167920000Y-106045000D01*
X179705000Y-115555000D02*
X171790000Y-115555000D01*
X171790000Y-115555000D02*
X171450000Y-115215000D01*
X121245000Y-120650000D02*
X121260000Y-120665000D01*
X121260000Y-120665000D02*
X126365000Y-120665000D01*
X118745000Y-123150000D02*
X121245000Y-120650000D01*
X136495000Y-112445000D02*
X136495000Y-119365000D01*
X136495000Y-119365000D02*
X137795000Y-120665000D01*
X137805000Y-111135000D02*
X136495000Y-112445000D01*
X129385001Y-111934999D02*
X129385001Y-119860001D01*
X130185000Y-111135000D02*
X129385001Y-111934999D01*
X129385001Y-119860001D02*
X130175000Y-120650000D01*
X130175000Y-120650000D02*
X131445000Y-120650000D01*
X158095000Y-106045000D02*
X158395000Y-106045000D01*
X154940000Y-109200000D02*
X158095000Y-106045000D01*
X154940000Y-111400000D02*
X154940000Y-109200000D01*
X166370000Y-114655000D02*
X166650000Y-114935000D01*
X166370000Y-111400000D02*
X166370000Y-114655000D01*
X145135000Y-106045000D02*
X143155000Y-106045000D01*
X143155000Y-100965000D02*
X143155000Y-103505000D01*
X143155000Y-106045000D02*
X143155000Y-103505000D01*
X135545000Y-106055000D02*
X135535000Y-106045000D01*
X140045000Y-106055000D02*
X140055000Y-106045000D01*
X137805000Y-106055000D02*
X135545000Y-106055000D01*
X137805000Y-106055000D02*
X140045000Y-106055000D01*
X137805000Y-103515000D02*
X135545000Y-103515000D01*
X140045000Y-103515000D02*
X140055000Y-103505000D01*
X135545000Y-103515000D02*
X135535000Y-103505000D01*
X137805000Y-103515000D02*
X140045000Y-103515000D01*
X121295000Y-106040000D02*
X123982500Y-103352500D01*
X128915000Y-106055000D02*
X130185000Y-106055000D01*
X123982500Y-103352500D02*
X123982500Y-101930051D01*
X126207500Y-103347500D02*
X128915000Y-106055000D01*
X120045000Y-109870000D02*
X120045000Y-107290000D01*
X121295000Y-111120000D02*
X120045000Y-109870000D01*
X124392551Y-101520000D02*
X125797449Y-101520000D01*
X120045000Y-107290000D02*
X121295000Y-106040000D01*
X123982500Y-101930051D02*
X124392551Y-101520000D01*
X125797449Y-101520000D02*
X126207500Y-101930051D01*
X126207500Y-101930051D02*
X126207500Y-103347500D01*
X128217767Y-109890000D02*
X128262767Y-109845000D01*
X122605000Y-109890000D02*
X128217767Y-109890000D01*
X128262767Y-109845000D02*
X136555000Y-109845000D01*
X121295000Y-108580000D02*
X122605000Y-109890000D01*
X136555000Y-109845000D02*
X137805000Y-108595000D01*
X112390000Y-104755000D02*
X113675000Y-106040000D01*
X110490000Y-104755000D02*
X112390000Y-104755000D01*
X126365000Y-113665000D02*
X121300000Y-113665000D01*
X118110000Y-111760000D02*
X118110000Y-106045000D01*
X113950000Y-105765000D02*
X113675000Y-106040000D01*
X120010000Y-113660000D02*
X118110000Y-111760000D01*
X117830000Y-105765000D02*
X118110000Y-106045000D01*
X116205000Y-105765000D02*
X113950000Y-105765000D01*
X121295000Y-113660000D02*
X120010000Y-113660000D01*
X116205000Y-105765000D02*
X117830000Y-105765000D01*
X121300000Y-113665000D02*
X121295000Y-113660000D01*
M02*
