<?xml version="1.0" standalone="no"?>
 <!DOCTYPE svg PUBLIC "-//W3C//DTD SVG 1.1//EN" 
 "http://www.w3.org/Graphics/SVG/1.1/DTD/svg11.dtd"> 
<svg xmlns="http://www.w3.org/2000/svg" version="1.1" 
    width="4.4577cm" height="3.94208cm" viewBox="0 0 17550 15520 ">
<title>SVG Picture created as hall_sensor_assy_00-brd.svg date 2017/01/28 16:17:39 </title>
  <desc>Picture generated by PCBNEW </desc>
<g style="fill:#000000; fill-opacity:1;stroke:#000000; stroke-opacity:1;
stroke-linecap:round; stroke-linejoin:round; "
 transform="translate(0 0) scale(1 1)">
</g>
<g style="fill:#000000; fill-opacity:0.0; 
stroke:#000000; stroke-width:-0.000393701; stroke-opacity:1; 
stroke-linecap:round; stroke-linejoin:round;">
</g>
<g style="fill:#000000; fill-opacity:0.0; 
stroke:#000000; stroke-width:0; stroke-opacity:1; 
stroke-linecap:round; stroke-linejoin:round;">
</g>
<g style="fill:#000000; fill-opacity:1.0; 
stroke:#000000; stroke-width:0; stroke-opacity:1; 
stroke-linecap:round; stroke-linejoin:round;">
<polyline style="fill-rule:evenodd;"
points="15714,12080
16344,12080
16344,12868
15714,12868
15714,12080
" /> 
<polyline style="fill-rule:evenodd;"
points="15714,13655
16344,13655
16344,14442
15714,14442
15714,13655
" /> 
<polyline style="fill-rule:evenodd;"
points="1714,11080
2344,11080
2344,11868
1714,11868
1714,11080
" /> 
<polyline style="fill-rule:evenodd;"
points="1714,12655
2344,12655
2344,13442
1714,13442
1714,12655
" /> 
<polyline style="fill-rule:evenodd;"
points="11848,5576
11848,4946
12635,4946
12635,5576
11848,5576
" /> 
<polyline style="fill-rule:evenodd;"
points="13423,5576
13423,4946
14210,4946
14210,5576
13423,5576
" /> 
<polyline style="fill-rule:evenodd;"
points="5210,4946
5210,5576
4423,5576
4423,4946
5210,4946
" /> 
<polyline style="fill-rule:evenodd;"
points="3635,4946
3635,5576
2848,5576
2848,4946
3635,4946
" /> 
<polyline style="fill-rule:evenodd;"
points="10210,1946
10210,2576
9423,2576
9423,1946
10210,1946
" /> 
<polyline style="fill-rule:evenodd;"
points="8635,1946
8635,2576
7848,2576
7848,1946
8635,1946
" /> 
<polyline style="fill-rule:evenodd;"
points="9689,11661
9689,10861
10369,10861
10369,11661
9689,11661
" /> 
</g>
<g style="fill:#000000; fill-opacity:1.0; 
stroke:#000000; stroke-width:680; stroke-opacity:1; 
stroke-linecap:round; stroke-linejoin:round;">
</g>
<g style="fill:#000000; fill-opacity:0.0; 
stroke:#000000; stroke-width:680; stroke-opacity:1; 
stroke-linecap:round; stroke-linejoin:round;">
<path d="M11029 11201
L11029 11321
" />
<path d="M12029 11201
L12029 11321
" />
</g>
<g style="fill:#000000; fill-opacity:0.0; 
stroke:#000000; stroke-width:0; stroke-opacity:1; 
stroke-linecap:round; stroke-linejoin:round;">
</g>
<g style="fill:#000000; fill-opacity:1.0; 
stroke:#000000; stroke-width:0; stroke-opacity:1; 
stroke-linecap:round; stroke-linejoin:round;">
<polyline style="fill-rule:evenodd;"
points="4689,11661
4689,10861
5369,10861
5369,11661
4689,11661
" /> 
</g>
<g style="fill:#000000; fill-opacity:1.0; 
stroke:#000000; stroke-width:680; stroke-opacity:1; 
stroke-linecap:round; stroke-linejoin:round;">
</g>
<g style="fill:#000000; fill-opacity:0.0; 
stroke:#000000; stroke-width:680; stroke-opacity:1; 
stroke-linecap:round; stroke-linejoin:round;">
<path d="M6029 11201
L6029 11321
" />
<path d="M7029 11201
L7029 11321
" />
</g>
<g style="fill:#000000; fill-opacity:0.0; 
stroke:#000000; stroke-width:0; stroke-opacity:1; 
stroke-linecap:round; stroke-linejoin:round;">
</g>
<g style="fill:#000000; fill-opacity:1.0; 
stroke:#000000; stroke-width:0; stroke-opacity:1; 
stroke-linecap:round; stroke-linejoin:round;">
<polyline style="fill-rule:evenodd;"
points="10369,3861
10369,4661
9689,4661
9689,3861
10369,3861
" /> 
</g>
<g style="fill:#000000; fill-opacity:1.0; 
stroke:#000000; stroke-width:680; stroke-opacity:1; 
stroke-linecap:round; stroke-linejoin:round;">
</g>
<g style="fill:#000000; fill-opacity:0.0; 
stroke:#000000; stroke-width:680; stroke-opacity:1; 
stroke-linecap:round; stroke-linejoin:round;">
<path d="M9029 4321
L9029 4201
" />
<path d="M8029 4321
L8029 4201
" />
<path d="M7029 4321
L7029 4201
" />
</g>
<g style="fill:#000000; fill-opacity:0.0; 
stroke:#000000; stroke-width:0; stroke-opacity:1; 
stroke-linecap:round; stroke-linejoin:round;">
</g>
<g style="fill:#000000; fill-opacity:1.0; 
stroke:#000000; stroke-width:0; stroke-opacity:1; 
stroke-linecap:round; stroke-linejoin:round;">
<polyline style="fill-rule:evenodd;"
points="10848,9596
10848,8927
11635,8927
11635,9596
10848,9596
" /> 
<polyline style="fill-rule:evenodd;"
points="12423,9596
12423,8927
13210,8927
13210,9596
12423,9596
" /> 
<polyline style="fill-rule:evenodd;"
points="4694,8080
5364,8080
5364,8868
4694,8868
4694,8080
" /> 
<polyline style="fill-rule:evenodd;"
points="4694,9655
5364,9655
5364,10442
4694,10442
4694,9655
" /> 
<polyline style="fill-rule:evenodd;"
points="14694,7080
15364,7080
15364,7868
14694,7868
14694,7080
" /> 
<polyline style="fill-rule:evenodd;"
points="14694,8655
15364,8655
15364,9442
14694,9442
14694,8655
" /> 
<polyline style="fill-rule:evenodd;"
points="2694,7080
3364,7080
3364,7868
2694,7868
2694,7080
" /> 
<polyline style="fill-rule:evenodd;"
points="2694,8655
3364,8655
3364,9442
2694,9442
2694,8655
" /> 
<polyline style="fill-rule:evenodd;"
points="12210,12927
12210,13596
11423,13596
11423,12927
12210,12927
" /> 
<polyline style="fill-rule:evenodd;"
points="10635,12927
10635,13596
9848,13596
9848,12927
10635,12927
" /> 
<polyline style="fill-rule:evenodd;"
points="3848,13596
3848,12927
4635,12927
4635,13596
3848,13596
" /> 
<polyline style="fill-rule:evenodd;"
points="5423,13596
5423,12927
6210,12927
6210,13596
5423,13596
" /> 
<circle cx="14029.5" cy="6261.81" r="297.244" /> 
</g>
<g style="fill:#000000; fill-opacity:1.0; 
stroke:#000000; stroke-width:39.3701; stroke-opacity:1; 
stroke-linecap:round; stroke-linejoin:round;">
</g>
<g style="fill:#000000; fill-opacity:1.0; 
stroke:#000000; stroke-width:0; stroke-opacity:1; 
stroke-linecap:round; stroke-linejoin:round;">
<polyline style="fill-rule:evenodd;"
points="11732,6559
11732,5964
12326,5964
12326,6559
11732,6559
" /> 
<circle cx="13029.5" cy="6261.81" r="297.244" /> 
</g>
<g style="fill:#000000; fill-opacity:1.0; 
stroke:#000000; stroke-width:39.3701; stroke-opacity:1; 
stroke-linecap:round; stroke-linejoin:round;">
</g>
<g style="fill:#000000; fill-opacity:1.0; 
stroke:#000000; stroke-width:0; stroke-opacity:1; 
stroke-linecap:round; stroke-linejoin:round;">
<circle cx="5029.53" cy="6261.81" r="297.244" /> 
</g>
<g style="fill:#000000; fill-opacity:1.0; 
stroke:#000000; stroke-width:39.3701; stroke-opacity:1; 
stroke-linecap:round; stroke-linejoin:round;">
</g>
<g style="fill:#000000; fill-opacity:1.0; 
stroke:#000000; stroke-width:0; stroke-opacity:1; 
stroke-linecap:round; stroke-linejoin:round;">
<polyline style="fill-rule:evenodd;"
points="2732,6559
2732,5964
3326,5964
3326,6559
2732,6559
" /> 
<circle cx="4029.53" cy="6261.81" r="297.244" /> 
</g>
<g style="fill:#000000; fill-opacity:1.0; 
stroke:#000000; stroke-width:39.3701; stroke-opacity:1; 
stroke-linecap:round; stroke-linejoin:round;">
</g>
<g style="fill:#000000; fill-opacity:1.0; 
stroke:#000000; stroke-width:0; stroke-opacity:1; 
stroke-linecap:round; stroke-linejoin:round;">
<circle cx="15029.5" cy="11261.8" r="297.244" /> 
</g>
<g style="fill:#000000; fill-opacity:1.0; 
stroke:#000000; stroke-width:39.3701; stroke-opacity:1; 
stroke-linecap:round; stroke-linejoin:round;">
</g>
<g style="fill:#000000; fill-opacity:1.0; 
stroke:#000000; stroke-width:0; stroke-opacity:1; 
stroke-linecap:round; stroke-linejoin:round;">
<polyline style="fill-rule:evenodd;"
points="15326,13559
14732,13559
14732,12964
15326,12964
15326,13559
" /> 
<circle cx="15029.5" cy="12261.8" r="297.244" /> 
</g>
<g style="fill:#000000; fill-opacity:1.0; 
stroke:#000000; stroke-width:39.3701; stroke-opacity:1; 
stroke-linecap:round; stroke-linejoin:round;">
</g>
<g style="fill:#000000; fill-opacity:1.0; 
stroke:#000000; stroke-width:0; stroke-opacity:1; 
stroke-linecap:round; stroke-linejoin:round;">
<circle cx="3029.53" cy="11261.8" r="297.244" /> 
</g>
<g style="fill:#000000; fill-opacity:1.0; 
stroke:#000000; stroke-width:39.3701; stroke-opacity:1; 
stroke-linecap:round; stroke-linejoin:round;">
</g>
<g style="fill:#000000; fill-opacity:1.0; 
stroke:#000000; stroke-width:0; stroke-opacity:1; 
stroke-linecap:round; stroke-linejoin:round;">
<polyline style="fill-rule:evenodd;"
points="3326,13559
2732,13559
2732,12964
3326,12964
3326,13559
" /> 
<circle cx="3029.53" cy="12261.8" r="297.244" /> 
</g>
<g style="fill:#000000; fill-opacity:1.0; 
stroke:#000000; stroke-width:39.3701; stroke-opacity:1; 
stroke-linecap:round; stroke-linejoin:round;">
</g>
<g style="fill:#000000; fill-opacity:1.0; 
stroke:#000000; stroke-width:0; stroke-opacity:1; 
stroke-linecap:round; stroke-linejoin:round;">
<polyline style="fill-rule:evenodd;"
points="6557,6576
6557,5946
7501,5946
7501,6576
6557,6576
" /> 
</g>
<g style="fill:#000000; fill-opacity:1.0; 
stroke:#000000; stroke-width:629.921; stroke-opacity:1; 
stroke-linecap:round; stroke-linejoin:round;">
</g>
<g style="fill:#000000; fill-opacity:0.0; 
stroke:#000000; stroke-width:629.921; stroke-opacity:1; 
stroke-linecap:round; stroke-linejoin:round;">
<path d="M9872 9261
L10187 9261
" />
<path d="M6872 7261
L7187 7261
" />
<path d="M9872 8261
L10187 8261
" />
<path d="M6872 8261
L7187 8261
" />
<path d="M9872 7261
L10187 7261
" />
<path d="M6872 9261
L7187 9261
" />
<path d="M9872 6261
L10187 6261
" />
</g>
<g style="fill:#000000; fill-opacity:0.0; 
stroke:#000000; stroke-width:196.85; stroke-opacity:1; 
stroke-linecap:round; stroke-linejoin:round;">
<path d="M16029 12474
L15742 12474
" />
<path d="M15742 12474
L15529 12261
" />
<path d="M15529 12261
L15029 12261
" />
<path d="M15029 12261
L15529 12261
" />
<path d="M16029 9761
L15316 9049
" />
<path d="M16029 11761
L16029 9761
" />
<path d="M15529 12261
L16029 11761
" />
<path d="M15316 9049
L15029 9049
" />
<path d="M16029 14049
L16742 14049
" />
<path d="M8242 1049
L8242 2261
" />
<path d="M8529 761
L8242 1049
" />
<path d="M16529 761
L8529 761
" />
<path d="M17029 1261
L16529 761
" />
<path d="M17029 13761
L17029 1261
" />
<path d="M16742 14049
L17029 13761
" />
<path d="M2029 13049
L1316 13049
" />
<path d="M1029 8761
L1529 8261
" />
<path d="M1029 12761
L1029 8761
" />
<path d="M1316 13049
L1029 12761
" />
<path d="M4029 9261
L4029 8261
" />
<path d="M1529 4261
L7029 4261
" />
<path d="M1529 8261
L1529 4261
" />
<path d="M4029 8261
L1529 8261
" />
<path d="M7029 4261
L7029 2261
" />
<path d="M7029 2261
L8242 2261
" />
<path d="M7029 9261
L8029 9261
" />
<path d="M8029 9261
L10029 11261
" />
<path d="M5029 11261
L4029 10261
" />
<path d="M4029 9261
L7029 9261
" />
<path d="M4029 10261
L4029 9261
" />
<path d="M5816 13261
L5816 12549
" />
<path d="M5029 11761
L5029 11261
" />
<path d="M5816 12549
L5029 11761
" />
<path d="M3029 9049
L2742 9049
" />
<path d="M2742 9049
L2029 9761
" />
<path d="M2029 9761
L2029 11474
" />
<path d="M3029 12261
L2816 12261
" />
<path d="M2816 12261
L2029 11474
" />
<path d="M10029 7261
L11529 7261
" />
<path d="M12029 6761
L12029 6261
" />
<path d="M11529 7261
L12029 6761
" />
<path d="M12029 6261
L12029 5474
" />
<path d="M12029 5474
L12242 5261
" />
<path d="M13029 6261
L12029 6261
" />
<path d="M9029 4261
L9029 6761
" />
<path d="M9529 7261
L10029 7261
" />
<path d="M9029 6761
L9529 7261
" />
<path d="M15029 7474
L14242 7474
" />
<path d="M14242 7474
L14029 7261
" />
<path d="M10029 8261
L13029 8261
" />
<path d="M14029 7261
L14029 6261
" />
<path d="M13029 8261
L14029 7261
" />
<path d="M14029 6261
L14029 5474
" />
<path d="M14029 5474
L13816 5261
" />
<path d="M8029 4261
L8029 5261
" />
<path d="M8029 5261
L7029 6261
" />
<path d="M4816 5261
L4816 6049
" />
<path d="M4816 6049
L5029 6261
" />
<path d="M4029 6261
L5029 6261
" />
<path d="M5029 6261
L7029 6261
" />
<path d="M7029 7261
L3242 7261
" />
<path d="M3242 7261
L3029 7474
" />
<path d="M3029 7474
L3029 6261
" />
<path d="M3029 6261
L3029 5474
" />
<path d="M3029 5474
L3242 5261
" />
<path d="M7029 11261
L8029 11261
" />
<path d="M9029 12261
L12029 12261
" />
<path d="M8029 11261
L9029 12261
" />
<path d="M11816 13261
L11816 12474
" />
<path d="M12029 12261
L12029 11261
" />
<path d="M11816 12474
L12029 12261
" />
<path d="M12029 11261
L13029 11261
" />
<path d="M15029 4261
L10029 4261
" />
<path d="M15529 4761
L15029 4261
" />
<path d="M15529 5761
L15529 4761
" />
<path d="M16029 6261
L15529 5761
" />
<path d="M16029 8261
L16029 6261
" />
<path d="M14029 8261
L16029 8261
" />
<path d="M14029 10261
L14029 8261
" />
<path d="M13029 11261
L14029 10261
" />
<path d="M10029 4261
L10029 2474
" />
<path d="M10029 2474
L9816 2261
" />
<path d="M10029 6261
L10029 4261
" />
<path d="M11029 11261
L11029 10761
" />
<path d="M12816 9974
L12816 9261
" />
<path d="M12529 10261
L12816 9974
" />
<path d="M11529 10261
L12529 10261
" />
<path d="M11029 10761
L11529 10261
" />
<path d="M6029 11261
L6029 10761
" />
<path d="M6029 10761
L5316 10049
" />
<path d="M5316 10049
L5029 10049
" />
<path d="M11242 9261
L10029 9261
" />
<path d="M7029 8261
L5242 8261
" />
<path d="M5242 8261
L5029 8474
" />
<path d="M11029 14261
L13529 14261
" />
<path d="M14529 11261
L15029 11261
" />
<path d="M14029 11761
L14529 11261
" />
<path d="M14029 13761
L14029 11761
" />
<path d="M13529 14261
L14029 13761
" />
<path d="M3029 11261
L4029 11261
" />
<path d="M5029 14261
L11029 14261
" />
<path d="M5029 12761
L5029 14261
" />
<path d="M4529 12261
L5029 12761
" />
<path d="M4029 12261
L4529 12261
" />
<path d="M4029 11261
L4029 12261
" />
<path d="M11029 14261
L10242 13474
" />
<path d="M10242 13474
L10242 13261
" />
<path d="M4242 13261
L4242 14474
" />
<path d="M15029 14261
L15029 13261
" />
<path d="M14529 14761
L15029 14261
" />
<path d="M4529 14761
L14529 14761
" />
<path d="M4242 14474
L4529 14761
" />
<path d="M3029 13261
L4242 13261
" />
</g>
<g style="fill:#000000; fill-opacity:1.0; 
stroke:#000000; stroke-width:100; stroke-opacity:1; 
stroke-linecap:round; stroke-linejoin:round;">
<polyline style="fill-rule:evenodd;"
points="17250,14982
14801,14982
15275,14508
15275,14508
15351,14395
15362,14341
15377,14261
15377,14261
15377,14161
15464,14161
15464,14492
15502,14584
15572,14654
15664,14692
15917,14692
15979,14630
15979,14099
16079,14099
16079,14630
16142,14692
16394,14692
16486,14654
16556,14584
16594,14492
16594,14161
16531,14099
16079,14099
15979,14099
15527,14099
15464,14161
15377,14161
15377,13804
15419,13796
15464,13767
15464,13936
15527,13999
15979,13999
15979,13468
16079,13468
16079,13999
16531,13999
16594,13936
16594,13605
16556,13513
16486,13443
16394,13405
16142,13405
16079,13468
15979,13468
15917,13405
15664,13405
15581,13439
15581,13079
15615,13102
15714,13123
16344,13123
16437,13105
16522,13050
16579,12967
16599,12868
16599,12080
16581,11988
16527,11902
16443,11845
16364,11829
16377,11761
16377,11761
16377,9761
16377,9761
16351,9628
16289,9535
16275,9515
16275,9515
15619,8858
15619,8655
15610,8610
16029,8610
16162,8583
16275,8508
16351,8395
16377,8261
16377,6261
16377,6261
16351,6128
16339,6110
16275,6015
16275,6015
15877,5617
15877,4761
15877,4761
15851,4628
15839,4610
15775,4515
15775,4515
15275,4015
15197,3963
15162,3939
15140,3935
15029,3913
15029,3913
10624,3913
10624,3861
10606,3769
10552,3684
10468,3626
10377,3608
10377,2766
10388,2759
10445,2675
10465,2576
10465,1946
10448,1854
10393,1769
10382,1761
14042,1761
14117,2139
14331,2459
14651,2673
15029,2748
15407,2673
15727,2459
15941,2139
16016,1761
15941,1384
15727,1064
15407,850
15029,775
14651,850
14331,1064
14117,1384
14042,1761
10382,1761
10309,1712
10210,1691
9423,1691
9330,1709
9245,1764
9188,1847
9168,1946
9168,2576
9185,2669
9240,2754
9324,2811
9423,2831
9681,2831
9681,3608
9596,3624
9511,3679
9454,3762
9451,3778
9446,3771
9255,3643
9029,3599
8803,3643
8612,3771
8529,3895
8446,3771
8255,3643
8029,3599
7803,3643
7612,3771
7530,3893
7384,3730
7177,3630
7170,3628
7079,3676
7079,4211
7087,4211
7087,4311
7079,4311
7079,4846
7170,4894
7177,4893
7384,4793
7530,4629
7612,4751
7681,4797
7681,5117
7106,5691
6557,5691
6464,5709
6379,5764
6322,5847
6308,5913
5454,5913
5339,5798
5332,5795
5388,5759
5445,5675
5465,5576
5465,4946
5448,4854
5393,4769
5309,4712
5210,4691
4423,4691
4330,4709
4245,4764
4188,4847
4168,4946
4168,5576
4185,5669
4240,5754
4249,5760
4138,5714
3921,5714
3814,5758
3870,5675
3890,5576
3890,4946
3873,4854
3818,4769
3734,4712
3635,4691
2848,4691
2755,4709
2670,4764
2613,4847
2593,4946
2593,5576
2610,5669
2647,5725
2639,5727
2554,5781
2497,5865
2477,5964
2477,6559
2494,6651
2549,6736
2633,6793
2681,6803
2681,6828
2602,6843
2517,6897
2460,6981
2439,7080
2439,7868
2457,7960
2512,8045
2595,8102
2694,8123
3364,8123
3456,8105
3541,8050
3598,7967
3619,7868
3619,7610
6424,7610
6458,7661
6608,7761
6458,7862
6424,7913
5553,7913
5546,7902
5463,7845
5364,7825
4694,7825
4602,7843
4517,7897
4460,7981
4439,8080
4439,8868
4457,8960
4512,9045
4595,9102
4694,9123
5364,9123
5456,9105
5541,9050
5598,8967
5619,8868
5619,8610
6424,8610
6458,8661
6607,8760
6437,8897
6330,9091
6324,9124
6372,9211
6979,9211
6979,9203
7079,9203
7079,9211
7686,9211
7735,9124
7728,9091
7621,8897
7451,8760
7600,8661
7723,8478
7766,8261
7723,8045
7600,7862
7450,7761
7600,7661
7723,7478
7766,7261
7723,7045
7600,6862
7543,6823
7594,6814
7679,6759
7736,6675
7756,6576
7756,6027
8275,5508
8275,5508
8351,5395
8377,5261
8377,4797
8446,4751
8529,4627
8612,4751
8681,4797
8681,6761
8681,6761
8701,6862
8707,6895
8765,6981
8783,7008
9283,7508
9283,7508
9396,7583
9408,7586
9458,7661
9608,7761
9458,7862
9335,8045
9292,8261
9335,8478
9458,8661
9608,8761
9458,8862
9335,9045
9292,9261
9335,9478
9458,9661
9641,9783
9857,9826
10201,9826
10417,9783
10600,9661
10604,9655
10610,9689
10665,9774
10749,9831
10848,9851
11635,9851
11728,9833
11813,9779
11870,9695
11890,9596
11890,8927
11873,8834
11818,8749
11734,8692
11635,8672
10848,8672
10755,8689
10670,8744
10613,8827
10605,8869
10600,8862
10450,8761
10600,8661
10634,8610
13029,8610
13029,8610
13140,8588
13162,8583
13275,8508
14036,7747
14108,7796
14242,7822
14439,7822
14439,7868
14448,7913
14029,7913
13896,7939
13783,8015
13707,8128
13681,8261
13681,10117
12885,10913
12541,10913
12446,10771
12255,10643
12085,10610
12529,10610
12529,10610
12640,10588
12662,10583
12775,10508
13063,10220
13063,10220
13138,10107
13143,10083
13165,9974
13165,9974
13165,9851
13210,9851
13303,9833
13388,9779
13445,9695
13465,9596
13465,8927
13448,8834
13393,8749
13309,8692
13210,8672
12423,8672
12330,8689
12245,8744
12188,8827
12168,8927
12168,9596
12185,9689
12240,9774
12324,9831
12423,9851
12447,9851
12385,9913
11529,9913
11529,9913
11396,9939
11283,10015
11283,10015
10783,10515
10707,10628
10707,10628
10689,10720
10612,10771
10606,10780
10581,10720
10511,10649
10419,10611
10142,10611
10079,10674
10079,11211
10087,11211
10087,11311
10079,11311
10079,11849
10142,11911
10419,11911
10511,11873
10581,11803
10606,11743
10612,11751
10803,11879
10973,11913
9173,11913
8634,11374
9439,11374
9439,11711
9477,11803
9547,11873
9639,11911
9917,11911
9979,11849
9979,11311
9502,11311
9439,11374
8634,11374
8275,11015
8197,10963
8162,10939
8140,10935
8029,10913
8029,10913
7541,10913
7473,10812
9439,10812
9439,11149
9502,11211
9979,11211
9979,10674
9917,10611
9639,10611
9547,10649
9477,10720
9439,10812
7473,10812
7446,10771
7255,10643
7029,10599
6803,10643
6612,10771
6529,10895
6446,10771
6369,10720
6351,10628
6289,10535
6275,10515
6275,10515
5619,9858
5619,9655
5601,9562
5546,9477
5463,9420
5364,9400
4694,9400
4602,9418
4517,9472
4460,9556
4439,9655
4439,10442
4457,10535
4512,10620
4552,10648
4547,10649
4477,10720
4439,10812
4439,11149
4502,11211
4979,11211
4979,11203
5079,11203
5079,11211
5087,11211
5087,11311
5079,11311
5079,11849
5142,11911
5419,11911
5511,11873
5581,11803
5606,11743
5612,11751
5803,11879
6029,11924
6255,11879
6446,11751
6529,11627
6612,11751
6803,11879
7029,11924
7255,11879
7446,11751
7541,11610
7885,11610
8783,12508
8783,12508
8896,12583
9029,12610
11468,12610
11468,12672
11423,12672
11330,12689
11245,12744
11188,12827
11168,12927
11168,13596
11185,13689
11240,13774
11324,13831
11423,13851
12210,13851
12303,13833
12388,13779
12445,13695
12465,13596
12465,12927
12448,12834
12393,12749
12309,12692
12210,12672
12165,12672
12165,12618
12275,12508
12275,12508
12351,12395
12377,12261
12377,11797
12446,11751
12541,11610
13029,11610
13029,11610
13140,11588
13162,11583
13275,11508
14275,10508
14275,10508
14351,10395
14377,10261
14377,8610
14449,8610
14439,8655
14439,9442
14457,9535
14512,9620
14595,9677
14694,9697
15364,9697
15455,9680
15681,9906
15681,11617
15420,11878
15339,11798
15252,11761
15339,11726
15493,11572
15576,11371
15576,11153
15493,10952
15339,10798
15138,10714
14921,10714
14719,10797
14603,10913
14529,10913
14529,10913
14396,10939
14283,11015
14283,11015
13783,11515
13707,11628
13707,11628
13681,11761
13681,11761
13681,13617
13385,13913
11173,13913
10885,13624
10890,13596
10890,12927
10873,12834
10818,12749
10734,12692
10635,12672
9848,12672
9755,12689
9670,12744
9613,12827
9593,12927
9593,13596
9610,13689
9665,13774
9749,13831
9848,13851
10126,13851
10188,13913
5377,13913
5377,13846
5704,13846
5766,13783
5766,13311
5866,13311
5866,13783
5929,13846
6260,13846
6352,13808
6422,13738
6460,13646
6460,13374
6398,13311
5866,13311
5766,13311
5759,13311
5759,13211
5766,13211
5766,12739
5866,12739
5866,13211
6398,13211
6460,13149
6460,12877
6422,12785
6352,12715
6260,12677
5929,12677
5866,12739
5766,12739
5704,12677
5373,12677
5362,12681
5351,12628
5339,12610
5275,12515
5275,12515
4775,12015
4725,11981
4662,11939
4640,11935
4529,11913
4529,11913
4377,11913
4377,11374
4439,11374
4439,11711
4477,11803
4547,11873
4639,11911
4917,11911
4979,11849
4979,11311
4502,11311
4439,11374
4377,11374
4377,11261
4351,11128
4275,11015
4162,10939
4029,10913
3454,10913
3339,10798
3138,10714
2921,10714
2719,10797
2565,10951
2562,10958
2527,10902
2443,10845
2377,10832
2377,9906
2604,9679
2694,9697
3364,9697
3456,9680
3541,9625
3598,9542
3619,9442
3619,9399
6324,9399
6330,9431
6437,9625
6609,9764
6822,9826
6979,9826
6979,9311
7079,9311
7079,9826
7237,9826
7449,9764
7621,9625
7728,9431
7735,9399
7686,9311
7079,9311
6979,9311
6372,9311
6324,9399
3619,9399
3619,8655
3601,8562
3546,8477
3463,8420
3364,8400
2694,8400
2602,8418
2517,8472
2460,8556
2439,8655
2439,8858
1783,9515
1707,9628
1707,9628
1681,9761
1681,9761
1681,10832
1621,10843
1536,10897
1479,10981
1459,11080
1459,11868
1477,11960
1531,12045
1615,12102
1714,12123
2185,12123
2517,12454
2531,12488
2486,12443
2394,12405
2142,12405
2079,12468
2079,12999
2087,12999
2087,13099
2079,13099
2079,13630
2142,13692
2394,13692
2486,13654
2493,13647
2494,13651
2549,13736
2633,13793
2732,13813
3326,13813
3419,13796
3504,13741
3561,13658
3571,13610
3596,13610
3610,13689
3665,13774
3749,13831
3848,13851
3893,13851
3893,14474
3893,14474
3915,14583
3920,14607
3977,14692
3995,14720
4257,14982
309,14982
309,13161
1464,13161
1464,13492
1502,13584
1572,13654
1664,13692
1917,13692
1979,13630
1979,13099
1527,13099
1464,13161
309,13161
309,12605
1464,12605
1464,12936
1527,12999
1979,12999
1979,12468
1917,12405
1664,12405
1572,12443
1502,12513
1464,12605
309,12605
309,4404
6444,4404
6520,4621
6674,4793
6881,4893
6888,4894
6979,4846
6979,4311
6501,4311
6444,4404
309,4404
309,4119
6444,4119
6501,4211
6979,4211
6979,3676
6888,3628
6881,3630
6674,3730
6520,3901
6444,4119
309,4119
309,1761
1542,1761
1617,2139
1831,2459
2151,2673
2529,2748
2907,2673
3227,2459
3284,2374
7598,2374
7598,2626
7636,2718
7706,2788
7798,2826
8129,2826
8192,2764
8192,2311
8292,2311
8292,2764
8354,2826
8685,2826
8777,2788
8847,2718
8885,2626
8885,2374
8823,2311
8292,2311
8192,2311
7660,2311
7598,2374
3284,2374
3441,2139
3489,1897
7598,1897
7598,2149
7660,2211
8192,2211
8192,1759
8292,1759
8292,2211
8823,2211
8885,2149
8885,1897
8847,1805
8777,1734
8685,1696
8354,1696
8292,1759
8192,1759
8129,1696
7798,1696
7706,1734
7636,1805
7598,1897
3489,1897
3516,1761
3441,1384
3227,1064
2907,850
2529,775
2151,850
1831,1064
1617,1384
1542,1761
309,1761
309,541
17250,541
17250,14982
" /> 
</g>
<g style="fill:#FFFFFF; fill-opacity:1.0; 
stroke:#FFFFFF; stroke-width:100; stroke-opacity:1; 
stroke-linecap:round; stroke-linejoin:round;">
</g>
<g style="fill:#FFFFFF; fill-opacity:1.0; 
stroke:#FFFFFF; stroke-width:0; stroke-opacity:1; 
stroke-linecap:round; stroke-linejoin:round;">
<circle cx="10029.5" cy="11261.8" r="200" /> 
</g>
<g style="fill:#FFFFFF; fill-opacity:1.0; 
stroke:#FFFFFF; stroke-width:39.3701; stroke-opacity:1; 
stroke-linecap:round; stroke-linejoin:round;">
</g>
<g style="fill:#FFFFFF; fill-opacity:1.0; 
stroke:#FFFFFF; stroke-width:0; stroke-opacity:1; 
stroke-linecap:round; stroke-linejoin:round;">
<circle cx="11029.5" cy="11261.8" r="200" /> 
</g>
<g style="fill:#FFFFFF; fill-opacity:1.0; 
stroke:#FFFFFF; stroke-width:39.3701; stroke-opacity:1; 
stroke-linecap:round; stroke-linejoin:round;">
</g>
<g style="fill:#FFFFFF; fill-opacity:1.0; 
stroke:#FFFFFF; stroke-width:0; stroke-opacity:1; 
stroke-linecap:round; stroke-linejoin:round;">
<circle cx="12029.5" cy="11261.8" r="200" /> 
</g>
<g style="fill:#FFFFFF; fill-opacity:1.0; 
stroke:#FFFFFF; stroke-width:39.3701; stroke-opacity:1; 
stroke-linecap:round; stroke-linejoin:round;">
</g>
<g style="fill:#FFFFFF; fill-opacity:1.0; 
stroke:#FFFFFF; stroke-width:0; stroke-opacity:1; 
stroke-linecap:round; stroke-linejoin:round;">
<circle cx="5029.53" cy="11261.8" r="200" /> 
</g>
<g style="fill:#FFFFFF; fill-opacity:1.0; 
stroke:#FFFFFF; stroke-width:39.3701; stroke-opacity:1; 
stroke-linecap:round; stroke-linejoin:round;">
</g>
<g style="fill:#FFFFFF; fill-opacity:1.0; 
stroke:#FFFFFF; stroke-width:0; stroke-opacity:1; 
stroke-linecap:round; stroke-linejoin:round;">
<circle cx="6029.53" cy="11261.8" r="200" /> 
</g>
<g style="fill:#FFFFFF; fill-opacity:1.0; 
stroke:#FFFFFF; stroke-width:39.3701; stroke-opacity:1; 
stroke-linecap:round; stroke-linejoin:round;">
</g>
<g style="fill:#FFFFFF; fill-opacity:1.0; 
stroke:#FFFFFF; stroke-width:0; stroke-opacity:1; 
stroke-linecap:round; stroke-linejoin:round;">
<circle cx="7029.53" cy="11261.8" r="200" /> 
</g>
<g style="fill:#FFFFFF; fill-opacity:1.0; 
stroke:#FFFFFF; stroke-width:39.3701; stroke-opacity:1; 
stroke-linecap:round; stroke-linejoin:round;">
</g>
<g style="fill:#FFFFFF; fill-opacity:1.0; 
stroke:#FFFFFF; stroke-width:0; stroke-opacity:1; 
stroke-linecap:round; stroke-linejoin:round;">
<circle cx="10029.5" cy="4261.81" r="200" /> 
</g>
<g style="fill:#FFFFFF; fill-opacity:1.0; 
stroke:#FFFFFF; stroke-width:39.3701; stroke-opacity:1; 
stroke-linecap:round; stroke-linejoin:round;">
</g>
<g style="fill:#FFFFFF; fill-opacity:1.0; 
stroke:#FFFFFF; stroke-width:0; stroke-opacity:1; 
stroke-linecap:round; stroke-linejoin:round;">
<circle cx="9029.53" cy="4261.81" r="200" /> 
</g>
<g style="fill:#FFFFFF; fill-opacity:1.0; 
stroke:#FFFFFF; stroke-width:39.3701; stroke-opacity:1; 
stroke-linecap:round; stroke-linejoin:round;">
</g>
<g style="fill:#FFFFFF; fill-opacity:1.0; 
stroke:#FFFFFF; stroke-width:0; stroke-opacity:1; 
stroke-linecap:round; stroke-linejoin:round;">
<circle cx="8029.53" cy="4261.81" r="200" /> 
</g>
<g style="fill:#FFFFFF; fill-opacity:1.0; 
stroke:#FFFFFF; stroke-width:39.3701; stroke-opacity:1; 
stroke-linecap:round; stroke-linejoin:round;">
</g>
<g style="fill:#FFFFFF; fill-opacity:1.0; 
stroke:#FFFFFF; stroke-width:0; stroke-opacity:1; 
stroke-linecap:round; stroke-linejoin:round;">
<circle cx="7029.53" cy="4261.81" r="200" /> 
</g>
<g style="fill:#FFFFFF; fill-opacity:1.0; 
stroke:#FFFFFF; stroke-width:39.3701; stroke-opacity:1; 
stroke-linecap:round; stroke-linejoin:round;">
</g>
<g style="fill:#FFFFFF; fill-opacity:1.0; 
stroke:#FFFFFF; stroke-width:0; stroke-opacity:1; 
stroke-linecap:round; stroke-linejoin:round;">
<circle cx="14029.5" cy="6261.81" r="100.394" /> 
</g>
<g style="fill:#FFFFFF; fill-opacity:1.0; 
stroke:#FFFFFF; stroke-width:39.3701; stroke-opacity:1; 
stroke-linecap:round; stroke-linejoin:round;">
</g>
<g style="fill:#FFFFFF; fill-opacity:1.0; 
stroke:#FFFFFF; stroke-width:0; stroke-opacity:1; 
stroke-linecap:round; stroke-linejoin:round;">
<circle cx="12029.5" cy="6261.81" r="100.394" /> 
</g>
<g style="fill:#FFFFFF; fill-opacity:1.0; 
stroke:#FFFFFF; stroke-width:39.3701; stroke-opacity:1; 
stroke-linecap:round; stroke-linejoin:round;">
</g>
<g style="fill:#FFFFFF; fill-opacity:1.0; 
stroke:#FFFFFF; stroke-width:0; stroke-opacity:1; 
stroke-linecap:round; stroke-linejoin:round;">
<circle cx="13029.5" cy="6261.81" r="100.394" /> 
</g>
<g style="fill:#FFFFFF; fill-opacity:1.0; 
stroke:#FFFFFF; stroke-width:39.3701; stroke-opacity:1; 
stroke-linecap:round; stroke-linejoin:round;">
</g>
<g style="fill:#FFFFFF; fill-opacity:1.0; 
stroke:#FFFFFF; stroke-width:0; stroke-opacity:1; 
stroke-linecap:round; stroke-linejoin:round;">
<circle cx="5029.53" cy="6261.81" r="100.394" /> 
</g>
<g style="fill:#FFFFFF; fill-opacity:1.0; 
stroke:#FFFFFF; stroke-width:39.3701; stroke-opacity:1; 
stroke-linecap:round; stroke-linejoin:round;">
</g>
<g style="fill:#FFFFFF; fill-opacity:1.0; 
stroke:#FFFFFF; stroke-width:0; stroke-opacity:1; 
stroke-linecap:round; stroke-linejoin:round;">
<circle cx="3029.53" cy="6261.81" r="100.394" /> 
</g>
<g style="fill:#FFFFFF; fill-opacity:1.0; 
stroke:#FFFFFF; stroke-width:39.3701; stroke-opacity:1; 
stroke-linecap:round; stroke-linejoin:round;">
</g>
<g style="fill:#FFFFFF; fill-opacity:1.0; 
stroke:#FFFFFF; stroke-width:0; stroke-opacity:1; 
stroke-linecap:round; stroke-linejoin:round;">
<circle cx="4029.53" cy="6261.81" r="100.394" /> 
</g>
<g style="fill:#FFFFFF; fill-opacity:1.0; 
stroke:#FFFFFF; stroke-width:39.3701; stroke-opacity:1; 
stroke-linecap:round; stroke-linejoin:round;">
</g>
<g style="fill:#FFFFFF; fill-opacity:1.0; 
stroke:#FFFFFF; stroke-width:0; stroke-opacity:1; 
stroke-linecap:round; stroke-linejoin:round;">
<circle cx="15029.5" cy="11261.8" r="100.394" /> 
</g>
<g style="fill:#FFFFFF; fill-opacity:1.0; 
stroke:#FFFFFF; stroke-width:39.3701; stroke-opacity:1; 
stroke-linecap:round; stroke-linejoin:round;">
</g>
<g style="fill:#FFFFFF; fill-opacity:1.0; 
stroke:#FFFFFF; stroke-width:0; stroke-opacity:1; 
stroke-linecap:round; stroke-linejoin:round;">
<circle cx="15029.5" cy="13261.8" r="100.394" /> 
</g>
<g style="fill:#FFFFFF; fill-opacity:1.0; 
stroke:#FFFFFF; stroke-width:39.3701; stroke-opacity:1; 
stroke-linecap:round; stroke-linejoin:round;">
</g>
<g style="fill:#FFFFFF; fill-opacity:1.0; 
stroke:#FFFFFF; stroke-width:0; stroke-opacity:1; 
stroke-linecap:round; stroke-linejoin:round;">
<circle cx="15029.5" cy="12261.8" r="100.394" /> 
</g>
<g style="fill:#FFFFFF; fill-opacity:1.0; 
stroke:#FFFFFF; stroke-width:39.3701; stroke-opacity:1; 
stroke-linecap:round; stroke-linejoin:round;">
</g>
<g style="fill:#FFFFFF; fill-opacity:1.0; 
stroke:#FFFFFF; stroke-width:0; stroke-opacity:1; 
stroke-linecap:round; stroke-linejoin:round;">
<circle cx="3029.53" cy="11261.8" r="100.394" /> 
</g>
<g style="fill:#FFFFFF; fill-opacity:1.0; 
stroke:#FFFFFF; stroke-width:39.3701; stroke-opacity:1; 
stroke-linecap:round; stroke-linejoin:round;">
</g>
<g style="fill:#FFFFFF; fill-opacity:1.0; 
stroke:#FFFFFF; stroke-width:0; stroke-opacity:1; 
stroke-linecap:round; stroke-linejoin:round;">
<circle cx="3029.53" cy="13261.8" r="100.394" /> 
</g>
<g style="fill:#FFFFFF; fill-opacity:1.0; 
stroke:#FFFFFF; stroke-width:39.3701; stroke-opacity:1; 
stroke-linecap:round; stroke-linejoin:round;">
</g>
<g style="fill:#FFFFFF; fill-opacity:1.0; 
stroke:#FFFFFF; stroke-width:0; stroke-opacity:1; 
stroke-linecap:round; stroke-linejoin:round;">
<circle cx="3029.53" cy="12261.8" r="100.394" /> 
</g>
<g style="fill:#FFFFFF; fill-opacity:1.0; 
stroke:#FFFFFF; stroke-width:39.3701; stroke-opacity:1; 
stroke-linecap:round; stroke-linejoin:round;">
</g>
<g style="fill:#FFFFFF; fill-opacity:1.0; 
stroke:#FFFFFF; stroke-width:0; stroke-opacity:1; 
stroke-linecap:round; stroke-linejoin:round;">
<circle cx="7029.53" cy="6261.81" r="157.48" /> 
</g>
<g style="fill:#FFFFFF; fill-opacity:1.0; 
stroke:#FFFFFF; stroke-width:39.3701; stroke-opacity:1; 
stroke-linecap:round; stroke-linejoin:round;">
</g>
<g style="fill:#FFFFFF; fill-opacity:1.0; 
stroke:#FFFFFF; stroke-width:0; stroke-opacity:1; 
stroke-linecap:round; stroke-linejoin:round;">
<circle cx="10029.5" cy="9261.81" r="157.48" /> 
</g>
<g style="fill:#FFFFFF; fill-opacity:1.0; 
stroke:#FFFFFF; stroke-width:39.3701; stroke-opacity:1; 
stroke-linecap:round; stroke-linejoin:round;">
</g>
<g style="fill:#FFFFFF; fill-opacity:1.0; 
stroke:#FFFFFF; stroke-width:0; stroke-opacity:1; 
stroke-linecap:round; stroke-linejoin:round;">
<circle cx="7029.53" cy="7261.81" r="157.48" /> 
</g>
<g style="fill:#FFFFFF; fill-opacity:1.0; 
stroke:#FFFFFF; stroke-width:39.3701; stroke-opacity:1; 
stroke-linecap:round; stroke-linejoin:round;">
</g>
<g style="fill:#FFFFFF; fill-opacity:1.0; 
stroke:#FFFFFF; stroke-width:0; stroke-opacity:1; 
stroke-linecap:round; stroke-linejoin:round;">
<circle cx="10029.5" cy="8261.81" r="157.48" /> 
</g>
<g style="fill:#FFFFFF; fill-opacity:1.0; 
stroke:#FFFFFF; stroke-width:39.3701; stroke-opacity:1; 
stroke-linecap:round; stroke-linejoin:round;">
</g>
<g style="fill:#FFFFFF; fill-opacity:1.0; 
stroke:#FFFFFF; stroke-width:0; stroke-opacity:1; 
stroke-linecap:round; stroke-linejoin:round;">
<circle cx="7029.53" cy="8261.81" r="157.48" /> 
</g>
<g style="fill:#FFFFFF; fill-opacity:1.0; 
stroke:#FFFFFF; stroke-width:39.3701; stroke-opacity:1; 
stroke-linecap:round; stroke-linejoin:round;">
</g>
<g style="fill:#FFFFFF; fill-opacity:1.0; 
stroke:#FFFFFF; stroke-width:0; stroke-opacity:1; 
stroke-linecap:round; stroke-linejoin:round;">
<circle cx="10029.5" cy="7261.81" r="157.48" /> 
</g>
<g style="fill:#FFFFFF; fill-opacity:1.0; 
stroke:#FFFFFF; stroke-width:39.3701; stroke-opacity:1; 
stroke-linecap:round; stroke-linejoin:round;">
</g>
<g style="fill:#FFFFFF; fill-opacity:1.0; 
stroke:#FFFFFF; stroke-width:0; stroke-opacity:1; 
stroke-linecap:round; stroke-linejoin:round;">
<circle cx="7029.53" cy="9261.81" r="157.48" /> 
</g>
<g style="fill:#FFFFFF; fill-opacity:1.0; 
stroke:#FFFFFF; stroke-width:39.3701; stroke-opacity:1; 
stroke-linecap:round; stroke-linejoin:round;">
</g>
<g style="fill:#FFFFFF; fill-opacity:1.0; 
stroke:#FFFFFF; stroke-width:0; stroke-opacity:1; 
stroke-linecap:round; stroke-linejoin:round;">
<circle cx="10029.5" cy="6261.81" r="157.48" /> 
</g>
<g style="fill:#FFFFFF; fill-opacity:1.0; 
stroke:#FFFFFF; stroke-width:39.3701; stroke-opacity:1; 
stroke-linecap:round; stroke-linejoin:round;">
</g>
<g style="fill:#000000; fill-opacity:1.0; 
stroke:#000000; stroke-width:39.3701; stroke-opacity:1; 
stroke-linecap:round; stroke-linejoin:round;">
</g>
<g style="fill:#000000; fill-opacity:1.0; 
stroke:#000000; stroke-width:59.0551; stroke-opacity:1; 
stroke-linecap:round; stroke-linejoin:round;">
</g>
<g style="fill:#000000; fill-opacity:0.0; 
stroke:#000000; stroke-width:59.0551; stroke-opacity:1; 
stroke-linecap:round; stroke-linejoin:round;">
<path d="M17529 261
L17029 261
" />
<path d="M17529 15261
L17529 261
" />
<path d="M17029 15261
L17529 15261
" />
<path d="M29 261
L1029 261
" />
<path d="M29 15261
L29 261
" />
<path d="M1029 15261
L29 15261
" />
<path d="M17029 15261
L16029 15261
" />
<path d="M16029 261
L17029 261
" />
<circle cx="2529.53" cy="1761.81" r="707.107" /> 
<circle cx="15029.5" cy="1761.81" r="707.107" /> 
<path d="M16029 261
L1029 261
" />
<path d="M1029 15261
L16029 15261
" />
</g> 
</svg>
