%TF.GenerationSoftware,KiCad,Pcbnew,4.0.7*%
%TF.CreationDate,2018-04-11T17:00:31+03:00*%
%TF.ProjectId,mmnet_base_00,6D6D6E65745F626173655F30302E6B69,rev?*%
%TF.FileFunction,Legend,Bot*%
%FSLAX46Y46*%
G04 Gerber Fmt 4.6, Leading zero omitted, Abs format (unit mm)*
G04 Created by KiCad (PCBNEW 4.0.7) date 04/11/18 17:00:31*
%MOMM*%
%LPD*%
G01*
G04 APERTURE LIST*
%ADD10C,0.100000*%
%ADD11C,0.150000*%
%ADD12C,0.120000*%
G04 APERTURE END LIST*
D10*
D11*
X170180000Y-41910000D02*
X170180000Y-132080000D01*
X104140000Y-41910000D02*
X104140000Y-132080000D01*
X170180000Y-132080000D02*
X104140000Y-132080000D01*
X104140000Y-41910000D02*
X170180000Y-41910000D01*
D12*
X106925000Y-81010000D02*
X106925000Y-79010000D01*
X108975000Y-79010000D02*
X108975000Y-81010000D01*
X127245000Y-103870000D02*
X127245000Y-101870000D01*
X129295000Y-101870000D02*
X129295000Y-103870000D01*
D11*
X133789420Y-97600440D02*
X137990580Y-97600440D01*
X133789420Y-97299780D02*
X137990580Y-97299780D01*
X133789420Y-105900220D02*
X137990580Y-105900220D01*
X137995660Y-103596440D02*
X137995660Y-105882440D01*
X133784340Y-105882440D02*
X133784340Y-103596440D01*
X133784340Y-99601020D02*
X133784340Y-97315020D01*
X137995660Y-97317560D02*
X137995660Y-99603560D01*
D12*
X144510000Y-78495000D02*
X142510000Y-78495000D01*
X142510000Y-76445000D02*
X144510000Y-76445000D01*
D11*
X113860580Y-106869560D02*
X109659420Y-106869560D01*
X113860580Y-107170220D02*
X109659420Y-107170220D01*
X113860580Y-98569780D02*
X109659420Y-98569780D01*
X109654340Y-100873560D02*
X109654340Y-98587560D01*
X113865660Y-98587560D02*
X113865660Y-100873560D01*
X113865660Y-104868980D02*
X113865660Y-107154980D01*
X109654340Y-107152440D02*
X109654340Y-104866440D01*
D12*
X106925000Y-105140000D02*
X106925000Y-103140000D01*
X108975000Y-103140000D02*
X108975000Y-105140000D01*
X114710000Y-108990000D02*
X123410000Y-108990000D01*
X123410000Y-108990000D02*
X123410000Y-111990000D01*
X123410000Y-111990000D02*
X114710000Y-111990000D01*
D11*
X115697000Y-101600000D02*
X115697000Y-101346000D01*
X115697000Y-101346000D02*
X117983000Y-101346000D01*
X117983000Y-101346000D02*
X117983000Y-101600000D01*
X115697000Y-101600000D02*
X117983000Y-101600000D01*
X117983000Y-101600000D02*
X117983000Y-103251000D01*
X115697000Y-105029000D02*
X115697000Y-106680000D01*
X115697000Y-106680000D02*
X117983000Y-106680000D01*
X117983000Y-106680000D02*
X117983000Y-105029000D01*
X115697000Y-103251000D02*
X115697000Y-101600000D01*
X130540000Y-72585000D02*
X128540000Y-72585000D01*
X128540000Y-74735000D02*
X130540000Y-74735000D01*
X130540000Y-75125000D02*
X128540000Y-75125000D01*
X128540000Y-77275000D02*
X130540000Y-77275000D01*
X126730000Y-86555000D02*
X124730000Y-86555000D01*
X124730000Y-88705000D02*
X126730000Y-88705000D01*
X126730000Y-89095000D02*
X124730000Y-89095000D01*
X124730000Y-91245000D02*
X126730000Y-91245000D01*
X126730000Y-91635000D02*
X124730000Y-91635000D01*
X124730000Y-93785000D02*
X126730000Y-93785000D01*
X126730000Y-94175000D02*
X124730000Y-94175000D01*
X124730000Y-96325000D02*
X126730000Y-96325000D01*
X113225000Y-115840000D02*
X113225000Y-117840000D01*
X115375000Y-117840000D02*
X115375000Y-115840000D01*
X128075000Y-64500000D02*
X128075000Y-62500000D01*
X125925000Y-62500000D02*
X125925000Y-64500000D01*
X131885000Y-64500000D02*
X131885000Y-62500000D01*
X129735000Y-62500000D02*
X129735000Y-64500000D01*
X143315000Y-63230000D02*
X143315000Y-61230000D01*
X141165000Y-61230000D02*
X141165000Y-63230000D01*
X163560000Y-99255000D02*
X161560000Y-99255000D01*
X161560000Y-101405000D02*
X163560000Y-101405000D01*
X152670000Y-103945000D02*
X154670000Y-103945000D01*
X154670000Y-101795000D02*
X152670000Y-101795000D01*
X142510000Y-86165000D02*
X144510000Y-86165000D01*
X144510000Y-84015000D02*
X142510000Y-84015000D01*
X142510000Y-88705000D02*
X144510000Y-88705000D01*
X144510000Y-86555000D02*
X142510000Y-86555000D01*
X158945000Y-85360000D02*
X158945000Y-87360000D01*
X161095000Y-87360000D02*
X161095000Y-85360000D01*
X159020000Y-93785000D02*
X161020000Y-93785000D01*
X161020000Y-91635000D02*
X159020000Y-91635000D01*
X116570000Y-86555000D02*
X114570000Y-86555000D01*
X114570000Y-88705000D02*
X116570000Y-88705000D01*
X116570000Y-89095000D02*
X114570000Y-89095000D01*
X114570000Y-91245000D02*
X116570000Y-91245000D01*
X116570000Y-91635000D02*
X114570000Y-91635000D01*
X114570000Y-93785000D02*
X116570000Y-93785000D01*
X116570000Y-94175000D02*
X114570000Y-94175000D01*
X114570000Y-96325000D02*
X116570000Y-96325000D01*
X115105000Y-77435000D02*
X115105000Y-77485000D01*
X110955000Y-77435000D02*
X110955000Y-77580000D01*
X110955000Y-82585000D02*
X110955000Y-82440000D01*
X115105000Y-82585000D02*
X115105000Y-82440000D01*
X115105000Y-77435000D02*
X110955000Y-77435000D01*
X115105000Y-82585000D02*
X110955000Y-82585000D01*
X115105000Y-77485000D02*
X116505000Y-77485000D01*
X106007143Y-79843334D02*
X106054762Y-79795715D01*
X106102381Y-79652858D01*
X106102381Y-79557620D01*
X106054762Y-79414762D01*
X105959524Y-79319524D01*
X105864286Y-79271905D01*
X105673810Y-79224286D01*
X105530952Y-79224286D01*
X105340476Y-79271905D01*
X105245238Y-79319524D01*
X105150000Y-79414762D01*
X105102381Y-79557620D01*
X105102381Y-79652858D01*
X105150000Y-79795715D01*
X105197619Y-79843334D01*
X106102381Y-80795715D02*
X106102381Y-80224286D01*
X106102381Y-80510000D02*
X105102381Y-80510000D01*
X105245238Y-80414762D01*
X105340476Y-80319524D01*
X105388095Y-80224286D01*
X126327143Y-102703334D02*
X126374762Y-102655715D01*
X126422381Y-102512858D01*
X126422381Y-102417620D01*
X126374762Y-102274762D01*
X126279524Y-102179524D01*
X126184286Y-102131905D01*
X125993810Y-102084286D01*
X125850952Y-102084286D01*
X125660476Y-102131905D01*
X125565238Y-102179524D01*
X125470000Y-102274762D01*
X125422381Y-102417620D01*
X125422381Y-102512858D01*
X125470000Y-102655715D01*
X125517619Y-102703334D01*
X125517619Y-103084286D02*
X125470000Y-103131905D01*
X125422381Y-103227143D01*
X125422381Y-103465239D01*
X125470000Y-103560477D01*
X125517619Y-103608096D01*
X125612857Y-103655715D01*
X125708095Y-103655715D01*
X125850952Y-103608096D01*
X126422381Y-103036667D01*
X126422381Y-103655715D01*
X136056666Y-101157043D02*
X136104285Y-101204662D01*
X136247142Y-101252281D01*
X136342380Y-101252281D01*
X136485238Y-101204662D01*
X136580476Y-101109424D01*
X136628095Y-101014186D01*
X136675714Y-100823710D01*
X136675714Y-100680852D01*
X136628095Y-100490376D01*
X136580476Y-100395138D01*
X136485238Y-100299900D01*
X136342380Y-100252281D01*
X136247142Y-100252281D01*
X136104285Y-100299900D01*
X136056666Y-100347519D01*
X135723333Y-100252281D02*
X135104285Y-100252281D01*
X135437619Y-100633233D01*
X135294761Y-100633233D01*
X135199523Y-100680852D01*
X135151904Y-100728471D01*
X135104285Y-100823710D01*
X135104285Y-101061805D01*
X135151904Y-101157043D01*
X135199523Y-101204662D01*
X135294761Y-101252281D01*
X135580476Y-101252281D01*
X135675714Y-101204662D01*
X135723333Y-101157043D01*
X138262669Y-96619108D02*
X138262669Y-97381013D01*
X138643621Y-97000061D02*
X137881716Y-97000061D01*
X143676666Y-80127143D02*
X143724285Y-80174762D01*
X143867142Y-80222381D01*
X143962380Y-80222381D01*
X144105238Y-80174762D01*
X144200476Y-80079524D01*
X144248095Y-79984286D01*
X144295714Y-79793810D01*
X144295714Y-79650952D01*
X144248095Y-79460476D01*
X144200476Y-79365238D01*
X144105238Y-79270000D01*
X143962380Y-79222381D01*
X143867142Y-79222381D01*
X143724285Y-79270000D01*
X143676666Y-79317619D01*
X142819523Y-79555714D02*
X142819523Y-80222381D01*
X143057619Y-79174762D02*
X143295714Y-79889048D01*
X142676666Y-79889048D01*
X111926666Y-104027243D02*
X111974285Y-104074862D01*
X112117142Y-104122481D01*
X112212380Y-104122481D01*
X112355238Y-104074862D01*
X112450476Y-103979624D01*
X112498095Y-103884386D01*
X112545714Y-103693910D01*
X112545714Y-103551052D01*
X112498095Y-103360576D01*
X112450476Y-103265338D01*
X112355238Y-103170100D01*
X112212380Y-103122481D01*
X112117142Y-103122481D01*
X111974285Y-103170100D01*
X111926666Y-103217719D01*
X111021904Y-103122481D02*
X111498095Y-103122481D01*
X111545714Y-103598671D01*
X111498095Y-103551052D01*
X111402857Y-103503433D01*
X111164761Y-103503433D01*
X111069523Y-103551052D01*
X111021904Y-103598671D01*
X110974285Y-103693910D01*
X110974285Y-103932005D01*
X111021904Y-104027243D01*
X111069523Y-104074862D01*
X111164761Y-104122481D01*
X111402857Y-104122481D01*
X111498095Y-104074862D01*
X111545714Y-104027243D01*
X109530189Y-107088988D02*
X109530189Y-107850893D01*
X109911141Y-107469941D02*
X109149236Y-107469941D01*
X106007143Y-103973334D02*
X106054762Y-103925715D01*
X106102381Y-103782858D01*
X106102381Y-103687620D01*
X106054762Y-103544762D01*
X105959524Y-103449524D01*
X105864286Y-103401905D01*
X105673810Y-103354286D01*
X105530952Y-103354286D01*
X105340476Y-103401905D01*
X105245238Y-103449524D01*
X105150000Y-103544762D01*
X105102381Y-103687620D01*
X105102381Y-103782858D01*
X105150000Y-103925715D01*
X105197619Y-103973334D01*
X105102381Y-104830477D02*
X105102381Y-104640000D01*
X105150000Y-104544762D01*
X105197619Y-104497143D01*
X105340476Y-104401905D01*
X105530952Y-104354286D01*
X105911905Y-104354286D01*
X106007143Y-104401905D01*
X106054762Y-104449524D01*
X106102381Y-104544762D01*
X106102381Y-104735239D01*
X106054762Y-104830477D01*
X106007143Y-104878096D01*
X105911905Y-104925715D01*
X105673810Y-104925715D01*
X105578571Y-104878096D01*
X105530952Y-104830477D01*
X105483333Y-104735239D01*
X105483333Y-104544762D01*
X105530952Y-104449524D01*
X105578571Y-104401905D01*
X105673810Y-104354286D01*
X118848095Y-108402381D02*
X118848095Y-107402381D01*
X118610000Y-107402381D01*
X118467142Y-107450000D01*
X118371904Y-107545238D01*
X118324285Y-107640476D01*
X118276666Y-107830952D01*
X118276666Y-107973810D01*
X118324285Y-108164286D01*
X118371904Y-108259524D01*
X118467142Y-108354762D01*
X118610000Y-108402381D01*
X118848095Y-108402381D01*
X117324285Y-108402381D02*
X117895714Y-108402381D01*
X117610000Y-108402381D02*
X117610000Y-107402381D01*
X117705238Y-107545238D01*
X117800476Y-107640476D01*
X117895714Y-107688095D01*
X116768571Y-103806667D02*
X116768571Y-103473333D01*
X117292381Y-103473333D02*
X116292381Y-103473333D01*
X116292381Y-103949524D01*
X117292381Y-104854286D02*
X117292381Y-104282857D01*
X117292381Y-104568571D02*
X116292381Y-104568571D01*
X116435238Y-104473333D01*
X116530476Y-104378095D01*
X116578095Y-104282857D01*
X129706666Y-76412381D02*
X130040000Y-75936190D01*
X130278095Y-76412381D02*
X130278095Y-75412381D01*
X129897142Y-75412381D01*
X129801904Y-75460000D01*
X129754285Y-75507619D01*
X129706666Y-75602857D01*
X129706666Y-75745714D01*
X129754285Y-75840952D01*
X129801904Y-75888571D01*
X129897142Y-75936190D01*
X130278095Y-75936190D01*
X128754285Y-76412381D02*
X129325714Y-76412381D01*
X129040000Y-76412381D02*
X129040000Y-75412381D01*
X129135238Y-75555238D01*
X129230476Y-75650476D01*
X129325714Y-75698095D01*
X129706666Y-78952381D02*
X130040000Y-78476190D01*
X130278095Y-78952381D02*
X130278095Y-77952381D01*
X129897142Y-77952381D01*
X129801904Y-78000000D01*
X129754285Y-78047619D01*
X129706666Y-78142857D01*
X129706666Y-78285714D01*
X129754285Y-78380952D01*
X129801904Y-78428571D01*
X129897142Y-78476190D01*
X130278095Y-78476190D01*
X129325714Y-78047619D02*
X129278095Y-78000000D01*
X129182857Y-77952381D01*
X128944761Y-77952381D01*
X128849523Y-78000000D01*
X128801904Y-78047619D01*
X128754285Y-78142857D01*
X128754285Y-78238095D01*
X128801904Y-78380952D01*
X129373333Y-78952381D01*
X128754285Y-78952381D01*
X125896666Y-90382381D02*
X126230000Y-89906190D01*
X126468095Y-90382381D02*
X126468095Y-89382381D01*
X126087142Y-89382381D01*
X125991904Y-89430000D01*
X125944285Y-89477619D01*
X125896666Y-89572857D01*
X125896666Y-89715714D01*
X125944285Y-89810952D01*
X125991904Y-89858571D01*
X126087142Y-89906190D01*
X126468095Y-89906190D01*
X125563333Y-89382381D02*
X124944285Y-89382381D01*
X125277619Y-89763333D01*
X125134761Y-89763333D01*
X125039523Y-89810952D01*
X124991904Y-89858571D01*
X124944285Y-89953810D01*
X124944285Y-90191905D01*
X124991904Y-90287143D01*
X125039523Y-90334762D01*
X125134761Y-90382381D01*
X125420476Y-90382381D01*
X125515714Y-90334762D01*
X125563333Y-90287143D01*
X125896666Y-92922381D02*
X126230000Y-92446190D01*
X126468095Y-92922381D02*
X126468095Y-91922381D01*
X126087142Y-91922381D01*
X125991904Y-91970000D01*
X125944285Y-92017619D01*
X125896666Y-92112857D01*
X125896666Y-92255714D01*
X125944285Y-92350952D01*
X125991904Y-92398571D01*
X126087142Y-92446190D01*
X126468095Y-92446190D01*
X125039523Y-92255714D02*
X125039523Y-92922381D01*
X125277619Y-91874762D02*
X125515714Y-92589048D01*
X124896666Y-92589048D01*
X125896666Y-95462381D02*
X126230000Y-94986190D01*
X126468095Y-95462381D02*
X126468095Y-94462381D01*
X126087142Y-94462381D01*
X125991904Y-94510000D01*
X125944285Y-94557619D01*
X125896666Y-94652857D01*
X125896666Y-94795714D01*
X125944285Y-94890952D01*
X125991904Y-94938571D01*
X126087142Y-94986190D01*
X126468095Y-94986190D01*
X124991904Y-94462381D02*
X125468095Y-94462381D01*
X125515714Y-94938571D01*
X125468095Y-94890952D01*
X125372857Y-94843333D01*
X125134761Y-94843333D01*
X125039523Y-94890952D01*
X124991904Y-94938571D01*
X124944285Y-95033810D01*
X124944285Y-95271905D01*
X124991904Y-95367143D01*
X125039523Y-95414762D01*
X125134761Y-95462381D01*
X125372857Y-95462381D01*
X125468095Y-95414762D01*
X125515714Y-95367143D01*
X125896666Y-98002381D02*
X126230000Y-97526190D01*
X126468095Y-98002381D02*
X126468095Y-97002381D01*
X126087142Y-97002381D01*
X125991904Y-97050000D01*
X125944285Y-97097619D01*
X125896666Y-97192857D01*
X125896666Y-97335714D01*
X125944285Y-97430952D01*
X125991904Y-97478571D01*
X126087142Y-97526190D01*
X126468095Y-97526190D01*
X125039523Y-97002381D02*
X125230000Y-97002381D01*
X125325238Y-97050000D01*
X125372857Y-97097619D01*
X125468095Y-97240476D01*
X125515714Y-97430952D01*
X125515714Y-97811905D01*
X125468095Y-97907143D01*
X125420476Y-97954762D01*
X125325238Y-98002381D01*
X125134761Y-98002381D01*
X125039523Y-97954762D01*
X124991904Y-97907143D01*
X124944285Y-97811905D01*
X124944285Y-97573810D01*
X124991904Y-97478571D01*
X125039523Y-97430952D01*
X125134761Y-97383333D01*
X125325238Y-97383333D01*
X125420476Y-97430952D01*
X125468095Y-97478571D01*
X125515714Y-97573810D01*
X117052381Y-116673334D02*
X116576190Y-116340000D01*
X117052381Y-116101905D02*
X116052381Y-116101905D01*
X116052381Y-116482858D01*
X116100000Y-116578096D01*
X116147619Y-116625715D01*
X116242857Y-116673334D01*
X116385714Y-116673334D01*
X116480952Y-116625715D01*
X116528571Y-116578096D01*
X116576190Y-116482858D01*
X116576190Y-116101905D01*
X116052381Y-117006667D02*
X116052381Y-117673334D01*
X117052381Y-117244762D01*
X125152381Y-63333334D02*
X124676190Y-63000000D01*
X125152381Y-62761905D02*
X124152381Y-62761905D01*
X124152381Y-63142858D01*
X124200000Y-63238096D01*
X124247619Y-63285715D01*
X124342857Y-63333334D01*
X124485714Y-63333334D01*
X124580952Y-63285715D01*
X124628571Y-63238096D01*
X124676190Y-63142858D01*
X124676190Y-62761905D01*
X124580952Y-63904762D02*
X124533333Y-63809524D01*
X124485714Y-63761905D01*
X124390476Y-63714286D01*
X124342857Y-63714286D01*
X124247619Y-63761905D01*
X124200000Y-63809524D01*
X124152381Y-63904762D01*
X124152381Y-64095239D01*
X124200000Y-64190477D01*
X124247619Y-64238096D01*
X124342857Y-64285715D01*
X124390476Y-64285715D01*
X124485714Y-64238096D01*
X124533333Y-64190477D01*
X124580952Y-64095239D01*
X124580952Y-63904762D01*
X124628571Y-63809524D01*
X124676190Y-63761905D01*
X124771429Y-63714286D01*
X124961905Y-63714286D01*
X125057143Y-63761905D01*
X125104762Y-63809524D01*
X125152381Y-63904762D01*
X125152381Y-64095239D01*
X125104762Y-64190477D01*
X125057143Y-64238096D01*
X124961905Y-64285715D01*
X124771429Y-64285715D01*
X124676190Y-64238096D01*
X124628571Y-64190477D01*
X124580952Y-64095239D01*
X128962381Y-63333334D02*
X128486190Y-63000000D01*
X128962381Y-62761905D02*
X127962381Y-62761905D01*
X127962381Y-63142858D01*
X128010000Y-63238096D01*
X128057619Y-63285715D01*
X128152857Y-63333334D01*
X128295714Y-63333334D01*
X128390952Y-63285715D01*
X128438571Y-63238096D01*
X128486190Y-63142858D01*
X128486190Y-62761905D01*
X128962381Y-63809524D02*
X128962381Y-64000000D01*
X128914762Y-64095239D01*
X128867143Y-64142858D01*
X128724286Y-64238096D01*
X128533810Y-64285715D01*
X128152857Y-64285715D01*
X128057619Y-64238096D01*
X128010000Y-64190477D01*
X127962381Y-64095239D01*
X127962381Y-63904762D01*
X128010000Y-63809524D01*
X128057619Y-63761905D01*
X128152857Y-63714286D01*
X128390952Y-63714286D01*
X128486190Y-63761905D01*
X128533810Y-63809524D01*
X128581429Y-63904762D01*
X128581429Y-64095239D01*
X128533810Y-64190477D01*
X128486190Y-64238096D01*
X128390952Y-64285715D01*
X140392381Y-61587143D02*
X139916190Y-61253809D01*
X140392381Y-61015714D02*
X139392381Y-61015714D01*
X139392381Y-61396667D01*
X139440000Y-61491905D01*
X139487619Y-61539524D01*
X139582857Y-61587143D01*
X139725714Y-61587143D01*
X139820952Y-61539524D01*
X139868571Y-61491905D01*
X139916190Y-61396667D01*
X139916190Y-61015714D01*
X140392381Y-62539524D02*
X140392381Y-61968095D01*
X140392381Y-62253809D02*
X139392381Y-62253809D01*
X139535238Y-62158571D01*
X139630476Y-62063333D01*
X139678095Y-61968095D01*
X139392381Y-63158571D02*
X139392381Y-63253810D01*
X139440000Y-63349048D01*
X139487619Y-63396667D01*
X139582857Y-63444286D01*
X139773333Y-63491905D01*
X140011429Y-63491905D01*
X140201905Y-63444286D01*
X140297143Y-63396667D01*
X140344762Y-63349048D01*
X140392381Y-63253810D01*
X140392381Y-63158571D01*
X140344762Y-63063333D01*
X140297143Y-63015714D01*
X140201905Y-62968095D01*
X140011429Y-62920476D01*
X139773333Y-62920476D01*
X139582857Y-62968095D01*
X139487619Y-63015714D01*
X139440000Y-63063333D01*
X139392381Y-63158571D01*
X163202857Y-103082381D02*
X163536191Y-102606190D01*
X163774286Y-103082381D02*
X163774286Y-102082381D01*
X163393333Y-102082381D01*
X163298095Y-102130000D01*
X163250476Y-102177619D01*
X163202857Y-102272857D01*
X163202857Y-102415714D01*
X163250476Y-102510952D01*
X163298095Y-102558571D01*
X163393333Y-102606190D01*
X163774286Y-102606190D01*
X162250476Y-103082381D02*
X162821905Y-103082381D01*
X162536191Y-103082381D02*
X162536191Y-102082381D01*
X162631429Y-102225238D01*
X162726667Y-102320476D01*
X162821905Y-102368095D01*
X161298095Y-103082381D02*
X161869524Y-103082381D01*
X161583810Y-103082381D02*
X161583810Y-102082381D01*
X161679048Y-102225238D01*
X161774286Y-102320476D01*
X161869524Y-102368095D01*
X154312857Y-101022381D02*
X154646191Y-100546190D01*
X154884286Y-101022381D02*
X154884286Y-100022381D01*
X154503333Y-100022381D01*
X154408095Y-100070000D01*
X154360476Y-100117619D01*
X154312857Y-100212857D01*
X154312857Y-100355714D01*
X154360476Y-100450952D01*
X154408095Y-100498571D01*
X154503333Y-100546190D01*
X154884286Y-100546190D01*
X153360476Y-101022381D02*
X153931905Y-101022381D01*
X153646191Y-101022381D02*
X153646191Y-100022381D01*
X153741429Y-100165238D01*
X153836667Y-100260476D01*
X153931905Y-100308095D01*
X152979524Y-100117619D02*
X152931905Y-100070000D01*
X152836667Y-100022381D01*
X152598571Y-100022381D01*
X152503333Y-100070000D01*
X152455714Y-100117619D01*
X152408095Y-100212857D01*
X152408095Y-100308095D01*
X152455714Y-100450952D01*
X153027143Y-101022381D01*
X152408095Y-101022381D01*
X144152857Y-83242381D02*
X144486191Y-82766190D01*
X144724286Y-83242381D02*
X144724286Y-82242381D01*
X144343333Y-82242381D01*
X144248095Y-82290000D01*
X144200476Y-82337619D01*
X144152857Y-82432857D01*
X144152857Y-82575714D01*
X144200476Y-82670952D01*
X144248095Y-82718571D01*
X144343333Y-82766190D01*
X144724286Y-82766190D01*
X143200476Y-83242381D02*
X143771905Y-83242381D01*
X143486191Y-83242381D02*
X143486191Y-82242381D01*
X143581429Y-82385238D01*
X143676667Y-82480476D01*
X143771905Y-82528095D01*
X142867143Y-82242381D02*
X142248095Y-82242381D01*
X142581429Y-82623333D01*
X142438571Y-82623333D01*
X142343333Y-82670952D01*
X142295714Y-82718571D01*
X142248095Y-82813810D01*
X142248095Y-83051905D01*
X142295714Y-83147143D01*
X142343333Y-83194762D01*
X142438571Y-83242381D01*
X142724286Y-83242381D01*
X142819524Y-83194762D01*
X142867143Y-83147143D01*
X144152857Y-85782381D02*
X144486191Y-85306190D01*
X144724286Y-85782381D02*
X144724286Y-84782381D01*
X144343333Y-84782381D01*
X144248095Y-84830000D01*
X144200476Y-84877619D01*
X144152857Y-84972857D01*
X144152857Y-85115714D01*
X144200476Y-85210952D01*
X144248095Y-85258571D01*
X144343333Y-85306190D01*
X144724286Y-85306190D01*
X143200476Y-85782381D02*
X143771905Y-85782381D01*
X143486191Y-85782381D02*
X143486191Y-84782381D01*
X143581429Y-84925238D01*
X143676667Y-85020476D01*
X143771905Y-85068095D01*
X142343333Y-85115714D02*
X142343333Y-85782381D01*
X142581429Y-84734762D02*
X142819524Y-85449048D01*
X142200476Y-85449048D01*
X162772381Y-85717143D02*
X162296190Y-85383809D01*
X162772381Y-85145714D02*
X161772381Y-85145714D01*
X161772381Y-85526667D01*
X161820000Y-85621905D01*
X161867619Y-85669524D01*
X161962857Y-85717143D01*
X162105714Y-85717143D01*
X162200952Y-85669524D01*
X162248571Y-85621905D01*
X162296190Y-85526667D01*
X162296190Y-85145714D01*
X162772381Y-86669524D02*
X162772381Y-86098095D01*
X162772381Y-86383809D02*
X161772381Y-86383809D01*
X161915238Y-86288571D01*
X162010476Y-86193333D01*
X162058095Y-86098095D01*
X161772381Y-87574286D02*
X161772381Y-87098095D01*
X162248571Y-87050476D01*
X162200952Y-87098095D01*
X162153333Y-87193333D01*
X162153333Y-87431429D01*
X162200952Y-87526667D01*
X162248571Y-87574286D01*
X162343810Y-87621905D01*
X162581905Y-87621905D01*
X162677143Y-87574286D01*
X162724762Y-87526667D01*
X162772381Y-87431429D01*
X162772381Y-87193333D01*
X162724762Y-87098095D01*
X162677143Y-87050476D01*
X160662857Y-90862381D02*
X160996191Y-90386190D01*
X161234286Y-90862381D02*
X161234286Y-89862381D01*
X160853333Y-89862381D01*
X160758095Y-89910000D01*
X160710476Y-89957619D01*
X160662857Y-90052857D01*
X160662857Y-90195714D01*
X160710476Y-90290952D01*
X160758095Y-90338571D01*
X160853333Y-90386190D01*
X161234286Y-90386190D01*
X159710476Y-90862381D02*
X160281905Y-90862381D01*
X159996191Y-90862381D02*
X159996191Y-89862381D01*
X160091429Y-90005238D01*
X160186667Y-90100476D01*
X160281905Y-90148095D01*
X158853333Y-89862381D02*
X159043810Y-89862381D01*
X159139048Y-89910000D01*
X159186667Y-89957619D01*
X159281905Y-90100476D01*
X159329524Y-90290952D01*
X159329524Y-90671905D01*
X159281905Y-90767143D01*
X159234286Y-90814762D01*
X159139048Y-90862381D01*
X158948571Y-90862381D01*
X158853333Y-90814762D01*
X158805714Y-90767143D01*
X158758095Y-90671905D01*
X158758095Y-90433810D01*
X158805714Y-90338571D01*
X158853333Y-90290952D01*
X158948571Y-90243333D01*
X159139048Y-90243333D01*
X159234286Y-90290952D01*
X159281905Y-90338571D01*
X159329524Y-90433810D01*
X116212857Y-90382381D02*
X116546191Y-89906190D01*
X116784286Y-90382381D02*
X116784286Y-89382381D01*
X116403333Y-89382381D01*
X116308095Y-89430000D01*
X116260476Y-89477619D01*
X116212857Y-89572857D01*
X116212857Y-89715714D01*
X116260476Y-89810952D01*
X116308095Y-89858571D01*
X116403333Y-89906190D01*
X116784286Y-89906190D01*
X115260476Y-90382381D02*
X115831905Y-90382381D01*
X115546191Y-90382381D02*
X115546191Y-89382381D01*
X115641429Y-89525238D01*
X115736667Y-89620476D01*
X115831905Y-89668095D01*
X114927143Y-89382381D02*
X114260476Y-89382381D01*
X114689048Y-90382381D01*
X116212857Y-92922381D02*
X116546191Y-92446190D01*
X116784286Y-92922381D02*
X116784286Y-91922381D01*
X116403333Y-91922381D01*
X116308095Y-91970000D01*
X116260476Y-92017619D01*
X116212857Y-92112857D01*
X116212857Y-92255714D01*
X116260476Y-92350952D01*
X116308095Y-92398571D01*
X116403333Y-92446190D01*
X116784286Y-92446190D01*
X115260476Y-92922381D02*
X115831905Y-92922381D01*
X115546191Y-92922381D02*
X115546191Y-91922381D01*
X115641429Y-92065238D01*
X115736667Y-92160476D01*
X115831905Y-92208095D01*
X114689048Y-92350952D02*
X114784286Y-92303333D01*
X114831905Y-92255714D01*
X114879524Y-92160476D01*
X114879524Y-92112857D01*
X114831905Y-92017619D01*
X114784286Y-91970000D01*
X114689048Y-91922381D01*
X114498571Y-91922381D01*
X114403333Y-91970000D01*
X114355714Y-92017619D01*
X114308095Y-92112857D01*
X114308095Y-92160476D01*
X114355714Y-92255714D01*
X114403333Y-92303333D01*
X114498571Y-92350952D01*
X114689048Y-92350952D01*
X114784286Y-92398571D01*
X114831905Y-92446190D01*
X114879524Y-92541429D01*
X114879524Y-92731905D01*
X114831905Y-92827143D01*
X114784286Y-92874762D01*
X114689048Y-92922381D01*
X114498571Y-92922381D01*
X114403333Y-92874762D01*
X114355714Y-92827143D01*
X114308095Y-92731905D01*
X114308095Y-92541429D01*
X114355714Y-92446190D01*
X114403333Y-92398571D01*
X114498571Y-92350952D01*
X116212857Y-95462381D02*
X116546191Y-94986190D01*
X116784286Y-95462381D02*
X116784286Y-94462381D01*
X116403333Y-94462381D01*
X116308095Y-94510000D01*
X116260476Y-94557619D01*
X116212857Y-94652857D01*
X116212857Y-94795714D01*
X116260476Y-94890952D01*
X116308095Y-94938571D01*
X116403333Y-94986190D01*
X116784286Y-94986190D01*
X115260476Y-95462381D02*
X115831905Y-95462381D01*
X115546191Y-95462381D02*
X115546191Y-94462381D01*
X115641429Y-94605238D01*
X115736667Y-94700476D01*
X115831905Y-94748095D01*
X114784286Y-95462381D02*
X114593810Y-95462381D01*
X114498571Y-95414762D01*
X114450952Y-95367143D01*
X114355714Y-95224286D01*
X114308095Y-95033810D01*
X114308095Y-94652857D01*
X114355714Y-94557619D01*
X114403333Y-94510000D01*
X114498571Y-94462381D01*
X114689048Y-94462381D01*
X114784286Y-94510000D01*
X114831905Y-94557619D01*
X114879524Y-94652857D01*
X114879524Y-94890952D01*
X114831905Y-94986190D01*
X114784286Y-95033810D01*
X114689048Y-95081429D01*
X114498571Y-95081429D01*
X114403333Y-95033810D01*
X114355714Y-94986190D01*
X114308095Y-94890952D01*
X116212857Y-98002381D02*
X116546191Y-97526190D01*
X116784286Y-98002381D02*
X116784286Y-97002381D01*
X116403333Y-97002381D01*
X116308095Y-97050000D01*
X116260476Y-97097619D01*
X116212857Y-97192857D01*
X116212857Y-97335714D01*
X116260476Y-97430952D01*
X116308095Y-97478571D01*
X116403333Y-97526190D01*
X116784286Y-97526190D01*
X115831905Y-97097619D02*
X115784286Y-97050000D01*
X115689048Y-97002381D01*
X115450952Y-97002381D01*
X115355714Y-97050000D01*
X115308095Y-97097619D01*
X115260476Y-97192857D01*
X115260476Y-97288095D01*
X115308095Y-97430952D01*
X115879524Y-98002381D01*
X115260476Y-98002381D01*
X114641429Y-97002381D02*
X114546190Y-97002381D01*
X114450952Y-97050000D01*
X114403333Y-97097619D01*
X114355714Y-97192857D01*
X114308095Y-97383333D01*
X114308095Y-97621429D01*
X114355714Y-97811905D01*
X114403333Y-97907143D01*
X114450952Y-97954762D01*
X114546190Y-98002381D01*
X114641429Y-98002381D01*
X114736667Y-97954762D01*
X114784286Y-97907143D01*
X114831905Y-97811905D01*
X114879524Y-97621429D01*
X114879524Y-97383333D01*
X114831905Y-97192857D01*
X114784286Y-97097619D01*
X114736667Y-97050000D01*
X114641429Y-97002381D01*
X113791905Y-75962381D02*
X113791905Y-76771905D01*
X113744286Y-76867143D01*
X113696667Y-76914762D01*
X113601429Y-76962381D01*
X113410952Y-76962381D01*
X113315714Y-76914762D01*
X113268095Y-76867143D01*
X113220476Y-76771905D01*
X113220476Y-75962381D01*
X112220476Y-76962381D02*
X112791905Y-76962381D01*
X112506191Y-76962381D02*
X112506191Y-75962381D01*
X112601429Y-76105238D01*
X112696667Y-76200476D01*
X112791905Y-76248095D01*
M02*
