M48
;DRILL file {KiCad 4.0.7} date 04/11/18 17:00:41
;FORMAT={-:-/ absolute / inch / decimal}
FMAT,2
INCH,TZ
T1C0.024
T2C0.035
T3C0.040
T4C0.043
%
G90
G05
M72
T1
X5.3Y-2.4
X5.45Y-2.5
T2
X4.3Y-4.6
X4.3Y-4.7
X4.65Y-1.8
X4.75Y-1.8
X4.85Y-1.8
X4.95Y-1.8
X5.6Y-1.8
X5.7Y-1.8
X5.8Y-1.8
X5.9Y-1.8
T3
X4.5Y-2.25
X4.5Y-2.35
X4.5Y-2.45
X4.5Y-2.55
X4.5Y-2.65
X4.6Y-2.25
X4.6Y-2.35
X4.6Y-2.45
X4.6Y-2.55
X4.6Y-2.65
X4.75Y-2.25
X4.75Y-2.35
X4.75Y-2.45
X4.75Y-2.55
X4.75Y-2.65
X4.75Y-2.75
X4.75Y-2.85
X4.75Y-2.95
X4.75Y-3.05
X4.75Y-3.15
X4.75Y-3.25
X4.75Y-3.35
X4.75Y-3.45
X4.75Y-3.55
X4.75Y-3.65
X4.75Y-3.75
X4.75Y-3.85
X4.75Y-3.95
X4.75Y-4.05
X4.75Y-4.15
X4.95Y-4.35
X4.95Y-4.875
X5.85Y-2.25
X5.85Y-2.35
X5.85Y-2.45
X5.85Y-2.55
X5.85Y-2.65
X5.85Y-2.75
X5.85Y-2.85
X5.85Y-2.95
X5.85Y-3.05
X5.85Y-3.15
X5.85Y-3.25
X5.85Y-3.35
X5.85Y-3.45
X5.85Y-3.55
X5.85Y-3.65
X5.85Y-3.75
X5.85Y-3.85
X5.85Y-3.95
X5.85Y-4.05
X5.85Y-4.15
X5.85Y-4.35
X5.85Y-4.875
X6.Y-2.25
X6.Y-2.35
X6.Y-2.45
X6.Y-2.55
X6.Y-2.65
X6.Y-2.75
X6.Y-2.85
X6.Y-2.95
X6.Y-3.45
X6.Y-3.55
X6.Y-3.65
X6.Y-3.75
X6.Y-3.85
X6.1Y-2.25
X6.1Y-2.35
X6.1Y-2.45
X6.1Y-2.55
X6.1Y-2.65
X6.1Y-2.75
X6.1Y-2.85
X6.1Y-2.95
X6.1Y-3.45
X6.1Y-3.55
X6.1Y-3.65
X6.1Y-3.75
X6.1Y-3.85
X6.3Y-4.1
X6.3Y-4.25
X6.4Y-4.1
X6.4Y-4.25
X6.5Y-4.1
X6.5Y-4.25
T4
X4.35Y-2.85
X4.35Y-2.95
X4.35Y-3.35
X4.35Y-3.45
X4.35Y-3.55
X4.35Y-3.65
X4.35Y-3.75
X4.35Y-3.85
X4.35Y-4.35
X4.35Y-4.45
X6.5Y-2.35
X6.5Y-2.45
X6.5Y-2.55
X6.5Y-2.65
X6.5Y-2.75
X6.5Y-2.85
X6.5Y-2.95
X6.5Y-3.05
X6.5Y-3.15
X6.5Y-3.25
X6.5Y-3.35
X6.5Y-3.45
X6.5Y-3.55
X6.5Y-3.65
T0
M30
