%TF.GenerationSoftware,KiCad,Pcbnew,4.0.7*%
%TF.CreationDate,2018-04-11T17:00:31+03:00*%
%TF.ProjectId,mmnet_base_00,6D6D6E65745F626173655F30302E6B69,rev?*%
%TF.FileFunction,Copper,L2,Bot,Signal*%
%FSLAX46Y46*%
G04 Gerber Fmt 4.6, Leading zero omitted, Abs format (unit mm)*
G04 Created by KiCad (PCBNEW 4.0.7) date 04/11/18 17:00:31*
%MOMM*%
%LPD*%
G01*
G04 APERTURE LIST*
%ADD10C,0.100000*%
%ADD11C,0.150000*%
%ADD12R,1.600000X2.000000*%
%ADD13R,2.999740X1.998980*%
%ADD14R,2.000000X1.600000*%
%ADD15R,3.500000X2.700000*%
%ADD16R,2.032000X1.524000*%
%ADD17O,1.998980X1.998980*%
%ADD18R,1.998980X1.998980*%
%ADD19R,2.235200X2.235200*%
%ADD20R,1.727200X1.727200*%
%ADD21O,1.727200X1.727200*%
%ADD22R,2.032000X1.727200*%
%ADD23O,2.032000X1.727200*%
%ADD24R,1.727200X2.032000*%
%ADD25O,1.727200X2.032000*%
%ADD26R,2.000000X1.700000*%
%ADD27R,1.700000X2.000000*%
%ADD28R,1.550000X0.600000*%
%ADD29R,1.800000X1.800000*%
%ADD30C,1.800000*%
%ADD31C,1.200000*%
%ADD32C,0.250000*%
%ADD33C,0.500000*%
%ADD34C,1.000000*%
%ADD35C,0.254000*%
G04 APERTURE END LIST*
D10*
D11*
X170180000Y-41910000D02*
X170180000Y-132080000D01*
X104140000Y-41910000D02*
X104140000Y-132080000D01*
X170180000Y-132080000D02*
X104140000Y-132080000D01*
X104140000Y-41910000D02*
X170180000Y-41910000D01*
D12*
X107950000Y-78010000D03*
X107950000Y-82010000D03*
X128270000Y-100870000D03*
X128270000Y-104870000D03*
D13*
X135890000Y-98600260D03*
X135890000Y-104599740D03*
D14*
X141510000Y-77470000D03*
X145510000Y-77470000D03*
D13*
X111760000Y-105869740D03*
X111760000Y-99870260D03*
D12*
X107950000Y-102140000D03*
X107950000Y-106140000D03*
D15*
X121510000Y-110490000D03*
X114710000Y-110490000D03*
D16*
X116840000Y-102489000D03*
X116840000Y-105791000D03*
D17*
X110490000Y-113030000D03*
D18*
X110490000Y-110490000D03*
D17*
X110490000Y-74930000D03*
D18*
X110490000Y-72390000D03*
D17*
X165100000Y-59690000D03*
D18*
X165100000Y-64770000D03*
D17*
X165100000Y-62230000D03*
X165100000Y-69850000D03*
D18*
X165100000Y-77470000D03*
D17*
X165100000Y-74930000D03*
X165100000Y-72390000D03*
X165100000Y-67310000D03*
X165100000Y-80010000D03*
D18*
X165100000Y-85090000D03*
D17*
X165100000Y-82550000D03*
X165100000Y-87630000D03*
D18*
X165100000Y-92710000D03*
D17*
X165100000Y-90170000D03*
X110490000Y-92710000D03*
D18*
X110490000Y-85090000D03*
D17*
X110490000Y-87630000D03*
X110490000Y-90170000D03*
X110490000Y-95250000D03*
X110490000Y-97790000D03*
D19*
X125730000Y-110490000D03*
X125730000Y-123825000D03*
D20*
X116840000Y-57150000D03*
D21*
X114300000Y-57150000D03*
X116840000Y-59690000D03*
X114300000Y-59690000D03*
X116840000Y-62230000D03*
X114300000Y-62230000D03*
X116840000Y-64770000D03*
X114300000Y-64770000D03*
X116840000Y-67310000D03*
X114300000Y-67310000D03*
D19*
X148590000Y-110490000D03*
X148590000Y-123825000D03*
D22*
X120650000Y-57150000D03*
D23*
X120650000Y-59690000D03*
X120650000Y-62230000D03*
X120650000Y-64770000D03*
X120650000Y-67310000D03*
X120650000Y-69850000D03*
X120650000Y-72390000D03*
X120650000Y-74930000D03*
X120650000Y-77470000D03*
X120650000Y-80010000D03*
X120650000Y-82550000D03*
X120650000Y-85090000D03*
X120650000Y-87630000D03*
X120650000Y-90170000D03*
X120650000Y-92710000D03*
X120650000Y-95250000D03*
X120650000Y-97790000D03*
X120650000Y-100330000D03*
X120650000Y-102870000D03*
X120650000Y-105410000D03*
D22*
X148590000Y-57150000D03*
D23*
X148590000Y-59690000D03*
X148590000Y-62230000D03*
X148590000Y-64770000D03*
X148590000Y-67310000D03*
X148590000Y-69850000D03*
X148590000Y-72390000D03*
X148590000Y-74930000D03*
X148590000Y-77470000D03*
X148590000Y-80010000D03*
X148590000Y-82550000D03*
X148590000Y-85090000D03*
X148590000Y-87630000D03*
X148590000Y-90170000D03*
X148590000Y-92710000D03*
X148590000Y-95250000D03*
X148590000Y-97790000D03*
X148590000Y-100330000D03*
X148590000Y-102870000D03*
X148590000Y-105410000D03*
D24*
X160020000Y-104140000D03*
D25*
X162560000Y-104140000D03*
X165100000Y-104140000D03*
D24*
X160020000Y-107950000D03*
D25*
X162560000Y-107950000D03*
X165100000Y-107950000D03*
D20*
X154940000Y-57150000D03*
D21*
X152400000Y-57150000D03*
X154940000Y-59690000D03*
X152400000Y-59690000D03*
X154940000Y-62230000D03*
X152400000Y-62230000D03*
X154940000Y-64770000D03*
X152400000Y-64770000D03*
X154940000Y-67310000D03*
X152400000Y-67310000D03*
X154940000Y-69850000D03*
X152400000Y-69850000D03*
X154940000Y-72390000D03*
X152400000Y-72390000D03*
X154940000Y-74930000D03*
X152400000Y-74930000D03*
D20*
X152400000Y-97790000D03*
D21*
X154940000Y-97790000D03*
X152400000Y-95250000D03*
X154940000Y-95250000D03*
X152400000Y-92710000D03*
X154940000Y-92710000D03*
X152400000Y-90170000D03*
X154940000Y-90170000D03*
X152400000Y-87630000D03*
X154940000Y-87630000D03*
D26*
X127540000Y-73660000D03*
X131540000Y-73660000D03*
X127540000Y-76200000D03*
X131540000Y-76200000D03*
X123730000Y-87630000D03*
X127730000Y-87630000D03*
X123730000Y-90170000D03*
X127730000Y-90170000D03*
X123730000Y-92710000D03*
X127730000Y-92710000D03*
X123730000Y-95250000D03*
X127730000Y-95250000D03*
D27*
X114300000Y-118840000D03*
X114300000Y-114840000D03*
X127000000Y-61500000D03*
X127000000Y-65500000D03*
X130810000Y-61500000D03*
X130810000Y-65500000D03*
X142240000Y-60230000D03*
X142240000Y-64230000D03*
D26*
X160560000Y-100330000D03*
X164560000Y-100330000D03*
X155670000Y-102870000D03*
X151670000Y-102870000D03*
X145510000Y-85090000D03*
X141510000Y-85090000D03*
X145510000Y-87630000D03*
X141510000Y-87630000D03*
D27*
X160020000Y-88360000D03*
X160020000Y-84360000D03*
D26*
X162020000Y-92710000D03*
X158020000Y-92710000D03*
X113570000Y-87630000D03*
X117570000Y-87630000D03*
X113570000Y-90170000D03*
X117570000Y-90170000D03*
X113570000Y-92710000D03*
X117570000Y-92710000D03*
X113570000Y-95250000D03*
X117570000Y-95250000D03*
D28*
X115730000Y-78105000D03*
X115730000Y-79375000D03*
X115730000Y-80645000D03*
X115730000Y-81915000D03*
X110330000Y-81915000D03*
X110330000Y-80645000D03*
X110330000Y-79375000D03*
X110330000Y-78105000D03*
D29*
X109220000Y-116840000D03*
D30*
X109220000Y-119380000D03*
D29*
X123190000Y-45720000D03*
D30*
X125730000Y-45720000D03*
D29*
X120650000Y-45720000D03*
D30*
X118110000Y-45720000D03*
D29*
X142240000Y-45720000D03*
D30*
X144780000Y-45720000D03*
D29*
X149860000Y-45720000D03*
D30*
X147320000Y-45720000D03*
D31*
X134620000Y-60960000D03*
X138430000Y-63500000D03*
D32*
X153670000Y-53340000D02*
X147320000Y-46990000D01*
X147320000Y-46990000D02*
X147320000Y-45720000D01*
X147320000Y-45720000D02*
X144780000Y-45720000D01*
D33*
X116840000Y-105791000D02*
X116840000Y-106680000D01*
X116300000Y-114840000D02*
X114300000Y-114840000D01*
X118110000Y-113030000D02*
X116300000Y-114840000D01*
X118110000Y-107950000D02*
X118110000Y-113030000D01*
X116840000Y-106680000D02*
X118110000Y-107950000D01*
D34*
X148590000Y-110490000D02*
X149860000Y-110490000D01*
X149860000Y-110490000D02*
X152400000Y-107950000D01*
X152400000Y-107950000D02*
X160020000Y-107950000D01*
D32*
X137160000Y-63500000D02*
X138430000Y-63500000D01*
X134620000Y-60960000D02*
X137160000Y-63500000D01*
D33*
X135890000Y-66040000D02*
X135890000Y-98600260D01*
D32*
X138430000Y-63500000D02*
X135890000Y-66040000D01*
X152400000Y-64770000D02*
X153670000Y-63500000D01*
X153670000Y-54610000D02*
X153670000Y-53340000D01*
X153670000Y-63500000D02*
X153670000Y-54610000D01*
D33*
X107950000Y-78010000D02*
X107950000Y-63500000D01*
X109220000Y-62230000D02*
X114300000Y-62230000D01*
X107950000Y-63500000D02*
X109220000Y-62230000D01*
X120650000Y-102870000D02*
X124460000Y-102870000D01*
X126460000Y-100870000D02*
X128270000Y-100870000D01*
X124460000Y-102870000D02*
X126460000Y-100870000D01*
X127730000Y-95250000D02*
X127730000Y-100330000D01*
X127730000Y-100330000D02*
X128270000Y-100870000D01*
X128270000Y-100870000D02*
X133620260Y-100870000D01*
X133620260Y-100870000D02*
X135890000Y-98600260D01*
X131540000Y-73660000D02*
X131540000Y-76200000D01*
X131540000Y-76200000D02*
X130810000Y-76930000D01*
X130810000Y-76930000D02*
X130810000Y-86360000D01*
X130810000Y-86360000D02*
X129540000Y-87630000D01*
X129540000Y-87630000D02*
X127730000Y-87630000D01*
X110330000Y-78105000D02*
X108045000Y-78105000D01*
X108045000Y-78105000D02*
X107950000Y-78010000D01*
X116840000Y-105791000D02*
X117729000Y-105791000D01*
X117729000Y-105791000D02*
X120650000Y-102870000D01*
X127730000Y-87630000D02*
X127730000Y-90170000D01*
X127730000Y-90170000D02*
X127730000Y-92710000D01*
X127730000Y-92710000D02*
X127730000Y-95250000D01*
X160020000Y-104140000D02*
X160020000Y-100870000D01*
X160020000Y-100870000D02*
X160560000Y-100330000D01*
X160020000Y-107950000D02*
X160020000Y-104140000D01*
X114300000Y-57150000D02*
X114300000Y-53340000D01*
X114300000Y-53340000D02*
X120650000Y-46990000D01*
X120650000Y-46990000D02*
X120650000Y-45720000D01*
X120650000Y-45720000D02*
X123190000Y-45720000D01*
X107950000Y-82010000D02*
X106140000Y-82010000D01*
X106680000Y-57150000D02*
X114300000Y-57150000D01*
X105410000Y-58420000D02*
X106680000Y-57150000D01*
X105410000Y-81280000D02*
X105410000Y-58420000D01*
X106140000Y-82010000D02*
X105410000Y-81280000D01*
X110490000Y-97790000D02*
X110490000Y-98600260D01*
X110490000Y-98600260D02*
X111760000Y-99870260D01*
X107950000Y-102140000D02*
X109490260Y-102140000D01*
X109490260Y-102140000D02*
X111760000Y-99870260D01*
X109220000Y-116840000D02*
X109220000Y-114300000D01*
X109220000Y-114300000D02*
X110490000Y-113030000D01*
D34*
X135890000Y-104599740D02*
X135890000Y-113665000D01*
X135890000Y-113665000D02*
X125730000Y-123825000D01*
X148590000Y-123825000D02*
X125730000Y-123825000D01*
D32*
X114300000Y-67310000D02*
X115570000Y-66040000D01*
X115570000Y-66040000D02*
X115570000Y-58420000D01*
X115570000Y-58420000D02*
X114300000Y-57150000D01*
D33*
X128270000Y-104870000D02*
X135619740Y-104870000D01*
X135619740Y-104870000D02*
X135890000Y-104599740D01*
X120650000Y-105410000D02*
X127730000Y-105410000D01*
X127730000Y-105410000D02*
X128270000Y-104870000D01*
X141510000Y-77470000D02*
X141510000Y-85090000D01*
X141510000Y-85090000D02*
X141510000Y-87630000D01*
X141510000Y-87630000D02*
X140970000Y-88170000D01*
X140970000Y-88170000D02*
X140970000Y-102870000D01*
X140970000Y-102870000D02*
X139240260Y-104599740D01*
X139240260Y-104599740D02*
X135890000Y-104599740D01*
X110330000Y-81915000D02*
X108045000Y-81915000D01*
X108045000Y-81915000D02*
X107950000Y-82010000D01*
X165100000Y-107950000D02*
X165100000Y-104140000D01*
X167640000Y-77470000D02*
X167640000Y-62230000D01*
X167640000Y-62230000D02*
X165100000Y-62230000D01*
X167640000Y-82550000D02*
X167640000Y-77470000D01*
X167640000Y-77470000D02*
X165100000Y-77470000D01*
X165100000Y-90170000D02*
X167640000Y-90170000D01*
X167640000Y-90170000D02*
X167640000Y-82550000D01*
X167640000Y-82550000D02*
X165100000Y-82550000D01*
X148590000Y-77470000D02*
X145510000Y-77470000D01*
X107950000Y-106140000D02*
X107410000Y-106140000D01*
X107410000Y-106140000D02*
X105410000Y-104140000D01*
X106680000Y-85090000D02*
X110490000Y-85090000D01*
X105410000Y-86360000D02*
X106680000Y-85090000D01*
X105410000Y-104140000D02*
X105410000Y-86360000D01*
X107950000Y-106140000D02*
X111489740Y-106140000D01*
X111489740Y-106140000D02*
X111760000Y-105869740D01*
X116840000Y-102489000D02*
X113411000Y-102489000D01*
X111760000Y-104140000D02*
X111760000Y-105869740D01*
X113411000Y-102489000D02*
X111760000Y-104140000D01*
D34*
X121510000Y-110490000D02*
X125730000Y-110490000D01*
X110490000Y-110490000D02*
X114710000Y-110490000D01*
D33*
X109220000Y-119380000D02*
X113760000Y-119380000D01*
X113760000Y-119380000D02*
X114300000Y-118840000D01*
X127000000Y-61500000D02*
X127000000Y-46990000D01*
X127000000Y-46990000D02*
X125730000Y-45720000D01*
X118110000Y-45720000D02*
X118110000Y-44450000D01*
X118110000Y-44450000D02*
X119380000Y-43180000D01*
X119380000Y-43180000D02*
X128270000Y-43180000D01*
X128270000Y-43180000D02*
X129540000Y-43180000D01*
X129540000Y-43180000D02*
X130810000Y-44450000D01*
X130810000Y-44450000D02*
X130810000Y-61500000D01*
D32*
X142240000Y-45720000D02*
X142240000Y-60230000D01*
X157480000Y-54610000D02*
X158750000Y-55880000D01*
X149860000Y-45720000D02*
X149860000Y-46990000D01*
X149860000Y-46990000D02*
X157480000Y-54610000D01*
X158750000Y-55880000D02*
X167640000Y-55880000D01*
X167640000Y-55880000D02*
X168910000Y-57150000D01*
X155670000Y-102870000D02*
X156210000Y-102870000D01*
X156210000Y-102870000D02*
X158750000Y-100330000D01*
X158750000Y-100330000D02*
X158750000Y-97790000D01*
X158750000Y-97790000D02*
X160020000Y-96520000D01*
X160020000Y-96520000D02*
X167640000Y-96520000D01*
X167640000Y-96520000D02*
X168910000Y-95250000D01*
X168910000Y-95250000D02*
X168910000Y-57150000D01*
D33*
X110330000Y-79375000D02*
X111125000Y-79375000D01*
X111760000Y-76200000D02*
X110490000Y-74930000D01*
X111760000Y-78740000D02*
X111760000Y-76200000D01*
X111125000Y-79375000D02*
X111760000Y-78740000D01*
X110330000Y-80645000D02*
X112395000Y-80645000D01*
X111760000Y-72390000D02*
X110490000Y-72390000D01*
X113030000Y-73660000D02*
X111760000Y-72390000D01*
X113030000Y-80010000D02*
X113030000Y-73660000D01*
X112395000Y-80645000D02*
X113030000Y-80010000D01*
X154940000Y-57150000D02*
X163830000Y-57150000D01*
X165100000Y-58420000D02*
X165100000Y-59690000D01*
X163830000Y-57150000D02*
X165100000Y-58420000D01*
X154940000Y-59690000D02*
X161290000Y-59690000D01*
X163830000Y-64770000D02*
X165100000Y-64770000D01*
X162560000Y-63500000D02*
X163830000Y-64770000D01*
X162560000Y-60960000D02*
X162560000Y-63500000D01*
X161290000Y-59690000D02*
X162560000Y-60960000D01*
X154940000Y-69850000D02*
X165100000Y-69850000D01*
X154940000Y-74930000D02*
X165100000Y-74930000D01*
X165100000Y-72390000D02*
X154940000Y-72390000D01*
X165100000Y-67310000D02*
X154940000Y-67310000D01*
X165100000Y-80010000D02*
X148590000Y-80010000D01*
X148590000Y-82550000D02*
X157480000Y-82550000D01*
X163830000Y-85090000D02*
X165100000Y-85090000D01*
X162560000Y-83820000D02*
X163830000Y-85090000D01*
X162560000Y-82550000D02*
X162560000Y-83820000D01*
X161290000Y-81280000D02*
X162560000Y-82550000D01*
X158750000Y-81280000D02*
X161290000Y-81280000D01*
X157480000Y-82550000D02*
X158750000Y-81280000D01*
X165100000Y-87630000D02*
X160750000Y-87630000D01*
X160750000Y-87630000D02*
X160020000Y-88360000D01*
X165100000Y-92710000D02*
X162020000Y-92710000D01*
X110490000Y-92710000D02*
X113570000Y-92710000D01*
X110490000Y-87630000D02*
X113570000Y-87630000D01*
X110490000Y-90170000D02*
X113570000Y-90170000D01*
X110490000Y-95250000D02*
X113570000Y-95250000D01*
X120650000Y-57150000D02*
X116840000Y-57150000D01*
X120650000Y-80010000D02*
X127000000Y-80010000D01*
X127540000Y-79470000D02*
X127540000Y-76200000D01*
X127000000Y-80010000D02*
X127540000Y-79470000D01*
X116840000Y-59690000D02*
X120650000Y-59690000D01*
X116840000Y-62230000D02*
X120650000Y-62230000D01*
X120650000Y-77470000D02*
X123190000Y-77470000D01*
X125730000Y-73660000D02*
X127540000Y-73660000D01*
X124460000Y-74930000D02*
X125730000Y-73660000D01*
X124460000Y-76200000D02*
X124460000Y-74930000D01*
X123190000Y-77470000D02*
X124460000Y-76200000D01*
X116840000Y-64770000D02*
X120650000Y-64770000D01*
X116840000Y-67310000D02*
X120650000Y-67310000D01*
X120650000Y-72390000D02*
X121920000Y-72390000D01*
X124460000Y-66040000D02*
X126460000Y-66040000D01*
X123190000Y-67310000D02*
X124460000Y-66040000D01*
X123190000Y-71120000D02*
X123190000Y-67310000D01*
X121920000Y-72390000D02*
X123190000Y-71120000D01*
X126460000Y-66040000D02*
X127000000Y-65500000D01*
X120650000Y-74930000D02*
X121920000Y-74930000D01*
X130810000Y-67310000D02*
X130810000Y-65500000D01*
X129540000Y-68580000D02*
X130810000Y-67310000D01*
X125730000Y-68580000D02*
X129540000Y-68580000D01*
X124460000Y-69850000D02*
X125730000Y-68580000D01*
X124460000Y-72390000D02*
X124460000Y-69850000D01*
X121920000Y-74930000D02*
X124460000Y-72390000D01*
X115730000Y-79375000D02*
X114935000Y-79375000D01*
X115570000Y-74930000D02*
X120650000Y-74930000D01*
X114300000Y-76200000D02*
X115570000Y-74930000D01*
X114300000Y-78740000D02*
X114300000Y-76200000D01*
X114935000Y-79375000D02*
X114300000Y-78740000D01*
X115730000Y-80645000D02*
X115730000Y-79375000D01*
X120650000Y-82550000D02*
X119380000Y-82550000D01*
X117475000Y-78105000D02*
X115730000Y-78105000D01*
X118110000Y-78740000D02*
X117475000Y-78105000D01*
X118110000Y-81280000D02*
X118110000Y-78740000D01*
X119380000Y-82550000D02*
X118110000Y-81280000D01*
X120650000Y-85090000D02*
X116840000Y-85090000D01*
X115570000Y-83820000D02*
X115570000Y-82075000D01*
X116840000Y-85090000D02*
X115570000Y-83820000D01*
X115570000Y-82075000D02*
X115730000Y-81915000D01*
X117570000Y-87630000D02*
X120650000Y-87630000D01*
X120650000Y-87630000D02*
X123730000Y-87630000D01*
X123730000Y-90170000D02*
X120650000Y-90170000D01*
X120650000Y-90170000D02*
X117570000Y-90170000D01*
X117570000Y-92710000D02*
X120650000Y-92710000D01*
X120650000Y-92710000D02*
X123730000Y-92710000D01*
X120650000Y-95250000D02*
X117570000Y-95250000D01*
X123730000Y-95250000D02*
X120650000Y-95250000D01*
X148590000Y-64770000D02*
X142780000Y-64770000D01*
X142780000Y-64770000D02*
X142240000Y-64230000D01*
X148590000Y-72390000D02*
X152400000Y-72390000D01*
X148590000Y-74930000D02*
X152400000Y-74930000D01*
X148590000Y-85090000D02*
X145510000Y-85090000D01*
X148590000Y-85090000D02*
X149860000Y-83820000D01*
X149860000Y-83820000D02*
X159480000Y-83820000D01*
X159480000Y-83820000D02*
X160020000Y-84360000D01*
X148590000Y-87630000D02*
X145510000Y-87630000D01*
X158020000Y-92710000D02*
X158020000Y-91980000D01*
X158020000Y-91980000D02*
X157480000Y-91440000D01*
X157480000Y-91440000D02*
X157480000Y-86360000D01*
X157480000Y-86360000D02*
X156210000Y-85090000D01*
X156210000Y-85090000D02*
X151130000Y-85090000D01*
X151130000Y-85090000D02*
X148590000Y-87630000D01*
D32*
X152400000Y-97790000D02*
X153670000Y-96520000D01*
X149860000Y-90170000D02*
X148590000Y-90170000D01*
X151130000Y-91440000D02*
X149860000Y-90170000D01*
X153670000Y-91440000D02*
X151130000Y-91440000D01*
X153670000Y-96520000D02*
X153670000Y-91440000D01*
D33*
X152400000Y-92710000D02*
X148590000Y-92710000D01*
X148590000Y-95250000D02*
X152400000Y-95250000D01*
D32*
X152400000Y-87630000D02*
X151130000Y-88900000D01*
X147320000Y-97790000D02*
X148590000Y-97790000D01*
X146050000Y-96520000D02*
X147320000Y-97790000D01*
X146050000Y-90170000D02*
X146050000Y-96520000D01*
X147320000Y-88900000D02*
X146050000Y-90170000D01*
X151130000Y-88900000D02*
X147320000Y-88900000D01*
D33*
X153670000Y-110490000D02*
X153670000Y-111760000D01*
X144780000Y-113030000D02*
X144780000Y-110490000D01*
X146050000Y-114300000D02*
X144780000Y-113030000D01*
X151130000Y-114300000D02*
X146050000Y-114300000D01*
X153670000Y-111760000D02*
X151130000Y-114300000D01*
X162560000Y-107950000D02*
X162560000Y-110490000D01*
X146050000Y-100330000D02*
X148590000Y-100330000D01*
X144780000Y-110490000D02*
X144780000Y-101600000D01*
X144780000Y-101600000D02*
X146050000Y-100330000D01*
X162560000Y-110490000D02*
X153670000Y-110490000D01*
X162560000Y-104140000D02*
X162560000Y-102870000D01*
X162560000Y-102870000D02*
X164560000Y-100870000D01*
X164560000Y-100870000D02*
X164560000Y-100330000D01*
X162560000Y-107950000D02*
X162560000Y-104140000D01*
X148590000Y-105410000D02*
X153670000Y-105410000D01*
X157480000Y-95250000D02*
X154940000Y-92710000D01*
X157480000Y-99060000D02*
X157480000Y-95250000D01*
X156210000Y-100330000D02*
X157480000Y-99060000D01*
X153670000Y-100330000D02*
X156210000Y-100330000D01*
X153670000Y-105410000D02*
X153670000Y-100330000D01*
X148590000Y-57150000D02*
X152400000Y-57150000D01*
X152400000Y-59690000D02*
X148590000Y-59690000D01*
X152400000Y-67310000D02*
X148590000Y-67310000D01*
X148590000Y-69850000D02*
X152400000Y-69850000D01*
D35*
G36*
X117484210Y-43824210D02*
X117292367Y-44111325D01*
X117292367Y-44111326D01*
X117228838Y-44430701D01*
X116809449Y-44849357D01*
X116575267Y-45413330D01*
X116574735Y-46023991D01*
X116807932Y-46588371D01*
X117239357Y-47020551D01*
X117803330Y-47254733D01*
X118413991Y-47255265D01*
X118978371Y-47022068D01*
X119155841Y-46844908D01*
X119211673Y-46979699D01*
X119390302Y-47158327D01*
X119623691Y-47255000D01*
X120364250Y-47255000D01*
X120523000Y-47096250D01*
X120523000Y-45847000D01*
X120777000Y-45847000D01*
X120777000Y-47096250D01*
X120935750Y-47255000D01*
X121676309Y-47255000D01*
X121909698Y-47158327D01*
X121920000Y-47148025D01*
X121930302Y-47158327D01*
X122163691Y-47255000D01*
X122904250Y-47255000D01*
X123063000Y-47096250D01*
X123063000Y-45847000D01*
X120777000Y-45847000D01*
X120523000Y-45847000D01*
X120503000Y-45847000D01*
X120503000Y-45593000D01*
X120523000Y-45593000D01*
X120523000Y-44343750D01*
X120777000Y-44343750D01*
X120777000Y-45593000D01*
X123063000Y-45593000D01*
X123063000Y-44343750D01*
X123317000Y-44343750D01*
X123317000Y-45593000D01*
X123337000Y-45593000D01*
X123337000Y-45847000D01*
X123317000Y-45847000D01*
X123317000Y-47096250D01*
X123475750Y-47255000D01*
X124216309Y-47255000D01*
X124449698Y-47158327D01*
X124628327Y-46979699D01*
X124684119Y-46845006D01*
X124859357Y-47020551D01*
X125423330Y-47254733D01*
X126013668Y-47255247D01*
X126115000Y-47356579D01*
X126115000Y-59859146D01*
X125914683Y-59896838D01*
X125698559Y-60035910D01*
X125553569Y-60248110D01*
X125502560Y-60500000D01*
X125502560Y-62500000D01*
X125546838Y-62735317D01*
X125685910Y-62951441D01*
X125898110Y-63096431D01*
X126150000Y-63147440D01*
X127850000Y-63147440D01*
X128085317Y-63103162D01*
X128301441Y-62964090D01*
X128446431Y-62751890D01*
X128497440Y-62500000D01*
X128497440Y-60500000D01*
X128453162Y-60264683D01*
X128314090Y-60048559D01*
X128101890Y-59903569D01*
X127885000Y-59859648D01*
X127885000Y-46990005D01*
X127885001Y-46990000D01*
X127817633Y-46651325D01*
X127775569Y-46588371D01*
X127625790Y-46364210D01*
X127625787Y-46364208D01*
X127264753Y-46003174D01*
X127265265Y-45416009D01*
X127032068Y-44851629D01*
X126600643Y-44419449D01*
X126036670Y-44185267D01*
X125426009Y-44184735D01*
X124861629Y-44417932D01*
X124684159Y-44595092D01*
X124628327Y-44460301D01*
X124449698Y-44281673D01*
X124216309Y-44185000D01*
X123475750Y-44185000D01*
X123317000Y-44343750D01*
X123063000Y-44343750D01*
X122904250Y-44185000D01*
X122163691Y-44185000D01*
X121930302Y-44281673D01*
X121920000Y-44291975D01*
X121909698Y-44281673D01*
X121676309Y-44185000D01*
X120935750Y-44185000D01*
X120777000Y-44343750D01*
X120523000Y-44343750D01*
X120364250Y-44185000D01*
X119626579Y-44185000D01*
X119746579Y-44065000D01*
X129173420Y-44065000D01*
X129925000Y-44816579D01*
X129925000Y-59859146D01*
X129724683Y-59896838D01*
X129508559Y-60035910D01*
X129363569Y-60248110D01*
X129312560Y-60500000D01*
X129312560Y-62500000D01*
X129356838Y-62735317D01*
X129495910Y-62951441D01*
X129708110Y-63096431D01*
X129960000Y-63147440D01*
X131660000Y-63147440D01*
X131895317Y-63103162D01*
X132111441Y-62964090D01*
X132256431Y-62751890D01*
X132307440Y-62500000D01*
X132307440Y-60500000D01*
X132263162Y-60264683D01*
X132124090Y-60048559D01*
X131911890Y-59903569D01*
X131695000Y-59859648D01*
X131695000Y-44450005D01*
X131695001Y-44450000D01*
X131627633Y-44111325D01*
X131596680Y-44065000D01*
X131435790Y-43824210D01*
X131435787Y-43824208D01*
X130231580Y-42620000D01*
X169470000Y-42620000D01*
X169470000Y-56646421D01*
X169447401Y-56612599D01*
X168177401Y-55342599D01*
X167930839Y-55177852D01*
X167640000Y-55120000D01*
X159064802Y-55120000D01*
X153917421Y-49972619D01*
X161594613Y-49972619D01*
X161934155Y-50794372D01*
X162562321Y-51423636D01*
X163383481Y-51764611D01*
X164272619Y-51765387D01*
X165094372Y-51425845D01*
X165723636Y-50797679D01*
X166064611Y-49976519D01*
X166065387Y-49087381D01*
X165725845Y-48265628D01*
X165097679Y-47636364D01*
X164276519Y-47295389D01*
X163387381Y-47294613D01*
X162565628Y-47634155D01*
X161936364Y-48262321D01*
X161595389Y-49083481D01*
X161594613Y-49972619D01*
X153917421Y-49972619D01*
X151100366Y-47155564D01*
X151211441Y-47084090D01*
X151356431Y-46871890D01*
X151407440Y-46620000D01*
X151407440Y-44820000D01*
X151363162Y-44584683D01*
X151224090Y-44368559D01*
X151011890Y-44223569D01*
X150760000Y-44172560D01*
X148960000Y-44172560D01*
X148724683Y-44216838D01*
X148508559Y-44355910D01*
X148363569Y-44568110D01*
X148359433Y-44588534D01*
X148190643Y-44419449D01*
X147626670Y-44185267D01*
X147016009Y-44184735D01*
X146451629Y-44417932D01*
X146049677Y-44819182D01*
X145650643Y-44419449D01*
X145086670Y-44185267D01*
X144476009Y-44184735D01*
X143911629Y-44417932D01*
X143743387Y-44585880D01*
X143743162Y-44584683D01*
X143604090Y-44368559D01*
X143391890Y-44223569D01*
X143140000Y-44172560D01*
X141340000Y-44172560D01*
X141104683Y-44216838D01*
X140888559Y-44355910D01*
X140743569Y-44568110D01*
X140692560Y-44820000D01*
X140692560Y-46620000D01*
X140736838Y-46855317D01*
X140875910Y-47071441D01*
X141088110Y-47216431D01*
X141340000Y-47267440D01*
X141480000Y-47267440D01*
X141480000Y-58582560D01*
X141390000Y-58582560D01*
X141154683Y-58626838D01*
X140938559Y-58765910D01*
X140793569Y-58978110D01*
X140742560Y-59230000D01*
X140742560Y-61230000D01*
X140786838Y-61465317D01*
X140925910Y-61681441D01*
X141138110Y-61826431D01*
X141390000Y-61877440D01*
X143090000Y-61877440D01*
X143325317Y-61833162D01*
X143541441Y-61694090D01*
X143686431Y-61481890D01*
X143737440Y-61230000D01*
X143737440Y-59230000D01*
X143693162Y-58994683D01*
X143554090Y-58778559D01*
X143341890Y-58633569D01*
X143090000Y-58582560D01*
X143000000Y-58582560D01*
X143000000Y-47267440D01*
X143140000Y-47267440D01*
X143375317Y-47223162D01*
X143591441Y-47084090D01*
X143736431Y-46871890D01*
X143740567Y-46851466D01*
X143909357Y-47020551D01*
X144473330Y-47254733D01*
X145083991Y-47255265D01*
X145648371Y-47022068D01*
X146050323Y-46620818D01*
X146449357Y-47020551D01*
X146576586Y-47073381D01*
X146617852Y-47280839D01*
X146782599Y-47527401D01*
X152910000Y-53654802D01*
X152910000Y-55723486D01*
X152400000Y-55622041D01*
X151826511Y-55736115D01*
X151340330Y-56060971D01*
X151204002Y-56265000D01*
X150249413Y-56265000D01*
X150209162Y-56051083D01*
X150070090Y-55834959D01*
X149857890Y-55689969D01*
X149606000Y-55638960D01*
X147574000Y-55638960D01*
X147338683Y-55683238D01*
X147122559Y-55822310D01*
X146977569Y-56034510D01*
X146926560Y-56286400D01*
X146926560Y-58013600D01*
X146970838Y-58248917D01*
X147109910Y-58465041D01*
X147322110Y-58610031D01*
X147363439Y-58618400D01*
X147345585Y-58630330D01*
X147020729Y-59116511D01*
X146906655Y-59690000D01*
X147020729Y-60263489D01*
X147345585Y-60749670D01*
X147660366Y-60960000D01*
X147345585Y-61170330D01*
X147020729Y-61656511D01*
X146906655Y-62230000D01*
X147020729Y-62803489D01*
X147345585Y-63289670D01*
X147660366Y-63500000D01*
X147345585Y-63710330D01*
X147228874Y-63885000D01*
X143737440Y-63885000D01*
X143737440Y-63230000D01*
X143693162Y-62994683D01*
X143554090Y-62778559D01*
X143341890Y-62633569D01*
X143090000Y-62582560D01*
X141390000Y-62582560D01*
X141154683Y-62626838D01*
X140938559Y-62765910D01*
X140793569Y-62978110D01*
X140742560Y-63230000D01*
X140742560Y-65230000D01*
X140786838Y-65465317D01*
X140925910Y-65681441D01*
X141138110Y-65826431D01*
X141390000Y-65877440D01*
X143090000Y-65877440D01*
X143325317Y-65833162D01*
X143541441Y-65694090D01*
X143568150Y-65655000D01*
X147228874Y-65655000D01*
X147345585Y-65829670D01*
X147660366Y-66040000D01*
X147345585Y-66250330D01*
X147020729Y-66736511D01*
X146906655Y-67310000D01*
X147020729Y-67883489D01*
X147345585Y-68369670D01*
X147660366Y-68580000D01*
X147345585Y-68790330D01*
X147020729Y-69276511D01*
X146906655Y-69850000D01*
X147020729Y-70423489D01*
X147345585Y-70909670D01*
X147660366Y-71120000D01*
X147345585Y-71330330D01*
X147020729Y-71816511D01*
X146906655Y-72390000D01*
X147020729Y-72963489D01*
X147345585Y-73449670D01*
X147660366Y-73660000D01*
X147345585Y-73870330D01*
X147020729Y-74356511D01*
X146906655Y-74930000D01*
X147020729Y-75503489D01*
X147345585Y-75989670D01*
X147660366Y-76200000D01*
X147345585Y-76410330D01*
X147228874Y-76585000D01*
X147141446Y-76585000D01*
X147113162Y-76434683D01*
X146974090Y-76218559D01*
X146761890Y-76073569D01*
X146510000Y-76022560D01*
X144510000Y-76022560D01*
X144274683Y-76066838D01*
X144058559Y-76205910D01*
X143913569Y-76418110D01*
X143862560Y-76670000D01*
X143862560Y-78270000D01*
X143906838Y-78505317D01*
X144045910Y-78721441D01*
X144258110Y-78866431D01*
X144510000Y-78917440D01*
X146510000Y-78917440D01*
X146745317Y-78873162D01*
X146961441Y-78734090D01*
X147106431Y-78521890D01*
X147140227Y-78355000D01*
X147228874Y-78355000D01*
X147345585Y-78529670D01*
X147660366Y-78740000D01*
X147345585Y-78950330D01*
X147020729Y-79436511D01*
X146906655Y-80010000D01*
X147020729Y-80583489D01*
X147345585Y-81069670D01*
X147660366Y-81280000D01*
X147345585Y-81490330D01*
X147020729Y-81976511D01*
X146906655Y-82550000D01*
X147020729Y-83123489D01*
X147345585Y-83609670D01*
X147660366Y-83820000D01*
X147345585Y-84030330D01*
X147228874Y-84205000D01*
X147150854Y-84205000D01*
X147113162Y-84004683D01*
X146974090Y-83788559D01*
X146761890Y-83643569D01*
X146510000Y-83592560D01*
X144510000Y-83592560D01*
X144274683Y-83636838D01*
X144058559Y-83775910D01*
X143913569Y-83988110D01*
X143862560Y-84240000D01*
X143862560Y-85940000D01*
X143906838Y-86175317D01*
X144027015Y-86362077D01*
X143913569Y-86528110D01*
X143862560Y-86780000D01*
X143862560Y-88480000D01*
X143906838Y-88715317D01*
X144045910Y-88931441D01*
X144258110Y-89076431D01*
X144510000Y-89127440D01*
X146017758Y-89127440D01*
X145512599Y-89632599D01*
X145347852Y-89879161D01*
X145290000Y-90170000D01*
X145290000Y-96520000D01*
X145347852Y-96810839D01*
X145512599Y-97057401D01*
X146782599Y-98327401D01*
X147029160Y-98492148D01*
X147118581Y-98509935D01*
X147345585Y-98849670D01*
X147660366Y-99060000D01*
X147345585Y-99270330D01*
X147228874Y-99445000D01*
X146050005Y-99445000D01*
X146050000Y-99444999D01*
X145711325Y-99512367D01*
X145424210Y-99704210D01*
X145424208Y-99704213D01*
X144154210Y-100974210D01*
X143962367Y-101261325D01*
X143962367Y-101261326D01*
X143894999Y-101600000D01*
X143895000Y-101600005D01*
X143895000Y-113029995D01*
X143894999Y-113030000D01*
X143951190Y-113312484D01*
X143962367Y-113368675D01*
X144108988Y-113588110D01*
X144154210Y-113655790D01*
X145424208Y-114925787D01*
X145424210Y-114925790D01*
X145711325Y-115117633D01*
X146050000Y-115185001D01*
X146050005Y-115185000D01*
X151129995Y-115185000D01*
X151130000Y-115185001D01*
X151412484Y-115128810D01*
X151468675Y-115117633D01*
X151755790Y-114925790D01*
X151755791Y-114925789D01*
X154295787Y-112385792D01*
X154295790Y-112385790D01*
X154487633Y-112098675D01*
X154555000Y-111760000D01*
X154555000Y-111375000D01*
X162560000Y-111375000D01*
X162898675Y-111307633D01*
X163185790Y-111115790D01*
X163377633Y-110828675D01*
X163445000Y-110490000D01*
X163445000Y-109311126D01*
X163619670Y-109194415D01*
X163826461Y-108884931D01*
X164197964Y-109300732D01*
X164725209Y-109554709D01*
X164740974Y-109557358D01*
X164973000Y-109436217D01*
X164973000Y-108077000D01*
X165227000Y-108077000D01*
X165227000Y-109436217D01*
X165459026Y-109557358D01*
X165474791Y-109554709D01*
X166002036Y-109300732D01*
X166391954Y-108864320D01*
X166585184Y-108311913D01*
X166440924Y-108077000D01*
X165227000Y-108077000D01*
X164973000Y-108077000D01*
X164953000Y-108077000D01*
X164953000Y-107823000D01*
X164973000Y-107823000D01*
X164973000Y-106463783D01*
X165227000Y-106463783D01*
X165227000Y-107823000D01*
X166440924Y-107823000D01*
X166585184Y-107588087D01*
X166391954Y-107035680D01*
X166002036Y-106599268D01*
X165474791Y-106345291D01*
X165459026Y-106342642D01*
X165227000Y-106463783D01*
X164973000Y-106463783D01*
X164740974Y-106342642D01*
X164725209Y-106345291D01*
X164197964Y-106599268D01*
X163826461Y-107015069D01*
X163619670Y-106705585D01*
X163445000Y-106588874D01*
X163445000Y-105501126D01*
X163619670Y-105384415D01*
X163826461Y-105074931D01*
X164197964Y-105490732D01*
X164725209Y-105744709D01*
X164740974Y-105747358D01*
X164973000Y-105626217D01*
X164973000Y-104267000D01*
X165227000Y-104267000D01*
X165227000Y-105626217D01*
X165459026Y-105747358D01*
X165474791Y-105744709D01*
X166002036Y-105490732D01*
X166391954Y-105054320D01*
X166585184Y-104501913D01*
X166440924Y-104267000D01*
X165227000Y-104267000D01*
X164973000Y-104267000D01*
X164953000Y-104267000D01*
X164953000Y-104013000D01*
X164973000Y-104013000D01*
X164973000Y-102653783D01*
X165227000Y-102653783D01*
X165227000Y-104013000D01*
X166440924Y-104013000D01*
X166585184Y-103778087D01*
X166391954Y-103225680D01*
X166002036Y-102789268D01*
X165474791Y-102535291D01*
X165459026Y-102532642D01*
X165227000Y-102653783D01*
X164973000Y-102653783D01*
X164740974Y-102532642D01*
X164725209Y-102535291D01*
X164197964Y-102789268D01*
X163826461Y-103205069D01*
X163686290Y-102995289D01*
X164854139Y-101827440D01*
X165560000Y-101827440D01*
X165795317Y-101783162D01*
X166011441Y-101644090D01*
X166156431Y-101431890D01*
X166207440Y-101180000D01*
X166207440Y-99480000D01*
X166163162Y-99244683D01*
X166024090Y-99028559D01*
X165811890Y-98883569D01*
X165560000Y-98832560D01*
X163560000Y-98832560D01*
X163324683Y-98876838D01*
X163108559Y-99015910D01*
X162963569Y-99228110D01*
X162912560Y-99480000D01*
X162912560Y-101180000D01*
X162926157Y-101252263D01*
X161934210Y-102244210D01*
X161742367Y-102531325D01*
X161742367Y-102531326D01*
X161695904Y-102764907D01*
X161500330Y-102895585D01*
X161490757Y-102909913D01*
X161486762Y-102888683D01*
X161347690Y-102672559D01*
X161135490Y-102527569D01*
X160905000Y-102480894D01*
X160905000Y-101827440D01*
X161560000Y-101827440D01*
X161795317Y-101783162D01*
X162011441Y-101644090D01*
X162156431Y-101431890D01*
X162207440Y-101180000D01*
X162207440Y-99480000D01*
X162163162Y-99244683D01*
X162024090Y-99028559D01*
X161811890Y-98883569D01*
X161560000Y-98832560D01*
X159560000Y-98832560D01*
X159510000Y-98841968D01*
X159510000Y-98104802D01*
X160334802Y-97280000D01*
X167640000Y-97280000D01*
X167930839Y-97222148D01*
X168177401Y-97057401D01*
X169447401Y-95787401D01*
X169470000Y-95753579D01*
X169470000Y-131370000D01*
X104850000Y-131370000D01*
X104850000Y-126172619D01*
X108254613Y-126172619D01*
X108594155Y-126994372D01*
X109222321Y-127623636D01*
X110043481Y-127964611D01*
X110932619Y-127965387D01*
X111754372Y-127625845D01*
X112383636Y-126997679D01*
X112724611Y-126176519D01*
X112724614Y-126172619D01*
X161594613Y-126172619D01*
X161934155Y-126994372D01*
X162562321Y-127623636D01*
X163383481Y-127964611D01*
X164272619Y-127965387D01*
X165094372Y-127625845D01*
X165723636Y-126997679D01*
X166064611Y-126176519D01*
X166065387Y-125287381D01*
X165725845Y-124465628D01*
X165097679Y-123836364D01*
X164276519Y-123495389D01*
X163387381Y-123494613D01*
X162565628Y-123834155D01*
X161936364Y-124462321D01*
X161595389Y-125283481D01*
X161594613Y-126172619D01*
X112724614Y-126172619D01*
X112725387Y-125287381D01*
X112385845Y-124465628D01*
X112031587Y-124110750D01*
X123977400Y-124110750D01*
X123977400Y-125068910D01*
X124074073Y-125302299D01*
X124252702Y-125480927D01*
X124486091Y-125577600D01*
X125444250Y-125577600D01*
X125603000Y-125418850D01*
X125603000Y-123952000D01*
X125857000Y-123952000D01*
X125857000Y-125418850D01*
X126015750Y-125577600D01*
X126973909Y-125577600D01*
X127207298Y-125480927D01*
X127385927Y-125302299D01*
X127482600Y-125068910D01*
X127482600Y-124110750D01*
X146837400Y-124110750D01*
X146837400Y-125068910D01*
X146934073Y-125302299D01*
X147112702Y-125480927D01*
X147346091Y-125577600D01*
X148304250Y-125577600D01*
X148463000Y-125418850D01*
X148463000Y-123952000D01*
X148717000Y-123952000D01*
X148717000Y-125418850D01*
X148875750Y-125577600D01*
X149833909Y-125577600D01*
X150067298Y-125480927D01*
X150245927Y-125302299D01*
X150342600Y-125068910D01*
X150342600Y-124110750D01*
X150183850Y-123952000D01*
X148717000Y-123952000D01*
X148463000Y-123952000D01*
X146996150Y-123952000D01*
X146837400Y-124110750D01*
X127482600Y-124110750D01*
X127323850Y-123952000D01*
X125857000Y-123952000D01*
X125603000Y-123952000D01*
X124136150Y-123952000D01*
X123977400Y-124110750D01*
X112031587Y-124110750D01*
X111757679Y-123836364D01*
X110936519Y-123495389D01*
X110047381Y-123494613D01*
X109225628Y-123834155D01*
X108596364Y-124462321D01*
X108255389Y-125283481D01*
X108254613Y-126172619D01*
X104850000Y-126172619D01*
X104850000Y-122581090D01*
X123977400Y-122581090D01*
X123977400Y-123539250D01*
X124136150Y-123698000D01*
X125603000Y-123698000D01*
X125603000Y-122231150D01*
X125857000Y-122231150D01*
X125857000Y-123698000D01*
X127323850Y-123698000D01*
X127482600Y-123539250D01*
X127482600Y-122581090D01*
X146837400Y-122581090D01*
X146837400Y-123539250D01*
X146996150Y-123698000D01*
X148463000Y-123698000D01*
X148463000Y-122231150D01*
X148717000Y-122231150D01*
X148717000Y-123698000D01*
X150183850Y-123698000D01*
X150342600Y-123539250D01*
X150342600Y-122581090D01*
X150245927Y-122347701D01*
X150067298Y-122169073D01*
X149833909Y-122072400D01*
X148875750Y-122072400D01*
X148717000Y-122231150D01*
X148463000Y-122231150D01*
X148304250Y-122072400D01*
X147346091Y-122072400D01*
X147112702Y-122169073D01*
X146934073Y-122347701D01*
X146837400Y-122581090D01*
X127482600Y-122581090D01*
X127385927Y-122347701D01*
X127207298Y-122169073D01*
X126973909Y-122072400D01*
X126015750Y-122072400D01*
X125857000Y-122231150D01*
X125603000Y-122231150D01*
X125444250Y-122072400D01*
X124486091Y-122072400D01*
X124252702Y-122169073D01*
X124074073Y-122347701D01*
X123977400Y-122581090D01*
X104850000Y-122581090D01*
X104850000Y-119683991D01*
X107684735Y-119683991D01*
X107917932Y-120248371D01*
X108349357Y-120680551D01*
X108913330Y-120914733D01*
X109523991Y-120915265D01*
X110088371Y-120682068D01*
X110506169Y-120265000D01*
X112968896Y-120265000D01*
X112985910Y-120291441D01*
X113198110Y-120436431D01*
X113450000Y-120487440D01*
X115150000Y-120487440D01*
X115385317Y-120443162D01*
X115601441Y-120304090D01*
X115746431Y-120091890D01*
X115797440Y-119840000D01*
X115797440Y-117840000D01*
X115753162Y-117604683D01*
X115614090Y-117388559D01*
X115401890Y-117243569D01*
X115150000Y-117192560D01*
X113450000Y-117192560D01*
X113214683Y-117236838D01*
X112998559Y-117375910D01*
X112853569Y-117588110D01*
X112802560Y-117840000D01*
X112802560Y-118495000D01*
X110505468Y-118495000D01*
X110344908Y-118334159D01*
X110479699Y-118278327D01*
X110658327Y-118099698D01*
X110755000Y-117866309D01*
X110755000Y-117125750D01*
X110596250Y-116967000D01*
X109347000Y-116967000D01*
X109347000Y-116987000D01*
X109093000Y-116987000D01*
X109093000Y-116967000D01*
X107843750Y-116967000D01*
X107685000Y-117125750D01*
X107685000Y-117866309D01*
X107781673Y-118099698D01*
X107960301Y-118278327D01*
X108094994Y-118334119D01*
X107919449Y-118509357D01*
X107685267Y-119073330D01*
X107684735Y-119683991D01*
X104850000Y-119683991D01*
X104850000Y-115813691D01*
X107685000Y-115813691D01*
X107685000Y-116554250D01*
X107843750Y-116713000D01*
X109093000Y-116713000D01*
X109093000Y-115463750D01*
X109347000Y-115463750D01*
X109347000Y-116713000D01*
X110596250Y-116713000D01*
X110755000Y-116554250D01*
X110755000Y-115813691D01*
X110658327Y-115580302D01*
X110479699Y-115401673D01*
X110246310Y-115305000D01*
X109505750Y-115305000D01*
X109347000Y-115463750D01*
X109093000Y-115463750D01*
X108934250Y-115305000D01*
X108193690Y-115305000D01*
X107960301Y-115401673D01*
X107781673Y-115580302D01*
X107685000Y-115813691D01*
X104850000Y-115813691D01*
X104850000Y-113410355D01*
X108900373Y-113410355D01*
X109166932Y-113989726D01*
X109634916Y-114422987D01*
X110109646Y-114619619D01*
X110363000Y-114500265D01*
X110363000Y-113157000D01*
X110617000Y-113157000D01*
X110617000Y-114500265D01*
X110870354Y-114619619D01*
X111345084Y-114422987D01*
X111813068Y-113989726D01*
X112079627Y-113410355D01*
X111960807Y-113157000D01*
X110617000Y-113157000D01*
X110363000Y-113157000D01*
X109019193Y-113157000D01*
X108900373Y-113410355D01*
X104850000Y-113410355D01*
X104850000Y-109490510D01*
X108843070Y-109490510D01*
X108843070Y-111489490D01*
X108887348Y-111724807D01*
X109026420Y-111940931D01*
X109187649Y-112051094D01*
X109166932Y-112070274D01*
X108900373Y-112649645D01*
X109019193Y-112903000D01*
X110363000Y-112903000D01*
X110363000Y-112883000D01*
X110617000Y-112883000D01*
X110617000Y-112903000D01*
X111960807Y-112903000D01*
X112079627Y-112649645D01*
X111813068Y-112070274D01*
X111791137Y-112049970D01*
X111940931Y-111953580D01*
X112085921Y-111741380D01*
X112109489Y-111625000D01*
X112312560Y-111625000D01*
X112312560Y-111840000D01*
X112356838Y-112075317D01*
X112495910Y-112291441D01*
X112708110Y-112436431D01*
X112960000Y-112487440D01*
X116460000Y-112487440D01*
X116695317Y-112443162D01*
X116911441Y-112304090D01*
X117056431Y-112091890D01*
X117107440Y-111840000D01*
X117107440Y-109140000D01*
X117063162Y-108904683D01*
X116924090Y-108688559D01*
X116711890Y-108543569D01*
X116460000Y-108492560D01*
X112960000Y-108492560D01*
X112724683Y-108536838D01*
X112508559Y-108675910D01*
X112363569Y-108888110D01*
X112312560Y-109140000D01*
X112312560Y-109355000D01*
X112111432Y-109355000D01*
X112092652Y-109255193D01*
X111953580Y-109039069D01*
X111741380Y-108894079D01*
X111489490Y-108843070D01*
X109490510Y-108843070D01*
X109255193Y-108887348D01*
X109039069Y-109026420D01*
X108894079Y-109238620D01*
X108843070Y-109490510D01*
X104850000Y-109490510D01*
X104850000Y-104831580D01*
X106502560Y-106484139D01*
X106502560Y-107140000D01*
X106546838Y-107375317D01*
X106685910Y-107591441D01*
X106898110Y-107736431D01*
X107150000Y-107787440D01*
X108750000Y-107787440D01*
X108985317Y-107743162D01*
X109201441Y-107604090D01*
X109346431Y-107391890D01*
X109397440Y-107140000D01*
X109397440Y-107025000D01*
X109642000Y-107025000D01*
X109656968Y-107104547D01*
X109796040Y-107320671D01*
X110008240Y-107465661D01*
X110260130Y-107516670D01*
X113259870Y-107516670D01*
X113495187Y-107472392D01*
X113711311Y-107333320D01*
X113856301Y-107121120D01*
X113907310Y-106869230D01*
X113907310Y-104870250D01*
X113863032Y-104634933D01*
X113723960Y-104418809D01*
X113511760Y-104273819D01*
X113259870Y-104222810D01*
X112928770Y-104222810D01*
X113777579Y-103374000D01*
X115199704Y-103374000D01*
X115220838Y-103486317D01*
X115359910Y-103702441D01*
X115572110Y-103847431D01*
X115824000Y-103898440D01*
X117856000Y-103898440D01*
X118091317Y-103854162D01*
X118307441Y-103715090D01*
X118452431Y-103502890D01*
X118503440Y-103251000D01*
X118503440Y-101727000D01*
X118459162Y-101491683D01*
X118320090Y-101275559D01*
X118107890Y-101130569D01*
X117856000Y-101079560D01*
X115824000Y-101079560D01*
X115588683Y-101123838D01*
X115372559Y-101262910D01*
X115227569Y-101475110D01*
X115201468Y-101604000D01*
X113411005Y-101604000D01*
X113411000Y-101603999D01*
X113072326Y-101671366D01*
X112989064Y-101727000D01*
X112785210Y-101863210D01*
X112785208Y-101863213D01*
X111134210Y-103514210D01*
X110942367Y-103801325D01*
X110942367Y-103801326D01*
X110874999Y-104140000D01*
X110875000Y-104140005D01*
X110875000Y-104222810D01*
X110260130Y-104222810D01*
X110024813Y-104267088D01*
X109808689Y-104406160D01*
X109663699Y-104618360D01*
X109612690Y-104870250D01*
X109612690Y-105255000D01*
X109397440Y-105255000D01*
X109397440Y-105140000D01*
X109353162Y-104904683D01*
X109214090Y-104688559D01*
X109001890Y-104543569D01*
X108750000Y-104492560D01*
X107150000Y-104492560D01*
X107035655Y-104514076D01*
X106295000Y-103773420D01*
X106295000Y-102425750D01*
X106515000Y-102425750D01*
X106515000Y-103266309D01*
X106611673Y-103499698D01*
X106790301Y-103678327D01*
X107023690Y-103775000D01*
X107664250Y-103775000D01*
X107823000Y-103616250D01*
X107823000Y-102267000D01*
X108077000Y-102267000D01*
X108077000Y-103616250D01*
X108235750Y-103775000D01*
X108876310Y-103775000D01*
X109109699Y-103678327D01*
X109288327Y-103499698D01*
X109385000Y-103266309D01*
X109385000Y-102425750D01*
X109226250Y-102267000D01*
X108077000Y-102267000D01*
X107823000Y-102267000D01*
X106673750Y-102267000D01*
X106515000Y-102425750D01*
X106295000Y-102425750D01*
X106295000Y-101013691D01*
X106515000Y-101013691D01*
X106515000Y-101854250D01*
X106673750Y-102013000D01*
X107823000Y-102013000D01*
X107823000Y-100663750D01*
X108077000Y-100663750D01*
X108077000Y-102013000D01*
X109226250Y-102013000D01*
X109385000Y-101854250D01*
X109385000Y-101013691D01*
X109288327Y-100780302D01*
X109109699Y-100601673D01*
X108876310Y-100505000D01*
X108235750Y-100505000D01*
X108077000Y-100663750D01*
X107823000Y-100663750D01*
X107664250Y-100505000D01*
X107023690Y-100505000D01*
X106790301Y-100601673D01*
X106611673Y-100780302D01*
X106515000Y-101013691D01*
X106295000Y-101013691D01*
X106295000Y-100156010D01*
X109625130Y-100156010D01*
X109625130Y-100996059D01*
X109721803Y-101229448D01*
X109900431Y-101408077D01*
X110133820Y-101504750D01*
X111474250Y-101504750D01*
X111633000Y-101346000D01*
X111633000Y-99997260D01*
X111887000Y-99997260D01*
X111887000Y-101346000D01*
X112045750Y-101504750D01*
X113386180Y-101504750D01*
X113619569Y-101408077D01*
X113798197Y-101229448D01*
X113894870Y-100996059D01*
X113894870Y-100156010D01*
X113736120Y-99997260D01*
X111887000Y-99997260D01*
X111633000Y-99997260D01*
X109783880Y-99997260D01*
X109625130Y-100156010D01*
X106295000Y-100156010D01*
X106295000Y-98170355D01*
X108900373Y-98170355D01*
X109166932Y-98749726D01*
X109625130Y-99173927D01*
X109625130Y-99584510D01*
X109783880Y-99743260D01*
X111633000Y-99743260D01*
X111633000Y-99723260D01*
X111887000Y-99723260D01*
X111887000Y-99743260D01*
X113736120Y-99743260D01*
X113894870Y-99584510D01*
X113894870Y-98744461D01*
X113798197Y-98511072D01*
X113619569Y-98332443D01*
X113386180Y-98235770D01*
X112049531Y-98235770D01*
X112079627Y-98170355D01*
X111960807Y-97917000D01*
X110617000Y-97917000D01*
X110617000Y-97937000D01*
X110363000Y-97937000D01*
X110363000Y-97917000D01*
X109019193Y-97917000D01*
X108900373Y-98170355D01*
X106295000Y-98170355D01*
X106295000Y-86726580D01*
X107046579Y-85975000D01*
X108843070Y-85975000D01*
X108843070Y-86089490D01*
X108887348Y-86324807D01*
X109026420Y-86540931D01*
X109192473Y-86654390D01*
X108979928Y-86972486D01*
X108855510Y-87597978D01*
X108855510Y-87662022D01*
X108979928Y-88287514D01*
X109334241Y-88817781D01*
X109457290Y-88900000D01*
X109334241Y-88982219D01*
X108979928Y-89512486D01*
X108855510Y-90137978D01*
X108855510Y-90202022D01*
X108979928Y-90827514D01*
X109334241Y-91357781D01*
X109457290Y-91440000D01*
X109334241Y-91522219D01*
X108979928Y-92052486D01*
X108855510Y-92677978D01*
X108855510Y-92742022D01*
X108979928Y-93367514D01*
X109334241Y-93897781D01*
X109457290Y-93980000D01*
X109334241Y-94062219D01*
X108979928Y-94592486D01*
X108855510Y-95217978D01*
X108855510Y-95282022D01*
X108979928Y-95907514D01*
X109334241Y-96437781D01*
X109483300Y-96537379D01*
X109166932Y-96830274D01*
X108900373Y-97409645D01*
X109019193Y-97663000D01*
X110363000Y-97663000D01*
X110363000Y-97643000D01*
X110617000Y-97643000D01*
X110617000Y-97663000D01*
X111960807Y-97663000D01*
X112079627Y-97409645D01*
X111813068Y-96830274D01*
X111496700Y-96537379D01*
X111645759Y-96437781D01*
X111848071Y-96135000D01*
X111929146Y-96135000D01*
X111966838Y-96335317D01*
X112105910Y-96551441D01*
X112318110Y-96696431D01*
X112570000Y-96747440D01*
X114570000Y-96747440D01*
X114805317Y-96703162D01*
X115021441Y-96564090D01*
X115166431Y-96351890D01*
X115217440Y-96100000D01*
X115217440Y-94400000D01*
X115173162Y-94164683D01*
X115052985Y-93977923D01*
X115166431Y-93811890D01*
X115217440Y-93560000D01*
X115217440Y-91860000D01*
X115173162Y-91624683D01*
X115052985Y-91437923D01*
X115166431Y-91271890D01*
X115217440Y-91020000D01*
X115217440Y-89320000D01*
X115173162Y-89084683D01*
X115052985Y-88897923D01*
X115166431Y-88731890D01*
X115217440Y-88480000D01*
X115217440Y-86780000D01*
X115173162Y-86544683D01*
X115034090Y-86328559D01*
X114821890Y-86183569D01*
X114570000Y-86132560D01*
X112570000Y-86132560D01*
X112334683Y-86176838D01*
X112118559Y-86315910D01*
X111973569Y-86528110D01*
X111929648Y-86745000D01*
X111848071Y-86745000D01*
X111786547Y-86652923D01*
X111940931Y-86553580D01*
X112085921Y-86341380D01*
X112136930Y-86089490D01*
X112136930Y-84090510D01*
X112092652Y-83855193D01*
X111953580Y-83639069D01*
X111741380Y-83494079D01*
X111489490Y-83443070D01*
X109490510Y-83443070D01*
X109255193Y-83487348D01*
X109039069Y-83626420D01*
X108894079Y-83838620D01*
X108843070Y-84090510D01*
X108843070Y-84205000D01*
X106680005Y-84205000D01*
X106680000Y-84204999D01*
X106341325Y-84272367D01*
X106054210Y-84464210D01*
X106054208Y-84464213D01*
X104850000Y-85668420D01*
X104850000Y-82295750D01*
X106515000Y-82295750D01*
X106515000Y-83136309D01*
X106611673Y-83369698D01*
X106790301Y-83548327D01*
X107023690Y-83645000D01*
X107664250Y-83645000D01*
X107823000Y-83486250D01*
X107823000Y-82137000D01*
X108077000Y-82137000D01*
X108077000Y-83486250D01*
X108235750Y-83645000D01*
X108876310Y-83645000D01*
X109109699Y-83548327D01*
X109288327Y-83369698D01*
X109385000Y-83136309D01*
X109385000Y-82831903D01*
X109428691Y-82850000D01*
X110044250Y-82850000D01*
X110203000Y-82691250D01*
X110203000Y-82042000D01*
X110457000Y-82042000D01*
X110457000Y-82691250D01*
X110615750Y-82850000D01*
X111231309Y-82850000D01*
X111464698Y-82753327D01*
X111643327Y-82574699D01*
X111740000Y-82341310D01*
X111740000Y-82200750D01*
X111581250Y-82042000D01*
X110457000Y-82042000D01*
X110203000Y-82042000D01*
X109078750Y-82042000D01*
X108983750Y-82137000D01*
X108077000Y-82137000D01*
X107823000Y-82137000D01*
X106673750Y-82137000D01*
X106515000Y-82295750D01*
X104850000Y-82295750D01*
X104850000Y-80883691D01*
X106515000Y-80883691D01*
X106515000Y-81724250D01*
X106673750Y-81883000D01*
X107823000Y-81883000D01*
X107823000Y-80533750D01*
X107664250Y-80375000D01*
X107023690Y-80375000D01*
X106790301Y-80471673D01*
X106611673Y-80650302D01*
X106515000Y-80883691D01*
X104850000Y-80883691D01*
X104850000Y-77010000D01*
X106502560Y-77010000D01*
X106502560Y-79010000D01*
X106546838Y-79245317D01*
X106685910Y-79461441D01*
X106898110Y-79606431D01*
X107150000Y-79657440D01*
X108750000Y-79657440D01*
X108907560Y-79627793D01*
X108907560Y-79675000D01*
X108951838Y-79910317D01*
X109015678Y-80009528D01*
X108958569Y-80093110D01*
X108907560Y-80345000D01*
X108907560Y-80387944D01*
X108876310Y-80375000D01*
X108235750Y-80375000D01*
X108077000Y-80533750D01*
X108077000Y-81883000D01*
X109226250Y-81883000D01*
X109321250Y-81788000D01*
X110203000Y-81788000D01*
X110203000Y-81768000D01*
X110457000Y-81768000D01*
X110457000Y-81788000D01*
X111581250Y-81788000D01*
X111740000Y-81629250D01*
X111740000Y-81530000D01*
X112394995Y-81530000D01*
X112395000Y-81530001D01*
X112677484Y-81473810D01*
X112733675Y-81462633D01*
X113020790Y-81270790D01*
X113655787Y-80635792D01*
X113655790Y-80635790D01*
X113816680Y-80395000D01*
X113847634Y-80348674D01*
X113915001Y-80010000D01*
X113915000Y-80009995D01*
X113915000Y-79606580D01*
X114309208Y-80000787D01*
X114309210Y-80000790D01*
X114386405Y-80052370D01*
X114358569Y-80093110D01*
X114307560Y-80345000D01*
X114307560Y-80945000D01*
X114351838Y-81180317D01*
X114415678Y-81279528D01*
X114358569Y-81363110D01*
X114307560Y-81615000D01*
X114307560Y-82215000D01*
X114351838Y-82450317D01*
X114490910Y-82666441D01*
X114685000Y-82799057D01*
X114685000Y-83819995D01*
X114684999Y-83820000D01*
X114738808Y-84090510D01*
X114752367Y-84158675D01*
X114886887Y-84360000D01*
X114944210Y-84445790D01*
X116214208Y-85715787D01*
X116214210Y-85715790D01*
X116501325Y-85907633D01*
X116840000Y-85975001D01*
X116840005Y-85975000D01*
X119288874Y-85975000D01*
X119405585Y-86149670D01*
X119720366Y-86360000D01*
X119405585Y-86570330D01*
X119288874Y-86745000D01*
X119210854Y-86745000D01*
X119173162Y-86544683D01*
X119034090Y-86328559D01*
X118821890Y-86183569D01*
X118570000Y-86132560D01*
X116570000Y-86132560D01*
X116334683Y-86176838D01*
X116118559Y-86315910D01*
X115973569Y-86528110D01*
X115922560Y-86780000D01*
X115922560Y-88480000D01*
X115966838Y-88715317D01*
X116087015Y-88902077D01*
X115973569Y-89068110D01*
X115922560Y-89320000D01*
X115922560Y-91020000D01*
X115966838Y-91255317D01*
X116087015Y-91442077D01*
X115973569Y-91608110D01*
X115922560Y-91860000D01*
X115922560Y-93560000D01*
X115966838Y-93795317D01*
X116087015Y-93982077D01*
X115973569Y-94148110D01*
X115922560Y-94400000D01*
X115922560Y-96100000D01*
X115966838Y-96335317D01*
X116105910Y-96551441D01*
X116318110Y-96696431D01*
X116570000Y-96747440D01*
X118570000Y-96747440D01*
X118805317Y-96703162D01*
X119021441Y-96564090D01*
X119166431Y-96351890D01*
X119210352Y-96135000D01*
X119288874Y-96135000D01*
X119405585Y-96309670D01*
X119720366Y-96520000D01*
X119405585Y-96730330D01*
X119080729Y-97216511D01*
X118966655Y-97790000D01*
X119080729Y-98363489D01*
X119405585Y-98849670D01*
X119720366Y-99060000D01*
X119405585Y-99270330D01*
X119080729Y-99756511D01*
X118966655Y-100330000D01*
X119080729Y-100903489D01*
X119405585Y-101389670D01*
X119720366Y-101600000D01*
X119405585Y-101810330D01*
X119080729Y-102296511D01*
X118966655Y-102870000D01*
X119038290Y-103230131D01*
X117881663Y-104386757D01*
X117856000Y-104381560D01*
X115824000Y-104381560D01*
X115588683Y-104425838D01*
X115372559Y-104564910D01*
X115227569Y-104777110D01*
X115176560Y-105029000D01*
X115176560Y-106553000D01*
X115220838Y-106788317D01*
X115359910Y-107004441D01*
X115572110Y-107149431D01*
X115824000Y-107200440D01*
X116143818Y-107200440D01*
X116214210Y-107305790D01*
X117225000Y-108316579D01*
X117225000Y-112663421D01*
X115933420Y-113955000D01*
X115797440Y-113955000D01*
X115797440Y-113840000D01*
X115753162Y-113604683D01*
X115614090Y-113388559D01*
X115401890Y-113243569D01*
X115150000Y-113192560D01*
X113450000Y-113192560D01*
X113214683Y-113236838D01*
X112998559Y-113375910D01*
X112853569Y-113588110D01*
X112802560Y-113840000D01*
X112802560Y-115840000D01*
X112846838Y-116075317D01*
X112985910Y-116291441D01*
X113198110Y-116436431D01*
X113450000Y-116487440D01*
X115150000Y-116487440D01*
X115385317Y-116443162D01*
X115601441Y-116304090D01*
X115746431Y-116091890D01*
X115797440Y-115840000D01*
X115797440Y-115725000D01*
X116299995Y-115725000D01*
X116300000Y-115725001D01*
X116582484Y-115668810D01*
X116638675Y-115657633D01*
X116925790Y-115465790D01*
X118735787Y-113655792D01*
X118735790Y-113655790D01*
X118896680Y-113415000D01*
X118927634Y-113368674D01*
X118995001Y-113030000D01*
X118995000Y-113029995D01*
X118995000Y-109140000D01*
X119112560Y-109140000D01*
X119112560Y-111840000D01*
X119156838Y-112075317D01*
X119295910Y-112291441D01*
X119508110Y-112436431D01*
X119760000Y-112487440D01*
X123260000Y-112487440D01*
X123495317Y-112443162D01*
X123711441Y-112304090D01*
X123856431Y-112091890D01*
X123907440Y-111840000D01*
X123907440Y-111625000D01*
X123968234Y-111625000D01*
X124009238Y-111842917D01*
X124148310Y-112059041D01*
X124360510Y-112204031D01*
X124612400Y-112255040D01*
X126847600Y-112255040D01*
X127082917Y-112210762D01*
X127299041Y-112071690D01*
X127444031Y-111859490D01*
X127495040Y-111607600D01*
X127495040Y-109372400D01*
X127450762Y-109137083D01*
X127311690Y-108920959D01*
X127099490Y-108775969D01*
X126847600Y-108724960D01*
X124612400Y-108724960D01*
X124377083Y-108769238D01*
X124160959Y-108908310D01*
X124015969Y-109120510D01*
X123968484Y-109355000D01*
X123907440Y-109355000D01*
X123907440Y-109140000D01*
X123863162Y-108904683D01*
X123724090Y-108688559D01*
X123511890Y-108543569D01*
X123260000Y-108492560D01*
X119760000Y-108492560D01*
X119524683Y-108536838D01*
X119308559Y-108675910D01*
X119163569Y-108888110D01*
X119112560Y-109140000D01*
X118995000Y-109140000D01*
X118995000Y-107950005D01*
X118995001Y-107950000D01*
X118927633Y-107611325D01*
X118864387Y-107516670D01*
X118735790Y-107324210D01*
X118735787Y-107324208D01*
X118356650Y-106945071D01*
X118452431Y-106804890D01*
X118503440Y-106553000D01*
X118503440Y-106268140D01*
X119086438Y-105685142D01*
X119042642Y-105769026D01*
X119045291Y-105784791D01*
X119299268Y-106312036D01*
X119735680Y-106701954D01*
X120288087Y-106895184D01*
X120523000Y-106750924D01*
X120523000Y-105537000D01*
X120777000Y-105537000D01*
X120777000Y-106750924D01*
X121011913Y-106895184D01*
X121564320Y-106701954D01*
X122000732Y-106312036D01*
X122254709Y-105784791D01*
X122257358Y-105769026D01*
X122136217Y-105537000D01*
X120777000Y-105537000D01*
X120523000Y-105537000D01*
X120503000Y-105537000D01*
X120503000Y-105283000D01*
X120523000Y-105283000D01*
X120523000Y-105263000D01*
X120777000Y-105263000D01*
X120777000Y-105283000D01*
X122136217Y-105283000D01*
X122202654Y-105155750D01*
X126835000Y-105155750D01*
X126835000Y-105996309D01*
X126931673Y-106229698D01*
X127110301Y-106408327D01*
X127343690Y-106505000D01*
X127984250Y-106505000D01*
X128143000Y-106346250D01*
X128143000Y-104997000D01*
X128397000Y-104997000D01*
X128397000Y-106346250D01*
X128555750Y-106505000D01*
X129196310Y-106505000D01*
X129429699Y-106408327D01*
X129608327Y-106229698D01*
X129705000Y-105996309D01*
X129705000Y-105155750D01*
X129546250Y-104997000D01*
X128397000Y-104997000D01*
X128143000Y-104997000D01*
X126993750Y-104997000D01*
X126835000Y-105155750D01*
X122202654Y-105155750D01*
X122257358Y-105050974D01*
X122254709Y-105035209D01*
X122182589Y-104885490D01*
X133755130Y-104885490D01*
X133755130Y-105725539D01*
X133851803Y-105958928D01*
X134030431Y-106137557D01*
X134263820Y-106234230D01*
X135604250Y-106234230D01*
X135763000Y-106075480D01*
X135763000Y-104726740D01*
X136017000Y-104726740D01*
X136017000Y-106075480D01*
X136175750Y-106234230D01*
X137516180Y-106234230D01*
X137749569Y-106137557D01*
X137928197Y-105958928D01*
X138024870Y-105725539D01*
X138024870Y-104885490D01*
X137866120Y-104726740D01*
X136017000Y-104726740D01*
X135763000Y-104726740D01*
X133913880Y-104726740D01*
X133755130Y-104885490D01*
X122182589Y-104885490D01*
X122000732Y-104507964D01*
X121584931Y-104136461D01*
X121894415Y-103929670D01*
X122011126Y-103755000D01*
X124459995Y-103755000D01*
X124460000Y-103755001D01*
X124516857Y-103743691D01*
X126835000Y-103743691D01*
X126835000Y-104584250D01*
X126993750Y-104743000D01*
X128143000Y-104743000D01*
X128143000Y-103393750D01*
X128397000Y-103393750D01*
X128397000Y-104743000D01*
X129546250Y-104743000D01*
X129705000Y-104584250D01*
X129705000Y-103743691D01*
X129608327Y-103510302D01*
X129571967Y-103473941D01*
X133755130Y-103473941D01*
X133755130Y-104313990D01*
X133913880Y-104472740D01*
X135763000Y-104472740D01*
X135763000Y-103124000D01*
X136017000Y-103124000D01*
X136017000Y-104472740D01*
X137866120Y-104472740D01*
X138024870Y-104313990D01*
X138024870Y-103473941D01*
X137928197Y-103240552D01*
X137749569Y-103061923D01*
X137516180Y-102965250D01*
X136175750Y-102965250D01*
X136017000Y-103124000D01*
X135763000Y-103124000D01*
X135604250Y-102965250D01*
X134263820Y-102965250D01*
X134030431Y-103061923D01*
X133851803Y-103240552D01*
X133755130Y-103473941D01*
X129571967Y-103473941D01*
X129429699Y-103331673D01*
X129196310Y-103235000D01*
X128555750Y-103235000D01*
X128397000Y-103393750D01*
X128143000Y-103393750D01*
X127984250Y-103235000D01*
X127343690Y-103235000D01*
X127110301Y-103331673D01*
X126931673Y-103510302D01*
X126835000Y-103743691D01*
X124516857Y-103743691D01*
X124742484Y-103698810D01*
X124798675Y-103687633D01*
X125085790Y-103495790D01*
X125085791Y-103495789D01*
X126822560Y-101759019D01*
X126822560Y-101870000D01*
X126866838Y-102105317D01*
X127005910Y-102321441D01*
X127218110Y-102466431D01*
X127470000Y-102517440D01*
X129070000Y-102517440D01*
X129305317Y-102473162D01*
X129521441Y-102334090D01*
X129666431Y-102121890D01*
X129717440Y-101870000D01*
X129717440Y-101755000D01*
X133620255Y-101755000D01*
X133620260Y-101755001D01*
X133902744Y-101698810D01*
X133958935Y-101687633D01*
X134246050Y-101495790D01*
X134246051Y-101495789D01*
X135494649Y-100247190D01*
X137389870Y-100247190D01*
X137625187Y-100202912D01*
X137841311Y-100063840D01*
X137986301Y-99851640D01*
X138037310Y-99599750D01*
X138037310Y-97600770D01*
X137993032Y-97365453D01*
X137853960Y-97149329D01*
X137641760Y-97004339D01*
X137389870Y-96953330D01*
X136775000Y-96953330D01*
X136775000Y-87915750D01*
X139875000Y-87915750D01*
X139875000Y-88606310D01*
X139971673Y-88839699D01*
X140150302Y-89018327D01*
X140383691Y-89115000D01*
X141224250Y-89115000D01*
X141383000Y-88956250D01*
X141383000Y-87757000D01*
X141637000Y-87757000D01*
X141637000Y-88956250D01*
X141795750Y-89115000D01*
X142636309Y-89115000D01*
X142869698Y-89018327D01*
X143048327Y-88839699D01*
X143145000Y-88606310D01*
X143145000Y-87915750D01*
X142986250Y-87757000D01*
X141637000Y-87757000D01*
X141383000Y-87757000D01*
X140033750Y-87757000D01*
X139875000Y-87915750D01*
X136775000Y-87915750D01*
X136775000Y-85375750D01*
X139875000Y-85375750D01*
X139875000Y-86066310D01*
X139971673Y-86299699D01*
X140031974Y-86360000D01*
X139971673Y-86420301D01*
X139875000Y-86653690D01*
X139875000Y-87344250D01*
X140033750Y-87503000D01*
X141383000Y-87503000D01*
X141383000Y-85217000D01*
X141637000Y-85217000D01*
X141637000Y-87503000D01*
X142986250Y-87503000D01*
X143145000Y-87344250D01*
X143145000Y-86653690D01*
X143048327Y-86420301D01*
X142988026Y-86360000D01*
X143048327Y-86299699D01*
X143145000Y-86066310D01*
X143145000Y-85375750D01*
X142986250Y-85217000D01*
X141637000Y-85217000D01*
X141383000Y-85217000D01*
X140033750Y-85217000D01*
X139875000Y-85375750D01*
X136775000Y-85375750D01*
X136775000Y-84113690D01*
X139875000Y-84113690D01*
X139875000Y-84804250D01*
X140033750Y-84963000D01*
X141383000Y-84963000D01*
X141383000Y-83763750D01*
X141637000Y-83763750D01*
X141637000Y-84963000D01*
X142986250Y-84963000D01*
X143145000Y-84804250D01*
X143145000Y-84113690D01*
X143048327Y-83880301D01*
X142869698Y-83701673D01*
X142636309Y-83605000D01*
X141795750Y-83605000D01*
X141637000Y-83763750D01*
X141383000Y-83763750D01*
X141224250Y-83605000D01*
X140383691Y-83605000D01*
X140150302Y-83701673D01*
X139971673Y-83880301D01*
X139875000Y-84113690D01*
X136775000Y-84113690D01*
X136775000Y-77755750D01*
X139875000Y-77755750D01*
X139875000Y-78396310D01*
X139971673Y-78629699D01*
X140150302Y-78808327D01*
X140383691Y-78905000D01*
X141224250Y-78905000D01*
X141383000Y-78746250D01*
X141383000Y-77597000D01*
X141637000Y-77597000D01*
X141637000Y-78746250D01*
X141795750Y-78905000D01*
X142636309Y-78905000D01*
X142869698Y-78808327D01*
X143048327Y-78629699D01*
X143145000Y-78396310D01*
X143145000Y-77755750D01*
X142986250Y-77597000D01*
X141637000Y-77597000D01*
X141383000Y-77597000D01*
X140033750Y-77597000D01*
X139875000Y-77755750D01*
X136775000Y-77755750D01*
X136775000Y-76543690D01*
X139875000Y-76543690D01*
X139875000Y-77184250D01*
X140033750Y-77343000D01*
X141383000Y-77343000D01*
X141383000Y-76193750D01*
X141637000Y-76193750D01*
X141637000Y-77343000D01*
X142986250Y-77343000D01*
X143145000Y-77184250D01*
X143145000Y-76543690D01*
X143048327Y-76310301D01*
X142869698Y-76131673D01*
X142636309Y-76035000D01*
X141795750Y-76035000D01*
X141637000Y-76193750D01*
X141383000Y-76193750D01*
X141224250Y-76035000D01*
X140383691Y-76035000D01*
X140150302Y-76131673D01*
X139971673Y-76310301D01*
X139875000Y-76543690D01*
X136775000Y-76543690D01*
X136775000Y-66229802D01*
X138269941Y-64734861D01*
X138674579Y-64735214D01*
X139128657Y-64547592D01*
X139476371Y-64200485D01*
X139664785Y-63746734D01*
X139665214Y-63255421D01*
X139477592Y-62801343D01*
X139130485Y-62453629D01*
X138676734Y-62265215D01*
X138185421Y-62264786D01*
X137731343Y-62452408D01*
X137459039Y-62724237D01*
X135854861Y-61120059D01*
X135855214Y-60715421D01*
X135667592Y-60261343D01*
X135320485Y-59913629D01*
X134866734Y-59725215D01*
X134375421Y-59724786D01*
X133921343Y-59912408D01*
X133573629Y-60259515D01*
X133385215Y-60713266D01*
X133384786Y-61204579D01*
X133572408Y-61658657D01*
X133919515Y-62006371D01*
X134373266Y-62194785D01*
X134780338Y-62195140D01*
X136622599Y-64037401D01*
X136739612Y-64115586D01*
X135653069Y-65202129D01*
X135551325Y-65222367D01*
X135264210Y-65414210D01*
X135072367Y-65701325D01*
X135005000Y-66040000D01*
X135005000Y-96953330D01*
X134390130Y-96953330D01*
X134154813Y-96997608D01*
X133938689Y-97136680D01*
X133793699Y-97348880D01*
X133742690Y-97600770D01*
X133742690Y-99495990D01*
X133253680Y-99985000D01*
X129717440Y-99985000D01*
X129717440Y-99870000D01*
X129673162Y-99634683D01*
X129534090Y-99418559D01*
X129321890Y-99273569D01*
X129070000Y-99222560D01*
X128615000Y-99222560D01*
X128615000Y-96747440D01*
X128730000Y-96747440D01*
X128965317Y-96703162D01*
X129181441Y-96564090D01*
X129326431Y-96351890D01*
X129377440Y-96100000D01*
X129377440Y-94400000D01*
X129333162Y-94164683D01*
X129212985Y-93977923D01*
X129326431Y-93811890D01*
X129377440Y-93560000D01*
X129377440Y-91860000D01*
X129333162Y-91624683D01*
X129212985Y-91437923D01*
X129326431Y-91271890D01*
X129377440Y-91020000D01*
X129377440Y-89320000D01*
X129333162Y-89084683D01*
X129212985Y-88897923D01*
X129326431Y-88731890D01*
X129370352Y-88515000D01*
X129539995Y-88515000D01*
X129540000Y-88515001D01*
X129822484Y-88458810D01*
X129878675Y-88447633D01*
X130165790Y-88255790D01*
X130165791Y-88255789D01*
X131435787Y-86985792D01*
X131435790Y-86985790D01*
X131627633Y-86698675D01*
X131636581Y-86653690D01*
X131695001Y-86360000D01*
X131695000Y-86359995D01*
X131695000Y-77697440D01*
X132540000Y-77697440D01*
X132775317Y-77653162D01*
X132991441Y-77514090D01*
X133136431Y-77301890D01*
X133187440Y-77050000D01*
X133187440Y-75350000D01*
X133143162Y-75114683D01*
X133022985Y-74927923D01*
X133136431Y-74761890D01*
X133187440Y-74510000D01*
X133187440Y-72810000D01*
X133143162Y-72574683D01*
X133004090Y-72358559D01*
X132791890Y-72213569D01*
X132540000Y-72162560D01*
X130540000Y-72162560D01*
X130304683Y-72206838D01*
X130088559Y-72345910D01*
X129943569Y-72558110D01*
X129892560Y-72810000D01*
X129892560Y-74510000D01*
X129936838Y-74745317D01*
X130057015Y-74932077D01*
X129943569Y-75098110D01*
X129892560Y-75350000D01*
X129892560Y-77050000D01*
X129925000Y-77222404D01*
X129925000Y-85993421D01*
X129339588Y-86578833D01*
X129333162Y-86544683D01*
X129194090Y-86328559D01*
X128981890Y-86183569D01*
X128730000Y-86132560D01*
X126730000Y-86132560D01*
X126494683Y-86176838D01*
X126278559Y-86315910D01*
X126133569Y-86528110D01*
X126082560Y-86780000D01*
X126082560Y-88480000D01*
X126126838Y-88715317D01*
X126247015Y-88902077D01*
X126133569Y-89068110D01*
X126082560Y-89320000D01*
X126082560Y-91020000D01*
X126126838Y-91255317D01*
X126247015Y-91442077D01*
X126133569Y-91608110D01*
X126082560Y-91860000D01*
X126082560Y-93560000D01*
X126126838Y-93795317D01*
X126247015Y-93982077D01*
X126133569Y-94148110D01*
X126082560Y-94400000D01*
X126082560Y-96100000D01*
X126126838Y-96335317D01*
X126265910Y-96551441D01*
X126478110Y-96696431D01*
X126730000Y-96747440D01*
X126845000Y-96747440D01*
X126845000Y-99759188D01*
X126822560Y-99870000D01*
X126822560Y-99985000D01*
X126460005Y-99985000D01*
X126460000Y-99984999D01*
X126127237Y-100051191D01*
X126121325Y-100052367D01*
X125834210Y-100244210D01*
X125834208Y-100244213D01*
X124093420Y-101985000D01*
X122011126Y-101985000D01*
X121894415Y-101810330D01*
X121579634Y-101600000D01*
X121894415Y-101389670D01*
X122219271Y-100903489D01*
X122333345Y-100330000D01*
X122219271Y-99756511D01*
X121894415Y-99270330D01*
X121579634Y-99060000D01*
X121894415Y-98849670D01*
X122219271Y-98363489D01*
X122333345Y-97790000D01*
X122219271Y-97216511D01*
X121894415Y-96730330D01*
X121579634Y-96520000D01*
X121894415Y-96309670D01*
X122011126Y-96135000D01*
X122089146Y-96135000D01*
X122126838Y-96335317D01*
X122265910Y-96551441D01*
X122478110Y-96696431D01*
X122730000Y-96747440D01*
X124730000Y-96747440D01*
X124965317Y-96703162D01*
X125181441Y-96564090D01*
X125326431Y-96351890D01*
X125377440Y-96100000D01*
X125377440Y-94400000D01*
X125333162Y-94164683D01*
X125212985Y-93977923D01*
X125326431Y-93811890D01*
X125377440Y-93560000D01*
X125377440Y-91860000D01*
X125333162Y-91624683D01*
X125212985Y-91437923D01*
X125326431Y-91271890D01*
X125377440Y-91020000D01*
X125377440Y-89320000D01*
X125333162Y-89084683D01*
X125212985Y-88897923D01*
X125326431Y-88731890D01*
X125377440Y-88480000D01*
X125377440Y-86780000D01*
X125333162Y-86544683D01*
X125194090Y-86328559D01*
X124981890Y-86183569D01*
X124730000Y-86132560D01*
X122730000Y-86132560D01*
X122494683Y-86176838D01*
X122278559Y-86315910D01*
X122133569Y-86528110D01*
X122089648Y-86745000D01*
X122011126Y-86745000D01*
X121894415Y-86570330D01*
X121579634Y-86360000D01*
X121894415Y-86149670D01*
X122219271Y-85663489D01*
X122333345Y-85090000D01*
X122219271Y-84516511D01*
X121894415Y-84030330D01*
X121579634Y-83820000D01*
X121894415Y-83609670D01*
X122219271Y-83123489D01*
X122333345Y-82550000D01*
X122219271Y-81976511D01*
X121894415Y-81490330D01*
X121579634Y-81280000D01*
X121894415Y-81069670D01*
X122011126Y-80895000D01*
X126999995Y-80895000D01*
X127000000Y-80895001D01*
X127282484Y-80838810D01*
X127338675Y-80827633D01*
X127625790Y-80635790D01*
X127625791Y-80635789D01*
X128165787Y-80095792D01*
X128165790Y-80095790D01*
X128357633Y-79808675D01*
X128425000Y-79470000D01*
X128425000Y-77697440D01*
X128540000Y-77697440D01*
X128775317Y-77653162D01*
X128991441Y-77514090D01*
X129136431Y-77301890D01*
X129187440Y-77050000D01*
X129187440Y-75350000D01*
X129143162Y-75114683D01*
X129022985Y-74927923D01*
X129136431Y-74761890D01*
X129187440Y-74510000D01*
X129187440Y-72810000D01*
X129143162Y-72574683D01*
X129004090Y-72358559D01*
X128791890Y-72213569D01*
X128540000Y-72162560D01*
X126540000Y-72162560D01*
X126304683Y-72206838D01*
X126088559Y-72345910D01*
X125943569Y-72558110D01*
X125899648Y-72775000D01*
X125730005Y-72775000D01*
X125730000Y-72774999D01*
X125391325Y-72842367D01*
X125104210Y-73034210D01*
X125104208Y-73034213D01*
X123834210Y-74304210D01*
X123642367Y-74591325D01*
X123642367Y-74591326D01*
X123574999Y-74930000D01*
X123575000Y-74930005D01*
X123575000Y-75833421D01*
X122823420Y-76585000D01*
X122011126Y-76585000D01*
X121894415Y-76410330D01*
X121579634Y-76200000D01*
X121894415Y-75989670D01*
X122025093Y-75794096D01*
X122202484Y-75758810D01*
X122258675Y-75747633D01*
X122545790Y-75555790D01*
X125085787Y-73015792D01*
X125085790Y-73015790D01*
X125277633Y-72728675D01*
X125345000Y-72390000D01*
X125345000Y-70216580D01*
X126096579Y-69465000D01*
X129539995Y-69465000D01*
X129540000Y-69465001D01*
X129822484Y-69408810D01*
X129878675Y-69397633D01*
X130165790Y-69205790D01*
X131435787Y-67935792D01*
X131435790Y-67935790D01*
X131627633Y-67648675D01*
X131627633Y-67648674D01*
X131695001Y-67310000D01*
X131695000Y-67309995D01*
X131695000Y-67140854D01*
X131895317Y-67103162D01*
X132111441Y-66964090D01*
X132256431Y-66751890D01*
X132307440Y-66500000D01*
X132307440Y-64500000D01*
X132263162Y-64264683D01*
X132124090Y-64048559D01*
X131911890Y-63903569D01*
X131660000Y-63852560D01*
X129960000Y-63852560D01*
X129724683Y-63896838D01*
X129508559Y-64035910D01*
X129363569Y-64248110D01*
X129312560Y-64500000D01*
X129312560Y-66500000D01*
X129356838Y-66735317D01*
X129495910Y-66951441D01*
X129708110Y-67096431D01*
X129761232Y-67107189D01*
X129173420Y-67695000D01*
X125730005Y-67695000D01*
X125730000Y-67694999D01*
X125391325Y-67762367D01*
X125104210Y-67954210D01*
X125104208Y-67954213D01*
X124075000Y-68983420D01*
X124075000Y-67676580D01*
X124826579Y-66925000D01*
X125668896Y-66925000D01*
X125685910Y-66951441D01*
X125898110Y-67096431D01*
X126150000Y-67147440D01*
X127850000Y-67147440D01*
X128085317Y-67103162D01*
X128301441Y-66964090D01*
X128446431Y-66751890D01*
X128497440Y-66500000D01*
X128497440Y-64500000D01*
X128453162Y-64264683D01*
X128314090Y-64048559D01*
X128101890Y-63903569D01*
X127850000Y-63852560D01*
X126150000Y-63852560D01*
X125914683Y-63896838D01*
X125698559Y-64035910D01*
X125553569Y-64248110D01*
X125502560Y-64500000D01*
X125502560Y-65155000D01*
X124460005Y-65155000D01*
X124460000Y-65154999D01*
X124121325Y-65222367D01*
X123834210Y-65414210D01*
X123834208Y-65414213D01*
X122564210Y-66684210D01*
X122372367Y-66971325D01*
X122372367Y-66971326D01*
X122319172Y-67238748D01*
X122219271Y-66736511D01*
X121894415Y-66250330D01*
X121579634Y-66040000D01*
X121894415Y-65829670D01*
X122219271Y-65343489D01*
X122333345Y-64770000D01*
X122219271Y-64196511D01*
X121894415Y-63710330D01*
X121579634Y-63500000D01*
X121894415Y-63289670D01*
X122219271Y-62803489D01*
X122333345Y-62230000D01*
X122219271Y-61656511D01*
X121894415Y-61170330D01*
X121579634Y-60960000D01*
X121894415Y-60749670D01*
X122219271Y-60263489D01*
X122333345Y-59690000D01*
X122219271Y-59116511D01*
X121894415Y-58630330D01*
X121880087Y-58620757D01*
X121901317Y-58616762D01*
X122117441Y-58477690D01*
X122262431Y-58265490D01*
X122313440Y-58013600D01*
X122313440Y-56286400D01*
X122269162Y-56051083D01*
X122130090Y-55834959D01*
X121917890Y-55689969D01*
X121666000Y-55638960D01*
X119634000Y-55638960D01*
X119398683Y-55683238D01*
X119182559Y-55822310D01*
X119037569Y-56034510D01*
X118990894Y-56265000D01*
X118347013Y-56265000D01*
X118306762Y-56051083D01*
X118167690Y-55834959D01*
X117955490Y-55689969D01*
X117703600Y-55638960D01*
X115976400Y-55638960D01*
X115741083Y-55683238D01*
X115524959Y-55822310D01*
X115379969Y-56034510D01*
X115360961Y-56128375D01*
X115074947Y-55867312D01*
X114659026Y-55695042D01*
X114427000Y-55816183D01*
X114427000Y-57023000D01*
X114447000Y-57023000D01*
X114447000Y-57277000D01*
X114427000Y-57277000D01*
X114427000Y-57297000D01*
X114173000Y-57297000D01*
X114173000Y-57277000D01*
X112965531Y-57277000D01*
X112845032Y-57509027D01*
X113093179Y-58038490D01*
X113511161Y-58420008D01*
X113240330Y-58600971D01*
X112915474Y-59087152D01*
X112801400Y-59660641D01*
X112801400Y-59719359D01*
X112915474Y-60292848D01*
X113240330Y-60779029D01*
X113511172Y-60960000D01*
X113240330Y-61140971D01*
X113104002Y-61345000D01*
X109220005Y-61345000D01*
X109220000Y-61344999D01*
X108881325Y-61412367D01*
X108594210Y-61604210D01*
X108594208Y-61604213D01*
X107324210Y-62874210D01*
X107132367Y-63161325D01*
X107132367Y-63161326D01*
X107064999Y-63500000D01*
X107065000Y-63500005D01*
X107065000Y-76378554D01*
X106914683Y-76406838D01*
X106698559Y-76545910D01*
X106553569Y-76758110D01*
X106502560Y-77010000D01*
X104850000Y-77010000D01*
X104850000Y-56790973D01*
X112845032Y-56790973D01*
X112965531Y-57023000D01*
X114173000Y-57023000D01*
X114173000Y-55816183D01*
X113940974Y-55695042D01*
X113525053Y-55867312D01*
X113093179Y-56261510D01*
X112845032Y-56790973D01*
X104850000Y-56790973D01*
X104850000Y-48702619D01*
X108254613Y-48702619D01*
X108594155Y-49524372D01*
X109222321Y-50153636D01*
X110043481Y-50494611D01*
X110932619Y-50495387D01*
X111754372Y-50155845D01*
X112383636Y-49527679D01*
X112724611Y-48706519D01*
X112725387Y-47817381D01*
X112385845Y-46995628D01*
X111757679Y-46366364D01*
X110936519Y-46025389D01*
X110047381Y-46024613D01*
X109225628Y-46364155D01*
X108596364Y-46992321D01*
X108255389Y-47813481D01*
X108254613Y-48702619D01*
X104850000Y-48702619D01*
X104850000Y-42620000D01*
X118688421Y-42620000D01*
X117484210Y-43824210D01*
X117484210Y-43824210D01*
G37*
X117484210Y-43824210D02*
X117292367Y-44111325D01*
X117292367Y-44111326D01*
X117228838Y-44430701D01*
X116809449Y-44849357D01*
X116575267Y-45413330D01*
X116574735Y-46023991D01*
X116807932Y-46588371D01*
X117239357Y-47020551D01*
X117803330Y-47254733D01*
X118413991Y-47255265D01*
X118978371Y-47022068D01*
X119155841Y-46844908D01*
X119211673Y-46979699D01*
X119390302Y-47158327D01*
X119623691Y-47255000D01*
X120364250Y-47255000D01*
X120523000Y-47096250D01*
X120523000Y-45847000D01*
X120777000Y-45847000D01*
X120777000Y-47096250D01*
X120935750Y-47255000D01*
X121676309Y-47255000D01*
X121909698Y-47158327D01*
X121920000Y-47148025D01*
X121930302Y-47158327D01*
X122163691Y-47255000D01*
X122904250Y-47255000D01*
X123063000Y-47096250D01*
X123063000Y-45847000D01*
X120777000Y-45847000D01*
X120523000Y-45847000D01*
X120503000Y-45847000D01*
X120503000Y-45593000D01*
X120523000Y-45593000D01*
X120523000Y-44343750D01*
X120777000Y-44343750D01*
X120777000Y-45593000D01*
X123063000Y-45593000D01*
X123063000Y-44343750D01*
X123317000Y-44343750D01*
X123317000Y-45593000D01*
X123337000Y-45593000D01*
X123337000Y-45847000D01*
X123317000Y-45847000D01*
X123317000Y-47096250D01*
X123475750Y-47255000D01*
X124216309Y-47255000D01*
X124449698Y-47158327D01*
X124628327Y-46979699D01*
X124684119Y-46845006D01*
X124859357Y-47020551D01*
X125423330Y-47254733D01*
X126013668Y-47255247D01*
X126115000Y-47356579D01*
X126115000Y-59859146D01*
X125914683Y-59896838D01*
X125698559Y-60035910D01*
X125553569Y-60248110D01*
X125502560Y-60500000D01*
X125502560Y-62500000D01*
X125546838Y-62735317D01*
X125685910Y-62951441D01*
X125898110Y-63096431D01*
X126150000Y-63147440D01*
X127850000Y-63147440D01*
X128085317Y-63103162D01*
X128301441Y-62964090D01*
X128446431Y-62751890D01*
X128497440Y-62500000D01*
X128497440Y-60500000D01*
X128453162Y-60264683D01*
X128314090Y-60048559D01*
X128101890Y-59903569D01*
X127885000Y-59859648D01*
X127885000Y-46990005D01*
X127885001Y-46990000D01*
X127817633Y-46651325D01*
X127775569Y-46588371D01*
X127625790Y-46364210D01*
X127625787Y-46364208D01*
X127264753Y-46003174D01*
X127265265Y-45416009D01*
X127032068Y-44851629D01*
X126600643Y-44419449D01*
X126036670Y-44185267D01*
X125426009Y-44184735D01*
X124861629Y-44417932D01*
X124684159Y-44595092D01*
X124628327Y-44460301D01*
X124449698Y-44281673D01*
X124216309Y-44185000D01*
X123475750Y-44185000D01*
X123317000Y-44343750D01*
X123063000Y-44343750D01*
X122904250Y-44185000D01*
X122163691Y-44185000D01*
X121930302Y-44281673D01*
X121920000Y-44291975D01*
X121909698Y-44281673D01*
X121676309Y-44185000D01*
X120935750Y-44185000D01*
X120777000Y-44343750D01*
X120523000Y-44343750D01*
X120364250Y-44185000D01*
X119626579Y-44185000D01*
X119746579Y-44065000D01*
X129173420Y-44065000D01*
X129925000Y-44816579D01*
X129925000Y-59859146D01*
X129724683Y-59896838D01*
X129508559Y-60035910D01*
X129363569Y-60248110D01*
X129312560Y-60500000D01*
X129312560Y-62500000D01*
X129356838Y-62735317D01*
X129495910Y-62951441D01*
X129708110Y-63096431D01*
X129960000Y-63147440D01*
X131660000Y-63147440D01*
X131895317Y-63103162D01*
X132111441Y-62964090D01*
X132256431Y-62751890D01*
X132307440Y-62500000D01*
X132307440Y-60500000D01*
X132263162Y-60264683D01*
X132124090Y-60048559D01*
X131911890Y-59903569D01*
X131695000Y-59859648D01*
X131695000Y-44450005D01*
X131695001Y-44450000D01*
X131627633Y-44111325D01*
X131596680Y-44065000D01*
X131435790Y-43824210D01*
X131435787Y-43824208D01*
X130231580Y-42620000D01*
X169470000Y-42620000D01*
X169470000Y-56646421D01*
X169447401Y-56612599D01*
X168177401Y-55342599D01*
X167930839Y-55177852D01*
X167640000Y-55120000D01*
X159064802Y-55120000D01*
X153917421Y-49972619D01*
X161594613Y-49972619D01*
X161934155Y-50794372D01*
X162562321Y-51423636D01*
X163383481Y-51764611D01*
X164272619Y-51765387D01*
X165094372Y-51425845D01*
X165723636Y-50797679D01*
X166064611Y-49976519D01*
X166065387Y-49087381D01*
X165725845Y-48265628D01*
X165097679Y-47636364D01*
X164276519Y-47295389D01*
X163387381Y-47294613D01*
X162565628Y-47634155D01*
X161936364Y-48262321D01*
X161595389Y-49083481D01*
X161594613Y-49972619D01*
X153917421Y-49972619D01*
X151100366Y-47155564D01*
X151211441Y-47084090D01*
X151356431Y-46871890D01*
X151407440Y-46620000D01*
X151407440Y-44820000D01*
X151363162Y-44584683D01*
X151224090Y-44368559D01*
X151011890Y-44223569D01*
X150760000Y-44172560D01*
X148960000Y-44172560D01*
X148724683Y-44216838D01*
X148508559Y-44355910D01*
X148363569Y-44568110D01*
X148359433Y-44588534D01*
X148190643Y-44419449D01*
X147626670Y-44185267D01*
X147016009Y-44184735D01*
X146451629Y-44417932D01*
X146049677Y-44819182D01*
X145650643Y-44419449D01*
X145086670Y-44185267D01*
X144476009Y-44184735D01*
X143911629Y-44417932D01*
X143743387Y-44585880D01*
X143743162Y-44584683D01*
X143604090Y-44368559D01*
X143391890Y-44223569D01*
X143140000Y-44172560D01*
X141340000Y-44172560D01*
X141104683Y-44216838D01*
X140888559Y-44355910D01*
X140743569Y-44568110D01*
X140692560Y-44820000D01*
X140692560Y-46620000D01*
X140736838Y-46855317D01*
X140875910Y-47071441D01*
X141088110Y-47216431D01*
X141340000Y-47267440D01*
X141480000Y-47267440D01*
X141480000Y-58582560D01*
X141390000Y-58582560D01*
X141154683Y-58626838D01*
X140938559Y-58765910D01*
X140793569Y-58978110D01*
X140742560Y-59230000D01*
X140742560Y-61230000D01*
X140786838Y-61465317D01*
X140925910Y-61681441D01*
X141138110Y-61826431D01*
X141390000Y-61877440D01*
X143090000Y-61877440D01*
X143325317Y-61833162D01*
X143541441Y-61694090D01*
X143686431Y-61481890D01*
X143737440Y-61230000D01*
X143737440Y-59230000D01*
X143693162Y-58994683D01*
X143554090Y-58778559D01*
X143341890Y-58633569D01*
X143090000Y-58582560D01*
X143000000Y-58582560D01*
X143000000Y-47267440D01*
X143140000Y-47267440D01*
X143375317Y-47223162D01*
X143591441Y-47084090D01*
X143736431Y-46871890D01*
X143740567Y-46851466D01*
X143909357Y-47020551D01*
X144473330Y-47254733D01*
X145083991Y-47255265D01*
X145648371Y-47022068D01*
X146050323Y-46620818D01*
X146449357Y-47020551D01*
X146576586Y-47073381D01*
X146617852Y-47280839D01*
X146782599Y-47527401D01*
X152910000Y-53654802D01*
X152910000Y-55723486D01*
X152400000Y-55622041D01*
X151826511Y-55736115D01*
X151340330Y-56060971D01*
X151204002Y-56265000D01*
X150249413Y-56265000D01*
X150209162Y-56051083D01*
X150070090Y-55834959D01*
X149857890Y-55689969D01*
X149606000Y-55638960D01*
X147574000Y-55638960D01*
X147338683Y-55683238D01*
X147122559Y-55822310D01*
X146977569Y-56034510D01*
X146926560Y-56286400D01*
X146926560Y-58013600D01*
X146970838Y-58248917D01*
X147109910Y-58465041D01*
X147322110Y-58610031D01*
X147363439Y-58618400D01*
X147345585Y-58630330D01*
X147020729Y-59116511D01*
X146906655Y-59690000D01*
X147020729Y-60263489D01*
X147345585Y-60749670D01*
X147660366Y-60960000D01*
X147345585Y-61170330D01*
X147020729Y-61656511D01*
X146906655Y-62230000D01*
X147020729Y-62803489D01*
X147345585Y-63289670D01*
X147660366Y-63500000D01*
X147345585Y-63710330D01*
X147228874Y-63885000D01*
X143737440Y-63885000D01*
X143737440Y-63230000D01*
X143693162Y-62994683D01*
X143554090Y-62778559D01*
X143341890Y-62633569D01*
X143090000Y-62582560D01*
X141390000Y-62582560D01*
X141154683Y-62626838D01*
X140938559Y-62765910D01*
X140793569Y-62978110D01*
X140742560Y-63230000D01*
X140742560Y-65230000D01*
X140786838Y-65465317D01*
X140925910Y-65681441D01*
X141138110Y-65826431D01*
X141390000Y-65877440D01*
X143090000Y-65877440D01*
X143325317Y-65833162D01*
X143541441Y-65694090D01*
X143568150Y-65655000D01*
X147228874Y-65655000D01*
X147345585Y-65829670D01*
X147660366Y-66040000D01*
X147345585Y-66250330D01*
X147020729Y-66736511D01*
X146906655Y-67310000D01*
X147020729Y-67883489D01*
X147345585Y-68369670D01*
X147660366Y-68580000D01*
X147345585Y-68790330D01*
X147020729Y-69276511D01*
X146906655Y-69850000D01*
X147020729Y-70423489D01*
X147345585Y-70909670D01*
X147660366Y-71120000D01*
X147345585Y-71330330D01*
X147020729Y-71816511D01*
X146906655Y-72390000D01*
X147020729Y-72963489D01*
X147345585Y-73449670D01*
X147660366Y-73660000D01*
X147345585Y-73870330D01*
X147020729Y-74356511D01*
X146906655Y-74930000D01*
X147020729Y-75503489D01*
X147345585Y-75989670D01*
X147660366Y-76200000D01*
X147345585Y-76410330D01*
X147228874Y-76585000D01*
X147141446Y-76585000D01*
X147113162Y-76434683D01*
X146974090Y-76218559D01*
X146761890Y-76073569D01*
X146510000Y-76022560D01*
X144510000Y-76022560D01*
X144274683Y-76066838D01*
X144058559Y-76205910D01*
X143913569Y-76418110D01*
X143862560Y-76670000D01*
X143862560Y-78270000D01*
X143906838Y-78505317D01*
X144045910Y-78721441D01*
X144258110Y-78866431D01*
X144510000Y-78917440D01*
X146510000Y-78917440D01*
X146745317Y-78873162D01*
X146961441Y-78734090D01*
X147106431Y-78521890D01*
X147140227Y-78355000D01*
X147228874Y-78355000D01*
X147345585Y-78529670D01*
X147660366Y-78740000D01*
X147345585Y-78950330D01*
X147020729Y-79436511D01*
X146906655Y-80010000D01*
X147020729Y-80583489D01*
X147345585Y-81069670D01*
X147660366Y-81280000D01*
X147345585Y-81490330D01*
X147020729Y-81976511D01*
X146906655Y-82550000D01*
X147020729Y-83123489D01*
X147345585Y-83609670D01*
X147660366Y-83820000D01*
X147345585Y-84030330D01*
X147228874Y-84205000D01*
X147150854Y-84205000D01*
X147113162Y-84004683D01*
X146974090Y-83788559D01*
X146761890Y-83643569D01*
X146510000Y-83592560D01*
X144510000Y-83592560D01*
X144274683Y-83636838D01*
X144058559Y-83775910D01*
X143913569Y-83988110D01*
X143862560Y-84240000D01*
X143862560Y-85940000D01*
X143906838Y-86175317D01*
X144027015Y-86362077D01*
X143913569Y-86528110D01*
X143862560Y-86780000D01*
X143862560Y-88480000D01*
X143906838Y-88715317D01*
X144045910Y-88931441D01*
X144258110Y-89076431D01*
X144510000Y-89127440D01*
X146017758Y-89127440D01*
X145512599Y-89632599D01*
X145347852Y-89879161D01*
X145290000Y-90170000D01*
X145290000Y-96520000D01*
X145347852Y-96810839D01*
X145512599Y-97057401D01*
X146782599Y-98327401D01*
X147029160Y-98492148D01*
X147118581Y-98509935D01*
X147345585Y-98849670D01*
X147660366Y-99060000D01*
X147345585Y-99270330D01*
X147228874Y-99445000D01*
X146050005Y-99445000D01*
X146050000Y-99444999D01*
X145711325Y-99512367D01*
X145424210Y-99704210D01*
X145424208Y-99704213D01*
X144154210Y-100974210D01*
X143962367Y-101261325D01*
X143962367Y-101261326D01*
X143894999Y-101600000D01*
X143895000Y-101600005D01*
X143895000Y-113029995D01*
X143894999Y-113030000D01*
X143951190Y-113312484D01*
X143962367Y-113368675D01*
X144108988Y-113588110D01*
X144154210Y-113655790D01*
X145424208Y-114925787D01*
X145424210Y-114925790D01*
X145711325Y-115117633D01*
X146050000Y-115185001D01*
X146050005Y-115185000D01*
X151129995Y-115185000D01*
X151130000Y-115185001D01*
X151412484Y-115128810D01*
X151468675Y-115117633D01*
X151755790Y-114925790D01*
X151755791Y-114925789D01*
X154295787Y-112385792D01*
X154295790Y-112385790D01*
X154487633Y-112098675D01*
X154555000Y-111760000D01*
X154555000Y-111375000D01*
X162560000Y-111375000D01*
X162898675Y-111307633D01*
X163185790Y-111115790D01*
X163377633Y-110828675D01*
X163445000Y-110490000D01*
X163445000Y-109311126D01*
X163619670Y-109194415D01*
X163826461Y-108884931D01*
X164197964Y-109300732D01*
X164725209Y-109554709D01*
X164740974Y-109557358D01*
X164973000Y-109436217D01*
X164973000Y-108077000D01*
X165227000Y-108077000D01*
X165227000Y-109436217D01*
X165459026Y-109557358D01*
X165474791Y-109554709D01*
X166002036Y-109300732D01*
X166391954Y-108864320D01*
X166585184Y-108311913D01*
X166440924Y-108077000D01*
X165227000Y-108077000D01*
X164973000Y-108077000D01*
X164953000Y-108077000D01*
X164953000Y-107823000D01*
X164973000Y-107823000D01*
X164973000Y-106463783D01*
X165227000Y-106463783D01*
X165227000Y-107823000D01*
X166440924Y-107823000D01*
X166585184Y-107588087D01*
X166391954Y-107035680D01*
X166002036Y-106599268D01*
X165474791Y-106345291D01*
X165459026Y-106342642D01*
X165227000Y-106463783D01*
X164973000Y-106463783D01*
X164740974Y-106342642D01*
X164725209Y-106345291D01*
X164197964Y-106599268D01*
X163826461Y-107015069D01*
X163619670Y-106705585D01*
X163445000Y-106588874D01*
X163445000Y-105501126D01*
X163619670Y-105384415D01*
X163826461Y-105074931D01*
X164197964Y-105490732D01*
X164725209Y-105744709D01*
X164740974Y-105747358D01*
X164973000Y-105626217D01*
X164973000Y-104267000D01*
X165227000Y-104267000D01*
X165227000Y-105626217D01*
X165459026Y-105747358D01*
X165474791Y-105744709D01*
X166002036Y-105490732D01*
X166391954Y-105054320D01*
X166585184Y-104501913D01*
X166440924Y-104267000D01*
X165227000Y-104267000D01*
X164973000Y-104267000D01*
X164953000Y-104267000D01*
X164953000Y-104013000D01*
X164973000Y-104013000D01*
X164973000Y-102653783D01*
X165227000Y-102653783D01*
X165227000Y-104013000D01*
X166440924Y-104013000D01*
X166585184Y-103778087D01*
X166391954Y-103225680D01*
X166002036Y-102789268D01*
X165474791Y-102535291D01*
X165459026Y-102532642D01*
X165227000Y-102653783D01*
X164973000Y-102653783D01*
X164740974Y-102532642D01*
X164725209Y-102535291D01*
X164197964Y-102789268D01*
X163826461Y-103205069D01*
X163686290Y-102995289D01*
X164854139Y-101827440D01*
X165560000Y-101827440D01*
X165795317Y-101783162D01*
X166011441Y-101644090D01*
X166156431Y-101431890D01*
X166207440Y-101180000D01*
X166207440Y-99480000D01*
X166163162Y-99244683D01*
X166024090Y-99028559D01*
X165811890Y-98883569D01*
X165560000Y-98832560D01*
X163560000Y-98832560D01*
X163324683Y-98876838D01*
X163108559Y-99015910D01*
X162963569Y-99228110D01*
X162912560Y-99480000D01*
X162912560Y-101180000D01*
X162926157Y-101252263D01*
X161934210Y-102244210D01*
X161742367Y-102531325D01*
X161742367Y-102531326D01*
X161695904Y-102764907D01*
X161500330Y-102895585D01*
X161490757Y-102909913D01*
X161486762Y-102888683D01*
X161347690Y-102672559D01*
X161135490Y-102527569D01*
X160905000Y-102480894D01*
X160905000Y-101827440D01*
X161560000Y-101827440D01*
X161795317Y-101783162D01*
X162011441Y-101644090D01*
X162156431Y-101431890D01*
X162207440Y-101180000D01*
X162207440Y-99480000D01*
X162163162Y-99244683D01*
X162024090Y-99028559D01*
X161811890Y-98883569D01*
X161560000Y-98832560D01*
X159560000Y-98832560D01*
X159510000Y-98841968D01*
X159510000Y-98104802D01*
X160334802Y-97280000D01*
X167640000Y-97280000D01*
X167930839Y-97222148D01*
X168177401Y-97057401D01*
X169447401Y-95787401D01*
X169470000Y-95753579D01*
X169470000Y-131370000D01*
X104850000Y-131370000D01*
X104850000Y-126172619D01*
X108254613Y-126172619D01*
X108594155Y-126994372D01*
X109222321Y-127623636D01*
X110043481Y-127964611D01*
X110932619Y-127965387D01*
X111754372Y-127625845D01*
X112383636Y-126997679D01*
X112724611Y-126176519D01*
X112724614Y-126172619D01*
X161594613Y-126172619D01*
X161934155Y-126994372D01*
X162562321Y-127623636D01*
X163383481Y-127964611D01*
X164272619Y-127965387D01*
X165094372Y-127625845D01*
X165723636Y-126997679D01*
X166064611Y-126176519D01*
X166065387Y-125287381D01*
X165725845Y-124465628D01*
X165097679Y-123836364D01*
X164276519Y-123495389D01*
X163387381Y-123494613D01*
X162565628Y-123834155D01*
X161936364Y-124462321D01*
X161595389Y-125283481D01*
X161594613Y-126172619D01*
X112724614Y-126172619D01*
X112725387Y-125287381D01*
X112385845Y-124465628D01*
X112031587Y-124110750D01*
X123977400Y-124110750D01*
X123977400Y-125068910D01*
X124074073Y-125302299D01*
X124252702Y-125480927D01*
X124486091Y-125577600D01*
X125444250Y-125577600D01*
X125603000Y-125418850D01*
X125603000Y-123952000D01*
X125857000Y-123952000D01*
X125857000Y-125418850D01*
X126015750Y-125577600D01*
X126973909Y-125577600D01*
X127207298Y-125480927D01*
X127385927Y-125302299D01*
X127482600Y-125068910D01*
X127482600Y-124110750D01*
X146837400Y-124110750D01*
X146837400Y-125068910D01*
X146934073Y-125302299D01*
X147112702Y-125480927D01*
X147346091Y-125577600D01*
X148304250Y-125577600D01*
X148463000Y-125418850D01*
X148463000Y-123952000D01*
X148717000Y-123952000D01*
X148717000Y-125418850D01*
X148875750Y-125577600D01*
X149833909Y-125577600D01*
X150067298Y-125480927D01*
X150245927Y-125302299D01*
X150342600Y-125068910D01*
X150342600Y-124110750D01*
X150183850Y-123952000D01*
X148717000Y-123952000D01*
X148463000Y-123952000D01*
X146996150Y-123952000D01*
X146837400Y-124110750D01*
X127482600Y-124110750D01*
X127323850Y-123952000D01*
X125857000Y-123952000D01*
X125603000Y-123952000D01*
X124136150Y-123952000D01*
X123977400Y-124110750D01*
X112031587Y-124110750D01*
X111757679Y-123836364D01*
X110936519Y-123495389D01*
X110047381Y-123494613D01*
X109225628Y-123834155D01*
X108596364Y-124462321D01*
X108255389Y-125283481D01*
X108254613Y-126172619D01*
X104850000Y-126172619D01*
X104850000Y-122581090D01*
X123977400Y-122581090D01*
X123977400Y-123539250D01*
X124136150Y-123698000D01*
X125603000Y-123698000D01*
X125603000Y-122231150D01*
X125857000Y-122231150D01*
X125857000Y-123698000D01*
X127323850Y-123698000D01*
X127482600Y-123539250D01*
X127482600Y-122581090D01*
X146837400Y-122581090D01*
X146837400Y-123539250D01*
X146996150Y-123698000D01*
X148463000Y-123698000D01*
X148463000Y-122231150D01*
X148717000Y-122231150D01*
X148717000Y-123698000D01*
X150183850Y-123698000D01*
X150342600Y-123539250D01*
X150342600Y-122581090D01*
X150245927Y-122347701D01*
X150067298Y-122169073D01*
X149833909Y-122072400D01*
X148875750Y-122072400D01*
X148717000Y-122231150D01*
X148463000Y-122231150D01*
X148304250Y-122072400D01*
X147346091Y-122072400D01*
X147112702Y-122169073D01*
X146934073Y-122347701D01*
X146837400Y-122581090D01*
X127482600Y-122581090D01*
X127385927Y-122347701D01*
X127207298Y-122169073D01*
X126973909Y-122072400D01*
X126015750Y-122072400D01*
X125857000Y-122231150D01*
X125603000Y-122231150D01*
X125444250Y-122072400D01*
X124486091Y-122072400D01*
X124252702Y-122169073D01*
X124074073Y-122347701D01*
X123977400Y-122581090D01*
X104850000Y-122581090D01*
X104850000Y-119683991D01*
X107684735Y-119683991D01*
X107917932Y-120248371D01*
X108349357Y-120680551D01*
X108913330Y-120914733D01*
X109523991Y-120915265D01*
X110088371Y-120682068D01*
X110506169Y-120265000D01*
X112968896Y-120265000D01*
X112985910Y-120291441D01*
X113198110Y-120436431D01*
X113450000Y-120487440D01*
X115150000Y-120487440D01*
X115385317Y-120443162D01*
X115601441Y-120304090D01*
X115746431Y-120091890D01*
X115797440Y-119840000D01*
X115797440Y-117840000D01*
X115753162Y-117604683D01*
X115614090Y-117388559D01*
X115401890Y-117243569D01*
X115150000Y-117192560D01*
X113450000Y-117192560D01*
X113214683Y-117236838D01*
X112998559Y-117375910D01*
X112853569Y-117588110D01*
X112802560Y-117840000D01*
X112802560Y-118495000D01*
X110505468Y-118495000D01*
X110344908Y-118334159D01*
X110479699Y-118278327D01*
X110658327Y-118099698D01*
X110755000Y-117866309D01*
X110755000Y-117125750D01*
X110596250Y-116967000D01*
X109347000Y-116967000D01*
X109347000Y-116987000D01*
X109093000Y-116987000D01*
X109093000Y-116967000D01*
X107843750Y-116967000D01*
X107685000Y-117125750D01*
X107685000Y-117866309D01*
X107781673Y-118099698D01*
X107960301Y-118278327D01*
X108094994Y-118334119D01*
X107919449Y-118509357D01*
X107685267Y-119073330D01*
X107684735Y-119683991D01*
X104850000Y-119683991D01*
X104850000Y-115813691D01*
X107685000Y-115813691D01*
X107685000Y-116554250D01*
X107843750Y-116713000D01*
X109093000Y-116713000D01*
X109093000Y-115463750D01*
X109347000Y-115463750D01*
X109347000Y-116713000D01*
X110596250Y-116713000D01*
X110755000Y-116554250D01*
X110755000Y-115813691D01*
X110658327Y-115580302D01*
X110479699Y-115401673D01*
X110246310Y-115305000D01*
X109505750Y-115305000D01*
X109347000Y-115463750D01*
X109093000Y-115463750D01*
X108934250Y-115305000D01*
X108193690Y-115305000D01*
X107960301Y-115401673D01*
X107781673Y-115580302D01*
X107685000Y-115813691D01*
X104850000Y-115813691D01*
X104850000Y-113410355D01*
X108900373Y-113410355D01*
X109166932Y-113989726D01*
X109634916Y-114422987D01*
X110109646Y-114619619D01*
X110363000Y-114500265D01*
X110363000Y-113157000D01*
X110617000Y-113157000D01*
X110617000Y-114500265D01*
X110870354Y-114619619D01*
X111345084Y-114422987D01*
X111813068Y-113989726D01*
X112079627Y-113410355D01*
X111960807Y-113157000D01*
X110617000Y-113157000D01*
X110363000Y-113157000D01*
X109019193Y-113157000D01*
X108900373Y-113410355D01*
X104850000Y-113410355D01*
X104850000Y-109490510D01*
X108843070Y-109490510D01*
X108843070Y-111489490D01*
X108887348Y-111724807D01*
X109026420Y-111940931D01*
X109187649Y-112051094D01*
X109166932Y-112070274D01*
X108900373Y-112649645D01*
X109019193Y-112903000D01*
X110363000Y-112903000D01*
X110363000Y-112883000D01*
X110617000Y-112883000D01*
X110617000Y-112903000D01*
X111960807Y-112903000D01*
X112079627Y-112649645D01*
X111813068Y-112070274D01*
X111791137Y-112049970D01*
X111940931Y-111953580D01*
X112085921Y-111741380D01*
X112109489Y-111625000D01*
X112312560Y-111625000D01*
X112312560Y-111840000D01*
X112356838Y-112075317D01*
X112495910Y-112291441D01*
X112708110Y-112436431D01*
X112960000Y-112487440D01*
X116460000Y-112487440D01*
X116695317Y-112443162D01*
X116911441Y-112304090D01*
X117056431Y-112091890D01*
X117107440Y-111840000D01*
X117107440Y-109140000D01*
X117063162Y-108904683D01*
X116924090Y-108688559D01*
X116711890Y-108543569D01*
X116460000Y-108492560D01*
X112960000Y-108492560D01*
X112724683Y-108536838D01*
X112508559Y-108675910D01*
X112363569Y-108888110D01*
X112312560Y-109140000D01*
X112312560Y-109355000D01*
X112111432Y-109355000D01*
X112092652Y-109255193D01*
X111953580Y-109039069D01*
X111741380Y-108894079D01*
X111489490Y-108843070D01*
X109490510Y-108843070D01*
X109255193Y-108887348D01*
X109039069Y-109026420D01*
X108894079Y-109238620D01*
X108843070Y-109490510D01*
X104850000Y-109490510D01*
X104850000Y-104831580D01*
X106502560Y-106484139D01*
X106502560Y-107140000D01*
X106546838Y-107375317D01*
X106685910Y-107591441D01*
X106898110Y-107736431D01*
X107150000Y-107787440D01*
X108750000Y-107787440D01*
X108985317Y-107743162D01*
X109201441Y-107604090D01*
X109346431Y-107391890D01*
X109397440Y-107140000D01*
X109397440Y-107025000D01*
X109642000Y-107025000D01*
X109656968Y-107104547D01*
X109796040Y-107320671D01*
X110008240Y-107465661D01*
X110260130Y-107516670D01*
X113259870Y-107516670D01*
X113495187Y-107472392D01*
X113711311Y-107333320D01*
X113856301Y-107121120D01*
X113907310Y-106869230D01*
X113907310Y-104870250D01*
X113863032Y-104634933D01*
X113723960Y-104418809D01*
X113511760Y-104273819D01*
X113259870Y-104222810D01*
X112928770Y-104222810D01*
X113777579Y-103374000D01*
X115199704Y-103374000D01*
X115220838Y-103486317D01*
X115359910Y-103702441D01*
X115572110Y-103847431D01*
X115824000Y-103898440D01*
X117856000Y-103898440D01*
X118091317Y-103854162D01*
X118307441Y-103715090D01*
X118452431Y-103502890D01*
X118503440Y-103251000D01*
X118503440Y-101727000D01*
X118459162Y-101491683D01*
X118320090Y-101275559D01*
X118107890Y-101130569D01*
X117856000Y-101079560D01*
X115824000Y-101079560D01*
X115588683Y-101123838D01*
X115372559Y-101262910D01*
X115227569Y-101475110D01*
X115201468Y-101604000D01*
X113411005Y-101604000D01*
X113411000Y-101603999D01*
X113072326Y-101671366D01*
X112989064Y-101727000D01*
X112785210Y-101863210D01*
X112785208Y-101863213D01*
X111134210Y-103514210D01*
X110942367Y-103801325D01*
X110942367Y-103801326D01*
X110874999Y-104140000D01*
X110875000Y-104140005D01*
X110875000Y-104222810D01*
X110260130Y-104222810D01*
X110024813Y-104267088D01*
X109808689Y-104406160D01*
X109663699Y-104618360D01*
X109612690Y-104870250D01*
X109612690Y-105255000D01*
X109397440Y-105255000D01*
X109397440Y-105140000D01*
X109353162Y-104904683D01*
X109214090Y-104688559D01*
X109001890Y-104543569D01*
X108750000Y-104492560D01*
X107150000Y-104492560D01*
X107035655Y-104514076D01*
X106295000Y-103773420D01*
X106295000Y-102425750D01*
X106515000Y-102425750D01*
X106515000Y-103266309D01*
X106611673Y-103499698D01*
X106790301Y-103678327D01*
X107023690Y-103775000D01*
X107664250Y-103775000D01*
X107823000Y-103616250D01*
X107823000Y-102267000D01*
X108077000Y-102267000D01*
X108077000Y-103616250D01*
X108235750Y-103775000D01*
X108876310Y-103775000D01*
X109109699Y-103678327D01*
X109288327Y-103499698D01*
X109385000Y-103266309D01*
X109385000Y-102425750D01*
X109226250Y-102267000D01*
X108077000Y-102267000D01*
X107823000Y-102267000D01*
X106673750Y-102267000D01*
X106515000Y-102425750D01*
X106295000Y-102425750D01*
X106295000Y-101013691D01*
X106515000Y-101013691D01*
X106515000Y-101854250D01*
X106673750Y-102013000D01*
X107823000Y-102013000D01*
X107823000Y-100663750D01*
X108077000Y-100663750D01*
X108077000Y-102013000D01*
X109226250Y-102013000D01*
X109385000Y-101854250D01*
X109385000Y-101013691D01*
X109288327Y-100780302D01*
X109109699Y-100601673D01*
X108876310Y-100505000D01*
X108235750Y-100505000D01*
X108077000Y-100663750D01*
X107823000Y-100663750D01*
X107664250Y-100505000D01*
X107023690Y-100505000D01*
X106790301Y-100601673D01*
X106611673Y-100780302D01*
X106515000Y-101013691D01*
X106295000Y-101013691D01*
X106295000Y-100156010D01*
X109625130Y-100156010D01*
X109625130Y-100996059D01*
X109721803Y-101229448D01*
X109900431Y-101408077D01*
X110133820Y-101504750D01*
X111474250Y-101504750D01*
X111633000Y-101346000D01*
X111633000Y-99997260D01*
X111887000Y-99997260D01*
X111887000Y-101346000D01*
X112045750Y-101504750D01*
X113386180Y-101504750D01*
X113619569Y-101408077D01*
X113798197Y-101229448D01*
X113894870Y-100996059D01*
X113894870Y-100156010D01*
X113736120Y-99997260D01*
X111887000Y-99997260D01*
X111633000Y-99997260D01*
X109783880Y-99997260D01*
X109625130Y-100156010D01*
X106295000Y-100156010D01*
X106295000Y-98170355D01*
X108900373Y-98170355D01*
X109166932Y-98749726D01*
X109625130Y-99173927D01*
X109625130Y-99584510D01*
X109783880Y-99743260D01*
X111633000Y-99743260D01*
X111633000Y-99723260D01*
X111887000Y-99723260D01*
X111887000Y-99743260D01*
X113736120Y-99743260D01*
X113894870Y-99584510D01*
X113894870Y-98744461D01*
X113798197Y-98511072D01*
X113619569Y-98332443D01*
X113386180Y-98235770D01*
X112049531Y-98235770D01*
X112079627Y-98170355D01*
X111960807Y-97917000D01*
X110617000Y-97917000D01*
X110617000Y-97937000D01*
X110363000Y-97937000D01*
X110363000Y-97917000D01*
X109019193Y-97917000D01*
X108900373Y-98170355D01*
X106295000Y-98170355D01*
X106295000Y-86726580D01*
X107046579Y-85975000D01*
X108843070Y-85975000D01*
X108843070Y-86089490D01*
X108887348Y-86324807D01*
X109026420Y-86540931D01*
X109192473Y-86654390D01*
X108979928Y-86972486D01*
X108855510Y-87597978D01*
X108855510Y-87662022D01*
X108979928Y-88287514D01*
X109334241Y-88817781D01*
X109457290Y-88900000D01*
X109334241Y-88982219D01*
X108979928Y-89512486D01*
X108855510Y-90137978D01*
X108855510Y-90202022D01*
X108979928Y-90827514D01*
X109334241Y-91357781D01*
X109457290Y-91440000D01*
X109334241Y-91522219D01*
X108979928Y-92052486D01*
X108855510Y-92677978D01*
X108855510Y-92742022D01*
X108979928Y-93367514D01*
X109334241Y-93897781D01*
X109457290Y-93980000D01*
X109334241Y-94062219D01*
X108979928Y-94592486D01*
X108855510Y-95217978D01*
X108855510Y-95282022D01*
X108979928Y-95907514D01*
X109334241Y-96437781D01*
X109483300Y-96537379D01*
X109166932Y-96830274D01*
X108900373Y-97409645D01*
X109019193Y-97663000D01*
X110363000Y-97663000D01*
X110363000Y-97643000D01*
X110617000Y-97643000D01*
X110617000Y-97663000D01*
X111960807Y-97663000D01*
X112079627Y-97409645D01*
X111813068Y-96830274D01*
X111496700Y-96537379D01*
X111645759Y-96437781D01*
X111848071Y-96135000D01*
X111929146Y-96135000D01*
X111966838Y-96335317D01*
X112105910Y-96551441D01*
X112318110Y-96696431D01*
X112570000Y-96747440D01*
X114570000Y-96747440D01*
X114805317Y-96703162D01*
X115021441Y-96564090D01*
X115166431Y-96351890D01*
X115217440Y-96100000D01*
X115217440Y-94400000D01*
X115173162Y-94164683D01*
X115052985Y-93977923D01*
X115166431Y-93811890D01*
X115217440Y-93560000D01*
X115217440Y-91860000D01*
X115173162Y-91624683D01*
X115052985Y-91437923D01*
X115166431Y-91271890D01*
X115217440Y-91020000D01*
X115217440Y-89320000D01*
X115173162Y-89084683D01*
X115052985Y-88897923D01*
X115166431Y-88731890D01*
X115217440Y-88480000D01*
X115217440Y-86780000D01*
X115173162Y-86544683D01*
X115034090Y-86328559D01*
X114821890Y-86183569D01*
X114570000Y-86132560D01*
X112570000Y-86132560D01*
X112334683Y-86176838D01*
X112118559Y-86315910D01*
X111973569Y-86528110D01*
X111929648Y-86745000D01*
X111848071Y-86745000D01*
X111786547Y-86652923D01*
X111940931Y-86553580D01*
X112085921Y-86341380D01*
X112136930Y-86089490D01*
X112136930Y-84090510D01*
X112092652Y-83855193D01*
X111953580Y-83639069D01*
X111741380Y-83494079D01*
X111489490Y-83443070D01*
X109490510Y-83443070D01*
X109255193Y-83487348D01*
X109039069Y-83626420D01*
X108894079Y-83838620D01*
X108843070Y-84090510D01*
X108843070Y-84205000D01*
X106680005Y-84205000D01*
X106680000Y-84204999D01*
X106341325Y-84272367D01*
X106054210Y-84464210D01*
X106054208Y-84464213D01*
X104850000Y-85668420D01*
X104850000Y-82295750D01*
X106515000Y-82295750D01*
X106515000Y-83136309D01*
X106611673Y-83369698D01*
X106790301Y-83548327D01*
X107023690Y-83645000D01*
X107664250Y-83645000D01*
X107823000Y-83486250D01*
X107823000Y-82137000D01*
X108077000Y-82137000D01*
X108077000Y-83486250D01*
X108235750Y-83645000D01*
X108876310Y-83645000D01*
X109109699Y-83548327D01*
X109288327Y-83369698D01*
X109385000Y-83136309D01*
X109385000Y-82831903D01*
X109428691Y-82850000D01*
X110044250Y-82850000D01*
X110203000Y-82691250D01*
X110203000Y-82042000D01*
X110457000Y-82042000D01*
X110457000Y-82691250D01*
X110615750Y-82850000D01*
X111231309Y-82850000D01*
X111464698Y-82753327D01*
X111643327Y-82574699D01*
X111740000Y-82341310D01*
X111740000Y-82200750D01*
X111581250Y-82042000D01*
X110457000Y-82042000D01*
X110203000Y-82042000D01*
X109078750Y-82042000D01*
X108983750Y-82137000D01*
X108077000Y-82137000D01*
X107823000Y-82137000D01*
X106673750Y-82137000D01*
X106515000Y-82295750D01*
X104850000Y-82295750D01*
X104850000Y-80883691D01*
X106515000Y-80883691D01*
X106515000Y-81724250D01*
X106673750Y-81883000D01*
X107823000Y-81883000D01*
X107823000Y-80533750D01*
X107664250Y-80375000D01*
X107023690Y-80375000D01*
X106790301Y-80471673D01*
X106611673Y-80650302D01*
X106515000Y-80883691D01*
X104850000Y-80883691D01*
X104850000Y-77010000D01*
X106502560Y-77010000D01*
X106502560Y-79010000D01*
X106546838Y-79245317D01*
X106685910Y-79461441D01*
X106898110Y-79606431D01*
X107150000Y-79657440D01*
X108750000Y-79657440D01*
X108907560Y-79627793D01*
X108907560Y-79675000D01*
X108951838Y-79910317D01*
X109015678Y-80009528D01*
X108958569Y-80093110D01*
X108907560Y-80345000D01*
X108907560Y-80387944D01*
X108876310Y-80375000D01*
X108235750Y-80375000D01*
X108077000Y-80533750D01*
X108077000Y-81883000D01*
X109226250Y-81883000D01*
X109321250Y-81788000D01*
X110203000Y-81788000D01*
X110203000Y-81768000D01*
X110457000Y-81768000D01*
X110457000Y-81788000D01*
X111581250Y-81788000D01*
X111740000Y-81629250D01*
X111740000Y-81530000D01*
X112394995Y-81530000D01*
X112395000Y-81530001D01*
X112677484Y-81473810D01*
X112733675Y-81462633D01*
X113020790Y-81270790D01*
X113655787Y-80635792D01*
X113655790Y-80635790D01*
X113816680Y-80395000D01*
X113847634Y-80348674D01*
X113915001Y-80010000D01*
X113915000Y-80009995D01*
X113915000Y-79606580D01*
X114309208Y-80000787D01*
X114309210Y-80000790D01*
X114386405Y-80052370D01*
X114358569Y-80093110D01*
X114307560Y-80345000D01*
X114307560Y-80945000D01*
X114351838Y-81180317D01*
X114415678Y-81279528D01*
X114358569Y-81363110D01*
X114307560Y-81615000D01*
X114307560Y-82215000D01*
X114351838Y-82450317D01*
X114490910Y-82666441D01*
X114685000Y-82799057D01*
X114685000Y-83819995D01*
X114684999Y-83820000D01*
X114738808Y-84090510D01*
X114752367Y-84158675D01*
X114886887Y-84360000D01*
X114944210Y-84445790D01*
X116214208Y-85715787D01*
X116214210Y-85715790D01*
X116501325Y-85907633D01*
X116840000Y-85975001D01*
X116840005Y-85975000D01*
X119288874Y-85975000D01*
X119405585Y-86149670D01*
X119720366Y-86360000D01*
X119405585Y-86570330D01*
X119288874Y-86745000D01*
X119210854Y-86745000D01*
X119173162Y-86544683D01*
X119034090Y-86328559D01*
X118821890Y-86183569D01*
X118570000Y-86132560D01*
X116570000Y-86132560D01*
X116334683Y-86176838D01*
X116118559Y-86315910D01*
X115973569Y-86528110D01*
X115922560Y-86780000D01*
X115922560Y-88480000D01*
X115966838Y-88715317D01*
X116087015Y-88902077D01*
X115973569Y-89068110D01*
X115922560Y-89320000D01*
X115922560Y-91020000D01*
X115966838Y-91255317D01*
X116087015Y-91442077D01*
X115973569Y-91608110D01*
X115922560Y-91860000D01*
X115922560Y-93560000D01*
X115966838Y-93795317D01*
X116087015Y-93982077D01*
X115973569Y-94148110D01*
X115922560Y-94400000D01*
X115922560Y-96100000D01*
X115966838Y-96335317D01*
X116105910Y-96551441D01*
X116318110Y-96696431D01*
X116570000Y-96747440D01*
X118570000Y-96747440D01*
X118805317Y-96703162D01*
X119021441Y-96564090D01*
X119166431Y-96351890D01*
X119210352Y-96135000D01*
X119288874Y-96135000D01*
X119405585Y-96309670D01*
X119720366Y-96520000D01*
X119405585Y-96730330D01*
X119080729Y-97216511D01*
X118966655Y-97790000D01*
X119080729Y-98363489D01*
X119405585Y-98849670D01*
X119720366Y-99060000D01*
X119405585Y-99270330D01*
X119080729Y-99756511D01*
X118966655Y-100330000D01*
X119080729Y-100903489D01*
X119405585Y-101389670D01*
X119720366Y-101600000D01*
X119405585Y-101810330D01*
X119080729Y-102296511D01*
X118966655Y-102870000D01*
X119038290Y-103230131D01*
X117881663Y-104386757D01*
X117856000Y-104381560D01*
X115824000Y-104381560D01*
X115588683Y-104425838D01*
X115372559Y-104564910D01*
X115227569Y-104777110D01*
X115176560Y-105029000D01*
X115176560Y-106553000D01*
X115220838Y-106788317D01*
X115359910Y-107004441D01*
X115572110Y-107149431D01*
X115824000Y-107200440D01*
X116143818Y-107200440D01*
X116214210Y-107305790D01*
X117225000Y-108316579D01*
X117225000Y-112663421D01*
X115933420Y-113955000D01*
X115797440Y-113955000D01*
X115797440Y-113840000D01*
X115753162Y-113604683D01*
X115614090Y-113388559D01*
X115401890Y-113243569D01*
X115150000Y-113192560D01*
X113450000Y-113192560D01*
X113214683Y-113236838D01*
X112998559Y-113375910D01*
X112853569Y-113588110D01*
X112802560Y-113840000D01*
X112802560Y-115840000D01*
X112846838Y-116075317D01*
X112985910Y-116291441D01*
X113198110Y-116436431D01*
X113450000Y-116487440D01*
X115150000Y-116487440D01*
X115385317Y-116443162D01*
X115601441Y-116304090D01*
X115746431Y-116091890D01*
X115797440Y-115840000D01*
X115797440Y-115725000D01*
X116299995Y-115725000D01*
X116300000Y-115725001D01*
X116582484Y-115668810D01*
X116638675Y-115657633D01*
X116925790Y-115465790D01*
X118735787Y-113655792D01*
X118735790Y-113655790D01*
X118896680Y-113415000D01*
X118927634Y-113368674D01*
X118995001Y-113030000D01*
X118995000Y-113029995D01*
X118995000Y-109140000D01*
X119112560Y-109140000D01*
X119112560Y-111840000D01*
X119156838Y-112075317D01*
X119295910Y-112291441D01*
X119508110Y-112436431D01*
X119760000Y-112487440D01*
X123260000Y-112487440D01*
X123495317Y-112443162D01*
X123711441Y-112304090D01*
X123856431Y-112091890D01*
X123907440Y-111840000D01*
X123907440Y-111625000D01*
X123968234Y-111625000D01*
X124009238Y-111842917D01*
X124148310Y-112059041D01*
X124360510Y-112204031D01*
X124612400Y-112255040D01*
X126847600Y-112255040D01*
X127082917Y-112210762D01*
X127299041Y-112071690D01*
X127444031Y-111859490D01*
X127495040Y-111607600D01*
X127495040Y-109372400D01*
X127450762Y-109137083D01*
X127311690Y-108920959D01*
X127099490Y-108775969D01*
X126847600Y-108724960D01*
X124612400Y-108724960D01*
X124377083Y-108769238D01*
X124160959Y-108908310D01*
X124015969Y-109120510D01*
X123968484Y-109355000D01*
X123907440Y-109355000D01*
X123907440Y-109140000D01*
X123863162Y-108904683D01*
X123724090Y-108688559D01*
X123511890Y-108543569D01*
X123260000Y-108492560D01*
X119760000Y-108492560D01*
X119524683Y-108536838D01*
X119308559Y-108675910D01*
X119163569Y-108888110D01*
X119112560Y-109140000D01*
X118995000Y-109140000D01*
X118995000Y-107950005D01*
X118995001Y-107950000D01*
X118927633Y-107611325D01*
X118864387Y-107516670D01*
X118735790Y-107324210D01*
X118735787Y-107324208D01*
X118356650Y-106945071D01*
X118452431Y-106804890D01*
X118503440Y-106553000D01*
X118503440Y-106268140D01*
X119086438Y-105685142D01*
X119042642Y-105769026D01*
X119045291Y-105784791D01*
X119299268Y-106312036D01*
X119735680Y-106701954D01*
X120288087Y-106895184D01*
X120523000Y-106750924D01*
X120523000Y-105537000D01*
X120777000Y-105537000D01*
X120777000Y-106750924D01*
X121011913Y-106895184D01*
X121564320Y-106701954D01*
X122000732Y-106312036D01*
X122254709Y-105784791D01*
X122257358Y-105769026D01*
X122136217Y-105537000D01*
X120777000Y-105537000D01*
X120523000Y-105537000D01*
X120503000Y-105537000D01*
X120503000Y-105283000D01*
X120523000Y-105283000D01*
X120523000Y-105263000D01*
X120777000Y-105263000D01*
X120777000Y-105283000D01*
X122136217Y-105283000D01*
X122202654Y-105155750D01*
X126835000Y-105155750D01*
X126835000Y-105996309D01*
X126931673Y-106229698D01*
X127110301Y-106408327D01*
X127343690Y-106505000D01*
X127984250Y-106505000D01*
X128143000Y-106346250D01*
X128143000Y-104997000D01*
X128397000Y-104997000D01*
X128397000Y-106346250D01*
X128555750Y-106505000D01*
X129196310Y-106505000D01*
X129429699Y-106408327D01*
X129608327Y-106229698D01*
X129705000Y-105996309D01*
X129705000Y-105155750D01*
X129546250Y-104997000D01*
X128397000Y-104997000D01*
X128143000Y-104997000D01*
X126993750Y-104997000D01*
X126835000Y-105155750D01*
X122202654Y-105155750D01*
X122257358Y-105050974D01*
X122254709Y-105035209D01*
X122182589Y-104885490D01*
X133755130Y-104885490D01*
X133755130Y-105725539D01*
X133851803Y-105958928D01*
X134030431Y-106137557D01*
X134263820Y-106234230D01*
X135604250Y-106234230D01*
X135763000Y-106075480D01*
X135763000Y-104726740D01*
X136017000Y-104726740D01*
X136017000Y-106075480D01*
X136175750Y-106234230D01*
X137516180Y-106234230D01*
X137749569Y-106137557D01*
X137928197Y-105958928D01*
X138024870Y-105725539D01*
X138024870Y-104885490D01*
X137866120Y-104726740D01*
X136017000Y-104726740D01*
X135763000Y-104726740D01*
X133913880Y-104726740D01*
X133755130Y-104885490D01*
X122182589Y-104885490D01*
X122000732Y-104507964D01*
X121584931Y-104136461D01*
X121894415Y-103929670D01*
X122011126Y-103755000D01*
X124459995Y-103755000D01*
X124460000Y-103755001D01*
X124516857Y-103743691D01*
X126835000Y-103743691D01*
X126835000Y-104584250D01*
X126993750Y-104743000D01*
X128143000Y-104743000D01*
X128143000Y-103393750D01*
X128397000Y-103393750D01*
X128397000Y-104743000D01*
X129546250Y-104743000D01*
X129705000Y-104584250D01*
X129705000Y-103743691D01*
X129608327Y-103510302D01*
X129571967Y-103473941D01*
X133755130Y-103473941D01*
X133755130Y-104313990D01*
X133913880Y-104472740D01*
X135763000Y-104472740D01*
X135763000Y-103124000D01*
X136017000Y-103124000D01*
X136017000Y-104472740D01*
X137866120Y-104472740D01*
X138024870Y-104313990D01*
X138024870Y-103473941D01*
X137928197Y-103240552D01*
X137749569Y-103061923D01*
X137516180Y-102965250D01*
X136175750Y-102965250D01*
X136017000Y-103124000D01*
X135763000Y-103124000D01*
X135604250Y-102965250D01*
X134263820Y-102965250D01*
X134030431Y-103061923D01*
X133851803Y-103240552D01*
X133755130Y-103473941D01*
X129571967Y-103473941D01*
X129429699Y-103331673D01*
X129196310Y-103235000D01*
X128555750Y-103235000D01*
X128397000Y-103393750D01*
X128143000Y-103393750D01*
X127984250Y-103235000D01*
X127343690Y-103235000D01*
X127110301Y-103331673D01*
X126931673Y-103510302D01*
X126835000Y-103743691D01*
X124516857Y-103743691D01*
X124742484Y-103698810D01*
X124798675Y-103687633D01*
X125085790Y-103495790D01*
X125085791Y-103495789D01*
X126822560Y-101759019D01*
X126822560Y-101870000D01*
X126866838Y-102105317D01*
X127005910Y-102321441D01*
X127218110Y-102466431D01*
X127470000Y-102517440D01*
X129070000Y-102517440D01*
X129305317Y-102473162D01*
X129521441Y-102334090D01*
X129666431Y-102121890D01*
X129717440Y-101870000D01*
X129717440Y-101755000D01*
X133620255Y-101755000D01*
X133620260Y-101755001D01*
X133902744Y-101698810D01*
X133958935Y-101687633D01*
X134246050Y-101495790D01*
X134246051Y-101495789D01*
X135494649Y-100247190D01*
X137389870Y-100247190D01*
X137625187Y-100202912D01*
X137841311Y-100063840D01*
X137986301Y-99851640D01*
X138037310Y-99599750D01*
X138037310Y-97600770D01*
X137993032Y-97365453D01*
X137853960Y-97149329D01*
X137641760Y-97004339D01*
X137389870Y-96953330D01*
X136775000Y-96953330D01*
X136775000Y-87915750D01*
X139875000Y-87915750D01*
X139875000Y-88606310D01*
X139971673Y-88839699D01*
X140150302Y-89018327D01*
X140383691Y-89115000D01*
X141224250Y-89115000D01*
X141383000Y-88956250D01*
X141383000Y-87757000D01*
X141637000Y-87757000D01*
X141637000Y-88956250D01*
X141795750Y-89115000D01*
X142636309Y-89115000D01*
X142869698Y-89018327D01*
X143048327Y-88839699D01*
X143145000Y-88606310D01*
X143145000Y-87915750D01*
X142986250Y-87757000D01*
X141637000Y-87757000D01*
X141383000Y-87757000D01*
X140033750Y-87757000D01*
X139875000Y-87915750D01*
X136775000Y-87915750D01*
X136775000Y-85375750D01*
X139875000Y-85375750D01*
X139875000Y-86066310D01*
X139971673Y-86299699D01*
X140031974Y-86360000D01*
X139971673Y-86420301D01*
X139875000Y-86653690D01*
X139875000Y-87344250D01*
X140033750Y-87503000D01*
X141383000Y-87503000D01*
X141383000Y-85217000D01*
X141637000Y-85217000D01*
X141637000Y-87503000D01*
X142986250Y-87503000D01*
X143145000Y-87344250D01*
X143145000Y-86653690D01*
X143048327Y-86420301D01*
X142988026Y-86360000D01*
X143048327Y-86299699D01*
X143145000Y-86066310D01*
X143145000Y-85375750D01*
X142986250Y-85217000D01*
X141637000Y-85217000D01*
X141383000Y-85217000D01*
X140033750Y-85217000D01*
X139875000Y-85375750D01*
X136775000Y-85375750D01*
X136775000Y-84113690D01*
X139875000Y-84113690D01*
X139875000Y-84804250D01*
X140033750Y-84963000D01*
X141383000Y-84963000D01*
X141383000Y-83763750D01*
X141637000Y-83763750D01*
X141637000Y-84963000D01*
X142986250Y-84963000D01*
X143145000Y-84804250D01*
X143145000Y-84113690D01*
X143048327Y-83880301D01*
X142869698Y-83701673D01*
X142636309Y-83605000D01*
X141795750Y-83605000D01*
X141637000Y-83763750D01*
X141383000Y-83763750D01*
X141224250Y-83605000D01*
X140383691Y-83605000D01*
X140150302Y-83701673D01*
X139971673Y-83880301D01*
X139875000Y-84113690D01*
X136775000Y-84113690D01*
X136775000Y-77755750D01*
X139875000Y-77755750D01*
X139875000Y-78396310D01*
X139971673Y-78629699D01*
X140150302Y-78808327D01*
X140383691Y-78905000D01*
X141224250Y-78905000D01*
X141383000Y-78746250D01*
X141383000Y-77597000D01*
X141637000Y-77597000D01*
X141637000Y-78746250D01*
X141795750Y-78905000D01*
X142636309Y-78905000D01*
X142869698Y-78808327D01*
X143048327Y-78629699D01*
X143145000Y-78396310D01*
X143145000Y-77755750D01*
X142986250Y-77597000D01*
X141637000Y-77597000D01*
X141383000Y-77597000D01*
X140033750Y-77597000D01*
X139875000Y-77755750D01*
X136775000Y-77755750D01*
X136775000Y-76543690D01*
X139875000Y-76543690D01*
X139875000Y-77184250D01*
X140033750Y-77343000D01*
X141383000Y-77343000D01*
X141383000Y-76193750D01*
X141637000Y-76193750D01*
X141637000Y-77343000D01*
X142986250Y-77343000D01*
X143145000Y-77184250D01*
X143145000Y-76543690D01*
X143048327Y-76310301D01*
X142869698Y-76131673D01*
X142636309Y-76035000D01*
X141795750Y-76035000D01*
X141637000Y-76193750D01*
X141383000Y-76193750D01*
X141224250Y-76035000D01*
X140383691Y-76035000D01*
X140150302Y-76131673D01*
X139971673Y-76310301D01*
X139875000Y-76543690D01*
X136775000Y-76543690D01*
X136775000Y-66229802D01*
X138269941Y-64734861D01*
X138674579Y-64735214D01*
X139128657Y-64547592D01*
X139476371Y-64200485D01*
X139664785Y-63746734D01*
X139665214Y-63255421D01*
X139477592Y-62801343D01*
X139130485Y-62453629D01*
X138676734Y-62265215D01*
X138185421Y-62264786D01*
X137731343Y-62452408D01*
X137459039Y-62724237D01*
X135854861Y-61120059D01*
X135855214Y-60715421D01*
X135667592Y-60261343D01*
X135320485Y-59913629D01*
X134866734Y-59725215D01*
X134375421Y-59724786D01*
X133921343Y-59912408D01*
X133573629Y-60259515D01*
X133385215Y-60713266D01*
X133384786Y-61204579D01*
X133572408Y-61658657D01*
X133919515Y-62006371D01*
X134373266Y-62194785D01*
X134780338Y-62195140D01*
X136622599Y-64037401D01*
X136739612Y-64115586D01*
X135653069Y-65202129D01*
X135551325Y-65222367D01*
X135264210Y-65414210D01*
X135072367Y-65701325D01*
X135005000Y-66040000D01*
X135005000Y-96953330D01*
X134390130Y-96953330D01*
X134154813Y-96997608D01*
X133938689Y-97136680D01*
X133793699Y-97348880D01*
X133742690Y-97600770D01*
X133742690Y-99495990D01*
X133253680Y-99985000D01*
X129717440Y-99985000D01*
X129717440Y-99870000D01*
X129673162Y-99634683D01*
X129534090Y-99418559D01*
X129321890Y-99273569D01*
X129070000Y-99222560D01*
X128615000Y-99222560D01*
X128615000Y-96747440D01*
X128730000Y-96747440D01*
X128965317Y-96703162D01*
X129181441Y-96564090D01*
X129326431Y-96351890D01*
X129377440Y-96100000D01*
X129377440Y-94400000D01*
X129333162Y-94164683D01*
X129212985Y-93977923D01*
X129326431Y-93811890D01*
X129377440Y-93560000D01*
X129377440Y-91860000D01*
X129333162Y-91624683D01*
X129212985Y-91437923D01*
X129326431Y-91271890D01*
X129377440Y-91020000D01*
X129377440Y-89320000D01*
X129333162Y-89084683D01*
X129212985Y-88897923D01*
X129326431Y-88731890D01*
X129370352Y-88515000D01*
X129539995Y-88515000D01*
X129540000Y-88515001D01*
X129822484Y-88458810D01*
X129878675Y-88447633D01*
X130165790Y-88255790D01*
X130165791Y-88255789D01*
X131435787Y-86985792D01*
X131435790Y-86985790D01*
X131627633Y-86698675D01*
X131636581Y-86653690D01*
X131695001Y-86360000D01*
X131695000Y-86359995D01*
X131695000Y-77697440D01*
X132540000Y-77697440D01*
X132775317Y-77653162D01*
X132991441Y-77514090D01*
X133136431Y-77301890D01*
X133187440Y-77050000D01*
X133187440Y-75350000D01*
X133143162Y-75114683D01*
X133022985Y-74927923D01*
X133136431Y-74761890D01*
X133187440Y-74510000D01*
X133187440Y-72810000D01*
X133143162Y-72574683D01*
X133004090Y-72358559D01*
X132791890Y-72213569D01*
X132540000Y-72162560D01*
X130540000Y-72162560D01*
X130304683Y-72206838D01*
X130088559Y-72345910D01*
X129943569Y-72558110D01*
X129892560Y-72810000D01*
X129892560Y-74510000D01*
X129936838Y-74745317D01*
X130057015Y-74932077D01*
X129943569Y-75098110D01*
X129892560Y-75350000D01*
X129892560Y-77050000D01*
X129925000Y-77222404D01*
X129925000Y-85993421D01*
X129339588Y-86578833D01*
X129333162Y-86544683D01*
X129194090Y-86328559D01*
X128981890Y-86183569D01*
X128730000Y-86132560D01*
X126730000Y-86132560D01*
X126494683Y-86176838D01*
X126278559Y-86315910D01*
X126133569Y-86528110D01*
X126082560Y-86780000D01*
X126082560Y-88480000D01*
X126126838Y-88715317D01*
X126247015Y-88902077D01*
X126133569Y-89068110D01*
X126082560Y-89320000D01*
X126082560Y-91020000D01*
X126126838Y-91255317D01*
X126247015Y-91442077D01*
X126133569Y-91608110D01*
X126082560Y-91860000D01*
X126082560Y-93560000D01*
X126126838Y-93795317D01*
X126247015Y-93982077D01*
X126133569Y-94148110D01*
X126082560Y-94400000D01*
X126082560Y-96100000D01*
X126126838Y-96335317D01*
X126265910Y-96551441D01*
X126478110Y-96696431D01*
X126730000Y-96747440D01*
X126845000Y-96747440D01*
X126845000Y-99759188D01*
X126822560Y-99870000D01*
X126822560Y-99985000D01*
X126460005Y-99985000D01*
X126460000Y-99984999D01*
X126127237Y-100051191D01*
X126121325Y-100052367D01*
X125834210Y-100244210D01*
X125834208Y-100244213D01*
X124093420Y-101985000D01*
X122011126Y-101985000D01*
X121894415Y-101810330D01*
X121579634Y-101600000D01*
X121894415Y-101389670D01*
X122219271Y-100903489D01*
X122333345Y-100330000D01*
X122219271Y-99756511D01*
X121894415Y-99270330D01*
X121579634Y-99060000D01*
X121894415Y-98849670D01*
X122219271Y-98363489D01*
X122333345Y-97790000D01*
X122219271Y-97216511D01*
X121894415Y-96730330D01*
X121579634Y-96520000D01*
X121894415Y-96309670D01*
X122011126Y-96135000D01*
X122089146Y-96135000D01*
X122126838Y-96335317D01*
X122265910Y-96551441D01*
X122478110Y-96696431D01*
X122730000Y-96747440D01*
X124730000Y-96747440D01*
X124965317Y-96703162D01*
X125181441Y-96564090D01*
X125326431Y-96351890D01*
X125377440Y-96100000D01*
X125377440Y-94400000D01*
X125333162Y-94164683D01*
X125212985Y-93977923D01*
X125326431Y-93811890D01*
X125377440Y-93560000D01*
X125377440Y-91860000D01*
X125333162Y-91624683D01*
X125212985Y-91437923D01*
X125326431Y-91271890D01*
X125377440Y-91020000D01*
X125377440Y-89320000D01*
X125333162Y-89084683D01*
X125212985Y-88897923D01*
X125326431Y-88731890D01*
X125377440Y-88480000D01*
X125377440Y-86780000D01*
X125333162Y-86544683D01*
X125194090Y-86328559D01*
X124981890Y-86183569D01*
X124730000Y-86132560D01*
X122730000Y-86132560D01*
X122494683Y-86176838D01*
X122278559Y-86315910D01*
X122133569Y-86528110D01*
X122089648Y-86745000D01*
X122011126Y-86745000D01*
X121894415Y-86570330D01*
X121579634Y-86360000D01*
X121894415Y-86149670D01*
X122219271Y-85663489D01*
X122333345Y-85090000D01*
X122219271Y-84516511D01*
X121894415Y-84030330D01*
X121579634Y-83820000D01*
X121894415Y-83609670D01*
X122219271Y-83123489D01*
X122333345Y-82550000D01*
X122219271Y-81976511D01*
X121894415Y-81490330D01*
X121579634Y-81280000D01*
X121894415Y-81069670D01*
X122011126Y-80895000D01*
X126999995Y-80895000D01*
X127000000Y-80895001D01*
X127282484Y-80838810D01*
X127338675Y-80827633D01*
X127625790Y-80635790D01*
X127625791Y-80635789D01*
X128165787Y-80095792D01*
X128165790Y-80095790D01*
X128357633Y-79808675D01*
X128425000Y-79470000D01*
X128425000Y-77697440D01*
X128540000Y-77697440D01*
X128775317Y-77653162D01*
X128991441Y-77514090D01*
X129136431Y-77301890D01*
X129187440Y-77050000D01*
X129187440Y-75350000D01*
X129143162Y-75114683D01*
X129022985Y-74927923D01*
X129136431Y-74761890D01*
X129187440Y-74510000D01*
X129187440Y-72810000D01*
X129143162Y-72574683D01*
X129004090Y-72358559D01*
X128791890Y-72213569D01*
X128540000Y-72162560D01*
X126540000Y-72162560D01*
X126304683Y-72206838D01*
X126088559Y-72345910D01*
X125943569Y-72558110D01*
X125899648Y-72775000D01*
X125730005Y-72775000D01*
X125730000Y-72774999D01*
X125391325Y-72842367D01*
X125104210Y-73034210D01*
X125104208Y-73034213D01*
X123834210Y-74304210D01*
X123642367Y-74591325D01*
X123642367Y-74591326D01*
X123574999Y-74930000D01*
X123575000Y-74930005D01*
X123575000Y-75833421D01*
X122823420Y-76585000D01*
X122011126Y-76585000D01*
X121894415Y-76410330D01*
X121579634Y-76200000D01*
X121894415Y-75989670D01*
X122025093Y-75794096D01*
X122202484Y-75758810D01*
X122258675Y-75747633D01*
X122545790Y-75555790D01*
X125085787Y-73015792D01*
X125085790Y-73015790D01*
X125277633Y-72728675D01*
X125345000Y-72390000D01*
X125345000Y-70216580D01*
X126096579Y-69465000D01*
X129539995Y-69465000D01*
X129540000Y-69465001D01*
X129822484Y-69408810D01*
X129878675Y-69397633D01*
X130165790Y-69205790D01*
X131435787Y-67935792D01*
X131435790Y-67935790D01*
X131627633Y-67648675D01*
X131627633Y-67648674D01*
X131695001Y-67310000D01*
X131695000Y-67309995D01*
X131695000Y-67140854D01*
X131895317Y-67103162D01*
X132111441Y-66964090D01*
X132256431Y-66751890D01*
X132307440Y-66500000D01*
X132307440Y-64500000D01*
X132263162Y-64264683D01*
X132124090Y-64048559D01*
X131911890Y-63903569D01*
X131660000Y-63852560D01*
X129960000Y-63852560D01*
X129724683Y-63896838D01*
X129508559Y-64035910D01*
X129363569Y-64248110D01*
X129312560Y-64500000D01*
X129312560Y-66500000D01*
X129356838Y-66735317D01*
X129495910Y-66951441D01*
X129708110Y-67096431D01*
X129761232Y-67107189D01*
X129173420Y-67695000D01*
X125730005Y-67695000D01*
X125730000Y-67694999D01*
X125391325Y-67762367D01*
X125104210Y-67954210D01*
X125104208Y-67954213D01*
X124075000Y-68983420D01*
X124075000Y-67676580D01*
X124826579Y-66925000D01*
X125668896Y-66925000D01*
X125685910Y-66951441D01*
X125898110Y-67096431D01*
X126150000Y-67147440D01*
X127850000Y-67147440D01*
X128085317Y-67103162D01*
X128301441Y-66964090D01*
X128446431Y-66751890D01*
X128497440Y-66500000D01*
X128497440Y-64500000D01*
X128453162Y-64264683D01*
X128314090Y-64048559D01*
X128101890Y-63903569D01*
X127850000Y-63852560D01*
X126150000Y-63852560D01*
X125914683Y-63896838D01*
X125698559Y-64035910D01*
X125553569Y-64248110D01*
X125502560Y-64500000D01*
X125502560Y-65155000D01*
X124460005Y-65155000D01*
X124460000Y-65154999D01*
X124121325Y-65222367D01*
X123834210Y-65414210D01*
X123834208Y-65414213D01*
X122564210Y-66684210D01*
X122372367Y-66971325D01*
X122372367Y-66971326D01*
X122319172Y-67238748D01*
X122219271Y-66736511D01*
X121894415Y-66250330D01*
X121579634Y-66040000D01*
X121894415Y-65829670D01*
X122219271Y-65343489D01*
X122333345Y-64770000D01*
X122219271Y-64196511D01*
X121894415Y-63710330D01*
X121579634Y-63500000D01*
X121894415Y-63289670D01*
X122219271Y-62803489D01*
X122333345Y-62230000D01*
X122219271Y-61656511D01*
X121894415Y-61170330D01*
X121579634Y-60960000D01*
X121894415Y-60749670D01*
X122219271Y-60263489D01*
X122333345Y-59690000D01*
X122219271Y-59116511D01*
X121894415Y-58630330D01*
X121880087Y-58620757D01*
X121901317Y-58616762D01*
X122117441Y-58477690D01*
X122262431Y-58265490D01*
X122313440Y-58013600D01*
X122313440Y-56286400D01*
X122269162Y-56051083D01*
X122130090Y-55834959D01*
X121917890Y-55689969D01*
X121666000Y-55638960D01*
X119634000Y-55638960D01*
X119398683Y-55683238D01*
X119182559Y-55822310D01*
X119037569Y-56034510D01*
X118990894Y-56265000D01*
X118347013Y-56265000D01*
X118306762Y-56051083D01*
X118167690Y-55834959D01*
X117955490Y-55689969D01*
X117703600Y-55638960D01*
X115976400Y-55638960D01*
X115741083Y-55683238D01*
X115524959Y-55822310D01*
X115379969Y-56034510D01*
X115360961Y-56128375D01*
X115074947Y-55867312D01*
X114659026Y-55695042D01*
X114427000Y-55816183D01*
X114427000Y-57023000D01*
X114447000Y-57023000D01*
X114447000Y-57277000D01*
X114427000Y-57277000D01*
X114427000Y-57297000D01*
X114173000Y-57297000D01*
X114173000Y-57277000D01*
X112965531Y-57277000D01*
X112845032Y-57509027D01*
X113093179Y-58038490D01*
X113511161Y-58420008D01*
X113240330Y-58600971D01*
X112915474Y-59087152D01*
X112801400Y-59660641D01*
X112801400Y-59719359D01*
X112915474Y-60292848D01*
X113240330Y-60779029D01*
X113511172Y-60960000D01*
X113240330Y-61140971D01*
X113104002Y-61345000D01*
X109220005Y-61345000D01*
X109220000Y-61344999D01*
X108881325Y-61412367D01*
X108594210Y-61604210D01*
X108594208Y-61604213D01*
X107324210Y-62874210D01*
X107132367Y-63161325D01*
X107132367Y-63161326D01*
X107064999Y-63500000D01*
X107065000Y-63500005D01*
X107065000Y-76378554D01*
X106914683Y-76406838D01*
X106698559Y-76545910D01*
X106553569Y-76758110D01*
X106502560Y-77010000D01*
X104850000Y-77010000D01*
X104850000Y-56790973D01*
X112845032Y-56790973D01*
X112965531Y-57023000D01*
X114173000Y-57023000D01*
X114173000Y-55816183D01*
X113940974Y-55695042D01*
X113525053Y-55867312D01*
X113093179Y-56261510D01*
X112845032Y-56790973D01*
X104850000Y-56790973D01*
X104850000Y-48702619D01*
X108254613Y-48702619D01*
X108594155Y-49524372D01*
X109222321Y-50153636D01*
X110043481Y-50494611D01*
X110932619Y-50495387D01*
X111754372Y-50155845D01*
X112383636Y-49527679D01*
X112724611Y-48706519D01*
X112725387Y-47817381D01*
X112385845Y-46995628D01*
X111757679Y-46366364D01*
X110936519Y-46025389D01*
X110047381Y-46024613D01*
X109225628Y-46364155D01*
X108596364Y-46992321D01*
X108255389Y-47813481D01*
X108254613Y-48702619D01*
X104850000Y-48702619D01*
X104850000Y-42620000D01*
X118688421Y-42620000D01*
X117484210Y-43824210D01*
G36*
X113240330Y-63319029D02*
X113511172Y-63500000D01*
X113240330Y-63680971D01*
X112915474Y-64167152D01*
X112801400Y-64740641D01*
X112801400Y-64799359D01*
X112915474Y-65372848D01*
X113240330Y-65859029D01*
X113511161Y-66039992D01*
X113093179Y-66421510D01*
X112845032Y-66950973D01*
X112965531Y-67183000D01*
X114173000Y-67183000D01*
X114173000Y-67163000D01*
X114427000Y-67163000D01*
X114427000Y-67183000D01*
X114447000Y-67183000D01*
X114447000Y-67437000D01*
X114427000Y-67437000D01*
X114427000Y-68643817D01*
X114659026Y-68764958D01*
X115074947Y-68592688D01*
X115506821Y-68198490D01*
X115564336Y-68075772D01*
X115780330Y-68399029D01*
X116266511Y-68723885D01*
X116840000Y-68837959D01*
X117413489Y-68723885D01*
X117899670Y-68399029D01*
X118035998Y-68195000D01*
X119288874Y-68195000D01*
X119405585Y-68369670D01*
X119720366Y-68580000D01*
X119405585Y-68790330D01*
X119080729Y-69276511D01*
X118966655Y-69850000D01*
X119080729Y-70423489D01*
X119405585Y-70909670D01*
X119720366Y-71120000D01*
X119405585Y-71330330D01*
X119080729Y-71816511D01*
X118966655Y-72390000D01*
X119080729Y-72963489D01*
X119405585Y-73449670D01*
X119720366Y-73660000D01*
X119405585Y-73870330D01*
X119288874Y-74045000D01*
X115570005Y-74045000D01*
X115570000Y-74044999D01*
X115231325Y-74112367D01*
X114944210Y-74304210D01*
X114944208Y-74304213D01*
X113915000Y-75333420D01*
X113915000Y-73660005D01*
X113915001Y-73660000D01*
X113847633Y-73321325D01*
X113808988Y-73263488D01*
X113655790Y-73034210D01*
X113655787Y-73034208D01*
X112385790Y-71764210D01*
X112338311Y-71732486D01*
X112136930Y-71597928D01*
X112136930Y-71390510D01*
X112092652Y-71155193D01*
X111953580Y-70939069D01*
X111741380Y-70794079D01*
X111489490Y-70743070D01*
X109490510Y-70743070D01*
X109255193Y-70787348D01*
X109039069Y-70926420D01*
X108894079Y-71138620D01*
X108843070Y-71390510D01*
X108843070Y-73389490D01*
X108887348Y-73624807D01*
X109026420Y-73840931D01*
X109192473Y-73954390D01*
X108979928Y-74272486D01*
X108855510Y-74897978D01*
X108855510Y-74962022D01*
X108979928Y-75587514D01*
X109334241Y-76117781D01*
X109864508Y-76472094D01*
X110490000Y-76596512D01*
X110836091Y-76527670D01*
X110875000Y-76566579D01*
X110875000Y-77157560D01*
X109555000Y-77157560D01*
X109397440Y-77187207D01*
X109397440Y-77010000D01*
X109353162Y-76774683D01*
X109214090Y-76558559D01*
X109001890Y-76413569D01*
X108835000Y-76379773D01*
X108835000Y-67669027D01*
X112845032Y-67669027D01*
X113093179Y-68198490D01*
X113525053Y-68592688D01*
X113940974Y-68764958D01*
X114173000Y-68643817D01*
X114173000Y-67437000D01*
X112965531Y-67437000D01*
X112845032Y-67669027D01*
X108835000Y-67669027D01*
X108835000Y-63866580D01*
X109586579Y-63115000D01*
X113104002Y-63115000D01*
X113240330Y-63319029D01*
X113240330Y-63319029D01*
G37*
X113240330Y-63319029D02*
X113511172Y-63500000D01*
X113240330Y-63680971D01*
X112915474Y-64167152D01*
X112801400Y-64740641D01*
X112801400Y-64799359D01*
X112915474Y-65372848D01*
X113240330Y-65859029D01*
X113511161Y-66039992D01*
X113093179Y-66421510D01*
X112845032Y-66950973D01*
X112965531Y-67183000D01*
X114173000Y-67183000D01*
X114173000Y-67163000D01*
X114427000Y-67163000D01*
X114427000Y-67183000D01*
X114447000Y-67183000D01*
X114447000Y-67437000D01*
X114427000Y-67437000D01*
X114427000Y-68643817D01*
X114659026Y-68764958D01*
X115074947Y-68592688D01*
X115506821Y-68198490D01*
X115564336Y-68075772D01*
X115780330Y-68399029D01*
X116266511Y-68723885D01*
X116840000Y-68837959D01*
X117413489Y-68723885D01*
X117899670Y-68399029D01*
X118035998Y-68195000D01*
X119288874Y-68195000D01*
X119405585Y-68369670D01*
X119720366Y-68580000D01*
X119405585Y-68790330D01*
X119080729Y-69276511D01*
X118966655Y-69850000D01*
X119080729Y-70423489D01*
X119405585Y-70909670D01*
X119720366Y-71120000D01*
X119405585Y-71330330D01*
X119080729Y-71816511D01*
X118966655Y-72390000D01*
X119080729Y-72963489D01*
X119405585Y-73449670D01*
X119720366Y-73660000D01*
X119405585Y-73870330D01*
X119288874Y-74045000D01*
X115570005Y-74045000D01*
X115570000Y-74044999D01*
X115231325Y-74112367D01*
X114944210Y-74304210D01*
X114944208Y-74304213D01*
X113915000Y-75333420D01*
X113915000Y-73660005D01*
X113915001Y-73660000D01*
X113847633Y-73321325D01*
X113808988Y-73263488D01*
X113655790Y-73034210D01*
X113655787Y-73034208D01*
X112385790Y-71764210D01*
X112338311Y-71732486D01*
X112136930Y-71597928D01*
X112136930Y-71390510D01*
X112092652Y-71155193D01*
X111953580Y-70939069D01*
X111741380Y-70794079D01*
X111489490Y-70743070D01*
X109490510Y-70743070D01*
X109255193Y-70787348D01*
X109039069Y-70926420D01*
X108894079Y-71138620D01*
X108843070Y-71390510D01*
X108843070Y-73389490D01*
X108887348Y-73624807D01*
X109026420Y-73840931D01*
X109192473Y-73954390D01*
X108979928Y-74272486D01*
X108855510Y-74897978D01*
X108855510Y-74962022D01*
X108979928Y-75587514D01*
X109334241Y-76117781D01*
X109864508Y-76472094D01*
X110490000Y-76596512D01*
X110836091Y-76527670D01*
X110875000Y-76566579D01*
X110875000Y-77157560D01*
X109555000Y-77157560D01*
X109397440Y-77187207D01*
X109397440Y-77010000D01*
X109353162Y-76774683D01*
X109214090Y-76558559D01*
X109001890Y-76413569D01*
X108835000Y-76379773D01*
X108835000Y-67669027D01*
X112845032Y-67669027D01*
X113093179Y-68198490D01*
X113525053Y-68592688D01*
X113940974Y-68764958D01*
X114173000Y-68643817D01*
X114173000Y-67437000D01*
X112965531Y-67437000D01*
X112845032Y-67669027D01*
X108835000Y-67669027D01*
X108835000Y-63866580D01*
X109586579Y-63115000D01*
X113104002Y-63115000D01*
X113240330Y-63319029D01*
G36*
X115780330Y-65859029D02*
X116051172Y-66040000D01*
X115780330Y-66220971D01*
X115564336Y-66544228D01*
X115506821Y-66421510D01*
X115088839Y-66039992D01*
X115359670Y-65859029D01*
X115570000Y-65544248D01*
X115780330Y-65859029D01*
X115780330Y-65859029D01*
G37*
X115780330Y-65859029D02*
X116051172Y-66040000D01*
X115780330Y-66220971D01*
X115564336Y-66544228D01*
X115506821Y-66421510D01*
X115088839Y-66039992D01*
X115359670Y-65859029D01*
X115570000Y-65544248D01*
X115780330Y-65859029D01*
G36*
X156595000Y-95616579D02*
X156595000Y-98693421D01*
X155843420Y-99445000D01*
X153670000Y-99445000D01*
X153331325Y-99512367D01*
X153044210Y-99704210D01*
X152852367Y-99991325D01*
X152785000Y-100330000D01*
X152785000Y-101395848D01*
X152670000Y-101372560D01*
X150670000Y-101372560D01*
X150434683Y-101416838D01*
X150218559Y-101555910D01*
X150073569Y-101768110D01*
X150022560Y-102020000D01*
X150022560Y-102091909D01*
X149834415Y-101810330D01*
X149519634Y-101600000D01*
X149834415Y-101389670D01*
X150159271Y-100903489D01*
X150273345Y-100330000D01*
X150159271Y-99756511D01*
X149834415Y-99270330D01*
X149519634Y-99060000D01*
X149834415Y-98849670D01*
X150159271Y-98363489D01*
X150273345Y-97790000D01*
X150159271Y-97216511D01*
X149834415Y-96730330D01*
X149519634Y-96520000D01*
X149834415Y-96309670D01*
X149951126Y-96135000D01*
X151204002Y-96135000D01*
X151326574Y-96318442D01*
X151301083Y-96323238D01*
X151084959Y-96462310D01*
X150939969Y-96674510D01*
X150888960Y-96926400D01*
X150888960Y-98653600D01*
X150933238Y-98888917D01*
X151072310Y-99105041D01*
X151284510Y-99250031D01*
X151536400Y-99301040D01*
X153263600Y-99301040D01*
X153498917Y-99256762D01*
X153715041Y-99117690D01*
X153860031Y-98905490D01*
X153879039Y-98811625D01*
X154165053Y-99072688D01*
X154580974Y-99244958D01*
X154813000Y-99123817D01*
X154813000Y-97917000D01*
X155067000Y-97917000D01*
X155067000Y-99123817D01*
X155299026Y-99244958D01*
X155714947Y-99072688D01*
X156146821Y-98678490D01*
X156394968Y-98149027D01*
X156274469Y-97917000D01*
X155067000Y-97917000D01*
X154813000Y-97917000D01*
X154793000Y-97917000D01*
X154793000Y-97663000D01*
X154813000Y-97663000D01*
X154813000Y-97643000D01*
X155067000Y-97643000D01*
X155067000Y-97663000D01*
X156274469Y-97663000D01*
X156394968Y-97430973D01*
X156146821Y-96901510D01*
X155728839Y-96519992D01*
X155999670Y-96339029D01*
X156324526Y-95852848D01*
X156408600Y-95430179D01*
X156595000Y-95616579D01*
X156595000Y-95616579D01*
G37*
X156595000Y-95616579D02*
X156595000Y-98693421D01*
X155843420Y-99445000D01*
X153670000Y-99445000D01*
X153331325Y-99512367D01*
X153044210Y-99704210D01*
X152852367Y-99991325D01*
X152785000Y-100330000D01*
X152785000Y-101395848D01*
X152670000Y-101372560D01*
X150670000Y-101372560D01*
X150434683Y-101416838D01*
X150218559Y-101555910D01*
X150073569Y-101768110D01*
X150022560Y-102020000D01*
X150022560Y-102091909D01*
X149834415Y-101810330D01*
X149519634Y-101600000D01*
X149834415Y-101389670D01*
X150159271Y-100903489D01*
X150273345Y-100330000D01*
X150159271Y-99756511D01*
X149834415Y-99270330D01*
X149519634Y-99060000D01*
X149834415Y-98849670D01*
X150159271Y-98363489D01*
X150273345Y-97790000D01*
X150159271Y-97216511D01*
X149834415Y-96730330D01*
X149519634Y-96520000D01*
X149834415Y-96309670D01*
X149951126Y-96135000D01*
X151204002Y-96135000D01*
X151326574Y-96318442D01*
X151301083Y-96323238D01*
X151084959Y-96462310D01*
X150939969Y-96674510D01*
X150888960Y-96926400D01*
X150888960Y-98653600D01*
X150933238Y-98888917D01*
X151072310Y-99105041D01*
X151284510Y-99250031D01*
X151536400Y-99301040D01*
X153263600Y-99301040D01*
X153498917Y-99256762D01*
X153715041Y-99117690D01*
X153860031Y-98905490D01*
X153879039Y-98811625D01*
X154165053Y-99072688D01*
X154580974Y-99244958D01*
X154813000Y-99123817D01*
X154813000Y-97917000D01*
X155067000Y-97917000D01*
X155067000Y-99123817D01*
X155299026Y-99244958D01*
X155714947Y-99072688D01*
X156146821Y-98678490D01*
X156394968Y-98149027D01*
X156274469Y-97917000D01*
X155067000Y-97917000D01*
X154813000Y-97917000D01*
X154793000Y-97917000D01*
X154793000Y-97663000D01*
X154813000Y-97663000D01*
X154813000Y-97643000D01*
X155067000Y-97643000D01*
X155067000Y-97663000D01*
X156274469Y-97663000D01*
X156394968Y-97430973D01*
X156146821Y-96901510D01*
X155728839Y-96519992D01*
X155999670Y-96339029D01*
X156324526Y-95852848D01*
X156408600Y-95430179D01*
X156595000Y-95616579D01*
G36*
X168150000Y-57464802D02*
X168150000Y-94935198D01*
X167325198Y-95760000D01*
X160020000Y-95760000D01*
X159729160Y-95817852D01*
X159482599Y-95982599D01*
X158365000Y-97100198D01*
X158365000Y-95250000D01*
X158297633Y-94911325D01*
X158105790Y-94624210D01*
X158105787Y-94624208D01*
X157689019Y-94207440D01*
X159020000Y-94207440D01*
X159255317Y-94163162D01*
X159471441Y-94024090D01*
X159616431Y-93811890D01*
X159667440Y-93560000D01*
X159667440Y-91860000D01*
X160372560Y-91860000D01*
X160372560Y-93560000D01*
X160416838Y-93795317D01*
X160555910Y-94011441D01*
X160768110Y-94156431D01*
X161020000Y-94207440D01*
X163020000Y-94207440D01*
X163255317Y-94163162D01*
X163471441Y-94024090D01*
X163511057Y-93966111D01*
X163636420Y-94160931D01*
X163848620Y-94305921D01*
X164100510Y-94356930D01*
X166099490Y-94356930D01*
X166334807Y-94312652D01*
X166550931Y-94173580D01*
X166695921Y-93961380D01*
X166746930Y-93709490D01*
X166746930Y-91710510D01*
X166702652Y-91475193D01*
X166563580Y-91259069D01*
X166402351Y-91148906D01*
X166423068Y-91129726D01*
X166689627Y-90550355D01*
X166570807Y-90297000D01*
X165227000Y-90297000D01*
X165227000Y-90317000D01*
X164973000Y-90317000D01*
X164973000Y-90297000D01*
X163629193Y-90297000D01*
X163510373Y-90550355D01*
X163776932Y-91129726D01*
X163798863Y-91150030D01*
X163649069Y-91246420D01*
X163510374Y-91449406D01*
X163484090Y-91408559D01*
X163271890Y-91263569D01*
X163020000Y-91212560D01*
X161020000Y-91212560D01*
X160784683Y-91256838D01*
X160568559Y-91395910D01*
X160423569Y-91608110D01*
X160372560Y-91860000D01*
X159667440Y-91860000D01*
X159623162Y-91624683D01*
X159484090Y-91408559D01*
X159271890Y-91263569D01*
X159020000Y-91212560D01*
X158504139Y-91212560D01*
X158365000Y-91073420D01*
X158365000Y-86360005D01*
X158365001Y-86360000D01*
X158297633Y-86021325D01*
X158254272Y-85956431D01*
X158105790Y-85734210D01*
X158105787Y-85734208D01*
X157076580Y-84705000D01*
X158522560Y-84705000D01*
X158522560Y-85360000D01*
X158566838Y-85595317D01*
X158705910Y-85811441D01*
X158918110Y-85956431D01*
X159170000Y-86007440D01*
X160870000Y-86007440D01*
X161105317Y-85963162D01*
X161321441Y-85824090D01*
X161466431Y-85611890D01*
X161517440Y-85360000D01*
X161517440Y-83360000D01*
X161473162Y-83124683D01*
X161334090Y-82908559D01*
X161121890Y-82763569D01*
X160870000Y-82712560D01*
X159170000Y-82712560D01*
X158934683Y-82756838D01*
X158718559Y-82895910D01*
X158691850Y-82935000D01*
X158346580Y-82935000D01*
X159116579Y-82165000D01*
X160923420Y-82165000D01*
X161675000Y-82916579D01*
X161675000Y-83819995D01*
X161674999Y-83820000D01*
X161728808Y-84090510D01*
X161742367Y-84158675D01*
X161876887Y-84360000D01*
X161934210Y-84445790D01*
X163204208Y-85715787D01*
X163204210Y-85715790D01*
X163453070Y-85882072D01*
X163453070Y-86089490D01*
X163497348Y-86324807D01*
X163636420Y-86540931D01*
X163802473Y-86654390D01*
X163741929Y-86745000D01*
X161030194Y-86745000D01*
X160870000Y-86712560D01*
X159170000Y-86712560D01*
X158934683Y-86756838D01*
X158718559Y-86895910D01*
X158573569Y-87108110D01*
X158522560Y-87360000D01*
X158522560Y-89360000D01*
X158566838Y-89595317D01*
X158705910Y-89811441D01*
X158918110Y-89956431D01*
X159170000Y-90007440D01*
X160870000Y-90007440D01*
X161105317Y-89963162D01*
X161321441Y-89824090D01*
X161466431Y-89611890D01*
X161517440Y-89360000D01*
X161517440Y-88515000D01*
X163741929Y-88515000D01*
X163944241Y-88817781D01*
X164093300Y-88917379D01*
X163776932Y-89210274D01*
X163510373Y-89789645D01*
X163629193Y-90043000D01*
X164973000Y-90043000D01*
X164973000Y-90023000D01*
X165227000Y-90023000D01*
X165227000Y-90043000D01*
X166570807Y-90043000D01*
X166689627Y-89789645D01*
X166423068Y-89210274D01*
X166106700Y-88917379D01*
X166255759Y-88817781D01*
X166610072Y-88287514D01*
X166734490Y-87662022D01*
X166734490Y-87597978D01*
X166610072Y-86972486D01*
X166396547Y-86652923D01*
X166550931Y-86553580D01*
X166695921Y-86341380D01*
X166746930Y-86089490D01*
X166746930Y-84090510D01*
X166702652Y-83855193D01*
X166563580Y-83639069D01*
X166402351Y-83528906D01*
X166423068Y-83509726D01*
X166689627Y-82930355D01*
X166570807Y-82677000D01*
X165227000Y-82677000D01*
X165227000Y-82697000D01*
X164973000Y-82697000D01*
X164973000Y-82677000D01*
X163629193Y-82677000D01*
X163510373Y-82930355D01*
X163776932Y-83509726D01*
X163798863Y-83530030D01*
X163649069Y-83626420D01*
X163636457Y-83644878D01*
X163445000Y-83453420D01*
X163445000Y-82550005D01*
X163445001Y-82550000D01*
X163377633Y-82211325D01*
X163327971Y-82137000D01*
X163185790Y-81924210D01*
X163185787Y-81924208D01*
X162156580Y-80895000D01*
X163741929Y-80895000D01*
X163944241Y-81197781D01*
X164093300Y-81297379D01*
X163776932Y-81590274D01*
X163510373Y-82169645D01*
X163629193Y-82423000D01*
X164973000Y-82423000D01*
X164973000Y-82403000D01*
X165227000Y-82403000D01*
X165227000Y-82423000D01*
X166570807Y-82423000D01*
X166689627Y-82169645D01*
X166423068Y-81590274D01*
X166106700Y-81297379D01*
X166255759Y-81197781D01*
X166610072Y-80667514D01*
X166734490Y-80042022D01*
X166734490Y-79977978D01*
X166610072Y-79352486D01*
X166396987Y-79033582D01*
X166459189Y-79007817D01*
X166637817Y-78829188D01*
X166734490Y-78595799D01*
X166734490Y-77755750D01*
X166575740Y-77597000D01*
X165227000Y-77597000D01*
X165227000Y-77617000D01*
X164973000Y-77617000D01*
X164973000Y-77597000D01*
X163624260Y-77597000D01*
X163465510Y-77755750D01*
X163465510Y-78595799D01*
X163562183Y-78829188D01*
X163740811Y-79007817D01*
X163803013Y-79033582D01*
X163741929Y-79125000D01*
X149951126Y-79125000D01*
X149834415Y-78950330D01*
X149519634Y-78740000D01*
X149834415Y-78529670D01*
X150159271Y-78043489D01*
X150273345Y-77470000D01*
X150159271Y-76896511D01*
X149834415Y-76410330D01*
X149519634Y-76200000D01*
X149834415Y-75989670D01*
X149951126Y-75815000D01*
X151204002Y-75815000D01*
X151340330Y-76019029D01*
X151826511Y-76343885D01*
X152400000Y-76457959D01*
X152973489Y-76343885D01*
X153459670Y-76019029D01*
X153670000Y-75704248D01*
X153880330Y-76019029D01*
X154366511Y-76343885D01*
X154940000Y-76457959D01*
X155513489Y-76343885D01*
X155999670Y-76019029D01*
X156135998Y-75815000D01*
X163741929Y-75815000D01*
X163803013Y-75906418D01*
X163740811Y-75932183D01*
X163562183Y-76110812D01*
X163465510Y-76344201D01*
X163465510Y-77184250D01*
X163624260Y-77343000D01*
X164973000Y-77343000D01*
X164973000Y-77323000D01*
X165227000Y-77323000D01*
X165227000Y-77343000D01*
X166575740Y-77343000D01*
X166734490Y-77184250D01*
X166734490Y-76344201D01*
X166637817Y-76110812D01*
X166459189Y-75932183D01*
X166396987Y-75906418D01*
X166610072Y-75587514D01*
X166734490Y-74962022D01*
X166734490Y-74897978D01*
X166610072Y-74272486D01*
X166255759Y-73742219D01*
X166132710Y-73660000D01*
X166255759Y-73577781D01*
X166610072Y-73047514D01*
X166734490Y-72422022D01*
X166734490Y-72357978D01*
X166610072Y-71732486D01*
X166255759Y-71202219D01*
X166132710Y-71120000D01*
X166255759Y-71037781D01*
X166610072Y-70507514D01*
X166734490Y-69882022D01*
X166734490Y-69817978D01*
X166610072Y-69192486D01*
X166255759Y-68662219D01*
X166132710Y-68580000D01*
X166255759Y-68497781D01*
X166610072Y-67967514D01*
X166734490Y-67342022D01*
X166734490Y-67277978D01*
X166610072Y-66652486D01*
X166396547Y-66332923D01*
X166550931Y-66233580D01*
X166695921Y-66021380D01*
X166746930Y-65769490D01*
X166746930Y-63770510D01*
X166702652Y-63535193D01*
X166563580Y-63319069D01*
X166402351Y-63208906D01*
X166423068Y-63189726D01*
X166689627Y-62610355D01*
X166570807Y-62357000D01*
X165227000Y-62357000D01*
X165227000Y-62377000D01*
X164973000Y-62377000D01*
X164973000Y-62357000D01*
X163629193Y-62357000D01*
X163510373Y-62610355D01*
X163776932Y-63189726D01*
X163798863Y-63210030D01*
X163649069Y-63306420D01*
X163636457Y-63324878D01*
X163445000Y-63133420D01*
X163445000Y-60960005D01*
X163445001Y-60960000D01*
X163377633Y-60621325D01*
X163346680Y-60575000D01*
X163185790Y-60334210D01*
X163185787Y-60334208D01*
X161915790Y-59064210D01*
X161786931Y-58978110D01*
X161628675Y-58872367D01*
X161572484Y-58861190D01*
X161290000Y-58804999D01*
X161289995Y-58805000D01*
X156135998Y-58805000D01*
X156013426Y-58621558D01*
X156038917Y-58616762D01*
X156255041Y-58477690D01*
X156400031Y-58265490D01*
X156446706Y-58035000D01*
X163463420Y-58035000D01*
X163938793Y-58510372D01*
X163589928Y-59032486D01*
X163465510Y-59657978D01*
X163465510Y-59722022D01*
X163589928Y-60347514D01*
X163944241Y-60877781D01*
X164093300Y-60977379D01*
X163776932Y-61270274D01*
X163510373Y-61849645D01*
X163629193Y-62103000D01*
X164973000Y-62103000D01*
X164973000Y-62083000D01*
X165227000Y-62083000D01*
X165227000Y-62103000D01*
X166570807Y-62103000D01*
X166689627Y-61849645D01*
X166423068Y-61270274D01*
X166106700Y-60977379D01*
X166255759Y-60877781D01*
X166610072Y-60347514D01*
X166734490Y-59722022D01*
X166734490Y-59657978D01*
X166610072Y-59032486D01*
X166255759Y-58502219D01*
X165962359Y-58306176D01*
X165917633Y-58081325D01*
X165872381Y-58013600D01*
X165725790Y-57794210D01*
X165725787Y-57794208D01*
X164571580Y-56640000D01*
X167325198Y-56640000D01*
X168150000Y-57464802D01*
X168150000Y-57464802D01*
G37*
X168150000Y-57464802D02*
X168150000Y-94935198D01*
X167325198Y-95760000D01*
X160020000Y-95760000D01*
X159729160Y-95817852D01*
X159482599Y-95982599D01*
X158365000Y-97100198D01*
X158365000Y-95250000D01*
X158297633Y-94911325D01*
X158105790Y-94624210D01*
X158105787Y-94624208D01*
X157689019Y-94207440D01*
X159020000Y-94207440D01*
X159255317Y-94163162D01*
X159471441Y-94024090D01*
X159616431Y-93811890D01*
X159667440Y-93560000D01*
X159667440Y-91860000D01*
X160372560Y-91860000D01*
X160372560Y-93560000D01*
X160416838Y-93795317D01*
X160555910Y-94011441D01*
X160768110Y-94156431D01*
X161020000Y-94207440D01*
X163020000Y-94207440D01*
X163255317Y-94163162D01*
X163471441Y-94024090D01*
X163511057Y-93966111D01*
X163636420Y-94160931D01*
X163848620Y-94305921D01*
X164100510Y-94356930D01*
X166099490Y-94356930D01*
X166334807Y-94312652D01*
X166550931Y-94173580D01*
X166695921Y-93961380D01*
X166746930Y-93709490D01*
X166746930Y-91710510D01*
X166702652Y-91475193D01*
X166563580Y-91259069D01*
X166402351Y-91148906D01*
X166423068Y-91129726D01*
X166689627Y-90550355D01*
X166570807Y-90297000D01*
X165227000Y-90297000D01*
X165227000Y-90317000D01*
X164973000Y-90317000D01*
X164973000Y-90297000D01*
X163629193Y-90297000D01*
X163510373Y-90550355D01*
X163776932Y-91129726D01*
X163798863Y-91150030D01*
X163649069Y-91246420D01*
X163510374Y-91449406D01*
X163484090Y-91408559D01*
X163271890Y-91263569D01*
X163020000Y-91212560D01*
X161020000Y-91212560D01*
X160784683Y-91256838D01*
X160568559Y-91395910D01*
X160423569Y-91608110D01*
X160372560Y-91860000D01*
X159667440Y-91860000D01*
X159623162Y-91624683D01*
X159484090Y-91408559D01*
X159271890Y-91263569D01*
X159020000Y-91212560D01*
X158504139Y-91212560D01*
X158365000Y-91073420D01*
X158365000Y-86360005D01*
X158365001Y-86360000D01*
X158297633Y-86021325D01*
X158254272Y-85956431D01*
X158105790Y-85734210D01*
X158105787Y-85734208D01*
X157076580Y-84705000D01*
X158522560Y-84705000D01*
X158522560Y-85360000D01*
X158566838Y-85595317D01*
X158705910Y-85811441D01*
X158918110Y-85956431D01*
X159170000Y-86007440D01*
X160870000Y-86007440D01*
X161105317Y-85963162D01*
X161321441Y-85824090D01*
X161466431Y-85611890D01*
X161517440Y-85360000D01*
X161517440Y-83360000D01*
X161473162Y-83124683D01*
X161334090Y-82908559D01*
X161121890Y-82763569D01*
X160870000Y-82712560D01*
X159170000Y-82712560D01*
X158934683Y-82756838D01*
X158718559Y-82895910D01*
X158691850Y-82935000D01*
X158346580Y-82935000D01*
X159116579Y-82165000D01*
X160923420Y-82165000D01*
X161675000Y-82916579D01*
X161675000Y-83819995D01*
X161674999Y-83820000D01*
X161728808Y-84090510D01*
X161742367Y-84158675D01*
X161876887Y-84360000D01*
X161934210Y-84445790D01*
X163204208Y-85715787D01*
X163204210Y-85715790D01*
X163453070Y-85882072D01*
X163453070Y-86089490D01*
X163497348Y-86324807D01*
X163636420Y-86540931D01*
X163802473Y-86654390D01*
X163741929Y-86745000D01*
X161030194Y-86745000D01*
X160870000Y-86712560D01*
X159170000Y-86712560D01*
X158934683Y-86756838D01*
X158718559Y-86895910D01*
X158573569Y-87108110D01*
X158522560Y-87360000D01*
X158522560Y-89360000D01*
X158566838Y-89595317D01*
X158705910Y-89811441D01*
X158918110Y-89956431D01*
X159170000Y-90007440D01*
X160870000Y-90007440D01*
X161105317Y-89963162D01*
X161321441Y-89824090D01*
X161466431Y-89611890D01*
X161517440Y-89360000D01*
X161517440Y-88515000D01*
X163741929Y-88515000D01*
X163944241Y-88817781D01*
X164093300Y-88917379D01*
X163776932Y-89210274D01*
X163510373Y-89789645D01*
X163629193Y-90043000D01*
X164973000Y-90043000D01*
X164973000Y-90023000D01*
X165227000Y-90023000D01*
X165227000Y-90043000D01*
X166570807Y-90043000D01*
X166689627Y-89789645D01*
X166423068Y-89210274D01*
X166106700Y-88917379D01*
X166255759Y-88817781D01*
X166610072Y-88287514D01*
X166734490Y-87662022D01*
X166734490Y-87597978D01*
X166610072Y-86972486D01*
X166396547Y-86652923D01*
X166550931Y-86553580D01*
X166695921Y-86341380D01*
X166746930Y-86089490D01*
X166746930Y-84090510D01*
X166702652Y-83855193D01*
X166563580Y-83639069D01*
X166402351Y-83528906D01*
X166423068Y-83509726D01*
X166689627Y-82930355D01*
X166570807Y-82677000D01*
X165227000Y-82677000D01*
X165227000Y-82697000D01*
X164973000Y-82697000D01*
X164973000Y-82677000D01*
X163629193Y-82677000D01*
X163510373Y-82930355D01*
X163776932Y-83509726D01*
X163798863Y-83530030D01*
X163649069Y-83626420D01*
X163636457Y-83644878D01*
X163445000Y-83453420D01*
X163445000Y-82550005D01*
X163445001Y-82550000D01*
X163377633Y-82211325D01*
X163327971Y-82137000D01*
X163185790Y-81924210D01*
X163185787Y-81924208D01*
X162156580Y-80895000D01*
X163741929Y-80895000D01*
X163944241Y-81197781D01*
X164093300Y-81297379D01*
X163776932Y-81590274D01*
X163510373Y-82169645D01*
X163629193Y-82423000D01*
X164973000Y-82423000D01*
X164973000Y-82403000D01*
X165227000Y-82403000D01*
X165227000Y-82423000D01*
X166570807Y-82423000D01*
X166689627Y-82169645D01*
X166423068Y-81590274D01*
X166106700Y-81297379D01*
X166255759Y-81197781D01*
X166610072Y-80667514D01*
X166734490Y-80042022D01*
X166734490Y-79977978D01*
X166610072Y-79352486D01*
X166396987Y-79033582D01*
X166459189Y-79007817D01*
X166637817Y-78829188D01*
X166734490Y-78595799D01*
X166734490Y-77755750D01*
X166575740Y-77597000D01*
X165227000Y-77597000D01*
X165227000Y-77617000D01*
X164973000Y-77617000D01*
X164973000Y-77597000D01*
X163624260Y-77597000D01*
X163465510Y-77755750D01*
X163465510Y-78595799D01*
X163562183Y-78829188D01*
X163740811Y-79007817D01*
X163803013Y-79033582D01*
X163741929Y-79125000D01*
X149951126Y-79125000D01*
X149834415Y-78950330D01*
X149519634Y-78740000D01*
X149834415Y-78529670D01*
X150159271Y-78043489D01*
X150273345Y-77470000D01*
X150159271Y-76896511D01*
X149834415Y-76410330D01*
X149519634Y-76200000D01*
X149834415Y-75989670D01*
X149951126Y-75815000D01*
X151204002Y-75815000D01*
X151340330Y-76019029D01*
X151826511Y-76343885D01*
X152400000Y-76457959D01*
X152973489Y-76343885D01*
X153459670Y-76019029D01*
X153670000Y-75704248D01*
X153880330Y-76019029D01*
X154366511Y-76343885D01*
X154940000Y-76457959D01*
X155513489Y-76343885D01*
X155999670Y-76019029D01*
X156135998Y-75815000D01*
X163741929Y-75815000D01*
X163803013Y-75906418D01*
X163740811Y-75932183D01*
X163562183Y-76110812D01*
X163465510Y-76344201D01*
X163465510Y-77184250D01*
X163624260Y-77343000D01*
X164973000Y-77343000D01*
X164973000Y-77323000D01*
X165227000Y-77323000D01*
X165227000Y-77343000D01*
X166575740Y-77343000D01*
X166734490Y-77184250D01*
X166734490Y-76344201D01*
X166637817Y-76110812D01*
X166459189Y-75932183D01*
X166396987Y-75906418D01*
X166610072Y-75587514D01*
X166734490Y-74962022D01*
X166734490Y-74897978D01*
X166610072Y-74272486D01*
X166255759Y-73742219D01*
X166132710Y-73660000D01*
X166255759Y-73577781D01*
X166610072Y-73047514D01*
X166734490Y-72422022D01*
X166734490Y-72357978D01*
X166610072Y-71732486D01*
X166255759Y-71202219D01*
X166132710Y-71120000D01*
X166255759Y-71037781D01*
X166610072Y-70507514D01*
X166734490Y-69882022D01*
X166734490Y-69817978D01*
X166610072Y-69192486D01*
X166255759Y-68662219D01*
X166132710Y-68580000D01*
X166255759Y-68497781D01*
X166610072Y-67967514D01*
X166734490Y-67342022D01*
X166734490Y-67277978D01*
X166610072Y-66652486D01*
X166396547Y-66332923D01*
X166550931Y-66233580D01*
X166695921Y-66021380D01*
X166746930Y-65769490D01*
X166746930Y-63770510D01*
X166702652Y-63535193D01*
X166563580Y-63319069D01*
X166402351Y-63208906D01*
X166423068Y-63189726D01*
X166689627Y-62610355D01*
X166570807Y-62357000D01*
X165227000Y-62357000D01*
X165227000Y-62377000D01*
X164973000Y-62377000D01*
X164973000Y-62357000D01*
X163629193Y-62357000D01*
X163510373Y-62610355D01*
X163776932Y-63189726D01*
X163798863Y-63210030D01*
X163649069Y-63306420D01*
X163636457Y-63324878D01*
X163445000Y-63133420D01*
X163445000Y-60960005D01*
X163445001Y-60960000D01*
X163377633Y-60621325D01*
X163346680Y-60575000D01*
X163185790Y-60334210D01*
X163185787Y-60334208D01*
X161915790Y-59064210D01*
X161786931Y-58978110D01*
X161628675Y-58872367D01*
X161572484Y-58861190D01*
X161290000Y-58804999D01*
X161289995Y-58805000D01*
X156135998Y-58805000D01*
X156013426Y-58621558D01*
X156038917Y-58616762D01*
X156255041Y-58477690D01*
X156400031Y-58265490D01*
X156446706Y-58035000D01*
X163463420Y-58035000D01*
X163938793Y-58510372D01*
X163589928Y-59032486D01*
X163465510Y-59657978D01*
X163465510Y-59722022D01*
X163589928Y-60347514D01*
X163944241Y-60877781D01*
X164093300Y-60977379D01*
X163776932Y-61270274D01*
X163510373Y-61849645D01*
X163629193Y-62103000D01*
X164973000Y-62103000D01*
X164973000Y-62083000D01*
X165227000Y-62083000D01*
X165227000Y-62103000D01*
X166570807Y-62103000D01*
X166689627Y-61849645D01*
X166423068Y-61270274D01*
X166106700Y-60977379D01*
X166255759Y-60877781D01*
X166610072Y-60347514D01*
X166734490Y-59722022D01*
X166734490Y-59657978D01*
X166610072Y-59032486D01*
X166255759Y-58502219D01*
X165962359Y-58306176D01*
X165917633Y-58081325D01*
X165872381Y-58013600D01*
X165725790Y-57794210D01*
X165725787Y-57794208D01*
X164571580Y-56640000D01*
X167325198Y-56640000D01*
X168150000Y-57464802D01*
G36*
X156595000Y-86726579D02*
X156595000Y-91378896D01*
X156568559Y-91395910D01*
X156423569Y-91608110D01*
X156372560Y-91860000D01*
X156372560Y-92348635D01*
X156324526Y-92107152D01*
X155999670Y-91620971D01*
X155728828Y-91440000D01*
X155999670Y-91259029D01*
X156324526Y-90772848D01*
X156438600Y-90199359D01*
X156438600Y-90140641D01*
X156324526Y-89567152D01*
X155999670Y-89080971D01*
X155728839Y-88900008D01*
X156146821Y-88518490D01*
X156394968Y-87989027D01*
X156274469Y-87757000D01*
X155067000Y-87757000D01*
X155067000Y-87777000D01*
X154813000Y-87777000D01*
X154813000Y-87757000D01*
X154793000Y-87757000D01*
X154793000Y-87503000D01*
X154813000Y-87503000D01*
X154813000Y-86296183D01*
X155067000Y-86296183D01*
X155067000Y-87503000D01*
X156274469Y-87503000D01*
X156394968Y-87270973D01*
X156146821Y-86741510D01*
X155714947Y-86347312D01*
X155299026Y-86175042D01*
X155067000Y-86296183D01*
X154813000Y-86296183D01*
X154580974Y-86175042D01*
X154165053Y-86347312D01*
X153733179Y-86741510D01*
X153675664Y-86864228D01*
X153459670Y-86540971D01*
X152973489Y-86216115D01*
X152400000Y-86102041D01*
X151826511Y-86216115D01*
X151340330Y-86540971D01*
X151015474Y-87027152D01*
X150901400Y-87600641D01*
X150901400Y-87659359D01*
X150966842Y-87988356D01*
X150815198Y-88140000D01*
X150171900Y-88140000D01*
X150273345Y-87630000D01*
X150201711Y-87269869D01*
X151496579Y-85975000D01*
X155843420Y-85975000D01*
X156595000Y-86726579D01*
X156595000Y-86726579D01*
G37*
X156595000Y-86726579D02*
X156595000Y-91378896D01*
X156568559Y-91395910D01*
X156423569Y-91608110D01*
X156372560Y-91860000D01*
X156372560Y-92348635D01*
X156324526Y-92107152D01*
X155999670Y-91620971D01*
X155728828Y-91440000D01*
X155999670Y-91259029D01*
X156324526Y-90772848D01*
X156438600Y-90199359D01*
X156438600Y-90140641D01*
X156324526Y-89567152D01*
X155999670Y-89080971D01*
X155728839Y-88900008D01*
X156146821Y-88518490D01*
X156394968Y-87989027D01*
X156274469Y-87757000D01*
X155067000Y-87757000D01*
X155067000Y-87777000D01*
X154813000Y-87777000D01*
X154813000Y-87757000D01*
X154793000Y-87757000D01*
X154793000Y-87503000D01*
X154813000Y-87503000D01*
X154813000Y-86296183D01*
X155067000Y-86296183D01*
X155067000Y-87503000D01*
X156274469Y-87503000D01*
X156394968Y-87270973D01*
X156146821Y-86741510D01*
X155714947Y-86347312D01*
X155299026Y-86175042D01*
X155067000Y-86296183D01*
X154813000Y-86296183D01*
X154580974Y-86175042D01*
X154165053Y-86347312D01*
X153733179Y-86741510D01*
X153675664Y-86864228D01*
X153459670Y-86540971D01*
X152973489Y-86216115D01*
X152400000Y-86102041D01*
X151826511Y-86216115D01*
X151340330Y-86540971D01*
X151015474Y-87027152D01*
X150901400Y-87600641D01*
X150901400Y-87659359D01*
X150966842Y-87988356D01*
X150815198Y-88140000D01*
X150171900Y-88140000D01*
X150273345Y-87630000D01*
X150201711Y-87269869D01*
X151496579Y-85975000D01*
X155843420Y-85975000D01*
X156595000Y-86726579D01*
G36*
X151340330Y-60779029D02*
X151611161Y-60959992D01*
X151193179Y-61341510D01*
X150945032Y-61870973D01*
X151065531Y-62103000D01*
X152273000Y-62103000D01*
X152273000Y-62083000D01*
X152527000Y-62083000D01*
X152527000Y-62103000D01*
X152547000Y-62103000D01*
X152547000Y-62357000D01*
X152527000Y-62357000D01*
X152527000Y-62377000D01*
X152273000Y-62377000D01*
X152273000Y-62357000D01*
X151065531Y-62357000D01*
X150945032Y-62589027D01*
X151193179Y-63118490D01*
X151611161Y-63500008D01*
X151340330Y-63680971D01*
X151015474Y-64167152D01*
X150901400Y-64740641D01*
X150901400Y-64799359D01*
X151015474Y-65372848D01*
X151340330Y-65859029D01*
X151611172Y-66040000D01*
X151340330Y-66220971D01*
X151204002Y-66425000D01*
X149951126Y-66425000D01*
X149834415Y-66250330D01*
X149519634Y-66040000D01*
X149834415Y-65829670D01*
X150159271Y-65343489D01*
X150273345Y-64770000D01*
X150159271Y-64196511D01*
X149834415Y-63710330D01*
X149519634Y-63500000D01*
X149834415Y-63289670D01*
X150159271Y-62803489D01*
X150273345Y-62230000D01*
X150159271Y-61656511D01*
X149834415Y-61170330D01*
X149519634Y-60960000D01*
X149834415Y-60749670D01*
X149951126Y-60575000D01*
X151204002Y-60575000D01*
X151340330Y-60779029D01*
X151340330Y-60779029D01*
G37*
X151340330Y-60779029D02*
X151611161Y-60959992D01*
X151193179Y-61341510D01*
X150945032Y-61870973D01*
X151065531Y-62103000D01*
X152273000Y-62103000D01*
X152273000Y-62083000D01*
X152527000Y-62083000D01*
X152527000Y-62103000D01*
X152547000Y-62103000D01*
X152547000Y-62357000D01*
X152527000Y-62357000D01*
X152527000Y-62377000D01*
X152273000Y-62377000D01*
X152273000Y-62357000D01*
X151065531Y-62357000D01*
X150945032Y-62589027D01*
X151193179Y-63118490D01*
X151611161Y-63500008D01*
X151340330Y-63680971D01*
X151015474Y-64167152D01*
X150901400Y-64740641D01*
X150901400Y-64799359D01*
X151015474Y-65372848D01*
X151340330Y-65859029D01*
X151611172Y-66040000D01*
X151340330Y-66220971D01*
X151204002Y-66425000D01*
X149951126Y-66425000D01*
X149834415Y-66250330D01*
X149519634Y-66040000D01*
X149834415Y-65829670D01*
X150159271Y-65343489D01*
X150273345Y-64770000D01*
X150159271Y-64196511D01*
X149834415Y-63710330D01*
X149519634Y-63500000D01*
X149834415Y-63289670D01*
X150159271Y-62803489D01*
X150273345Y-62230000D01*
X150159271Y-61656511D01*
X149834415Y-61170330D01*
X149519634Y-60960000D01*
X149834415Y-60749670D01*
X149951126Y-60575000D01*
X151204002Y-60575000D01*
X151340330Y-60779029D01*
M02*
