%TF.GenerationSoftware,KiCad,Pcbnew,4.0.7*%
%TF.CreationDate,2018-04-11T17:00:31+03:00*%
%TF.ProjectId,mmnet_base_00,6D6D6E65745F626173655F30302E6B69,rev?*%
%TF.FileFunction,Soldermask,Top*%
%FSLAX46Y46*%
G04 Gerber Fmt 4.6, Leading zero omitted, Abs format (unit mm)*
G04 Created by KiCad (PCBNEW 4.0.7) date 04/11/18 17:00:31*
%MOMM*%
%LPD*%
G01*
G04 APERTURE LIST*
%ADD10C,0.100000*%
%ADD11C,0.150000*%
%ADD12O,2.398980X2.398980*%
%ADD13R,2.398980X2.398980*%
%ADD14R,2.635200X2.635200*%
%ADD15R,2.127200X2.127200*%
%ADD16O,2.127200X2.127200*%
%ADD17R,2.432000X2.127200*%
%ADD18O,2.432000X2.127200*%
%ADD19R,2.127200X2.432000*%
%ADD20O,2.127200X2.432000*%
%ADD21R,2.200000X2.200000*%
%ADD22C,2.200000*%
%ADD23C,3.600000*%
G04 APERTURE END LIST*
D10*
D11*
X170180000Y-41910000D02*
X170180000Y-132080000D01*
X104140000Y-41910000D02*
X104140000Y-132080000D01*
X170180000Y-132080000D02*
X104140000Y-132080000D01*
X104140000Y-41910000D02*
X170180000Y-41910000D01*
D12*
X110490000Y-113030000D03*
D13*
X110490000Y-110490000D03*
D12*
X110490000Y-74930000D03*
D13*
X110490000Y-72390000D03*
D12*
X165100000Y-59690000D03*
D13*
X165100000Y-64770000D03*
D12*
X165100000Y-62230000D03*
X165100000Y-69850000D03*
D13*
X165100000Y-77470000D03*
D12*
X165100000Y-74930000D03*
X165100000Y-72390000D03*
X165100000Y-67310000D03*
X165100000Y-80010000D03*
D13*
X165100000Y-85090000D03*
D12*
X165100000Y-82550000D03*
X165100000Y-87630000D03*
D13*
X165100000Y-92710000D03*
D12*
X165100000Y-90170000D03*
X110490000Y-92710000D03*
D13*
X110490000Y-85090000D03*
D12*
X110490000Y-87630000D03*
X110490000Y-90170000D03*
X110490000Y-95250000D03*
X110490000Y-97790000D03*
D14*
X125730000Y-110490000D03*
X125730000Y-123825000D03*
D15*
X116840000Y-57150000D03*
D16*
X114300000Y-57150000D03*
X116840000Y-59690000D03*
X114300000Y-59690000D03*
X116840000Y-62230000D03*
X114300000Y-62230000D03*
X116840000Y-64770000D03*
X114300000Y-64770000D03*
X116840000Y-67310000D03*
X114300000Y-67310000D03*
D14*
X148590000Y-110490000D03*
X148590000Y-123825000D03*
D17*
X120650000Y-57150000D03*
D18*
X120650000Y-59690000D03*
X120650000Y-62230000D03*
X120650000Y-64770000D03*
X120650000Y-67310000D03*
X120650000Y-69850000D03*
X120650000Y-72390000D03*
X120650000Y-74930000D03*
X120650000Y-77470000D03*
X120650000Y-80010000D03*
X120650000Y-82550000D03*
X120650000Y-85090000D03*
X120650000Y-87630000D03*
X120650000Y-90170000D03*
X120650000Y-92710000D03*
X120650000Y-95250000D03*
X120650000Y-97790000D03*
X120650000Y-100330000D03*
X120650000Y-102870000D03*
X120650000Y-105410000D03*
D17*
X148590000Y-57150000D03*
D18*
X148590000Y-59690000D03*
X148590000Y-62230000D03*
X148590000Y-64770000D03*
X148590000Y-67310000D03*
X148590000Y-69850000D03*
X148590000Y-72390000D03*
X148590000Y-74930000D03*
X148590000Y-77470000D03*
X148590000Y-80010000D03*
X148590000Y-82550000D03*
X148590000Y-85090000D03*
X148590000Y-87630000D03*
X148590000Y-90170000D03*
X148590000Y-92710000D03*
X148590000Y-95250000D03*
X148590000Y-97790000D03*
X148590000Y-100330000D03*
X148590000Y-102870000D03*
X148590000Y-105410000D03*
D19*
X160020000Y-104140000D03*
D20*
X162560000Y-104140000D03*
X165100000Y-104140000D03*
D19*
X160020000Y-107950000D03*
D20*
X162560000Y-107950000D03*
X165100000Y-107950000D03*
D15*
X154940000Y-57150000D03*
D16*
X152400000Y-57150000D03*
X154940000Y-59690000D03*
X152400000Y-59690000D03*
X154940000Y-62230000D03*
X152400000Y-62230000D03*
X154940000Y-64770000D03*
X152400000Y-64770000D03*
X154940000Y-67310000D03*
X152400000Y-67310000D03*
X154940000Y-69850000D03*
X152400000Y-69850000D03*
X154940000Y-72390000D03*
X152400000Y-72390000D03*
X154940000Y-74930000D03*
X152400000Y-74930000D03*
D15*
X152400000Y-97790000D03*
D16*
X154940000Y-97790000D03*
X152400000Y-95250000D03*
X154940000Y-95250000D03*
X152400000Y-92710000D03*
X154940000Y-92710000D03*
X152400000Y-90170000D03*
X154940000Y-90170000D03*
X152400000Y-87630000D03*
X154940000Y-87630000D03*
D21*
X109220000Y-116840000D03*
D22*
X109220000Y-119380000D03*
D21*
X123190000Y-45720000D03*
D22*
X125730000Y-45720000D03*
D21*
X120650000Y-45720000D03*
D22*
X118110000Y-45720000D03*
D21*
X142240000Y-45720000D03*
D22*
X144780000Y-45720000D03*
D21*
X149860000Y-45720000D03*
D22*
X147320000Y-45720000D03*
D23*
X163830000Y-49530000D03*
X110490000Y-48260000D03*
X110490000Y-125730000D03*
X163830000Y-125730000D03*
M02*
