<?xml version="1.0" standalone="no"?>
 <!DOCTYPE svg PUBLIC "-//W3C//DTD SVG 1.1//EN" 
 "http://www.w3.org/Graphics/SVG/1.1/DTD/svg11.dtd"> 
<svg xmlns="http://www.w3.org/2000/svg" version="1.1" 
    width="11.5214cm" height="7.62762cm" viewBox="0 0 45360 30030 ">
<title>SVG Picture created as pi_adc_rtc_etc-Dwgs.User.svg date 2018/04/11 10:04:04 </title>
  <desc>Picture generated by PCBNEW </desc>
<g style="fill:#000000; fill-opacity:1;stroke:#000000; stroke-opacity:1;
stroke-linecap:round; stroke-linejoin:round; "
 transform="translate(0 0) scale(1 1)">
</g>
<g style="fill:#000000; fill-opacity:0.0; 
stroke:#000000; stroke-width:-0.000393701; stroke-opacity:1; 
stroke-linecap:round; stroke-linejoin:round;">
</g>
<g style="fill:#000000; fill-opacity:0.0; 
stroke:#000000; stroke-width:47.2441; stroke-opacity:1; 
stroke-linecap:round; stroke-linejoin:round;">
<path d="M6972 27277
L6749 26902
" />
<path d="M6589 27277
L6589 26490
L6844 26490
L6908 26527
L6940 26565
L6972 26640
L6972 26752
L6940 26827
L6908 26865
L6844 26902
L6589 26902
" />
<path d="M7227 27052
L7545 27052
" />
<path d="M7163 27277
L7386 26490
L7609 27277
" />
<path d="M7800 27239
L7896 27277
L8055 27277
L8119 27239
L8151 27202
L8183 27127
L8183 27052
L8151 26977
L8119 26940
L8055 26902
L7928 26865
L7864 26827
L7832 26790
L7800 26715
L7800 26640
L7832 26565
L7864 26527
L7928 26490
L8087 26490
L8183 26527
" />
<path d="M8470 27277
L8470 26490
L8725 26490
L8788 26527
L8820 26565
L8852 26640
L8852 26752
L8820 26827
L8788 26865
L8725 26902
L8470 26902
" />
<path d="M9362 26865
L9458 26902
L9490 26940
L9521 27014
L9521 27127
L9490 27202
L9458 27239
L9394 27277
L9139 27277
L9139 26490
L9362 26490
L9426 26527
L9458 26565
L9490 26640
L9490 26715
L9458 26790
L9426 26827
L9362 26865
L9139 26865
" />
<path d="M9808 26865
L10031 26865
" />
<path d="M10127 27277
L9808 27277
L9808 26490
L10127 26490
" />
<path d="M10796 27277
L10573 26902
" />
<path d="M10414 27277
L10414 26490
L10669 26490
L10733 26527
L10764 26565
L10796 26640
L10796 26752
L10764 26827
L10733 26865
L10669 26902
L10414 26902
" />
<path d="M11466 27277
L11242 26902
" />
<path d="M11083 27277
L11083 26490
L11338 26490
L11402 26527
L11434 26565
L11466 26640
L11466 26752
L11434 26827
L11402 26865
L11338 26902
L11083 26902
" />
<path d="M11880 26902
L11880 27277
" />
<path d="M11657 26490
L11880 26902
L12103 26490
" />
<path d="M12326 26977
L12836 26977
" />
<path d="M13155 27277
L13155 26490
L13410 26490
L13473 26527
L13505 26565
L13537 26640
L13537 26752
L13505 26827
L13473 26865
L13410 26902
L13155 26902
" />
<path d="M13824 27277
L13824 26490
" />
<path d="M14621 27052
L14940 27052
" />
<path d="M14557 27277
L14780 26490
L15003 27277
" />
<path d="M15226 27277
L15226 26490
L15386 26490
L15481 26527
L15545 26602
L15577 26677
L15609 26827
L15609 26940
L15577 27089
L15545 27164
L15481 27239
L15386 27277
L15226 27277
" />
<path d="M15896 27277
L15896 26490
L16055 26490
L16151 26527
L16214 26602
L16246 26677
L16278 26827
L16278 26940
L16246 27089
L16214 27164
L16151 27239
L16055 27277
L15896 27277
" />
<path d="M16692 26490
L16820 26490
L16884 26527
L16947 26602
L16979 26752
L16979 27014
L16947 27164
L16884 27239
L16820 27277
L16692 27277
L16629 27239
L16565 27164
L16533 27014
L16533 26752
L16565 26602
L16629 26527
L16692 26490
" />
<path d="M17266 27277
L17266 26490
L17649 27277
L17649 26490
" />
<path d="M18700 26865
L18796 26902
L18828 26940
L18860 27014
L18860 27127
L18828 27202
L18796 27239
L18732 27277
L18477 27277
L18477 26490
L18700 26490
L18764 26527
L18796 26565
L18828 26640
L18828 26715
L18796 26790
L18764 26827
L18700 26865
L18477 26865
" />
<path d="M19274 26490
L19401 26490
L19465 26527
L19529 26602
L19561 26752
L19561 27014
L19529 27164
L19465 27239
L19401 27277
L19274 27277
L19210 27239
L19146 27164
L19115 27014
L19115 26752
L19146 26602
L19210 26527
L19274 26490
" />
<path d="M19816 27052
L20134 27052
" />
<path d="M19752 27277
L19975 26490
L20198 27277
" />
<path d="M20804 27277
L20581 26902
" />
<path d="M20421 27277
L20421 26490
L20676 26490
L20740 26527
L20772 26565
L20804 26640
L20804 26752
L20772 26827
L20740 26865
L20676 26902
L20421 26902
" />
<path d="M21091 27277
L21091 26490
L21250 26490
L21346 26527
L21409 26602
L21441 26677
L21473 26827
L21473 26940
L21441 27089
L21409 27164
L21346 27239
L21250 27277
L21091 27277
" />
<path d="M6494 27718
L6717 28505
L6940 27718
" />
<path d="M7163 28505
L7163 27718
" />
<path d="M7482 28093
L7705 28093
" />
<path d="M7800 28505
L7482 28505
L7482 27718
L7800 27718
" />
<path d="M8023 27718
L8183 28505
L8310 27943
L8438 28505
L8597 27718
" />
<path d="M9585 28093
L9362 28093
" />
<path d="M9362 28505
L9362 27718
L9681 27718
" />
<path d="M10318 28505
L10095 28130
" />
<path d="M9936 28505
L9936 27718
L10191 27718
L10254 27755
L10286 27793
L10318 27868
L10318 27980
L10286 28055
L10254 28093
L10191 28130
L9936 28130
" />
<path d="M10733 27718
L10860 27718
L10924 27755
L10988 27830
L11019 27980
L11019 28243
L10988 28393
L10924 28468
L10860 28505
L10733 28505
L10669 28468
L10605 28393
L10573 28243
L10573 27980
L10605 27830
L10669 27755
L10733 27718
" />
<path d="M11306 28505
L11306 27718
L11529 28280
L11752 27718
L11752 28505
" />
<path d="M12485 27718
L12868 27718
" />
<path d="M12677 28505
L12677 27718
" />
<path d="M13218 27718
L13346 27718
L13410 27755
L13473 27830
L13505 27980
L13505 28243
L13473 28393
L13410 28468
L13346 28505
L13218 28505
L13155 28468
L13091 28393
L13059 28243
L13059 27980
L13091 27830
L13155 27755
L13218 27718
" />
<path d="M13792 28505
L13792 27718
L14047 27718
L14111 27755
L14143 27793
L14175 27868
L14175 27980
L14143 28055
L14111 28093
L14047 28130
L13792 28130
" />
<path d="M6589 29734
L6589 28946
L6972 29734
L6972 28946
" />
<path d="M7418 28946
L7545 28946
L7609 28984
L7673 29059
L7705 29209
L7705 29471
L7673 29621
L7609 29696
L7545 29734
L7418 29734
L7354 29696
L7290 29621
L7259 29471
L7259 29209
L7290 29059
L7354 28984
L7418 28946
" />
<path d="M7896 28946
L8278 28946
" />
<path d="M8087 29734
L8087 28946
" />
<path d="M8502 29321
L8725 29321
" />
<path d="M8820 29734
L8502 29734
L8502 28946
L8820 28946
" />
<path d="M9107 29659
L9139 29696
L9107 29734
L9075 29696
L9107 29659
L9107 29734
" />
<path d="M9107 29246
L9139 29284
L9107 29321
L9075 29284
L9107 29246
L9107 29321
" />
<path d="M9936 29734
L9936 28946
L10191 28946
L10254 28984
L10286 29021
L10318 29096
L10318 29209
L10286 29284
L10254 29321
L10191 29359
L9936 29359
" />
<path d="M10956 29734
L10573 29734
" />
<path d="M10764 29734
L10764 28946
L10701 29059
L10637 29134
L10573 29171
" />
<path d="M11721 29696
L11816 29734
L11976 29734
L12039 29696
L12071 29659
L12103 29584
L12103 29509
L12071 29434
L12039 29396
L11976 29359
L11848 29321
L11784 29284
L11752 29246
L11721 29171
L11721 29096
L11752 29021
L11784 28984
L11848 28946
L12007 28946
L12103 28984
" />
<path d="M12390 29734
L12390 28946
" />
<path d="M12390 29321
L12772 29321
" />
<path d="M12772 29734
L12772 28946
" />
<path d="M13218 28946
L13346 28946
L13410 28984
L13473 29059
L13505 29209
L13505 29471
L13473 29621
L13410 29696
L13346 29734
L13218 29734
L13155 29696
L13091 29621
L13059 29471
L13059 29209
L13091 29059
L13155 28984
L13218 28946
" />
<path d="M13792 28946
L13792 29584
L13824 29659
L13856 29696
L13920 29734
L14047 29734
L14111 29696
L14143 29659
L14175 29584
L14175 28946
" />
<path d="M14812 29734
L14493 29734
L14493 28946
" />
<path d="M15035 29734
L15035 28946
L15194 28946
L15290 28984
L15354 29059
L15386 29134
L15418 29284
L15418 29396
L15386 29546
L15354 29621
L15290 29696
L15194 29734
L15035 29734
" />
<path d="M16437 29321
L16533 29359
L16565 29396
L16597 29471
L16597 29584
L16565 29659
L16533 29696
L16469 29734
L16214 29734
L16214 28946
L16437 28946
L16501 28984
L16533 29021
L16565 29096
L16565 29171
L16533 29246
L16501 29284
L16437 29321
L16214 29321
" />
<path d="M16884 29321
L17107 29321
" />
<path d="M17202 29734
L16884 29734
L16884 28946
L17202 28946
" />
<path d="M18222 29321
L17999 29321
" />
<path d="M17999 29734
L17999 28946
L18318 28946
" />
<path d="M18573 29734
L18573 28946
" />
<path d="M18796 28946
L19178 28946
" />
<path d="M18987 29734
L18987 28946
" />
<path d="M19306 28946
L19688 28946
" />
<path d="M19497 29734
L19497 28946
" />
<path d="M19911 29321
L20134 29321
" />
<path d="M20230 29734
L19911 29734
L19911 28946
L20230 28946
" />
<path d="M20517 29734
L20517 28946
L20676 28946
L20772 28984
L20836 29059
L20868 29134
L20899 29284
L20899 29396
L20868 29546
L20836 29621
L20772 29696
L20676 29734
L20517 29734
" />
<path d="M21824 28946
L21951 28946
L22015 28984
L22079 29059
L22110 29209
L22110 29471
L22079 29621
L22015 29696
L21951 29734
L21824 29734
L21760 29696
L21696 29621
L21664 29471
L21664 29209
L21696 29059
L21760 28984
L21824 28946
" />
<path d="M22397 29734
L22397 28946
L22780 29734
L22780 28946
" />
<path d="M23513 28946
L23895 28946
" />
<path d="M23704 29734
L23704 28946
" />
<path d="M24118 29734
L24118 28946
" />
<path d="M24118 29321
L24501 29321
" />
<path d="M24501 29734
L24501 28946
" />
<path d="M24820 29321
L25043 29321
" />
<path d="M25138 29734
L24820 29734
L24820 28946
L25138 28946
" />
<path d="M26317 29734
L26094 29359
" />
<path d="M25935 29734
L25935 28946
L26190 28946
L26254 28984
L26286 29021
L26317 29096
L26317 29209
L26286 29284
L26254 29321
L26190 29359
L25935 29359
" />
<path d="M26604 29321
L26827 29321
" />
<path d="M26923 29734
L26604 29734
L26604 28946
L26923 28946
" />
<path d="M27114 28946
L27337 29734
L27560 28946
" />
<path d="M27784 29321
L28007 29321
" />
<path d="M28102 29734
L27784 29734
L27784 28946
L28102 28946
" />
<path d="M28772 29734
L28548 29359
" />
<path d="M28389 29734
L28389 28946
L28644 28946
L28708 28984
L28740 29021
L28772 29096
L28772 29209
L28740 29284
L28708 29321
L28644 29359
L28389 29359
" />
<path d="M29026 29696
L29122 29734
L29281 29734
L29345 29696
L29377 29659
L29409 29584
L29409 29509
L29377 29434
L29345 29396
L29281 29359
L29154 29321
L29090 29284
L29058 29246
L29026 29171
L29026 29096
L29058 29021
L29090 28984
L29154 28946
L29313 28946
L29409 28984
" />
<path d="M29696 29321
L29919 29321
" />
<path d="M30014 29734
L29696 29734
L29696 28946
L30014 28946
" />
<path d="M30939 28946
L31066 28946
L31130 28984
L31194 29059
L31226 29209
L31226 29471
L31194 29621
L31130 29696
L31066 29734
L30939 29734
L30875 29696
L30811 29621
L30779 29471
L30779 29209
L30811 29059
L30875 28984
L30939 28946
" />
<path d="M31736 29321
L31512 29321
" />
<path d="M31512 29734
L31512 28946
L31831 28946
" />
<path d="M32500 28946
L32883 28946
" />
<path d="M32692 29734
L32692 28946
" />
<path d="M33106 29734
L33106 28946
" />
<path d="M33106 29321
L33488 29321
" />
<path d="M33488 29734
L33488 28946
" />
<path d="M33807 29321
L34030 29321
" />
<path d="M34126 29734
L33807 29734
L33807 28946
L34126 28946
" />
<path d="M35146 29321
L35241 29359
L35273 29396
L35305 29471
L35305 29584
L35273 29659
L35241 29696
L35178 29734
L34923 29734
L34923 28946
L35146 28946
L35209 28984
L35241 29021
L35273 29096
L35273 29171
L35241 29246
L35209 29284
L35146 29321
L34923 29321
" />
<path d="M35719 28946
L35847 28946
L35911 28984
L35974 29059
L36006 29209
L36006 29471
L35974 29621
L35911 29696
L35847 29734
L35719 29734
L35656 29696
L35592 29621
L35560 29471
L35560 29209
L35592 29059
L35656 28984
L35719 28946
" />
<path d="M36261 29509
L36580 29509
" />
<path d="M36197 29734
L36421 28946
L36644 29734
" />
<path d="M37249 29734
L37026 29359
" />
<path d="M36867 29734
L36867 28946
L37122 28946
L37185 28984
L37217 29021
L37249 29096
L37249 29209
L37217 29284
L37185 29321
L37122 29359
L36867 29359
" />
<path d="M37536 29734
L37536 28946
L37695 28946
L37791 28984
L37855 29059
L37887 29134
L37919 29284
L37919 29396
L37887 29546
L37855 29621
L37791 29696
L37695 29734
L37536 29734
" />
<path d="M1490 17566
L1490 17754
L1677 17772
L1659 17754
L1640 17716
L1640 17622
L1659 17585
L1677 17566
L1715 17547
L1809 17547
L1846 17566
L1865 17585
L1884 17622
L1884 17716
L1865 17754
L1846 17772
" />
<path d="M1490 17210
L1490 17285
L1509 17322
L1527 17341
L1584 17379
L1659 17397
L1809 17397
L1846 17379
L1865 17360
L1884 17322
L1884 17247
L1865 17210
L1846 17191
L1809 17172
L1715 17172
L1677 17191
L1659 17210
L1640 17247
L1640 17322
L1659 17360
L1677 17379
L1715 17397
" />
<path d="M1846 17004
L1865 16985
L1884 17004
L1865 17022
L1846 17004
L1884 17004
" />
<path d="M1490 16741
L1490 16704
L1509 16666
L1527 16647
L1565 16629
L1640 16610
L1734 16610
L1809 16629
L1846 16647
L1865 16666
L1884 16704
L1884 16741
L1865 16779
L1846 16797
L1809 16816
L1734 16835
L1640 16835
L1565 16816
L1527 16797
L1509 16779
L1490 16741
" />
<path d="M1490 16366
L1490 16329
L1509 16291
L1527 16272
L1565 16254
L1640 16235
L1734 16235
L1809 16254
L1846 16272
L1865 16291
L1884 16329
L1884 16366
L1865 16404
L1846 16422
L1809 16441
L1734 16460
L1640 16460
L1565 16441
L1527 16422
L1509 16404
L1490 16366
" />
<path d="M1490 15991
L1490 15954
L1509 15916
L1527 15898
L1565 15879
L1640 15860
L1734 15860
L1809 15879
L1846 15898
L1865 15916
L1884 15954
L1884 15991
L1865 16029
L1846 16047
L1809 16066
L1734 16085
L1640 16085
L1565 16066
L1527 16047
L1509 16029
L1490 15991
" />
<path d="M1884 15391
L1621 15391
" />
<path d="M1659 15391
L1640 15373
L1621 15335
L1621 15279
L1640 15241
L1677 15223
L1884 15223
" />
<path d="M1677 15223
L1640 15204
L1621 15166
L1621 15110
L1640 15073
L1677 15054
L1884 15054
" />
<path d="M1884 14866
L1621 14866
" />
<path d="M1659 14866
L1640 14848
L1621 14810
L1621 14754
L1640 14716
L1677 14698
L1884 14698
" />
<path d="M1677 14698
L1640 14679
L1621 14641
L1621 14585
L1640 14548
L1677 14529
L1884 14529
" />
<path d="M2099 27165
L2099 5118
" />
<path d="M6233 27165
L1312 27165
" />
<path d="M6233 5118
L1312 5118
" />
<path d="M2099 5118
L2330 5561
" />
<path d="M2099 5118
L1868 5561
" />
<path d="M2099 27165
L2330 26721
" />
<path d="M2099 27165
L1868 26721
" />
<path d="M21409 346
L21372 328
L21353 309
L21334 271
L21334 253
L21353 215
L21372 196
L21409 178
L21484 178
L21522 196
L21541 215
L21559 253
L21559 271
L21541 309
L21522 328
L21484 346
L21409 346
L21372 365
L21353 384
L21334 421
L21334 496
L21353 534
L21372 553
L21409 571
L21484 571
L21522 553
L21541 534
L21559 496
L21559 421
L21541 384
L21522 365
L21484 346
" />
<path d="M21916 178
L21728 178
L21709 365
L21728 346
L21766 328
L21859 328
L21897 346
L21916 365
L21934 403
L21934 496
L21916 534
L21897 553
L21859 571
L21766 571
L21728 553
L21709 534
" />
<path d="M22103 534
L22122 553
L22103 571
L22084 553
L22103 534
L22103 571
" />
<path d="M22365 178
L22403 178
L22440 196
L22459 215
L22478 253
L22497 328
L22497 421
L22478 496
L22459 534
L22440 553
L22403 571
L22365 571
L22328 553
L22309 534
L22290 496
L22272 421
L22272 328
L22290 253
L22309 215
L22328 196
L22365 178
" />
<path d="M22740 178
L22778 178
L22815 196
L22834 215
L22853 253
L22872 328
L22872 421
L22853 496
L22834 534
L22815 553
L22778 571
L22740 571
L22703 553
L22684 534
L22665 496
L22647 421
L22647 328
L22665 253
L22684 215
L22703 196
L22740 178
" />
<path d="M23115 178
L23153 178
L23190 196
L23209 215
L23228 253
L23247 328
L23247 421
L23228 496
L23209 534
L23190 553
L23153 571
L23115 571
L23078 553
L23059 534
L23040 496
L23022 421
L23022 328
L23040 253
L23059 215
L23078 196
L23115 178
" />
<path d="M23715 571
L23715 309
" />
<path d="M23715 346
L23734 328
L23772 309
L23828 309
L23865 328
L23884 365
L23884 571
" />
<path d="M23884 365
L23903 328
L23940 309
L23997 309
L24034 328
L24053 365
L24053 571
" />
<path d="M24240 571
L24240 309
" />
<path d="M24240 346
L24259 328
L24296 309
L24353 309
L24390 328
L24409 365
L24409 571
" />
<path d="M24409 365
L24428 328
L24465 309
L24521 309
L24559 328
L24578 365
L24578 571
" />
<path d="M6233 787
L39698 787
" />
<path d="M6233 5118
L6233 0
" />
<path d="M39698 5118
L39698 0
" />
<path d="M39698 787
L39254 1018
" />
<path d="M39698 787
L39254 556
" />
<path d="M6233 787
L6677 1018
" />
<path d="M6233 787
L6677 556
" />
<path d="M23706 1583
L23575 1396
" />
<path d="M23481 1583
L23481 1189
L23631 1189
L23668 1208
L23687 1227
L23706 1264
L23706 1321
L23687 1358
L23668 1377
L23631 1396
L23481 1396
" />
<path d="M24100 1546
L24081 1564
L24025 1583
L23987 1583
L23931 1564
L23893 1527
L23875 1489
L23856 1414
L23856 1358
L23875 1283
L23893 1246
L23931 1208
L23987 1189
L24025 1189
L24081 1208
L24100 1227
" />
<path d="M24250 1471
L24437 1471
" />
<path d="M24212 1583
L24343 1189
L24475 1583
" />
<path d="M22290 2221
L22159 2033
" />
<path d="M22065 2221
L22065 1827
L22215 1827
L22253 1846
L22272 1865
L22290 1902
L22290 1958
L22272 1996
L22253 2015
L22215 2033
L22065 2033
" />
<path d="M22459 2015
L22590 2015
" />
<path d="M22647 2221
L22459 2221
L22459 1827
L22647 1827
" />
<path d="M22815 2221
L22815 1827
L22947 2108
L23078 1827
L23078 2221
" />
<path d="M23340 1827
L23415 1827
L23453 1846
L23490 1883
L23509 1958
L23509 2090
L23490 2165
L23453 2202
L23415 2221
L23340 2221
L23303 2202
L23265 2165
L23247 2090
L23247 1958
L23265 1883
L23303 1846
L23340 1827
" />
<path d="M23622 1827
L23753 2221
L23884 1827
" />
<path d="M24015 2015
L24146 2015
" />
<path d="M24203 2221
L24015 2221
L24015 1827
L24203 1827
" />
<path d="M24634 1827
L24728 2221
L24803 1940
L24878 2221
L24971 1827
" />
<path d="M25121 2221
L25121 1827
" />
<path d="M25253 1827
L25478 1827
" />
<path d="M25365 2221
L25365 1827
" />
<path d="M25609 2221
L25609 1827
" />
<path d="M25609 2015
L25834 2015
" />
<path d="M25834 2221
L25834 1827
" />
<path d="M22028 2840
L22084 2859
L22178 2859
L22215 2840
L22234 2821
L22253 2784
L22253 2746
L22234 2709
L22215 2690
L22178 2671
L22103 2652
L22065 2634
L22047 2615
L22028 2577
L22028 2540
L22047 2502
L22065 2484
L22103 2465
L22197 2465
L22253 2484
" />
<path d="M22365 2465
L22590 2465
" />
<path d="M22478 2859
L22478 2465
" />
<path d="M22722 2859
L22722 2465
L22815 2465
L22872 2484
L22909 2521
L22928 2559
L22947 2634
L22947 2690
L22928 2765
L22909 2802
L22872 2840
L22815 2859
L22722 2859
" />
<path d="M23415 2859
L23415 2465
" />
<path d="M23415 2652
L23640 2652
" />
<path d="M23640 2859
L23640 2465
" />
<path d="M23828 2652
L23959 2652
" />
<path d="M24015 2859
L23828 2859
L23828 2465
L24015 2465
" />
<path d="M24165 2746
L24353 2746
" />
<path d="M24128 2859
L24259 2465
L24390 2859
" />
<path d="M24521 2859
L24521 2465
L24615 2465
L24671 2484
L24709 2521
L24728 2559
L24746 2634
L24746 2690
L24728 2765
L24709 2802
L24671 2840
L24615 2859
L24521 2859
" />
<path d="M24915 2652
L25046 2652
" />
<path d="M25103 2859
L24915 2859
L24915 2465
L25103 2465
" />
<path d="M25496 2859
L25365 2671
" />
<path d="M25271 2859
L25271 2465
L25421 2465
L25459 2484
L25478 2502
L25496 2540
L25496 2596
L25478 2634
L25459 2652
L25421 2671
L25271 2671
" />
<path d="M25646 2840
L25703 2859
L25796 2859
L25834 2840
L25853 2821
L25871 2784
L25871 2746
L25853 2709
L25834 2690
L25796 2671
L25721 2652
L25684 2634
L25665 2615
L25646 2577
L25646 2540
L25665 2502
L25684 2484
L25721 2465
L25815 2465
L25871 2484
" />
<path d="M21869 3459
L21887 3478
L21869 3497
L21850 3478
L21869 3459
L21869 3497
" />
<path d="M21869 3347
L21850 3122
L21869 3103
L21887 3122
L21869 3347
L21869 3103
" />
<path d="M22056 3497
L22056 3103
L22281 3497
L22281 3103
" />
<path d="M22544 3103
L22619 3103
L22656 3122
L22694 3159
L22712 3234
L22712 3365
L22694 3440
L22656 3478
L22619 3497
L22544 3497
L22506 3478
L22469 3440
L22450 3365
L22450 3234
L22469 3159
L22506 3122
L22544 3103
" />
<path d="M23125 3103
L23350 3103
" />
<path d="M23237 3497
L23237 3103
" />
<path d="M23481 3497
L23481 3103
" />
<path d="M23481 3290
L23706 3290
" />
<path d="M23706 3497
L23706 3103
" />
<path d="M24175 3384
L24362 3384
" />
<path d="M24137 3497
L24268 3103
L24400 3497
" />
<path d="M24662 3290
L24718 3309
L24737 3328
L24756 3365
L24756 3422
L24737 3459
L24718 3478
L24681 3497
L24531 3497
L24531 3103
L24662 3103
L24700 3122
L24718 3140
L24737 3178
L24737 3215
L24718 3253
L24700 3272
L24662 3290
L24531 3290
" />
<path d="M25000 3103
L25074 3103
L25112 3122
L25149 3159
L25168 3234
L25168 3365
L25149 3440
L25112 3478
L25074 3497
L25000 3497
L24962 3478
L24925 3440
L24906 3365
L24906 3234
L24925 3159
L24962 3122
L25000 3103
" />
<path d="M25281 3103
L25412 3497
L25543 3103
" />
<path d="M25674 3290
L25806 3290
" />
<path d="M25862 3497
L25674 3497
L25674 3103
L25862 3103
" />
<path d="M26031 3459
L26049 3478
L26031 3497
L26012 3478
L26031 3459
L26031 3497
" />
<path d="M26031 3347
L26012 3122
L26031 3103
L26049 3122
L26031 3347
L26031 3103
" />
<path d="M30136 1583
L29911 1583
" />
<path d="M30024 1583
L30024 1189
L29986 1246
L29949 1283
L29911 1302
" />
<path d="M30586 1171
L30249 1677
" />
<path d="M30774 1358
L30736 1339
L30718 1321
L30699 1283
L30699 1264
L30718 1227
L30736 1208
L30774 1189
L30849 1189
L30886 1208
L30905 1227
L30924 1264
L30924 1283
L30905 1321
L30886 1339
L30849 1358
L30774 1358
L30736 1377
L30718 1396
L30699 1433
L30699 1508
L30718 1546
L30736 1564
L30774 1583
L30849 1583
L30886 1564
L30905 1546
L30924 1508
L30924 1433
L30905 1396
L30886 1377
L30849 1358
" />
<path d="M31074 1189
L31074 1264
" />
<path d="M31224 1189
L31224 1264
" />
<path d="M31805 1189
L31805 1471
L31786 1527
L31749 1564
L31692 1583
L31655 1583
" />
<path d="M31974 1471
L32161 1471
" />
<path d="M31936 1583
L32067 1189
L32199 1583
" />
<path d="M32555 1546
L32536 1564
L32480 1583
L32442 1583
L32386 1564
L32349 1527
L32330 1489
L32311 1414
L32311 1358
L32330 1283
L32349 1246
L32386 1208
L32442 1189
L32480 1189
L32536 1208
L32555 1227
" />
<path d="M32724 1583
L32724 1189
" />
<path d="M32949 1583
L32780 1358
" />
<path d="M32949 1189
L32724 1414
" />
<path d="M29686 1827
L29761 1827
L29799 1846
L29836 1883
L29855 1958
L29855 2090
L29836 2165
L29799 2202
L29761 2221
L29686 2221
L29649 2202
L29611 2165
L29593 2090
L29593 1958
L29611 1883
L29649 1846
L29686 1827
" />
<path d="M30024 2221
L30024 1827
" />
<path d="M30249 2221
L30080 1996
" />
<path d="M30249 1827
L30024 2052
" />
<path d="M30680 1827
L30774 2221
L30849 1940
L30924 2221
L31017 1827
" />
<path d="M31167 2221
L31167 1827
" />
<path d="M31299 1827
L31524 1827
" />
<path d="M31411 2221
L31411 1827
" />
<path d="M31655 2221
L31655 1827
" />
<path d="M31655 2015
L31880 2015
" />
<path d="M31880 2221
L31880 1827
" />
<path d="M32349 2202
L32405 2221
L32499 2221
L32536 2202
L32555 2183
L32574 2146
L32574 2108
L32555 2071
L32536 2052
L32499 2033
L32424 2015
L32386 1996
L32367 1977
L32349 1940
L32349 1902
L32367 1865
L32386 1846
L32424 1827
L32517 1827
L32574 1846
" />
<path d="M32686 1827
L32911 1827
" />
<path d="M32799 2221
L32799 1827
" />
<path d="M33042 2221
L33042 1827
L33136 1827
L33192 1846
L33230 1883
L33248 1921
L33267 1996
L33267 2052
L33248 2127
L33230 2165
L33192 2202
L33136 2221
L33042 2221
" />
<path d="M30211 2859
L30211 2465
" />
<path d="M30211 2652
L30436 2652
" />
<path d="M30436 2859
L30436 2465
" />
<path d="M30624 2652
L30755 2652
" />
<path d="M30811 2859
L30624 2859
L30624 2465
L30811 2465
" />
<path d="M30961 2746
L31149 2746
" />
<path d="M30924 2859
L31055 2465
L31186 2859
" />
<path d="M31317 2859
L31317 2465
L31411 2465
L31467 2484
L31505 2521
L31524 2559
L31542 2634
L31542 2690
L31524 2765
L31505 2802
L31467 2840
L31411 2859
L31317 2859
" />
<path d="M31711 2652
L31842 2652
" />
<path d="M31899 2859
L31711 2859
L31711 2465
L31899 2465
" />
<path d="M32292 2859
L32161 2671
" />
<path d="M32067 2859
L32067 2465
L32217 2465
L32255 2484
L32274 2502
L32292 2540
L32292 2596
L32274 2634
L32255 2652
L32217 2671
L32067 2671
" />
<path d="M32442 2840
L32499 2859
L32592 2859
L32630 2840
L32649 2821
L32667 2784
L32667 2746
L32649 2709
L32630 2690
L32592 2671
L32517 2652
L32480 2634
L32461 2615
L32442 2577
L32442 2540
L32461 2502
L32480 2484
L32517 2465
L32611 2465
L32667 2484
" />
<path d="M29349 3459
L29368 3478
L29349 3497
L29330 3478
L29349 3459
L29349 3497
" />
<path d="M29349 3347
L29330 3122
L29349 3103
L29368 3122
L29349 3347
L29349 3103
" />
<path d="M29536 3497
L29536 3103
L29761 3497
L29761 3103
" />
<path d="M30024 3103
L30099 3103
L30136 3122
L30174 3159
L30193 3234
L30193 3365
L30174 3440
L30136 3478
L30099 3497
L30024 3497
L29986 3478
L29949 3440
L29930 3365
L29930 3234
L29949 3159
L29986 3122
L30024 3103
" />
<path d="M30605 3103
L30830 3103
" />
<path d="M30718 3497
L30718 3103
" />
<path d="M30961 3497
L30961 3103
" />
<path d="M30961 3290
L31186 3290
" />
<path d="M31186 3497
L31186 3103
" />
<path d="M31655 3384
L31842 3384
" />
<path d="M31617 3497
L31749 3103
L31880 3497
" />
<path d="M32142 3290
L32199 3309
L32217 3328
L32236 3365
L32236 3422
L32217 3459
L32199 3478
L32161 3497
L32011 3497
L32011 3103
L32142 3103
L32180 3122
L32199 3140
L32217 3178
L32217 3215
L32199 3253
L32180 3272
L32142 3290
L32011 3290
" />
<path d="M32480 3103
L32555 3103
L32592 3122
L32630 3159
L32649 3234
L32649 3365
L32630 3440
L32592 3478
L32555 3497
L32480 3497
L32442 3478
L32405 3440
L32386 3365
L32386 3234
L32405 3159
L32442 3122
L32480 3103
" />
<path d="M32761 3103
L32892 3497
L33023 3103
" />
<path d="M33155 3290
L33286 3290
" />
<path d="M33342 3497
L33155 3497
L33155 3103
L33342 3103
" />
<path d="M33511 3459
L33530 3478
L33511 3497
L33492 3478
L33511 3459
L33511 3497
" />
<path d="M33511 3347
L33492 3122
L33511 3103
L33530 3122
L33511 3347
L33511 3103
" />
</g>
<g style="fill:#000000; fill-opacity:0.0; 
stroke:#000000; stroke-width:59.0551; stroke-opacity:1; 
stroke-linecap:round; stroke-linejoin:round;">
<path d="M39698 11811
L39698 5118
" />
<path d="M35367 11811
L39698 11811
" />
<path d="M35367 17716
L35367 11811
" />
<path d="M39698 17716
L35367 17716
" />
<path d="M39698 27165
L39698 17716
" />
</g>
<g style="fill:#000000; fill-opacity:0.0; 
stroke:#000000; stroke-width:47.2441; stroke-opacity:1; 
stroke-linecap:round; stroke-linejoin:round;">
<path d="M41057 14107
L41057 13713
L41151 13713
L41207 13732
L41244 13769
L41263 13807
L41282 13882
L41282 13938
L41263 14013
L41244 14050
L41207 14088
L41151 14107
L41057 14107
" />
<path d="M41526 13713
L41601 13713
L41638 13732
L41676 13769
L41694 13844
L41694 13976
L41676 14050
L41638 14088
L41601 14107
L41526 14107
L41488 14088
L41451 14050
L41432 13976
L41432 13844
L41451 13769
L41488 13732
L41526 13713
" />
<path d="M41863 13713
L41863 14032
L41882 14069
L41901 14088
L41938 14107
L42013 14107
L42050 14088
L42069 14069
L42088 14032
L42088 13713
" />
<path d="M42407 13901
L42463 13919
L42482 13938
L42500 13976
L42500 14032
L42482 14069
L42463 14088
L42425 14107
L42275 14107
L42275 13713
L42407 13713
L42444 13732
L42463 13751
L42482 13788
L42482 13826
L42463 13863
L42444 13882
L42407 13901
L42275 13901
" />
<path d="M42857 14107
L42669 14107
L42669 13713
" />
<path d="M42988 13901
L43119 13901
" />
<path d="M43175 14107
L42988 14107
L42988 13713
L43175 13713
" />
<path d="M43644 13713
L43644 14032
L43663 14069
L43682 14088
L43719 14107
L43794 14107
L43832 14088
L43850 14069
L43869 14032
L43869 13713
" />
<path d="M44038 14088
L44094 14107
L44188 14107
L44225 14088
L44244 14069
L44263 14032
L44263 13994
L44244 13957
L44225 13938
L44188 13919
L44113 13901
L44075 13882
L44056 13863
L44038 13826
L44038 13788
L44056 13751
L44075 13732
L44113 13713
L44206 13713
L44263 13732
" />
<path d="M44563 13901
L44619 13919
L44638 13938
L44656 13976
L44656 14032
L44638 14069
L44619 14088
L44581 14107
L44431 14107
L44431 13713
L44563 13713
L44600 13732
L44619 13751
L44638 13788
L44638 13826
L44619 13863
L44600 13882
L44563 13901
L44431 13901
" />
<path d="M40691 14707
L40673 14726
L40616 14745
L40579 14745
L40523 14726
L40485 14688
L40466 14651
L40448 14576
L40448 14520
L40466 14445
L40485 14407
L40523 14370
L40579 14351
L40616 14351
L40673 14370
L40691 14388
" />
<path d="M40860 14351
L40860 14670
L40879 14707
L40898 14726
L40935 14745
L41010 14745
L41047 14726
L41066 14707
L41085 14670
L41085 14351
" />
<path d="M41216 14351
L41441 14351
" />
<path d="M41329 14745
L41329 14351
" />
<path d="M41647 14351
L41722 14351
L41760 14370
L41797 14407
L41816 14482
L41816 14613
L41797 14688
L41760 14726
L41722 14745
L41647 14745
L41610 14726
L41572 14688
L41554 14613
L41554 14482
L41572 14407
L41610 14370
L41647 14351
" />
<path d="M41985 14351
L41985 14670
L42004 14707
L42022 14726
L42060 14745
L42135 14745
L42172 14726
L42191 14707
L42210 14670
L42210 14351
" />
<path d="M42341 14351
L42566 14351
" />
<path d="M42454 14745
L42454 14351
" />
<path d="M43128 14538
L42997 14538
" />
<path d="M42997 14745
L42997 14351
L43185 14351
" />
<path d="M43410 14351
L43485 14351
L43522 14370
L43560 14407
L43578 14482
L43578 14613
L43560 14688
L43522 14726
L43485 14745
L43410 14745
L43372 14726
L43335 14688
L43316 14613
L43316 14482
L43335 14407
L43372 14370
L43410 14351
" />
<path d="M43972 14745
L43841 14557
" />
<path d="M43747 14745
L43747 14351
L43897 14351
L43935 14370
L43953 14388
L43972 14426
L43972 14482
L43953 14520
L43935 14538
L43897 14557
L43747 14557
" />
<path d="M44422 14632
L44610 14632
" />
<path d="M44385 14745
L44516 14351
L44647 14745
" />
<path d="M44966 14745
L44778 14745
L44778 14351
" />
<path d="M45284 14745
L45097 14745
L45097 14351
" />
<path d="M41919 15176
L41976 15195
L41994 15214
L42013 15251
L42013 15307
L41994 15345
L41976 15364
L41938 15382
L41788 15382
L41788 14989
L41919 14989
L41957 15007
L41976 15026
L41994 15064
L41994 15101
L41976 15139
L41957 15157
L41919 15176
L41788 15176
" />
<path d="M42257 14989
L42332 14989
L42369 15007
L42407 15045
L42425 15120
L42425 15251
L42407 15326
L42369 15364
L42332 15382
L42257 15382
L42219 15364
L42182 15326
L42163 15251
L42163 15120
L42182 15045
L42219 15007
L42257 14989
" />
<path d="M42575 15270
L42763 15270
" />
<path d="M42538 15382
L42669 14989
L42800 15382
" />
<path d="M43157 15382
L43025 15195
" />
<path d="M42932 15382
L42932 14989
L43082 14989
L43119 15007
L43138 15026
L43157 15064
L43157 15120
L43138 15157
L43119 15176
L43082 15195
L42932 15195
" />
<path d="M43325 15382
L43325 14989
L43419 14989
L43475 15007
L43513 15045
L43532 15082
L43550 15157
L43550 15214
L43532 15289
L43513 15326
L43475 15364
L43419 15382
L43325 15382
" />
<path d="M43700 15364
L43757 15382
L43850 15382
L43888 15364
L43907 15345
L43925 15307
L43925 15270
L43907 15232
L43888 15214
L43850 15195
L43775 15176
L43738 15157
L43719 15139
L43700 15101
L43700 15064
L43719 15026
L43738 15007
L43775 14989
L43869 14989
L43925 15007
" />
<path d="M42444 22056
L42313 21868
" />
<path d="M42219 22056
L42219 21662
L42369 21662
L42407 21681
L42425 21699
L42444 21737
L42444 21793
L42425 21831
L42407 21849
L42369 21868
L42219 21868
" />
<path d="M42725 21662
L42725 21943
L42707 21999
L42669 22037
L42613 22056
L42575 22056
" />
<path d="M43082 21793
L43082 22056
" />
<path d="M42988 21643
L42894 21924
L43138 21924
" />
<path d="M43475 21662
L43288 21662
L43269 21849
L43288 21831
L43325 21812
L43419 21812
L43457 21831
L43475 21849
L43494 21887
L43494 21981
L43475 22018
L43457 22037
L43419 22056
L43325 22056
L43288 22037
L43269 22018
" />
<path d="M40644 22656
L40626 22675
L40569 22693
L40532 22693
L40476 22675
L40438 22637
L40419 22600
L40401 22525
L40401 22468
L40419 22393
L40438 22356
L40476 22318
L40532 22300
L40569 22300
L40626 22318
L40644 22337
" />
<path d="M40813 22300
L40813 22618
L40832 22656
L40851 22675
L40888 22693
L40963 22693
L41001 22675
L41019 22656
L41038 22618
L41038 22300
" />
<path d="M41169 22300
L41394 22300
" />
<path d="M41282 22693
L41282 22300
" />
<path d="M41601 22300
L41676 22300
L41713 22318
L41751 22356
L41769 22431
L41769 22562
L41751 22637
L41713 22675
L41676 22693
L41601 22693
L41563 22675
L41526 22637
L41507 22562
L41507 22431
L41526 22356
L41563 22318
L41601 22300
" />
<path d="M41938 22300
L41938 22618
L41957 22656
L41976 22675
L42013 22693
L42088 22693
L42125 22675
L42144 22656
L42163 22618
L42163 22300
" />
<path d="M42294 22300
L42519 22300
" />
<path d="M42407 22693
L42407 22300
" />
<path d="M43082 22487
L42950 22487
" />
<path d="M42950 22693
L42950 22300
L43138 22300
" />
<path d="M43363 22300
L43438 22300
L43475 22318
L43513 22356
L43532 22431
L43532 22562
L43513 22637
L43475 22675
L43438 22693
L43363 22693
L43325 22675
L43288 22637
L43269 22562
L43269 22431
L43288 22356
L43325 22318
L43363 22300
" />
<path d="M43925 22693
L43794 22506
" />
<path d="M43700 22693
L43700 22300
L43850 22300
L43888 22318
L43907 22337
L43925 22375
L43925 22431
L43907 22468
L43888 22487
L43850 22506
L43700 22506
" />
<path d="M44375 22675
L44431 22693
L44525 22693
L44563 22675
L44581 22656
L44600 22618
L44600 22581
L44581 22543
L44563 22525
L44525 22506
L44450 22487
L44413 22468
L44394 22450
L44375 22412
L44375 22375
L44394 22337
L44413 22318
L44450 22300
L44544 22300
L44600 22318
" />
<path d="M44713 22300
L44938 22300
" />
<path d="M44825 22693
L44825 22300
" />
<path d="M45069 22693
L45069 22300
L45163 22300
L45219 22318
L45256 22356
L45275 22393
L45294 22468
L45294 22525
L45275 22600
L45256 22637
L45219 22675
L45163 22693
L45069 22693
" />
<path d="M41629 23331
L41629 22937
" />
<path d="M41629 23125
L41854 23125
" />
<path d="M41854 23331
L41854 22937
" />
<path d="M42041 23125
L42172 23125
" />
<path d="M42229 23331
L42041 23331
L42041 22937
L42229 22937
" />
<path d="M42379 23219
L42566 23219
" />
<path d="M42341 23331
L42472 22937
L42604 23331
" />
<path d="M42735 23331
L42735 22937
L42829 22937
L42885 22956
L42922 22994
L42941 23031
L42960 23106
L42960 23162
L42941 23237
L42922 23275
L42885 23312
L42829 23331
L42735 23331
" />
<path d="M43128 23125
L43260 23125
" />
<path d="M43316 23331
L43128 23331
L43128 22937
L43316 22937
" />
<path d="M43710 23331
L43578 23144
" />
<path d="M43485 23331
L43485 22937
L43635 22937
L43672 22956
L43691 22975
L43710 23012
L43710 23069
L43691 23106
L43672 23125
L43635 23144
L43485 23144
" />
<path d="M43860 23312
L43916 23331
L44010 23331
L44047 23312
L44066 23294
L44085 23256
L44085 23219
L44066 23181
L44047 23162
L44010 23144
L43935 23125
L43897 23106
L43878 23087
L43860 23050
L43860 23012
L43878 22975
L43897 22956
L43935 22937
L44028 22937
L44085 22956
" />
<path d="M40766 23931
L40785 23950
L40766 23969
L40748 23950
L40766 23931
L40766 23969
" />
<path d="M40766 23819
L40748 23594
L40766 23575
L40785 23594
L40766 23819
L40766 23575
" />
<path d="M40954 23969
L40954 23575
L41179 23969
L41179 23575
" />
<path d="M41441 23575
L41516 23575
L41554 23594
L41591 23631
L41610 23706
L41610 23838
L41591 23913
L41554 23950
L41516 23969
L41441 23969
L41404 23950
L41366 23913
L41347 23838
L41347 23706
L41366 23631
L41404 23594
L41441 23575
" />
<path d="M42022 23575
L42247 23575
" />
<path d="M42135 23969
L42135 23575
" />
<path d="M42379 23969
L42379 23575
" />
<path d="M42379 23763
L42604 23763
" />
<path d="M42604 23969
L42604 23575
" />
<path d="M43072 23856
L43260 23856
" />
<path d="M43035 23969
L43166 23575
L43297 23969
" />
<path d="M43560 23763
L43616 23781
L43635 23800
L43653 23838
L43653 23894
L43635 23931
L43616 23950
L43578 23969
L43428 23969
L43428 23575
L43560 23575
L43597 23594
L43616 23613
L43635 23650
L43635 23688
L43616 23725
L43597 23744
L43560 23763
L43428 23763
" />
<path d="M43897 23575
L43972 23575
L44010 23594
L44047 23631
L44066 23706
L44066 23838
L44047 23913
L44010 23950
L43972 23969
L43897 23969
L43860 23950
L43822 23913
L43803 23838
L43803 23706
L43822 23631
L43860 23594
L43897 23575
" />
<path d="M44178 23575
L44310 23969
L44441 23575
" />
<path d="M44572 23763
L44703 23763
" />
<path d="M44760 23969
L44572 23969
L44572 23575
L44760 23575
" />
<path d="M44928 23931
L44947 23950
L44928 23969
L44910 23950
L44928 23931
L44928 23969
" />
<path d="M44928 23819
L44910 23594
L44928 23575
L44947 23594
L44928 23819
L44928 23575
" />
</g>
<g style="fill:#000000; fill-opacity:0.0; 
stroke:#000000; stroke-width:78.7402; stroke-opacity:1; 
stroke-linecap:round; stroke-linejoin:round;">
<path d="M31430 27165
L39698 19685
" />
<path d="M31430 19685
L39698 27165
" />
<path d="M31430 19685
L39698 19685
" />
<path d="M31430 27165
L31430 19685
" />
<path d="M39698 27165
L31430 27165
" />
<path d="M39698 19685
L39698 27165
" />
<path d="M35367 17716
L39698 11811
" />
<path d="M35367 11811
L39698 17716
" />
<path d="M35367 11811
L39698 11811
" />
<path d="M35367 17716
L35367 11811
" />
<path d="M39698 17716
L35367 17716
" />
<path d="M39698 11811
L39698 17716
" />
<path d="M21587 5118
L26312 10629
" />
<path d="M21587 10629
L26312 5118
" />
<path d="M26312 10629
L26312 10236
" />
<path d="M21587 10629
L26312 10629
" />
<path d="M21587 10236
L21587 10629
" />
<path d="M34186 5118
L28674 10236
" />
<path d="M28674 5118
L34186 10236
" />
<path d="M28674 10236
L28674 5118
" />
<path d="M34186 10236
L28674 10236
" />
<path d="M34186 5118
L34186 10236
" />
<path d="M28674 5118
L34186 5118
" />
<path d="M26312 5118
L21587 5118
" />
<path d="M26312 10236
L26312 5118
" />
<path d="M21587 5118
L21587 10236
" />
</g>
<g style="fill:#000000; fill-opacity:0.0; 
stroke:#000000; stroke-width:59.0551; stroke-opacity:1; 
stroke-linecap:round; stroke-linejoin:round;">
<path d="M39698 5118
L6233 5118
" />
<path d="M6233 27165
L39698 27165
" />
<path d="M6233 5118
L6233 27165
" />
</g> 
</svg>
