<?xml version="1.0" standalone="no"?>
 <!DOCTYPE svg PUBLIC "-//W3C//DTD SVG 1.1//EN" 
 "http://www.w3.org/Graphics/SVG/1.1/DTD/svg11.dtd"> 
<svg xmlns="http://www.w3.org/2000/svg" version="1.1" 
    width="11.5214cm" height="7.62762cm" viewBox="0 0 45360 30030 ">
<title>SVG Picture created as pi_adc_rtc_etc-B.SilkS.svg date 2018/04/11 10:04:04 </title>
  <desc>Picture generated by PCBNEW </desc>
<g style="fill:#000000; fill-opacity:1;stroke:#000000; stroke-opacity:1;
stroke-linecap:round; stroke-linejoin:round; "
 transform="translate(0 0) scale(1 1)">
</g>
<g style="fill:#000000; fill-opacity:0.0; 
stroke:#000000; stroke-width:-0.000393701; stroke-opacity:1; 
stroke-linecap:round; stroke-linejoin:round;">
</g>
<g style="fill:#000000; fill-opacity:0.0; 
stroke:#000000; stroke-width:59.0551; stroke-opacity:1; 
stroke-linecap:round; stroke-linejoin:round;">
<path d="M39698 11811
L39698 5118
" />
<path d="M35367 11811
L39698 11811
" />
<path d="M35367 17716
L35367 11811
" />
<path d="M39698 17716
L35367 17716
" />
<path d="M39698 27165
L39698 17716
" />
<path d="M39698 5118
L6233 5118
" />
<path d="M6233 27165
L39698 27165
" />
<path d="M6233 5118
L6233 27165
" />
<path d="M20128 12089
L20146 12071
L20165 12014
L20165 11977
L20146 11921
L20109 11883
L20071 11864
L19996 11846
L19940 11846
L19865 11864
L19828 11883
L19790 11921
L19771 11977
L19771 12014
L19790 12071
L19809 12089
" />
<path d="M20165 12464
L20165 12239
" />
<path d="M20165 12352
L19771 12352
L19828 12314
L19865 12277
L19884 12239
" />
<path d="M32553 17296
L32571 17314
L32628 17333
L32665 17333
L32721 17314
L32759 17277
L32778 17239
L32796 17164
L32796 17108
L32778 17033
L32759 16996
L32721 16958
L32665 16939
L32628 16939
L32571 16958
L32553 16977
" />
<path d="M32403 16977
L32384 16958
L32346 16939
L32253 16939
L32215 16958
L32196 16977
L32178 17014
L32178 17052
L32196 17108
L32421 17333
L32178 17333
" />
<path d="M32553 16046
L32571 16064
L32628 16083
L32665 16083
L32721 16064
L32759 16027
L32778 15989
L32796 15914
L32796 15858
L32778 15783
L32759 15746
L32721 15708
L32665 15689
L32628 15689
L32571 15708
L32553 15727
" />
<path d="M32215 15821
L32215 16083
" />
<path d="M32309 15671
L32403 15952
L32159 15952
" />
<path d="M15067 19339
L15085 19321
L15104 19264
L15104 19227
L15085 19171
L15048 19133
L15010 19114
L14935 19096
L14879 19096
L14804 19114
L14767 19133
L14729 19171
L14710 19227
L14710 19264
L14729 19321
L14748 19339
" />
<path d="M14710 19677
L14710 19602
L14729 19564
L14748 19546
L14804 19508
L14879 19489
L15029 19489
L15067 19508
L15085 19527
L15104 19564
L15104 19639
L15085 19677
L15067 19696
L15029 19714
L14935 19714
L14898 19696
L14879 19677
L14860 19639
L14860 19564
L14879 19527
L14898 19508
L14935 19489
" />
<path d="M32553 12796
L32571 12814
L32628 12833
L32665 12833
L32721 12814
L32759 12777
L32778 12739
L32796 12664
L32796 12608
L32778 12533
L32759 12496
L32721 12458
L32665 12439
L32628 12439
L32571 12458
L32553 12477
" />
<path d="M32421 12439
L32159 12439
L32328 12833
" />
<path d="M32053 14046
L32071 14064
L32128 14083
L32165 14083
L32221 14064
L32259 14027
L32278 13989
L32296 13914
L32296 13858
L32278 13783
L32259 13746
L32221 13708
L32165 13689
L32128 13689
L32071 13708
L32053 13727
" />
<path d="M31828 13858
L31865 13839
L31884 13821
L31903 13783
L31903 13764
L31884 13727
L31865 13708
L31828 13689
L31753 13689
L31715 13708
L31696 13727
L31678 13764
L31678 13783
L31696 13821
L31715 13839
L31753 13858
L31828 13858
L31865 13877
L31884 13896
L31903 13933
L31903 14008
L31884 14046
L31865 14064
L31828 14083
L31753 14083
L31715 14064
L31696 14046
L31678 14008
L31678 13933
L31696 13896
L31715 13877
L31753 13858
" />
<path d="M12628 12089
L12646 12071
L12665 12014
L12665 11977
L12646 11921
L12609 11883
L12571 11864
L12496 11846
L12440 11846
L12365 11864
L12328 11883
L12290 11921
L12271 11977
L12271 12014
L12290 12071
L12309 12089
" />
<path d="M12665 12277
L12665 12352
L12646 12389
L12628 12408
L12571 12446
L12496 12464
L12346 12464
L12309 12446
L12290 12427
L12271 12389
L12271 12314
L12290 12277
L12309 12258
L12346 12239
L12440 12239
L12478 12258
L12496 12277
L12515 12314
L12515 12389
L12496 12427
L12478 12446
L12440 12464
" />
<path d="M21490 17296
L21509 17314
L21565 17333
L21603 17333
L21659 17314
L21696 17277
L21715 17239
L21734 17164
L21734 17108
L21715 17033
L21696 16996
L21659 16958
L21603 16939
L21565 16939
L21509 16958
L21490 16977
" />
<path d="M21115 17333
L21340 17333
" />
<path d="M21228 17333
L21228 16939
L21265 16996
L21303 17033
L21340 17052
" />
<path d="M20871 16939
L20834 16939
L20796 16958
L20778 16977
L20759 17014
L20740 17089
L20740 17183
L20759 17258
L20778 17296
L20796 17314
L20834 17333
L20871 17333
L20909 17314
L20928 17296
L20946 17258
L20965 17183
L20965 17089
L20946 17014
L20928 16977
L20909 16958
L20871 16939
" />
<path d="M14689 21152
L14707 21133
L14726 21077
L14726 21039
L14707 20983
L14670 20946
L14632 20927
L14557 20908
L14501 20908
L14426 20927
L14389 20946
L14351 20983
L14332 21039
L14332 21077
L14351 21133
L14370 21152
" />
<path d="M14726 21527
L14726 21302
" />
<path d="M14726 21414
L14332 21414
L14389 21377
L14426 21339
L14445 21302
" />
<path d="M14726 21902
L14726 21677
" />
<path d="M14726 21789
L14332 21789
L14389 21752
L14426 21714
L14445 21677
" />
<path d="M21740 23046
L21759 23064
L21815 23083
L21853 23083
L21909 23064
L21946 23027
L21965 22989
L21984 22914
L21984 22858
L21965 22783
L21946 22746
L21909 22708
L21853 22689
L21815 22689
L21759 22708
L21740 22727
" />
<path d="M21365 23083
L21590 23083
" />
<path d="M21478 23083
L21478 22689
L21515 22746
L21553 22783
L21590 22802
" />
<path d="M21215 22727
L21196 22708
L21159 22689
L21065 22689
L21028 22708
L21009 22727
L20990 22764
L20990 22802
L21009 22858
L21234 23083
L20990 23083
" />
<path d="M21490 24796
L21509 24814
L21565 24833
L21603 24833
L21659 24814
L21696 24777
L21715 24739
L21734 24664
L21734 24608
L21715 24533
L21696 24496
L21659 24458
L21603 24439
L21565 24439
L21509 24458
L21490 24477
" />
<path d="M21115 24833
L21340 24833
" />
<path d="M21228 24833
L21228 24439
L21265 24496
L21303 24533
L21340 24552
" />
<path d="M20984 24439
L20740 24439
L20871 24589
L20815 24589
L20778 24608
L20759 24627
L20740 24664
L20740 24758
L20759 24796
L20778 24814
L20815 24833
L20928 24833
L20965 24814
L20984 24796
" />
<path d="M33415 14364
L33021 14364
L33021 14458
L33040 14514
L33078 14552
L33115 14571
L33190 14589
L33246 14589
L33321 14571
L33359 14552
L33396 14514
L33415 14458
L33415 14364
" />
<path d="M33415 14964
L33415 14739
" />
<path d="M33415 14852
L33021 14852
L33078 14814
L33115 14777
L33134 14739
" />
<path d="M16415 17089
L16228 16958
" />
<path d="M16415 16864
L16021 16864
L16021 17014
L16040 17052
L16059 17071
L16096 17089
L16153 17089
L16190 17071
L16209 17052
L16228 17014
L16228 16864
" />
<path d="M16415 17464
L16415 17239
" />
<path d="M16415 17352
L16021 17352
L16078 17314
L16115 17277
L16134 17239
" />
<path d="M15415 17089
L15228 16958
" />
<path d="M15415 16864
L15021 16864
L15021 17014
L15040 17052
L15059 17071
L15096 17089
L15153 17089
L15190 17071
L15209 17052
L15228 17014
L15228 16864
" />
<path d="M15059 17239
L15040 17258
L15021 17296
L15021 17389
L15040 17427
L15059 17446
L15096 17464
L15134 17464
L15190 17446
L15415 17221
L15415 17464
" />
<path d="M17415 17089
L17228 16958
" />
<path d="M17415 16864
L17021 16864
L17021 17014
L17040 17052
L17059 17071
L17096 17089
L17153 17089
L17190 17071
L17209 17052
L17228 17014
L17228 16864
" />
<path d="M17021 17221
L17021 17464
L17171 17333
L17171 17389
L17190 17427
L17209 17446
L17246 17464
L17340 17464
L17378 17446
L17396 17427
L17415 17389
L17415 17277
L17396 17239
L17378 17221
" />
<path d="M9803 18583
L9934 18396
" />
<path d="M10028 18583
L10028 18189
L9878 18189
L9840 18208
L9821 18227
L9803 18264
L9803 18321
L9821 18358
L9840 18377
L9878 18396
L10028 18396
" />
<path d="M9465 18321
L9465 18583
" />
<path d="M9559 18171
L9653 18452
L9409 18452
" />
<path d="M9803 19583
L9934 19396
" />
<path d="M10028 19583
L10028 19189
L9878 19189
L9840 19208
L9821 19227
L9803 19264
L9803 19321
L9821 19358
L9840 19377
L9878 19396
L10028 19396
" />
<path d="M9446 19189
L9634 19189
L9653 19377
L9634 19358
L9596 19339
L9503 19339
L9465 19358
L9446 19377
L9428 19414
L9428 19508
L9446 19546
L9465 19564
L9503 19583
L9596 19583
L9634 19564
L9653 19546
" />
<path d="M9803 20583
L9934 20396
" />
<path d="M10028 20583
L10028 20189
L9878 20189
L9840 20208
L9821 20227
L9803 20264
L9803 20321
L9821 20358
L9840 20377
L9878 20396
L10028 20396
" />
<path d="M9465 20189
L9540 20189
L9578 20208
L9596 20227
L9634 20283
L9653 20358
L9653 20508
L9634 20546
L9615 20564
L9578 20583
L9503 20583
L9465 20564
L9446 20546
L9428 20508
L9428 20414
L9446 20377
L9465 20358
L9503 20339
L9578 20339
L9615 20358
L9634 20377
L9653 20414
" />
<path d="M9803 21583
L9934 21396
" />
<path d="M10028 21583
L10028 21189
L9878 21189
L9840 21208
L9821 21227
L9803 21264
L9803 21321
L9821 21358
L9840 21377
L9878 21396
L10028 21396
" />
<path d="M9671 21189
L9409 21189
L9578 21583
" />
<path d="M20053 19583
L20184 19396
" />
<path d="M20278 19583
L20278 19189
L20128 19189
L20090 19208
L20071 19227
L20053 19264
L20053 19321
L20071 19358
L20090 19377
L20128 19396
L20278 19396
" />
<path d="M19828 19358
L19865 19339
L19884 19321
L19903 19283
L19903 19264
L19884 19227
L19865 19208
L19828 19189
L19753 19189
L19715 19208
L19696 19227
L19678 19264
L19678 19283
L19696 19321
L19715 19339
L19753 19358
L19828 19358
L19865 19377
L19884 19396
L19903 19433
L19903 19508
L19884 19546
L19865 19564
L19828 19583
L19753 19583
L19715 19564
L19696 19546
L19678 19508
L19678 19433
L19696 19396
L19715 19377
L19753 19358
" />
<path d="M21303 16333
L21434 16146
" />
<path d="M21528 16333
L21528 15939
L21378 15939
L21340 15958
L21321 15977
L21303 16014
L21303 16071
L21321 16108
L21340 16127
L21378 16146
L21528 16146
" />
<path d="M21115 16333
L21040 16333
L21003 16314
L20984 16296
L20946 16239
L20928 16164
L20928 16014
L20946 15977
L20965 15958
L21003 15939
L21078 15939
L21115 15958
L21134 15977
L21153 16014
L21153 16108
L21134 16146
L21115 16164
L21078 16183
L21003 16183
L20965 16164
L20946 16146
L20928 16108
" />
<path d="M21490 21333
L21621 21146
" />
<path d="M21715 21333
L21715 20939
L21565 20939
L21528 20958
L21509 20977
L21490 21014
L21490 21071
L21509 21108
L21528 21127
L21565 21146
L21715 21146
" />
<path d="M21115 21333
L21340 21333
" />
<path d="M21228 21333
L21228 20939
L21265 20996
L21303 21033
L21340 21052
" />
<path d="M20871 20939
L20834 20939
L20796 20958
L20778 20977
L20759 21014
L20740 21089
L20740 21183
L20759 21258
L20778 21296
L20796 21314
L20834 21333
L20871 21333
L20909 21314
L20928 21296
L20946 21258
L20965 21183
L20965 21089
L20946 21014
L20928 20977
L20909 20958
L20871 20939
" />
<path d="M10990 26333
L11121 26146
" />
<path d="M11215 26333
L11215 25939
L11065 25939
L11028 25958
L11009 25977
L10990 26014
L10990 26071
L11009 26108
L11028 26127
L11065 26146
L11215 26146
" />
<path d="M10615 26333
L10840 26333
" />
<path d="M10728 26333
L10728 25939
L10765 25996
L10803 26033
L10840 26052
" />
<path d="M10240 26333
L10465 26333
" />
<path d="M10353 26333
L10353 25939
L10390 25996
L10428 26033
L10465 26052
" />
<path d="M11490 23583
L11621 23396
" />
<path d="M11715 23583
L11715 23189
L11565 23189
L11528 23208
L11509 23227
L11490 23264
L11490 23321
L11509 23358
L11528 23377
L11565 23396
L11715 23396
" />
<path d="M11115 23583
L11340 23583
" />
<path d="M11228 23583
L11228 23189
L11265 23246
L11303 23283
L11340 23302
" />
<path d="M10965 23227
L10946 23208
L10909 23189
L10815 23189
L10778 23208
L10759 23227
L10740 23264
L10740 23302
L10759 23358
L10984 23583
L10740 23583
" />
</g>
<g style="fill:#000000; fill-opacity:0.0; 
stroke:#000000; stroke-width:47.2441; stroke-opacity:1; 
stroke-linecap:round; stroke-linejoin:round;">
<path d="M19639 12511
L19639 13299
" />
<path d="M18835 13299
L18835 12511
" />
<path d="M31832 16255
L29548 16255
" />
<path d="M31832 17555
L29548 17555
" />
<path d="M31832 16255
L31832 17555
" />
<path d="M29843 15503
L30631 15503
" />
<path d="M30631 16307
L29843 16307
" />
<path d="M14639 19011
L14639 19799
" />
<path d="M13835 19799
L13835 19011
" />
<path d="M31832 12255
L29548 12255
" />
<path d="M31832 13555
L29548 13555
" />
<path d="M31832 12255
L31832 13555
" />
<path d="M30631 14307
L29843 14307
" />
<path d="M29843 13503
L30631 13503
" />
<path d="M13639 12511
L13639 13299
" />
<path d="M12835 13299
L12835 12511
" />
<path d="M19631 17807
L18843 17807
" />
<path d="M18843 17003
L19631 17003
" />
<path d="M14835 21799
L14835 21011
" />
<path d="M15639 21011
L15639 21799
" />
<path d="M20832 21755
L18548 21755
" />
<path d="M20832 23055
L18548 23055
" />
<path d="M20832 21755
L20832 23055
" />
<path d="M19631 24807
L18843 24807
" />
<path d="M18843 24003
L19631 24003
" />
<path d="M34828 14066
L34828 17492
" />
<path d="M34828 17492
L33646 17492
" />
<path d="M33646 17492
L33646 14066
" />
<path d="M16658 15799
L16658 15011
" />
<path d="M15816 15011
L15816 15799
" />
<path d="M15658 15799
L15658 15011
" />
<path d="M14816 15011
L14816 15799
" />
<path d="M17658 15799
L17658 15011
" />
<path d="M16816 15011
L16816 15799
" />
<path d="M11631 17984
L10843 17984
" />
<path d="M10843 18826
L11631 18826
" />
<path d="M11631 18984
L10843 18984
" />
<path d="M10843 19826
L11631 19826
" />
<path d="M11631 19984
L10843 19984
" />
<path d="M10843 20826
L11631 20826
" />
<path d="M11631 20984
L10843 20984
" />
<path d="M10843 21826
L11631 21826
" />
<path d="M17843 19826
L18631 19826
" />
<path d="M18631 18984
L17843 18984
" />
<path d="M18843 16826
L19631 16826
" />
<path d="M19631 15984
L18843 15984
" />
<path d="M19631 20484
L18843 20484
" />
<path d="M18843 21326
L19631 21326
" />
<path d="M9131 25984
L8343 25984
" />
<path d="M8343 26826
L9131 26826
" />
<path d="M8343 23826
L9131 23826
" />
<path d="M9131 22984
L8343 22984
" />
</g> 
</svg>
