<?xml version="1.0" standalone="no"?>
 <!DOCTYPE svg PUBLIC "-//W3C//DTD SVG 1.1//EN" 
 "http://www.w3.org/Graphics/SVG/1.1/DTD/svg11.dtd"> 
<svg xmlns="http://www.w3.org/2000/svg" version="1.1" 
    width="29.7002cm" height="21.0007cm" viewBox="0 0 116930 82680 ">
<title>SVG Picture created as pwm_4_20_out.sch.svg date 2017/02/17 21:57:56 </title>
  <desc>Picture generated by Eeschema-SVG </desc>
<g style="fill:#000000; fill-opacity:1;stroke:#000000; stroke-opacity:1;
stroke-linecap:round; stroke-linejoin:round; "
 transform="translate(0 0) scale(1 1)">
</g>
<g style="fill:#000000; fill-opacity:0.0; 
stroke:#000000; stroke-width:0; stroke-opacity:1; 
stroke-linecap:round; stroke-linejoin:round;">
</g>
<g style="fill:#840000; fill-opacity:0.0; 
stroke:#840000; stroke-width:0; stroke-opacity:1; 
stroke-linecap:round; stroke-linejoin:round;">
</g>
<g style="fill:#FFFFC2; fill-opacity:0.0; 
stroke:#FFFFC2; stroke-width:0; stroke-opacity:1; 
stroke-linecap:round; stroke-linejoin:round;">
</g>
<g style="fill:#FFFFC2; fill-opacity:0.6; 
stroke:#FFFFC2; stroke-width:0; stroke-opacity:1; 
stroke-linecap:round; stroke-linejoin:round;">
<rect x="29000" y="31000" width="4000" height="3000" rx="0" />
</g>
<g style="fill:#840000; fill-opacity:0.6; 
stroke:#840000; stroke-width:0; stroke-opacity:1; 
stroke-linecap:round; stroke-linejoin:round;">
</g>
<g style="fill:#840000; fill-opacity:0.0; 
stroke:#840000; stroke-width:100; stroke-opacity:1; 
stroke-linecap:round; stroke-linejoin:round;">
<rect x="29000" y="31000" width="4000" height="3000" rx="0" />
</g>
<g style="fill:#840000; fill-opacity:0.0; 
stroke:#840000; stroke-width:50; stroke-opacity:1; 
stroke-linecap:round; stroke-linejoin:round;">
<path d="M29130 31820
L29270 31820
" />
<path d="M29100 31910
L29200 31610
L29300 31910
" />
<path d="M32770 31750
L32810 31760
L32830 31780
L32840 31810
L32840 31850
L32830 31880
L32810 31890
L32790 31910
L32670 31910
L32670 31610
L32770 31610
L32800 31620
L32810 31630
L32830 31660
L32830 31690
L32810 31720
L32800 31730
L32770 31750
L32670 31750
" />
<path d="M32840 32880
L32830 32890
L32790 32910
L32760 32910
L32710 32890
L32690 32860
L32670 32830
L32660 32780
L32660 32730
L32670 32680
L32690 32650
L32710 32620
L32760 32610
L32790 32610
L32830 32620
L32840 32630
" />
<path d="M32690 33750
L32790 33750
" />
<path d="M32830 33910
L32690 33910
L32690 33610
L32830 33610
" />
<path d="M29120 33910
L29120 33610
" />
<path d="M29290 33910
L29160 33730
" />
<path d="M29290 33610
L29120 33780
" />
</g>
<g style="fill:#840000; fill-opacity:0.0; 
stroke:#840000; stroke-width:100; stroke-opacity:1; 
stroke-linecap:round; stroke-linejoin:round;">
<polyline fill="none;"
points="29750,32750
30250,32750
" /> 
</g>
<g style="fill:#840000; fill-opacity:0.0; 
stroke:#840000; stroke-width:60; stroke-opacity:1; 
stroke-linecap:round; stroke-linejoin:round;">
<polyline fill="none;"
points="32050,33050
32500,33500
" /> 
<polyline fill="none;"
points="32050,32950
32500,32500
" /> 
<polyline fill="none;"
points="32500,33500
33000,33500
" /> 
<polyline fill="none;"
points="32500,32500
33000,32500
" /> 
</g>
<g style="fill:#840000; fill-opacity:0.0; 
stroke:#840000; stroke-width:140; stroke-opacity:1; 
stroke-linecap:round; stroke-linejoin:round;">
<polyline fill="none;"
points="32050,32600
32050,33400
32050,33400
" /> 
</g>
<g style="fill:#840000; fill-opacity:0.0; 
stroke:#840000; stroke-width:60; stroke-opacity:1; 
stroke-linecap:round; stroke-linejoin:round;">
<polyline fill="none;"
points="29000,33500
30000,33500
30000,31500
29000,31500
" /> 
</g>
<g style="fill:#840000; fill-opacity:1.0; 
stroke:#840000; stroke-width:100; stroke-opacity:1; 
stroke-linecap:round; stroke-linejoin:round;">
<polyline style="fill-rule:evenodd;"
points="30000,32750
29750,32250
30250,32250
30000,32750
" /> 
</g>
<g style="fill:#840000; fill-opacity:0.0; 
stroke:#840000; stroke-width:60; stroke-opacity:1; 
stroke-linecap:round; stroke-linejoin:round;">
<polyline fill="none;"
points="30750,32400
30960,32200
30960,32400
31260,32100
" /> 
<polyline fill="none;"
points="31260,32100
31060,32200
31160,32300
31260,32100
" /> 
<polyline fill="none;"
points="32450,33450
32350,33250
32250,33350
32450,33450
" /> 
<polyline fill="none;"
points="33000,31500
31750,31500
31750,33000
32000,33000
" /> 
<polyline fill="none;"
points="30750,32800
30960,32600
30960,32800
31260,32500
31060,32600
31160,32700
31260,32500
" /> 
<path d="M29000 31500
L28000 31500
" />
<path d="M28640 31380
L28360 31380
" />
<path d="M28500 31380
L28500 30880
L28450 30950
L28400 31000
L28360 31020
" />
<path d="M29000 33500
L28000 33500
" />
<path d="M28360 32920
L28380 32900
L28430 32880
L28550 32880
L28590 32900
L28620 32920
L28640 32970
L28640 33020
L28620 33090
L28330 33380
L28640 33380
" />
<path d="M33000 33500
L34000 33500
" />
<path d="M33590 33040
L33590 33380
" />
<path d="M33470 32850
L33360 33210
L33660 33210
" />
<path d="M33000 32500
L34000 32500
" />
<path d="M33620 31880
L33380 31880
L33360 32110
L33380 32090
L33430 32070
L33550 32070
L33590 32090
L33620 32110
L33640 32160
L33640 32280
L33620 32330
L33590 32350
L33550 32380
L33430 32380
L33380 32350
L33360 32330
" />
<path d="M33000 31500
L34000 31500
" />
<path d="M33590 30880
L33500 30880
L33450 30900
L33430 30920
L33380 31000
L33360 31090
L33360 31280
L33380 31330
L33400 31350
L33450 31380
L33550 31380
L33590 31350
L33620 31330
L33640 31280
L33640 31160
L33620 31110
L33590 31090
L33550 31070
L33450 31070
L33400 31090
L33380 31110
L33360 31160
" />
</g>
<g style="fill:#008484; fill-opacity:0.0; 
stroke:#008484; stroke-width:60; stroke-opacity:1; 
stroke-linecap:round; stroke-linejoin:round;">
<path d="M29120 30260
L29120 30660
L29140 30710
L29170 30730
L29210 30760
L29310 30760
L29360 30730
L29380 30710
L29400 30660
L29400 30260
" />
<path d="M29900 30760
L29620 30760
" />
<path d="M29760 30760
L29760 30260
L29710 30330
L29660 30380
L29620 30400
" />
<path d="M29210 34260
L29310 34260
L29360 34280
L29400 34330
L29430 34420
L29430 34590
L29400 34680
L29360 34730
L29310 34760
L29210 34760
L29170 34730
L29120 34680
L29100 34590
L29100 34420
L29120 34330
L29170 34280
L29210 34260
" />
<path d="M29640 34760
L29640 34260
L29830 34260
L29880 34280
L29900 34300
L29920 34350
L29920 34420
L29900 34470
L29880 34490
L29830 34520
L29640 34520
" />
<path d="M30070 34260
L30350 34260
" />
<path d="M30210 34760
L30210 34260
" />
<path d="M30610 34260
L30710 34260
L30760 34280
L30800 34330
L30830 34420
L30830 34590
L30800 34680
L30760 34730
L30710 34760
L30610 34760
L30570 34730
L30520 34680
L30500 34590
L30500 34420
L30520 34330
L30570 34280
L30610 34260
" />
<path d="M31040 34570
L31420 34570
" />
<path d="M31590 34260
L31870 34260
" />
<path d="M31730 34760
L31730 34260
" />
<path d="M32320 34760
L32160 34520
" />
<path d="M32040 34760
L32040 34260
L32230 34260
L32280 34280
L32300 34300
L32320 34350
L32320 34420
L32300 34470
L32280 34490
L32230 34520
L32040 34520
" />
<path d="M32520 34610
L32750 34610
" />
<path d="M32470 34760
L32630 34260
L32800 34760
" />
<path d="M32970 34760
L32970 34260
L33250 34760
L33250 34260
" />
<path d="M33470 34730
L33540 34760
L33660 34760
L33700 34730
L33730 34710
L33750 34660
L33750 34610
L33730 34570
L33700 34540
L33660 34520
L33560 34490
L33510 34470
L33490 34450
L33470 34400
L33470 34350
L33490 34300
L33510 34280
L33560 34260
L33680 34260
L33750 34280
" />
<path d="M33970 34760
L33970 34260
" />
<path d="M34190 34730
L34260 34760
L34380 34760
L34420 34730
L34450 34710
L34470 34660
L34470 34610
L34450 34570
L34420 34540
L34380 34520
L34280 34490
L34230 34470
L34210 34450
L34190 34400
L34190 34350
L34210 34300
L34230 34280
L34280 34260
L34400 34260
L34470 34280
" />
<path d="M34620 34260
L34900 34260
" />
<path d="M34760 34760
L34760 34260
" />
<path d="M35160 34260
L35260 34260
L35310 34280
L35350 34330
L35380 34420
L35380 34590
L35350 34680
L35310 34730
L35260 34760
L35160 34760
L35120 34730
L35070 34680
L35050 34590
L35050 34420
L35070 34330
L35120 34280
L35160 34260
" />
<path d="M35870 34760
L35710 34520
" />
<path d="M35590 34760
L35590 34260
L35780 34260
L35830 34280
L35850 34300
L35870 34350
L35870 34420
L35850 34470
L35830 34490
L35780 34520
L35590 34520
" />
</g>
<g style="fill:#008484; fill-opacity:0.0; 
stroke:#008484; stroke-width:0; stroke-opacity:1; 
stroke-linecap:round; stroke-linejoin:round;">
</g>
<g style="fill:#840000; fill-opacity:0.0; 
stroke:#840000; stroke-width:0; stroke-opacity:1; 
stroke-linecap:round; stroke-linejoin:round;">
</g>
<g style="fill:#840000; fill-opacity:0.0; 
stroke:#840000; stroke-width:100; stroke-opacity:1; 
stroke-linecap:round; stroke-linejoin:round;">
<circle cx="41000" cy="24000" r="1110" /> 
<polyline fill="none;"
points="40600,23250
40600,24750
40600,24750
" /> 
</g>
<g style="fill:#840000; fill-opacity:0.0; 
stroke:#840000; stroke-width:60; stroke-opacity:1; 
stroke-linecap:round; stroke-linejoin:round;">
<polyline fill="none;"
points="41500,25000
41500,24500
40600,24500
" /> 
<polyline fill="none;"
points="41500,23000
41500,23450
40600,23450
" /> 
</g>
<g style="fill:#840000; fill-opacity:1.0; 
stroke:#840000; stroke-width:60; stroke-opacity:1; 
stroke-linecap:round; stroke-linejoin:round;">
<polyline style="fill-rule:evenodd;"
points="40050,24000
40450,23850
40450,24150
40050,24000
" /> 
</g>
<g style="fill:#840000; fill-opacity:0.0; 
stroke:#840000; stroke-width:60; stroke-opacity:1; 
stroke-linecap:round; stroke-linejoin:round;">
<path d="M41500 23000
L41500 22000
" />
<path d="M42080 22360
L42080 22640
" />
<path d="M42080 22500
L41580 22500
L41650 22550
L41700 22600
L41720 22640
" />
<path d="M40600 24000
L38500 24000
" />
<path d="M39410 24120
L39430 24100
L39480 24080
L39600 24080
L39640 24100
L39670 24120
L39690 24170
L39690 24220
L39670 24290
L39380 24580
L39690 24580
" />
<path d="M41500 25000
L41500 26000
" />
<path d="M41580 25670
L41580 25360
L41770 25530
L41770 25450
L41790 25410
L41810 25380
L41860 25360
L41980 25360
L42030 25380
L42050 25410
L42080 25450
L42080 25600
L42050 25640
L42030 25670
" />
</g>
<g style="fill:#008484; fill-opacity:0.0; 
stroke:#008484; stroke-width:60; stroke-opacity:1; 
stroke-linecap:round; stroke-linejoin:round;">
<path d="M42950 23800
L42900 23780
L42860 23730
L42790 23660
L42740 23640
L42690 23640
" />
<path d="M42710 23760
L42670 23730
L42620 23680
L42600 23590
L42600 23420
L42620 23330
L42670 23280
L42710 23260
L42810 23260
L42860 23280
L42900 23330
L42930 23420
L42930 23590
L42900 23680
L42860 23730
L42810 23760
L42710 23760
" />
<path d="M43400 23760
L43120 23760
" />
<path d="M43260 23760
L43260 23260
L43210 23330
L43160 23380
L43120 23400
" />
<path d="M42620 24760
L42620 24260
" />
<path d="M42900 24760
L42690 24470
" />
<path d="M42900 24260
L42620 24540
" />
<path d="M43120 24760
L43120 24260
L43400 24260
L43400 24760
" />
<path d="M43900 24760
L43620 24760
" />
<path d="M43760 24760
L43760 24260
L43710 24330
L43660 24380
L43620 24400
" />
<path d="M44210 24260
L44260 24260
L44310 24280
L44330 24300
L44360 24350
L44380 24450
L44380 24570
L44360 24660
L44330 24710
L44310 24730
L44260 24760
L44210 24760
L44170 24730
L44140 24710
L44120 24660
L44100 24570
L44100 24450
L44120 24350
L44140 24300
L44170 24280
L44210 24260
" />
<path d="M44550 24260
L44860 24260
L44690 24450
L44770 24450
L44810 24470
L44840 24490
L44860 24540
L44860 24660
L44840 24710
L44810 24730
L44770 24760
L44620 24760
L44580 24730
L44550 24710
" />
</g>
<g style="fill:#008484; fill-opacity:0.0; 
stroke:#008484; stroke-width:0; stroke-opacity:1; 
stroke-linecap:round; stroke-linejoin:round;">
</g>
<g style="fill:#840000; fill-opacity:0.0; 
stroke:#840000; stroke-width:0; stroke-opacity:1; 
stroke-linecap:round; stroke-linejoin:round;">
</g>
<g style="fill:#840000; fill-opacity:0.0; 
stroke:#840000; stroke-width:100; stroke-opacity:1; 
stroke-linecap:round; stroke-linejoin:round;">
<rect x="41100" y="26500" width="800" height="2000" rx="0" />
</g>
<g style="fill:#840000; fill-opacity:0.0; 
stroke:#840000; stroke-width:60; stroke-opacity:1; 
stroke-linecap:round; stroke-linejoin:round;">
<path d="M41500 26500
L41500 26000
" />
<path d="M41500 28500
L41500 29000
" />
</g>
<g style="fill:#008484; fill-opacity:0.0; 
stroke:#008484; stroke-width:60; stroke-opacity:1; 
stroke-linecap:round; stroke-linejoin:round;">
<path d="M42560 27590
L42320 27750
" />
<path d="M42560 27870
L42060 27870
L42060 27680
L42080 27630
L42100 27610
L42150 27590
L42220 27590
L42270 27610
L42290 27630
L42320 27680
L42320 27870
" />
<path d="M42060 27420
L42060 27110
L42250 27280
L42250 27200
L42270 27160
L42290 27130
L42340 27110
L42460 27110
L42510 27130
L42530 27160
L42560 27200
L42560 27350
L42530 27390
L42510 27420
" />
<path d="M41760 27350
L41520 27510
" />
<path d="M41760 27630
L41260 27630
L41260 27440
L41280 27390
L41300 27370
L41350 27350
L41420 27350
L41470 27370
L41490 27390
L41520 27440
L41520 27630
" />
</g>
<g style="fill:#008400; fill-opacity:0.0; 
stroke:#008400; stroke-width:60; stroke-opacity:1; 
stroke-linecap:round; stroke-linejoin:round;">
<path d="M41500 29000
L38500 29000
" />
<path d="M38500 29000
L38500 24000
" />
</g>
<g style="fill:#008400; fill-opacity:0.0; 
stroke:#008400; stroke-width:0; stroke-opacity:1; 
stroke-linecap:round; stroke-linejoin:round;">
</g>
<g style="fill:#840000; fill-opacity:0.0; 
stroke:#840000; stroke-width:0; stroke-opacity:1; 
stroke-linecap:round; stroke-linejoin:round;">
</g>
<g style="fill:#840000; fill-opacity:0.0; 
stroke:#840000; stroke-width:100; stroke-opacity:1; 
stroke-linecap:round; stroke-linejoin:round;">
<rect x="34500" y="31100" width="2000" height="800" rx="0" />
</g>
<g style="fill:#840000; fill-opacity:0.0; 
stroke:#840000; stroke-width:60; stroke-opacity:1; 
stroke-linecap:round; stroke-linejoin:round;">
<path d="M34500 31500
L34000 31500
" />
<path d="M36500 31500
L37000 31500
" />
</g>
<g style="fill:#008484; fill-opacity:0.0; 
stroke:#008484; stroke-width:60; stroke-opacity:1; 
stroke-linecap:round; stroke-linejoin:round;">
<path d="M35410 30890
L35250 30650
" />
<path d="M35130 30890
L35130 30390
L35320 30390
L35370 30410
L35390 30430
L35410 30480
L35410 30550
L35390 30600
L35370 30620
L35320 30650
L35130 30650
" />
<path d="M35610 30430
L35630 30410
L35680 30390
L35800 30390
L35840 30410
L35870 30430
L35890 30480
L35890 30530
L35870 30600
L35580 30890
L35890 30890
" />
<path d="M35650 31690
L35490 31450
" />
<path d="M35370 31690
L35370 31190
L35560 31190
L35610 31210
L35630 31230
L35650 31280
L35650 31350
L35630 31400
L35610 31420
L35560 31450
L35370 31450
" />
</g>
<g style="fill:#008400; fill-opacity:0.0; 
stroke:#008400; stroke-width:60; stroke-opacity:1; 
stroke-linecap:round; stroke-linejoin:round;">
<path d="M37000 31500
L37000 33500
" />
<path d="M34000 33500
L49000 33500
" />
<path d="M34000 32500
L41500 32500
" />
<path d="M41500 32500
L41500 29000
" />
</g>
<g style="fill:#008400; fill-opacity:0.0; 
stroke:#008400; stroke-width:0; stroke-opacity:1; 
stroke-linecap:round; stroke-linejoin:round;">
</g>
<g style="fill:#008400; fill-opacity:1.0; 
stroke:#008400; stroke-width:100; stroke-opacity:1; 
stroke-linecap:round; stroke-linejoin:round;">
<circle cx="37000" cy="33500" r="200" /> 
</g>
<g style="fill:#008400; fill-opacity:1.0; 
stroke:#008400; stroke-width:0; stroke-opacity:1; 
stroke-linecap:round; stroke-linejoin:round;">
</g>
<g style="fill:#840000; fill-opacity:1.0; 
stroke:#840000; stroke-width:0; stroke-opacity:1; 
stroke-linecap:round; stroke-linejoin:round;">
</g>
<g style="fill:#840000; fill-opacity:0.0; 
stroke:#840000; stroke-width:200; stroke-opacity:1; 
stroke-linecap:round; stroke-linejoin:round;">
<polyline fill="none;"
points="45700,32300
47300,32300
" /> 
<polyline fill="none;"
points="45700,31700
47300,31700
" /> 
</g>
<g style="fill:#840000; fill-opacity:0.0; 
stroke:#840000; stroke-width:60; stroke-opacity:1; 
stroke-linecap:round; stroke-linejoin:round;">
<path d="M46500 31600
L46500 30500
" />
<path d="M46500 32400
L46500 33500
" />
</g>
<g style="fill:#008484; fill-opacity:0.0; 
stroke:#008484; stroke-width:60; stroke-opacity:1; 
stroke-linecap:round; stroke-linejoin:round;">
<path d="M47150 31210
L47130 31230
L47060 31260
L47010 31260
L46940 31230
L46890 31180
L46870 31140
L46850 31040
L46850 30970
L46870 30880
L46890 30830
L46940 30780
L47010 30760
L47060 30760
L47130 30780
L47150 30800
" />
<path d="M47630 31260
L47350 31260
" />
<path d="M47490 31260
L47490 30760
L47440 30830
L47390 30880
L47350 30900
" />
<path d="M47150 33210
L47130 33230
L47060 33260
L47010 33260
L46940 33230
L46890 33180
L46870 33140
L46850 33040
L46850 32970
L46870 32880
L46890 32830
L46940 32780
L47010 32760
L47060 32760
L47130 32780
L47150 32800
" />
</g>
<g style="fill:#008484; fill-opacity:0.0; 
stroke:#008484; stroke-width:0; stroke-opacity:1; 
stroke-linecap:round; stroke-linejoin:round;">
</g>
<g style="fill:#840000; fill-opacity:0.0; 
stroke:#840000; stroke-width:0; stroke-opacity:1; 
stroke-linecap:round; stroke-linejoin:round;">
</g>
<g style="fill:#FFFFC2; fill-opacity:0.0; 
stroke:#FFFFC2; stroke-width:0; stroke-opacity:1; 
stroke-linecap:round; stroke-linejoin:round;">
</g>
<g style="fill:#FFFFC2; fill-opacity:0.6; 
stroke:#FFFFC2; stroke-width:0; stroke-opacity:1; 
stroke-linecap:round; stroke-linejoin:round;">
<rect x="50000" y="30750" width="1500" height="3500" rx="0" />
</g>
<g style="fill:#840000; fill-opacity:0.6; 
stroke:#840000; stroke-width:0; stroke-opacity:1; 
stroke-linecap:round; stroke-linejoin:round;">
</g>
<g style="fill:#840000; fill-opacity:0.0; 
stroke:#840000; stroke-width:100; stroke-opacity:1; 
stroke-linecap:round; stroke-linejoin:round;">
<rect x="50000" y="30750" width="1500" height="3500" rx="0" />
<circle cx="50750" cy="31500" r="500" /> 
<circle cx="50750" cy="33500" r="500" /> 
<polyline fill="none;"
points="51150,31750
50500,31100
" /> 
<polyline fill="none;"
points="51000,33900
50350,33250
" /> 
<polyline fill="none;"
points="50500,33100
51150,33750
" /> 
<polyline fill="none;"
points="50350,31250
51000,31900
" /> 
</g>
<g style="fill:#840000; fill-opacity:0.0; 
stroke:#840000; stroke-width:60; stroke-opacity:1; 
stroke-linecap:round; stroke-linejoin:round;">
<path d="M50000 33500
L49000 33500
" />
<path d="M49640 33380
L49360 33380
" />
<path d="M49500 33380
L49500 32880
L49450 32950
L49400 33000
L49360 33020
" />
<path d="M50000 31500
L49000 31500
" />
<path d="M49360 30920
L49380 30900
L49430 30880
L49550 30880
L49590 30900
L49620 30920
L49640 30970
L49640 31020
L49620 31090
L49330 31380
L49640 31380
" />
</g>
<g style="fill:#008484; fill-opacity:0.0; 
stroke:#008484; stroke-width:60; stroke-opacity:1; 
stroke-linecap:round; stroke-linejoin:round;">
<path d="M50830 34410
L50830 34760
L50810 34830
L50760 34880
L50690 34910
L50640 34910
" />
<path d="M51330 34910
L51050 34910
" />
<path d="M51190 34910
L51190 34410
L51140 34480
L51090 34530
L51050 34550
" />
<path d="M51910 34880
L51910 34780
L51930 34730
L51980 34690
L52070 34660
L52240 34660
L52330 34690
L52380 34730
L52410 34780
L52410 34880
L52380 34920
L52330 34970
L52240 34990
L52070 34990
L51980 34970
L51930 34920
L51910 34880
" />
<path d="M52070 34240
L52410 34240
" />
<path d="M52070 34450
L52330 34450
L52380 34430
L52410 34380
L52410 34310
L52380 34260
L52360 34240
" />
<path d="M52070 34070
L52070 33880
" />
<path d="M51910 34000
L52330 34000
L52380 33980
L52410 33930
L52410 33880
" />
<path d="M52070 33120
L52410 33120
" />
<path d="M51880 33240
L52240 33350
L52240 33050
" />
<path d="M52220 32850
L52220 32470
" />
<path d="M51950 32250
L51930 32230
L51910 32180
L51910 32060
L51930 32020
L51950 31990
L52000 31970
L52050 31970
L52120 31990
L52410 32280
L52410 31970
" />
<path d="M51910 31660
L51910 31610
L51930 31560
L51950 31540
L52000 31510
L52100 31490
L52220 31490
L52310 31510
L52360 31540
L52380 31560
L52410 31610
L52410 31660
L52380 31700
L52360 31730
L52310 31750
L52220 31770
L52100 31770
L52000 31750
L51950 31730
L51930 31700
L51910 31660
" />
<path d="M52410 30890
L52070 30890
" />
<path d="M52120 30890
L52100 30870
L52070 30820
L52070 30750
L52100 30700
L52140 30680
L52410 30680
" />
<path d="M52140 30680
L52100 30650
L52070 30610
L52070 30530
L52100 30490
L52140 30460
L52410 30460
" />
<path d="M52260 30240
L52260 30010
" />
<path d="M52410 30290
L51910 30130
L52410 29960
" />
</g>
<g style="fill:#008484; fill-opacity:0.0; 
stroke:#008484; stroke-width:0; stroke-opacity:1; 
stroke-linecap:round; stroke-linejoin:round;">
</g>
<g style="fill:#008400; fill-opacity:0.0; 
stroke:#008400; stroke-width:0; stroke-opacity:1; 
stroke-linecap:round; stroke-linejoin:round;">
</g>
<g style="fill:#008400; fill-opacity:1.0; 
stroke:#008400; stroke-width:100; stroke-opacity:1; 
stroke-linecap:round; stroke-linejoin:round;">
<circle cx="46500" cy="33500" r="200" /> 
</g>
<g style="fill:#008400; fill-opacity:1.0; 
stroke:#008400; stroke-width:60; stroke-opacity:1; 
stroke-linecap:round; stroke-linejoin:round;">
</g>
<g style="fill:#008400; fill-opacity:0.0; 
stroke:#008400; stroke-width:60; stroke-opacity:1; 
stroke-linecap:round; stroke-linejoin:round;">
<path d="M49000 31500
L49000 30500
" />
<path d="M49000 30500
L46500 30500
" />
<path d="M46500 30500
L46500 22000
" />
<path d="M46500 22000
L41500 22000
" />
</g>
<g style="fill:#008400; fill-opacity:0.0; 
stroke:#008400; stroke-width:0; stroke-opacity:1; 
stroke-linecap:round; stroke-linejoin:round;">
</g>
<g style="fill:#008400; fill-opacity:1.0; 
stroke:#008400; stroke-width:100; stroke-opacity:1; 
stroke-linecap:round; stroke-linejoin:round;">
<circle cx="41500" cy="29000" r="200" /> 
</g>
<g style="fill:#008400; fill-opacity:1.0; 
stroke:#008400; stroke-width:0; stroke-opacity:1; 
stroke-linecap:round; stroke-linejoin:round;">
</g>
<g style="fill:#008400; fill-opacity:1.0; 
stroke:#008400; stroke-width:100; stroke-opacity:1; 
stroke-linecap:round; stroke-linejoin:round;">
<circle cx="46500" cy="30500" r="200" /> 
</g>
<g style="fill:#008400; fill-opacity:1.0; 
stroke:#008400; stroke-width:0; stroke-opacity:1; 
stroke-linecap:round; stroke-linejoin:round;">
</g>
<g style="fill:#840000; fill-opacity:1.0; 
stroke:#840000; stroke-width:0; stroke-opacity:1; 
stroke-linecap:round; stroke-linejoin:round;">
</g>
<g style="fill:#840000; fill-opacity:0.0; 
stroke:#840000; stroke-width:100; stroke-opacity:1; 
stroke-linecap:round; stroke-linejoin:round;">
<rect x="25500" y="31100" width="2000" height="800" rx="0" />
</g>
<g style="fill:#840000; fill-opacity:0.0; 
stroke:#840000; stroke-width:60; stroke-opacity:1; 
stroke-linecap:round; stroke-linejoin:round;">
<path d="M27500 31500
L28000 31500
" />
<path d="M25500 31500
L25000 31500
" />
</g>
<g style="fill:#008484; fill-opacity:0.0; 
stroke:#008484; stroke-width:60; stroke-opacity:1; 
stroke-linecap:round; stroke-linejoin:round;">
<path d="M26410 32560
L26250 32320
" />
<path d="M26130 32560
L26130 32060
L26320 32060
L26370 32080
L26390 32100
L26410 32150
L26410 32220
L26390 32270
L26370 32290
L26320 32320
L26130 32320
" />
<path d="M26890 32560
L26610 32560
" />
<path d="M26750 32560
L26750 32060
L26700 32130
L26650 32180
L26610 32200
" />
<path d="M26650 31760
L26490 31520
" />
<path d="M26370 31760
L26370 31260
L26560 31260
L26610 31280
L26630 31300
L26650 31350
L26650 31420
L26630 31470
L26610 31490
L26560 31520
L26370 31520
" />
</g>
<g style="fill:#008484; fill-opacity:0.0; 
stroke:#008484; stroke-width:0; stroke-opacity:1; 
stroke-linecap:round; stroke-linejoin:round;">
</g>
<g style="fill:#840000; fill-opacity:0.0; 
stroke:#840000; stroke-width:0; stroke-opacity:1; 
stroke-linecap:round; stroke-linejoin:round;">
</g>
<g style="fill:#840000; fill-opacity:0.0; 
stroke:#840000; stroke-width:60; stroke-opacity:1; 
stroke-linecap:round; stroke-linejoin:round;">
<rect x="22900" y="32450" width="600" height="100" rx="0" />
<rect x="22900" y="33450" width="600" height="100" rx="0" />
<rect x="22500" y="32000" width="1000" height="2000" rx="0" />
<path d="M23500 33500
L25000 33500
" />
<path d="M24390 33380
L24110 33380
" />
<path d="M24250 33380
L24250 32880
L24200 32950
L24150 33000
L24110 33020
" />
<path d="M23500 32500
L25000 32500
" />
<path d="M24110 31920
L24130 31900
L24180 31880
L24300 31880
L24340 31900
L24370 31920
L24390 31970
L24390 32020
L24370 32090
L24080 32380
L24390 32380
" />
</g>
<g style="fill:#008484; fill-opacity:0.0; 
stroke:#008484; stroke-width:60; stroke-opacity:1; 
stroke-linecap:round; stroke-linejoin:round;">
<path d="M22630 34690
L22630 34190
L22820 34190
L22870 34210
L22890 34230
L22910 34280
L22910 34350
L22890 34400
L22870 34420
L22820 34450
L22630 34450
" />
<path d="M23390 34690
L23110 34690
" />
<path d="M23250 34690
L23250 34190
L23200 34260
L23150 34310
L23110 34330
" />
<path d="M22190 33700
L21690 33700
L21690 33510
L21710 33460
L21730 33440
L21780 33420
L21850 33420
L21900 33440
L21920 33460
L21950 33510
L21950 33700
" />
<path d="M21690 33250
L22190 33130
L21830 33030
L22190 32940
L21690 32820
" />
<path d="M22190 32630
L21690 32630
L22040 32460
L21690 32300
L22190 32300
" />
</g>
<g style="fill:#008400; fill-opacity:0.0; 
stroke:#008400; stroke-width:60; stroke-opacity:1; 
stroke-linecap:round; stroke-linejoin:round;">
<path d="M25000 33500
L28000 33500
" />
<path d="M25000 32500
L25000 31500
" />
</g> 
</svg>
