<?xml version="1.0" standalone="no"?>
 <!DOCTYPE svg PUBLIC "-//W3C//DTD SVG 1.1//EN" 
 "http://www.w3.org/Graphics/SVG/1.1/DTD/svg11.dtd"> 
<svg xmlns="http://www.w3.org/2000/svg" version="1.1" 
    width="5.8547cm" height="3.24866cm" viewBox="0 0 23050 12790 ">
<title>SVG Picture created as current_sensor_00-brd.svg date 2017/01/28 16:19:25 </title>
  <desc>Picture generated by PCBNEW </desc>
<g style="fill:#000000; fill-opacity:1;stroke:#000000; stroke-opacity:1;
stroke-linecap:round; stroke-linejoin:round; "
 transform="translate(0 0) scale(1 1)">
</g>
<g style="fill:#000000; fill-opacity:0.0; 
stroke:#000000; stroke-width:-0.000393701; stroke-opacity:1; 
stroke-linecap:round; stroke-linejoin:round;">
</g>
<g style="fill:#000000; fill-opacity:0.0; 
stroke:#000000; stroke-width:0; stroke-opacity:1; 
stroke-linecap:round; stroke-linejoin:round;">
</g>
<g style="fill:#000000; fill-opacity:1.0; 
stroke:#000000; stroke-width:0; stroke-opacity:1; 
stroke-linecap:round; stroke-linejoin:round;">
<polyline style="fill-rule:evenodd;"
points="12714,6848
13344,6848
13344,7635
12714,7635
12714,6848
" /> 
<polyline style="fill-rule:evenodd;"
points="12714,8423
13344,8423
13344,9210
12714,9210
12714,8423
" /> 
<polyline style="fill-rule:evenodd;"
points="3230,8061
3230,6998
3939,6998
3939,8061
3230,8061
" /> 
<polyline style="fill-rule:evenodd;"
points="5120,8061
5120,6998
5829,6998
5829,8061
5120,8061
" /> 
<polyline style="fill-rule:evenodd;"
points="2848,6344
2848,5714
3635,5714
3635,6344
2848,6344
" /> 
<polyline style="fill-rule:evenodd;"
points="4423,6344
4423,5714
5210,5714
5210,6344
4423,6344
" /> 
<polyline style="fill-rule:evenodd;"
points="13479,1129
13479,1929
12879,1929
12879,1129
13479,1129
" /> 
<polyline style="fill-rule:evenodd;"
points="12179,1129
12179,1929
11579,1929
11579,1129
12179,1129
" /> 
<polyline style="fill-rule:evenodd;"
points="4620,4104
3439,4104
3439,3317
4620,3317
4620,4104
" /> 
<polyline style="fill-rule:evenodd;"
points="4620,1742
3439,1742
3439,955
4620,955
4620,1742
" /> 
<polyline style="fill-rule:evenodd;"
points="7061,4829
5998,4829
5998,4120
7061,4120
7061,4829
" /> 
<polyline style="fill-rule:evenodd;"
points="7061,2939
5998,2939
5998,2230
7061,2230
7061,2939
" /> 
<polyline style="fill-rule:evenodd;"
points="11761,7194
11761,7864
10462,7864
10462,7194
11761,7194
" /> 
<polyline style="fill-rule:evenodd;"
points="9596,7194
9596,7864
8297,7864
8297,7194
9596,7194
" /> 
<polyline style="fill-rule:evenodd;"
points="10261,8694
10261,9364
8962,9364
8962,8694
10261,8694
" /> 
<polyline style="fill-rule:evenodd;"
points="8096,8694
8096,9364
6797,9364
6797,8694
8096,8694
" /> 
<polyline style="fill-rule:evenodd;"
points="12694,2797
13364,2797
13364,4096
12694,4096
12694,2797
" /> 
<polyline style="fill-rule:evenodd;"
points="12694,4962
13364,4962
13364,6261
12694,6261
12694,4962
" /> 
<polyline style="fill-rule:evenodd;"
points="18537,6037
19521,6037
19521,7021
18537,7021
18537,6037
" /> 
<circle cx="19029.5" cy="8498.03" r="492.126" /> 
</g>
<g style="fill:#000000; fill-opacity:1.0; 
stroke:#000000; stroke-width:39.3701; stroke-opacity:1; 
stroke-linecap:round; stroke-linejoin:round;">
</g>
<g style="fill:#000000; fill-opacity:1.0; 
stroke:#000000; stroke-width:0; stroke-opacity:1; 
stroke-linecap:round; stroke-linejoin:round;">
<polyline style="fill-rule:evenodd;"
points="3189,8929
3189,8129
3869,8129
3869,8929
3189,8929
" /> 
</g>
<g style="fill:#000000; fill-opacity:1.0; 
stroke:#000000; stroke-width:680; stroke-opacity:1; 
stroke-linecap:round; stroke-linejoin:round;">
</g>
<g style="fill:#000000; fill-opacity:0.0; 
stroke:#000000; stroke-width:680; stroke-opacity:1; 
stroke-linecap:round; stroke-linejoin:round;">
<path d="M4529 8469
L4529 8589
" />
<path d="M5529 8469
L5529 8589
" />
</g>
<g style="fill:#000000; fill-opacity:0.0; 
stroke:#000000; stroke-width:0; stroke-opacity:1; 
stroke-linecap:round; stroke-linejoin:round;">
</g>
<g style="fill:#000000; fill-opacity:1.0; 
stroke:#000000; stroke-width:0; stroke-opacity:1; 
stroke-linecap:round; stroke-linejoin:round;">
<polyline style="fill-rule:evenodd;"
points="15694,3848
16364,3848
16364,4635
15694,4635
15694,3848
" /> 
<polyline style="fill-rule:evenodd;"
points="15694,5423
16364,5423
16364,6210
15694,6210
15694,5423
" /> 
<polyline style="fill-rule:evenodd;"
points="19710,1694
19710,2364
18923,2364
18923,1694
19710,1694
" /> 
<polyline style="fill-rule:evenodd;"
points="18135,1694
18135,2364
17348,2364
17348,1694
18135,1694
" /> 
<polyline style="fill-rule:evenodd;"
points="16364,9210
15694,9210
15694,8423
16364,8423
16364,9210
" /> 
<polyline style="fill-rule:evenodd;"
points="16364,7635
15694,7635
15694,6848
16364,6848
16364,7635
" /> 
<polyline style="fill-rule:evenodd;"
points="14194,6848
14864,6848
14864,7635
14194,7635
14194,6848
" /> 
<polyline style="fill-rule:evenodd;"
points="14194,8423
14864,8423
14864,9210
14194,9210
14194,8423
" /> 
<polyline style="fill-rule:evenodd;"
points="8348,1864
8348,1194
9135,1194
9135,1864
8348,1864
" /> 
<polyline style="fill-rule:evenodd;"
points="9923,1864
9923,1194
10710,1194
10710,1864
9923,1864
" /> 
<polyline style="fill-rule:evenodd;"
points="5348,1864
5348,1194
6135,1194
6135,1864
5348,1864
" /> 
<polyline style="fill-rule:evenodd;"
points="6923,1864
6923,1194
7710,1194
7710,1864
6923,1864
" /> 
<polyline style="fill-rule:evenodd;"
points="9364,5710
8694,5710
8694,4923
9364,4923
9364,5710
" /> 
<polyline style="fill-rule:evenodd;"
points="9364,4135
8694,4135
8694,3348
9364,3348
9364,4135
" /> 
<circle cx="17529.5" cy="3529.53" r="393.701" /> 
</g>
<g style="fill:#000000; fill-opacity:1.0; 
stroke:#000000; stroke-width:39.3701; stroke-opacity:1; 
stroke-linecap:round; stroke-linejoin:round;">
</g>
<g style="fill:#000000; fill-opacity:1.0; 
stroke:#000000; stroke-width:0; stroke-opacity:1; 
stroke-linecap:round; stroke-linejoin:round;">
<circle cx="19498" cy="4513.78" r="393.701" /> 
</g>
<g style="fill:#000000; fill-opacity:1.0; 
stroke:#000000; stroke-width:39.3701; stroke-opacity:1; 
stroke-linecap:round; stroke-linejoin:round;">
</g>
<g style="fill:#000000; fill-opacity:1.0; 
stroke:#000000; stroke-width:0; stroke-opacity:1; 
stroke-linecap:round; stroke-linejoin:round;">
<polyline style="fill-rule:evenodd;"
points="11501,5714
11501,6344
10557,6344
10557,5714
11501,5714
" /> 
</g>
<g style="fill:#000000; fill-opacity:1.0; 
stroke:#000000; stroke-width:629.921; stroke-opacity:1; 
stroke-linecap:round; stroke-linejoin:round;">
</g>
<g style="fill:#000000; fill-opacity:0.0; 
stroke:#000000; stroke-width:629.921; stroke-opacity:1; 
stroke-linecap:round; stroke-linejoin:round;">
<path d="M8187 3029
L7872 3029
" />
<path d="M11187 5029
L10872 5029
" />
<path d="M8187 4029
L7872 4029
" />
<path d="M11187 4029
L10872 4029
" />
<path d="M8187 5029
L7872 5029
" />
<path d="M11187 3029
L10872 3029
" />
<path d="M8187 6029
L7872 6029
" />
</g>
<g style="fill:#000000; fill-opacity:0.0; 
stroke:#000000; stroke-width:98.4252; stroke-opacity:1; 
stroke-linecap:round; stroke-linejoin:round;">
<path d="M17742 2029
L15529 2029
" />
<path d="M15029 6529
L14529 7029
" />
<path d="M15029 2529
L15029 6529
" />
<path d="M15529 2029
L15029 2529
" />
<path d="M14529 7029
L14529 7242
" />
<path d="M11029 4029
L11529 4029
" />
<path d="M14529 529
L14529 3029
" />
<path d="M13529 529
L14529 529
" />
<path d="M12529 529
L13529 529
" />
<path d="M12529 1029
L12529 529
" />
<path d="M12529 2029
L12529 1029
" />
<path d="M12029 2529
L12529 2029
" />
<path d="M12029 3529
L12029 2529
" />
<path d="M11529 4029
L12029 3529
" />
<path d="M14529 7242
L14529 3029
" />
<path d="M10529 7529
L11112 7529
" />
<path d="M14529 7242
L13029 7242
" />
<path d="M13029 7242
L12742 7529
" />
<path d="M12742 7529
L11112 7529
" />
<path d="M5529 9529
L5029 10029
" />
<path d="M2529 529
L7529 529
" />
<path d="M2029 1029
L2529 529
" />
<path d="M2029 9529
L2029 1029
" />
<path d="M2529 10029
L2029 9529
" />
<path d="M5029 10029
L2529 10029
" />
<path d="M4816 6029
L4816 6871
" />
<path d="M4816 6871
L5474 7529
" />
<path d="M5529 8529
L5529 7084
" />
<path d="M5529 7084
L5474 7029
" />
<path d="M7316 1529
L7316 742
" />
<path d="M7316 742
L7529 529
" />
<path d="M10316 816
L10316 1529
" />
<path d="M10029 529
L10316 816
" />
<path d="M7529 529
L10029 529
" />
<path d="M11029 3029
L11029 2242
" />
<path d="M11029 2242
L10316 1529
" />
<path d="M11879 1529
L10316 1529
" />
<path d="M16029 8816
L14529 8816
" />
<path d="M14529 8816
L13029 8816
" />
<path d="M13029 8816
L12816 9029
" />
<path d="M12816 9029
L9612 9029
" />
<path d="M9612 9029
L8612 10029
" />
<path d="M8612 10029
L6029 10029
" />
<path d="M6029 10029
L5529 9529
" />
<path d="M5529 9529
L5529 8529
" />
<path d="M8029 6029
L7529 6029
" />
<path d="M4029 5029
L3242 5816
" />
<path d="M5529 5029
L4029 5029
" />
<path d="M6029 5529
L5529 5029
" />
<path d="M7029 5529
L6029 5529
" />
<path d="M7529 6029
L7029 5529
" />
<path d="M3242 5816
L3242 6029
" />
<path d="M3584 7529
L3584 6371
" />
<path d="M3584 6371
L3242 6029
" />
<path d="M3584 7029
L3529 7029
" />
<path d="M3529 8529
L3529 7084
" />
<path d="M3529 7084
L3584 7029
" />
<path d="M11029 5029
L10529 5029
" />
<path d="M9529 2529
L8529 2529
" />
<path d="M10029 3029
L9529 2529
" />
<path d="M10029 4529
L10029 3029
" />
<path d="M10529 5029
L10029 4529
" />
<path d="M8742 1529
L8742 2316
" />
<path d="M8742 2316
L8529 2529
" />
<path d="M8529 2529
L8029 3029
" />
<path d="M13179 1529
L13179 3296
" />
<path d="M13179 3296
L13029 3446
" />
<path d="M11029 5029
L12029 5029
" />
<path d="M12529 3946
L13029 3446
" />
<path d="M12529 4529
L12529 3946
" />
<path d="M12029 5029
L12529 4529
" />
<path d="M4029 3710
L4029 3529
" />
<path d="M4029 3529
L4974 2584
" />
<path d="M4974 2584
L6529 2584
" />
<path d="M8029 4029
L7974 4029
" />
<path d="M7974 4029
L6529 2584
" />
<path d="M4029 4210
L4029 4029
" />
<path d="M8029 4029
L8742 4029
" />
<path d="M8742 4029
L9029 3742
" />
<path d="M5742 1529
L4210 1529
" />
<path d="M4210 1529
L4029 1348
" />
<path d="M6529 4474
L3084 4474
" />
<path d="M4529 9029
L4529 8529
" />
<path d="M4029 9529
L4529 9029
" />
<path d="M3029 9529
L4029 9529
" />
<path d="M2529 9029
L3029 9529
" />
<path d="M2529 5029
L2529 9029
" />
<path d="M3084 4474
L2529 5029
" />
<path d="M8029 5029
L7029 5029
" />
<path d="M7029 5029
L6529 4529
" />
<path d="M6529 4529
L6529 4474
" />
<path d="M8029 5029
L8742 5029
" />
<path d="M8742 5029
L9029 5316
" />
<path d="M7446 9029
L7446 8112
" />
<path d="M8029 7529
L8946 7529
" />
<path d="M7446 8112
L8029 7529
" />
<path d="M11029 6029
L12612 6029
" />
<path d="M12612 6029
L13029 5612
" />
<path d="M17529 3529
L19029 3529
" />
<path d="M19316 3242
L19316 2029
" />
<path d="M19029 3529
L19316 3242
" />
<path d="M19029 6529
L18029 6529
" />
<path d="M17529 6029
L17529 3529
" />
<path d="M18029 6529
L17529 6029
" />
<path d="M17529 3529
L16529 3529
" />
<path d="M16529 3529
L16029 4029
" />
<path d="M16029 4029
L16029 4242
" />
<path d="M19498 4513
L20013 4513
" />
<path d="M16742 7242
L16029 7242
" />
<path d="M17029 7529
L16742 7242
" />
<path d="M17029 9029
L17029 7529
" />
<path d="M17529 9529
L17029 9029
" />
<path d="M20029 9529
L17529 9529
" />
<path d="M20529 9029
L20029 9529
" />
<path d="M20529 5029
L20529 9029
" />
<path d="M20013 4513
L20529 5029
" />
<path d="M19498 4513
L19513 4513
" />
<path d="M19513 4513
L20029 5029
" />
<path d="M20029 5029
L20029 8029
" />
<path d="M20029 8029
L19561 8498
" />
<path d="M19561 8498
L19029 8498
" />
<path d="M16029 5816
L16029 7242
" />
</g>
<g style="fill:#000000; fill-opacity:1.0; 
stroke:#000000; stroke-width:100; stroke-opacity:1; 
stroke-linecap:round; stroke-linejoin:round;">
<polyline style="fill-rule:evenodd;"
points="11979,892
11929,942
11929,1479
11937,1479
11937,1579
11929,1579
11929,1587
11829,1587
11829,1579
11392,1579
11329,1642
11329,1979
11367,2071
11437,2141
11479,2158
11479,2550
11449,2526
11237,2464
11079,2464
11079,2979
10979,2979
10979,2464
10822,2464
10609,2526
10579,2550
10579,2114
10760,2114
10852,2076
10922,2005
10960,1913
10960,1642
10898,1579
10366,1579
10366,1587
10266,1587
10266,1579
10259,1579
10259,1479
10266,1479
10266,1007
10366,1007
10366,1479
10898,1479
10960,1417
10960,1145
10933,1079
11329,1079
11329,1417
11392,1479
11829,1479
11829,942
11767,879
11529,879
11437,917
11367,987
11329,1079
10933,1079
10922,1053
10852,982
10760,944
10429,944
10366,1007
10266,1007
10204,944
10015,944
9564,494
9548,483
9529,479
3029,479
3010,483
2993,494
2982,511
2979,529
2979,3508
1994,4494
1983,4510
1979,4529
1979,9529
1983,9548
1994,9564
2494,10064
2510,10075
2529,10079
4529,10079
4548,10075
4564,10064
5064,9564
5075,9548
5079,9529
5079,9050
5124,9005
5174,9061
5381,9161
5388,9162
5479,9114
5479,8650
5564,8564
5575,8548
5579,8528
5575,8509
5564,8494
5542,8471
5579,8471
5579,8479
5587,8479
5587,8579
5579,8579
5579,9114
5670,9162
5677,9161
5884,9061
5979,8955
5979,9529
5983,9548
5994,9564
6494,10064
6510,10075
6529,10079
8529,10079
8548,10075
8565,10064
8576,10045
8755,9510
8820,9576
8912,9614
9499,9614
9562,9551
9562,9079
9662,9079
9662,9551
9724,9614
10311,9614
10403,9576
10473,9505
10511,9413
10511,9142
10449,9079
9662,9079
9562,9079
9554,9079
9554,8979
9562,8979
9562,8971
9662,8971
9662,8979
10449,8979
10499,8929
12464,8929
12464,9260
12502,9352
12572,9422
12664,9460
12917,9460
12979,9398
12979,8866
13079,8866
13079,9398
13142,9460
13394,9460
13486,9422
13556,9352
13594,9260
13594,8929
13944,8929
13944,9260
13982,9352
14053,9422
14145,9460
14417,9460
14479,9398
14479,8866
14579,8866
14579,9398
14642,9460
14913,9460
15005,9422
15076,9352
15114,9260
15114,8929
15444,8929
15444,9260
15482,9352
15553,9422
15645,9460
15917,9460
15979,9398
15979,8866
15507,8866
15444,8929
15114,8929
15051,8866
14579,8866
14479,8866
14007,8866
13944,8929
13594,8929
13531,8866
13079,8866
12979,8866
12527,8866
12464,8929
10499,8929
10511,8917
10511,8645
10484,8579
12464,8579
12464,8704
12527,8766
12979,8766
12979,8759
13079,8759
13079,8766
13531,8766
13594,8704
13594,8579
13944,8579
13944,8704
14007,8766
14479,8766
14479,8759
14579,8759
14579,8766
15051,8766
15114,8704
15114,8579
15444,8579
15444,8704
15507,8766
15979,8766
15979,8759
16079,8759
16079,8766
16087,8766
16087,8866
16079,8866
16079,9398
16142,9460
16413,9460
16479,9433
16479,9529
16483,9548
16494,9564
16994,10064
17010,10075
17029,10079
20529,10079
20548,10075
20564,10064
21064,9564
21075,9548
21079,9529
21079,4529
21075,4510
21064,4494
20079,3508
20079,1029
20075,1010
20064,993
20047,982
20029,979
17029,979
17010,983
16994,994
16508,1479
15079,1479
15079,309
21732,309
21731,309
21478,478
21309,731
21250,1029
21309,1327
21478,1580
21731,1749
22029,1809
22327,1749
22580,1580
22749,1327
22750,1326
22750,9232
22749,9231
22580,8978
22327,8809
22029,8750
21731,8809
21478,8978
21309,9231
21250,9529
21309,9827
21478,10080
21731,10249
21732,10250
1326,10250
1327,10249
1580,10080
1749,9827
1809,9529
1749,9231
1580,8978
1327,8809
1029,8750
731,8809
478,8978
309,9231
309,9232
309,1326
309,1327
478,1580
731,1749
1029,1809
1327,1749
1580,1580
1749,1327
1809,1029
1749,731
1580,478
1327,309
1326,309
11979,309
11979,892
" /> 
<polyline style="fill-rule:evenodd;"
points="4866,6531
4929,6594
5260,6594
5352,6556
5422,6486
5460,6394
5460,6142
5398,6079
5460,6079
5460,6079
6508,6079
6979,6550
6979,7979
6079,7979
6079,7642
6016,7579
5524,7579
5524,7587
5424,7587
5424,7579
5416,7579
5416,7479
5424,7479
5424,6810
5524,6810
5524,7479
6016,7479
6079,7417
6079,6948
6040,6856
5970,6786
5878,6748
5587,6748
5524,6810
5424,6810
5362,6748
5070,6748
4978,6786
4908,6856
4870,6948
4870,7299
4579,7008
4579,6594
4704,6594
4766,6531
4766,6079
4866,6079
4866,6531
" /> 
</g>
<g style="fill:#FFFFFF; fill-opacity:1.0; 
stroke:#FFFFFF; stroke-width:100; stroke-opacity:1; 
stroke-linecap:round; stroke-linejoin:round;">
</g>
<g style="fill:#FFFFFF; fill-opacity:1.0; 
stroke:#FFFFFF; stroke-width:0; stroke-opacity:1; 
stroke-linecap:round; stroke-linejoin:round;">
<circle cx="19029.5" cy="6529.53" r="255.906" /> 
</g>
<g style="fill:#FFFFFF; fill-opacity:1.0; 
stroke:#FFFFFF; stroke-width:39.3701; stroke-opacity:1; 
stroke-linecap:round; stroke-linejoin:round;">
</g>
<g style="fill:#FFFFFF; fill-opacity:1.0; 
stroke:#FFFFFF; stroke-width:0; stroke-opacity:1; 
stroke-linecap:round; stroke-linejoin:round;">
<circle cx="19029.5" cy="8498.03" r="255.906" /> 
</g>
<g style="fill:#FFFFFF; fill-opacity:1.0; 
stroke:#FFFFFF; stroke-width:39.3701; stroke-opacity:1; 
stroke-linecap:round; stroke-linejoin:round;">
</g>
<g style="fill:#FFFFFF; fill-opacity:1.0; 
stroke:#FFFFFF; stroke-width:0; stroke-opacity:1; 
stroke-linecap:round; stroke-linejoin:round;">
<circle cx="3529.53" cy="8529.53" r="200" /> 
</g>
<g style="fill:#FFFFFF; fill-opacity:1.0; 
stroke:#FFFFFF; stroke-width:39.3701; stroke-opacity:1; 
stroke-linecap:round; stroke-linejoin:round;">
</g>
<g style="fill:#FFFFFF; fill-opacity:1.0; 
stroke:#FFFFFF; stroke-width:0; stroke-opacity:1; 
stroke-linecap:round; stroke-linejoin:round;">
<circle cx="4529.53" cy="8529.53" r="200" /> 
</g>
<g style="fill:#FFFFFF; fill-opacity:1.0; 
stroke:#FFFFFF; stroke-width:39.3701; stroke-opacity:1; 
stroke-linecap:round; stroke-linejoin:round;">
</g>
<g style="fill:#FFFFFF; fill-opacity:1.0; 
stroke:#FFFFFF; stroke-width:0; stroke-opacity:1; 
stroke-linecap:round; stroke-linejoin:round;">
<circle cx="5529.53" cy="8529.53" r="200" /> 
</g>
<g style="fill:#FFFFFF; fill-opacity:1.0; 
stroke:#FFFFFF; stroke-width:39.3701; stroke-opacity:1; 
stroke-linecap:round; stroke-linejoin:round;">
</g>
<g style="fill:#FFFFFF; fill-opacity:1.0; 
stroke:#FFFFFF; stroke-width:0; stroke-opacity:1; 
stroke-linecap:round; stroke-linejoin:round;">
<circle cx="17529.5" cy="3529.53" r="157.48" /> 
</g>
<g style="fill:#FFFFFF; fill-opacity:1.0; 
stroke:#FFFFFF; stroke-width:39.3701; stroke-opacity:1; 
stroke-linecap:round; stroke-linejoin:round;">
</g>
<g style="fill:#FFFFFF; fill-opacity:1.0; 
stroke:#FFFFFF; stroke-width:0; stroke-opacity:1; 
stroke-linecap:round; stroke-linejoin:round;">
<circle cx="19498" cy="4513.78" r="157.48" /> 
</g>
<g style="fill:#FFFFFF; fill-opacity:1.0; 
stroke:#FFFFFF; stroke-width:39.3701; stroke-opacity:1; 
stroke-linecap:round; stroke-linejoin:round;">
</g>
<g style="fill:#FFFFFF; fill-opacity:1.0; 
stroke:#FFFFFF; stroke-width:0; stroke-opacity:1; 
stroke-linecap:round; stroke-linejoin:round;">
<circle cx="11029.5" cy="6029.53" r="157.48" /> 
</g>
<g style="fill:#FFFFFF; fill-opacity:1.0; 
stroke:#FFFFFF; stroke-width:39.3701; stroke-opacity:1; 
stroke-linecap:round; stroke-linejoin:round;">
</g>
<g style="fill:#FFFFFF; fill-opacity:1.0; 
stroke:#FFFFFF; stroke-width:0; stroke-opacity:1; 
stroke-linecap:round; stroke-linejoin:round;">
<circle cx="8029.53" cy="3029.53" r="157.48" /> 
</g>
<g style="fill:#FFFFFF; fill-opacity:1.0; 
stroke:#FFFFFF; stroke-width:39.3701; stroke-opacity:1; 
stroke-linecap:round; stroke-linejoin:round;">
</g>
<g style="fill:#FFFFFF; fill-opacity:1.0; 
stroke:#FFFFFF; stroke-width:0; stroke-opacity:1; 
stroke-linecap:round; stroke-linejoin:round;">
<circle cx="11029.5" cy="5029.53" r="157.48" /> 
</g>
<g style="fill:#FFFFFF; fill-opacity:1.0; 
stroke:#FFFFFF; stroke-width:39.3701; stroke-opacity:1; 
stroke-linecap:round; stroke-linejoin:round;">
</g>
<g style="fill:#FFFFFF; fill-opacity:1.0; 
stroke:#FFFFFF; stroke-width:0; stroke-opacity:1; 
stroke-linecap:round; stroke-linejoin:round;">
<circle cx="8029.53" cy="4029.53" r="157.48" /> 
</g>
<g style="fill:#FFFFFF; fill-opacity:1.0; 
stroke:#FFFFFF; stroke-width:39.3701; stroke-opacity:1; 
stroke-linecap:round; stroke-linejoin:round;">
</g>
<g style="fill:#FFFFFF; fill-opacity:1.0; 
stroke:#FFFFFF; stroke-width:0; stroke-opacity:1; 
stroke-linecap:round; stroke-linejoin:round;">
<circle cx="11029.5" cy="4029.53" r="157.48" /> 
</g>
<g style="fill:#FFFFFF; fill-opacity:1.0; 
stroke:#FFFFFF; stroke-width:39.3701; stroke-opacity:1; 
stroke-linecap:round; stroke-linejoin:round;">
</g>
<g style="fill:#FFFFFF; fill-opacity:1.0; 
stroke:#FFFFFF; stroke-width:0; stroke-opacity:1; 
stroke-linecap:round; stroke-linejoin:round;">
<circle cx="8029.53" cy="5029.53" r="157.48" /> 
</g>
<g style="fill:#FFFFFF; fill-opacity:1.0; 
stroke:#FFFFFF; stroke-width:39.3701; stroke-opacity:1; 
stroke-linecap:round; stroke-linejoin:round;">
</g>
<g style="fill:#FFFFFF; fill-opacity:1.0; 
stroke:#FFFFFF; stroke-width:0; stroke-opacity:1; 
stroke-linecap:round; stroke-linejoin:round;">
<circle cx="11029.5" cy="3029.53" r="157.48" /> 
</g>
<g style="fill:#FFFFFF; fill-opacity:1.0; 
stroke:#FFFFFF; stroke-width:39.3701; stroke-opacity:1; 
stroke-linecap:round; stroke-linejoin:round;">
</g>
<g style="fill:#FFFFFF; fill-opacity:1.0; 
stroke:#FFFFFF; stroke-width:0; stroke-opacity:1; 
stroke-linecap:round; stroke-linejoin:round;">
<circle cx="8029.53" cy="6029.53" r="157.48" /> 
</g>
<g style="fill:#FFFFFF; fill-opacity:1.0; 
stroke:#FFFFFF; stroke-width:39.3701; stroke-opacity:1; 
stroke-linecap:round; stroke-linejoin:round;">
</g>
<g style="fill:#000000; fill-opacity:1.0; 
stroke:#000000; stroke-width:39.3701; stroke-opacity:1; 
stroke-linecap:round; stroke-linejoin:round;">
</g>
<g style="fill:#000000; fill-opacity:1.0; 
stroke:#000000; stroke-width:59.0551; stroke-opacity:1; 
stroke-linecap:round; stroke-linejoin:round;">
</g>
<g style="fill:#000000; fill-opacity:0.0; 
stroke:#000000; stroke-width:59.0551; stroke-opacity:1; 
stroke-linecap:round; stroke-linejoin:round;">
<circle cx="1029.53" cy="1029.53" r="500" /> 
<circle cx="1029.53" cy="9529.53" r="500" /> 
<circle cx="22029.5" cy="9529.53" r="500" /> 
<circle cx="22029.5" cy="1029.53" r="500" /> 
<path d="M23029 29
L21029 29
" />
<path d="M23029 10529
L23029 29
" />
<path d="M21029 10529
L23029 10529
" />
<path d="M29 29
L1529 29
" />
<path d="M29 10529
L29 29
" />
<path d="M529 10529
L29 10529
" />
<path d="M1529 10529
L529 10529
" />
<path d="M21029 10529
L1529 10529
" />
<path d="M1529 29
L21029 29
" />
</g> 
</svg>
