<?xml version="1.0" standalone="no"?>
 <!DOCTYPE svg PUBLIC "-//W3C//DTD SVG 1.1//EN" 
 "http://www.w3.org/Graphics/SVG/1.1/DTD/svg11.dtd"> 
<svg xmlns="http://www.w3.org/2000/svg" version="1.1" 
    width="5.6007cm" height="2.74574cm" viewBox="0 0 22050 10810 ">
<title>SVG Picture created as relay_assy_00-brd.svg date 2017/01/28 16:23:04 </title>
  <desc>Picture generated by PCBNEW </desc>
<g style="fill:#000000; fill-opacity:1;stroke:#000000; stroke-opacity:1;
stroke-linecap:round; stroke-linejoin:round; "
 transform="translate(0 0) scale(1 1)">
</g>
<g style="fill:#000000; fill-opacity:0.0; 
stroke:#000000; stroke-width:-0.000393701; stroke-opacity:1; 
stroke-linecap:round; stroke-linejoin:round;">
</g>
<g style="fill:#000000; fill-opacity:0.0; 
stroke:#000000; stroke-width:0; stroke-opacity:1; 
stroke-linecap:round; stroke-linejoin:round;">
</g>
<g style="fill:#000000; fill-opacity:1.0; 
stroke:#000000; stroke-width:0; stroke-opacity:1; 
stroke-linecap:round; stroke-linejoin:round;">
<polyline style="fill-rule:evenodd;"
points="5769,5566
5289,5566
5289,4779
5769,4779
5769,5566
" /> 
<polyline style="fill-rule:evenodd;"
points="5769,4279
5289,4279
5289,3492
5769,3492
5769,4279
" /> 
<polyline style="fill-rule:evenodd;"
points="3979,1129
3979,1929
3379,1929
3379,1129
3979,1129
" /> 
<polyline style="fill-rule:evenodd;"
points="2679,1129
2679,1929
2079,1929
2079,1129
2679,1129
" /> 
<polyline style="fill-rule:evenodd;"
points="4210,2214
4210,2844
3423,2844
3423,2214
4210,2214
" /> 
<polyline style="fill-rule:evenodd;"
points="2635,2214
2635,2844
1848,2844
1848,2214
2635,2214
" /> 
<polyline style="fill-rule:evenodd;"
points="5189,6129
5869,6129
5869,6929
5189,6929
5189,6129
" /> 
</g>
<g style="fill:#000000; fill-opacity:1.0; 
stroke:#000000; stroke-width:680; stroke-opacity:1; 
stroke-linecap:round; stroke-linejoin:round;">
</g>
<g style="fill:#000000; fill-opacity:0.0; 
stroke:#000000; stroke-width:680; stroke-opacity:1; 
stroke-linecap:round; stroke-linejoin:round;">
<path d="M4529 6469
L4529 6589
" />
<path d="M3529 6469
L3529 6589
" />
<path d="M2529 6469
L2529 6589
" />
</g>
<g style="fill:#000000; fill-opacity:0.0; 
stroke:#000000; stroke-width:0; stroke-opacity:1; 
stroke-linecap:round; stroke-linejoin:round;">
</g>
<g style="fill:#000000; fill-opacity:1.0; 
stroke:#000000; stroke-width:0; stroke-opacity:1; 
stroke-linecap:round; stroke-linejoin:round;">
<polyline style="fill-rule:evenodd;"
points="4194,3348
4864,3348
4864,4135
4194,4135
4194,3348
" /> 
<polyline style="fill-rule:evenodd;"
points="4194,4923
4864,4923
4864,5710
4194,5710
4194,4923
" /> 
<polyline style="fill-rule:evenodd;"
points="3194,3348
3864,3348
3864,4135
3194,4135
3194,3348
" /> 
<polyline style="fill-rule:evenodd;"
points="3194,4923
3864,4923
3864,5710
3194,5710
3194,4923
" /> 
<polyline style="fill-rule:evenodd;"
points="2194,3348
2864,3348
2864,4135
2194,4135
2194,3348
" /> 
<polyline style="fill-rule:evenodd;"
points="2194,4923
2864,4923
2864,5710
2194,5710
2194,4923
" /> 
<circle cx="8297.24" cy="7411.42" r="492.126" /> 
</g>
<g style="fill:#000000; fill-opacity:1.0; 
stroke:#000000; stroke-width:39.3701; stroke-opacity:1; 
stroke-linecap:round; stroke-linejoin:round;">
</g>
<g style="fill:#000000; fill-opacity:1.0; 
stroke:#000000; stroke-width:0; stroke-opacity:1; 
stroke-linecap:round; stroke-linejoin:round;">
<circle cx="13100.4" cy="7411.42" r="590.551" /> 
</g>
<g style="fill:#000000; fill-opacity:1.0; 
stroke:#000000; stroke-width:39.3701; stroke-opacity:1; 
stroke-linecap:round; stroke-linejoin:round;">
</g>
<g style="fill:#000000; fill-opacity:1.0; 
stroke:#000000; stroke-width:0; stroke-opacity:1; 
stroke-linecap:round; stroke-linejoin:round;">
<circle cx="13120.1" cy="2667.32" r="590.551" /> 
</g>
<g style="fill:#000000; fill-opacity:1.0; 
stroke:#000000; stroke-width:39.3701; stroke-opacity:1; 
stroke-linecap:round; stroke-linejoin:round;">
</g>
<g style="fill:#000000; fill-opacity:1.0; 
stroke:#000000; stroke-width:0; stroke-opacity:1; 
stroke-linecap:round; stroke-linejoin:round;">
<circle cx="8297.24" cy="2687.01" r="492.126" /> 
</g>
<g style="fill:#000000; fill-opacity:1.0; 
stroke:#000000; stroke-width:39.3701; stroke-opacity:1; 
stroke-linecap:round; stroke-linejoin:round;">
</g>
<g style="fill:#000000; fill-opacity:1.0; 
stroke:#000000; stroke-width:0; stroke-opacity:1; 
stroke-linecap:round; stroke-linejoin:round;">
<circle cx="7529.53" cy="5029.53" r="590.551" /> 
</g>
<g style="fill:#000000; fill-opacity:1.0; 
stroke:#000000; stroke-width:39.3701; stroke-opacity:1; 
stroke-linecap:round; stroke-linejoin:round;">
</g>
<g style="fill:#000000; fill-opacity:1.0; 
stroke:#000000; stroke-width:0; stroke-opacity:1; 
stroke-linecap:round; stroke-linejoin:round;">
<circle cx="17529.5" cy="3092.52" r="492.126" /> 
</g>
<g style="fill:#000000; fill-opacity:1.0; 
stroke:#000000; stroke-width:39.3701; stroke-opacity:1; 
stroke-linecap:round; stroke-linejoin:round;">
</g>
<g style="fill:#000000; fill-opacity:1.0; 
stroke:#000000; stroke-width:0; stroke-opacity:1; 
stroke-linecap:round; stroke-linejoin:round;">
<polyline style="fill-rule:evenodd;"
points="18021,7521
17037,7521
17037,6537
18021,6537
18021,7521
" /> 
<circle cx="17529.5" cy="5061.02" r="492.126" /> 
</g>
<g style="fill:#000000; fill-opacity:1.0; 
stroke:#000000; stroke-width:39.3701; stroke-opacity:1; 
stroke-linecap:round; stroke-linejoin:round;">
</g>
<g style="fill:#000000; fill-opacity:1.0; 
stroke:#000000; stroke-width:0; stroke-opacity:1; 
stroke-linecap:round; stroke-linejoin:round;">
<polyline style="fill-rule:evenodd;"
points="9773,1285
9773,773
10285,773
10285,1285
9773,1285
" /> 
<circle cx="11998" cy="1029.53" r="255.906" /> 
</g>
<g style="fill:#000000; fill-opacity:1.0; 
stroke:#000000; stroke-width:39.3701; stroke-opacity:1; 
stroke-linecap:round; stroke-linejoin:round;">
</g>
<g style="fill:#000000; fill-opacity:1.0; 
stroke:#000000; stroke-width:0; stroke-opacity:1; 
stroke-linecap:round; stroke-linejoin:round;">
<circle cx="13529.5" cy="1029.53" r="393.5" /> 
</g>
<g style="fill:#000000; fill-opacity:1.0; 
stroke:#000000; stroke-width:39.3701; stroke-opacity:1; 
stroke-linecap:round; stroke-linejoin:round;">
</g>
<g style="fill:#000000; fill-opacity:1.0; 
stroke:#000000; stroke-width:0; stroke-opacity:1; 
stroke-linecap:round; stroke-linejoin:round;">
<circle cx="17529.5" cy="1029.53" r="393.5" /> 
</g>
<g style="fill:#000000; fill-opacity:1.0; 
stroke:#000000; stroke-width:39.3701; stroke-opacity:1; 
stroke-linecap:round; stroke-linejoin:round;">
</g>
<g style="fill:#000000; fill-opacity:1.0; 
stroke:#000000; stroke-width:0; stroke-opacity:1; 
stroke-linecap:round; stroke-linejoin:round;">
<polyline style="fill-rule:evenodd;"
points="5064,2561
5064,2246
5812,2246
5812,2561
5064,2561
" /> 
<polyline style="fill-rule:evenodd;"
points="5064,1812
5064,1498
5812,1498
5812,1812
5064,1812
" /> 
<polyline style="fill-rule:evenodd;"
points="6246,2187
6246,1872
6994,1872
6994,2187
6246,2187
" /> 
</g>
<g style="fill:#000000; fill-opacity:1.0; 
stroke:#000000; stroke-width:98.4252; stroke-opacity:1; 
stroke-linecap:round; stroke-linejoin:round;">
</g>
<g style="fill:#000000; fill-opacity:0.0; 
stroke:#000000; stroke-width:98.4252; stroke-opacity:1; 
stroke-linecap:round; stroke-linejoin:round;">
<path d="M8297 7411
L8147 7411
" />
<path d="M8147 7411
L8029 7529
" />
</g>
<g style="fill:#000000; fill-opacity:0.0; 
stroke:#000000; stroke-width:157.48; stroke-opacity:1; 
stroke-linecap:round; stroke-linejoin:round;">
<path d="M8029 7529
L6029 7529
" />
<path d="M6029 7529
L5529 7029
" />
</g>
<g style="fill:#000000; fill-opacity:0.0; 
stroke:#000000; stroke-width:98.4252; stroke-opacity:1; 
stroke-linecap:round; stroke-linejoin:round;">
<path d="M5529 7029
L5529 6529
" />
<path d="M5029 7529
L5529 7029
" />
<path d="M3029 7529
L5029 7529
" />
<path d="M3029 4529
L3029 7529
" />
<path d="M2029 4529
L3029 4529
" />
<path d="M2011 4511
L2029 4529
" />
<path d="M2011 3047
L2011 4511
" />
<path d="M2029 3029
L2011 3047
" />
<path d="M3029 3029
L2029 3029
" />
<path d="M3529 2529
L3029 3029
" />
<path d="M3816 2529
L3529 2529
" />
<path d="M3816 2529
L4029 2529
" />
<path d="M5529 5029
L5529 5173
" />
</g>
<g style="fill:#000000; fill-opacity:0.0; 
stroke:#000000; stroke-width:157.48; stroke-opacity:1; 
stroke-linecap:round; stroke-linejoin:round;">
<path d="M3679 1529
L3679 2392
" />
</g>
<g style="fill:#000000; fill-opacity:0.0; 
stroke:#000000; stroke-width:98.4252; stroke-opacity:1; 
stroke-linecap:round; stroke-linejoin:round;">
<path d="M3679 2392
L3816 2529
" />
</g>
<g style="fill:#000000; fill-opacity:0.0; 
stroke:#000000; stroke-width:157.48; stroke-opacity:1; 
stroke-linecap:round; stroke-linejoin:round;">
<path d="M5529 5173
L5529 6529
" />
</g>
<g style="fill:#000000; fill-opacity:0.0; 
stroke:#000000; stroke-width:98.4252; stroke-opacity:1; 
stroke-linecap:round; stroke-linejoin:round;">
<path d="M2242 2529
L2029 2529
" />
</g>
<g style="fill:#000000; fill-opacity:0.0; 
stroke:#000000; stroke-width:157.48; stroke-opacity:1; 
stroke-linecap:round; stroke-linejoin:round;">
<path d="M2029 2529
L1529 3029
" />
</g>
<g style="fill:#000000; fill-opacity:0.0; 
stroke:#000000; stroke-width:98.4252; stroke-opacity:1; 
stroke-linecap:round; stroke-linejoin:round;">
<path d="M1529 4316
L2529 5316
" />
</g>
<g style="fill:#000000; fill-opacity:0.0; 
stroke:#000000; stroke-width:157.48; stroke-opacity:1; 
stroke-linecap:round; stroke-linejoin:round;">
<path d="M1529 3029
L1529 4316
" />
</g>
<g style="fill:#000000; fill-opacity:0.0; 
stroke:#000000; stroke-width:98.4252; stroke-opacity:1; 
stroke-linecap:round; stroke-linejoin:round;">
<path d="M2379 1529
L2379 1179
" />
<path d="M2379 1179
L3029 529
" />
</g>
<g style="fill:#000000; fill-opacity:0.0; 
stroke:#000000; stroke-width:157.48; stroke-opacity:1; 
stroke-linecap:round; stroke-linejoin:round;">
<path d="M5635 1135
L5635 1655
" />
<path d="M5029 529
L5635 1135
" />
<path d="M3029 529
L5029 529
" />
<path d="M2379 1529
L2379 2392
" />
</g>
<g style="fill:#000000; fill-opacity:0.0; 
stroke:#000000; stroke-width:98.4252; stroke-opacity:1; 
stroke-linecap:round; stroke-linejoin:round;">
<path d="M2379 2392
L2242 2529
" />
</g>
<g style="fill:#000000; fill-opacity:0.0; 
stroke:#000000; stroke-width:157.48; stroke-opacity:1; 
stroke-linecap:round; stroke-linejoin:round;">
<path d="M2529 5316
L2529 6529
" />
<path d="M6423 2029
L7639 2029
" />
<path d="M7639 2029
L8297 2687
" />
<path d="M6423 2029
L6423 2992
" />
<path d="M6423 2992
L5529 3885
" />
<path d="M4529 3742
L5385 3742
" />
</g>
<g style="fill:#000000; fill-opacity:0.0; 
stroke:#000000; stroke-width:98.4252; stroke-opacity:1; 
stroke-linecap:round; stroke-linejoin:round;">
<path d="M5385 3742
L5529 3885
" />
</g>
<g style="fill:#000000; fill-opacity:0.0; 
stroke:#000000; stroke-width:157.48; stroke-opacity:1; 
stroke-linecap:round; stroke-linejoin:round;">
<path d="M3529 5316
L3529 6529
" />
</g>
<g style="fill:#000000; fill-opacity:0.0; 
stroke:#000000; stroke-width:98.4252; stroke-opacity:1; 
stroke-linecap:round; stroke-linejoin:round;">
<path d="M4029 3029
L5009 3029
" />
<path d="M3529 3742
L3529 3529
" />
<path d="M3529 3529
L4029 3029
" />
<path d="M5009 3029
L5635 2403
" />
<path d="M2529 3742
L3529 3742
" />
</g>
<g style="fill:#000000; fill-opacity:0.0; 
stroke:#000000; stroke-width:157.48; stroke-opacity:1; 
stroke-linecap:round; stroke-linejoin:round;">
<path d="M4529 5316
L4529 6529
" />
</g>
<g style="fill:#000000; fill-opacity:0.0; 
stroke:#000000; stroke-width:787.402; stroke-opacity:1; 
stroke-linecap:round; stroke-linejoin:round;">
<path d="M17529 3092
L17529 1029
" />
<path d="M13120 2667
L17104 2667
" />
<path d="M17104 2667
L17529 3092
" />
<path d="M13100 7411
L17147 7411
" />
<path d="M17147 7411
L17529 7029
" />
<path d="M10029 1029
L10029 4029
" />
<path d="M10029 4029
L11029 5029
" />
<path d="M7529 5029
L11029 5029
" />
<path d="M11029 5029
L17498 5029
" />
</g>
<g style="fill:#000000; fill-opacity:0.0; 
stroke:#000000; stroke-width:98.4252; stroke-opacity:1; 
stroke-linecap:round; stroke-linejoin:round;">
<path d="M17498 5029
L17529 5061
" />
</g>
<g style="fill:#000000; fill-opacity:0.0; 
stroke:#000000; stroke-width:787.402; stroke-opacity:1; 
stroke-linecap:round; stroke-linejoin:round;">
<path d="M11998 1029
L13529 1029
" />
</g>
<g style="fill:#000000; fill-opacity:1.0; 
stroke:#000000; stroke-width:100; stroke-opacity:1; 
stroke-linecap:round; stroke-linejoin:round;">
<polyline style="fill-rule:evenodd;"
points="7979,1508
7763,1725
7639,1700
7180,1700
7176,1694
7093,1637
6994,1617
6246,1617
6153,1634
6068,1689
6034,1739
6000,1705
5488,1705
5488,1713
5388,1713
5388,1705
4877,1705
4814,1768
4814,1862
4853,1954
4923,2024
4937,2030
4887,2063
4830,2146
4810,2246
4810,2561
4827,2653
4876,2730
4465,2730
4465,2214
4448,2121
4393,2036
4309,1979
4227,1963
4234,1929
4234,1448
4814,1448
4814,1543
4877,1605
5388,1605
5388,1310
5488,1310
5488,1605
6000,1605
6062,1543
6062,1448
6024,1356
5954,1286
5862,1248
5551,1248
5488,1310
5388,1310
5326,1248
5015,1248
4923,1286
4853,1356
4814,1448
4234,1448
4234,1129
4216,1036
4162,951
4078,894
3979,874
3379,874
3286,892
3201,946
3144,1030
3124,1129
3124,1929
3142,2022
3195,2105
3188,2115
3168,2214
3168,2467
2905,2730
2885,2730
2885,2642
2823,2579
2292,2579
2292,2587
2192,2587
2192,2579
1660,2579
1598,2642
1598,2894
1636,2986
1706,3056
1711,3058
1711,4511
1734,4625
1799,4722
1817,4741
1915,4805
1968,4816
1944,4873
1944,5204
2007,5266
2479,5266
2479,5259
2579,5259
2579,5266
2587,5266
2587,5366
2579,5366
2579,5898
2609,5928
2579,5944
2579,6479
2587,6479
2587,6579
2579,6579
2579,7114
2670,7162
2677,7161
2730,7135
2730,7529
2753,7644
2817,7741
2915,7805
3029,7828
5029,7828
5144,7805
5241,7741
5508,7473
5797,7761
5903,7833
6029,7858
7287,7858
7679,8250
1326,8250
1327,8249
1580,8080
1749,7827
1809,7529
1749,7231
1580,6978
1327,6809
1029,6750
731,6809
478,6978
309,7231
309,7232
309,6672
1944,6672
2020,6889
2174,7061
2381,7161
2388,7162
2479,7114
2479,6579
2001,6579
1944,6672
309,6672
309,6387
1944,6387
2001,6479
2479,6479
2479,5944
2449,5928
2479,5898
2479,5366
2007,5366
1944,5429
1944,5760
1982,5852
2053,5922
2145,5960
2251,5960
2174,5997
2020,6169
1944,6387
309,6387
309,2164
1598,2164
1598,2417
1660,2479
2192,2479
2192,2471
2292,2471
2292,2479
2823,2479
2885,2417
2885,2164
2860,2102
2891,2071
2929,1979
2929,1642
2867,1579
2429,1579
2429,1587
2329,1587
2329,1579
1892,1579
1829,1642
1829,1964
1798,1964
1706,2002
1636,2072
1598,2164
309,2164
309,1326
309,1327
478,1580
731,1749
1029,1809
1327,1749
1580,1580
1749,1327
1799,1079
1829,1079
1829,1417
1892,1479
2329,1479
2329,942
2429,942
2429,1479
2867,1479
2929,1417
2929,1079
2891,987
2821,917
2729,879
2492,879
2429,942
2329,942
2267,879
2029,879
1937,917
1867,987
1829,1079
1799,1079
1809,1029
1749,731
1580,478
1327,309
1326,309
7979,309
7979,1508
" /> 
<polyline style="fill-rule:evenodd;"
points="20231,309
19978,478
19809,731
19750,1029
19809,1327
19978,1580
20231,1749
20529,1809
20827,1749
21080,1580
21249,1327
21309,1029
21249,731
21080,478
20827,309
20826,309
21750,309
21750,8250
20826,8250
20827,8249
21080,8080
21249,7827
21309,7529
21249,7231
21080,6978
20827,6809
20529,6750
20231,6809
19978,6978
19809,7231
19750,7529
19809,7827
19978,8080
20231,8249
20232,8250
19079,8250
19079,309
20232,309
20231,309
" /> 
<polyline style="fill-rule:evenodd;"
points="20613,7325
20685,7373
20733,7445
20750,7529
20733,7613
20685,7685
20613,7733
20529,7750
20445,7733
20373,7685
20325,7613
20309,7529
20325,7445
20373,7373
20445,7325
20529,7309
20613,7325
" /> 
<polyline style="fill-rule:evenodd;"
points="20613,825
20685,873
20733,945
20750,1029
20733,1113
20685,1185
20613,1233
20529,1250
20445,1233
20373,1185
20325,1113
20309,1029
20325,945
20373,873
20445,825
20529,809
20613,825
" /> 
</g>
<g style="fill:#FFFFFF; fill-opacity:1.0; 
stroke:#FFFFFF; stroke-width:100; stroke-opacity:1; 
stroke-linecap:round; stroke-linejoin:round;">
</g>
<g style="fill:#FFFFFF; fill-opacity:1.0; 
stroke:#FFFFFF; stroke-width:0; stroke-opacity:1; 
stroke-linecap:round; stroke-linejoin:round;">
<circle cx="5529.53" cy="6529.53" r="200" /> 
</g>
<g style="fill:#FFFFFF; fill-opacity:1.0; 
stroke:#FFFFFF; stroke-width:39.3701; stroke-opacity:1; 
stroke-linecap:round; stroke-linejoin:round;">
</g>
<g style="fill:#FFFFFF; fill-opacity:1.0; 
stroke:#FFFFFF; stroke-width:0; stroke-opacity:1; 
stroke-linecap:round; stroke-linejoin:round;">
<circle cx="4529.53" cy="6529.53" r="200" /> 
</g>
<g style="fill:#FFFFFF; fill-opacity:1.0; 
stroke:#FFFFFF; stroke-width:39.3701; stroke-opacity:1; 
stroke-linecap:round; stroke-linejoin:round;">
</g>
<g style="fill:#FFFFFF; fill-opacity:1.0; 
stroke:#FFFFFF; stroke-width:0; stroke-opacity:1; 
stroke-linecap:round; stroke-linejoin:round;">
<circle cx="3529.53" cy="6529.53" r="200" /> 
</g>
<g style="fill:#FFFFFF; fill-opacity:1.0; 
stroke:#FFFFFF; stroke-width:39.3701; stroke-opacity:1; 
stroke-linecap:round; stroke-linejoin:round;">
</g>
<g style="fill:#FFFFFF; fill-opacity:1.0; 
stroke:#FFFFFF; stroke-width:0; stroke-opacity:1; 
stroke-linecap:round; stroke-linejoin:round;">
<circle cx="2529.53" cy="6529.53" r="200" /> 
</g>
<g style="fill:#FFFFFF; fill-opacity:1.0; 
stroke:#FFFFFF; stroke-width:39.3701; stroke-opacity:1; 
stroke-linecap:round; stroke-linejoin:round;">
</g>
<g style="fill:#FFFFFF; fill-opacity:1.0; 
stroke:#FFFFFF; stroke-width:0; stroke-opacity:1; 
stroke-linecap:round; stroke-linejoin:round;">
<circle cx="8297.24" cy="7411.42" r="196.85" /> 
</g>
<g style="fill:#FFFFFF; fill-opacity:1.0; 
stroke:#FFFFFF; stroke-width:39.3701; stroke-opacity:1; 
stroke-linecap:round; stroke-linejoin:round;">
</g>
<g style="fill:#FFFFFF; fill-opacity:1.0; 
stroke:#FFFFFF; stroke-width:0; stroke-opacity:1; 
stroke-linecap:round; stroke-linejoin:round;">
<circle cx="13100.4" cy="7411.42" r="255.906" /> 
</g>
<g style="fill:#FFFFFF; fill-opacity:1.0; 
stroke:#FFFFFF; stroke-width:39.3701; stroke-opacity:1; 
stroke-linecap:round; stroke-linejoin:round;">
</g>
<g style="fill:#FFFFFF; fill-opacity:1.0; 
stroke:#FFFFFF; stroke-width:0; stroke-opacity:1; 
stroke-linecap:round; stroke-linejoin:round;">
<circle cx="13120.1" cy="2667.32" r="255.906" /> 
</g>
<g style="fill:#FFFFFF; fill-opacity:1.0; 
stroke:#FFFFFF; stroke-width:39.3701; stroke-opacity:1; 
stroke-linecap:round; stroke-linejoin:round;">
</g>
<g style="fill:#FFFFFF; fill-opacity:1.0; 
stroke:#FFFFFF; stroke-width:0; stroke-opacity:1; 
stroke-linecap:round; stroke-linejoin:round;">
<circle cx="8297.24" cy="2687.01" r="196.85" /> 
</g>
<g style="fill:#FFFFFF; fill-opacity:1.0; 
stroke:#FFFFFF; stroke-width:39.3701; stroke-opacity:1; 
stroke-linecap:round; stroke-linejoin:round;">
</g>
<g style="fill:#FFFFFF; fill-opacity:1.0; 
stroke:#FFFFFF; stroke-width:0; stroke-opacity:1; 
stroke-linecap:round; stroke-linejoin:round;">
<circle cx="7529.53" cy="5029.53" r="255.906" /> 
</g>
<g style="fill:#FFFFFF; fill-opacity:1.0; 
stroke:#FFFFFF; stroke-width:39.3701; stroke-opacity:1; 
stroke-linecap:round; stroke-linejoin:round;">
</g>
<g style="fill:#FFFFFF; fill-opacity:1.0; 
stroke:#FFFFFF; stroke-width:0; stroke-opacity:1; 
stroke-linecap:round; stroke-linejoin:round;">
<circle cx="17529.5" cy="3092.52" r="255.906" /> 
</g>
<g style="fill:#FFFFFF; fill-opacity:1.0; 
stroke:#FFFFFF; stroke-width:39.3701; stroke-opacity:1; 
stroke-linecap:round; stroke-linejoin:round;">
</g>
<g style="fill:#FFFFFF; fill-opacity:1.0; 
stroke:#FFFFFF; stroke-width:0; stroke-opacity:1; 
stroke-linecap:round; stroke-linejoin:round;">
<circle cx="17529.5" cy="7029.53" r="255.906" /> 
</g>
<g style="fill:#FFFFFF; fill-opacity:1.0; 
stroke:#FFFFFF; stroke-width:39.3701; stroke-opacity:1; 
stroke-linecap:round; stroke-linejoin:round;">
</g>
<g style="fill:#FFFFFF; fill-opacity:1.0; 
stroke:#FFFFFF; stroke-width:0; stroke-opacity:1; 
stroke-linecap:round; stroke-linejoin:round;">
<circle cx="17529.5" cy="5061.02" r="255.906" /> 
</g>
<g style="fill:#FFFFFF; fill-opacity:1.0; 
stroke:#FFFFFF; stroke-width:39.3701; stroke-opacity:1; 
stroke-linecap:round; stroke-linejoin:round;">
</g>
<g style="fill:#FFFFFF; fill-opacity:1.0; 
stroke:#FFFFFF; stroke-width:0; stroke-opacity:1; 
stroke-linecap:round; stroke-linejoin:round;">
<circle cx="10029.5" cy="1029.53" r="157.48" /> 
</g>
<g style="fill:#FFFFFF; fill-opacity:1.0; 
stroke:#FFFFFF; stroke-width:39.3701; stroke-opacity:1; 
stroke-linecap:round; stroke-linejoin:round;">
</g>
<g style="fill:#FFFFFF; fill-opacity:1.0; 
stroke:#FFFFFF; stroke-width:0; stroke-opacity:1; 
stroke-linecap:round; stroke-linejoin:round;">
<circle cx="11998" cy="1029.53" r="157.48" /> 
</g>
<g style="fill:#FFFFFF; fill-opacity:1.0; 
stroke:#FFFFFF; stroke-width:39.3701; stroke-opacity:1; 
stroke-linecap:round; stroke-linejoin:round;">
</g>
<g style="fill:#FFFFFF; fill-opacity:1.0; 
stroke:#FFFFFF; stroke-width:0; stroke-opacity:1; 
stroke-linecap:round; stroke-linejoin:round;">
<circle cx="13529.5" cy="1029.53" r="197" /> 
</g>
<g style="fill:#FFFFFF; fill-opacity:1.0; 
stroke:#FFFFFF; stroke-width:39.3701; stroke-opacity:1; 
stroke-linecap:round; stroke-linejoin:round;">
</g>
<g style="fill:#FFFFFF; fill-opacity:1.0; 
stroke:#FFFFFF; stroke-width:0; stroke-opacity:1; 
stroke-linecap:round; stroke-linejoin:round;">
<circle cx="17529.5" cy="1029.53" r="197" /> 
</g>
<g style="fill:#FFFFFF; fill-opacity:1.0; 
stroke:#FFFFFF; stroke-width:39.3701; stroke-opacity:1; 
stroke-linecap:round; stroke-linejoin:round;">
</g>
<g style="fill:#000000; fill-opacity:1.0; 
stroke:#000000; stroke-width:39.3701; stroke-opacity:1; 
stroke-linecap:round; stroke-linejoin:round;">
</g>
<g style="fill:#000000; fill-opacity:1.0; 
stroke:#000000; stroke-width:59.0551; stroke-opacity:1; 
stroke-linecap:round; stroke-linejoin:round;">
</g>
<g style="fill:#000000; fill-opacity:0.0; 
stroke:#000000; stroke-width:59.0551; stroke-opacity:1; 
stroke-linecap:round; stroke-linejoin:round;">
<circle cx="20529.5" cy="1029.53" r="500" /> 
<circle cx="20529.5" cy="7529.53" r="500" /> 
<circle cx="1029.53" cy="7529.53" r="500" /> 
<circle cx="1029.53" cy="1029.53" r="500" /> 
<path d="M29 29
L29 8529
" />
<path d="M22029 29
L29 29
" />
<path d="M22029 8529
L22029 29
" />
<path d="M29 8529
L22029 8529
" />
</g> 
</svg>
