%TF.GenerationSoftware,KiCad,Pcbnew,(6.0.10)*%
%TF.CreationDate,2023-04-08T13:34:01+03:00*%
%TF.ProjectId,DelSol_PSU,44656c53-6f6c-45f5-9053-552e6b696361,rev?*%
%TF.SameCoordinates,Original*%
%TF.FileFunction,Soldermask,Top*%
%TF.FilePolarity,Negative*%
%FSLAX46Y46*%
G04 Gerber Fmt 4.6, Leading zero omitted, Abs format (unit mm)*
G04 Created by KiCad (PCBNEW (6.0.10)) date 2023-04-08 13:34:01*
%MOMM*%
%LPD*%
G01*
G04 APERTURE LIST*
G04 Aperture macros list*
%AMRoundRect*
0 Rectangle with rounded corners*
0 $1 Rounding radius*
0 $2 $3 $4 $5 $6 $7 $8 $9 X,Y pos of 4 corners*
0 Add a 4 corners polygon primitive as box body*
4,1,4,$2,$3,$4,$5,$6,$7,$8,$9,$2,$3,0*
0 Add four circle primitives for the rounded corners*
1,1,$1+$1,$2,$3*
1,1,$1+$1,$4,$5*
1,1,$1+$1,$6,$7*
1,1,$1+$1,$8,$9*
0 Add four rect primitives between the rounded corners*
20,1,$1+$1,$2,$3,$4,$5,0*
20,1,$1+$1,$4,$5,$6,$7,0*
20,1,$1+$1,$6,$7,$8,$9,0*
20,1,$1+$1,$8,$9,$2,$3,0*%
G04 Aperture macros list end*
%ADD10R,1.700000X1.700000*%
%ADD11O,1.700000X1.700000*%
%ADD12R,2.000000X2.000000*%
%ADD13C,3.200000*%
%ADD14R,2.400000X2.400000*%
%ADD15C,2.400000*%
%ADD16O,2.000000X2.000000*%
%ADD17RoundRect,0.250001X-0.462499X-0.624999X0.462499X-0.624999X0.462499X0.624999X-0.462499X0.624999X0*%
%ADD18C,1.800000*%
%ADD19O,2.400000X2.400000*%
%ADD20C,1.600000*%
%ADD21O,1.600000X1.600000*%
%ADD22RoundRect,0.250000X0.625000X-0.400000X0.625000X0.400000X-0.625000X0.400000X-0.625000X-0.400000X0*%
%ADD23O,3.780000X2.600000*%
%ADD24C,1.400000*%
%ADD25RoundRect,0.250000X-0.400000X-0.625000X0.400000X-0.625000X0.400000X0.625000X-0.400000X0.625000X0*%
%ADD26RoundRect,0.500000X0.900000X-0.500000X0.900000X0.500000X-0.900000X0.500000X-0.900000X-0.500000X0*%
%ADD27O,2.800000X2.000000*%
%ADD28R,1.905000X2.000000*%
%ADD29O,1.905000X2.000000*%
G04 APERTURE END LIST*
D10*
X147305000Y-53770000D03*
D11*
X144765000Y-53770000D03*
X142225000Y-53770000D03*
D12*
X53340000Y-86360000D03*
D10*
X147305000Y-58850000D03*
D11*
X144765000Y-58850000D03*
X142225000Y-58850000D03*
D13*
X22860000Y-87630000D03*
D12*
X58420000Y-86360000D03*
D14*
X98425000Y-82745000D03*
D15*
X98425000Y-87745000D03*
D14*
X114300000Y-52265000D03*
D15*
X114300000Y-57265000D03*
D13*
X148590000Y-87630000D03*
D14*
X114300000Y-82745000D03*
D15*
X114300000Y-87745000D03*
D12*
X48660000Y-43360000D03*
X81280000Y-67280000D03*
D16*
X81280000Y-72280000D03*
X86280000Y-72280000D03*
X86280000Y-67280000D03*
D12*
X68660000Y-48360000D03*
X68660000Y-43360000D03*
D17*
X128052500Y-55880000D03*
X131027500Y-55880000D03*
D18*
X31810000Y-33590000D03*
X39310000Y-34990000D03*
D15*
X83820000Y-88900000D03*
D19*
X88900000Y-88900000D03*
D10*
X129540000Y-60960000D03*
D11*
X132080000Y-60960000D03*
D10*
X142240000Y-43180000D03*
D11*
X142240000Y-40640000D03*
X142240000Y-38100000D03*
D12*
X46990000Y-86360000D03*
D17*
X128052500Y-68580000D03*
X131027500Y-68580000D03*
D20*
X38100000Y-39530000D03*
D21*
X38100000Y-59530000D03*
D10*
X147305000Y-69010000D03*
D11*
X144765000Y-69010000D03*
X142225000Y-69010000D03*
D10*
X142240000Y-81280000D03*
D11*
X142240000Y-83820000D03*
X142240000Y-86360000D03*
D15*
X83820000Y-81280000D03*
D19*
X88900000Y-81280000D03*
D20*
X30480000Y-39530000D03*
D21*
X30480000Y-59530000D03*
D22*
X124460000Y-72670000D03*
X124460000Y-69570000D03*
D15*
X83780000Y-43180000D03*
D19*
X88860000Y-43180000D03*
D15*
X83820000Y-35560000D03*
D19*
X88900000Y-35560000D03*
D13*
X22860000Y-36830000D03*
D10*
X147305000Y-48690000D03*
D11*
X144765000Y-48690000D03*
X142225000Y-48690000D03*
D23*
X132080000Y-78740000D03*
D10*
X129540000Y-64770000D03*
D11*
X132080000Y-64770000D03*
D12*
X39370000Y-86360000D03*
D24*
X91440000Y-63266000D03*
X91440000Y-60726000D03*
D12*
X68660000Y-58360000D03*
D13*
X148590000Y-36830000D03*
D10*
X147305000Y-63930000D03*
D11*
X144765000Y-63930000D03*
X142225000Y-63930000D03*
D25*
X134060000Y-55880000D03*
X137160000Y-55880000D03*
D14*
X114300000Y-67094785D03*
D15*
X114300000Y-72094785D03*
D26*
X30480000Y-79470000D03*
X30480000Y-86740000D03*
D27*
X30480000Y-63120000D03*
X30480000Y-70390000D03*
D14*
X114300000Y-37025000D03*
D15*
X114300000Y-42025000D03*
D28*
X134620000Y-73660000D03*
D29*
X132080000Y-73660000D03*
X129540000Y-73660000D03*
D23*
X132080000Y-45720000D03*
D28*
X129540000Y-50800000D03*
D29*
X132080000Y-50800000D03*
X134620000Y-50800000D03*
D10*
X147320000Y-73660000D03*
D11*
X144780000Y-73660000D03*
X142240000Y-73660000D03*
D12*
X68660000Y-63360000D03*
D14*
X98425000Y-37025000D03*
D15*
X98425000Y-42025000D03*
D14*
X98425000Y-52265000D03*
D15*
X98425000Y-57265000D03*
D14*
X98425000Y-67094785D03*
D15*
X98425000Y-72094785D03*
D12*
X48660000Y-63600000D03*
M02*
