<?xml version="1.0" standalone="no"?>
 <!DOCTYPE svg PUBLIC "-//W3C//DTD SVG 1.1//EN" 
 "http://www.w3.org/Graphics/SVG/1.1/DTD/svg11.dtd"> 
<svg xmlns="http://www.w3.org/2000/svg" version="1.1" 
    width="9.90346cm" height="4.80314cm" viewBox="0 0 38990 18910 ">
<title>SVG Picture created as radar_02-brd.svg date 2017/01/28 16:21:54 </title>
  <desc>Picture generated by PCBNEW </desc>
<g style="fill:#000000; fill-opacity:1;stroke:#000000; stroke-opacity:1;
stroke-linecap:round; stroke-linejoin:round; "
 transform="translate(0 0) scale(1 1)">
</g>
<g style="fill:#000000; fill-opacity:0.0; 
stroke:#000000; stroke-width:-0.000393701; stroke-opacity:1; 
stroke-linecap:round; stroke-linejoin:round;">
</g>
<g style="fill:#000000; fill-opacity:1.0; 
stroke:#000000; stroke-width:0; stroke-opacity:1; 
stroke-linecap:round; stroke-linejoin:round;">
<circle cx="7572.83" cy="16209.6" r="300" /> 
</g>
<g style="fill:#000000; fill-opacity:1.0; 
stroke:#000000; stroke-width:39.3701; stroke-opacity:1; 
stroke-linecap:round; stroke-linejoin:round;">
</g>
<g style="fill:#000000; fill-opacity:1.0; 
stroke:#000000; stroke-width:0; stroke-opacity:1; 
stroke-linecap:round; stroke-linejoin:round;">
<circle cx="9572.83" cy="16209.6" r="300" /> 
</g>
<g style="fill:#000000; fill-opacity:1.0; 
stroke:#000000; stroke-width:39.3701; stroke-opacity:1; 
stroke-linecap:round; stroke-linejoin:round;">
</g>
<g style="fill:#000000; fill-opacity:1.0; 
stroke:#000000; stroke-width:0; stroke-opacity:1; 
stroke-linecap:round; stroke-linejoin:round;">
<circle cx="9572.83" cy="2709.6" r="300" /> 
</g>
<g style="fill:#000000; fill-opacity:1.0; 
stroke:#000000; stroke-width:39.3701; stroke-opacity:1; 
stroke-linecap:round; stroke-linejoin:round;">
</g>
<g style="fill:#000000; fill-opacity:1.0; 
stroke:#000000; stroke-width:0; stroke-opacity:1; 
stroke-linecap:round; stroke-linejoin:round;">
<circle cx="11572.8" cy="2709.6" r="300" /> 
</g>
<g style="fill:#000000; fill-opacity:1.0; 
stroke:#000000; stroke-width:39.3701; stroke-opacity:1; 
stroke-linecap:round; stroke-linejoin:round;">
</g>
<g style="fill:#000000; fill-opacity:1.0; 
stroke:#000000; stroke-width:0; stroke-opacity:1; 
stroke-linecap:round; stroke-linejoin:round;">
<circle cx="23572.8" cy="16209.6" r="300" /> 
</g>
<g style="fill:#000000; fill-opacity:1.0; 
stroke:#000000; stroke-width:39.3701; stroke-opacity:1; 
stroke-linecap:round; stroke-linejoin:round;">
</g>
<g style="fill:#000000; fill-opacity:1.0; 
stroke:#000000; stroke-width:0; stroke-opacity:1; 
stroke-linecap:round; stroke-linejoin:round;">
<circle cx="25572.8" cy="16209.6" r="300" /> 
</g>
<g style="fill:#000000; fill-opacity:1.0; 
stroke:#000000; stroke-width:39.3701; stroke-opacity:1; 
stroke-linecap:round; stroke-linejoin:round;">
</g>
<g style="fill:#000000; fill-opacity:1.0; 
stroke:#000000; stroke-width:0; stroke-opacity:1; 
stroke-linecap:round; stroke-linejoin:round;">
<circle cx="23572.8" cy="2709.6" r="300" /> 
</g>
<g style="fill:#000000; fill-opacity:1.0; 
stroke:#000000; stroke-width:39.3701; stroke-opacity:1; 
stroke-linecap:round; stroke-linejoin:round;">
</g>
<g style="fill:#000000; fill-opacity:1.0; 
stroke:#000000; stroke-width:0; stroke-opacity:1; 
stroke-linecap:round; stroke-linejoin:round;">
<circle cx="25572.8" cy="2709.6" r="300" /> 
</g>
<g style="fill:#000000; fill-opacity:1.0; 
stroke:#000000; stroke-width:39.3701; stroke-opacity:1; 
stroke-linecap:round; stroke-linejoin:round;">
</g>
<g style="fill:#000000; fill-opacity:1.0; 
stroke:#000000; stroke-width:0; stroke-opacity:1; 
stroke-linecap:round; stroke-linejoin:round;">
<polyline style="fill-rule:evenodd;"
points="33122,7509
33122,9409
32022,9409
32022,7509
33122,7509
" /> 
<polyline style="fill-rule:evenodd;"
points="35622,7509
35622,9409
34522,9409
34522,7509
35622,7509
" /> 
<polyline style="fill-rule:evenodd;"
points="22272,14309
22272,15109
21672,15109
21672,14309
22272,14309
" /> 
<polyline style="fill-rule:evenodd;"
points="20972,14309
20972,15109
20372,15109
20372,14309
20972,14309
" /> 
<polyline style="fill-rule:evenodd;"
points="8622,14109
8622,13309
9222,13309
9222,14109
8622,14109
" /> 
<polyline style="fill-rule:evenodd;"
points="9922,14109
9922,13309
10522,13309
10522,14109
9922,14109
" /> 
<polyline style="fill-rule:evenodd;"
points="8141,12274
8141,11644
8929,11644
8929,12274
8141,12274
" /> 
<polyline style="fill-rule:evenodd;"
points="9716,12274
9716,11644
10503,11644
10503,12274
9716,12274
" /> 
<polyline style="fill-rule:evenodd;"
points="23391,13524
23391,12894
24179,12894
24179,13524
23391,13524
" /> 
<polyline style="fill-rule:evenodd;"
points="24966,13524
24966,12894
25753,12894
25753,13524
24966,13524
" /> 
<polyline style="fill-rule:evenodd;"
points="30887,14140
30257,14140
30257,13353
30887,13353
30887,14140
" /> 
<polyline style="fill-rule:evenodd;"
points="30887,12565
30257,12565
30257,11778
30887,11778
30887,12565
" /> 
<polyline style="fill-rule:evenodd;"
points="17372,15109
17372,14309
17972,14309
17972,15109
17372,15109
" /> 
<polyline style="fill-rule:evenodd;"
points="18672,15109
18672,14309
19272,14309
19272,15109
18672,15109
" /> 
<polyline style="fill-rule:evenodd;"
points="8141,7774
8141,7144
8929,7144
8929,7774
8141,7774
" /> 
<polyline style="fill-rule:evenodd;"
points="9716,7774
9716,7144
10503,7144
10503,7774
9716,7774
" /> 
<polyline style="fill-rule:evenodd;"
points="32422,15259
33222,15259
33222,15859
32422,15859
32422,15259
" /> 
<polyline style="fill-rule:evenodd;"
points="32422,16559
33222,16559
33222,17159
32422,17159
32422,16559
" /> 
<polyline style="fill-rule:evenodd;"
points="9522,10659
9522,8759
10622,8759
10622,10659
9522,10659
" /> 
<polyline style="fill-rule:evenodd;"
points="7022,10659
7022,8759
8122,8759
8122,10659
7022,10659
" /> 
<polyline style="fill-rule:evenodd;"
points="18137,10390
17507,10390
17507,9603
18137,9603
18137,10390
" /> 
<polyline style="fill-rule:evenodd;"
points="18137,8815
17507,8815
17507,8028
18137,8028
18137,8815
" /> 
<polyline style="fill-rule:evenodd;"
points="18922,8259
19722,8259
19722,8859
18922,8859
18922,8259
" /> 
<polyline style="fill-rule:evenodd;"
points="18922,9559
19722,9559
19722,10159
18922,10159
18922,9559
" /> 
<polyline style="fill-rule:evenodd;"
points="33141,13274
33141,12644
33929,12644
33929,13274
33141,13274
" /> 
<polyline style="fill-rule:evenodd;"
points="34716,13274
34716,12644
35503,12644
35503,13274
34716,13274
" /> 
<polyline style="fill-rule:evenodd;"
points="35022,10059
35022,10859
34422,10859
34422,10059
35022,10059
" /> 
<polyline style="fill-rule:evenodd;"
points="33722,10059
33722,10859
33122,10859
33122,10059
33722,10059
" /> 
<polyline style="fill-rule:evenodd;"
points="26122,8859
26122,8059
26722,8059
26722,8859
26122,8859
" /> 
<polyline style="fill-rule:evenodd;"
points="27422,8859
27422,8059
28022,8059
28022,8859
27422,8859
" /> 
<polyline style="fill-rule:evenodd;"
points="30522,9309
30522,10109
29922,10109
29922,9309
30522,9309
" /> 
<polyline style="fill-rule:evenodd;"
points="29222,9309
29222,10109
28622,10109
28622,9309
29222,9309
" /> 
<polyline style="fill-rule:evenodd;"
points="30887,6640
30257,6640
30257,5853
30887,5853
30887,6640
" /> 
<polyline style="fill-rule:evenodd;"
points="30887,5065
30257,5065
30257,4278
30887,4278
30887,5065
" /> 
<polyline style="fill-rule:evenodd;"
points="3127,8254
3127,7664
3718,7664
3718,8254
3127,8254
" /> 
<polyline style="fill-rule:evenodd;"
points="4427,8254
4427,7664
5017,7664
5017,8254
4427,8254
" /> 
<polyline style="fill-rule:evenodd;"
points="34929,16065
35716,16065
35716,16853
34929,16853
34929,16065
" /> 
<circle cx="34322.8" cy="16459.6" r="393.701" /> 
</g>
<g style="fill:#000000; fill-opacity:1.0; 
stroke:#000000; stroke-width:39.3701; stroke-opacity:1; 
stroke-linecap:round; stroke-linejoin:round;">
</g>
<g style="fill:#000000; fill-opacity:1.0; 
stroke:#000000; stroke-width:787; stroke-opacity:1; 
stroke-linecap:round; stroke-linejoin:round;">
</g>
<g style="fill:#000000; fill-opacity:0.0; 
stroke:#000000; stroke-width:787; stroke-opacity:1; 
stroke-linecap:round; stroke-linejoin:round;">
<path d="M3572 16209
L3572 16209
" />
</g>
<g style="fill:#000000; fill-opacity:0.0; 
stroke:#000000; stroke-width:0; stroke-opacity:1; 
stroke-linecap:round; stroke-linejoin:round;">
</g>
<g style="fill:#000000; fill-opacity:1.0; 
stroke:#000000; stroke-width:0; stroke-opacity:1; 
stroke-linecap:round; stroke-linejoin:round;">
<polyline style="fill-rule:evenodd;"
points="3179,14816
3966,14816
3966,15603
3179,15603
3179,14816
" /> 
</g>
<g style="fill:#000000; fill-opacity:1.0; 
stroke:#000000; stroke-width:787; stroke-opacity:1; 
stroke-linecap:round; stroke-linejoin:round;">
</g>
<g style="fill:#000000; fill-opacity:0.0; 
stroke:#000000; stroke-width:787; stroke-opacity:1; 
stroke-linecap:round; stroke-linejoin:round;">
<path d="M3572 3709
L3572 3709
" />
</g>
<g style="fill:#000000; fill-opacity:0.0; 
stroke:#000000; stroke-width:0; stroke-opacity:1; 
stroke-linecap:round; stroke-linejoin:round;">
</g>
<g style="fill:#000000; fill-opacity:1.0; 
stroke:#000000; stroke-width:0; stroke-opacity:1; 
stroke-linecap:round; stroke-linejoin:round;">
<polyline style="fill-rule:evenodd;"
points="3179,2316
3966,2316
3966,3103
3179,3103
3179,2316
" /> 
<polyline style="fill-rule:evenodd;"
points="21003,15874
21003,16544
20216,16544
20216,15874
21003,15874
" /> 
<polyline style="fill-rule:evenodd;"
points="19429,15874
19429,16544
18641,16544
18641,15874
19429,15874
" /> 
<polyline style="fill-rule:evenodd;"
points="23391,12044
23391,11374
24179,11374
24179,12044
23391,12044
" /> 
<polyline style="fill-rule:evenodd;"
points="24966,12044
24966,11374
25753,11374
25753,12044
24966,12044
" /> 
<polyline style="fill-rule:evenodd;"
points="17141,13544
17141,12874
17929,12874
17929,13544
17141,13544
" /> 
<polyline style="fill-rule:evenodd;"
points="18716,13544
18716,12874
19503,12874
19503,13544
18716,13544
" /> 
<polyline style="fill-rule:evenodd;"
points="22391,8294
22391,7624
23179,7624
23179,8294
22391,8294
" /> 
<polyline style="fill-rule:evenodd;"
points="23966,8294
23966,7624
24753,7624
24753,8294
23966,8294
" /> 
<polyline style="fill-rule:evenodd;"
points="21488,11278
22157,11278
22157,12065
21488,12065
21488,11278
" /> 
<polyline style="fill-rule:evenodd;"
points="21488,12853
22157,12853
22157,13640
21488,13640
21488,12853
" /> 
<polyline style="fill-rule:evenodd;"
points="2641,6794
2641,6124
3429,6124
3429,6794
2641,6794
" /> 
<polyline style="fill-rule:evenodd;"
points="4216,6794
4216,6124
5003,6124
5003,6794
4216,6794
" /> 
<polyline style="fill-rule:evenodd;"
points="21157,10140
20488,10140
20488,9353
21157,9353
21157,10140
" /> 
<polyline style="fill-rule:evenodd;"
points="21157,8565
20488,8565
20488,7778
21157,7778
21157,8565
" /> 
<polyline style="fill-rule:evenodd;"
points="33141,12044
33141,11374
33929,11374
33929,12044
33141,12044
" /> 
<polyline style="fill-rule:evenodd;"
points="34716,12044
34716,11374
35503,11374
35503,12044
34716,12044
" /> 
<polyline style="fill-rule:evenodd;"
points="25391,6294
25391,5624
26179,5624
26179,6294
25391,6294
" /> 
<polyline style="fill-rule:evenodd;"
points="26966,6294
26966,5624
27753,5624
27753,6294
26966,6294
" /> 
<polyline style="fill-rule:evenodd;"
points="31003,8124
31003,8794
30216,8794
30216,8124
31003,8124
" /> 
<polyline style="fill-rule:evenodd;"
points="29429,8124
29429,8794
28641,8794
28641,8124
29429,8124
" /> 
<polyline style="fill-rule:evenodd;"
points="27753,4124
27753,4794
26966,4794
26966,4124
27753,4124
" /> 
<polyline style="fill-rule:evenodd;"
points="26179,4124
26179,4794
25391,4794
25391,4124
26179,4124
" /> 
<polyline style="fill-rule:evenodd;"
points="33141,7044
33141,6374
33929,6374
33929,7044
33141,7044
" /> 
<polyline style="fill-rule:evenodd;"
points="34716,7044
34716,6374
35503,6374
35503,7044
34716,7044
" /> 
<polyline style="fill-rule:evenodd;"
points="33141,2794
33141,2124
33929,2124
33929,2794
33141,2794
" /> 
<polyline style="fill-rule:evenodd;"
points="34716,2794
34716,2124
35503,2124
35503,2794
34716,2794
" /> 
<polyline style="fill-rule:evenodd;"
points="35503,14124
35503,14794
34716,14794
34716,14124
35503,14124
" /> 
<polyline style="fill-rule:evenodd;"
points="33929,14124
33929,14794
33141,14794
33141,14124
33929,14124
" /> 
<circle cx="31322.8" cy="16959.6" r="297.244" /> 
</g>
<g style="fill:#000000; fill-opacity:1.0; 
stroke:#000000; stroke-width:39.3701; stroke-opacity:1; 
stroke-linecap:round; stroke-linejoin:round;">
</g>
<g style="fill:#000000; fill-opacity:1.0; 
stroke:#000000; stroke-width:0; stroke-opacity:1; 
stroke-linecap:round; stroke-linejoin:round;">
<polyline style="fill-rule:evenodd;"
points="29025,17256
29025,16662
29620,16662
29620,17256
29025,17256
" /> 
<circle cx="30322.8" cy="16959.6" r="297.244" /> 
</g>
<g style="fill:#000000; fill-opacity:1.0; 
stroke:#000000; stroke-width:39.3701; stroke-opacity:1; 
stroke-linecap:round; stroke-linejoin:round;">
</g>
<g style="fill:#000000; fill-opacity:1.0; 
stroke:#000000; stroke-width:0; stroke-opacity:1; 
stroke-linecap:round; stroke-linejoin:round;">
<circle cx="31072.8" cy="2209.6" r="297.244" /> 
</g>
<g style="fill:#000000; fill-opacity:1.0; 
stroke:#000000; stroke-width:39.3701; stroke-opacity:1; 
stroke-linecap:round; stroke-linejoin:round;">
</g>
<g style="fill:#000000; fill-opacity:1.0; 
stroke:#000000; stroke-width:0; stroke-opacity:1; 
stroke-linecap:round; stroke-linejoin:round;">
<polyline style="fill-rule:evenodd;"
points="28775,2506
28775,1912
29370,1912
29370,2506
28775,2506
" /> 
<circle cx="30072.8" cy="2209.6" r="297.244" /> 
</g>
<g style="fill:#000000; fill-opacity:1.0; 
stroke:#000000; stroke-width:39.3701; stroke-opacity:1; 
stroke-linecap:round; stroke-linejoin:round;">
</g>
<g style="fill:#000000; fill-opacity:1.0; 
stroke:#000000; stroke-width:0; stroke-opacity:1; 
stroke-linecap:round; stroke-linejoin:round;">
<polyline style="fill-rule:evenodd;"
points="28757,11524
28757,10894
29387,10894
29387,11524
28757,11524
" /> 
</g>
<g style="fill:#000000; fill-opacity:1.0; 
stroke:#000000; stroke-width:629.921; stroke-opacity:1; 
stroke-linecap:round; stroke-linejoin:round;">
</g>
<g style="fill:#000000; fill-opacity:0.0; 
stroke:#000000; stroke-width:629.921; stroke-opacity:1; 
stroke-linecap:round; stroke-linejoin:round;">
<path d="M32072 14209
L32072 14209
" />
<path d="M29072 12209
L29072 12209
" />
<path d="M32072 13209
L32072 13209
" />
<path d="M29072 13209
L29072 13209
" />
<path d="M32072 12209
L32072 12209
" />
<path d="M29072 14209
L29072 14209
" />
<path d="M32072 11209
L32072 11209
" />
</g>
<g style="fill:#000000; fill-opacity:0.0; 
stroke:#000000; stroke-width:551.181; stroke-opacity:1; 
stroke-linecap:round; stroke-linejoin:round;">
<path d="M3356 11459
L3789 11459
" />
<path d="M3356 12247
L3789 12247
" />
<path d="M3356 10672
L3789 10672
" />
</g>
<g style="fill:#000000; fill-opacity:0.0; 
stroke:#000000; stroke-width:0; stroke-opacity:1; 
stroke-linecap:round; stroke-linejoin:round;">
</g>
<g style="fill:#000000; fill-opacity:1.0; 
stroke:#000000; stroke-width:0; stroke-opacity:1; 
stroke-linecap:round; stroke-linejoin:round;">
<polyline style="fill-rule:evenodd;"
points="28757,4024
28757,3394
29387,3394
29387,4024
28757,4024
" /> 
</g>
<g style="fill:#000000; fill-opacity:1.0; 
stroke:#000000; stroke-width:629.921; stroke-opacity:1; 
stroke-linecap:round; stroke-linejoin:round;">
</g>
<g style="fill:#000000; fill-opacity:0.0; 
stroke:#000000; stroke-width:629.921; stroke-opacity:1; 
stroke-linecap:round; stroke-linejoin:round;">
<path d="M32072 6709
L32072 6709
" />
<path d="M29072 4709
L29072 4709
" />
<path d="M32072 5709
L32072 5709
" />
<path d="M29072 5709
L29072 5709
" />
<path d="M32072 4709
L32072 4709
" />
<path d="M29072 6709
L29072 6709
" />
<path d="M32072 3709
L32072 3709
" />
</g>
<g style="fill:#000000; fill-opacity:0.0; 
stroke:#000000; stroke-width:0; stroke-opacity:1; 
stroke-linecap:round; stroke-linejoin:round;">
</g>
<g style="fill:#000000; fill-opacity:1.0; 
stroke:#000000; stroke-width:0; stroke-opacity:1; 
stroke-linecap:round; stroke-linejoin:round;">
<polyline style="fill-rule:evenodd;"
points="6041,11432
7104,11432
7104,12809
6041,12809
6041,11432
" /> 
<polyline style="fill-rule:evenodd;"
points="6041,14109
7104,14109
7104,15487
6041,15487
6041,14109
" /> 
<polyline style="fill-rule:evenodd;"
points="36541,7182
37604,7182
37604,8559
36541,8559
36541,7182
" /> 
<polyline style="fill-rule:evenodd;"
points="36541,9859
37604,9859
37604,11237
36541,11237
36541,9859
" /> 
<polyline style="fill-rule:evenodd;"
points="37604,6737
36541,6737
36541,5359
37604,5359
37604,6737
" /> 
<polyline style="fill-rule:evenodd;"
points="37604,4059
36541,4059
36541,2682
37604,2682
37604,4059
" /> 
<circle cx="22822.8" cy="10209.6" r="295.276" /> 
</g>
<g style="fill:#000000; fill-opacity:1.0; 
stroke:#000000; stroke-width:39.3701; stroke-opacity:1; 
stroke-linecap:round; stroke-linejoin:round;">
</g>
<g style="fill:#000000; fill-opacity:1.0; 
stroke:#000000; stroke-width:0; stroke-opacity:1; 
stroke-linecap:round; stroke-linejoin:round;">
<circle cx="30572.8" cy="7709.6" r="295.276" /> 
</g>
<g style="fill:#000000; fill-opacity:1.0; 
stroke:#000000; stroke-width:39.3701; stroke-opacity:1; 
stroke-linecap:round; stroke-linejoin:round;">
</g>
<g style="fill:#000000; fill-opacity:1.0; 
stroke:#000000; stroke-width:98.4252; stroke-opacity:1; 
stroke-linecap:round; stroke-linejoin:round;">
</g>
<g style="fill:#000000; fill-opacity:0.0; 
stroke:#000000; stroke-width:98.4252; stroke-opacity:1; 
stroke-linecap:round; stroke-linejoin:round;">
<path d="M29072 13209
L27822 13209
" />
<path d="M26322 14709
L21972 14709
" />
<path d="M27822 13209
L26322 14709
" />
<path d="M21972 14709
L21972 13397
" />
<path d="M21972 13397
L21822 13247
" />
<path d="M20672 14709
L20672 16147
" />
<path d="M20672 16147
L20610 16209
" />
<path d="M23572 16209
L20610 16209
" />
<path d="M25572 16209
L23572 16209
" />
<path d="M3572 12247
L8248 12247
" />
<path d="M8248 12247
L8535 11959
" />
<path d="M8922 13709
L8922 12347
" />
<path d="M8922 12347
L8535 11959
" />
<path d="M32572 8459
L32572 8709
" />
<path d="M32572 8709
L30822 10459
" />
<path d="M30822 10459
L29572 10459
" />
<path d="M29072 14209
L29322 14209
" />
<path d="M29322 14209
L29822 13709
" />
<path d="M29822 13709
L29822 10459
" />
<path d="M28922 9709
L28922 9809
" />
<path d="M28922 9809
L29572 10459
" />
<path d="M29572 10459
L29822 10459
" />
<path d="M28922 9709
L28922 8572
" />
<path d="M28922 8572
L29035 8459
" />
<path d="M27722 8459
L29035 8459
" />
<path d="M29072 6709
L29072 8422
" />
<path d="M29072 8422
L29035 8459
" />
<path d="M29072 6709
L30110 6709
" />
<path d="M30110 6709
L30572 6247
" />
<path d="M29072 14209
L30110 14209
" />
<path d="M30110 14209
L30572 13747
" />
<path d="M29072 14209
L28072 14209
" />
<path d="M26822 16959
L18072 16959
" />
<path d="M27072 16709
L26822 16959
" />
<path d="M27072 15209
L27072 16709
" />
<path d="M28072 14209
L27072 15209
" />
<path d="M19322 9859
L20710 9859
" />
<path d="M20710 9859
L20822 9747
" />
<path d="M17822 9997
L19185 9997
" />
<path d="M19185 9997
L19322 9859
" />
<path d="M18972 14709
L18822 14709
" />
<path d="M18822 14709
L18322 14209
" />
<path d="M18322 10859
L19322 9859
" />
<path d="M18322 14209
L18322 10859
" />
<path d="M9572 16209
L10322 16959
" />
<path d="M18285 16959
L19035 16209
" />
<path d="M10322 16959
L18072 16959
" />
<path d="M18072 16959
L18285 16959
" />
<path d="M18972 14709
L18972 16147
" />
<path d="M18972 16147
L19035 16209
" />
<path d="M3572 3709
L3322 3709
" />
<path d="M3322 3709
L2572 4459
" />
<path d="M2572 4459
L2572 6209
" />
<path d="M2572 6209
L2822 6459
" />
<path d="M2822 6459
L3035 6459
" />
<path d="M10110 7459
L10110 3247
" />
<path d="M10110 3247
L9572 2709
" />
<path d="M9572 2709
L11572 2709
" />
<path d="M3572 11459
L2822 11459
" />
<path d="M2822 11459
L2572 11209
" />
<path d="M2572 6922
L3035 6459
" />
<path d="M2572 11209
L2572 6922
" />
<path d="M3072 16209
L3572 16209
" />
<path d="M2572 15709
L3072 16209
" />
<path d="M2572 11709
L2572 15709
" />
<path d="M2822 11459
L2572 11709
" />
<path d="M3572 16209
L7572 16209
" />
<path d="M9572 16209
L10322 15459
" />
<path d="M10322 15459
L10322 13809
" />
<path d="M10322 13809
L10222 13709
" />
<path d="M7572 16209
L9572 16209
" />
<path d="M10222 13709
L10222 12072
" />
<path d="M10222 12072
L10072 11922
" />
<path d="M10072 11922
L10072 7497
" />
<path d="M10072 7497
L10110 7459
" />
<path d="M29072 11209
L28072 11209
" />
<path d="M23785 11247
L23785 11709
" />
<path d="M24322 10709
L23785 11247
" />
<path d="M27572 10709
L24322 10709
" />
<path d="M28072 11209
L27572 10709
" />
<path d="M23785 13209
L23785 11709
" />
<path d="M19110 13209
L19572 13209
" />
<path d="M24610 13959
L25360 13209
" />
<path d="M23072 13959
L24610 13959
" />
<path d="M22822 13709
L23072 13959
" />
<path d="M22822 12959
L22822 13709
" />
<path d="M22572 12709
L22822 12959
" />
<path d="M20072 12709
L22572 12709
" />
<path d="M19572 13209
L20072 12709
" />
<path d="M29072 12209
L26572 12209
" />
<path d="M26072 11709
L25360 11709
" />
<path d="M26572 12209
L26072 11709
" />
<path d="M25360 13209
L25360 11709
" />
<path d="M35110 14459
L35110 14422
" />
<path d="M35110 14422
L35822 13709
" />
<path d="M35822 13709
L35822 11209
" />
<path d="M35822 11209
L34072 11209
" />
<path d="M34072 11209
L34072 9959
" />
<path d="M34072 9959
L33822 9709
" />
<path d="M33822 9709
L32322 9709
" />
<path d="M32322 9709
L32072 9959
" />
<path d="M32072 9959
L32072 11209
" />
<path d="M25572 2709
L25822 2709
" />
<path d="M25822 2709
L27072 1459
" />
<path d="M32535 1459
L33535 2459
" />
<path d="M27072 1459
L32535 1459
" />
<path d="M25785 5959
L25072 5959
" />
<path d="M25072 5959
L24360 5247
" />
<path d="M24360 7959
L24360 5247
" />
<path d="M24360 5247
L24360 3497
" />
<path d="M24360 3497
L23572 2709
" />
<path d="M33535 2459
L33322 2459
" />
<path d="M33322 2459
L32072 3709
" />
<path d="M30572 4672
L30572 4209
" />
<path d="M31072 3709
L32072 3709
" />
<path d="M30572 4209
L31072 3709
" />
<path d="M30572 12172
L30572 11959
" />
<path d="M30572 11959
L31322 11209
" />
<path d="M31322 11209
L32072 11209
" />
<path d="M23572 2709
L23572 2459
" />
<path d="M23572 2459
L22822 1709
" />
<path d="M8535 2247
L8535 7459
" />
<path d="M9072 1709
L8535 2247
" />
<path d="M22822 1709
L9072 1709
" />
<path d="M23572 2709
L25572 2709
" />
<path d="M7572 9709
L7572 8422
" />
<path d="M7572 8422
L8535 7459
" />
<path d="M3572 10672
L6610 10672
" />
<path d="M6610 10672
L7572 9709
" />
<path d="M3572 10672
L3572 8109
" />
<path d="M3572 8109
L3423 7959
" />
<path d="M17672 14709
L17672 13347
" />
<path d="M17672 13347
L17535 13209
" />
<path d="M35110 12959
L35110 11709
" />
<path d="M35110 12959
L35110 13422
" />
<path d="M34822 13709
L32572 13709
" />
<path d="M35110 13422
L34822 13709
" />
<path d="M32822 15559
L32822 13959
" />
<path d="M32822 13959
L32572 13709
" />
<path d="M32572 13709
L32072 13209
" />
<path d="M30322 16959
L31322 16959
" />
<path d="M31322 16959
L32072 16959
" />
<path d="M32072 16959
L32322 16959
" />
<path d="M32322 16959
L32422 16859
" />
<path d="M32422 16859
L32822 16859
" />
<path d="M21822 11672
L21822 11209
" />
<path d="M21822 11209
L22822 10209
" />
<path d="M21572 8209
L21572 8172
" />
<path d="M21572 8172
L21572 8209
" />
<path d="M21572 8209
L21572 8172
" />
<path d="M21822 11672
L21822 9172
" />
<path d="M21822 9172
L20822 8172
" />
<path d="M20822 8172
L21572 8172
" />
<path d="M21572 8172
L22572 8172
" />
<path d="M22572 8172
L22785 7959
" />
<path d="M19322 8559
L19322 8172
" />
<path d="M19322 8172
L19322 8209
" />
<path d="M19322 8209
L19322 8172
" />
<path d="M17822 8422
L17822 8209
" />
<path d="M17822 8209
L17860 8172
" />
<path d="M17860 8172
L19322 8172
" />
<path d="M19322 8172
L20822 8172
" />
<path d="M32072 12209
L33035 12209
" />
<path d="M33035 12209
L33535 11709
" />
<path d="M33535 11709
L33535 10572
" />
<path d="M33535 10572
L33422 10459
" />
<path d="M33535 12959
L33535 11709
" />
<path d="M34722 10459
L34722 10109
" />
<path d="M34722 10109
L34072 9459
" />
<path d="M34072 7247
L33535 6709
" />
<path d="M34072 9459
L34072 7247
" />
<path d="M34722 10459
L34722 10359
" />
<path d="M34722 10459
L34572 10459
" />
<path d="M33535 6709
L32072 6709
" />
<path d="M29072 4709
L29822 5459
" />
<path d="M31572 6709
L32072 6709
" />
<path d="M31322 6459
L31572 6709
" />
<path d="M31322 5709
L31322 6459
" />
<path d="M31072 5459
L31322 5709
" />
<path d="M29822 5459
L31072 5459
" />
<path d="M29072 4709
L27610 4709
" />
<path d="M27610 4709
L27360 4459
" />
<path d="M30072 2209
L29072 2209
" />
<path d="M29072 2209
L27322 2209
" />
<path d="M27322 2209
L25785 3747
" />
<path d="M25785 3747
L25785 4459
" />
<path d="M25785 4459
L25860 4459
" />
<path d="M25860 4459
L27360 5959
" />
<path d="M29072 5709
L27610 5709
" />
<path d="M27610 5709
L27360 5959
" />
<path d="M26422 8459
L26422 6897
" />
<path d="M26422 6897
L27360 5959
" />
<path d="M30572 7709
L30610 7747
" />
<path d="M30610 7747
L30610 8459
" />
<path d="M32072 5709
L34110 5709
" />
<path d="M34110 5709
L35110 6709
" />
<path d="M30222 9709
L30222 8847
" />
<path d="M30222 8847
L30610 8459
" />
<path d="M37072 10548
L36072 10548
" />
<path d="M36072 10548
L36072 10709
" />
<path d="M35072 8459
L36072 8459
" />
<path d="M35322 16459
L35572 16459
" />
<path d="M35572 16459
L36072 15959
" />
<path d="M36072 15959
L36072 10709
" />
<path d="M36072 10709
L36072 8709
" />
<path d="M36072 8709
L36072 8459
" />
<path d="M6572 14798
L3984 14798
" />
<path d="M3984 14798
L3572 15209
" />
<path d="M4722 7959
L4722 6571
" />
<path d="M4722 6571
L4610 6459
" />
<path d="M37072 6048
L37072 5709
" />
<path d="M37072 5709
L36072 4709
" />
<path d="M36072 4709
L32072 4709
" />
<path d="M37072 7871
L37072 6048
" />
<path d="M35072 3796
L35072 2497
" />
<path d="M35072 2497
L35110 2459
" />
<path d="M33572 4622
L34246 4622
" />
<path d="M34246 4622
L35072 3796
" />
<path d="M33572 4622
L32159 4622
" />
<path d="M32159 4622
L32072 4709
" />
<path d="M37072 3371
L37072 3209
" />
<path d="M37072 3209
L36072 2209
" />
<path d="M36072 2209
L36072 1709
" />
<path d="M36072 1709
L35572 1209
" />
<path d="M35572 1209
L33072 1209
" />
<path d="M5072 1209
L3572 2709
" />
<path d="M33072 1209
L5072 1209
" />
<path d="M34322 16459
L34322 15247
" />
<path d="M34322 15247
L33535 14459
" />
</g>
<g style="fill:#000000; fill-opacity:1.0; 
stroke:#000000; stroke-width:100; stroke-opacity:1; 
stroke-linecap:round; stroke-linejoin:round;">
<polyline style="fill-rule:evenodd;"
points="4861,998
3798,2061
3179,2061
3086,2078
3001,2133
2944,2216
2924,2316
2924,3103
2941,3195
2996,3280
3060,3324
3051,3331
2946,3559
2993,3659
3522,3659
3522,3651
3622,3651
3622,3659
4151,3659
4198,3559
4093,3331
4085,3323
4144,3285
4201,3202
4221,3103
4221,2484
5196,1508
8850,1508
8323,2035
8258,2132
8236,2247
8236,6889
8141,6889
8049,6907
7963,6961
7906,7045
7886,7144
7886,7685
7361,8210
7296,8307
7273,8422
7273,8504
7022,8504
6930,8522
6845,8576
6788,8660
6767,8759
6767,10091
6486,10372
4223,10372
4175,10300
4005,10186
3872,10160
3872,8453
3896,8437
3953,8354
3973,8254
3973,7664
3955,7571
3901,7486
3817,7429
3718,7409
3127,7409
3035,7426
2950,7481
2893,7565
2873,7664
2873,8254
2890,8347
2945,8432
3028,8489
3127,8509
3273,8509
3273,10160
3140,10186
2970,10300
2856,10471
2816,10672
2856,10873
2970,11043
3012,11071
2949,11123
2851,11304
2847,11328
2895,11409
3522,11409
3522,11401
3622,11401
3622,11409
4249,11409
4298,11328
4294,11304
4196,11123
4133,11071
4175,11043
4223,10971
6610,10971
6724,10948
6821,10883
6856,10848
6923,10894
7022,10914
8122,10914
8215,10897
8300,10842
8357,10758
8377,10659
8377,9822
9272,9822
9272,10709
9310,10801
9381,10871
9473,10909
9960,10909
10022,10847
10022,9759
10122,9759
10122,10847
10185,10909
10672,10909
10764,10871
10834,10801
10872,10709
10872,10109
17257,10109
17257,10440
17295,10532
17366,10602
17458,10640
17710,10640
17772,10578
17772,10047
17872,10047
17872,10578
17935,10640
18187,10640
18279,10602
18349,10532
18387,10440
18387,10109
18325,10047
17872,10047
17772,10047
17320,10047
17257,10109
10872,10109
10872,9972
18672,9972
18672,10209
18710,10301
18781,10371
18873,10409
19210,10409
19272,10347
19272,9909
19372,9909
19372,10347
19435,10409
19772,10409
19864,10371
19934,10301
19972,10209
19972,9972
19910,9909
19372,9909
19272,9909
18735,9909
18672,9972
10872,9972
10872,9822
10810,9759
10122,9759
10022,9759
9335,9759
9272,9822
8377,9822
8377,8759
8368,8709
9272,8709
9272,9597
9335,9659
10022,9659
10022,8572
10122,8572
10122,9659
10810,9659
10872,9597
10872,9553
17257,9553
17257,9884
17320,9947
17772,9947
17772,9415
17872,9415
17872,9947
18325,9947
18387,9884
18387,9859
20238,9859
20238,10190
20276,10282
20346,10352
20438,10390
20710,10390
20772,10328
20772,9797
20872,9797
20872,10328
20935,10390
21207,10390
21299,10352
21369,10282
21407,10190
21407,9859
21344,9797
20872,9797
20772,9797
20300,9797
20238,9859
18387,9859
18387,9553
18369,9509
18672,9509
18672,9747
18735,9809
19272,9809
19272,9372
19372,9372
19372,9809
19910,9809
19972,9747
19972,9509
19934,9417
19864,9347
19772,9309
19435,9309
19372,9372
19272,9372
19210,9309
18873,9309
18781,9347
18710,9417
18672,9509
18369,9509
18349,9461
18279,9391
18187,9353
17935,9353
17872,9415
17772,9415
17710,9353
17458,9353
17366,9391
17295,9461
17257,9553
10872,9553
10872,9303
20238,9303
20238,9634
20300,9697
20772,9697
20772,9165
20872,9165
20872,9697
21344,9697
21407,9634
21407,9303
21369,9211
21299,9141
21207,9103
20935,9103
20872,9165
20772,9165
20710,9103
20438,9103
20346,9141
20276,9211
20238,9303
10872,9303
10872,8709
10834,8617
10764,8547
10672,8509
10185,8509
10122,8572
10022,8572
9960,8509
9473,8509
9381,8547
9310,8617
9272,8709
8368,8709
8360,8666
8305,8581
8222,8524
8122,8504
7913,8504
8388,8029
8929,8029
8934,8028
17252,8028
17252,8815
17270,8908
17325,8993
17408,9050
17507,9070
18137,9070
18230,9053
18315,8998
18372,8915
18392,8815
18392,8471
18667,8471
18667,8859
18685,8952
18740,9037
18823,9094
18922,9114
19722,9114
19815,9097
19900,9042
19957,8958
19977,8859
19977,8471
20233,8471
20233,8565
20250,8658
20305,8743
20389,8800
20488,8820
21048,8820
21523,9296
21523,11023
21488,11023
21395,11041
21310,11095
21253,11179
21233,11278
21233,12065
21250,12158
21305,12243
21389,12300
21488,12320
22157,12320
22250,12303
22335,12248
22392,12165
22412,12065
22412,11278
22394,11185
22345,11109
22704,10750
22713,10754
22930,10754
23131,10672
23284,10518
23368,10318
23368,10101
23285,9901
23206,9822
28372,9822
28372,10159
28410,10251
28481,10321
28573,10359
28810,10359
28872,10297
28872,9759
28972,9759
28972,10297
29035,10359
29272,10359
29364,10321
29434,10251
29472,10159
29472,9822
29410,9759
28972,9759
28872,9759
28435,9759
28372,9822
23206,9822
23132,9747
22931,9664
22714,9664
22514,9747
22360,9900
22277,10100
22277,10317
22281,10327
22122,10487
22122,9259
28372,9259
28372,9597
28435,9659
28872,9659
28872,9122
28972,9122
28972,9659
29410,9659
29472,9597
29472,9309
29667,9309
29667,10109
29685,10202
29740,10287
29823,10344
29922,10364
30522,10364
30615,10347
30700,10292
30757,10208
30777,10109
30777,9309
30760,9216
30705,9131
30622,9074
30522,9054
30522,9054
30522,9049
31003,9049
31096,9031
31181,8976
31238,8893
31258,8794
31258,8124
31241,8032
31186,7947
31103,7890
31089,7887
31118,7818
31118,7601
31035,7401
30882,7247
30681,7164
30464,7164
30264,7247
30110,7400
30027,7600
30027,7817
30070,7921
30038,7942
29981,8025
29961,8124
29961,8709
29946,8732
29923,8847
29923,9054
29922,9054
29830,9072
29745,9126
29688,9210
29667,9309
29472,9309
29472,9259
29434,9167
29364,9097
29272,9059
29035,9059
28972,9122
28872,9122
28810,9059
28573,9059
28481,9097
28410,9167
28372,9259
22122,9259
22122,9172
22099,9057
22099,9057
22034,8960
21580,8507
21687,8486
21709,8471
22208,8471
22209,8471
22292,8529
22391,8549
23179,8549
23271,8531
23356,8476
23413,8393
23434,8294
23434,7624
23416,7532
23361,7447
23278,7390
23179,7370
22391,7370
22299,7387
22213,7442
22156,7525
22136,7624
22136,7872
21412,7872
21412,7778
21394,7685
21340,7600
21256,7543
21157,7523
20488,7523
20395,7541
20310,7595
20253,7679
20233,7778
20233,7872
18334,7872
18320,7850
18236,7793
18137,7773
17507,7773
17415,7791
17330,7845
17273,7929
17252,8028
8934,8028
9021,8012
9106,7957
9163,7873
9184,7774
9184,7572
9466,7572
9466,7824
9504,7916
9574,7986
9666,8024
9997,8024
10060,7962
10060,7509
10160,7509
10160,7962
10222,8024
10553,8024
10645,7986
10715,7916
10753,7824
10753,7572
10691,7509
10160,7509
10060,7509
9529,7509
9466,7572
9184,7572
9184,7144
9174,7094
9466,7094
9466,7347
9529,7409
10060,7409
10060,6957
10160,6957
10160,7409
10691,7409
10753,7347
10753,7094
10715,7003
10645,6932
10553,6894
10222,6894
10160,6957
10060,6957
9997,6894
9666,6894
9574,6932
9504,7003
9466,7094
9174,7094
9166,7051
9111,6966
9028,6909
8929,6889
8834,6889
8834,3709
12793,3709
12852,4007
13021,4260
13274,4429
13572,4489
13871,4429
14124,4260
14293,4007
14352,3709
14293,3411
14124,3158
13871,2989
13572,2930
13274,2989
13021,3158
12852,3411
12793,3709
8834,3709
8834,3095
9257,3095
9284,3190
9491,3264
9709,3253
9860,3190
9888,3095
11257,3095
11284,3190
11491,3264
11709,3253
11860,3190
11888,3095
11572,2780
11257,3095
9888,3095
9572,2780
9257,3095
8834,3095
8834,2627
9018,2627
9028,2846
9091,2997
9186,3024
9502,2709
9643,2709
9958,3024
10054,2997
10127,2791
10119,2627
11018,2627
11028,2846
11091,2997
11186,3024
11502,2709
11643,2709
11958,3024
12054,2997
12127,2791
12116,2572
12054,2421
11958,2394
11643,2709
11502,2709
11186,2394
11091,2421
11018,2627
10119,2627
10116,2572
10054,2421
9958,2394
9643,2709
9502,2709
9186,2394
9091,2421
9018,2627
8834,2627
8834,2370
8881,2323
9257,2323
9572,2638
9888,2323
11257,2323
11572,2638
11888,2323
11860,2228
11654,2154
11436,2165
11284,2228
11257,2323
9888,2323
9860,2228
9654,2154
9436,2165
9284,2228
9257,2323
8881,2323
9196,2008
22698,2008
23101,2411
23022,2599
23022,2818
23106,3020
23260,3175
23462,3259
23681,3259
23694,3254
24061,3620
24061,7370
23966,7370
23873,7387
23788,7442
23731,7525
23711,7624
23711,8294
23729,8386
23783,8471
23867,8529
23966,8549
24753,8549
24846,8531
24931,8476
24988,8393
25008,8294
25008,7624
24991,7532
24936,7447
24853,7390
24753,7370
24659,7370
24659,5969
24861,6171
24958,6236
25072,6258
25136,6258
25136,6294
25154,6386
25209,6471
25292,6529
25391,6549
26179,6549
26271,6531
26356,6476
26413,6393
26434,6294
26434,5624
26416,5532
26361,5447
26278,5390
26179,5370
25391,5370
25299,5387
25213,5442
25156,5525
25140,5604
24659,5123
24659,3497
24636,3382
24571,3285
24295,3008
25101,3008
25106,3020
25260,3175
25462,3259
25681,3259
25883,3176
26038,3021
26113,2842
27196,1758
28577,1758
28540,1813
28521,1910
27322,1910
27208,1933
27111,1998
25573,3535
25508,3632
25486,3747
25486,3870
25391,3870
25299,3887
25213,3942
25156,4025
25136,4124
25136,4794
25154,4886
25209,4971
25292,5029
25391,5049
26026,5049
26711,5734
26711,6185
26211,6685
26146,6782
26123,6897
26123,7804
26122,7804
26030,7822
25945,7876
25888,7960
25867,8059
25867,8859
25885,8952
25940,9037
26023,9094
26122,9114
26722,9114
26815,9097
26900,9042
26957,8958
26977,8859
26977,8572
27172,8572
27172,8909
27210,9001
27281,9071
27373,9109
27610,9109
27672,9047
27672,8509
27772,8509
27772,9047
27835,9109
28072,9109
28164,9071
28234,9001
28272,8909
28272,8572
28391,8572
28391,8843
28429,8935
28500,9006
28592,9044
28922,9044
28985,8981
28985,8509
29085,8509
29085,8981
29147,9044
29478,9044
29570,9006
29641,8935
29679,8843
29679,8572
29616,8509
29085,8509
28985,8509
28454,8509
28391,8572
28272,8572
28210,8509
27772,8509
27672,8509
27235,8509
27172,8572
26977,8572
26977,8059
26968,8009
27172,8009
27172,8347
27235,8409
27672,8409
27672,7872
27772,7872
27772,8409
28210,8409
28272,8347
28272,8075
28391,8075
28391,8347
28454,8409
28985,8409
28985,7937
29085,7937
29085,8409
29616,8409
29679,8347
29679,8075
29641,7983
29570,7913
29478,7874
29147,7874
29085,7937
28985,7937
28922,7874
28592,7874
28500,7913
28429,7983
28391,8075
28272,8075
28272,8009
28234,7917
28164,7847
28072,7809
27835,7809
27772,7872
27672,7872
27610,7809
27373,7809
27281,7847
27210,7917
27172,8009
26968,8009
26960,7966
26905,7881
26822,7824
26722,7804
26722,7804
26722,7020
26895,6847
28524,6847
28588,6999
28736,7163
28935,7257
29022,7209
29022,6759
29122,6759
29122,7209
29210,7257
29409,7163
29557,6999
29620,6847
29572,6759
29122,6759
29022,6759
28572,6759
28524,6847
26895,6847
27193,6549
27753,6549
27846,6531
27931,6476
27988,6393
28008,6294
28008,6008
28595,6008
28662,6109
28821,6215
28736,6255
28588,6419
28524,6572
28572,6659
29022,6659
29022,6651
29122,6651
29122,6659
29572,6659
29620,6572
29557,6419
29503,6359
30007,6359
30007,6690
30045,6782
30116,6852
30208,6890
30460,6890
30522,6828
30522,6297
30070,6297
30007,6359
29503,6359
29409,6255
29324,6215
29483,6109
29605,5925
29648,5709
29645,5694
29708,5736
29822,5758
30026,5758
30007,5803
30007,6134
30070,6197
30522,6197
30522,6189
30622,6189
30622,6197
30630,6197
30630,6297
30622,6297
30622,6828
30685,6890
30937,6890
31029,6852
31099,6782
31135,6695
31361,6921
31458,6986
31572,7008
31595,7008
31662,7109
31845,7231
31986,7259
31973,7259
31881,7297
31810,7367
31772,7459
31772,8347
31835,8409
32522,8409
32522,7322
32460,7259
32159,7259
32300,7231
32483,7109
32550,7008
32886,7008
32886,7044
32904,7136
32959,7221
33014,7259
32685,7259
32622,7322
32622,8409
33310,8409
33372,8347
33372,7459
33334,7367
33265,7299
33701,7299
33773,7370
33773,9410
33372,9410
33372,8572
33310,8509
32622,8509
32622,8517
32522,8517
32522,8509
31835,8509
31772,8572
31772,9459
31810,9551
31881,9621
31956,9652
31861,9748
31796,9845
31773,9959
31773,10735
31662,10810
31595,10910
31322,10910
31208,10933
31111,10998
30585,11523
30257,11523
30165,11541
30080,11595
30023,11679
30002,11778
30002,12565
30020,12658
30075,12743
30158,12800
30257,12820
30887,12820
30980,12803
31065,12748
31122,12665
31142,12565
31142,11812
31446,11508
31595,11508
31662,11609
31812,11709
31662,11810
31539,11993
31496,12209
31539,12425
31662,12609
31812,12709
31662,12810
31539,12993
31496,13209
31539,13425
31662,13609
31812,13709
31662,13810
31539,13993
31496,14209
31539,14425
31662,14609
31845,14731
32061,14774
32083,14774
32300,14731
32483,14609
32523,14548
32523,15004
32422,15004
32330,15022
32245,15076
32188,15160
32167,15259
32167,15859
32185,15952
32240,16037
32323,16094
32422,16114
33222,16114
33315,16097
33400,16042
33457,15958
33477,15859
33477,15259
33460,15166
33405,15081
33357,15049
33701,15049
34023,15370
34023,15886
33958,15913
33777,16094
33679,16330
33679,16587
33776,16823
33957,17004
34194,17103
34450,17103
34686,17005
34713,16979
34746,17031
34829,17088
34929,17108
35716,17108
35809,17090
35894,17036
35951,16952
35971,16853
35971,16484
36284,16171
36349,16074
36372,15959
36372,11424
36442,11471
36541,11492
37604,11492
37696,11474
37782,11419
37793,11403
37793,16912
37793,16911
37624,16658
37371,16489
37072,16430
36774,16489
36521,16658
36352,16911
36293,17209
36352,17507
36521,17760
36774,17929
36775,17930
1369,17930
1371,17929
1624,17760
1793,17507
1852,17209
1793,16911
1624,16658
1371,16489
1072,16430
774,16489
521,16658
352,16911
352,16912
352,16359
2946,16359
3051,16587
3236,16758
3423,16835
3522,16788
3522,16259
3622,16259
3622,16788
3722,16835
3909,16758
4085,16595
7257,16595
7284,16690
7491,16764
7709,16753
7860,16690
7888,16595
9257,16595
9284,16690
9491,16764
9709,16753
9860,16690
9888,16595
9572,16280
9257,16595
7888,16595
7572,16280
7257,16595
4085,16595
4093,16587
4198,16359
4151,16259
3622,16259
3522,16259
2993,16259
2946,16359
352,16359
352,14816
2924,14816
2924,15603
2941,15695
2996,15780
3060,15824
3051,15831
2946,16059
2993,16159
3522,16159
3522,16151
3622,16151
3622,16159
4151,16159
4166,16127
7018,16127
7028,16346
7091,16497
7186,16524
7502,16209
7643,16209
7958,16524
8054,16497
8127,16291
8119,16127
9018,16127
9028,16346
9091,16497
9186,16524
9502,16209
9643,16209
9958,16524
10054,16497
10116,16322
18391,16322
18391,16593
18429,16685
18500,16756
18592,16794
18922,16794
18985,16731
18985,16259
19085,16259
19085,16731
19147,16794
19478,16794
19570,16756
19641,16685
19679,16593
19679,16322
19616,16259
19085,16259
18985,16259
18454,16259
18391,16322
10116,16322
10127,16291
10116,16072
10054,15921
9958,15894
9643,16209
9502,16209
9186,15894
9091,15921
9018,16127
8119,16127
8116,16072
8054,15921
7958,15894
7643,16209
7502,16209
7186,15894
7091,15921
7018,16127
4166,16127
4198,16059
4093,15831
4085,15823
4085,15823
7257,15823
7572,16138
7888,15823
9257,15823
9572,16138
9888,15823
9860,15728
9654,15654
9436,15665
9284,15728
9257,15823
7888,15823
7860,15728
7654,15654
7436,15665
7284,15728
7257,15823
4085,15823
4144,15785
4201,15702
4221,15603
4221,15097
5786,15097
5786,15487
5803,15579
5858,15664
5942,15721
6041,15742
7104,15742
7196,15724
7282,15669
7339,15586
7359,15487
7359,15209
12793,15209
12852,15507
13021,15760
13274,15929
13572,15989
13871,15929
14027,15825
18391,15825
18391,16097
18454,16159
18985,16159
18985,15687
19085,15687
19085,16159
19616,16159
19679,16097
19679,15874
19961,15874
19961,16544
19979,16636
20033,16721
20117,16779
20216,16799
21003,16799
21096,16781
21181,16726
21238,16643
21258,16544
21258,16508
23101,16508
23106,16520
23260,16675
23462,16759
23681,16759
23883,16676
24038,16521
24044,16508
25101,16508
25106,16520
25260,16675
25462,16759
25681,16759
25883,16676
25897,16662
28770,16662
28770,17256
28788,17349
28842,17434
28926,17491
29025,17511
29620,17511
29712,17494
29797,17439
29854,17356
29870,17280
30012,17423
30213,17506
30431,17506
30632,17423
30786,17269
30791,17258
30854,17258
30858,17269
31012,17423
31213,17506
31431,17506
31632,17423
31786,17269
31791,17258
32189,17258
32240,17337
32323,17394
32422,17414
33222,17414
33315,17397
33400,17342
33457,17258
33477,17159
33477,16559
33460,16466
33405,16381
33322,16324
33222,16304
32422,16304
32330,16322
32245,16376
32188,16460
32167,16559
32167,16660
31791,16660
31787,16650
31633,16495
31432,16412
31214,16412
31013,16495
30859,16649
30854,16660
30791,16660
30787,16650
30633,16495
30432,16412
30214,16412
30013,16495
29870,16638
29857,16569
29802,16484
29719,16427
29620,16407
29025,16407
28932,16424
28847,16479
28790,16563
28770,16662
25897,16662
26038,16521
26122,16319
26122,16100
26039,15898
25884,15743
25682,15659
25463,15659
25261,15743
25106,15897
25101,15910
24044,15910
24039,15898
23884,15743
23682,15659
23463,15659
23261,15743
23106,15897
23101,15910
21258,15910
21258,15874
21241,15782
21186,15697
21103,15640
21003,15620
20972,15620
20972,15364
20972,15364
21065,15347
21150,15292
21207,15208
21227,15109
21227,14309
21210,14216
21155,14131
21072,14074
20972,14054
20372,14054
20280,14072
20195,14126
20138,14210
20117,14309
20117,15109
20135,15202
20190,15287
20273,15344
20372,15364
20373,15364
20373,15620
20216,15620
20123,15637
20038,15692
19981,15775
19961,15874
19679,15874
19679,15825
19641,15733
19570,15663
19478,15624
19147,15624
19085,15687
18985,15687
18922,15624
18592,15624
18500,15663
18429,15733
18391,15825
14027,15825
14124,15760
14293,15507
14352,15209
14293,14911
14124,14658
13871,14489
13572,14430
13274,14489
13021,14658
12852,14911
12793,15209
7359,15209
7359,14109
7341,14016
7287,13931
7203,13874
7104,13854
6041,13854
5948,13871
5863,13926
5806,14010
5786,14109
5786,14498
3984,14498
3869,14521
3810,14561
3179,14561
3086,14578
3001,14633
2944,14716
2924,14816
352,14816
352,12247
2816,12247
2856,12448
2970,12618
3140,12732
3341,12772
3803,12772
4005,12732
4175,12618
4223,12546
5786,12546
5786,12809
5803,12902
5858,12987
5942,13044
6041,13064
7104,13064
7196,13047
7282,12992
7339,12909
7359,12809
7359,12546
8248,12546
8332,12529
8623,12529
8623,13054
8622,13054
8530,13072
8445,13126
8388,13210
8367,13309
8367,14109
8385,14202
8440,14287
8523,14344
8622,14364
9222,14364
9315,14347
9400,14292
9457,14208
9477,14109
9477,13822
9672,13822
9672,14159
9710,14251
9781,14321
9873,14359
10110,14359
10172,14297
10172,13759
10272,13759
10272,14297
10335,14359
10572,14359
10664,14321
10734,14251
10772,14159
10772,13822
10710,13759
10272,13759
10172,13759
9735,13759
9672,13822
9477,13822
9477,13309
9468,13259
9672,13259
9672,13597
9735,13659
10172,13659
10172,13122
10272,13122
10272,13659
10710,13659
10772,13597
10772,13259
10734,13167
10664,13097
10572,13059
10335,13059
10272,13122
10172,13122
10110,13059
9873,13059
9781,13097
9710,13167
9672,13259
9468,13259
9460,13216
9405,13131
9322,13074
9222,13054
9222,13054
9222,12874
16886,12874
16886,13544
16904,13636
16959,13721
17042,13779
17141,13799
17373,13799
17373,14054
17372,14054
17280,14072
17195,14126
17138,14210
17117,14309
17117,15109
17135,15202
17190,15287
17273,15344
17372,15364
17972,15364
18065,15347
18150,15292
18207,15208
18227,15109
18227,14822
18422,14822
18422,15159
18460,15251
18531,15321
18623,15359
18860,15359
18922,15297
18922,14759
19022,14759
19022,15297
19085,15359
19322,15359
19414,15321
19484,15251
19522,15159
19522,14822
19460,14759
19022,14759
18922,14759
18485,14759
18422,14822
18227,14822
18227,14309
18218,14259
18422,14259
18422,14597
18485,14659
18922,14659
18922,14122
19022,14122
19022,14659
19460,14659
19522,14597
19522,14259
19484,14167
19414,14097
19322,14059
19085,14059
19022,14122
18922,14122
18860,14059
18623,14059
18531,14097
18460,14167
18422,14259
18218,14259
18210,14216
18155,14131
18072,14074
17972,14054
17972,14054
17972,13791
18021,13781
18106,13726
18163,13643
18184,13544
18184,12874
18461,12874
18461,13544
18479,13636
18533,13721
18617,13779
18716,13799
19503,13799
19596,13781
19681,13726
19738,13643
19758,13544
19758,13438
19784,13421
20196,13008
21233,13008
21233,13640
21250,13733
21305,13818
21389,13875
21488,13895
21673,13895
21673,14054
21672,14054
21580,14072
21495,14126
21438,14210
21417,14309
21417,15109
21435,15202
21490,15287
21573,15344
21672,15364
22272,15364
22365,15347
22450,15292
22507,15208
22527,15109
22527,15008
26322,15008
26437,14986
26534,14921
27108,14347
28524,14347
28588,14499
28736,14663
28935,14757
29022,14709
29022,14259
29122,14259
29122,14709
29210,14757
29409,14663
29557,14499
29620,14347
29572,14259
29122,14259
29022,14259
28572,14259
28524,14347
27108,14347
27946,13508
28595,13508
28662,13609
28821,13715
28736,13755
28588,13919
28524,14072
28572,14159
29022,14159
29022,14151
29122,14151
29122,14159
29572,14159
29620,14072
29557,13919
29503,13859
30007,13859
30007,14190
30045,14282
30116,14352
30208,14390
30460,14390
30522,14328
30522,13797
30622,13797
30622,14328
30685,14390
30937,14390
31029,14352
31099,14282
31137,14190
31137,13859
31075,13797
30622,13797
30522,13797
30070,13797
30007,13859
29503,13859
29409,13755
29324,13715
29483,13609
29605,13425
29630,13303
30007,13303
30007,13634
30070,13697
30522,13697
30522,13165
30622,13165
30622,13697
31075,13697
31137,13634
31137,13303
31099,13211
31029,13141
30937,13103
30685,13103
30622,13165
30522,13165
30460,13103
30208,13103
30116,13141
30045,13211
30007,13303
29630,13303
29648,13209
29605,12993
29483,12810
29332,12709
29483,12609
29605,12425
29648,12209
29605,11993
29483,11810
29426,11772
29480,11762
29565,11707
29622,11623
29642,11524
29642,10894
29625,10801
29570,10716
29486,10659
29387,10639
28757,10639
28665,10657
28580,10711
28523,10795
28502,10894
28502,10910
28196,10910
27784,10498
27687,10433
27572,10410
24322,10410
24208,10433
24111,10498
23573,11035
23517,11120
23391,11120
23299,11137
23213,11192
23156,11275
23136,11374
23136,12044
23154,12136
23209,12221
23292,12279
23391,12299
23486,12299
23486,12639
23391,12639
23299,12657
23213,12711
23156,12795
23136,12894
23136,13524
23154,13617
23155,13619
23122,13585
23122,12959
23099,12845
23034,12748
22784,12498
22687,12433
22572,12410
20072,12410
19958,12433
19861,12498
19672,12687
19603,12640
19503,12620
18716,12620
18623,12637
18538,12692
18481,12775
18461,12874
18184,12874
18166,12782
18111,12697
18028,12640
17929,12620
17141,12620
17049,12637
16963,12692
16906,12775
16886,12874
9222,12874
9222,12347
9199,12232
9184,12209
9184,12072
9466,12072
9466,12324
9504,12416
9574,12486
9666,12524
9997,12524
10060,12462
10060,12009
10160,12009
10160,12462
10222,12524
10553,12524
10645,12486
10715,12416
10753,12324
10753,12072
10691,12009
10160,12009
10060,12009
9529,12009
9466,12072
9184,12072
9184,11644
9174,11594
9466,11594
9466,11847
9529,11909
10060,11909
10060,11457
10160,11457
10160,11909
10691,11909
10753,11847
10753,11594
10715,11503
10645,11432
10553,11394
10222,11394
10160,11457
10060,11457
9997,11394
9666,11394
9574,11432
9504,11503
9466,11594
9174,11594
9166,11551
9111,11466
9028,11409
8929,11389
8141,11389
8049,11407
7963,11461
7906,11545
7886,11644
7886,11947
7359,11947
7359,11432
7341,11339
7287,11254
7203,11197
7104,11177
6041,11177
5948,11194
5863,11249
5806,11332
5786,11432
5786,11947
4223,11947
4175,11875
4133,11847
4196,11795
4294,11614
4298,11590
4249,11509
3622,11509
3622,11517
3522,11517
3522,11509
2895,11509
2847,11590
2851,11614
2949,11795
3012,11847
2970,11875
2856,12045
2816,12247
352,12247
352,6572
2391,6572
2391,6843
2429,6935
2500,7006
2592,7044
2922,7044
2985,6981
2985,6509
3085,6509
3085,6981
3147,7044
3478,7044
3570,7006
3641,6935
3679,6843
3679,6572
3616,6509
3085,6509
2985,6509
2454,6509
2391,6572
352,6572
352,6075
2391,6075
2391,6347
2454,6409
2985,6409
2985,5937
3085,5937
3085,6409
3616,6409
3679,6347
3679,6124
3961,6124
3961,6794
3979,6886
4033,6971
4117,7029
4216,7049
4423,7049
4423,7410
4334,7426
4249,7481
4192,7565
4172,7664
4172,8254
4189,8347
4244,8432
4327,8489
4427,8509
5017,8509
5110,8492
5195,8437
5252,8354
5272,8254
5272,7664
5255,7571
5200,7486
5116,7429
5021,7410
5021,7045
5096,7031
5181,6976
5238,6893
5258,6794
5258,6124
5241,6032
5186,5947
5103,5890
5003,5870
4216,5870
4123,5887
4038,5942
3981,6025
3961,6124
3679,6124
3679,6075
3641,5983
3570,5913
3478,5874
3147,5874
3085,5937
2985,5937
2922,5874
2592,5874
2500,5913
2429,5983
2391,6075
352,6075
352,3859
2946,3859
3051,4087
3236,4258
3423,4335
3522,4288
3522,3759
3622,3759
3622,4288
3722,4335
3909,4258
4093,4087
4198,3859
4151,3759
3622,3759
3522,3759
2993,3759
2946,3859
352,3859
352,2006
352,2007
521,2260
774,2429
1072,2489
1371,2429
1624,2260
1793,2007
1852,1709
1793,1411
1624,1158
1371,989
1369,989
4874,989
4861,998
" /> 
</g>
<g style="fill:#FFFFFF; fill-opacity:1.0; 
stroke:#FFFFFF; stroke-width:100; stroke-opacity:1; 
stroke-linecap:round; stroke-linejoin:round;">
</g>
<g style="fill:#FFFFFF; fill-opacity:1.0; 
stroke:#FFFFFF; stroke-width:0; stroke-opacity:1; 
stroke-linecap:round; stroke-linejoin:round;">
<circle cx="22822.8" cy="10209.6" r="137.795" /> 
</g>
<g style="fill:#FFFFFF; fill-opacity:1.0; 
stroke:#FFFFFF; stroke-width:39.3701; stroke-opacity:1; 
stroke-linecap:round; stroke-linejoin:round;">
</g>
<g style="fill:#FFFFFF; fill-opacity:1.0; 
stroke:#FFFFFF; stroke-width:0; stroke-opacity:1; 
stroke-linecap:round; stroke-linejoin:round;">
<circle cx="30572.8" cy="7709.6" r="137.795" /> 
</g>
<g style="fill:#FFFFFF; fill-opacity:1.0; 
stroke:#FFFFFF; stroke-width:39.3701; stroke-opacity:1; 
stroke-linecap:round; stroke-linejoin:round;">
</g>
<g style="fill:#FFFFFF; fill-opacity:1.0; 
stroke:#FFFFFF; stroke-width:0; stroke-opacity:1; 
stroke-linecap:round; stroke-linejoin:round;">
<circle cx="7572.83" cy="16209.6" r="150" /> 
</g>
<g style="fill:#FFFFFF; fill-opacity:1.0; 
stroke:#FFFFFF; stroke-width:39.3701; stroke-opacity:1; 
stroke-linecap:round; stroke-linejoin:round;">
</g>
<g style="fill:#FFFFFF; fill-opacity:1.0; 
stroke:#FFFFFF; stroke-width:0; stroke-opacity:1; 
stroke-linecap:round; stroke-linejoin:round;">
<circle cx="9572.83" cy="16209.6" r="150" /> 
</g>
<g style="fill:#FFFFFF; fill-opacity:1.0; 
stroke:#FFFFFF; stroke-width:39.3701; stroke-opacity:1; 
stroke-linecap:round; stroke-linejoin:round;">
</g>
<g style="fill:#FFFFFF; fill-opacity:1.0; 
stroke:#FFFFFF; stroke-width:0; stroke-opacity:1; 
stroke-linecap:round; stroke-linejoin:round;">
<circle cx="9572.83" cy="2709.6" r="150" /> 
</g>
<g style="fill:#FFFFFF; fill-opacity:1.0; 
stroke:#FFFFFF; stroke-width:39.3701; stroke-opacity:1; 
stroke-linecap:round; stroke-linejoin:round;">
</g>
<g style="fill:#FFFFFF; fill-opacity:1.0; 
stroke:#FFFFFF; stroke-width:0; stroke-opacity:1; 
stroke-linecap:round; stroke-linejoin:round;">
<circle cx="11572.8" cy="2709.6" r="150" /> 
</g>
<g style="fill:#FFFFFF; fill-opacity:1.0; 
stroke:#FFFFFF; stroke-width:39.3701; stroke-opacity:1; 
stroke-linecap:round; stroke-linejoin:round;">
</g>
<g style="fill:#FFFFFF; fill-opacity:1.0; 
stroke:#FFFFFF; stroke-width:0; stroke-opacity:1; 
stroke-linecap:round; stroke-linejoin:round;">
<circle cx="23572.8" cy="16209.6" r="150" /> 
</g>
<g style="fill:#FFFFFF; fill-opacity:1.0; 
stroke:#FFFFFF; stroke-width:39.3701; stroke-opacity:1; 
stroke-linecap:round; stroke-linejoin:round;">
</g>
<g style="fill:#FFFFFF; fill-opacity:1.0; 
stroke:#FFFFFF; stroke-width:0; stroke-opacity:1; 
stroke-linecap:round; stroke-linejoin:round;">
<circle cx="25572.8" cy="16209.6" r="150" /> 
</g>
<g style="fill:#FFFFFF; fill-opacity:1.0; 
stroke:#FFFFFF; stroke-width:39.3701; stroke-opacity:1; 
stroke-linecap:round; stroke-linejoin:round;">
</g>
<g style="fill:#FFFFFF; fill-opacity:1.0; 
stroke:#FFFFFF; stroke-width:0; stroke-opacity:1; 
stroke-linecap:round; stroke-linejoin:round;">
<circle cx="23572.8" cy="2709.6" r="150" /> 
</g>
<g style="fill:#FFFFFF; fill-opacity:1.0; 
stroke:#FFFFFF; stroke-width:39.3701; stroke-opacity:1; 
stroke-linecap:round; stroke-linejoin:round;">
</g>
<g style="fill:#FFFFFF; fill-opacity:1.0; 
stroke:#FFFFFF; stroke-width:0; stroke-opacity:1; 
stroke-linecap:round; stroke-linejoin:round;">
<circle cx="25572.8" cy="2709.6" r="150" /> 
</g>
<g style="fill:#FFFFFF; fill-opacity:1.0; 
stroke:#FFFFFF; stroke-width:39.3701; stroke-opacity:1; 
stroke-linecap:round; stroke-linejoin:round;">
</g>
<g style="fill:#FFFFFF; fill-opacity:1.0; 
stroke:#FFFFFF; stroke-width:0; stroke-opacity:1; 
stroke-linecap:round; stroke-linejoin:round;">
<circle cx="35322.8" cy="16459.6" r="197" /> 
</g>
<g style="fill:#FFFFFF; fill-opacity:1.0; 
stroke:#FFFFFF; stroke-width:39.3701; stroke-opacity:1; 
stroke-linecap:round; stroke-linejoin:round;">
</g>
<g style="fill:#FFFFFF; fill-opacity:1.0; 
stroke:#FFFFFF; stroke-width:0; stroke-opacity:1; 
stroke-linecap:round; stroke-linejoin:round;">
<circle cx="34322.8" cy="16459.6" r="197" /> 
</g>
<g style="fill:#FFFFFF; fill-opacity:1.0; 
stroke:#FFFFFF; stroke-width:39.3701; stroke-opacity:1; 
stroke-linecap:round; stroke-linejoin:round;">
</g>
<g style="fill:#FFFFFF; fill-opacity:1.0; 
stroke:#FFFFFF; stroke-width:0; stroke-opacity:1; 
stroke-linecap:round; stroke-linejoin:round;">
<circle cx="3572.83" cy="16209.6" r="216" /> 
</g>
<g style="fill:#FFFFFF; fill-opacity:1.0; 
stroke:#FFFFFF; stroke-width:39.3701; stroke-opacity:1; 
stroke-linecap:round; stroke-linejoin:round;">
</g>
<g style="fill:#FFFFFF; fill-opacity:1.0; 
stroke:#FFFFFF; stroke-width:0; stroke-opacity:1; 
stroke-linecap:round; stroke-linejoin:round;">
<circle cx="3572.83" cy="15209.6" r="216" /> 
</g>
<g style="fill:#FFFFFF; fill-opacity:1.0; 
stroke:#FFFFFF; stroke-width:39.3701; stroke-opacity:1; 
stroke-linecap:round; stroke-linejoin:round;">
</g>
<g style="fill:#FFFFFF; fill-opacity:1.0; 
stroke:#FFFFFF; stroke-width:0; stroke-opacity:1; 
stroke-linecap:round; stroke-linejoin:round;">
<circle cx="3572.83" cy="3709.6" r="216" /> 
</g>
<g style="fill:#FFFFFF; fill-opacity:1.0; 
stroke:#FFFFFF; stroke-width:39.3701; stroke-opacity:1; 
stroke-linecap:round; stroke-linejoin:round;">
</g>
<g style="fill:#FFFFFF; fill-opacity:1.0; 
stroke:#FFFFFF; stroke-width:0; stroke-opacity:1; 
stroke-linecap:round; stroke-linejoin:round;">
<circle cx="3572.83" cy="2709.6" r="216" /> 
</g>
<g style="fill:#FFFFFF; fill-opacity:1.0; 
stroke:#FFFFFF; stroke-width:39.3701; stroke-opacity:1; 
stroke-linecap:round; stroke-linejoin:round;">
</g>
<g style="fill:#FFFFFF; fill-opacity:1.0; 
stroke:#FFFFFF; stroke-width:0; stroke-opacity:1; 
stroke-linecap:round; stroke-linejoin:round;">
<circle cx="31322.8" cy="16959.6" r="100.394" /> 
</g>
<g style="fill:#FFFFFF; fill-opacity:1.0; 
stroke:#FFFFFF; stroke-width:39.3701; stroke-opacity:1; 
stroke-linecap:round; stroke-linejoin:round;">
</g>
<g style="fill:#FFFFFF; fill-opacity:1.0; 
stroke:#FFFFFF; stroke-width:0; stroke-opacity:1; 
stroke-linecap:round; stroke-linejoin:round;">
<circle cx="29322.8" cy="16959.6" r="100.394" /> 
</g>
<g style="fill:#FFFFFF; fill-opacity:1.0; 
stroke:#FFFFFF; stroke-width:39.3701; stroke-opacity:1; 
stroke-linecap:round; stroke-linejoin:round;">
</g>
<g style="fill:#FFFFFF; fill-opacity:1.0; 
stroke:#FFFFFF; stroke-width:0; stroke-opacity:1; 
stroke-linecap:round; stroke-linejoin:round;">
<circle cx="30322.8" cy="16959.6" r="100.394" /> 
</g>
<g style="fill:#FFFFFF; fill-opacity:1.0; 
stroke:#FFFFFF; stroke-width:39.3701; stroke-opacity:1; 
stroke-linecap:round; stroke-linejoin:round;">
</g>
<g style="fill:#FFFFFF; fill-opacity:1.0; 
stroke:#FFFFFF; stroke-width:0; stroke-opacity:1; 
stroke-linecap:round; stroke-linejoin:round;">
<circle cx="31072.8" cy="2209.6" r="100.394" /> 
</g>
<g style="fill:#FFFFFF; fill-opacity:1.0; 
stroke:#FFFFFF; stroke-width:39.3701; stroke-opacity:1; 
stroke-linecap:round; stroke-linejoin:round;">
</g>
<g style="fill:#FFFFFF; fill-opacity:1.0; 
stroke:#FFFFFF; stroke-width:0; stroke-opacity:1; 
stroke-linecap:round; stroke-linejoin:round;">
<circle cx="29072.8" cy="2209.6" r="100.394" /> 
</g>
<g style="fill:#FFFFFF; fill-opacity:1.0; 
stroke:#FFFFFF; stroke-width:39.3701; stroke-opacity:1; 
stroke-linecap:round; stroke-linejoin:round;">
</g>
<g style="fill:#FFFFFF; fill-opacity:1.0; 
stroke:#FFFFFF; stroke-width:0; stroke-opacity:1; 
stroke-linecap:round; stroke-linejoin:round;">
<circle cx="30072.8" cy="2209.6" r="100.394" /> 
</g>
<g style="fill:#FFFFFF; fill-opacity:1.0; 
stroke:#FFFFFF; stroke-width:39.3701; stroke-opacity:1; 
stroke-linecap:round; stroke-linejoin:round;">
</g>
<g style="fill:#FFFFFF; fill-opacity:1.0; 
stroke:#FFFFFF; stroke-width:0; stroke-opacity:1; 
stroke-linecap:round; stroke-linejoin:round;">
<circle cx="29072.8" cy="11209.6" r="157.48" /> 
</g>
<g style="fill:#FFFFFF; fill-opacity:1.0; 
stroke:#FFFFFF; stroke-width:39.3701; stroke-opacity:1; 
stroke-linecap:round; stroke-linejoin:round;">
</g>
<g style="fill:#FFFFFF; fill-opacity:1.0; 
stroke:#FFFFFF; stroke-width:0; stroke-opacity:1; 
stroke-linecap:round; stroke-linejoin:round;">
<circle cx="32072.8" cy="14209.6" r="157.48" /> 
</g>
<g style="fill:#FFFFFF; fill-opacity:1.0; 
stroke:#FFFFFF; stroke-width:39.3701; stroke-opacity:1; 
stroke-linecap:round; stroke-linejoin:round;">
</g>
<g style="fill:#FFFFFF; fill-opacity:1.0; 
stroke:#FFFFFF; stroke-width:0; stroke-opacity:1; 
stroke-linecap:round; stroke-linejoin:round;">
<circle cx="29072.8" cy="12209.6" r="157.48" /> 
</g>
<g style="fill:#FFFFFF; fill-opacity:1.0; 
stroke:#FFFFFF; stroke-width:39.3701; stroke-opacity:1; 
stroke-linecap:round; stroke-linejoin:round;">
</g>
<g style="fill:#FFFFFF; fill-opacity:1.0; 
stroke:#FFFFFF; stroke-width:0; stroke-opacity:1; 
stroke-linecap:round; stroke-linejoin:round;">
<circle cx="32072.8" cy="13209.6" r="157.48" /> 
</g>
<g style="fill:#FFFFFF; fill-opacity:1.0; 
stroke:#FFFFFF; stroke-width:39.3701; stroke-opacity:1; 
stroke-linecap:round; stroke-linejoin:round;">
</g>
<g style="fill:#FFFFFF; fill-opacity:1.0; 
stroke:#FFFFFF; stroke-width:0; stroke-opacity:1; 
stroke-linecap:round; stroke-linejoin:round;">
<circle cx="29072.8" cy="13209.6" r="157.48" /> 
</g>
<g style="fill:#FFFFFF; fill-opacity:1.0; 
stroke:#FFFFFF; stroke-width:39.3701; stroke-opacity:1; 
stroke-linecap:round; stroke-linejoin:round;">
</g>
<g style="fill:#FFFFFF; fill-opacity:1.0; 
stroke:#FFFFFF; stroke-width:0; stroke-opacity:1; 
stroke-linecap:round; stroke-linejoin:round;">
<circle cx="32072.8" cy="12209.6" r="157.48" /> 
</g>
<g style="fill:#FFFFFF; fill-opacity:1.0; 
stroke:#FFFFFF; stroke-width:39.3701; stroke-opacity:1; 
stroke-linecap:round; stroke-linejoin:round;">
</g>
<g style="fill:#FFFFFF; fill-opacity:1.0; 
stroke:#FFFFFF; stroke-width:0; stroke-opacity:1; 
stroke-linecap:round; stroke-linejoin:round;">
<circle cx="29072.8" cy="14209.6" r="157.48" /> 
</g>
<g style="fill:#FFFFFF; fill-opacity:1.0; 
stroke:#FFFFFF; stroke-width:39.3701; stroke-opacity:1; 
stroke-linecap:round; stroke-linejoin:round;">
</g>
<g style="fill:#FFFFFF; fill-opacity:1.0; 
stroke:#FFFFFF; stroke-width:0; stroke-opacity:1; 
stroke-linecap:round; stroke-linejoin:round;">
<circle cx="32072.8" cy="11209.6" r="157.48" /> 
</g>
<g style="fill:#FFFFFF; fill-opacity:1.0; 
stroke:#FFFFFF; stroke-width:39.3701; stroke-opacity:1; 
stroke-linecap:round; stroke-linejoin:round;">
</g>
<g style="fill:#FFFFFF; fill-opacity:1.0; 
stroke:#FFFFFF; stroke-width:0; stroke-opacity:1; 
stroke-linecap:round; stroke-linejoin:round;">
<circle cx="3572.83" cy="11459.6" r="157.48" /> 
</g>
<g style="fill:#FFFFFF; fill-opacity:1.0; 
stroke:#FFFFFF; stroke-width:39.3701; stroke-opacity:1; 
stroke-linecap:round; stroke-linejoin:round;">
</g>
<g style="fill:#FFFFFF; fill-opacity:1.0; 
stroke:#FFFFFF; stroke-width:0; stroke-opacity:1; 
stroke-linecap:round; stroke-linejoin:round;">
<circle cx="3572.83" cy="12247" r="157.48" /> 
</g>
<g style="fill:#FFFFFF; fill-opacity:1.0; 
stroke:#FFFFFF; stroke-width:39.3701; stroke-opacity:1; 
stroke-linecap:round; stroke-linejoin:round;">
</g>
<g style="fill:#FFFFFF; fill-opacity:1.0; 
stroke:#FFFFFF; stroke-width:0; stroke-opacity:1; 
stroke-linecap:round; stroke-linejoin:round;">
<circle cx="3572.83" cy="10672.2" r="157.48" /> 
</g>
<g style="fill:#FFFFFF; fill-opacity:1.0; 
stroke:#FFFFFF; stroke-width:39.3701; stroke-opacity:1; 
stroke-linecap:round; stroke-linejoin:round;">
</g>
<g style="fill:#FFFFFF; fill-opacity:1.0; 
stroke:#FFFFFF; stroke-width:0; stroke-opacity:1; 
stroke-linecap:round; stroke-linejoin:round;">
<circle cx="29072.8" cy="3709.6" r="157.48" /> 
</g>
<g style="fill:#FFFFFF; fill-opacity:1.0; 
stroke:#FFFFFF; stroke-width:39.3701; stroke-opacity:1; 
stroke-linecap:round; stroke-linejoin:round;">
</g>
<g style="fill:#FFFFFF; fill-opacity:1.0; 
stroke:#FFFFFF; stroke-width:0; stroke-opacity:1; 
stroke-linecap:round; stroke-linejoin:round;">
<circle cx="32072.8" cy="6709.6" r="157.48" /> 
</g>
<g style="fill:#FFFFFF; fill-opacity:1.0; 
stroke:#FFFFFF; stroke-width:39.3701; stroke-opacity:1; 
stroke-linecap:round; stroke-linejoin:round;">
</g>
<g style="fill:#FFFFFF; fill-opacity:1.0; 
stroke:#FFFFFF; stroke-width:0; stroke-opacity:1; 
stroke-linecap:round; stroke-linejoin:round;">
<circle cx="29072.8" cy="4709.6" r="157.48" /> 
</g>
<g style="fill:#FFFFFF; fill-opacity:1.0; 
stroke:#FFFFFF; stroke-width:39.3701; stroke-opacity:1; 
stroke-linecap:round; stroke-linejoin:round;">
</g>
<g style="fill:#FFFFFF; fill-opacity:1.0; 
stroke:#FFFFFF; stroke-width:0; stroke-opacity:1; 
stroke-linecap:round; stroke-linejoin:round;">
<circle cx="32072.8" cy="5709.6" r="157.48" /> 
</g>
<g style="fill:#FFFFFF; fill-opacity:1.0; 
stroke:#FFFFFF; stroke-width:39.3701; stroke-opacity:1; 
stroke-linecap:round; stroke-linejoin:round;">
</g>
<g style="fill:#FFFFFF; fill-opacity:1.0; 
stroke:#FFFFFF; stroke-width:0; stroke-opacity:1; 
stroke-linecap:round; stroke-linejoin:round;">
<circle cx="29072.8" cy="5709.6" r="157.48" /> 
</g>
<g style="fill:#FFFFFF; fill-opacity:1.0; 
stroke:#FFFFFF; stroke-width:39.3701; stroke-opacity:1; 
stroke-linecap:round; stroke-linejoin:round;">
</g>
<g style="fill:#FFFFFF; fill-opacity:1.0; 
stroke:#FFFFFF; stroke-width:0; stroke-opacity:1; 
stroke-linecap:round; stroke-linejoin:round;">
<circle cx="32072.8" cy="4709.6" r="157.48" /> 
</g>
<g style="fill:#FFFFFF; fill-opacity:1.0; 
stroke:#FFFFFF; stroke-width:39.3701; stroke-opacity:1; 
stroke-linecap:round; stroke-linejoin:round;">
</g>
<g style="fill:#FFFFFF; fill-opacity:1.0; 
stroke:#FFFFFF; stroke-width:0; stroke-opacity:1; 
stroke-linecap:round; stroke-linejoin:round;">
<circle cx="29072.8" cy="6709.6" r="157.48" /> 
</g>
<g style="fill:#FFFFFF; fill-opacity:1.0; 
stroke:#FFFFFF; stroke-width:39.3701; stroke-opacity:1; 
stroke-linecap:round; stroke-linejoin:round;">
</g>
<g style="fill:#FFFFFF; fill-opacity:1.0; 
stroke:#FFFFFF; stroke-width:0; stroke-opacity:1; 
stroke-linecap:round; stroke-linejoin:round;">
<circle cx="32072.8" cy="3709.6" r="157.48" /> 
</g>
<g style="fill:#FFFFFF; fill-opacity:1.0; 
stroke:#FFFFFF; stroke-width:39.3701; stroke-opacity:1; 
stroke-linecap:round; stroke-linejoin:round;">
</g>
<g style="fill:#000000; fill-opacity:1.0; 
stroke:#000000; stroke-width:39.3701; stroke-opacity:1; 
stroke-linecap:round; stroke-linejoin:round;">
</g>
<g style="fill:#000000; fill-opacity:1.0; 
stroke:#000000; stroke-width:59.0551; stroke-opacity:1; 
stroke-linecap:round; stroke-linejoin:round;">
</g>
<g style="fill:#000000; fill-opacity:0.0; 
stroke:#000000; stroke-width:59.0551; stroke-opacity:1; 
stroke-linecap:round; stroke-linejoin:round;">
<circle cx="13572.8" cy="15209.6" r="500" /> 
<circle cx="13572.8" cy="3709.6" r="500" /> 
<path d="M72 18209
L72 709
" />
<path d="M38072 18209
L72 18209
" />
<path d="M38072 709
L38072 18209
" />
<path d="M72 709
L38072 709
" />
<circle cx="1072.83" cy="17209.6" r="500" /> 
<circle cx="1072.83" cy="1709.6" r="500" /> 
<circle cx="37072.8" cy="17209.6" r="500" /> 
<circle cx="37072.8" cy="1709.6" r="500" /> 
</g> 
</svg>
