<?xml version="1.0" standalone="no"?>
 <!DOCTYPE svg PUBLIC "-//W3C//DTD SVG 1.1//EN" 
 "http://www.w3.org/Graphics/SVG/1.1/DTD/svg11.dtd"> 
<svg xmlns="http://www.w3.org/2000/svg" version="1.1" 
    width="9.90346cm" height="5.02158cm" viewBox="0 0 38990 19770 ">
<title>SVG Picture created as radar_03-brd.svg date 2017/01/29 01:29:23 </title>
  <desc>Picture generated by PCBNEW </desc>
<g style="fill:#000000; fill-opacity:1;stroke:#000000; stroke-opacity:1;
stroke-linecap:round; stroke-linejoin:round; "
 transform="translate(0 0) scale(1 1)">
</g>
<g style="fill:#000000; fill-opacity:0.0; 
stroke:#000000; stroke-width:-0.000393701; stroke-opacity:1; 
stroke-linecap:round; stroke-linejoin:round;">
</g>
<g style="fill:#000000; fill-opacity:1.0; 
stroke:#000000; stroke-width:0; stroke-opacity:1; 
stroke-linecap:round; stroke-linejoin:round;">
<circle cx="7572.83" cy="17063" r="300" /> 
</g>
<g style="fill:#000000; fill-opacity:1.0; 
stroke:#000000; stroke-width:39.3701; stroke-opacity:1; 
stroke-linecap:round; stroke-linejoin:round;">
</g>
<g style="fill:#000000; fill-opacity:1.0; 
stroke:#000000; stroke-width:0; stroke-opacity:1; 
stroke-linecap:round; stroke-linejoin:round;">
<circle cx="9572.83" cy="17063" r="300" /> 
</g>
<g style="fill:#000000; fill-opacity:1.0; 
stroke:#000000; stroke-width:39.3701; stroke-opacity:1; 
stroke-linecap:round; stroke-linejoin:round;">
</g>
<g style="fill:#000000; fill-opacity:1.0; 
stroke:#000000; stroke-width:0; stroke-opacity:1; 
stroke-linecap:round; stroke-linejoin:round;">
<circle cx="9572.83" cy="3562.99" r="300" /> 
</g>
<g style="fill:#000000; fill-opacity:1.0; 
stroke:#000000; stroke-width:39.3701; stroke-opacity:1; 
stroke-linecap:round; stroke-linejoin:round;">
</g>
<g style="fill:#000000; fill-opacity:1.0; 
stroke:#000000; stroke-width:0; stroke-opacity:1; 
stroke-linecap:round; stroke-linejoin:round;">
<circle cx="11572.8" cy="3562.99" r="300" /> 
</g>
<g style="fill:#000000; fill-opacity:1.0; 
stroke:#000000; stroke-width:39.3701; stroke-opacity:1; 
stroke-linecap:round; stroke-linejoin:round;">
</g>
<g style="fill:#000000; fill-opacity:1.0; 
stroke:#000000; stroke-width:0; stroke-opacity:1; 
stroke-linecap:round; stroke-linejoin:round;">
<circle cx="23572.8" cy="17063" r="300" /> 
</g>
<g style="fill:#000000; fill-opacity:1.0; 
stroke:#000000; stroke-width:39.3701; stroke-opacity:1; 
stroke-linecap:round; stroke-linejoin:round;">
</g>
<g style="fill:#000000; fill-opacity:1.0; 
stroke:#000000; stroke-width:0; stroke-opacity:1; 
stroke-linecap:round; stroke-linejoin:round;">
<circle cx="25572.8" cy="17063" r="300" /> 
</g>
<g style="fill:#000000; fill-opacity:1.0; 
stroke:#000000; stroke-width:39.3701; stroke-opacity:1; 
stroke-linecap:round; stroke-linejoin:round;">
</g>
<g style="fill:#000000; fill-opacity:1.0; 
stroke:#000000; stroke-width:0; stroke-opacity:1; 
stroke-linecap:round; stroke-linejoin:round;">
<circle cx="23572.8" cy="3562.99" r="300" /> 
</g>
<g style="fill:#000000; fill-opacity:1.0; 
stroke:#000000; stroke-width:39.3701; stroke-opacity:1; 
stroke-linecap:round; stroke-linejoin:round;">
</g>
<g style="fill:#000000; fill-opacity:1.0; 
stroke:#000000; stroke-width:0; stroke-opacity:1; 
stroke-linecap:round; stroke-linejoin:round;">
<circle cx="25572.8" cy="3562.99" r="300" /> 
</g>
<g style="fill:#000000; fill-opacity:1.0; 
stroke:#000000; stroke-width:39.3701; stroke-opacity:1; 
stroke-linecap:round; stroke-linejoin:round;">
</g>
<g style="fill:#000000; fill-opacity:1.0; 
stroke:#000000; stroke-width:0; stroke-opacity:1; 
stroke-linecap:round; stroke-linejoin:round;">
<polyline style="fill-rule:evenodd;"
points="33122,8362
33122,10262
32022,10262
32022,8362
33122,8362
" /> 
<polyline style="fill-rule:evenodd;"
points="35622,8362
35622,10262
34522,10262
34522,8362
35622,8362
" /> 
<polyline style="fill-rule:evenodd;"
points="22272,15162
22272,15962
21672,15962
21672,15162
22272,15162
" /> 
<polyline style="fill-rule:evenodd;"
points="20972,15162
20972,15962
20372,15962
20372,15162
20972,15162
" /> 
<polyline style="fill-rule:evenodd;"
points="8622,14962
8622,14162
9222,14162
9222,14962
8622,14962
" /> 
<polyline style="fill-rule:evenodd;"
points="9922,14962
9922,14162
10522,14162
10522,14962
9922,14962
" /> 
<polyline style="fill-rule:evenodd;"
points="8141,13127
8141,12498
8929,12498
8929,13127
8141,13127
" /> 
<polyline style="fill-rule:evenodd;"
points="9716,13127
9716,12498
10503,12498
10503,13127
9716,13127
" /> 
<polyline style="fill-rule:evenodd;"
points="23391,14377
23391,13748
24179,13748
24179,14377
23391,14377
" /> 
<polyline style="fill-rule:evenodd;"
points="24966,14377
24966,13748
25753,13748
25753,14377
24966,14377
" /> 
<polyline style="fill-rule:evenodd;"
points="30887,14994
30257,14994
30257,14206
30887,14206
30887,14994
" /> 
<polyline style="fill-rule:evenodd;"
points="30887,13419
30257,13419
30257,12631
30887,12631
30887,13419
" /> 
<polyline style="fill-rule:evenodd;"
points="17372,15962
17372,15162
17972,15162
17972,15962
17372,15962
" /> 
<polyline style="fill-rule:evenodd;"
points="18672,15962
18672,15162
19272,15162
19272,15962
18672,15962
" /> 
<polyline style="fill-rule:evenodd;"
points="8141,8627
8141,7998
8929,7998
8929,8627
8141,8627
" /> 
<polyline style="fill-rule:evenodd;"
points="9716,8627
9716,7998
10503,7998
10503,8627
9716,8627
" /> 
<polyline style="fill-rule:evenodd;"
points="32422,16112
33222,16112
33222,16712
32422,16712
32422,16112
" /> 
<polyline style="fill-rule:evenodd;"
points="32422,17412
33222,17412
33222,18012
32422,18012
32422,17412
" /> 
<polyline style="fill-rule:evenodd;"
points="9522,11512
9522,9612
10622,9612
10622,11512
9522,11512
" /> 
<polyline style="fill-rule:evenodd;"
points="7022,11512
7022,9612
8122,9612
8122,11512
7022,11512
" /> 
<polyline style="fill-rule:evenodd;"
points="18137,11244
17507,11244
17507,10456
18137,10456
18137,11244
" /> 
<polyline style="fill-rule:evenodd;"
points="18137,9669
17507,9669
17507,8881
18137,8881
18137,9669
" /> 
<polyline style="fill-rule:evenodd;"
points="18922,9112
19722,9112
19722,9712
18922,9712
18922,9112
" /> 
<polyline style="fill-rule:evenodd;"
points="18922,10412
19722,10412
19722,11012
18922,11012
18922,10412
" /> 
<polyline style="fill-rule:evenodd;"
points="33141,14127
33141,13498
33929,13498
33929,14127
33141,14127
" /> 
<polyline style="fill-rule:evenodd;"
points="34716,14127
34716,13498
35503,13498
35503,14127
34716,14127
" /> 
<polyline style="fill-rule:evenodd;"
points="35022,10912
35022,11712
34422,11712
34422,10912
35022,10912
" /> 
<polyline style="fill-rule:evenodd;"
points="33722,10912
33722,11712
33122,11712
33122,10912
33722,10912
" /> 
<polyline style="fill-rule:evenodd;"
points="26122,9712
26122,8912
26722,8912
26722,9712
26122,9712
" /> 
<polyline style="fill-rule:evenodd;"
points="27422,9712
27422,8912
28022,8912
28022,9712
27422,9712
" /> 
<polyline style="fill-rule:evenodd;"
points="30522,10162
30522,10962
29922,10962
29922,10162
30522,10162
" /> 
<polyline style="fill-rule:evenodd;"
points="29222,10162
29222,10962
28622,10962
28622,10162
29222,10162
" /> 
<polyline style="fill-rule:evenodd;"
points="30887,7494
30257,7494
30257,6706
30887,6706
30887,7494
" /> 
<polyline style="fill-rule:evenodd;"
points="30887,5919
30257,5919
30257,5131
30887,5131
30887,5919
" /> 
<polyline style="fill-rule:evenodd;"
points="3127,9108
3127,8517
3718,8517
3718,9108
3127,9108
" /> 
<polyline style="fill-rule:evenodd;"
points="4427,9108
4427,8517
5017,8517
5017,9108
4427,9108
" /> 
<polyline style="fill-rule:evenodd;"
points="34929,16919
35716,16919
35716,17706
34929,17706
34929,16919
" /> 
<circle cx="34322.8" cy="17313" r="393.701" /> 
</g>
<g style="fill:#000000; fill-opacity:1.0; 
stroke:#000000; stroke-width:39.3701; stroke-opacity:1; 
stroke-linecap:round; stroke-linejoin:round;">
</g>
<g style="fill:#000000; fill-opacity:1.0; 
stroke:#000000; stroke-width:787; stroke-opacity:1; 
stroke-linecap:round; stroke-linejoin:round;">
</g>
<g style="fill:#000000; fill-opacity:0.0; 
stroke:#000000; stroke-width:787; stroke-opacity:1; 
stroke-linecap:round; stroke-linejoin:round;">
<path d="M3572 17062
L3572 17062
" />
</g>
<g style="fill:#000000; fill-opacity:0.0; 
stroke:#000000; stroke-width:0; stroke-opacity:1; 
stroke-linecap:round; stroke-linejoin:round;">
</g>
<g style="fill:#000000; fill-opacity:1.0; 
stroke:#000000; stroke-width:0; stroke-opacity:1; 
stroke-linecap:round; stroke-linejoin:round;">
<polyline style="fill-rule:evenodd;"
points="3179,15669
3966,15669
3966,16456
3179,16456
3179,15669
" /> 
</g>
<g style="fill:#000000; fill-opacity:1.0; 
stroke:#000000; stroke-width:787; stroke-opacity:1; 
stroke-linecap:round; stroke-linejoin:round;">
</g>
<g style="fill:#000000; fill-opacity:0.0; 
stroke:#000000; stroke-width:787; stroke-opacity:1; 
stroke-linecap:round; stroke-linejoin:round;">
<path d="M3572 4562
L3572 4562
" />
</g>
<g style="fill:#000000; fill-opacity:0.0; 
stroke:#000000; stroke-width:0; stroke-opacity:1; 
stroke-linecap:round; stroke-linejoin:round;">
</g>
<g style="fill:#000000; fill-opacity:1.0; 
stroke:#000000; stroke-width:0; stroke-opacity:1; 
stroke-linecap:round; stroke-linejoin:round;">
<polyline style="fill-rule:evenodd;"
points="3179,3169
3966,3169
3966,3956
3179,3956
3179,3169
" /> 
<polyline style="fill-rule:evenodd;"
points="21003,16728
21003,17397
20216,17397
20216,16728
21003,16728
" /> 
<polyline style="fill-rule:evenodd;"
points="19429,16728
19429,17397
18641,17397
18641,16728
19429,16728
" /> 
<polyline style="fill-rule:evenodd;"
points="23391,12897
23391,12228
24179,12228
24179,12897
23391,12897
" /> 
<polyline style="fill-rule:evenodd;"
points="24966,12897
24966,12228
25753,12228
25753,12897
24966,12897
" /> 
<polyline style="fill-rule:evenodd;"
points="17141,14397
17141,13728
17929,13728
17929,14397
17141,14397
" /> 
<polyline style="fill-rule:evenodd;"
points="18716,14397
18716,13728
19503,13728
19503,14397
18716,14397
" /> 
<polyline style="fill-rule:evenodd;"
points="22391,9147
22391,8478
23179,8478
23179,9147
22391,9147
" /> 
<polyline style="fill-rule:evenodd;"
points="23966,9147
23966,8478
24753,8478
24753,9147
23966,9147
" /> 
<polyline style="fill-rule:evenodd;"
points="21488,12131
22157,12131
22157,12919
21488,12919
21488,12131
" /> 
<polyline style="fill-rule:evenodd;"
points="21488,13706
22157,13706
22157,14494
21488,14494
21488,13706
" /> 
<polyline style="fill-rule:evenodd;"
points="2641,7647
2641,6978
3429,6978
3429,7647
2641,7647
" /> 
<polyline style="fill-rule:evenodd;"
points="4216,7647
4216,6978
5003,6978
5003,7647
4216,7647
" /> 
<polyline style="fill-rule:evenodd;"
points="21157,10994
20488,10994
20488,10206
21157,10206
21157,10994
" /> 
<polyline style="fill-rule:evenodd;"
points="21157,9419
20488,9419
20488,8631
21157,8631
21157,9419
" /> 
<polyline style="fill-rule:evenodd;"
points="33141,12897
33141,12228
33929,12228
33929,12897
33141,12897
" /> 
<polyline style="fill-rule:evenodd;"
points="34716,12897
34716,12228
35503,12228
35503,12897
34716,12897
" /> 
<polyline style="fill-rule:evenodd;"
points="25391,7147
25391,6478
26179,6478
26179,7147
25391,7147
" /> 
<polyline style="fill-rule:evenodd;"
points="26966,7147
26966,6478
27753,6478
27753,7147
26966,7147
" /> 
<polyline style="fill-rule:evenodd;"
points="31003,8978
31003,9647
30216,9647
30216,8978
31003,8978
" /> 
<polyline style="fill-rule:evenodd;"
points="29429,8978
29429,9647
28641,9647
28641,8978
29429,8978
" /> 
<polyline style="fill-rule:evenodd;"
points="27753,4978
27753,5647
26966,5647
26966,4978
27753,4978
" /> 
<polyline style="fill-rule:evenodd;"
points="26179,4978
26179,5647
25391,5647
25391,4978
26179,4978
" /> 
<polyline style="fill-rule:evenodd;"
points="33141,7897
33141,7228
33929,7228
33929,7897
33141,7897
" /> 
<polyline style="fill-rule:evenodd;"
points="34716,7897
34716,7228
35503,7228
35503,7897
34716,7897
" /> 
<polyline style="fill-rule:evenodd;"
points="33141,3647
33141,2978
33929,2978
33929,3647
33141,3647
" /> 
<polyline style="fill-rule:evenodd;"
points="34716,3647
34716,2978
35503,2978
35503,3647
34716,3647
" /> 
<polyline style="fill-rule:evenodd;"
points="35503,14978
35503,15647
34716,15647
34716,14978
35503,14978
" /> 
<polyline style="fill-rule:evenodd;"
points="33929,14978
33929,15647
33141,15647
33141,14978
33929,14978
" /> 
<circle cx="31322.8" cy="17813" r="297.244" /> 
</g>
<g style="fill:#000000; fill-opacity:1.0; 
stroke:#000000; stroke-width:39.3701; stroke-opacity:1; 
stroke-linecap:round; stroke-linejoin:round;">
</g>
<g style="fill:#000000; fill-opacity:1.0; 
stroke:#000000; stroke-width:0; stroke-opacity:1; 
stroke-linecap:round; stroke-linejoin:round;">
<polyline style="fill-rule:evenodd;"
points="29025,18110
29025,17515
29620,17515
29620,18110
29025,18110
" /> 
<circle cx="30322.8" cy="17813" r="297.244" /> 
</g>
<g style="fill:#000000; fill-opacity:1.0; 
stroke:#000000; stroke-width:39.3701; stroke-opacity:1; 
stroke-linecap:round; stroke-linejoin:round;">
</g>
<g style="fill:#000000; fill-opacity:1.0; 
stroke:#000000; stroke-width:0; stroke-opacity:1; 
stroke-linecap:round; stroke-linejoin:round;">
<circle cx="31072.8" cy="3062.99" r="297.244" /> 
</g>
<g style="fill:#000000; fill-opacity:1.0; 
stroke:#000000; stroke-width:39.3701; stroke-opacity:1; 
stroke-linecap:round; stroke-linejoin:round;">
</g>
<g style="fill:#000000; fill-opacity:1.0; 
stroke:#000000; stroke-width:0; stroke-opacity:1; 
stroke-linecap:round; stroke-linejoin:round;">
<polyline style="fill-rule:evenodd;"
points="28775,3360
28775,2765
29370,2765
29370,3360
28775,3360
" /> 
<circle cx="30072.8" cy="3062.99" r="297.244" /> 
</g>
<g style="fill:#000000; fill-opacity:1.0; 
stroke:#000000; stroke-width:39.3701; stroke-opacity:1; 
stroke-linecap:round; stroke-linejoin:round;">
</g>
<g style="fill:#000000; fill-opacity:1.0; 
stroke:#000000; stroke-width:0; stroke-opacity:1; 
stroke-linecap:round; stroke-linejoin:round;">
<polyline style="fill-rule:evenodd;"
points="28757,12377
28757,11748
29387,11748
29387,12377
28757,12377
" /> 
</g>
<g style="fill:#000000; fill-opacity:1.0; 
stroke:#000000; stroke-width:629.921; stroke-opacity:1; 
stroke-linecap:round; stroke-linejoin:round;">
</g>
<g style="fill:#000000; fill-opacity:0.0; 
stroke:#000000; stroke-width:629.921; stroke-opacity:1; 
stroke-linecap:round; stroke-linejoin:round;">
<path d="M32072 15062
L32072 15062
" />
<path d="M29072 13062
L29072 13062
" />
<path d="M32072 14062
L32072 14062
" />
<path d="M29072 14062
L29072 14062
" />
<path d="M32072 13062
L32072 13062
" />
<path d="M29072 15062
L29072 15062
" />
<path d="M32072 12062
L32072 12062
" />
</g>
<g style="fill:#000000; fill-opacity:0.0; 
stroke:#000000; stroke-width:551.181; stroke-opacity:1; 
stroke-linecap:round; stroke-linejoin:round;">
<path d="M3356 12312
L3789 12312
" />
<path d="M3356 13100
L3789 13100
" />
<path d="M3356 11525
L3789 11525
" />
</g>
<g style="fill:#000000; fill-opacity:0.0; 
stroke:#000000; stroke-width:0; stroke-opacity:1; 
stroke-linecap:round; stroke-linejoin:round;">
</g>
<g style="fill:#000000; fill-opacity:1.0; 
stroke:#000000; stroke-width:0; stroke-opacity:1; 
stroke-linecap:round; stroke-linejoin:round;">
<polyline style="fill-rule:evenodd;"
points="28757,4877
28757,4248
29387,4248
29387,4877
28757,4877
" /> 
</g>
<g style="fill:#000000; fill-opacity:1.0; 
stroke:#000000; stroke-width:629.921; stroke-opacity:1; 
stroke-linecap:round; stroke-linejoin:round;">
</g>
<g style="fill:#000000; fill-opacity:0.0; 
stroke:#000000; stroke-width:629.921; stroke-opacity:1; 
stroke-linecap:round; stroke-linejoin:round;">
<path d="M32072 7562
L32072 7562
" />
<path d="M29072 5562
L29072 5562
" />
<path d="M32072 6562
L32072 6562
" />
<path d="M29072 6562
L29072 6562
" />
<path d="M32072 5562
L32072 5562
" />
<path d="M29072 7562
L29072 7562
" />
<path d="M32072 4562
L32072 4562
" />
</g>
<g style="fill:#000000; fill-opacity:0.0; 
stroke:#000000; stroke-width:0; stroke-opacity:1; 
stroke-linecap:round; stroke-linejoin:round;">
</g>
<g style="fill:#000000; fill-opacity:1.0; 
stroke:#000000; stroke-width:0; stroke-opacity:1; 
stroke-linecap:round; stroke-linejoin:round;">
<polyline style="fill-rule:evenodd;"
points="6041,12285
7104,12285
7104,13663
6041,13663
6041,12285
" /> 
<polyline style="fill-rule:evenodd;"
points="6041,14962
7104,14962
7104,16340
6041,16340
6041,14962
" /> 
<polyline style="fill-rule:evenodd;"
points="36541,8035
37604,8035
37604,9413
36541,9413
36541,8035
" /> 
<polyline style="fill-rule:evenodd;"
points="36541,10712
37604,10712
37604,12090
36541,12090
36541,10712
" /> 
<polyline style="fill-rule:evenodd;"
points="37604,7590
36541,7590
36541,6212
37604,6212
37604,7590
" /> 
<polyline style="fill-rule:evenodd;"
points="37604,4913
36541,4913
36541,3535
37604,3535
37604,4913
" /> 
<circle cx="22822.8" cy="11063" r="295.276" /> 
</g>
<g style="fill:#000000; fill-opacity:1.0; 
stroke:#000000; stroke-width:39.3701; stroke-opacity:1; 
stroke-linecap:round; stroke-linejoin:round;">
</g>
<g style="fill:#000000; fill-opacity:1.0; 
stroke:#000000; stroke-width:0; stroke-opacity:1; 
stroke-linecap:round; stroke-linejoin:round;">
<circle cx="30572.8" cy="8562.99" r="295.276" /> 
</g>
<g style="fill:#000000; fill-opacity:1.0; 
stroke:#000000; stroke-width:39.3701; stroke-opacity:1; 
stroke-linecap:round; stroke-linejoin:round;">
</g>
<g style="fill:#000000; fill-opacity:1.0; 
stroke:#000000; stroke-width:393.701; stroke-opacity:1; 
stroke-linecap:round; stroke-linejoin:round;">
</g>
<g style="fill:#000000; fill-opacity:0.0; 
stroke:#000000; stroke-width:393.701; stroke-opacity:1; 
stroke-linecap:round; stroke-linejoin:round;">
<path d="M29072 14062
L27822 14062
" />
<path d="M26322 15562
L21972 15562
" />
<path d="M27822 14062
L26322 15562
" />
<path d="M21972 15562
L21972 14250
" />
</g>
<g style="fill:#000000; fill-opacity:0.0; 
stroke:#000000; stroke-width:98.4252; stroke-opacity:1; 
stroke-linecap:round; stroke-linejoin:round;">
<path d="M21972 14250
L21822 14100
" />
</g>
<g style="fill:#000000; fill-opacity:0.0; 
stroke:#000000; stroke-width:393.701; stroke-opacity:1; 
stroke-linecap:round; stroke-linejoin:round;">
<path d="M20672 15562
L20672 17000
" />
</g>
<g style="fill:#000000; fill-opacity:0.0; 
stroke:#000000; stroke-width:98.4252; stroke-opacity:1; 
stroke-linecap:round; stroke-linejoin:round;">
<path d="M20672 17000
L20610 17062
" />
</g>
<g style="fill:#000000; fill-opacity:0.0; 
stroke:#000000; stroke-width:393.701; stroke-opacity:1; 
stroke-linecap:round; stroke-linejoin:round;">
<path d="M23572 17062
L20610 17062
" />
<path d="M25572 17062
L23572 17062
" />
<path d="M3572 13100
L8248 13100
" />
</g>
<g style="fill:#000000; fill-opacity:0.0; 
stroke:#000000; stroke-width:98.4252; stroke-opacity:1; 
stroke-linecap:round; stroke-linejoin:round;">
<path d="M8248 13100
L8535 12812
" />
</g>
<g style="fill:#000000; fill-opacity:0.0; 
stroke:#000000; stroke-width:393.701; stroke-opacity:1; 
stroke-linecap:round; stroke-linejoin:round;">
<path d="M8922 14562
L8922 13200
" />
<path d="M8922 13200
L8535 12812
" />
<path d="M17822 10850
L10360 10850
" />
<path d="M10360 10850
L10072 10562
" />
</g>
<g style="fill:#000000; fill-opacity:0.0; 
stroke:#000000; stroke-width:98.4252; stroke-opacity:1; 
stroke-linecap:round; stroke-linejoin:round;">
<path d="M32572 9312
L32572 9562
" />
</g>
<g style="fill:#000000; fill-opacity:0.0; 
stroke:#000000; stroke-width:196.85; stroke-opacity:1; 
stroke-linecap:round; stroke-linejoin:round;">
<path d="M32572 9562
L30822 11312
" />
<path d="M30822 11312
L29572 11312
" />
</g>
<g style="fill:#000000; fill-opacity:0.0; 
stroke:#000000; stroke-width:98.4252; stroke-opacity:1; 
stroke-linecap:round; stroke-linejoin:round;">
<path d="M29072 15062
L29322 15062
" />
</g>
<g style="fill:#000000; fill-opacity:0.0; 
stroke:#000000; stroke-width:196.85; stroke-opacity:1; 
stroke-linecap:round; stroke-linejoin:round;">
<path d="M29322 15062
L29822 14562
" />
<path d="M29822 14562
L29822 11312
" />
</g>
<g style="fill:#000000; fill-opacity:0.0; 
stroke:#000000; stroke-width:98.4252; stroke-opacity:1; 
stroke-linecap:round; stroke-linejoin:round;">
<path d="M28922 10562
L28922 10662
" />
</g>
<g style="fill:#000000; fill-opacity:0.0; 
stroke:#000000; stroke-width:196.85; stroke-opacity:1; 
stroke-linecap:round; stroke-linejoin:round;">
<path d="M28922 10662
L29572 11312
" />
</g>
<g style="fill:#000000; fill-opacity:0.0; 
stroke:#000000; stroke-width:98.4252; stroke-opacity:1; 
stroke-linecap:round; stroke-linejoin:round;">
<path d="M29572 11312
L29822 11312
" />
</g>
<g style="fill:#000000; fill-opacity:0.0; 
stroke:#000000; stroke-width:393.701; stroke-opacity:1; 
stroke-linecap:round; stroke-linejoin:round;">
<path d="M28922 10562
L28922 9425
" />
</g>
<g style="fill:#000000; fill-opacity:0.0; 
stroke:#000000; stroke-width:98.4252; stroke-opacity:1; 
stroke-linecap:round; stroke-linejoin:round;">
<path d="M28922 9425
L29035 9312
" />
</g>
<g style="fill:#000000; fill-opacity:0.0; 
stroke:#000000; stroke-width:393.701; stroke-opacity:1; 
stroke-linecap:round; stroke-linejoin:round;">
<path d="M27722 9312
L29035 9312
" />
<path d="M29072 7562
L29072 9275
" />
</g>
<g style="fill:#000000; fill-opacity:0.0; 
stroke:#000000; stroke-width:98.4252; stroke-opacity:1; 
stroke-linecap:round; stroke-linejoin:round;">
<path d="M29072 9275
L29035 9312
" />
</g>
<g style="fill:#000000; fill-opacity:0.0; 
stroke:#000000; stroke-width:393.701; stroke-opacity:1; 
stroke-linecap:round; stroke-linejoin:round;">
<path d="M29072 7562
L30110 7562
" />
<path d="M30110 7562
L30572 7100
" />
<path d="M29072 15062
L30110 15062
" />
<path d="M30110 15062
L30572 14600
" />
<path d="M29072 15062
L28072 15062
" />
<path d="M26822 17812
L18072 17812
" />
<path d="M27072 17562
L26822 17812
" />
<path d="M27072 16062
L27072 17562
" />
<path d="M28072 15062
L27072 16062
" />
<path d="M19322 10712
L20710 10712
" />
</g>
<g style="fill:#000000; fill-opacity:0.0; 
stroke:#000000; stroke-width:98.4252; stroke-opacity:1; 
stroke-linecap:round; stroke-linejoin:round;">
<path d="M20710 10712
L20822 10600
" />
</g>
<g style="fill:#000000; fill-opacity:0.0; 
stroke:#000000; stroke-width:393.701; stroke-opacity:1; 
stroke-linecap:round; stroke-linejoin:round;">
<path d="M17822 10850
L19185 10850
" />
</g>
<g style="fill:#000000; fill-opacity:0.0; 
stroke:#000000; stroke-width:98.4252; stroke-opacity:1; 
stroke-linecap:round; stroke-linejoin:round;">
<path d="M19185 10850
L19322 10712
" />
<path d="M18972 15562
L18822 15562
" />
</g>
<g style="fill:#000000; fill-opacity:0.0; 
stroke:#000000; stroke-width:393.701; stroke-opacity:1; 
stroke-linecap:round; stroke-linejoin:round;">
<path d="M9572 17062
L10322 17812
" />
<path d="M18285 17812
L19035 17062
" />
<path d="M10322 17812
L18072 17812
" />
</g>
<g style="fill:#000000; fill-opacity:0.0; 
stroke:#000000; stroke-width:98.4252; stroke-opacity:1; 
stroke-linecap:round; stroke-linejoin:round;">
<path d="M18072 17812
L18285 17812
" />
</g>
<g style="fill:#000000; fill-opacity:0.0; 
stroke:#000000; stroke-width:393.701; stroke-opacity:1; 
stroke-linecap:round; stroke-linejoin:round;">
<path d="M18972 15562
L18972 17000
" />
</g>
<g style="fill:#000000; fill-opacity:0.0; 
stroke:#000000; stroke-width:98.4252; stroke-opacity:1; 
stroke-linecap:round; stroke-linejoin:round;">
<path d="M18972 17000
L19035 17062
" />
<path d="M3572 4562
L3322 4562
" />
</g>
<g style="fill:#000000; fill-opacity:0.0; 
stroke:#000000; stroke-width:393.701; stroke-opacity:1; 
stroke-linecap:round; stroke-linejoin:round;">
<path d="M3322 4562
L2572 5312
" />
<path d="M2572 5312
L2572 7062
" />
<path d="M2572 7062
L2822 7312
" />
</g>
<g style="fill:#000000; fill-opacity:0.0; 
stroke:#000000; stroke-width:98.4252; stroke-opacity:1; 
stroke-linecap:round; stroke-linejoin:round;">
<path d="M2822 7312
L3035 7312
" />
</g>
<g style="fill:#000000; fill-opacity:0.0; 
stroke:#000000; stroke-width:393.701; stroke-opacity:1; 
stroke-linecap:round; stroke-linejoin:round;">
<path d="M10110 8312
L10110 4100
" />
<path d="M10110 4100
L9572 3562
" />
<path d="M9572 3562
L11572 3562
" />
<path d="M3572 12312
L2822 12312
" />
<path d="M2822 12312
L2572 12062
" />
<path d="M2572 7775
L3035 7312
" />
<path d="M2572 12062
L2572 7775
" />
<path d="M3072 17062
L3572 17062
" />
<path d="M2572 16562
L3072 17062
" />
<path d="M2572 12562
L2572 16562
" />
<path d="M2822 12312
L2572 12562
" />
<path d="M3572 17062
L7572 17062
" />
<path d="M9572 17062
L10322 16312
" />
<path d="M10322 16312
L10322 14662
" />
</g>
<g style="fill:#000000; fill-opacity:0.0; 
stroke:#000000; stroke-width:98.4252; stroke-opacity:1; 
stroke-linecap:round; stroke-linejoin:round;">
<path d="M10322 14662
L10222 14562
" />
</g>
<g style="fill:#000000; fill-opacity:0.0; 
stroke:#000000; stroke-width:393.701; stroke-opacity:1; 
stroke-linecap:round; stroke-linejoin:round;">
<path d="M7572 17062
L9572 17062
" />
<path d="M10222 14562
L10222 12925
" />
</g>
<g style="fill:#000000; fill-opacity:0.0; 
stroke:#000000; stroke-width:98.4252; stroke-opacity:1; 
stroke-linecap:round; stroke-linejoin:round;">
<path d="M10222 12925
L10072 12775
" />
</g>
<g style="fill:#000000; fill-opacity:0.0; 
stroke:#000000; stroke-width:393.701; stroke-opacity:1; 
stroke-linecap:round; stroke-linejoin:round;">
<path d="M10072 12775
L10072 8350
" />
</g>
<g style="fill:#000000; fill-opacity:0.0; 
stroke:#000000; stroke-width:98.4252; stroke-opacity:1; 
stroke-linecap:round; stroke-linejoin:round;">
<path d="M10072 8350
L10110 8312
" />
</g>
<g style="fill:#000000; fill-opacity:0.0; 
stroke:#000000; stroke-width:393.701; stroke-opacity:1; 
stroke-linecap:round; stroke-linejoin:round;">
<path d="M29072 12062
L28072 12062
" />
<path d="M23785 12100
L23785 12562
" />
<path d="M24322 11562
L23785 12100
" />
<path d="M27572 11562
L24322 11562
" />
<path d="M28072 12062
L27572 11562
" />
<path d="M23785 14062
L23785 12562
" />
</g>
<g style="fill:#000000; fill-opacity:0.0; 
stroke:#000000; stroke-width:196.85; stroke-opacity:1; 
stroke-linecap:round; stroke-linejoin:round;">
<path d="M20072 13562
L20372 13262
" />
<path d="M22822 13512
L22822 13812
" />
<path d="M22572 13262
L22822 13512
" />
<path d="M20372 13262
L22572 13262
" />
<path d="M19110 14062
L19572 14062
" />
<path d="M24610 14812
L25360 14062
" />
<path d="M22822 13812
L22822 14562
" />
<path d="M22822 14562
L23072 14812
" />
<path d="M23072 14812
L24610 14812
" />
<path d="M19572 14062
L20072 13562
" />
</g>
<g style="fill:#000000; fill-opacity:0.0; 
stroke:#000000; stroke-width:393.701; stroke-opacity:1; 
stroke-linecap:round; stroke-linejoin:round;">
<path d="M29072 13062
L26572 13062
" />
<path d="M26072 12562
L25360 12562
" />
<path d="M26572 13062
L26072 12562
" />
<path d="M25360 14062
L25360 12562
" />
</g>
<g style="fill:#000000; fill-opacity:0.0; 
stroke:#000000; stroke-width:196.85; stroke-opacity:1; 
stroke-linecap:round; stroke-linejoin:round;">
<path d="M32072 12062
L32072 10962
" />
<path d="M36072 14350
L35110 15312
" />
<path d="M36072 12162
L36072 14350
" />
<path d="M35872 11962
L36072 12162
" />
<path d="M34122 11962
L35872 11962
" />
<path d="M34072 11912
L34122 11962
" />
<path d="M34072 10862
L34072 11912
" />
<path d="M33872 10662
L34072 10862
" />
<path d="M32372 10662
L33872 10662
" />
<path d="M32072 10962
L32372 10662
" />
<path d="M25572 3562
L25572 3462
" />
<path d="M25572 3462
L26572 2462
" />
<path d="M32685 2462
L33535 3312
" />
<path d="M26572 2462
L32685 2462
" />
</g>
<g style="fill:#000000; fill-opacity:0.0; 
stroke:#000000; stroke-width:98.4252; stroke-opacity:1; 
stroke-linecap:round; stroke-linejoin:round;">
<path d="M35110 15312
L35110 15275
" />
<path d="M25572 3562
L25822 3562
" />
</g>
<g style="fill:#000000; fill-opacity:0.0; 
stroke:#000000; stroke-width:393.701; stroke-opacity:1; 
stroke-linecap:round; stroke-linejoin:round;">
<path d="M25785 6812
L25072 6812
" />
<path d="M25072 6812
L24360 6100
" />
<path d="M24360 8812
L24360 6100
" />
<path d="M24360 6100
L24360 4350
" />
<path d="M24360 4350
L23572 3562
" />
</g>
<g style="fill:#000000; fill-opacity:0.0; 
stroke:#000000; stroke-width:98.4252; stroke-opacity:1; 
stroke-linecap:round; stroke-linejoin:round;">
<path d="M33535 3312
L33322 3312
" />
</g>
<g style="fill:#000000; fill-opacity:0.0; 
stroke:#000000; stroke-width:393.701; stroke-opacity:1; 
stroke-linecap:round; stroke-linejoin:round;">
<path d="M33322 3312
L32072 4562
" />
<path d="M30572 5525
L30572 5062
" />
<path d="M31072 4562
L32072 4562
" />
<path d="M30572 5062
L31072 4562
" />
</g>
<g style="fill:#000000; fill-opacity:0.0; 
stroke:#000000; stroke-width:98.4252; stroke-opacity:1; 
stroke-linecap:round; stroke-linejoin:round;">
<path d="M30572 13025
L30572 12812
" />
</g>
<g style="fill:#000000; fill-opacity:0.0; 
stroke:#000000; stroke-width:393.701; stroke-opacity:1; 
stroke-linecap:round; stroke-linejoin:round;">
<path d="M30572 12812
L31322 12062
" />
<path d="M31322 12062
L32072 12062
" />
</g>
<g style="fill:#000000; fill-opacity:0.0; 
stroke:#000000; stroke-width:98.4252; stroke-opacity:1; 
stroke-linecap:round; stroke-linejoin:round;">
<path d="M23572 3562
L23572 3312
" />
</g>
<g style="fill:#000000; fill-opacity:0.0; 
stroke:#000000; stroke-width:393.701; stroke-opacity:1; 
stroke-linecap:round; stroke-linejoin:round;">
<path d="M23572 3312
L22822 2562
" />
<path d="M8535 3100
L8535 8312
" />
<path d="M9072 2562
L8535 3100
" />
<path d="M22822 2562
L9072 2562
" />
<path d="M23572 3562
L25572 3562
" />
<path d="M7572 10562
L7572 9275
" />
<path d="M7572 9275
L8535 8312
" />
<path d="M3572 11525
L6610 11525
" />
<path d="M6610 11525
L7572 10562
" />
<path d="M3572 11525
L3572 8962
" />
</g>
<g style="fill:#000000; fill-opacity:0.0; 
stroke:#000000; stroke-width:98.4252; stroke-opacity:1; 
stroke-linecap:round; stroke-linejoin:round;">
<path d="M3572 8962
L3423 8812
" />
</g>
<g style="fill:#000000; fill-opacity:0.0; 
stroke:#000000; stroke-width:393.701; stroke-opacity:1; 
stroke-linecap:round; stroke-linejoin:round;">
<path d="M17672 15562
L17672 14200
" />
</g>
<g style="fill:#000000; fill-opacity:0.0; 
stroke:#000000; stroke-width:98.4252; stroke-opacity:1; 
stroke-linecap:round; stroke-linejoin:round;">
<path d="M17672 14200
L17535 14062
" />
</g>
<g style="fill:#000000; fill-opacity:0.0; 
stroke:#000000; stroke-width:393.701; stroke-opacity:1; 
stroke-linecap:round; stroke-linejoin:round;">
<path d="M35110 13812
L35110 12562
" />
<path d="M35110 13812
L35110 14275
" />
<path d="M34822 14562
L32572 14562
" />
<path d="M35110 14275
L34822 14562
" />
</g>
<g style="fill:#000000; fill-opacity:0.0; 
stroke:#000000; stroke-width:196.85; stroke-opacity:1; 
stroke-linecap:round; stroke-linejoin:round;">
<path d="M32822 16412
L32822 14812
" />
<path d="M32822 14812
L32572 14562
" />
</g>
<g style="fill:#000000; fill-opacity:0.0; 
stroke:#000000; stroke-width:393.701; stroke-opacity:1; 
stroke-linecap:round; stroke-linejoin:round;">
<path d="M32572 14562
L32072 14062
" />
<path d="M30322 17812
L31322 17812
" />
<path d="M31322 17812
L32072 17812
" />
<path d="M32072 17812
L32322 17812
" />
<path d="M32322 17812
L32422 17712
" />
<path d="M32422 17712
L32822 17712
" />
</g>
<g style="fill:#000000; fill-opacity:0.0; 
stroke:#000000; stroke-width:98.4252; stroke-opacity:1; 
stroke-linecap:round; stroke-linejoin:round;">
<path d="M21822 12525
L21822 12062
" />
</g>
<g style="fill:#000000; fill-opacity:0.0; 
stroke:#000000; stroke-width:393.701; stroke-opacity:1; 
stroke-linecap:round; stroke-linejoin:round;">
<path d="M21822 12062
L22822 11062
" />
</g>
<g style="fill:#000000; fill-opacity:0.0; 
stroke:#000000; stroke-width:98.4252; stroke-opacity:1; 
stroke-linecap:round; stroke-linejoin:round;">
<path d="M21572 9062
L21572 9025
" />
<path d="M21572 9025
L21572 9062
" />
<path d="M21572 9062
L21572 9025
" />
</g>
<g style="fill:#000000; fill-opacity:0.0; 
stroke:#000000; stroke-width:393.701; stroke-opacity:1; 
stroke-linecap:round; stroke-linejoin:round;">
<path d="M21822 12525
L21822 10025
" />
<path d="M21822 10025
L20822 9025
" />
<path d="M20822 9025
L21572 9025
" />
<path d="M21572 9025
L22572 9025
" />
<path d="M22572 9025
L22785 8812
" />
<path d="M19322 9412
L19322 9025
" />
</g>
<g style="fill:#000000; fill-opacity:0.0; 
stroke:#000000; stroke-width:98.4252; stroke-opacity:1; 
stroke-linecap:round; stroke-linejoin:round;">
<path d="M19322 9025
L19322 9062
" />
<path d="M19322 9062
L19322 9025
" />
<path d="M17822 9275
L17822 9062
" />
<path d="M17822 9062
L17860 9025
" />
</g>
<g style="fill:#000000; fill-opacity:0.0; 
stroke:#000000; stroke-width:393.701; stroke-opacity:1; 
stroke-linecap:round; stroke-linejoin:round;">
<path d="M17860 9025
L19322 9025
" />
<path d="M19322 9025
L20822 9025
" />
<path d="M32072 13062
L33035 13062
" />
<path d="M33035 13062
L33535 12562
" />
<path d="M33535 12562
L33535 11425
" />
</g>
<g style="fill:#000000; fill-opacity:0.0; 
stroke:#000000; stroke-width:98.4252; stroke-opacity:1; 
stroke-linecap:round; stroke-linejoin:round;">
<path d="M33535 11425
L33422 11312
" />
</g>
<g style="fill:#000000; fill-opacity:0.0; 
stroke:#000000; stroke-width:393.701; stroke-opacity:1; 
stroke-linecap:round; stroke-linejoin:round;">
<path d="M33535 13812
L33535 12562
" />
</g>
<g style="fill:#000000; fill-opacity:0.0; 
stroke:#000000; stroke-width:98.4252; stroke-opacity:1; 
stroke-linecap:round; stroke-linejoin:round;">
<path d="M34722 11312
L34722 10962
" />
</g>
<g style="fill:#000000; fill-opacity:0.0; 
stroke:#000000; stroke-width:393.701; stroke-opacity:1; 
stroke-linecap:round; stroke-linejoin:round;">
<path d="M34722 10962
L34072 10312
" />
<path d="M34072 8100
L33535 7562
" />
<path d="M34072 10312
L34072 8100
" />
</g>
<g style="fill:#000000; fill-opacity:0.0; 
stroke:#000000; stroke-width:98.4252; stroke-opacity:1; 
stroke-linecap:round; stroke-linejoin:round;">
<path d="M34722 11312
L34722 11212
" />
<path d="M34722 11312
L34572 11312
" />
</g>
<g style="fill:#000000; fill-opacity:0.0; 
stroke:#000000; stroke-width:393.701; stroke-opacity:1; 
stroke-linecap:round; stroke-linejoin:round;">
<path d="M33535 7562
L32072 7562
" />
</g>
<g style="fill:#000000; fill-opacity:0.0; 
stroke:#000000; stroke-width:196.85; stroke-opacity:1; 
stroke-linecap:round; stroke-linejoin:round;">
<path d="M29072 5562
L29822 6312
" />
<path d="M31572 7562
L32072 7562
" />
<path d="M31322 7312
L31572 7562
" />
<path d="M31322 6562
L31322 7312
" />
<path d="M31072 6312
L31322 6562
" />
<path d="M29822 6312
L31072 6312
" />
</g>
<g style="fill:#000000; fill-opacity:0.0; 
stroke:#000000; stroke-width:393.701; stroke-opacity:1; 
stroke-linecap:round; stroke-linejoin:round;">
<path d="M29072 5562
L27610 5562
" />
<path d="M27610 5562
L27360 5312
" />
<path d="M30072 3062
L29072 3062
" />
<path d="M29072 3062
L27322 3062
" />
<path d="M27322 3062
L25785 4600
" />
<path d="M25785 4600
L25785 5312
" />
</g>
<g style="fill:#000000; fill-opacity:0.0; 
stroke:#000000; stroke-width:98.4252; stroke-opacity:1; 
stroke-linecap:round; stroke-linejoin:round;">
<path d="M25785 5312
L25860 5312
" />
</g>
<g style="fill:#000000; fill-opacity:0.0; 
stroke:#000000; stroke-width:393.701; stroke-opacity:1; 
stroke-linecap:round; stroke-linejoin:round;">
<path d="M25860 5312
L27360 6812
" />
<path d="M29072 6562
L27610 6562
" />
<path d="M27610 6562
L27360 6812
" />
<path d="M26422 9312
L26422 7750
" />
<path d="M26422 7750
L27360 6812
" />
</g>
<g style="fill:#000000; fill-opacity:0.0; 
stroke:#000000; stroke-width:98.4252; stroke-opacity:1; 
stroke-linecap:round; stroke-linejoin:round;">
<path d="M30572 8562
L30610 8600
" />
<path d="M30610 8600
L30610 9312
" />
</g>
<g style="fill:#000000; fill-opacity:0.0; 
stroke:#000000; stroke-width:393.701; stroke-opacity:1; 
stroke-linecap:round; stroke-linejoin:round;">
<path d="M32072 6562
L34110 6562
" />
<path d="M34110 6562
L35110 7562
" />
<path d="M30222 10562
L30222 9700
" />
<path d="M30222 9700
L30610 9312
" />
<path d="M35322 17312
L35922 17312
" />
<path d="M37072 16162
L37072 11401
" />
<path d="M35922 17312
L37072 16162
" />
<path d="M35072 9312
L35072 9401
" />
<path d="M35072 9401
L37072 11401
" />
</g>
<g style="fill:#000000; fill-opacity:0.0; 
stroke:#000000; stroke-width:98.4252; stroke-opacity:1; 
stroke-linecap:round; stroke-linejoin:round;">
<path d="M35322 17312
L35572 17312
" />
<path d="M6572 15651
L3984 15651
" />
<path d="M3984 15651
L3572 16062
" />
</g>
<g style="fill:#000000; fill-opacity:0.0; 
stroke:#000000; stroke-width:393.701; stroke-opacity:1; 
stroke-linecap:round; stroke-linejoin:round;">
<path d="M4722 8812
L4722 7425
" />
</g>
<g style="fill:#000000; fill-opacity:0.0; 
stroke:#000000; stroke-width:98.4252; stroke-opacity:1; 
stroke-linecap:round; stroke-linejoin:round;">
<path d="M4722 7425
L4610 7312
" />
<path d="M37072 6901
L37072 6562
" />
</g>
<g style="fill:#000000; fill-opacity:0.0; 
stroke:#000000; stroke-width:393.701; stroke-opacity:1; 
stroke-linecap:round; stroke-linejoin:round;">
<path d="M37072 6562
L36072 5562
" />
<path d="M36072 5562
L32072 5562
" />
<path d="M37072 8724
L37072 6901
" />
<path d="M35072 4649
L35072 3350
" />
</g>
<g style="fill:#000000; fill-opacity:0.0; 
stroke:#000000; stroke-width:98.4252; stroke-opacity:1; 
stroke-linecap:round; stroke-linejoin:round;">
<path d="M35072 3350
L35110 3312
" />
<path d="M33572 5476
L34246 5476
" />
</g>
<g style="fill:#000000; fill-opacity:0.0; 
stroke:#000000; stroke-width:393.701; stroke-opacity:1; 
stroke-linecap:round; stroke-linejoin:round;">
<path d="M34246 5476
L35072 4649
" />
</g>
<g style="fill:#000000; fill-opacity:0.0; 
stroke:#000000; stroke-width:98.4252; stroke-opacity:1; 
stroke-linecap:round; stroke-linejoin:round;">
<path d="M33572 5476
L32159 5476
" />
<path d="M32159 5476
L32072 5562
" />
<path d="M37072 4224
L37072 4062
" />
</g>
<g style="fill:#000000; fill-opacity:0.0; 
stroke:#000000; stroke-width:196.85; stroke-opacity:1; 
stroke-linecap:round; stroke-linejoin:round;">
<path d="M37072 4062
L36072 3062
" />
<path d="M36072 3062
L36072 2562
" />
<path d="M36072 2562
L35572 2062
" />
<path d="M35572 2062
L33072 2062
" />
<path d="M5072 2062
L3572 3562
" />
<path d="M33072 2062
L5072 2062
" />
</g>
<g style="fill:#000000; fill-opacity:0.0; 
stroke:#000000; stroke-width:393.701; stroke-opacity:1; 
stroke-linecap:round; stroke-linejoin:round;">
<path d="M34322 17312
L34322 16100
" />
<path d="M34322 16100
L33535 15312
" />
</g>
<g style="fill:#000000; fill-opacity:1.0; 
stroke:#000000; stroke-width:100; stroke-opacity:1; 
stroke-linecap:round; stroke-linejoin:round;">
<polyline style="fill-rule:evenodd;"
points="3728,2914
3179,2914
3086,2932
3001,2986
2944,3070
2924,3169
2924,3956
2941,4049
2996,4134
3060,4177
3051,4185
2946,4413
2993,4512
3522,4512
3522,4505
3622,4505
3622,4512
4151,4512
4198,4413
4093,4185
4085,4177
4144,4139
4201,4055
4221,3956
4221,3407
5217,2411
8592,2411
8219,2784
8122,2929
8088,3100
8088,7753
8049,7760
7963,7815
7906,7898
7886,7998
7886,8329
7256,8959
7159,9104
7125,9275
7125,9358
7022,9358
6930,9375
6845,9430
6788,9513
6767,9612
6767,10735
6425,11078
4063,11078
4019,11049
4019,8962
3985,8791
3973,8773
3973,8517
3955,8425
3901,8339
3817,8282
3718,8262
3127,8262
3035,8280
2950,8335
2893,8418
2873,8517
2873,9108
2890,9200
2945,9286
3028,9343
3125,9362
3125,11049
2970,11153
2856,11324
2816,11525
2856,11726
2970,11897
3012,11925
2949,11976
2851,12158
2847,12181
2895,12262
3522,12262
3522,12255
3622,12255
3622,12262
4249,12262
4298,12181
4294,12158
4196,11976
4191,11972
6610,11972
6781,11938
6926,11841
7003,11764
7022,11767
8122,11767
8215,11750
8300,11695
8357,11612
8377,11512
8377,10675
9272,10675
9272,11562
9310,11654
9381,11724
9473,11762
9960,11762
10022,11700
10022,10612
10122,10612
10122,11700
10185,11762
10672,11762
10764,11724
10834,11654
10872,11562
10872,10962
17257,10962
17257,11293
17295,11385
17366,11456
17458,11494
17710,11494
17772,11431
17772,10900
17872,10900
17872,11431
17935,11494
18187,11494
18279,11456
18349,11385
18387,11293
18387,10962
18325,10900
17872,10900
17772,10900
17320,10900
17257,10962
10872,10962
10872,10825
18672,10825
18672,11062
18710,11154
18781,11224
18873,11262
19210,11262
19272,11200
19272,10762
19372,10762
19372,11200
19435,11262
19772,11262
19864,11224
19934,11154
19972,11062
19972,10825
19910,10762
19372,10762
19272,10762
18735,10762
18672,10825
10872,10825
10872,10675
10810,10612
10122,10612
10022,10612
9335,10612
9272,10675
8377,10675
8377,9612
8368,9563
9272,9563
9272,10450
9335,10512
10022,10512
10022,9425
10122,9425
10122,10512
10810,10512
10872,10450
10872,10406
17257,10406
17257,10737
17320,10800
17772,10800
17772,10269
17872,10269
17872,10800
18325,10800
18387,10737
18387,10712
20238,10712
20238,11043
20276,11135
20346,11206
20438,11244
20710,11244
20772,11181
20772,10650
20300,10650
20238,10712
18387,10712
18387,10406
18369,10363
18672,10363
18672,10600
18735,10662
19272,10662
19272,10225
19372,10225
19372,10662
19910,10662
19972,10600
19972,10363
19934,10271
19864,10201
19772,10162
19435,10162
19372,10225
19272,10225
19210,10162
18873,10162
18781,10201
18710,10271
18672,10363
18369,10363
18349,10315
18279,10244
18187,10206
17935,10206
17872,10269
17772,10269
17710,10206
17458,10206
17366,10244
17295,10315
17257,10406
10872,10406
10872,10156
20238,10156
20238,10487
20300,10550
20772,10550
20772,10019
20710,9956
20438,9956
20346,9994
20276,10065
20238,10156
10872,10156
10872,9563
10834,9471
10764,9401
10672,9362
10185,9362
10122,9425
10022,9425
9960,9362
9473,9362
9381,9401
9310,9471
9272,9563
8368,9563
8360,9520
8305,9435
8222,9378
8122,9358
8122,9358
8597,8882
8929,8882
8934,8881
17252,8881
17252,9669
17270,9761
17325,9847
17408,9904
17507,9924
18137,9924
18230,9906
18315,9852
18372,9768
18392,9669
18392,9472
18667,9472
18667,9712
18685,9805
18740,9890
18823,9947
18922,9967
19722,9967
19815,9950
19900,9895
19957,9812
19977,9712
19977,9472
20243,9472
20250,9511
20305,9597
20389,9654
20488,9674
20839,9674
21121,9956
20935,9956
20872,10019
20872,10550
20880,10550
20880,10650
20872,10650
20872,11181
20935,11244
21207,11244
21299,11206
21369,11135
21375,11119
21375,11907
21310,11949
21253,12032
21233,12131
21233,12914
20372,12914
20372,12914
20261,12936
20239,12941
20126,13016
20126,13016
19826,13316
19826,13316
19630,13512
19603,13493
19503,13473
18716,13473
18623,13490
18538,13545
18481,13629
18461,13728
18461,14397
18479,14490
18533,14575
18617,14632
18716,14652
19503,14652
19596,14635
19681,14580
19738,14496
19758,14397
19758,14349
19819,14309
19819,14309
20319,13809
20319,13809
20517,13611
21252,13611
21233,13706
21233,14494
21250,14586
21305,14671
21389,14728
21488,14748
21525,14748
21525,14960
21495,14980
21438,15063
21417,15162
21417,15962
21435,16055
21490,16140
21573,16197
21672,16217
22272,16217
22365,16200
22450,16145
22507,16062
22518,16009
26322,16009
26493,15975
26638,15878
27317,15200
28524,15200
28588,15353
28736,15516
28935,15610
29022,15563
29022,15112
29122,15112
29122,15563
29210,15610
29409,15516
29557,15353
29620,15200
29572,15112
29122,15112
29022,15112
28572,15112
28524,15200
27317,15200
28007,14509
28733,14509
28821,14568
28736,14609
28588,14772
28524,14925
28572,15012
29022,15012
29022,15005
29122,15005
29122,15012
29572,15012
29620,14925
29557,14772
29503,14712
30007,14712
30007,15043
30045,15135
30116,15206
30208,15244
30460,15244
30522,15181
30522,14650
30622,14650
30622,15181
30685,15244
30937,15244
31029,15206
31099,15135
31137,15043
31137,14712
31075,14650
30622,14650
30522,14650
30070,14650
30007,14712
29503,14712
29409,14609
29324,14568
29483,14462
29605,14279
29630,14156
30007,14156
30007,14487
30070,14550
30522,14550
30522,14019
30622,14019
30622,14550
31075,14550
31137,14487
31137,14156
31099,14065
31029,13994
30937,13956
30685,13956
30622,14019
30522,14019
30460,13956
30208,13956
30116,13994
30045,14065
30007,14156
29630,14156
29648,14062
29605,13846
29483,13663
29332,13562
29483,13462
29605,13279
29648,13062
29605,12846
29483,12663
29426,12625
29480,12615
29565,12560
29622,12477
29642,12377
29642,11748
29625,11655
29570,11570
29486,11513
29387,11493
28757,11493
28665,11510
28580,11565
28545,11616
28257,11616
27888,11247
27839,11214
27743,11150
27572,11116
24322,11116
24151,11150
24006,11247
23469,11784
23372,11929
23362,11978
23299,11990
23213,12045
23156,12129
23136,12228
23136,12897
23154,12990
23209,13075
23292,13132
23338,13141
23338,13503
23299,13510
23213,13565
23171,13627
23171,13512
23171,13512
23144,13379
23118,13339
23069,13266
23069,13266
22819,13016
22779,12990
22706,12941
22684,12936
22572,12914
22572,12914
22412,12914
22412,12131
22408,12109
22909,11608
22930,11608
23131,11525
23284,11372
23368,11171
23368,10955
23285,10754
23206,10675
28372,10675
28372,11012
28410,11104
28481,11174
28573,11212
28810,11212
28872,11150
28872,10612
28972,10612
28972,11150
29035,11212
29272,11212
29364,11174
29434,11104
29472,11012
29472,10675
29410,10612
28972,10612
28872,10612
28435,10612
28372,10675
23206,10675
23132,10600
22931,10517
22714,10517
22514,10600
22360,10753
22277,10954
22277,10976
22269,10984
22269,10113
28372,10113
28372,10450
28435,10512
28872,10512
28872,9975
28972,9975
28972,10512
29410,10512
29472,10450
29472,10162
29667,10162
29667,10962
29685,11055
29740,11140
29823,11197
29922,11217
30522,11217
30615,11200
30700,11145
30757,11062
30777,10962
30777,10162
30760,10070
30705,9985
30669,9960
30669,9902
31003,9902
31096,9885
31181,9830
31238,9746
31258,9647
31258,8978
31241,8885
31186,8800
31103,8743
31089,8740
31118,8671
31118,8455
31035,8254
30882,8100
30681,8017
30464,8017
30264,8100
30110,8253
30027,8454
30027,8670
30070,8775
30038,8795
29981,8879
29961,8978
29961,9329
29906,9384
29809,9529
29775,9700
29775,9960
29745,9980
29688,10063
29667,10162
29472,10162
29472,10113
29434,10021
29364,9951
29272,9912
29035,9912
28972,9975
28872,9975
28810,9912
28573,9912
28481,9951
28410,10021
28372,10113
22269,10113
22269,10025
22235,9854
22216,9825
22138,9709
21901,9472
22572,9472
22743,9438
22797,9402
23179,9402
23271,9385
23356,9330
23413,9246
23434,9147
23434,8478
23416,8385
23361,8300
23278,8243
23179,8223
22391,8223
22299,8240
22213,8295
22156,8379
22136,8478
22136,8578
21402,8578
21394,8539
21340,8454
21256,8397
21157,8376
20488,8376
20395,8394
20310,8449
20253,8532
20244,8578
17860,8578
17689,8612
17667,8626
17507,8626
17415,8644
17330,8699
17273,8782
17252,8881
8934,8881
9021,8865
9106,8810
9163,8727
9184,8627
9184,8425
9466,8425
9466,8677
9504,8769
9574,8839
9666,8877
9997,8877
10060,8815
10060,8362
10160,8362
10160,8815
10222,8877
10553,8877
10645,8839
10715,8769
10753,8677
10753,8425
10691,8362
10160,8362
10060,8362
9529,8362
9466,8425
9184,8425
9184,7998
9174,7948
9466,7948
9466,8200
9529,8262
10060,8262
10060,7810
10160,7810
10160,8262
10691,8262
10753,8200
10753,7948
10715,7856
10645,7786
10553,7748
10222,7748
10160,7810
10060,7810
9997,7748
9666,7748
9574,7786
9504,7856
9466,7948
9174,7948
9166,7905
9111,7820
9028,7763
8982,7753
8982,4562
12793,4562
12852,4861
13021,5114
13274,5283
13572,5342
13871,5283
14124,5114
14293,4861
14352,4562
14293,4264
14124,4011
13871,3842
13572,3783
13274,3842
13021,4011
12852,4264
12793,4562
8982,4562
8982,3948
9257,3948
9284,4044
9491,4117
9709,4106
9860,4044
9888,3948
11257,3948
11284,4044
11491,4117
11709,4106
11860,4044
11888,3948
11572,3633
11257,3948
9888,3948
9572,3633
9257,3948
8982,3948
8982,3481
9018,3481
9028,3699
9091,3850
9186,3878
9502,3562
9643,3562
9958,3878
10054,3850
10127,3644
10119,3481
11018,3481
11028,3699
11091,3850
11186,3878
11502,3562
11643,3562
11958,3878
12054,3850
12127,3644
12116,3426
12054,3275
11958,3247
11643,3562
11502,3562
11186,3247
11091,3275
11018,3481
10119,3481
10116,3426
10054,3275
9958,3247
9643,3562
9502,3562
9186,3247
9091,3275
9018,3481
8982,3481
8982,3285
9257,3009
9622,3009
9436,3019
9284,3081
9257,3177
9572,3492
9888,3177
9860,3081
9659,3009
11622,3009
11436,3019
11284,3081
11257,3177
11572,3492
11888,3177
11860,3081
11659,3009
22637,3009
23039,3412
23022,3453
23022,3671
23106,3874
23260,4028
23462,4112
23490,4112
23913,4535
23913,8233
23873,8240
23788,8295
23731,8379
23711,8478
23711,9147
23729,9240
23783,9325
23867,9382
23966,9402
24753,9402
24846,9385
24931,9330
24988,9246
25008,9147
25008,8478
24991,8385
24936,8300
24853,8243
24807,8234
24807,7162
24901,7225
25072,7259
25166,7259
25209,7325
25292,7382
25391,7402
26138,7402
26106,7434
26009,7579
25975,7750
25975,8710
25945,8730
25888,8813
25867,8912
25867,9712
25885,9805
25940,9890
26023,9947
26122,9967
26722,9967
26815,9950
26900,9895
26957,9812
26977,9712
26977,9425
27172,9425
27172,9762
27210,9854
27281,9924
27373,9962
27610,9962
27672,9900
27672,9362
27772,9362
27772,9900
27835,9962
28072,9962
28164,9924
28234,9854
28272,9762
28272,9425
28391,9425
28391,9697
28429,9789
28500,9859
28592,9897
28922,9897
28985,9835
28985,9362
29085,9362
29085,9835
29147,9897
29478,9897
29570,9859
29641,9789
29679,9697
29679,9425
29616,9362
29085,9362
28985,9362
28454,9362
28391,9425
28272,9425
28210,9362
27772,9362
27672,9362
27235,9362
27172,9425
26977,9425
26977,8912
26968,8863
27172,8863
27172,9200
27235,9262
27672,9262
27672,8725
27772,8725
27772,9262
28210,9262
28272,9200
28272,8928
28391,8928
28391,9200
28454,9262
28985,9262
28985,8790
29085,8790
29085,9262
29616,9262
29679,9200
29679,8928
29641,8836
29570,8766
29478,8728
29147,8728
29085,8790
28985,8790
28922,8728
28592,8728
28500,8766
28429,8836
28391,8928
28272,8928
28272,8863
28234,8771
28164,8701
28072,8662
27835,8662
27772,8725
27672,8725
27610,8662
27373,8662
27281,8701
27210,8771
27172,8863
26968,8863
26960,8820
26905,8735
26869,8710
26869,7935
27104,7700
28524,7700
28588,7853
28736,8016
28935,8110
29022,8063
29022,7612
29122,7612
29122,8063
29210,8110
29409,8016
29557,7853
29620,7700
29572,7612
29122,7612
29022,7612
28572,7612
28524,7700
27104,7700
27402,7402
27753,7402
27846,7385
27931,7330
27988,7246
28008,7147
28008,7009
28733,7009
28821,7068
28736,7109
28588,7272
28524,7425
28572,7512
29022,7512
29022,7505
29122,7505
29122,7512
29572,7512
29620,7425
29557,7272
29503,7212
30007,7212
30007,7543
30045,7635
30116,7706
30208,7744
30460,7744
30522,7681
30522,7150
30070,7150
30007,7212
29503,7212
29409,7109
29324,7068
29483,6962
29605,6779
29641,6602
29689,6634
29711,6639
29822,6661
29822,6661
30007,6661
30007,6987
30070,7050
30522,7050
30522,7042
30622,7042
30622,7050
30630,7050
30630,7150
30622,7150
30622,7681
30685,7744
30937,7744
31029,7706
31099,7635
31115,7598
31326,7809
31326,7809
31380,7845
31439,7884
31572,7911
31572,7911
31628,7911
31662,7962
31845,8084
31986,8112
31973,8112
31881,8151
31810,8221
31772,8313
31772,9200
31835,9262
32522,9262
32522,8175
32460,8112
32159,8112
32300,8084
32412,8009
32916,8009
32959,8075
33014,8112
32685,8112
32622,8175
32622,9262
33310,9262
33372,9200
33372,8313
33334,8221
33265,8152
33493,8152
33625,8285
33625,10312
33626,10314
33372,10314
33372,10312
33372,9425
33310,9362
32622,9362
32622,9370
32522,9370
32522,9362
31835,9362
31772,9425
31772,10312
31810,10404
31881,10474
31973,10512
32030,10512
31826,10716
31750,10829
31750,10829
31724,10962
31724,10962
31724,11616
31322,11616
31151,11650
31039,11724
31006,11747
30376,12376
30257,12376
30165,12394
30080,12449
30023,12532
30002,12631
30002,13419
30020,13511
30075,13597
30158,13654
30257,13674
30887,13674
30980,13656
31065,13602
31122,13518
31142,13419
31142,12875
31507,12509
31733,12509
31812,12562
31662,12663
31539,12846
31496,13062
31539,13279
31662,13462
31812,13562
31662,13663
31539,13846
31496,14062
31539,14279
31662,14462
31812,14562
31662,14663
31539,14846
31496,15062
31539,15279
31662,15462
31845,15584
32061,15627
32083,15627
32300,15584
32474,15468
32474,15858
32422,15858
32330,15875
32245,15930
32188,16013
32167,16112
32167,16712
32185,16805
32240,16890
32323,16947
32422,16967
33222,16967
33315,16950
33400,16895
33457,16812
33477,16712
33477,16112
33460,16020
33405,15935
33357,15902
33493,15902
33875,16285
33875,16849
33777,16947
33679,17184
33679,17440
33776,17677
33957,17858
34194,17956
34450,17956
34686,17859
34713,17832
34746,17884
34829,17941
34929,17961
35716,17961
35809,17944
35894,17889
35951,17805
35962,17752
36093,17725
36238,17628
37388,16478
37389,16478
37485,16333
37519,16162
37519,12345
37604,12345
37696,12328
37782,12273
37793,12256
37793,17766
37793,17764
37624,17511
37371,17342
37072,17283
36774,17342
36521,17511
36352,17764
36293,18062
36352,18361
36521,18614
36774,18783
36775,18783
1369,18783
1371,18783
1624,18614
1793,18361
1852,18062
1793,17764
1624,17511
1371,17342
1072,17283
774,17342
521,17511
352,17764
352,17766
352,17212
2946,17212
3051,17440
3236,17611
3423,17688
3522,17641
3522,17112
3622,17112
3622,17641
3722,17688
3909,17611
4085,17448
7257,17448
7284,17544
7491,17617
7709,17606
7860,17544
7888,17448
9257,17448
9284,17544
9491,17617
9709,17606
9860,17544
9888,17448
9572,17133
9257,17448
7888,17448
7572,17133
7257,17448
4085,17448
4093,17440
4198,17212
4151,17112
3622,17112
3522,17112
2993,17112
2946,17212
352,17212
352,15669
2924,15669
2924,16456
2941,16549
2996,16634
3060,16677
3051,16685
2946,16913
2993,17012
3522,17012
3522,17005
3622,17005
3622,17012
4151,17012
4166,16981
7018,16981
7028,17199
7091,17350
7186,17378
7502,17062
7643,17062
7958,17378
8054,17350
8127,17144
8119,16981
9018,16981
9028,17199
9091,17350
9186,17378
9502,17062
9643,17062
9958,17378
10054,17350
10116,17175
18391,17175
18391,17447
18429,17539
18500,17609
18592,17647
18922,17647
18985,17585
18985,17112
19085,17112
19085,17585
19147,17647
19478,17647
19570,17609
19641,17539
19679,17447
19679,17175
19616,17112
19085,17112
18985,17112
18454,17112
18391,17175
10116,17175
10127,17144
10116,16926
10054,16775
9958,16747
9643,17062
9502,17062
9186,16747
9091,16775
9018,16981
8119,16981
8116,16926
8054,16775
7958,16747
7643,17062
7502,17062
7186,16747
7091,16775
7018,16981
4166,16981
4198,16913
4093,16685
4085,16677
4085,16677
7257,16677
7572,16992
7888,16677
9257,16677
9572,16992
9888,16677
9860,16581
9654,16508
9436,16519
9284,16581
9257,16677
7888,16677
7860,16581
7654,16508
7436,16519
7284,16581
7257,16677
4085,16677
4144,16639
4201,16555
4221,16456
4221,15950
5786,15950
5786,16340
5803,16433
5858,16518
5942,16575
6041,16595
7104,16595
7196,16578
7282,16523
7339,16439
7359,16340
7359,16062
12793,16062
12852,16361
13021,16614
13274,16783
13572,16842
13871,16783
14027,16678
18391,16678
18391,16950
18454,17012
18985,17012
18985,16540
19085,16540
19085,17012
19616,17012
19679,16950
19679,16728
19961,16728
19961,17397
19979,17490
20033,17575
20117,17632
20216,17652
21003,17652
21096,17635
21181,17580
21229,17509
23241,17509
23260,17528
23462,17612
23681,17613
23883,17529
23903,17509
25241,17509
25260,17528
25462,17612
25681,17613
25883,17529
25897,17515
28770,17515
28770,18110
28788,18202
28842,18287
28926,18345
29025,18365
29620,18365
29712,18347
29797,18292
29854,18209
29870,18134
30012,18276
30213,18360
30431,18360
30632,18277
30649,18259
30995,18259
31012,18276
31213,18360
31431,18360
31632,18277
31649,18259
32322,18259
32353,18253
32422,18267
33222,18267
33315,18250
33400,18195
33457,18112
33477,18012
33477,17412
33460,17320
33405,17235
33322,17178
33222,17158
32422,17158
32330,17175
32245,17230
32188,17313
32181,17347
32158,17362
32153,17366
31650,17366
31633,17349
31432,17265
31214,17265
31013,17348
30995,17366
30650,17366
30633,17349
30432,17265
30214,17265
30013,17348
29870,17491
29857,17423
29802,17338
29719,17280
29620,17260
29025,17260
28932,17278
28847,17333
28790,17416
28770,17515
25897,17515
26038,17374
26122,17172
26122,16954
26039,16751
25884,16596
25682,16513
25463,16512
25261,16596
25241,16616
23903,16616
23884,16596
23682,16513
23463,16512
23261,16596
23241,16616
21228,16616
21186,16550
21119,16504
21119,16165
21150,16145
21207,16062
21227,15962
21227,15162
21210,15070
21155,14985
21072,14928
20972,14908
20372,14908
20280,14925
20195,14980
20138,15063
20117,15162
20117,15962
20135,16055
20190,16140
20225,16165
20225,16473
20216,16473
20123,16490
20038,16545
19981,16629
19961,16728
19679,16728
19679,16678
19641,16586
19570,16516
19478,16478
19147,16478
19085,16540
18985,16540
18922,16478
18592,16478
18500,16516
18429,16586
18391,16678
14027,16678
14124,16614
14293,16361
14352,16062
14293,15764
14124,15511
13871,15342
13572,15283
13274,15342
13021,15511
12852,15764
12793,16062
7359,16062
7359,14962
7341,14869
7287,14784
7203,14727
7104,14707
6041,14707
5948,14725
5863,14779
5806,14863
5786,14962
5786,15352
3984,15352
3869,15375
3810,15414
3179,15414
3086,15432
3001,15486
2944,15570
2924,15669
352,15669
352,13100
2816,13100
2856,13301
2970,13472
3140,13585
3341,13625
3803,13625
4005,13585
4063,13547
5786,13547
5786,13663
5803,13756
5858,13841
5942,13898
6041,13918
7104,13918
7196,13900
7282,13846
7339,13762
7359,13663
7359,13547
8248,13547
8419,13513
8475,13475
8475,13960
8445,13980
8388,14063
8367,14162
8367,14962
8385,15055
8440,15140
8523,15197
8622,15217
9222,15217
9315,15200
9400,15145
9457,15062
9477,14962
9477,14675
9672,14675
9672,15012
9710,15104
9781,15174
9873,15212
10110,15212
10172,15150
10172,14612
10272,14612
10272,15150
10335,15212
10572,15212
10664,15174
10734,15104
10772,15012
10772,14675
10710,14612
10272,14612
10172,14612
9735,14612
9672,14675
9477,14675
9477,14162
9468,14113
9672,14113
9672,14450
9735,14512
10172,14512
10172,13975
10272,13975
10272,14512
10710,14512
10772,14450
10772,14113
10734,14021
10664,13951
10572,13912
10335,13912
10272,13975
10172,13975
10110,13912
9873,13912
9781,13951
9710,14021
9672,14113
9468,14113
9460,14070
9405,13985
9369,13960
9369,13728
16886,13728
16886,14397
16904,14490
16959,14575
17042,14632
17141,14652
17225,14652
17225,14960
17195,14980
17138,15063
17117,15162
17117,15962
17135,16055
17190,16140
17273,16197
17372,16217
17972,16217
18065,16200
18150,16145
18207,16062
18227,15962
18227,15675
18422,15675
18422,16012
18460,16104
18531,16174
18623,16212
18860,16212
18922,16150
18922,15612
19022,15612
19022,16150
19085,16212
19322,16212
19414,16174
19484,16104
19522,16012
19522,15675
19460,15612
19022,15612
18922,15612
18485,15612
18422,15675
18227,15675
18227,15162
18218,15113
18422,15113
18422,15450
18485,15512
18922,15512
18922,14975
19022,14975
19022,15512
19460,15512
19522,15450
19522,15113
19484,15021
19414,14951
19322,14912
19085,14912
19022,14975
18922,14975
18860,14912
18623,14912
18531,14951
18460,15021
18422,15113
18218,15113
18210,15070
18155,14985
18119,14960
18119,14561
18163,14496
18184,14397
18184,13728
18166,13635
18111,13550
18028,13493
17929,13473
17141,13473
17049,13490
16963,13545
16906,13629
16886,13728
9369,13728
9369,13200
9335,13029
9266,12925
9466,12925
9466,13177
9504,13269
9574,13339
9666,13377
9997,13377
10060,13315
10060,12862
10160,12862
10160,13315
10222,13377
10553,13377
10645,13339
10715,13269
10753,13177
10753,12925
10691,12862
10160,12862
10060,12862
9529,12862
9466,12925
9266,12925
9238,12884
9184,12829
9184,12498
9174,12448
9466,12448
9466,12700
9529,12762
10060,12762
10060,12310
10160,12310
10160,12762
10691,12762
10753,12700
10753,12448
10715,12356
10645,12286
10553,12248
10222,12248
10160,12310
10060,12310
9997,12248
9666,12248
9574,12286
9504,12356
9466,12448
9174,12448
9166,12405
9111,12320
9028,12263
8929,12243
8141,12243
8049,12260
7963,12315
7906,12398
7886,12498
7886,12653
7359,12653
7359,12285
7341,12192
7287,12107
7203,12050
7104,12030
6041,12030
5948,12047
5863,12102
5806,12186
5786,12285
5786,12653
4191,12653
4196,12649
4294,12467
4298,12444
4249,12362
3622,12362
3622,12370
3522,12370
3522,12362
2895,12362
2847,12444
2851,12467
2949,12649
3012,12700
2970,12728
2856,12899
2816,13100
352,13100
352,7425
2391,7425
2391,7697
2429,7789
2500,7859
2592,7897
2922,7897
2985,7835
2985,7362
3085,7362
3085,7835
3147,7897
3478,7897
3570,7859
3641,7789
3679,7697
3679,7425
3616,7362
3085,7362
2985,7362
2454,7362
2391,7425
352,7425
352,6928
2391,6928
2391,7200
2454,7262
2985,7262
2985,6790
3085,6790
3085,7262
3616,7262
3679,7200
3679,6978
3961,6978
3961,7647
3979,7740
4033,7825
4117,7882
4216,7902
4275,7902
4275,8318
4249,8335
4192,8418
4172,8517
4172,9108
4189,9200
4244,9286
4327,9343
4427,9363
5017,9363
5110,9345
5195,9290
5252,9207
5272,9108
5272,8517
5255,8425
5200,8339
5169,8318
5169,7838
5181,7830
5238,7746
5258,7647
5258,6978
5241,6885
5186,6800
5103,6743
5003,6723
4216,6723
4123,6740
4038,6795
3981,6879
3961,6978
3679,6978
3679,6928
3641,6836
3570,6766
3478,6728
3147,6728
3085,6790
2985,6790
2922,6728
2592,6728
2500,6766
2429,6836
2391,6928
352,6928
352,4712
2946,4712
3051,4940
3236,5111
3423,5188
3522,5141
3522,4612
3622,4612
3622,5141
3722,5188
3909,5111
4093,4940
4198,4712
4151,4612
3622,4612
3522,4612
2993,4612
2946,4712
352,4712
352,2859
352,2861
521,3114
774,3283
1072,3342
1371,3283
1624,3114
1793,2861
1852,2562
1793,2264
1624,2011
1371,1842
1369,1842
4800,1842
3728,2914
" /> 
</g>
<g style="fill:#FFFFFF; fill-opacity:1.0; 
stroke:#FFFFFF; stroke-width:100; stroke-opacity:1; 
stroke-linecap:round; stroke-linejoin:round;">
</g>
<g style="fill:#FFFFFF; fill-opacity:1.0; 
stroke:#FFFFFF; stroke-width:0; stroke-opacity:1; 
stroke-linecap:round; stroke-linejoin:round;">
<circle cx="22822.8" cy="11063" r="137.795" /> 
</g>
<g style="fill:#FFFFFF; fill-opacity:1.0; 
stroke:#FFFFFF; stroke-width:39.3701; stroke-opacity:1; 
stroke-linecap:round; stroke-linejoin:round;">
</g>
<g style="fill:#FFFFFF; fill-opacity:1.0; 
stroke:#FFFFFF; stroke-width:0; stroke-opacity:1; 
stroke-linecap:round; stroke-linejoin:round;">
<circle cx="30572.8" cy="8562.99" r="137.795" /> 
</g>
<g style="fill:#FFFFFF; fill-opacity:1.0; 
stroke:#FFFFFF; stroke-width:39.3701; stroke-opacity:1; 
stroke-linecap:round; stroke-linejoin:round;">
</g>
<g style="fill:#FFFFFF; fill-opacity:1.0; 
stroke:#FFFFFF; stroke-width:0; stroke-opacity:1; 
stroke-linecap:round; stroke-linejoin:round;">
<circle cx="7572.83" cy="17063" r="150" /> 
</g>
<g style="fill:#FFFFFF; fill-opacity:1.0; 
stroke:#FFFFFF; stroke-width:39.3701; stroke-opacity:1; 
stroke-linecap:round; stroke-linejoin:round;">
</g>
<g style="fill:#FFFFFF; fill-opacity:1.0; 
stroke:#FFFFFF; stroke-width:0; stroke-opacity:1; 
stroke-linecap:round; stroke-linejoin:round;">
<circle cx="9572.83" cy="17063" r="150" /> 
</g>
<g style="fill:#FFFFFF; fill-opacity:1.0; 
stroke:#FFFFFF; stroke-width:39.3701; stroke-opacity:1; 
stroke-linecap:round; stroke-linejoin:round;">
</g>
<g style="fill:#FFFFFF; fill-opacity:1.0; 
stroke:#FFFFFF; stroke-width:0; stroke-opacity:1; 
stroke-linecap:round; stroke-linejoin:round;">
<circle cx="9572.83" cy="3562.99" r="150" /> 
</g>
<g style="fill:#FFFFFF; fill-opacity:1.0; 
stroke:#FFFFFF; stroke-width:39.3701; stroke-opacity:1; 
stroke-linecap:round; stroke-linejoin:round;">
</g>
<g style="fill:#FFFFFF; fill-opacity:1.0; 
stroke:#FFFFFF; stroke-width:0; stroke-opacity:1; 
stroke-linecap:round; stroke-linejoin:round;">
<circle cx="11572.8" cy="3562.99" r="150" /> 
</g>
<g style="fill:#FFFFFF; fill-opacity:1.0; 
stroke:#FFFFFF; stroke-width:39.3701; stroke-opacity:1; 
stroke-linecap:round; stroke-linejoin:round;">
</g>
<g style="fill:#FFFFFF; fill-opacity:1.0; 
stroke:#FFFFFF; stroke-width:0; stroke-opacity:1; 
stroke-linecap:round; stroke-linejoin:round;">
<circle cx="23572.8" cy="17063" r="150" /> 
</g>
<g style="fill:#FFFFFF; fill-opacity:1.0; 
stroke:#FFFFFF; stroke-width:39.3701; stroke-opacity:1; 
stroke-linecap:round; stroke-linejoin:round;">
</g>
<g style="fill:#FFFFFF; fill-opacity:1.0; 
stroke:#FFFFFF; stroke-width:0; stroke-opacity:1; 
stroke-linecap:round; stroke-linejoin:round;">
<circle cx="25572.8" cy="17063" r="150" /> 
</g>
<g style="fill:#FFFFFF; fill-opacity:1.0; 
stroke:#FFFFFF; stroke-width:39.3701; stroke-opacity:1; 
stroke-linecap:round; stroke-linejoin:round;">
</g>
<g style="fill:#FFFFFF; fill-opacity:1.0; 
stroke:#FFFFFF; stroke-width:0; stroke-opacity:1; 
stroke-linecap:round; stroke-linejoin:round;">
<circle cx="23572.8" cy="3562.99" r="150" /> 
</g>
<g style="fill:#FFFFFF; fill-opacity:1.0; 
stroke:#FFFFFF; stroke-width:39.3701; stroke-opacity:1; 
stroke-linecap:round; stroke-linejoin:round;">
</g>
<g style="fill:#FFFFFF; fill-opacity:1.0; 
stroke:#FFFFFF; stroke-width:0; stroke-opacity:1; 
stroke-linecap:round; stroke-linejoin:round;">
<circle cx="25572.8" cy="3562.99" r="150" /> 
</g>
<g style="fill:#FFFFFF; fill-opacity:1.0; 
stroke:#FFFFFF; stroke-width:39.3701; stroke-opacity:1; 
stroke-linecap:round; stroke-linejoin:round;">
</g>
<g style="fill:#FFFFFF; fill-opacity:1.0; 
stroke:#FFFFFF; stroke-width:0; stroke-opacity:1; 
stroke-linecap:round; stroke-linejoin:round;">
<circle cx="35322.8" cy="17313" r="197" /> 
</g>
<g style="fill:#FFFFFF; fill-opacity:1.0; 
stroke:#FFFFFF; stroke-width:39.3701; stroke-opacity:1; 
stroke-linecap:round; stroke-linejoin:round;">
</g>
<g style="fill:#FFFFFF; fill-opacity:1.0; 
stroke:#FFFFFF; stroke-width:0; stroke-opacity:1; 
stroke-linecap:round; stroke-linejoin:round;">
<circle cx="34322.8" cy="17313" r="197" /> 
</g>
<g style="fill:#FFFFFF; fill-opacity:1.0; 
stroke:#FFFFFF; stroke-width:39.3701; stroke-opacity:1; 
stroke-linecap:round; stroke-linejoin:round;">
</g>
<g style="fill:#FFFFFF; fill-opacity:1.0; 
stroke:#FFFFFF; stroke-width:0; stroke-opacity:1; 
stroke-linecap:round; stroke-linejoin:round;">
<circle cx="3572.83" cy="17063" r="216" /> 
</g>
<g style="fill:#FFFFFF; fill-opacity:1.0; 
stroke:#FFFFFF; stroke-width:39.3701; stroke-opacity:1; 
stroke-linecap:round; stroke-linejoin:round;">
</g>
<g style="fill:#FFFFFF; fill-opacity:1.0; 
stroke:#FFFFFF; stroke-width:0; stroke-opacity:1; 
stroke-linecap:round; stroke-linejoin:round;">
<circle cx="3572.83" cy="16063" r="216" /> 
</g>
<g style="fill:#FFFFFF; fill-opacity:1.0; 
stroke:#FFFFFF; stroke-width:39.3701; stroke-opacity:1; 
stroke-linecap:round; stroke-linejoin:round;">
</g>
<g style="fill:#FFFFFF; fill-opacity:1.0; 
stroke:#FFFFFF; stroke-width:0; stroke-opacity:1; 
stroke-linecap:round; stroke-linejoin:round;">
<circle cx="3572.83" cy="4562.99" r="216" /> 
</g>
<g style="fill:#FFFFFF; fill-opacity:1.0; 
stroke:#FFFFFF; stroke-width:39.3701; stroke-opacity:1; 
stroke-linecap:round; stroke-linejoin:round;">
</g>
<g style="fill:#FFFFFF; fill-opacity:1.0; 
stroke:#FFFFFF; stroke-width:0; stroke-opacity:1; 
stroke-linecap:round; stroke-linejoin:round;">
<circle cx="3572.83" cy="3562.99" r="216" /> 
</g>
<g style="fill:#FFFFFF; fill-opacity:1.0; 
stroke:#FFFFFF; stroke-width:39.3701; stroke-opacity:1; 
stroke-linecap:round; stroke-linejoin:round;">
</g>
<g style="fill:#FFFFFF; fill-opacity:1.0; 
stroke:#FFFFFF; stroke-width:0; stroke-opacity:1; 
stroke-linecap:round; stroke-linejoin:round;">
<circle cx="31322.8" cy="17813" r="100.394" /> 
</g>
<g style="fill:#FFFFFF; fill-opacity:1.0; 
stroke:#FFFFFF; stroke-width:39.3701; stroke-opacity:1; 
stroke-linecap:round; stroke-linejoin:round;">
</g>
<g style="fill:#FFFFFF; fill-opacity:1.0; 
stroke:#FFFFFF; stroke-width:0; stroke-opacity:1; 
stroke-linecap:round; stroke-linejoin:round;">
<circle cx="29322.8" cy="17813" r="100.394" /> 
</g>
<g style="fill:#FFFFFF; fill-opacity:1.0; 
stroke:#FFFFFF; stroke-width:39.3701; stroke-opacity:1; 
stroke-linecap:round; stroke-linejoin:round;">
</g>
<g style="fill:#FFFFFF; fill-opacity:1.0; 
stroke:#FFFFFF; stroke-width:0; stroke-opacity:1; 
stroke-linecap:round; stroke-linejoin:round;">
<circle cx="30322.8" cy="17813" r="100.394" /> 
</g>
<g style="fill:#FFFFFF; fill-opacity:1.0; 
stroke:#FFFFFF; stroke-width:39.3701; stroke-opacity:1; 
stroke-linecap:round; stroke-linejoin:round;">
</g>
<g style="fill:#FFFFFF; fill-opacity:1.0; 
stroke:#FFFFFF; stroke-width:0; stroke-opacity:1; 
stroke-linecap:round; stroke-linejoin:round;">
<circle cx="31072.8" cy="3062.99" r="100.394" /> 
</g>
<g style="fill:#FFFFFF; fill-opacity:1.0; 
stroke:#FFFFFF; stroke-width:39.3701; stroke-opacity:1; 
stroke-linecap:round; stroke-linejoin:round;">
</g>
<g style="fill:#FFFFFF; fill-opacity:1.0; 
stroke:#FFFFFF; stroke-width:0; stroke-opacity:1; 
stroke-linecap:round; stroke-linejoin:round;">
<circle cx="29072.8" cy="3062.99" r="100.394" /> 
</g>
<g style="fill:#FFFFFF; fill-opacity:1.0; 
stroke:#FFFFFF; stroke-width:39.3701; stroke-opacity:1; 
stroke-linecap:round; stroke-linejoin:round;">
</g>
<g style="fill:#FFFFFF; fill-opacity:1.0; 
stroke:#FFFFFF; stroke-width:0; stroke-opacity:1; 
stroke-linecap:round; stroke-linejoin:round;">
<circle cx="30072.8" cy="3062.99" r="100.394" /> 
</g>
<g style="fill:#FFFFFF; fill-opacity:1.0; 
stroke:#FFFFFF; stroke-width:39.3701; stroke-opacity:1; 
stroke-linecap:round; stroke-linejoin:round;">
</g>
<g style="fill:#FFFFFF; fill-opacity:1.0; 
stroke:#FFFFFF; stroke-width:0; stroke-opacity:1; 
stroke-linecap:round; stroke-linejoin:round;">
<circle cx="29072.8" cy="12063" r="157.48" /> 
</g>
<g style="fill:#FFFFFF; fill-opacity:1.0; 
stroke:#FFFFFF; stroke-width:39.3701; stroke-opacity:1; 
stroke-linecap:round; stroke-linejoin:round;">
</g>
<g style="fill:#FFFFFF; fill-opacity:1.0; 
stroke:#FFFFFF; stroke-width:0; stroke-opacity:1; 
stroke-linecap:round; stroke-linejoin:round;">
<circle cx="32072.8" cy="15063" r="157.48" /> 
</g>
<g style="fill:#FFFFFF; fill-opacity:1.0; 
stroke:#FFFFFF; stroke-width:39.3701; stroke-opacity:1; 
stroke-linecap:round; stroke-linejoin:round;">
</g>
<g style="fill:#FFFFFF; fill-opacity:1.0; 
stroke:#FFFFFF; stroke-width:0; stroke-opacity:1; 
stroke-linecap:round; stroke-linejoin:round;">
<circle cx="29072.8" cy="13063" r="157.48" /> 
</g>
<g style="fill:#FFFFFF; fill-opacity:1.0; 
stroke:#FFFFFF; stroke-width:39.3701; stroke-opacity:1; 
stroke-linecap:round; stroke-linejoin:round;">
</g>
<g style="fill:#FFFFFF; fill-opacity:1.0; 
stroke:#FFFFFF; stroke-width:0; stroke-opacity:1; 
stroke-linecap:round; stroke-linejoin:round;">
<circle cx="32072.8" cy="14063" r="157.48" /> 
</g>
<g style="fill:#FFFFFF; fill-opacity:1.0; 
stroke:#FFFFFF; stroke-width:39.3701; stroke-opacity:1; 
stroke-linecap:round; stroke-linejoin:round;">
</g>
<g style="fill:#FFFFFF; fill-opacity:1.0; 
stroke:#FFFFFF; stroke-width:0; stroke-opacity:1; 
stroke-linecap:round; stroke-linejoin:round;">
<circle cx="29072.8" cy="14063" r="157.48" /> 
</g>
<g style="fill:#FFFFFF; fill-opacity:1.0; 
stroke:#FFFFFF; stroke-width:39.3701; stroke-opacity:1; 
stroke-linecap:round; stroke-linejoin:round;">
</g>
<g style="fill:#FFFFFF; fill-opacity:1.0; 
stroke:#FFFFFF; stroke-width:0; stroke-opacity:1; 
stroke-linecap:round; stroke-linejoin:round;">
<circle cx="32072.8" cy="13063" r="157.48" /> 
</g>
<g style="fill:#FFFFFF; fill-opacity:1.0; 
stroke:#FFFFFF; stroke-width:39.3701; stroke-opacity:1; 
stroke-linecap:round; stroke-linejoin:round;">
</g>
<g style="fill:#FFFFFF; fill-opacity:1.0; 
stroke:#FFFFFF; stroke-width:0; stroke-opacity:1; 
stroke-linecap:round; stroke-linejoin:round;">
<circle cx="29072.8" cy="15063" r="157.48" /> 
</g>
<g style="fill:#FFFFFF; fill-opacity:1.0; 
stroke:#FFFFFF; stroke-width:39.3701; stroke-opacity:1; 
stroke-linecap:round; stroke-linejoin:round;">
</g>
<g style="fill:#FFFFFF; fill-opacity:1.0; 
stroke:#FFFFFF; stroke-width:0; stroke-opacity:1; 
stroke-linecap:round; stroke-linejoin:round;">
<circle cx="32072.8" cy="12063" r="157.48" /> 
</g>
<g style="fill:#FFFFFF; fill-opacity:1.0; 
stroke:#FFFFFF; stroke-width:39.3701; stroke-opacity:1; 
stroke-linecap:round; stroke-linejoin:round;">
</g>
<g style="fill:#FFFFFF; fill-opacity:1.0; 
stroke:#FFFFFF; stroke-width:0; stroke-opacity:1; 
stroke-linecap:round; stroke-linejoin:round;">
<circle cx="3572.83" cy="12313" r="157.48" /> 
</g>
<g style="fill:#FFFFFF; fill-opacity:1.0; 
stroke:#FFFFFF; stroke-width:39.3701; stroke-opacity:1; 
stroke-linecap:round; stroke-linejoin:round;">
</g>
<g style="fill:#FFFFFF; fill-opacity:1.0; 
stroke:#FFFFFF; stroke-width:0; stroke-opacity:1; 
stroke-linecap:round; stroke-linejoin:round;">
<circle cx="3572.83" cy="13100.4" r="157.48" /> 
</g>
<g style="fill:#FFFFFF; fill-opacity:1.0; 
stroke:#FFFFFF; stroke-width:39.3701; stroke-opacity:1; 
stroke-linecap:round; stroke-linejoin:round;">
</g>
<g style="fill:#FFFFFF; fill-opacity:1.0; 
stroke:#FFFFFF; stroke-width:0; stroke-opacity:1; 
stroke-linecap:round; stroke-linejoin:round;">
<circle cx="3572.83" cy="11525.6" r="157.48" /> 
</g>
<g style="fill:#FFFFFF; fill-opacity:1.0; 
stroke:#FFFFFF; stroke-width:39.3701; stroke-opacity:1; 
stroke-linecap:round; stroke-linejoin:round;">
</g>
<g style="fill:#FFFFFF; fill-opacity:1.0; 
stroke:#FFFFFF; stroke-width:0; stroke-opacity:1; 
stroke-linecap:round; stroke-linejoin:round;">
<circle cx="29072.8" cy="4562.99" r="157.48" /> 
</g>
<g style="fill:#FFFFFF; fill-opacity:1.0; 
stroke:#FFFFFF; stroke-width:39.3701; stroke-opacity:1; 
stroke-linecap:round; stroke-linejoin:round;">
</g>
<g style="fill:#FFFFFF; fill-opacity:1.0; 
stroke:#FFFFFF; stroke-width:0; stroke-opacity:1; 
stroke-linecap:round; stroke-linejoin:round;">
<circle cx="32072.8" cy="7562.99" r="157.48" /> 
</g>
<g style="fill:#FFFFFF; fill-opacity:1.0; 
stroke:#FFFFFF; stroke-width:39.3701; stroke-opacity:1; 
stroke-linecap:round; stroke-linejoin:round;">
</g>
<g style="fill:#FFFFFF; fill-opacity:1.0; 
stroke:#FFFFFF; stroke-width:0; stroke-opacity:1; 
stroke-linecap:round; stroke-linejoin:round;">
<circle cx="29072.8" cy="5562.99" r="157.48" /> 
</g>
<g style="fill:#FFFFFF; fill-opacity:1.0; 
stroke:#FFFFFF; stroke-width:39.3701; stroke-opacity:1; 
stroke-linecap:round; stroke-linejoin:round;">
</g>
<g style="fill:#FFFFFF; fill-opacity:1.0; 
stroke:#FFFFFF; stroke-width:0; stroke-opacity:1; 
stroke-linecap:round; stroke-linejoin:round;">
<circle cx="32072.8" cy="6562.99" r="157.48" /> 
</g>
<g style="fill:#FFFFFF; fill-opacity:1.0; 
stroke:#FFFFFF; stroke-width:39.3701; stroke-opacity:1; 
stroke-linecap:round; stroke-linejoin:round;">
</g>
<g style="fill:#FFFFFF; fill-opacity:1.0; 
stroke:#FFFFFF; stroke-width:0; stroke-opacity:1; 
stroke-linecap:round; stroke-linejoin:round;">
<circle cx="29072.8" cy="6562.99" r="157.48" /> 
</g>
<g style="fill:#FFFFFF; fill-opacity:1.0; 
stroke:#FFFFFF; stroke-width:39.3701; stroke-opacity:1; 
stroke-linecap:round; stroke-linejoin:round;">
</g>
<g style="fill:#FFFFFF; fill-opacity:1.0; 
stroke:#FFFFFF; stroke-width:0; stroke-opacity:1; 
stroke-linecap:round; stroke-linejoin:round;">
<circle cx="32072.8" cy="5562.99" r="157.48" /> 
</g>
<g style="fill:#FFFFFF; fill-opacity:1.0; 
stroke:#FFFFFF; stroke-width:39.3701; stroke-opacity:1; 
stroke-linecap:round; stroke-linejoin:round;">
</g>
<g style="fill:#FFFFFF; fill-opacity:1.0; 
stroke:#FFFFFF; stroke-width:0; stroke-opacity:1; 
stroke-linecap:round; stroke-linejoin:round;">
<circle cx="29072.8" cy="7562.99" r="157.48" /> 
</g>
<g style="fill:#FFFFFF; fill-opacity:1.0; 
stroke:#FFFFFF; stroke-width:39.3701; stroke-opacity:1; 
stroke-linecap:round; stroke-linejoin:round;">
</g>
<g style="fill:#FFFFFF; fill-opacity:1.0; 
stroke:#FFFFFF; stroke-width:0; stroke-opacity:1; 
stroke-linecap:round; stroke-linejoin:round;">
<circle cx="32072.8" cy="4562.99" r="157.48" /> 
</g>
<g style="fill:#FFFFFF; fill-opacity:1.0; 
stroke:#FFFFFF; stroke-width:39.3701; stroke-opacity:1; 
stroke-linecap:round; stroke-linejoin:round;">
</g>
<g style="fill:#000000; fill-opacity:1.0; 
stroke:#000000; stroke-width:39.3701; stroke-opacity:1; 
stroke-linecap:round; stroke-linejoin:round;">
</g>
<g style="fill:#000000; fill-opacity:1.0; 
stroke:#000000; stroke-width:59.0551; stroke-opacity:1; 
stroke-linecap:round; stroke-linejoin:round;">
</g>
<g style="fill:#000000; fill-opacity:0.0; 
stroke:#000000; stroke-width:59.0551; stroke-opacity:1; 
stroke-linecap:round; stroke-linejoin:round;">
<circle cx="13572.8" cy="16063" r="500" /> 
<circle cx="13572.8" cy="4562.99" r="500" /> 
<path d="M72 19062
L72 1562
" />
<path d="M38072 19062
L72 19062
" />
<path d="M38072 1562
L38072 19062
" />
<path d="M72 1562
L38072 1562
" />
<circle cx="1072.83" cy="18063" r="500" /> 
<circle cx="1072.83" cy="2562.99" r="500" /> 
<circle cx="37072.8" cy="18063" r="500" /> 
<circle cx="37072.8" cy="2562.99" r="500" /> 
</g> 
</svg>
