%TF.GenerationSoftware,KiCad,Pcbnew,(6.0.10)*%
%TF.CreationDate,2023-04-08T13:34:01+03:00*%
%TF.ProjectId,DelSol_PSU,44656c53-6f6c-45f5-9053-552e6b696361,rev?*%
%TF.SameCoordinates,Original*%
%TF.FileFunction,Legend,Top*%
%TF.FilePolarity,Positive*%
%FSLAX46Y46*%
G04 Gerber Fmt 4.6, Leading zero omitted, Abs format (unit mm)*
G04 Created by KiCad (PCBNEW (6.0.10)) date 2023-04-08 13:34:01*
%MOMM*%
%LPD*%
G01*
G04 APERTURE LIST*
G04 Aperture macros list*
%AMRoundRect*
0 Rectangle with rounded corners*
0 $1 Rounding radius*
0 $2 $3 $4 $5 $6 $7 $8 $9 X,Y pos of 4 corners*
0 Add a 4 corners polygon primitive as box body*
4,1,4,$2,$3,$4,$5,$6,$7,$8,$9,$2,$3,0*
0 Add four circle primitives for the rounded corners*
1,1,$1+$1,$2,$3*
1,1,$1+$1,$4,$5*
1,1,$1+$1,$6,$7*
1,1,$1+$1,$8,$9*
0 Add four rect primitives between the rounded corners*
20,1,$1+$1,$2,$3,$4,$5,0*
20,1,$1+$1,$4,$5,$6,$7,0*
20,1,$1+$1,$6,$7,$8,$9,0*
20,1,$1+$1,$8,$9,$2,$3,0*%
G04 Aperture macros list end*
%ADD10C,0.150000*%
%ADD11C,0.120000*%
%ADD12R,1.700000X1.700000*%
%ADD13O,1.700000X1.700000*%
%ADD14R,2.000000X2.000000*%
%ADD15C,3.200000*%
%ADD16R,2.400000X2.400000*%
%ADD17C,2.400000*%
%ADD18O,2.000000X2.000000*%
%ADD19RoundRect,0.250001X-0.462499X-0.624999X0.462499X-0.624999X0.462499X0.624999X-0.462499X0.624999X0*%
%ADD20C,1.800000*%
%ADD21O,2.400000X2.400000*%
%ADD22C,1.600000*%
%ADD23O,1.600000X1.600000*%
%ADD24RoundRect,0.250000X0.625000X-0.400000X0.625000X0.400000X-0.625000X0.400000X-0.625000X-0.400000X0*%
%ADD25O,3.780000X2.600000*%
%ADD26C,1.400000*%
%ADD27RoundRect,0.250000X-0.400000X-0.625000X0.400000X-0.625000X0.400000X0.625000X-0.400000X0.625000X0*%
%ADD28RoundRect,0.500000X0.900000X-0.500000X0.900000X0.500000X-0.900000X0.500000X-0.900000X-0.500000X0*%
%ADD29O,2.800000X2.000000*%
%ADD30R,1.905000X2.000000*%
%ADD31O,1.905000X2.000000*%
G04 APERTURE END LIST*
D10*
X55729523Y-77752380D02*
X55729523Y-76752380D01*
X55729523Y-77704761D02*
X55634285Y-77752380D01*
X55443809Y-77752380D01*
X55348571Y-77704761D01*
X55300952Y-77657142D01*
X55253333Y-77561904D01*
X55253333Y-77276190D01*
X55300952Y-77180952D01*
X55348571Y-77133333D01*
X55443809Y-77085714D01*
X55634285Y-77085714D01*
X55729523Y-77133333D01*
X56110476Y-77085714D02*
X56634285Y-77085714D01*
X56110476Y-77752380D01*
X56634285Y-77752380D01*
X57634285Y-77276190D02*
X57586666Y-77228571D01*
X57491428Y-77180952D01*
X57396190Y-77180952D01*
X57300952Y-77228571D01*
X57253333Y-77276190D01*
X57205714Y-77371428D01*
X57205714Y-77466666D01*
X57253333Y-77561904D01*
X57300952Y-77609523D01*
X57396190Y-77657142D01*
X57491428Y-77657142D01*
X57586666Y-77609523D01*
X57634285Y-77561904D01*
X57634285Y-77180952D02*
X57634285Y-77561904D01*
X57681904Y-77609523D01*
X57729523Y-77609523D01*
X57824761Y-77561904D01*
X57872380Y-77466666D01*
X57872380Y-77228571D01*
X57777142Y-77085714D01*
X57634285Y-76990476D01*
X57443809Y-76942857D01*
X57253333Y-76990476D01*
X57110476Y-77085714D01*
X57015238Y-77228571D01*
X56967619Y-77419047D01*
X57015238Y-77609523D01*
X57110476Y-77752380D01*
X57253333Y-77847619D01*
X57443809Y-77895238D01*
X57634285Y-77847619D01*
X57777142Y-77752380D01*
X58729523Y-77752380D02*
X58729523Y-76752380D01*
X58729523Y-77704761D02*
X58634285Y-77752380D01*
X58443809Y-77752380D01*
X58348571Y-77704761D01*
X58300952Y-77657142D01*
X58253333Y-77561904D01*
X58253333Y-77276190D01*
X58300952Y-77180952D01*
X58348571Y-77133333D01*
X58443809Y-77085714D01*
X58634285Y-77085714D01*
X58729523Y-77133333D01*
X59110476Y-77085714D02*
X59634285Y-77085714D01*
X59110476Y-77752380D01*
X59634285Y-77752380D01*
X60015238Y-77657142D02*
X60062857Y-77704761D01*
X60015238Y-77752380D01*
X59967619Y-77704761D01*
X60015238Y-77657142D01*
X60015238Y-77752380D01*
X60491428Y-77752380D02*
X60491428Y-77085714D01*
X60491428Y-77276190D02*
X60539047Y-77180952D01*
X60586666Y-77133333D01*
X60681904Y-77085714D01*
X60777142Y-77085714D01*
X61539047Y-77085714D02*
X61539047Y-77752380D01*
X61110476Y-77085714D02*
X61110476Y-77609523D01*
X61158095Y-77704761D01*
X61253333Y-77752380D01*
X61396190Y-77752380D01*
X61491428Y-77704761D01*
X61539047Y-77657142D01*
X53824761Y-79362380D02*
X53824761Y-78362380D01*
X54158095Y-79076666D01*
X54491428Y-78362380D01*
X54491428Y-79362380D01*
X55110476Y-79362380D02*
X55015238Y-79314761D01*
X54967619Y-79267142D01*
X54920000Y-79171904D01*
X54920000Y-78886190D01*
X54967619Y-78790952D01*
X55015238Y-78743333D01*
X55110476Y-78695714D01*
X55253333Y-78695714D01*
X55348571Y-78743333D01*
X55396190Y-78790952D01*
X55443809Y-78886190D01*
X55443809Y-79171904D01*
X55396190Y-79267142D01*
X55348571Y-79314761D01*
X55253333Y-79362380D01*
X55110476Y-79362380D01*
X56300952Y-79362380D02*
X56300952Y-78362380D01*
X56300952Y-79314761D02*
X56205714Y-79362380D01*
X56015238Y-79362380D01*
X55920000Y-79314761D01*
X55872380Y-79267142D01*
X55824761Y-79171904D01*
X55824761Y-78886190D01*
X55872380Y-78790952D01*
X55920000Y-78743333D01*
X56015238Y-78695714D01*
X56205714Y-78695714D01*
X56300952Y-78743333D01*
X57205714Y-78695714D02*
X57205714Y-79362380D01*
X56777142Y-78695714D02*
X56777142Y-79219523D01*
X56824761Y-79314761D01*
X56920000Y-79362380D01*
X57062857Y-79362380D01*
X57158095Y-79314761D01*
X57205714Y-79267142D01*
X57824761Y-79362380D02*
X57729523Y-79314761D01*
X57681904Y-79219523D01*
X57681904Y-78362380D01*
X58634285Y-79362380D02*
X58634285Y-78838571D01*
X58586666Y-78743333D01*
X58491428Y-78695714D01*
X58300952Y-78695714D01*
X58205714Y-78743333D01*
X58634285Y-79314761D02*
X58539047Y-79362380D01*
X58300952Y-79362380D01*
X58205714Y-79314761D01*
X58158095Y-79219523D01*
X58158095Y-79124285D01*
X58205714Y-79029047D01*
X58300952Y-78981428D01*
X58539047Y-78981428D01*
X58634285Y-78933809D01*
X59110476Y-79362380D02*
X59110476Y-78695714D01*
X59110476Y-78886190D02*
X59158095Y-78790952D01*
X59205714Y-78743333D01*
X59300952Y-78695714D01*
X59396190Y-78695714D01*
X60491428Y-79362380D02*
X60491428Y-78362380D01*
X60872380Y-78362380D01*
X60967619Y-78410000D01*
X61015238Y-78457619D01*
X61062857Y-78552857D01*
X61062857Y-78695714D01*
X61015238Y-78790952D01*
X60967619Y-78838571D01*
X60872380Y-78886190D01*
X60491428Y-78886190D01*
X61443809Y-79314761D02*
X61586666Y-79362380D01*
X61824761Y-79362380D01*
X61920000Y-79314761D01*
X61967619Y-79267142D01*
X62015238Y-79171904D01*
X62015238Y-79076666D01*
X61967619Y-78981428D01*
X61920000Y-78933809D01*
X61824761Y-78886190D01*
X61634285Y-78838571D01*
X61539047Y-78790952D01*
X61491428Y-78743333D01*
X61443809Y-78648095D01*
X61443809Y-78552857D01*
X61491428Y-78457619D01*
X61539047Y-78410000D01*
X61634285Y-78362380D01*
X61872380Y-78362380D01*
X62015238Y-78410000D01*
X62443809Y-78362380D02*
X62443809Y-79171904D01*
X62491428Y-79267142D01*
X62539047Y-79314761D01*
X62634285Y-79362380D01*
X62824761Y-79362380D01*
X62920000Y-79314761D01*
X62967619Y-79267142D01*
X63015238Y-79171904D01*
X63015238Y-78362380D01*
X73660000Y-33360000D02*
X43660000Y-33360000D01*
X43660000Y-33360000D02*
X43660000Y-73360000D01*
X43660000Y-73360000D02*
X73660000Y-73360000D01*
X73660000Y-73360000D02*
X73660000Y-33360000D01*
X141859047Y-75636428D02*
X142620952Y-75636428D01*
X87884047Y-73731428D02*
X88645952Y-73731428D01*
X146924047Y-46426428D02*
X147685952Y-46426428D01*
X147305000Y-46807380D02*
X147305000Y-46045476D01*
X146924047Y-75636428D02*
X147685952Y-75636428D01*
X147305000Y-76017380D02*
X147305000Y-75255476D01*
X139954047Y-38171428D02*
X140715952Y-38171428D01*
X140335000Y-38552380D02*
X140335000Y-37790476D01*
X78994047Y-65476428D02*
X79755952Y-65476428D01*
X79375000Y-65857380D02*
X79375000Y-65095476D01*
X139954047Y-43251428D02*
X140715952Y-43251428D01*
X141859047Y-46426428D02*
X142620952Y-46426428D01*
X149087380Y-54103333D02*
X149801666Y-54103333D01*
X149944523Y-54150952D01*
X150039761Y-54246190D01*
X150087380Y-54389047D01*
X150087380Y-54484285D01*
X149182619Y-53674761D02*
X149135000Y-53627142D01*
X149087380Y-53531904D01*
X149087380Y-53293809D01*
X149135000Y-53198571D01*
X149182619Y-53150952D01*
X149277857Y-53103333D01*
X149373095Y-53103333D01*
X149515952Y-53150952D01*
X150087380Y-53722380D01*
X150087380Y-53103333D01*
X149087380Y-59183333D02*
X149801666Y-59183333D01*
X149944523Y-59230952D01*
X150039761Y-59326190D01*
X150087380Y-59469047D01*
X150087380Y-59564285D01*
X149420714Y-58278571D02*
X150087380Y-58278571D01*
X149039761Y-58516666D02*
X149754047Y-58754761D01*
X149754047Y-58135714D01*
X105132142Y-80652857D02*
X105179761Y-80700476D01*
X105227380Y-80843333D01*
X105227380Y-80938571D01*
X105179761Y-81081428D01*
X105084523Y-81176666D01*
X104989285Y-81224285D01*
X104798809Y-81271904D01*
X104655952Y-81271904D01*
X104465476Y-81224285D01*
X104370238Y-81176666D01*
X104275000Y-81081428D01*
X104227380Y-80938571D01*
X104227380Y-80843333D01*
X104275000Y-80700476D01*
X104322619Y-80652857D01*
X105227380Y-79700476D02*
X105227380Y-80271904D01*
X105227380Y-79986190D02*
X104227380Y-79986190D01*
X104370238Y-80081428D01*
X104465476Y-80176666D01*
X104513095Y-80271904D01*
X104322619Y-79319523D02*
X104275000Y-79271904D01*
X104227380Y-79176666D01*
X104227380Y-78938571D01*
X104275000Y-78843333D01*
X104322619Y-78795714D01*
X104417857Y-78748095D01*
X104513095Y-78748095D01*
X104655952Y-78795714D01*
X105227380Y-79367142D01*
X105227380Y-78748095D01*
X121007142Y-49696666D02*
X121054761Y-49744285D01*
X121102380Y-49887142D01*
X121102380Y-49982380D01*
X121054761Y-50125238D01*
X120959523Y-50220476D01*
X120864285Y-50268095D01*
X120673809Y-50315714D01*
X120530952Y-50315714D01*
X120340476Y-50268095D01*
X120245238Y-50220476D01*
X120150000Y-50125238D01*
X120102380Y-49982380D01*
X120102380Y-49887142D01*
X120150000Y-49744285D01*
X120197619Y-49696666D01*
X121102380Y-49220476D02*
X121102380Y-49030000D01*
X121054761Y-48934761D01*
X121007142Y-48887142D01*
X120864285Y-48791904D01*
X120673809Y-48744285D01*
X120292857Y-48744285D01*
X120197619Y-48791904D01*
X120150000Y-48839523D01*
X120102380Y-48934761D01*
X120102380Y-49125238D01*
X120150000Y-49220476D01*
X120197619Y-49268095D01*
X120292857Y-49315714D01*
X120530952Y-49315714D01*
X120626190Y-49268095D01*
X120673809Y-49220476D01*
X120721428Y-49125238D01*
X120721428Y-48934761D01*
X120673809Y-48839523D01*
X120626190Y-48791904D01*
X120530952Y-48744285D01*
X121007142Y-80176666D02*
X121054761Y-80224285D01*
X121102380Y-80367142D01*
X121102380Y-80462380D01*
X121054761Y-80605238D01*
X120959523Y-80700476D01*
X120864285Y-80748095D01*
X120673809Y-80795714D01*
X120530952Y-80795714D01*
X120340476Y-80748095D01*
X120245238Y-80700476D01*
X120150000Y-80605238D01*
X120102380Y-80462380D01*
X120102380Y-80367142D01*
X120150000Y-80224285D01*
X120197619Y-80176666D01*
X120102380Y-79319523D02*
X120102380Y-79510000D01*
X120150000Y-79605238D01*
X120197619Y-79652857D01*
X120340476Y-79748095D01*
X120530952Y-79795714D01*
X120911904Y-79795714D01*
X121007142Y-79748095D01*
X121054761Y-79700476D01*
X121102380Y-79605238D01*
X121102380Y-79414761D01*
X121054761Y-79319523D01*
X121007142Y-79271904D01*
X120911904Y-79224285D01*
X120673809Y-79224285D01*
X120578571Y-79271904D01*
X120530952Y-79319523D01*
X120483333Y-79414761D01*
X120483333Y-79605238D01*
X120530952Y-79700476D01*
X120578571Y-79748095D01*
X120673809Y-79795714D01*
X83081904Y-64938380D02*
X83081904Y-63938380D01*
X83320000Y-63938380D01*
X83462857Y-63986000D01*
X83558095Y-64081238D01*
X83605714Y-64176476D01*
X83653333Y-64366952D01*
X83653333Y-64509809D01*
X83605714Y-64700285D01*
X83558095Y-64795523D01*
X83462857Y-64890761D01*
X83320000Y-64938380D01*
X83081904Y-64938380D01*
X84558095Y-63938380D02*
X84081904Y-63938380D01*
X84034285Y-64414571D01*
X84081904Y-64366952D01*
X84177142Y-64319333D01*
X84415238Y-64319333D01*
X84510476Y-64366952D01*
X84558095Y-64414571D01*
X84605714Y-64509809D01*
X84605714Y-64747904D01*
X84558095Y-64843142D01*
X84510476Y-64890761D01*
X84415238Y-64938380D01*
X84177142Y-64938380D01*
X84081904Y-64890761D01*
X84034285Y-64843142D01*
X124991904Y-56332380D02*
X124991904Y-55332380D01*
X125230000Y-55332380D01*
X125372857Y-55380000D01*
X125468095Y-55475238D01*
X125515714Y-55570476D01*
X125563333Y-55760952D01*
X125563333Y-55903809D01*
X125515714Y-56094285D01*
X125468095Y-56189523D01*
X125372857Y-56284761D01*
X125230000Y-56332380D01*
X124991904Y-56332380D01*
X125944285Y-55427619D02*
X125991904Y-55380000D01*
X126087142Y-55332380D01*
X126325238Y-55332380D01*
X126420476Y-55380000D01*
X126468095Y-55427619D01*
X126515714Y-55522857D01*
X126515714Y-55618095D01*
X126468095Y-55760952D01*
X125896666Y-56332380D01*
X126515714Y-56332380D01*
X34964761Y-37692380D02*
X34631428Y-37216190D01*
X34393333Y-37692380D02*
X34393333Y-36692380D01*
X34774285Y-36692380D01*
X34869523Y-36740000D01*
X34917142Y-36787619D01*
X34964761Y-36882857D01*
X34964761Y-37025714D01*
X34917142Y-37120952D01*
X34869523Y-37168571D01*
X34774285Y-37216190D01*
X34393333Y-37216190D01*
X35250476Y-36692380D02*
X35583809Y-37692380D01*
X35917142Y-36692380D01*
X36774285Y-37692380D02*
X36202857Y-37692380D01*
X36488571Y-37692380D02*
X36488571Y-36692380D01*
X36393333Y-36835238D01*
X36298095Y-36930476D01*
X36202857Y-36978095D01*
X79843333Y-87447380D02*
X79510000Y-86971190D01*
X79271904Y-87447380D02*
X79271904Y-86447380D01*
X79652857Y-86447380D01*
X79748095Y-86495000D01*
X79795714Y-86542619D01*
X79843333Y-86637857D01*
X79843333Y-86780714D01*
X79795714Y-86875952D01*
X79748095Y-86923571D01*
X79652857Y-86971190D01*
X79271904Y-86971190D01*
X80748095Y-86447380D02*
X80271904Y-86447380D01*
X80224285Y-86923571D01*
X80271904Y-86875952D01*
X80367142Y-86828333D01*
X80605238Y-86828333D01*
X80700476Y-86875952D01*
X80748095Y-86923571D01*
X80795714Y-87018809D01*
X80795714Y-87256904D01*
X80748095Y-87352142D01*
X80700476Y-87399761D01*
X80605238Y-87447380D01*
X80367142Y-87447380D01*
X80271904Y-87399761D01*
X80224285Y-87352142D01*
X126662380Y-61293333D02*
X127376666Y-61293333D01*
X127519523Y-61340952D01*
X127614761Y-61436190D01*
X127662380Y-61579047D01*
X127662380Y-61674285D01*
X126662380Y-60912380D02*
X126662380Y-60245714D01*
X127662380Y-60674285D01*
X141406666Y-34377380D02*
X141406666Y-35091666D01*
X141359047Y-35234523D01*
X141263809Y-35329761D01*
X141120952Y-35377380D01*
X141025714Y-35377380D01*
X141882857Y-35377380D02*
X141882857Y-34377380D01*
X142263809Y-34377380D01*
X142359047Y-34425000D01*
X142406666Y-34472619D01*
X142454285Y-34567857D01*
X142454285Y-34710714D01*
X142406666Y-34805952D01*
X142359047Y-34853571D01*
X142263809Y-34901190D01*
X141882857Y-34901190D01*
X143406666Y-35377380D02*
X142835238Y-35377380D01*
X143120952Y-35377380D02*
X143120952Y-34377380D01*
X143025714Y-34520238D01*
X142930476Y-34615476D01*
X142835238Y-34663095D01*
X133881904Y-69032380D02*
X133881904Y-68032380D01*
X134120000Y-68032380D01*
X134262857Y-68080000D01*
X134358095Y-68175238D01*
X134405714Y-68270476D01*
X134453333Y-68460952D01*
X134453333Y-68603809D01*
X134405714Y-68794285D01*
X134358095Y-68889523D01*
X134262857Y-68984761D01*
X134120000Y-69032380D01*
X133881904Y-69032380D01*
X135310476Y-68032380D02*
X135120000Y-68032380D01*
X135024761Y-68080000D01*
X134977142Y-68127619D01*
X134881904Y-68270476D01*
X134834285Y-68460952D01*
X134834285Y-68841904D01*
X134881904Y-68937142D01*
X134929523Y-68984761D01*
X135024761Y-69032380D01*
X135215238Y-69032380D01*
X135310476Y-68984761D01*
X135358095Y-68937142D01*
X135405714Y-68841904D01*
X135405714Y-68603809D01*
X135358095Y-68508571D01*
X135310476Y-68460952D01*
X135215238Y-68413333D01*
X135024761Y-68413333D01*
X134929523Y-68460952D01*
X134881904Y-68508571D01*
X134834285Y-68603809D01*
X35917142Y-41917857D02*
X35964761Y-41965476D01*
X36012380Y-42108333D01*
X36012380Y-42203571D01*
X35964761Y-42346428D01*
X35869523Y-42441666D01*
X35774285Y-42489285D01*
X35583809Y-42536904D01*
X35440952Y-42536904D01*
X35250476Y-42489285D01*
X35155238Y-42441666D01*
X35060000Y-42346428D01*
X35012380Y-42203571D01*
X35012380Y-42108333D01*
X35060000Y-41965476D01*
X35107619Y-41917857D01*
X36012380Y-40965476D02*
X36012380Y-41536904D01*
X36012380Y-41251190D02*
X35012380Y-41251190D01*
X35155238Y-41346428D01*
X35250476Y-41441666D01*
X35298095Y-41536904D01*
X35012380Y-40632142D02*
X35012380Y-39965476D01*
X36012380Y-40394047D01*
X149087380Y-69343333D02*
X149801666Y-69343333D01*
X149944523Y-69390952D01*
X150039761Y-69486190D01*
X150087380Y-69629047D01*
X150087380Y-69724285D01*
X149087380Y-68390952D02*
X149087380Y-68867142D01*
X149563571Y-68914761D01*
X149515952Y-68867142D01*
X149468333Y-68771904D01*
X149468333Y-68533809D01*
X149515952Y-68438571D01*
X149563571Y-68390952D01*
X149658809Y-68343333D01*
X149896904Y-68343333D01*
X149992142Y-68390952D01*
X150039761Y-68438571D01*
X150087380Y-68533809D01*
X150087380Y-68771904D01*
X150039761Y-68867142D01*
X149992142Y-68914761D01*
X141406666Y-78402380D02*
X141406666Y-79116666D01*
X141359047Y-79259523D01*
X141263809Y-79354761D01*
X141120952Y-79402380D01*
X141025714Y-79402380D01*
X141882857Y-79402380D02*
X141882857Y-78402380D01*
X142263809Y-78402380D01*
X142359047Y-78450000D01*
X142406666Y-78497619D01*
X142454285Y-78592857D01*
X142454285Y-78735714D01*
X142406666Y-78830952D01*
X142359047Y-78878571D01*
X142263809Y-78926190D01*
X141882857Y-78926190D01*
X142787619Y-78402380D02*
X143406666Y-78402380D01*
X143073333Y-78783333D01*
X143216190Y-78783333D01*
X143311428Y-78830952D01*
X143359047Y-78878571D01*
X143406666Y-78973809D01*
X143406666Y-79211904D01*
X143359047Y-79307142D01*
X143311428Y-79354761D01*
X143216190Y-79402380D01*
X142930476Y-79402380D01*
X142835238Y-79354761D01*
X142787619Y-79307142D01*
X79843333Y-79827380D02*
X79510000Y-79351190D01*
X79271904Y-79827380D02*
X79271904Y-78827380D01*
X79652857Y-78827380D01*
X79748095Y-78875000D01*
X79795714Y-78922619D01*
X79843333Y-79017857D01*
X79843333Y-79160714D01*
X79795714Y-79255952D01*
X79748095Y-79303571D01*
X79652857Y-79351190D01*
X79271904Y-79351190D01*
X80700476Y-79160714D02*
X80700476Y-79827380D01*
X80462380Y-78779761D02*
X80224285Y-79494047D01*
X80843333Y-79494047D01*
X28297142Y-41917857D02*
X28344761Y-41965476D01*
X28392380Y-42108333D01*
X28392380Y-42203571D01*
X28344761Y-42346428D01*
X28249523Y-42441666D01*
X28154285Y-42489285D01*
X27963809Y-42536904D01*
X27820952Y-42536904D01*
X27630476Y-42489285D01*
X27535238Y-42441666D01*
X27440000Y-42346428D01*
X27392380Y-42203571D01*
X27392380Y-42108333D01*
X27440000Y-41965476D01*
X27487619Y-41917857D01*
X28392380Y-40965476D02*
X28392380Y-41536904D01*
X28392380Y-41251190D02*
X27392380Y-41251190D01*
X27535238Y-41346428D01*
X27630476Y-41441666D01*
X27678095Y-41536904D01*
X27820952Y-40394047D02*
X27773333Y-40489285D01*
X27725714Y-40536904D01*
X27630476Y-40584523D01*
X27582857Y-40584523D01*
X27487619Y-40536904D01*
X27440000Y-40489285D01*
X27392380Y-40394047D01*
X27392380Y-40203571D01*
X27440000Y-40108333D01*
X27487619Y-40060714D01*
X27582857Y-40013095D01*
X27630476Y-40013095D01*
X27725714Y-40060714D01*
X27773333Y-40108333D01*
X27820952Y-40203571D01*
X27820952Y-40394047D01*
X27868571Y-40489285D01*
X27916190Y-40536904D01*
X28011428Y-40584523D01*
X28201904Y-40584523D01*
X28297142Y-40536904D01*
X28344761Y-40489285D01*
X28392380Y-40394047D01*
X28392380Y-40203571D01*
X28344761Y-40108333D01*
X28297142Y-40060714D01*
X28201904Y-40013095D01*
X28011428Y-40013095D01*
X27916190Y-40060714D01*
X27868571Y-40108333D01*
X27820952Y-40203571D01*
X124912380Y-67476666D02*
X124436190Y-67810000D01*
X124912380Y-68048095D02*
X123912380Y-68048095D01*
X123912380Y-67667142D01*
X123960000Y-67571904D01*
X124007619Y-67524285D01*
X124102857Y-67476666D01*
X124245714Y-67476666D01*
X124340952Y-67524285D01*
X124388571Y-67571904D01*
X124436190Y-67667142D01*
X124436190Y-68048095D01*
X123912380Y-66619523D02*
X123912380Y-66810000D01*
X123960000Y-66905238D01*
X124007619Y-66952857D01*
X124150476Y-67048095D01*
X124340952Y-67095714D01*
X124721904Y-67095714D01*
X124817142Y-67048095D01*
X124864761Y-67000476D01*
X124912380Y-66905238D01*
X124912380Y-66714761D01*
X124864761Y-66619523D01*
X124817142Y-66571904D01*
X124721904Y-66524285D01*
X124483809Y-66524285D01*
X124388571Y-66571904D01*
X124340952Y-66619523D01*
X124293333Y-66714761D01*
X124293333Y-66905238D01*
X124340952Y-67000476D01*
X124388571Y-67048095D01*
X124483809Y-67095714D01*
X79208333Y-41727380D02*
X78875000Y-41251190D01*
X78636904Y-41727380D02*
X78636904Y-40727380D01*
X79017857Y-40727380D01*
X79113095Y-40775000D01*
X79160714Y-40822619D01*
X79208333Y-40917857D01*
X79208333Y-41060714D01*
X79160714Y-41155952D01*
X79113095Y-41203571D01*
X79017857Y-41251190D01*
X78636904Y-41251190D01*
X79589285Y-40822619D02*
X79636904Y-40775000D01*
X79732142Y-40727380D01*
X79970238Y-40727380D01*
X80065476Y-40775000D01*
X80113095Y-40822619D01*
X80160714Y-40917857D01*
X80160714Y-41013095D01*
X80113095Y-41155952D01*
X79541666Y-41727380D01*
X80160714Y-41727380D01*
X79208333Y-34107380D02*
X78875000Y-33631190D01*
X78636904Y-34107380D02*
X78636904Y-33107380D01*
X79017857Y-33107380D01*
X79113095Y-33155000D01*
X79160714Y-33202619D01*
X79208333Y-33297857D01*
X79208333Y-33440714D01*
X79160714Y-33535952D01*
X79113095Y-33583571D01*
X79017857Y-33631190D01*
X78636904Y-33631190D01*
X79541666Y-33107380D02*
X80160714Y-33107380D01*
X79827380Y-33488333D01*
X79970238Y-33488333D01*
X80065476Y-33535952D01*
X80113095Y-33583571D01*
X80160714Y-33678809D01*
X80160714Y-33916904D01*
X80113095Y-34012142D01*
X80065476Y-34059761D01*
X79970238Y-34107380D01*
X79684523Y-34107380D01*
X79589285Y-34059761D01*
X79541666Y-34012142D01*
X149087380Y-49023333D02*
X149801666Y-49023333D01*
X149944523Y-49070952D01*
X150039761Y-49166190D01*
X150087380Y-49309047D01*
X150087380Y-49404285D01*
X150087380Y-48023333D02*
X150087380Y-48594761D01*
X150087380Y-48309047D02*
X149087380Y-48309047D01*
X149230238Y-48404285D01*
X149325476Y-48499523D01*
X149373095Y-48594761D01*
X124277380Y-90773095D02*
X123277380Y-90773095D01*
X123753571Y-90773095D02*
X123753571Y-90201666D01*
X124277380Y-90201666D02*
X123277380Y-90201666D01*
X124229761Y-89773095D02*
X124277380Y-89630238D01*
X124277380Y-89392142D01*
X124229761Y-89296904D01*
X124182142Y-89249285D01*
X124086904Y-89201666D01*
X123991666Y-89201666D01*
X123896428Y-89249285D01*
X123848809Y-89296904D01*
X123801190Y-89392142D01*
X123753571Y-89582619D01*
X123705952Y-89677857D01*
X123658333Y-89725476D01*
X123563095Y-89773095D01*
X123467857Y-89773095D01*
X123372619Y-89725476D01*
X123325000Y-89677857D01*
X123277380Y-89582619D01*
X123277380Y-89344523D01*
X123325000Y-89201666D01*
X123372619Y-88820714D02*
X123325000Y-88773095D01*
X123277380Y-88677857D01*
X123277380Y-88439761D01*
X123325000Y-88344523D01*
X123372619Y-88296904D01*
X123467857Y-88249285D01*
X123563095Y-88249285D01*
X123705952Y-88296904D01*
X124277380Y-88868333D01*
X124277380Y-88249285D01*
X126662380Y-65103333D02*
X127376666Y-65103333D01*
X127519523Y-65150952D01*
X127614761Y-65246190D01*
X127662380Y-65389047D01*
X127662380Y-65484285D01*
X127090952Y-64484285D02*
X127043333Y-64579523D01*
X126995714Y-64627142D01*
X126900476Y-64674761D01*
X126852857Y-64674761D01*
X126757619Y-64627142D01*
X126710000Y-64579523D01*
X126662380Y-64484285D01*
X126662380Y-64293809D01*
X126710000Y-64198571D01*
X126757619Y-64150952D01*
X126852857Y-64103333D01*
X126900476Y-64103333D01*
X126995714Y-64150952D01*
X127043333Y-64198571D01*
X127090952Y-64293809D01*
X127090952Y-64484285D01*
X127138571Y-64579523D01*
X127186190Y-64627142D01*
X127281428Y-64674761D01*
X127471904Y-64674761D01*
X127567142Y-64627142D01*
X127614761Y-64579523D01*
X127662380Y-64484285D01*
X127662380Y-64293809D01*
X127614761Y-64198571D01*
X127567142Y-64150952D01*
X127471904Y-64103333D01*
X127281428Y-64103333D01*
X127186190Y-64150952D01*
X127138571Y-64198571D01*
X127090952Y-64293809D01*
X87717380Y-62829333D02*
X88431666Y-62829333D01*
X88574523Y-62876952D01*
X88669761Y-62972190D01*
X88717380Y-63115047D01*
X88717380Y-63210285D01*
X88717380Y-62353142D02*
X87717380Y-62353142D01*
X87717380Y-61972190D01*
X87765000Y-61876952D01*
X87812619Y-61829333D01*
X87907857Y-61781714D01*
X88050714Y-61781714D01*
X88145952Y-61829333D01*
X88193571Y-61876952D01*
X88241190Y-61972190D01*
X88241190Y-62353142D01*
X87812619Y-61400761D02*
X87765000Y-61353142D01*
X87717380Y-61257904D01*
X87717380Y-61019809D01*
X87765000Y-60924571D01*
X87812619Y-60876952D01*
X87907857Y-60829333D01*
X88003095Y-60829333D01*
X88145952Y-60876952D01*
X88717380Y-61448380D01*
X88717380Y-60829333D01*
X149087380Y-64263333D02*
X149801666Y-64263333D01*
X149944523Y-64310952D01*
X150039761Y-64406190D01*
X150087380Y-64549047D01*
X150087380Y-64644285D01*
X149087380Y-63358571D02*
X149087380Y-63549047D01*
X149135000Y-63644285D01*
X149182619Y-63691904D01*
X149325476Y-63787142D01*
X149515952Y-63834761D01*
X149896904Y-63834761D01*
X149992142Y-63787142D01*
X150039761Y-63739523D01*
X150087380Y-63644285D01*
X150087380Y-63453809D01*
X150039761Y-63358571D01*
X149992142Y-63310952D01*
X149896904Y-63263333D01*
X149658809Y-63263333D01*
X149563571Y-63310952D01*
X149515952Y-63358571D01*
X149468333Y-63453809D01*
X149468333Y-63644285D01*
X149515952Y-63739523D01*
X149563571Y-63787142D01*
X149658809Y-63834761D01*
X135443333Y-54512380D02*
X135110000Y-54036190D01*
X134871904Y-54512380D02*
X134871904Y-53512380D01*
X135252857Y-53512380D01*
X135348095Y-53560000D01*
X135395714Y-53607619D01*
X135443333Y-53702857D01*
X135443333Y-53845714D01*
X135395714Y-53940952D01*
X135348095Y-53988571D01*
X135252857Y-54036190D01*
X134871904Y-54036190D01*
X136395714Y-54512380D02*
X135824285Y-54512380D01*
X136110000Y-54512380D02*
X136110000Y-53512380D01*
X136014761Y-53655238D01*
X135919523Y-53750476D01*
X135824285Y-53798095D01*
X121007142Y-65412857D02*
X121054761Y-65460476D01*
X121102380Y-65603333D01*
X121102380Y-65698571D01*
X121054761Y-65841428D01*
X120959523Y-65936666D01*
X120864285Y-65984285D01*
X120673809Y-66031904D01*
X120530952Y-66031904D01*
X120340476Y-65984285D01*
X120245238Y-65936666D01*
X120150000Y-65841428D01*
X120102380Y-65698571D01*
X120102380Y-65603333D01*
X120150000Y-65460476D01*
X120197619Y-65412857D01*
X121102380Y-64460476D02*
X121102380Y-65031904D01*
X121102380Y-64746190D02*
X120102380Y-64746190D01*
X120245238Y-64841428D01*
X120340476Y-64936666D01*
X120388095Y-65031904D01*
X120102380Y-63841428D02*
X120102380Y-63746190D01*
X120150000Y-63650952D01*
X120197619Y-63603333D01*
X120292857Y-63555714D01*
X120483333Y-63508095D01*
X120721428Y-63508095D01*
X120911904Y-63555714D01*
X121007142Y-63603333D01*
X121054761Y-63650952D01*
X121102380Y-63746190D01*
X121102380Y-63841428D01*
X121054761Y-63936666D01*
X121007142Y-63984285D01*
X120911904Y-64031904D01*
X120721428Y-64079523D01*
X120483333Y-64079523D01*
X120292857Y-64031904D01*
X120197619Y-63984285D01*
X120150000Y-63936666D01*
X120102380Y-63841428D01*
X25908571Y-75263333D02*
X25908571Y-75596666D01*
X26432380Y-75596666D02*
X25432380Y-75596666D01*
X25432380Y-75120476D01*
X26432380Y-74215714D02*
X26432380Y-74787142D01*
X26432380Y-74501428D02*
X25432380Y-74501428D01*
X25575238Y-74596666D01*
X25670476Y-74691904D01*
X25718095Y-74787142D01*
X121007142Y-34456666D02*
X121054761Y-34504285D01*
X121102380Y-34647142D01*
X121102380Y-34742380D01*
X121054761Y-34885238D01*
X120959523Y-34980476D01*
X120864285Y-35028095D01*
X120673809Y-35075714D01*
X120530952Y-35075714D01*
X120340476Y-35028095D01*
X120245238Y-34980476D01*
X120150000Y-34885238D01*
X120102380Y-34742380D01*
X120102380Y-34647142D01*
X120150000Y-34504285D01*
X120197619Y-34456666D01*
X120197619Y-34075714D02*
X120150000Y-34028095D01*
X120102380Y-33932857D01*
X120102380Y-33694761D01*
X120150000Y-33599523D01*
X120197619Y-33551904D01*
X120292857Y-33504285D01*
X120388095Y-33504285D01*
X120530952Y-33551904D01*
X121102380Y-34123333D01*
X121102380Y-33504285D01*
X124968095Y-75652380D02*
X124968095Y-76461904D01*
X125015714Y-76557142D01*
X125063333Y-76604761D01*
X125158571Y-76652380D01*
X125349047Y-76652380D01*
X125444285Y-76604761D01*
X125491904Y-76557142D01*
X125539523Y-76461904D01*
X125539523Y-75652380D01*
X125968095Y-75747619D02*
X126015714Y-75700000D01*
X126110952Y-75652380D01*
X126349047Y-75652380D01*
X126444285Y-75700000D01*
X126491904Y-75747619D01*
X126539523Y-75842857D01*
X126539523Y-75938095D01*
X126491904Y-76080952D01*
X125920476Y-76652380D01*
X126539523Y-76652380D01*
X124277380Y-46958095D02*
X123277380Y-46958095D01*
X123753571Y-46958095D02*
X123753571Y-46386666D01*
X124277380Y-46386666D02*
X123277380Y-46386666D01*
X124229761Y-45958095D02*
X124277380Y-45815238D01*
X124277380Y-45577142D01*
X124229761Y-45481904D01*
X124182142Y-45434285D01*
X124086904Y-45386666D01*
X123991666Y-45386666D01*
X123896428Y-45434285D01*
X123848809Y-45481904D01*
X123801190Y-45577142D01*
X123753571Y-45767619D01*
X123705952Y-45862857D01*
X123658333Y-45910476D01*
X123563095Y-45958095D01*
X123467857Y-45958095D01*
X123372619Y-45910476D01*
X123325000Y-45862857D01*
X123277380Y-45767619D01*
X123277380Y-45529523D01*
X123325000Y-45386666D01*
X124277380Y-44434285D02*
X124277380Y-45005714D01*
X124277380Y-44720000D02*
X123277380Y-44720000D01*
X123420238Y-44815238D01*
X123515476Y-44910476D01*
X123563095Y-45005714D01*
X124968095Y-47712380D02*
X124968095Y-48521904D01*
X125015714Y-48617142D01*
X125063333Y-48664761D01*
X125158571Y-48712380D01*
X125349047Y-48712380D01*
X125444285Y-48664761D01*
X125491904Y-48617142D01*
X125539523Y-48521904D01*
X125539523Y-47712380D01*
X126539523Y-48712380D02*
X125968095Y-48712380D01*
X126253809Y-48712380D02*
X126253809Y-47712380D01*
X126158571Y-47855238D01*
X126063333Y-47950476D01*
X125968095Y-47998095D01*
X149102380Y-73993333D02*
X149816666Y-73993333D01*
X149959523Y-74040952D01*
X150054761Y-74136190D01*
X150102380Y-74279047D01*
X150102380Y-74374285D01*
X149102380Y-73612380D02*
X149102380Y-72993333D01*
X149483333Y-73326666D01*
X149483333Y-73183809D01*
X149530952Y-73088571D01*
X149578571Y-73040952D01*
X149673809Y-72993333D01*
X149911904Y-72993333D01*
X150007142Y-73040952D01*
X150054761Y-73088571D01*
X150102380Y-73183809D01*
X150102380Y-73469523D01*
X150054761Y-73564761D01*
X150007142Y-73612380D01*
X105132142Y-34932857D02*
X105179761Y-34980476D01*
X105227380Y-35123333D01*
X105227380Y-35218571D01*
X105179761Y-35361428D01*
X105084523Y-35456666D01*
X104989285Y-35504285D01*
X104798809Y-35551904D01*
X104655952Y-35551904D01*
X104465476Y-35504285D01*
X104370238Y-35456666D01*
X104275000Y-35361428D01*
X104227380Y-35218571D01*
X104227380Y-35123333D01*
X104275000Y-34980476D01*
X104322619Y-34932857D01*
X105227380Y-33980476D02*
X105227380Y-34551904D01*
X105227380Y-34266190D02*
X104227380Y-34266190D01*
X104370238Y-34361428D01*
X104465476Y-34456666D01*
X104513095Y-34551904D01*
X105227380Y-33028095D02*
X105227380Y-33599523D01*
X105227380Y-33313809D02*
X104227380Y-33313809D01*
X104370238Y-33409047D01*
X104465476Y-33504285D01*
X104513095Y-33599523D01*
X105132142Y-49696666D02*
X105179761Y-49744285D01*
X105227380Y-49887142D01*
X105227380Y-49982380D01*
X105179761Y-50125238D01*
X105084523Y-50220476D01*
X104989285Y-50268095D01*
X104798809Y-50315714D01*
X104655952Y-50315714D01*
X104465476Y-50268095D01*
X104370238Y-50220476D01*
X104275000Y-50125238D01*
X104227380Y-49982380D01*
X104227380Y-49887142D01*
X104275000Y-49744285D01*
X104322619Y-49696666D01*
X105227380Y-48744285D02*
X105227380Y-49315714D01*
X105227380Y-49030000D02*
X104227380Y-49030000D01*
X104370238Y-49125238D01*
X104465476Y-49220476D01*
X104513095Y-49315714D01*
X105132142Y-64936666D02*
X105179761Y-64984285D01*
X105227380Y-65127142D01*
X105227380Y-65222380D01*
X105179761Y-65365238D01*
X105084523Y-65460476D01*
X104989285Y-65508095D01*
X104798809Y-65555714D01*
X104655952Y-65555714D01*
X104465476Y-65508095D01*
X104370238Y-65460476D01*
X104275000Y-65365238D01*
X104227380Y-65222380D01*
X104227380Y-65127142D01*
X104275000Y-64984285D01*
X104322619Y-64936666D01*
X104227380Y-64031904D02*
X104227380Y-64508095D01*
X104703571Y-64555714D01*
X104655952Y-64508095D01*
X104608333Y-64412857D01*
X104608333Y-64174761D01*
X104655952Y-64079523D01*
X104703571Y-64031904D01*
X104798809Y-63984285D01*
X105036904Y-63984285D01*
X105132142Y-64031904D01*
X105179761Y-64079523D01*
X105227380Y-64174761D01*
X105227380Y-64412857D01*
X105179761Y-64508095D01*
X105132142Y-64555714D01*
D11*
X147305000Y-52440000D02*
X148635000Y-52440000D01*
X146035000Y-52440000D02*
X146035000Y-55100000D01*
X146035000Y-52440000D02*
X140895000Y-52440000D01*
X146035000Y-55100000D02*
X140895000Y-55100000D01*
X140895000Y-52440000D02*
X140895000Y-55100000D01*
X148635000Y-52440000D02*
X148635000Y-53770000D01*
X52140000Y-85160000D02*
X54540000Y-85160000D01*
X54540000Y-87560000D02*
X52140000Y-87560000D01*
X52140000Y-87560000D02*
X52140000Y-85160000D01*
X54540000Y-85160000D02*
X54540000Y-87560000D01*
X140895000Y-57520000D02*
X140895000Y-60180000D01*
X148635000Y-57520000D02*
X148635000Y-58850000D01*
X147305000Y-57520000D02*
X148635000Y-57520000D01*
X146035000Y-57520000D02*
X146035000Y-60180000D01*
X146035000Y-60180000D02*
X140895000Y-60180000D01*
X146035000Y-57520000D02*
X140895000Y-57520000D01*
X59620000Y-87560000D02*
X57220000Y-87560000D01*
X57220000Y-87560000D02*
X57220000Y-85160000D01*
X59620000Y-85160000D02*
X59620000Y-87560000D01*
X57220000Y-85160000D02*
X59620000Y-85160000D01*
X104930000Y-86246000D02*
X91920000Y-86246000D01*
X104993000Y-85645000D02*
X91857000Y-85645000D01*
X104066000Y-88646000D02*
X99865000Y-88646000D01*
X104966000Y-85966000D02*
X91884000Y-85966000D01*
X96985000Y-86846000D02*
X92041000Y-86846000D01*
X103107000Y-89886000D02*
X93743000Y-89886000D01*
X104539000Y-87686000D02*
X99865000Y-87686000D01*
X101577000Y-91046000D02*
X95273000Y-91046000D01*
X96985000Y-86766000D02*
X92021000Y-86766000D01*
X103222000Y-89766000D02*
X93628000Y-89766000D01*
X96985000Y-87086000D02*
X92105000Y-87086000D01*
X101852000Y-90886000D02*
X94998000Y-90886000D01*
X100078000Y-91646000D02*
X96772000Y-91646000D01*
X104952000Y-86086000D02*
X91898000Y-86086000D01*
X96985000Y-88526000D02*
X92714000Y-88526000D01*
X104421000Y-87966000D02*
X99865000Y-87966000D01*
X96985000Y-88566000D02*
X92737000Y-88566000D01*
X96985000Y-87326000D02*
X92180000Y-87326000D01*
X104941000Y-86166000D02*
X91909000Y-86166000D01*
X104365000Y-88086000D02*
X99865000Y-88086000D01*
X104881000Y-86526000D02*
X99865000Y-86526000D01*
X102944000Y-90046000D02*
X93906000Y-90046000D01*
X103749000Y-89126000D02*
X99865000Y-89126000D01*
X104657000Y-87366000D02*
X99865000Y-87366000D01*
X104996000Y-85605000D02*
X91854000Y-85605000D01*
X104670000Y-87326000D02*
X99865000Y-87326000D01*
X104327000Y-88166000D02*
X99865000Y-88166000D01*
X101267000Y-91206000D02*
X95583000Y-91206000D01*
X96985000Y-88326000D02*
X92605000Y-88326000D01*
X102140000Y-78160431D02*
X102140000Y-79460431D01*
X103941000Y-88846000D02*
X99865000Y-88846000D01*
X96985000Y-89006000D02*
X93016000Y-89006000D01*
X105004000Y-85405000D02*
X91846000Y-85405000D01*
X101427000Y-91126000D02*
X95423000Y-91126000D01*
X96985000Y-87846000D02*
X92376000Y-87846000D01*
X96985000Y-86886000D02*
X92051000Y-86886000D01*
X104778000Y-86966000D02*
X99865000Y-86966000D01*
X103630000Y-89286000D02*
X93220000Y-89286000D01*
X102582000Y-90366000D02*
X94268000Y-90366000D01*
X96985000Y-88206000D02*
X92543000Y-88206000D01*
X105001000Y-85485000D02*
X91849000Y-85485000D01*
X102431000Y-90486000D02*
X94419000Y-90486000D01*
X96985000Y-87286000D02*
X92167000Y-87286000D01*
X104158000Y-88486000D02*
X99865000Y-88486000D01*
X104799000Y-86886000D02*
X99865000Y-86886000D01*
X96985000Y-89166000D02*
X93130000Y-89166000D01*
X100223000Y-91606000D02*
X96627000Y-91606000D01*
X105005000Y-85245000D02*
X91845000Y-85245000D01*
X96985000Y-87646000D02*
X92295000Y-87646000D01*
X96985000Y-88726000D02*
X92833000Y-88726000D01*
X103660000Y-89246000D02*
X93190000Y-89246000D01*
X100480000Y-91526000D02*
X96370000Y-91526000D01*
X101648000Y-91006000D02*
X95202000Y-91006000D01*
X103806000Y-89046000D02*
X99865000Y-89046000D01*
X102902000Y-90086000D02*
X93948000Y-90086000D01*
X100706000Y-91446000D02*
X96144000Y-91446000D01*
X96985000Y-87046000D02*
X92094000Y-87046000D01*
X96985000Y-87966000D02*
X92429000Y-87966000D01*
X103259000Y-89726000D02*
X93591000Y-89726000D01*
X96985000Y-87206000D02*
X92141000Y-87206000D01*
X96985000Y-86806000D02*
X92031000Y-86806000D01*
X104957000Y-86046000D02*
X91893000Y-86046000D01*
X96985000Y-87886000D02*
X92394000Y-87886000D01*
X103888000Y-88926000D02*
X99865000Y-88926000D01*
X96985000Y-88926000D02*
X92962000Y-88926000D01*
X104978000Y-85845000D02*
X91872000Y-85845000D01*
X102630000Y-90326000D02*
X94220000Y-90326000D01*
X104600000Y-87526000D02*
X99865000Y-87526000D01*
X104923000Y-86286000D02*
X91927000Y-86286000D01*
X103503000Y-89446000D02*
X93347000Y-89446000D01*
X102482000Y-90446000D02*
X94368000Y-90446000D01*
X103720000Y-89166000D02*
X99865000Y-89166000D01*
X104970000Y-85925000D02*
X91880000Y-85925000D01*
X104721000Y-87166000D02*
X99865000Y-87166000D01*
X99532000Y-91766000D02*
X97318000Y-91766000D01*
X96985000Y-87766000D02*
X92343000Y-87766000D01*
X105005000Y-85325000D02*
X91845000Y-85325000D01*
X104962000Y-86006000D02*
X91888000Y-86006000D01*
X96985000Y-88766000D02*
X92858000Y-88766000D01*
X96985000Y-87366000D02*
X92193000Y-87366000D01*
X104136000Y-88526000D02*
X99865000Y-88526000D01*
X104346000Y-88126000D02*
X99865000Y-88126000D01*
X96985000Y-88406000D02*
X92647000Y-88406000D01*
X96985000Y-88286000D02*
X92584000Y-88286000D01*
X104819000Y-86806000D02*
X99865000Y-86806000D01*
X104384000Y-88046000D02*
X99865000Y-88046000D01*
X104756000Y-87046000D02*
X99865000Y-87046000D01*
X96985000Y-86526000D02*
X91969000Y-86526000D01*
X103146000Y-89846000D02*
X93704000Y-89846000D01*
X96985000Y-88246000D02*
X92563000Y-88246000D01*
X103068000Y-89926000D02*
X93782000Y-89926000D01*
X96985000Y-87806000D02*
X92360000Y-87806000D01*
X102770000Y-90206000D02*
X94080000Y-90206000D01*
X103436000Y-89526000D02*
X93414000Y-89526000D01*
X99919000Y-91686000D02*
X96931000Y-91686000D01*
X96985000Y-86366000D02*
X91940000Y-86366000D01*
X101786000Y-90926000D02*
X95064000Y-90926000D01*
X96985000Y-88006000D02*
X92447000Y-88006000D01*
X96985000Y-87726000D02*
X92327000Y-87726000D01*
X104266000Y-88286000D02*
X99865000Y-88286000D01*
X99740000Y-91726000D02*
X97110000Y-91726000D01*
X103535000Y-89406000D02*
X93315000Y-89406000D01*
X102533000Y-90406000D02*
X94317000Y-90406000D01*
X96985000Y-88846000D02*
X92909000Y-88846000D01*
X104017000Y-88726000D02*
X99865000Y-88726000D01*
X102271000Y-90606000D02*
X94579000Y-90606000D01*
X100356000Y-91566000D02*
X96494000Y-91566000D01*
X96985000Y-87486000D02*
X92235000Y-87486000D01*
X104985000Y-85765000D02*
X91865000Y-85765000D01*
X96985000Y-86486000D02*
X91962000Y-86486000D01*
X96985000Y-88486000D02*
X92692000Y-88486000D01*
X104307000Y-88206000D02*
X99865000Y-88206000D01*
X101503000Y-91086000D02*
X95347000Y-91086000D01*
X104181000Y-88446000D02*
X99865000Y-88446000D01*
X105004000Y-85365000D02*
X91846000Y-85365000D01*
X104245000Y-88326000D02*
X99865000Y-88326000D01*
X100909000Y-91366000D02*
X95941000Y-91366000D01*
X96985000Y-86926000D02*
X92061000Y-86926000D01*
X104696000Y-87246000D02*
X99865000Y-87246000D01*
X103915000Y-88886000D02*
X99865000Y-88886000D01*
X104456000Y-87886000D02*
X99865000Y-87886000D01*
X103992000Y-88766000D02*
X99865000Y-88766000D01*
X96985000Y-88686000D02*
X92808000Y-88686000D01*
X101183000Y-91246000D02*
X95667000Y-91246000D01*
X96985000Y-88646000D02*
X92784000Y-88646000D01*
X96985000Y-87926000D02*
X92411000Y-87926000D01*
X96985000Y-88166000D02*
X92523000Y-88166000D01*
X101004000Y-91326000D02*
X95846000Y-91326000D01*
X96985000Y-86726000D02*
X92012000Y-86726000D01*
X103367000Y-89606000D02*
X93483000Y-89606000D01*
X104643000Y-87406000D02*
X99865000Y-87406000D01*
X101348000Y-91166000D02*
X95502000Y-91166000D01*
X102859000Y-90126000D02*
X93991000Y-90126000D01*
X102379000Y-90526000D02*
X94471000Y-90526000D01*
X104947000Y-86126000D02*
X91903000Y-86126000D01*
X101095000Y-91286000D02*
X95755000Y-91286000D01*
X104089000Y-88606000D02*
X99865000Y-88606000D01*
X96985000Y-88086000D02*
X92485000Y-88086000D01*
X104917000Y-86326000D02*
X99865000Y-86326000D01*
X102986000Y-90006000D02*
X93864000Y-90006000D01*
X96985000Y-86646000D02*
X91994000Y-86646000D01*
X103599000Y-89326000D02*
X93251000Y-89326000D01*
X104789000Y-86926000D02*
X99865000Y-86926000D01*
X104903000Y-86406000D02*
X99865000Y-86406000D01*
X101916000Y-90846000D02*
X94934000Y-90846000D01*
X100810000Y-91406000D02*
X96040000Y-91406000D01*
X101979000Y-90806000D02*
X94871000Y-90806000D01*
X96985000Y-89126000D02*
X93101000Y-89126000D01*
X103027000Y-89966000D02*
X93823000Y-89966000D01*
X96985000Y-87406000D02*
X92207000Y-87406000D01*
X104982000Y-85805000D02*
X91868000Y-85805000D01*
X96985000Y-87606000D02*
X92279000Y-87606000D01*
X104733000Y-87126000D02*
X99865000Y-87126000D01*
X104910000Y-86366000D02*
X99865000Y-86366000D01*
X96985000Y-88886000D02*
X92935000Y-88886000D01*
X102158000Y-90686000D02*
X94692000Y-90686000D01*
X103778000Y-89086000D02*
X99865000Y-89086000D01*
X96985000Y-86566000D02*
X91977000Y-86566000D01*
X104838000Y-86726000D02*
X99865000Y-86726000D01*
X104873000Y-86566000D02*
X99865000Y-86566000D01*
X104936000Y-86206000D02*
X91914000Y-86206000D01*
X102215000Y-90646000D02*
X94635000Y-90646000D01*
X102325000Y-90566000D02*
X94525000Y-90566000D01*
X104042000Y-88686000D02*
X99865000Y-88686000D01*
X96985000Y-86686000D02*
X92003000Y-86686000D01*
X104745000Y-87086000D02*
X99865000Y-87086000D01*
X96985000Y-88126000D02*
X92504000Y-88126000D01*
X96985000Y-88966000D02*
X92989000Y-88966000D01*
X103690000Y-89206000D02*
X93160000Y-89206000D01*
X101718000Y-90966000D02*
X95132000Y-90966000D01*
X102724000Y-90246000D02*
X94126000Y-90246000D01*
X96985000Y-86446000D02*
X91954000Y-86446000D01*
X102100000Y-90726000D02*
X94750000Y-90726000D01*
X96985000Y-87446000D02*
X92221000Y-87446000D01*
X104507000Y-87766000D02*
X99865000Y-87766000D01*
X104224000Y-88366000D02*
X99865000Y-88366000D01*
X104683000Y-87286000D02*
X99865000Y-87286000D01*
X96985000Y-87246000D02*
X92154000Y-87246000D01*
X96985000Y-87566000D02*
X92264000Y-87566000D01*
X104490000Y-87806000D02*
X99865000Y-87806000D01*
X104571000Y-87606000D02*
X99865000Y-87606000D01*
X104629000Y-87446000D02*
X99865000Y-87446000D01*
X100596000Y-91486000D02*
X96254000Y-91486000D01*
X104403000Y-88006000D02*
X99865000Y-88006000D01*
X105000000Y-85525000D02*
X91850000Y-85525000D01*
X96985000Y-87006000D02*
X92083000Y-87006000D01*
X104709000Y-87206000D02*
X99865000Y-87206000D01*
X103402000Y-89566000D02*
X93448000Y-89566000D01*
X102040000Y-90766000D02*
X94810000Y-90766000D01*
X104439000Y-87926000D02*
X99865000Y-87926000D01*
X99275000Y-91806000D02*
X97575000Y-91806000D01*
X104287000Y-88246000D02*
X99865000Y-88246000D01*
X104113000Y-88566000D02*
X99865000Y-88566000D01*
X104888000Y-86486000D02*
X99865000Y-86486000D01*
X104847000Y-86686000D02*
X99865000Y-86686000D01*
X103834000Y-89006000D02*
X99865000Y-89006000D01*
X104974000Y-85885000D02*
X91876000Y-85885000D01*
X104988000Y-85725000D02*
X91862000Y-85725000D01*
X96985000Y-88806000D02*
X92883000Y-88806000D01*
X103469000Y-89486000D02*
X93381000Y-89486000D01*
X102815000Y-90166000D02*
X94035000Y-90166000D01*
X96985000Y-88366000D02*
X92626000Y-88366000D01*
X104896000Y-86446000D02*
X99865000Y-86446000D01*
X105002000Y-85445000D02*
X91848000Y-85445000D01*
X104586000Y-87566000D02*
X99865000Y-87566000D01*
X104998000Y-85565000D02*
X91852000Y-85565000D01*
X104991000Y-85685000D02*
X91859000Y-85685000D01*
X96985000Y-86966000D02*
X92072000Y-86966000D01*
X103861000Y-88966000D02*
X99865000Y-88966000D01*
X96985000Y-88446000D02*
X92669000Y-88446000D01*
X104615000Y-87486000D02*
X99865000Y-87486000D01*
X104555000Y-87646000D02*
X99865000Y-87646000D01*
X96985000Y-87526000D02*
X92250000Y-87526000D01*
X104474000Y-87846000D02*
X99865000Y-87846000D01*
X104856000Y-86646000D02*
X99865000Y-86646000D01*
X96985000Y-86606000D02*
X91986000Y-86606000D01*
X96985000Y-89046000D02*
X93044000Y-89046000D01*
X96985000Y-88046000D02*
X92466000Y-88046000D01*
X98900000Y-91846000D02*
X97950000Y-91846000D01*
X103332000Y-89646000D02*
X93518000Y-89646000D01*
X96985000Y-89086000D02*
X93072000Y-89086000D01*
X104767000Y-87006000D02*
X99865000Y-87006000D01*
X104829000Y-86766000D02*
X99865000Y-86766000D01*
X103296000Y-89686000D02*
X93554000Y-89686000D01*
X96985000Y-87686000D02*
X92311000Y-87686000D01*
X104523000Y-87726000D02*
X99865000Y-87726000D01*
X103185000Y-89806000D02*
X93665000Y-89806000D01*
X96985000Y-86406000D02*
X91947000Y-86406000D01*
X96985000Y-87166000D02*
X92129000Y-87166000D01*
X104809000Y-86846000D02*
X99865000Y-86846000D01*
X102678000Y-90286000D02*
X94172000Y-90286000D01*
X96985000Y-86326000D02*
X91933000Y-86326000D01*
X102790000Y-78810431D02*
X101490000Y-78810431D01*
X104203000Y-88406000D02*
X99865000Y-88406000D01*
X105005000Y-85285000D02*
X91845000Y-85285000D01*
X104864000Y-86606000D02*
X99865000Y-86606000D01*
X96985000Y-87126000D02*
X92117000Y-87126000D01*
X103567000Y-89366000D02*
X93283000Y-89366000D01*
X103967000Y-88806000D02*
X99865000Y-88806000D01*
X96985000Y-88606000D02*
X92761000Y-88606000D01*
X105045000Y-85245000D02*
G75*
G03*
X105045000Y-85245000I-6620000J0D01*
G01*
X120631000Y-56566000D02*
X115740000Y-56566000D01*
X112860000Y-56046000D02*
X107844000Y-56046000D01*
X120398000Y-57246000D02*
X115740000Y-57246000D01*
X112860000Y-57766000D02*
X108438000Y-57766000D01*
X119277000Y-59086000D02*
X109323000Y-59086000D01*
X112860000Y-58286000D02*
X108733000Y-58286000D01*
X116784000Y-60886000D02*
X111816000Y-60886000D01*
X120792000Y-55846000D02*
X115740000Y-55846000D01*
X116098000Y-61126000D02*
X112502000Y-61126000D01*
X120827000Y-55606000D02*
X107773000Y-55606000D01*
X118015000Y-47680431D02*
X118015000Y-48980431D01*
X120841000Y-55486000D02*
X107759000Y-55486000D01*
X120664000Y-56446000D02*
X115740000Y-56446000D01*
X112860000Y-57246000D02*
X108202000Y-57246000D01*
X112860000Y-58246000D02*
X108708000Y-58246000D01*
X112860000Y-58126000D02*
X108636000Y-58126000D01*
X118819000Y-59566000D02*
X109781000Y-59566000D01*
X116685000Y-60926000D02*
X111915000Y-60926000D01*
X112860000Y-58566000D02*
X108919000Y-58566000D01*
X112860000Y-57086000D02*
X108139000Y-57086000D01*
X120873000Y-55085000D02*
X107727000Y-55085000D01*
X120596000Y-56686000D02*
X115740000Y-56686000D01*
X114775000Y-61366000D02*
X113825000Y-61366000D01*
X120584000Y-56726000D02*
X115740000Y-56726000D01*
X112860000Y-56526000D02*
X107958000Y-56526000D01*
X117727000Y-60406000D02*
X110873000Y-60406000D01*
X117452000Y-60566000D02*
X111148000Y-60566000D01*
X116581000Y-60966000D02*
X112019000Y-60966000D01*
X118777000Y-59606000D02*
X109823000Y-59606000D01*
X120875000Y-55045000D02*
X107725000Y-55045000D01*
X120798000Y-55806000D02*
X107802000Y-55806000D01*
X118734000Y-59646000D02*
X109866000Y-59646000D01*
X119378000Y-58966000D02*
X109222000Y-58966000D01*
X119867000Y-58286000D02*
X115740000Y-58286000D01*
X118902000Y-59486000D02*
X109698000Y-59486000D01*
X112860000Y-57446000D02*
X108286000Y-57446000D01*
X120221000Y-57646000D02*
X115740000Y-57646000D01*
X118200000Y-60086000D02*
X110400000Y-60086000D01*
X120349000Y-57366000D02*
X115740000Y-57366000D01*
X119410000Y-58926000D02*
X109190000Y-58926000D01*
X119709000Y-58526000D02*
X115740000Y-58526000D01*
X119565000Y-58726000D02*
X109035000Y-58726000D01*
X112860000Y-55926000D02*
X107822000Y-55926000D01*
X120860000Y-55285000D02*
X107740000Y-55285000D01*
X116355000Y-61046000D02*
X112245000Y-61046000D01*
X120756000Y-56046000D02*
X115740000Y-56046000D01*
X120011000Y-58046000D02*
X115740000Y-58046000D01*
X112860000Y-57966000D02*
X108544000Y-57966000D01*
X112860000Y-56206000D02*
X107878000Y-56206000D01*
X119790000Y-58406000D02*
X115740000Y-58406000D01*
X119892000Y-58246000D02*
X115740000Y-58246000D01*
X120504000Y-56966000D02*
X115740000Y-56966000D01*
X118645000Y-59726000D02*
X109955000Y-59726000D01*
X120382000Y-57286000D02*
X115740000Y-57286000D01*
X117661000Y-60446000D02*
X110939000Y-60446000D01*
X119311000Y-59046000D02*
X109289000Y-59046000D01*
X120365000Y-57326000D02*
X115740000Y-57326000D01*
X120713000Y-56246000D02*
X115740000Y-56246000D01*
X120532000Y-56886000D02*
X115740000Y-56886000D01*
X112860000Y-57206000D02*
X108186000Y-57206000D01*
X120704000Y-56286000D02*
X115740000Y-56286000D01*
X112860000Y-56646000D02*
X107992000Y-56646000D01*
X120078000Y-57926000D02*
X115740000Y-57926000D01*
X118861000Y-59526000D02*
X109739000Y-59526000D01*
X112860000Y-56606000D02*
X107980000Y-56606000D01*
X120694000Y-56326000D02*
X115740000Y-56326000D01*
X120331000Y-57406000D02*
X115740000Y-57406000D01*
X120056000Y-57966000D02*
X115740000Y-57966000D01*
X120880000Y-54805000D02*
X107720000Y-54805000D01*
X112860000Y-57366000D02*
X108251000Y-57366000D01*
X118357000Y-59966000D02*
X110243000Y-59966000D01*
X120296000Y-57486000D02*
X115740000Y-57486000D01*
X119917000Y-58206000D02*
X115740000Y-58206000D01*
X120871000Y-55125000D02*
X107729000Y-55125000D01*
X119060000Y-59326000D02*
X109540000Y-59326000D01*
X120653000Y-56486000D02*
X115740000Y-56486000D01*
X112860000Y-58446000D02*
X108837000Y-58446000D01*
X120430000Y-57166000D02*
X115740000Y-57166000D01*
X112860000Y-57326000D02*
X108235000Y-57326000D01*
X112860000Y-56446000D02*
X107936000Y-56446000D01*
X118690000Y-59686000D02*
X109910000Y-59686000D01*
X120162000Y-57766000D02*
X115740000Y-57766000D01*
X120857000Y-55325000D02*
X107743000Y-55325000D01*
X120259000Y-57566000D02*
X115740000Y-57566000D01*
X112860000Y-58646000D02*
X108976000Y-58646000D01*
X120853000Y-55365000D02*
X107747000Y-55365000D01*
X117142000Y-60726000D02*
X111458000Y-60726000D01*
X112860000Y-58086000D02*
X108612000Y-58086000D01*
X117975000Y-60246000D02*
X110625000Y-60246000D01*
X112860000Y-58486000D02*
X108864000Y-58486000D01*
X117854000Y-60326000D02*
X110746000Y-60326000D01*
X120845000Y-55445000D02*
X107755000Y-55445000D01*
X112860000Y-57726000D02*
X108418000Y-57726000D01*
X112860000Y-57886000D02*
X108501000Y-57886000D01*
X112860000Y-56246000D02*
X107887000Y-56246000D01*
X118599000Y-59766000D02*
X110001000Y-59766000D01*
X119171000Y-59206000D02*
X109429000Y-59206000D01*
X120120000Y-57846000D02*
X115740000Y-57846000D01*
X119941000Y-58166000D02*
X115740000Y-58166000D01*
X120811000Y-55726000D02*
X107789000Y-55726000D01*
X119242000Y-59126000D02*
X109358000Y-59126000D01*
X120837000Y-55526000D02*
X107763000Y-55526000D01*
X112860000Y-55886000D02*
X107815000Y-55886000D01*
X120674000Y-56406000D02*
X115740000Y-56406000D01*
X119988000Y-58086000D02*
X115740000Y-58086000D01*
X120518000Y-56926000D02*
X115740000Y-56926000D01*
X112860000Y-58406000D02*
X108810000Y-58406000D01*
X117058000Y-60766000D02*
X111542000Y-60766000D01*
X120877000Y-54965000D02*
X107723000Y-54965000D01*
X117302000Y-60646000D02*
X111298000Y-60646000D01*
X120620000Y-56606000D02*
X115740000Y-56606000D01*
X120414000Y-57206000D02*
X115740000Y-57206000D01*
X120879000Y-54925000D02*
X107721000Y-54925000D01*
X120822000Y-55646000D02*
X107778000Y-55646000D01*
X120771000Y-55966000D02*
X115740000Y-55966000D01*
X118982000Y-59406000D02*
X109618000Y-59406000D01*
X117378000Y-60606000D02*
X111222000Y-60606000D01*
X112860000Y-57286000D02*
X108218000Y-57286000D01*
X120849000Y-55405000D02*
X107751000Y-55405000D01*
X112860000Y-58526000D02*
X108891000Y-58526000D01*
X112860000Y-57606000D02*
X108360000Y-57606000D01*
X120182000Y-57726000D02*
X115740000Y-57726000D01*
X119763000Y-58446000D02*
X115740000Y-58446000D01*
X116879000Y-60846000D02*
X111721000Y-60846000D01*
X112860000Y-57166000D02*
X108170000Y-57166000D01*
X112860000Y-56126000D02*
X107861000Y-56126000D01*
X120475000Y-57046000D02*
X115740000Y-57046000D01*
X120099000Y-57886000D02*
X115740000Y-57886000D01*
X116471000Y-61006000D02*
X112129000Y-61006000D01*
X119535000Y-58766000D02*
X109065000Y-58766000D01*
X120314000Y-57446000D02*
X115740000Y-57446000D01*
X119442000Y-58886000D02*
X109158000Y-58886000D01*
X112860000Y-58166000D02*
X108659000Y-58166000D01*
X120642000Y-56526000D02*
X115740000Y-56526000D01*
X120033000Y-58006000D02*
X115740000Y-58006000D01*
X112860000Y-56286000D02*
X107896000Y-56286000D01*
X120805000Y-55766000D02*
X107795000Y-55766000D01*
X120141000Y-57806000D02*
X115740000Y-57806000D01*
X117593000Y-60486000D02*
X111007000Y-60486000D01*
X112860000Y-57806000D02*
X108459000Y-57806000D01*
X120722000Y-56206000D02*
X115740000Y-56206000D01*
X112860000Y-57646000D02*
X108379000Y-57646000D01*
X120763000Y-56006000D02*
X115740000Y-56006000D01*
X112860000Y-58326000D02*
X108758000Y-58326000D01*
X118408000Y-59926000D02*
X110192000Y-59926000D01*
X112860000Y-57526000D02*
X108322000Y-57526000D01*
X119964000Y-58126000D02*
X115740000Y-58126000D01*
X112860000Y-58366000D02*
X108784000Y-58366000D01*
X112860000Y-58006000D02*
X108567000Y-58006000D01*
X120748000Y-56086000D02*
X115740000Y-56086000D01*
X119021000Y-59366000D02*
X109579000Y-59366000D01*
X112860000Y-57846000D02*
X108480000Y-57846000D01*
X120684000Y-56366000D02*
X115740000Y-56366000D01*
X112860000Y-56886000D02*
X108068000Y-56886000D01*
X120778000Y-55926000D02*
X115740000Y-55926000D01*
X112860000Y-56166000D02*
X107869000Y-56166000D01*
X120868000Y-55165000D02*
X107732000Y-55165000D01*
X120832000Y-55566000D02*
X107768000Y-55566000D01*
X118146000Y-60126000D02*
X110454000Y-60126000D01*
X112860000Y-58046000D02*
X108589000Y-58046000D01*
X118254000Y-60046000D02*
X110346000Y-60046000D01*
X112860000Y-58606000D02*
X108947000Y-58606000D01*
X112860000Y-56366000D02*
X107916000Y-56366000D01*
X120866000Y-55205000D02*
X107734000Y-55205000D01*
X120278000Y-57526000D02*
X115740000Y-57526000D01*
X120461000Y-57086000D02*
X115740000Y-57086000D01*
X112860000Y-57006000D02*
X108110000Y-57006000D01*
X119474000Y-58846000D02*
X109126000Y-58846000D01*
X120202000Y-57686000D02*
X115740000Y-57686000D01*
X112860000Y-56726000D02*
X108016000Y-56726000D01*
X117223000Y-60686000D02*
X111377000Y-60686000D01*
X112860000Y-56326000D02*
X107906000Y-56326000D01*
X118306000Y-60006000D02*
X110294000Y-60006000D01*
X120880000Y-54765000D02*
X107720000Y-54765000D01*
X120739000Y-56126000D02*
X115740000Y-56126000D01*
X112860000Y-56486000D02*
X107947000Y-56486000D01*
X115953000Y-61166000D02*
X112647000Y-61166000D01*
X112860000Y-56086000D02*
X107852000Y-56086000D01*
X119624000Y-58646000D02*
X115740000Y-58646000D01*
X120558000Y-56806000D02*
X115740000Y-56806000D01*
X119505000Y-58806000D02*
X109095000Y-58806000D01*
X117915000Y-60286000D02*
X110685000Y-60286000D01*
X116970000Y-60806000D02*
X111630000Y-60806000D01*
X116231000Y-61086000D02*
X112369000Y-61086000D01*
X120879000Y-54885000D02*
X107721000Y-54885000D01*
X120545000Y-56846000D02*
X115740000Y-56846000D01*
X115794000Y-61206000D02*
X112806000Y-61206000D01*
X118505000Y-59846000D02*
X110095000Y-59846000D01*
X120880000Y-54845000D02*
X107720000Y-54845000D01*
X119097000Y-59286000D02*
X109503000Y-59286000D01*
X119653000Y-58606000D02*
X115740000Y-58606000D01*
X119842000Y-58326000D02*
X115740000Y-58326000D01*
X112860000Y-56806000D02*
X108042000Y-56806000D01*
X120571000Y-56766000D02*
X115740000Y-56766000D01*
X112860000Y-56926000D02*
X108082000Y-56926000D01*
X118665000Y-48330431D02*
X117365000Y-48330431D01*
X112860000Y-57406000D02*
X108269000Y-57406000D01*
X118943000Y-59446000D02*
X109657000Y-59446000D01*
X115150000Y-61326000D02*
X113450000Y-61326000D01*
X118553000Y-59806000D02*
X110047000Y-59806000D01*
X120863000Y-55245000D02*
X107737000Y-55245000D01*
X112860000Y-56006000D02*
X107837000Y-56006000D01*
X112860000Y-57926000D02*
X108522000Y-57926000D01*
X112860000Y-57486000D02*
X108304000Y-57486000D01*
X120608000Y-56646000D02*
X115740000Y-56646000D01*
X120446000Y-57126000D02*
X115740000Y-57126000D01*
X118457000Y-59886000D02*
X110143000Y-59886000D01*
X115407000Y-61286000D02*
X113193000Y-61286000D01*
X112860000Y-57046000D02*
X108125000Y-57046000D01*
X119344000Y-59006000D02*
X109256000Y-59006000D01*
X112860000Y-55846000D02*
X107808000Y-55846000D01*
X112860000Y-56766000D02*
X108029000Y-56766000D01*
X120731000Y-56166000D02*
X115740000Y-56166000D01*
X118033000Y-60206000D02*
X110567000Y-60206000D01*
X119681000Y-58566000D02*
X115740000Y-58566000D01*
X119134000Y-59246000D02*
X109466000Y-59246000D01*
X119736000Y-58486000D02*
X115740000Y-58486000D01*
X120785000Y-55886000D02*
X115740000Y-55886000D01*
X112860000Y-58686000D02*
X109005000Y-58686000D01*
X112860000Y-57126000D02*
X108154000Y-57126000D01*
X112860000Y-58206000D02*
X108683000Y-58206000D01*
X115615000Y-61246000D02*
X112985000Y-61246000D01*
X120490000Y-57006000D02*
X115740000Y-57006000D01*
X112860000Y-56686000D02*
X108004000Y-56686000D01*
X112860000Y-55966000D02*
X107829000Y-55966000D01*
X120876000Y-55005000D02*
X107724000Y-55005000D01*
X119207000Y-59166000D02*
X109393000Y-59166000D01*
X112860000Y-56406000D02*
X107926000Y-56406000D01*
X119816000Y-58366000D02*
X115740000Y-58366000D01*
X118090000Y-60166000D02*
X110510000Y-60166000D01*
X112860000Y-56966000D02*
X108096000Y-56966000D01*
X119595000Y-58686000D02*
X115740000Y-58686000D01*
X112860000Y-57686000D02*
X108398000Y-57686000D01*
X112860000Y-57566000D02*
X108341000Y-57566000D01*
X112860000Y-56566000D02*
X107969000Y-56566000D01*
X120240000Y-57606000D02*
X115740000Y-57606000D01*
X112860000Y-56846000D02*
X108055000Y-56846000D01*
X117523000Y-60526000D02*
X111077000Y-60526000D01*
X117791000Y-60366000D02*
X110809000Y-60366000D01*
X120816000Y-55686000D02*
X107784000Y-55686000D01*
X120920000Y-54765000D02*
G75*
G03*
X120920000Y-54765000I-6620000J0D01*
G01*
X112860000Y-87486000D02*
X108110000Y-87486000D01*
X120664000Y-86926000D02*
X115740000Y-86926000D01*
X117523000Y-91006000D02*
X111077000Y-91006000D01*
X120259000Y-88046000D02*
X115740000Y-88046000D01*
X112860000Y-88686000D02*
X108683000Y-88686000D01*
X119709000Y-89006000D02*
X115740000Y-89006000D01*
X120571000Y-87246000D02*
X115740000Y-87246000D01*
X120860000Y-85765000D02*
X107740000Y-85765000D01*
X120221000Y-88126000D02*
X115740000Y-88126000D01*
X120099000Y-88366000D02*
X115740000Y-88366000D01*
X118645000Y-90206000D02*
X109955000Y-90206000D01*
X118033000Y-90686000D02*
X110567000Y-90686000D01*
X112860000Y-88286000D02*
X108459000Y-88286000D01*
X112860000Y-88526000D02*
X108589000Y-88526000D01*
X118690000Y-90166000D02*
X109910000Y-90166000D01*
X112860000Y-89006000D02*
X108891000Y-89006000D01*
X112860000Y-86966000D02*
X107947000Y-86966000D01*
X117378000Y-91086000D02*
X111222000Y-91086000D01*
X120620000Y-87086000D02*
X115740000Y-87086000D01*
X120653000Y-86966000D02*
X115740000Y-86966000D01*
X119988000Y-88566000D02*
X115740000Y-88566000D01*
X120785000Y-86366000D02*
X115740000Y-86366000D01*
X112860000Y-88246000D02*
X108438000Y-88246000D01*
X112860000Y-87086000D02*
X107980000Y-87086000D01*
X112860000Y-89086000D02*
X108947000Y-89086000D01*
X120879000Y-85365000D02*
X107721000Y-85365000D01*
X112860000Y-87766000D02*
X108218000Y-87766000D01*
X120880000Y-85245000D02*
X107720000Y-85245000D01*
X112860000Y-88726000D02*
X108708000Y-88726000D01*
X120805000Y-86246000D02*
X107795000Y-86246000D01*
X115407000Y-91766000D02*
X113193000Y-91766000D01*
X120822000Y-86126000D02*
X107778000Y-86126000D01*
X112860000Y-87126000D02*
X107992000Y-87126000D01*
X112860000Y-86766000D02*
X107896000Y-86766000D01*
X118777000Y-90086000D02*
X109823000Y-90086000D01*
X120382000Y-87766000D02*
X115740000Y-87766000D01*
X119941000Y-88646000D02*
X115740000Y-88646000D01*
X120545000Y-87326000D02*
X115740000Y-87326000D01*
X112860000Y-88486000D02*
X108567000Y-88486000D01*
X120684000Y-86846000D02*
X115740000Y-86846000D01*
X112860000Y-87046000D02*
X107969000Y-87046000D01*
X117915000Y-90766000D02*
X110685000Y-90766000D01*
X120832000Y-86046000D02*
X107768000Y-86046000D01*
X120608000Y-87126000D02*
X115740000Y-87126000D01*
X112860000Y-87606000D02*
X108154000Y-87606000D01*
X112860000Y-89166000D02*
X109005000Y-89166000D01*
X120841000Y-85966000D02*
X107759000Y-85966000D01*
X116784000Y-91366000D02*
X111816000Y-91366000D01*
X118015000Y-78160431D02*
X118015000Y-79460431D01*
X112860000Y-86806000D02*
X107906000Y-86806000D01*
X118665000Y-78810431D02*
X117365000Y-78810431D01*
X120871000Y-85605000D02*
X107729000Y-85605000D01*
X120558000Y-87286000D02*
X115740000Y-87286000D01*
X118902000Y-89966000D02*
X109698000Y-89966000D01*
X112860000Y-86366000D02*
X107815000Y-86366000D01*
X120845000Y-85925000D02*
X107755000Y-85925000D01*
X112860000Y-88966000D02*
X108864000Y-88966000D01*
X116355000Y-91526000D02*
X112245000Y-91526000D01*
X119410000Y-89406000D02*
X109190000Y-89406000D01*
X120314000Y-87926000D02*
X115740000Y-87926000D01*
X112860000Y-88406000D02*
X108522000Y-88406000D01*
X112860000Y-88206000D02*
X108418000Y-88206000D01*
X112860000Y-87926000D02*
X108286000Y-87926000D01*
X117142000Y-91206000D02*
X111458000Y-91206000D01*
X120798000Y-86286000D02*
X107802000Y-86286000D01*
X119277000Y-89566000D02*
X109323000Y-89566000D01*
X112860000Y-87886000D02*
X108269000Y-87886000D01*
X119097000Y-89766000D02*
X109503000Y-89766000D01*
X115150000Y-91806000D02*
X113450000Y-91806000D01*
X112860000Y-86446000D02*
X107829000Y-86446000D01*
X120876000Y-85485000D02*
X107724000Y-85485000D01*
X118505000Y-90326000D02*
X110095000Y-90326000D01*
X112860000Y-88806000D02*
X108758000Y-88806000D01*
X118090000Y-90646000D02*
X110510000Y-90646000D01*
X119763000Y-88926000D02*
X115740000Y-88926000D01*
X118943000Y-89926000D02*
X109657000Y-89926000D01*
X112860000Y-87206000D02*
X108016000Y-87206000D01*
X118599000Y-90246000D02*
X110001000Y-90246000D01*
X120631000Y-87046000D02*
X115740000Y-87046000D01*
X120756000Y-86526000D02*
X115740000Y-86526000D01*
X117452000Y-91046000D02*
X111148000Y-91046000D01*
X120504000Y-87446000D02*
X115740000Y-87446000D01*
X120827000Y-86086000D02*
X107773000Y-86086000D01*
X112860000Y-88926000D02*
X108837000Y-88926000D01*
X112860000Y-88846000D02*
X108784000Y-88846000D01*
X120162000Y-88246000D02*
X115740000Y-88246000D01*
X119171000Y-89686000D02*
X109429000Y-89686000D01*
X119816000Y-88846000D02*
X115740000Y-88846000D01*
X112860000Y-88446000D02*
X108544000Y-88446000D01*
X120202000Y-88166000D02*
X115740000Y-88166000D01*
X120446000Y-87606000D02*
X115740000Y-87606000D01*
X117854000Y-90806000D02*
X110746000Y-90806000D01*
X120863000Y-85725000D02*
X107737000Y-85725000D01*
X119535000Y-89246000D02*
X109065000Y-89246000D01*
X115794000Y-91686000D02*
X112806000Y-91686000D01*
X120694000Y-86806000D02*
X115740000Y-86806000D01*
X116879000Y-91326000D02*
X111721000Y-91326000D01*
X112860000Y-86566000D02*
X107852000Y-86566000D01*
X119892000Y-88726000D02*
X115740000Y-88726000D01*
X112860000Y-88126000D02*
X108379000Y-88126000D01*
X112860000Y-87966000D02*
X108304000Y-87966000D01*
X119653000Y-89086000D02*
X115740000Y-89086000D01*
X120278000Y-88006000D02*
X115740000Y-88006000D01*
X116970000Y-91286000D02*
X111630000Y-91286000D01*
X120414000Y-87686000D02*
X115740000Y-87686000D01*
X120873000Y-85565000D02*
X107727000Y-85565000D01*
X119344000Y-89486000D02*
X109256000Y-89486000D01*
X117223000Y-91166000D02*
X111377000Y-91166000D01*
X116231000Y-91566000D02*
X112369000Y-91566000D01*
X120584000Y-87206000D02*
X115740000Y-87206000D01*
X118819000Y-90046000D02*
X109781000Y-90046000D01*
X112860000Y-88606000D02*
X108636000Y-88606000D01*
X112860000Y-86606000D02*
X107861000Y-86606000D01*
X116471000Y-91486000D02*
X112129000Y-91486000D01*
X120731000Y-86646000D02*
X115740000Y-86646000D01*
X112860000Y-87526000D02*
X108125000Y-87526000D01*
X120763000Y-86486000D02*
X115740000Y-86486000D01*
X112860000Y-86886000D02*
X107926000Y-86886000D01*
X120868000Y-85645000D02*
X107732000Y-85645000D01*
X120704000Y-86766000D02*
X115740000Y-86766000D01*
X120461000Y-87566000D02*
X115740000Y-87566000D01*
X112860000Y-86846000D02*
X107916000Y-86846000D01*
X120778000Y-86406000D02*
X115740000Y-86406000D01*
X120837000Y-86006000D02*
X107763000Y-86006000D01*
X119736000Y-88966000D02*
X115740000Y-88966000D01*
X118861000Y-90006000D02*
X109739000Y-90006000D01*
X112860000Y-86326000D02*
X107808000Y-86326000D01*
X112860000Y-87806000D02*
X108235000Y-87806000D01*
X119060000Y-89806000D02*
X109540000Y-89806000D01*
X119842000Y-88806000D02*
X115740000Y-88806000D01*
X120849000Y-85885000D02*
X107751000Y-85885000D01*
X112860000Y-86686000D02*
X107878000Y-86686000D01*
X118982000Y-89886000D02*
X109618000Y-89886000D01*
X120739000Y-86606000D02*
X115740000Y-86606000D01*
X112860000Y-88366000D02*
X108501000Y-88366000D01*
X120490000Y-87486000D02*
X115740000Y-87486000D01*
X120532000Y-87366000D02*
X115740000Y-87366000D01*
X120596000Y-87166000D02*
X115740000Y-87166000D01*
X112860000Y-86726000D02*
X107887000Y-86726000D01*
X120771000Y-86446000D02*
X115740000Y-86446000D01*
X120866000Y-85685000D02*
X107734000Y-85685000D01*
X118200000Y-90566000D02*
X110400000Y-90566000D01*
X119505000Y-89286000D02*
X109095000Y-89286000D01*
X120518000Y-87406000D02*
X115740000Y-87406000D01*
X115615000Y-91726000D02*
X112985000Y-91726000D01*
X116685000Y-91406000D02*
X111915000Y-91406000D01*
X120875000Y-85525000D02*
X107725000Y-85525000D01*
X117661000Y-90926000D02*
X110939000Y-90926000D01*
X120011000Y-88526000D02*
X115740000Y-88526000D01*
X119595000Y-89166000D02*
X115740000Y-89166000D01*
X118553000Y-90286000D02*
X110047000Y-90286000D01*
X119917000Y-88686000D02*
X115740000Y-88686000D01*
X120182000Y-88206000D02*
X115740000Y-88206000D01*
X118357000Y-90446000D02*
X110243000Y-90446000D01*
X112860000Y-87566000D02*
X108139000Y-87566000D01*
X112860000Y-86486000D02*
X107837000Y-86486000D01*
X118457000Y-90366000D02*
X110143000Y-90366000D01*
X118408000Y-90406000D02*
X110192000Y-90406000D01*
X118306000Y-90486000D02*
X110294000Y-90486000D01*
X116581000Y-91446000D02*
X112019000Y-91446000D01*
X119021000Y-89846000D02*
X109579000Y-89846000D01*
X112860000Y-88006000D02*
X108322000Y-88006000D01*
X120877000Y-85445000D02*
X107723000Y-85445000D01*
X112860000Y-86526000D02*
X107844000Y-86526000D01*
X112860000Y-87686000D02*
X108186000Y-87686000D01*
X120398000Y-87726000D02*
X115740000Y-87726000D01*
X117593000Y-90966000D02*
X111007000Y-90966000D01*
X117791000Y-90846000D02*
X110809000Y-90846000D01*
X112860000Y-89126000D02*
X108976000Y-89126000D01*
X120811000Y-86206000D02*
X107789000Y-86206000D01*
X112860000Y-88086000D02*
X108360000Y-88086000D01*
X120816000Y-86166000D02*
X107784000Y-86166000D01*
X120880000Y-85285000D02*
X107720000Y-85285000D01*
X119964000Y-88606000D02*
X115740000Y-88606000D01*
X120331000Y-87886000D02*
X115740000Y-87886000D01*
X120642000Y-87006000D02*
X115740000Y-87006000D01*
X112860000Y-89046000D02*
X108919000Y-89046000D01*
X112860000Y-88766000D02*
X108733000Y-88766000D01*
X119790000Y-88886000D02*
X115740000Y-88886000D01*
X112860000Y-87326000D02*
X108055000Y-87326000D01*
X119207000Y-89646000D02*
X109393000Y-89646000D01*
X120713000Y-86726000D02*
X115740000Y-86726000D01*
X119624000Y-89126000D02*
X115740000Y-89126000D01*
X112860000Y-86926000D02*
X107936000Y-86926000D01*
X112860000Y-87406000D02*
X108082000Y-87406000D01*
X117975000Y-90726000D02*
X110625000Y-90726000D01*
X112860000Y-88566000D02*
X108612000Y-88566000D01*
X120430000Y-87646000D02*
X115740000Y-87646000D01*
X112860000Y-87006000D02*
X107958000Y-87006000D01*
X112860000Y-87286000D02*
X108042000Y-87286000D01*
X120880000Y-85325000D02*
X107720000Y-85325000D01*
X120853000Y-85845000D02*
X107747000Y-85845000D01*
X112860000Y-88886000D02*
X108810000Y-88886000D01*
X120365000Y-87806000D02*
X115740000Y-87806000D01*
X112860000Y-87726000D02*
X108202000Y-87726000D01*
X119442000Y-89366000D02*
X109158000Y-89366000D01*
X112860000Y-88646000D02*
X108659000Y-88646000D01*
X112860000Y-88326000D02*
X108480000Y-88326000D01*
X120722000Y-86686000D02*
X115740000Y-86686000D01*
X118254000Y-90526000D02*
X110346000Y-90526000D01*
X120240000Y-88086000D02*
X115740000Y-88086000D01*
X120748000Y-86566000D02*
X115740000Y-86566000D01*
X117058000Y-91246000D02*
X111542000Y-91246000D01*
X117302000Y-91126000D02*
X111298000Y-91126000D01*
X114775000Y-91846000D02*
X113825000Y-91846000D01*
X120879000Y-85405000D02*
X107721000Y-85405000D01*
X118146000Y-90606000D02*
X110454000Y-90606000D01*
X112860000Y-87846000D02*
X108251000Y-87846000D01*
X119565000Y-89206000D02*
X109035000Y-89206000D01*
X120857000Y-85805000D02*
X107743000Y-85805000D01*
X120141000Y-88286000D02*
X115740000Y-88286000D01*
X120078000Y-88406000D02*
X115740000Y-88406000D01*
X119378000Y-89446000D02*
X109222000Y-89446000D01*
X120056000Y-88446000D02*
X115740000Y-88446000D01*
X112860000Y-87646000D02*
X108170000Y-87646000D01*
X120792000Y-86326000D02*
X115740000Y-86326000D01*
X120349000Y-87846000D02*
X115740000Y-87846000D01*
X112860000Y-88166000D02*
X108398000Y-88166000D01*
X120033000Y-88486000D02*
X115740000Y-88486000D01*
X118734000Y-90126000D02*
X109866000Y-90126000D01*
X119242000Y-89606000D02*
X109358000Y-89606000D01*
X119134000Y-89726000D02*
X109466000Y-89726000D01*
X120120000Y-88326000D02*
X115740000Y-88326000D01*
X119311000Y-89526000D02*
X109289000Y-89526000D01*
X119474000Y-89326000D02*
X109126000Y-89326000D01*
X120674000Y-86886000D02*
X115740000Y-86886000D01*
X119681000Y-89046000D02*
X115740000Y-89046000D01*
X115953000Y-91646000D02*
X112647000Y-91646000D01*
X112860000Y-86646000D02*
X107869000Y-86646000D01*
X112860000Y-86406000D02*
X107822000Y-86406000D01*
X119867000Y-88766000D02*
X115740000Y-88766000D01*
X116098000Y-91606000D02*
X112502000Y-91606000D01*
X120475000Y-87526000D02*
X115740000Y-87526000D01*
X112860000Y-88046000D02*
X108341000Y-88046000D01*
X112860000Y-87366000D02*
X108068000Y-87366000D01*
X112860000Y-87246000D02*
X108029000Y-87246000D01*
X112860000Y-87166000D02*
X108004000Y-87166000D01*
X120296000Y-87966000D02*
X115740000Y-87966000D01*
X112860000Y-87446000D02*
X108096000Y-87446000D01*
X117727000Y-90886000D02*
X110873000Y-90886000D01*
X120920000Y-85245000D02*
G75*
G03*
X120920000Y-85245000I-6620000J0D01*
G01*
X49860000Y-44560000D02*
X47460000Y-44560000D01*
X49860000Y-42160000D02*
X49860000Y-44560000D01*
X47460000Y-42160000D02*
X49860000Y-42160000D01*
X47460000Y-44560000D02*
X47460000Y-42160000D01*
X79950569Y-67193891D02*
G75*
G03*
X80030000Y-72480000I3829431J-2586109D01*
G01*
X86534731Y-66090629D02*
G75*
G03*
X81180000Y-65980000I-2754731J-3689371D01*
G01*
X87527584Y-72478261D02*
G75*
G03*
X87630000Y-67230000I-3747584J2698261D01*
G01*
X80930000Y-65430000D02*
G75*
G03*
X79325513Y-67096243I2850000J-4350000D01*
G01*
X81288533Y-73658800D02*
G75*
G03*
X86530000Y-73480000I2491467J3878800D01*
G01*
X67460000Y-47160000D02*
X69860000Y-47160000D01*
X67460000Y-49560000D02*
X67460000Y-47160000D01*
X69860000Y-47160000D02*
X69860000Y-49560000D01*
X69860000Y-49560000D02*
X67460000Y-49560000D01*
X69860000Y-42160000D02*
X69860000Y-44560000D01*
X67460000Y-42160000D02*
X69860000Y-42160000D01*
X67460000Y-44560000D02*
X67460000Y-42160000D01*
X69860000Y-44560000D02*
X67460000Y-44560000D01*
X127080000Y-54745000D02*
X127080000Y-57015000D01*
X127080000Y-57015000D02*
X131140000Y-57015000D01*
X131140000Y-54745000D02*
X127080000Y-54745000D01*
D10*
X27810000Y-36240000D02*
X43310000Y-36240000D01*
X27810000Y-32340000D02*
X27810000Y-36240000D01*
X43310000Y-32340000D02*
X43310000Y-36240000D01*
X27810000Y-32340000D02*
X43310000Y-32340000D01*
D11*
X86440000Y-88900000D02*
X87400000Y-88900000D01*
X86440000Y-88900000D02*
G75*
G03*
X86440000Y-88900000I-2620000J0D01*
G01*
X133410000Y-62290000D02*
X133410000Y-59630000D01*
X130810000Y-59630000D02*
X133410000Y-59630000D01*
X130810000Y-62290000D02*
X130810000Y-59630000D01*
X130810000Y-62290000D02*
X133410000Y-62290000D01*
X128210000Y-62290000D02*
X128210000Y-60960000D01*
X129540000Y-62290000D02*
X128210000Y-62290000D01*
X143570000Y-36770000D02*
X140910000Y-36770000D01*
X143570000Y-44510000D02*
X142240000Y-44510000D01*
X140910000Y-41910000D02*
X140910000Y-36770000D01*
X143570000Y-43180000D02*
X143570000Y-44510000D01*
X143570000Y-41910000D02*
X143570000Y-36770000D01*
X143570000Y-41910000D02*
X140910000Y-41910000D01*
X45790000Y-87560000D02*
X45790000Y-85160000D01*
X45790000Y-85160000D02*
X48190000Y-85160000D01*
X48190000Y-85160000D02*
X48190000Y-87560000D01*
X48190000Y-87560000D02*
X45790000Y-87560000D01*
X127080000Y-67445000D02*
X127080000Y-69715000D01*
X127080000Y-69715000D02*
X131140000Y-69715000D01*
X131140000Y-67445000D02*
X127080000Y-67445000D01*
X38100000Y-40570000D02*
X38100000Y-43410000D01*
X38100000Y-58490000D02*
X38100000Y-55650000D01*
X34730000Y-55650000D02*
X41470000Y-55650000D01*
X34730000Y-43410000D02*
X34730000Y-55650000D01*
X41470000Y-43410000D02*
X34730000Y-43410000D01*
X41470000Y-55650000D02*
X41470000Y-43410000D01*
X146035000Y-70340000D02*
X140895000Y-70340000D01*
X140895000Y-67680000D02*
X140895000Y-70340000D01*
X148635000Y-67680000D02*
X148635000Y-69010000D01*
X147305000Y-67680000D02*
X148635000Y-67680000D01*
X146035000Y-67680000D02*
X146035000Y-70340000D01*
X146035000Y-67680000D02*
X140895000Y-67680000D01*
X140910000Y-82550000D02*
X140910000Y-87690000D01*
X140910000Y-82550000D02*
X143570000Y-82550000D01*
X140910000Y-87690000D02*
X143570000Y-87690000D01*
X140910000Y-81280000D02*
X140910000Y-79950000D01*
X143570000Y-82550000D02*
X143570000Y-87690000D01*
X140910000Y-79950000D02*
X142240000Y-79950000D01*
X86440000Y-81280000D02*
X87400000Y-81280000D01*
X86440000Y-81280000D02*
G75*
G03*
X86440000Y-81280000I-2620000J0D01*
G01*
X27110000Y-55650000D02*
X33850000Y-55650000D01*
X30480000Y-58490000D02*
X30480000Y-55650000D01*
X30480000Y-40570000D02*
X30480000Y-43410000D01*
X27110000Y-43410000D02*
X27110000Y-55650000D01*
X33850000Y-43410000D02*
X27110000Y-43410000D01*
X33850000Y-55650000D02*
X33850000Y-43410000D01*
X123550000Y-71847064D02*
X123550000Y-70392936D01*
X125370000Y-71847064D02*
X125370000Y-70392936D01*
X86400000Y-43180000D02*
X87360000Y-43180000D01*
X86400000Y-43180000D02*
G75*
G03*
X86400000Y-43180000I-2620000J0D01*
G01*
X86440000Y-35560000D02*
X87400000Y-35560000D01*
X86440000Y-35560000D02*
G75*
G03*
X86440000Y-35560000I-2620000J0D01*
G01*
X148635000Y-47360000D02*
X148635000Y-48690000D01*
X146035000Y-47360000D02*
X140895000Y-47360000D01*
X146035000Y-50020000D02*
X140895000Y-50020000D01*
X146035000Y-47360000D02*
X146035000Y-50020000D01*
X140895000Y-47360000D02*
X140895000Y-50020000D01*
X147305000Y-47360000D02*
X148635000Y-47360000D01*
X138540000Y-78225000D02*
X139430000Y-91145000D01*
X129980000Y-78225000D02*
X125620000Y-78225000D01*
X138540000Y-78225000D02*
X134205000Y-78225000D01*
X139430000Y-91145000D02*
X124730000Y-91145000D01*
X125620000Y-78225000D02*
X124730000Y-91145000D01*
X130810000Y-63440000D02*
X133410000Y-63440000D01*
X129540000Y-66100000D02*
X128210000Y-66100000D01*
X128210000Y-66100000D02*
X128210000Y-64770000D01*
X133410000Y-66100000D02*
X133410000Y-63440000D01*
X130810000Y-66100000D02*
X130810000Y-63440000D01*
X130810000Y-66100000D02*
X133410000Y-66100000D01*
X38170000Y-87560000D02*
X38170000Y-85160000D01*
X38170000Y-85160000D02*
X40570000Y-85160000D01*
X40570000Y-87560000D02*
X38170000Y-87560000D01*
X40570000Y-85160000D02*
X40570000Y-87560000D01*
D10*
X90540000Y-63796000D02*
X90540000Y-60196000D01*
X90540000Y-60196000D02*
X91040000Y-59696000D01*
X92340000Y-60196000D02*
X92340000Y-63796000D01*
X91040000Y-59696000D02*
X91840000Y-59696000D01*
X91840000Y-64296000D02*
X91040000Y-64296000D01*
X92340000Y-63796000D02*
X91840000Y-64296000D01*
X91040000Y-64296000D02*
X90540000Y-63796000D01*
X91840000Y-59696000D02*
X92340000Y-60196000D01*
D11*
X69860000Y-57160000D02*
X69860000Y-59560000D01*
X67460000Y-57160000D02*
X69860000Y-57160000D01*
X69860000Y-59560000D02*
X67460000Y-59560000D01*
X67460000Y-59560000D02*
X67460000Y-57160000D01*
X146035000Y-62600000D02*
X140895000Y-62600000D01*
X146035000Y-65260000D02*
X140895000Y-65260000D01*
X148635000Y-62600000D02*
X148635000Y-63930000D01*
X147305000Y-62600000D02*
X148635000Y-62600000D01*
X146035000Y-62600000D02*
X146035000Y-65260000D01*
X140895000Y-62600000D02*
X140895000Y-65260000D01*
X134882936Y-56790000D02*
X136337064Y-56790000D01*
X134882936Y-54970000D02*
X136337064Y-54970000D01*
X116685000Y-75755785D02*
X111915000Y-75755785D01*
X120430000Y-71995785D02*
X115740000Y-71995785D01*
X119964000Y-72955785D02*
X115740000Y-72955785D01*
X120805000Y-70595785D02*
X107795000Y-70595785D01*
X112860000Y-72995785D02*
X108659000Y-72995785D01*
X120202000Y-72515785D02*
X115740000Y-72515785D01*
X112860000Y-73155785D02*
X108758000Y-73155785D01*
X112860000Y-72235785D02*
X108269000Y-72235785D01*
X119060000Y-74155785D02*
X109540000Y-74155785D01*
X120857000Y-70154785D02*
X107743000Y-70154785D01*
X120792000Y-70675785D02*
X115740000Y-70675785D01*
X112860000Y-72955785D02*
X108636000Y-72955785D01*
X120259000Y-72395785D02*
X115740000Y-72395785D01*
X120653000Y-71315785D02*
X115740000Y-71315785D01*
X119842000Y-73155785D02*
X115740000Y-73155785D01*
X117661000Y-75275785D02*
X110939000Y-75275785D01*
X112860000Y-71595785D02*
X108029000Y-71595785D01*
X112860000Y-73275785D02*
X108837000Y-73275785D01*
X119624000Y-73475785D02*
X115740000Y-73475785D01*
X114775000Y-76195785D02*
X113825000Y-76195785D01*
X112860000Y-71995785D02*
X108170000Y-71995785D01*
X112860000Y-72595785D02*
X108438000Y-72595785D01*
X115150000Y-76155785D02*
X113450000Y-76155785D01*
X118505000Y-74675785D02*
X110095000Y-74675785D01*
X120221000Y-72475785D02*
X115740000Y-72475785D01*
X112860000Y-70995785D02*
X107869000Y-70995785D01*
X120490000Y-71835785D02*
X115740000Y-71835785D01*
X120873000Y-69914785D02*
X107727000Y-69914785D01*
X120475000Y-71875785D02*
X115740000Y-71875785D01*
X120841000Y-70315785D02*
X107759000Y-70315785D01*
X117854000Y-75155785D02*
X110746000Y-75155785D01*
X120596000Y-71515785D02*
X115740000Y-71515785D01*
X120739000Y-70955785D02*
X115740000Y-70955785D01*
X112860000Y-70955785D02*
X107861000Y-70955785D01*
X112860000Y-71195785D02*
X107916000Y-71195785D01*
X118090000Y-74995785D02*
X110510000Y-74995785D01*
X120713000Y-71075785D02*
X115740000Y-71075785D01*
X117223000Y-75515785D02*
X111377000Y-75515785D01*
X120880000Y-69594785D02*
X107720000Y-69594785D01*
X112860000Y-72795785D02*
X108544000Y-72795785D01*
X120837000Y-70355785D02*
X107763000Y-70355785D01*
X117142000Y-75555785D02*
X111458000Y-75555785D01*
X112860000Y-71435785D02*
X107980000Y-71435785D01*
X120763000Y-70835785D02*
X115740000Y-70835785D01*
X112860000Y-71715785D02*
X108068000Y-71715785D01*
X120731000Y-70995785D02*
X115740000Y-70995785D01*
X120078000Y-72755785D02*
X115740000Y-72755785D01*
X120278000Y-72355785D02*
X115740000Y-72355785D01*
X119474000Y-73675785D02*
X109126000Y-73675785D01*
X119378000Y-73795785D02*
X109222000Y-73795785D01*
X119097000Y-74115785D02*
X109503000Y-74115785D01*
X112860000Y-73395785D02*
X108919000Y-73395785D01*
X112860000Y-71515785D02*
X108004000Y-71515785D01*
X118645000Y-74555785D02*
X109955000Y-74555785D01*
X120545000Y-71675785D02*
X115740000Y-71675785D01*
X120866000Y-70034785D02*
X107734000Y-70034785D01*
X117452000Y-75395785D02*
X111148000Y-75395785D01*
X120141000Y-72635785D02*
X115740000Y-72635785D01*
X119410000Y-73755785D02*
X109190000Y-73755785D01*
X112860000Y-72675785D02*
X108480000Y-72675785D01*
X112860000Y-72835785D02*
X108567000Y-72835785D01*
X120571000Y-71595785D02*
X115740000Y-71595785D01*
X112860000Y-72475785D02*
X108379000Y-72475785D01*
X120674000Y-71235785D02*
X115740000Y-71235785D01*
X117593000Y-75315785D02*
X111007000Y-75315785D01*
X112860000Y-71155785D02*
X107906000Y-71155785D01*
X112860000Y-72195785D02*
X108251000Y-72195785D01*
X112860000Y-71355785D02*
X107958000Y-71355785D01*
X115794000Y-76035785D02*
X112806000Y-76035785D01*
X120871000Y-69954785D02*
X107729000Y-69954785D01*
X117058000Y-75595785D02*
X111542000Y-75595785D01*
X112860000Y-71035785D02*
X107878000Y-71035785D01*
X112860000Y-71315785D02*
X107947000Y-71315785D01*
X116098000Y-75955785D02*
X112502000Y-75955785D01*
X120532000Y-71715785D02*
X115740000Y-71715785D01*
X120331000Y-72235785D02*
X115740000Y-72235785D01*
X120877000Y-69794785D02*
X107723000Y-69794785D01*
X116970000Y-75635785D02*
X111630000Y-75635785D01*
X118457000Y-74715785D02*
X110143000Y-74715785D01*
X112860000Y-71675785D02*
X108055000Y-71675785D01*
X112860000Y-71075785D02*
X107887000Y-71075785D01*
X120694000Y-71155785D02*
X115740000Y-71155785D01*
X119442000Y-73715785D02*
X109158000Y-73715785D01*
X112860000Y-70875785D02*
X107844000Y-70875785D01*
X112860000Y-72275785D02*
X108286000Y-72275785D01*
X116581000Y-75795785D02*
X112019000Y-75795785D01*
X118033000Y-75035785D02*
X110567000Y-75035785D01*
X115407000Y-76115785D02*
X113193000Y-76115785D01*
X112860000Y-72875785D02*
X108589000Y-72875785D01*
X120880000Y-69674785D02*
X107720000Y-69674785D01*
X120880000Y-69634785D02*
X107720000Y-69634785D01*
X112860000Y-73195785D02*
X108784000Y-73195785D01*
X117523000Y-75355785D02*
X111077000Y-75355785D01*
X112860000Y-71235785D02*
X107926000Y-71235785D01*
X112860000Y-73355785D02*
X108891000Y-73355785D01*
X120778000Y-70755785D02*
X115740000Y-70755785D01*
X119790000Y-73235785D02*
X115740000Y-73235785D01*
X120664000Y-71275785D02*
X115740000Y-71275785D01*
X120879000Y-69714785D02*
X107721000Y-69714785D01*
X112860000Y-70715785D02*
X107815000Y-70715785D01*
X112860000Y-71555785D02*
X108016000Y-71555785D01*
X117791000Y-75195785D02*
X110809000Y-75195785D01*
X120798000Y-70635785D02*
X107802000Y-70635785D01*
X112860000Y-71275785D02*
X107936000Y-71275785D01*
X120811000Y-70555785D02*
X107789000Y-70555785D01*
X118408000Y-74755785D02*
X110192000Y-74755785D01*
X112860000Y-73315785D02*
X108864000Y-73315785D01*
X120240000Y-72435785D02*
X115740000Y-72435785D01*
X120853000Y-70194785D02*
X107747000Y-70194785D01*
X120558000Y-71635785D02*
X115740000Y-71635785D01*
X112860000Y-73075785D02*
X108708000Y-73075785D01*
X120620000Y-71435785D02*
X115740000Y-71435785D01*
X112860000Y-72115785D02*
X108218000Y-72115785D01*
X120182000Y-72555785D02*
X115740000Y-72555785D01*
X118599000Y-74595785D02*
X110001000Y-74595785D01*
X119917000Y-73035785D02*
X115740000Y-73035785D01*
X120822000Y-70475785D02*
X107778000Y-70475785D01*
X112860000Y-71395785D02*
X107969000Y-71395785D01*
X120863000Y-70074785D02*
X107737000Y-70074785D01*
X118200000Y-74915785D02*
X110400000Y-74915785D01*
X119709000Y-73355785D02*
X115740000Y-73355785D01*
X112860000Y-72315785D02*
X108304000Y-72315785D01*
X112860000Y-72075785D02*
X108202000Y-72075785D01*
X120756000Y-70875785D02*
X115740000Y-70875785D01*
X119867000Y-73115785D02*
X115740000Y-73115785D01*
X112860000Y-73035785D02*
X108683000Y-73035785D01*
X112860000Y-72355785D02*
X108322000Y-72355785D01*
X112860000Y-73515785D02*
X109005000Y-73515785D01*
X119941000Y-72995785D02*
X115740000Y-72995785D01*
X112860000Y-72395785D02*
X108341000Y-72395785D01*
X112860000Y-72915785D02*
X108612000Y-72915785D01*
X118982000Y-74235785D02*
X109618000Y-74235785D01*
X120722000Y-71035785D02*
X115740000Y-71035785D01*
X120414000Y-72035785D02*
X115740000Y-72035785D01*
X118819000Y-74395785D02*
X109781000Y-74395785D01*
X120099000Y-72715785D02*
X115740000Y-72715785D01*
X120631000Y-71395785D02*
X115740000Y-71395785D01*
X120868000Y-69994785D02*
X107732000Y-69994785D01*
X116355000Y-75875785D02*
X112245000Y-75875785D01*
X120849000Y-70234785D02*
X107751000Y-70234785D01*
X116879000Y-75675785D02*
X111721000Y-75675785D01*
X119134000Y-74075785D02*
X109466000Y-74075785D01*
X112860000Y-70755785D02*
X107822000Y-70755785D01*
X118943000Y-74275785D02*
X109657000Y-74275785D01*
X119681000Y-73395785D02*
X115740000Y-73395785D01*
X120584000Y-71555785D02*
X115740000Y-71555785D01*
X119816000Y-73195785D02*
X115740000Y-73195785D01*
X117302000Y-75475785D02*
X111298000Y-75475785D01*
X120860000Y-70114785D02*
X107740000Y-70114785D01*
X118015000Y-62510216D02*
X118015000Y-63810216D01*
X120684000Y-71195785D02*
X115740000Y-71195785D01*
X120349000Y-72195785D02*
X115740000Y-72195785D01*
X112860000Y-72555785D02*
X108418000Y-72555785D01*
X112860000Y-71475785D02*
X107992000Y-71475785D01*
X119988000Y-72915785D02*
X115740000Y-72915785D01*
X112860000Y-71915785D02*
X108139000Y-71915785D01*
X119311000Y-73875785D02*
X109289000Y-73875785D01*
X112860000Y-72155785D02*
X108235000Y-72155785D01*
X112860000Y-71875785D02*
X108125000Y-71875785D01*
X116784000Y-75715785D02*
X111816000Y-75715785D01*
X120398000Y-72075785D02*
X115740000Y-72075785D01*
X116231000Y-75915785D02*
X112369000Y-75915785D01*
X120296000Y-72315785D02*
X115740000Y-72315785D01*
X120382000Y-72115785D02*
X115740000Y-72115785D01*
X120876000Y-69834785D02*
X107724000Y-69834785D01*
X112860000Y-71635785D02*
X108042000Y-71635785D01*
X119344000Y-73835785D02*
X109256000Y-73835785D01*
X120827000Y-70435785D02*
X107773000Y-70435785D01*
X112860000Y-73115785D02*
X108733000Y-73115785D01*
X120461000Y-71915785D02*
X115740000Y-71915785D01*
X120056000Y-72795785D02*
X115740000Y-72795785D01*
X118861000Y-74355785D02*
X109739000Y-74355785D01*
X112860000Y-73235785D02*
X108810000Y-73235785D01*
X118306000Y-74835785D02*
X110294000Y-74835785D01*
X119763000Y-73275785D02*
X115740000Y-73275785D01*
X112860000Y-71955785D02*
X108154000Y-71955785D01*
X116471000Y-75835785D02*
X112129000Y-75835785D01*
X112860000Y-71835785D02*
X108110000Y-71835785D01*
X112860000Y-73435785D02*
X108947000Y-73435785D01*
X112860000Y-72515785D02*
X108398000Y-72515785D01*
X120162000Y-72595785D02*
X115740000Y-72595785D01*
X118902000Y-74315785D02*
X109698000Y-74315785D01*
X120748000Y-70915785D02*
X115740000Y-70915785D01*
X118690000Y-74515785D02*
X109910000Y-74515785D01*
X112860000Y-71795785D02*
X108096000Y-71795785D01*
X112860000Y-72755785D02*
X108522000Y-72755785D01*
X119653000Y-73435785D02*
X115740000Y-73435785D01*
X118734000Y-74475785D02*
X109866000Y-74475785D01*
X120704000Y-71115785D02*
X115740000Y-71115785D01*
X120011000Y-72875785D02*
X115740000Y-72875785D01*
X119595000Y-73515785D02*
X115740000Y-73515785D01*
X120832000Y-70395785D02*
X107768000Y-70395785D01*
X118254000Y-74875785D02*
X110346000Y-74875785D01*
X118357000Y-74795785D02*
X110243000Y-74795785D01*
X112860000Y-70835785D02*
X107837000Y-70835785D01*
X117975000Y-75075785D02*
X110625000Y-75075785D01*
X112860000Y-72035785D02*
X108186000Y-72035785D01*
X119242000Y-73955785D02*
X109358000Y-73955785D01*
X112860000Y-72715785D02*
X108501000Y-72715785D01*
X115615000Y-76075785D02*
X112985000Y-76075785D01*
X120608000Y-71475785D02*
X115740000Y-71475785D01*
X120771000Y-70795785D02*
X115740000Y-70795785D01*
X112860000Y-70795785D02*
X107829000Y-70795785D01*
X120365000Y-72155785D02*
X115740000Y-72155785D01*
X120314000Y-72275785D02*
X115740000Y-72275785D01*
X120518000Y-71755785D02*
X115740000Y-71755785D01*
X120446000Y-71955785D02*
X115740000Y-71955785D01*
X119021000Y-74195785D02*
X109579000Y-74195785D01*
X120033000Y-72835785D02*
X115740000Y-72835785D01*
X120504000Y-71795785D02*
X115740000Y-71795785D01*
X120845000Y-70274785D02*
X107755000Y-70274785D01*
X117915000Y-75115785D02*
X110685000Y-75115785D01*
X120875000Y-69874785D02*
X107725000Y-69874785D01*
X118777000Y-74435785D02*
X109823000Y-74435785D01*
X119565000Y-73555785D02*
X109035000Y-73555785D01*
X112860000Y-70915785D02*
X107852000Y-70915785D01*
X120879000Y-69754785D02*
X107721000Y-69754785D01*
X115953000Y-75995785D02*
X112647000Y-75995785D01*
X120785000Y-70715785D02*
X115740000Y-70715785D01*
X119892000Y-73075785D02*
X115740000Y-73075785D01*
X117727000Y-75235785D02*
X110873000Y-75235785D01*
X119505000Y-73635785D02*
X109095000Y-73635785D01*
X120642000Y-71355785D02*
X115740000Y-71355785D01*
X119277000Y-73915785D02*
X109323000Y-73915785D01*
X119171000Y-74035785D02*
X109429000Y-74035785D01*
X119535000Y-73595785D02*
X109065000Y-73595785D01*
X119207000Y-73995785D02*
X109393000Y-73995785D01*
X120816000Y-70515785D02*
X107784000Y-70515785D01*
X118665000Y-63160216D02*
X117365000Y-63160216D01*
X112860000Y-73475785D02*
X108976000Y-73475785D01*
X112860000Y-70675785D02*
X107808000Y-70675785D01*
X112860000Y-72635785D02*
X108459000Y-72635785D01*
X119736000Y-73315785D02*
X115740000Y-73315785D01*
X112860000Y-71755785D02*
X108082000Y-71755785D01*
X117378000Y-75435785D02*
X111222000Y-75435785D01*
X112860000Y-72435785D02*
X108360000Y-72435785D01*
X120120000Y-72675785D02*
X115740000Y-72675785D01*
X118553000Y-74635785D02*
X110047000Y-74635785D01*
X118146000Y-74955785D02*
X110454000Y-74955785D01*
X112860000Y-71115785D02*
X107896000Y-71115785D01*
X120920000Y-69594785D02*
G75*
G03*
X120920000Y-69594785I-6620000J0D01*
G01*
X31880000Y-63630000D02*
X33655000Y-63630000D01*
X33655000Y-69880000D02*
X31880000Y-69880000D01*
X27305000Y-69880000D02*
X29080000Y-69880000D01*
X27305000Y-79980000D02*
X28880000Y-79980000D01*
X33655000Y-86230000D02*
X32080000Y-86230000D01*
X27305000Y-86230000D02*
X28880000Y-86230000D01*
X32980000Y-69880000D02*
X32980000Y-79980000D01*
X27305000Y-79980000D02*
X27305000Y-86230000D01*
X27980000Y-69880000D02*
X27980000Y-79980000D01*
X33655000Y-69880000D02*
X33655000Y-63630000D01*
X33655000Y-79980000D02*
X32080000Y-79980000D01*
X29080000Y-63630000D02*
X27305000Y-63630000D01*
X33655000Y-79980000D02*
X33655000Y-86230000D01*
X27305000Y-63630000D02*
X27305000Y-69880000D01*
X117915000Y-45046000D02*
X110685000Y-45046000D01*
X120860000Y-40045000D02*
X107740000Y-40045000D01*
X120631000Y-41326000D02*
X115740000Y-41326000D01*
X120792000Y-40606000D02*
X115740000Y-40606000D01*
X117791000Y-45126000D02*
X110809000Y-45126000D01*
X118943000Y-44206000D02*
X109657000Y-44206000D01*
X120296000Y-42246000D02*
X115740000Y-42246000D01*
X112860000Y-43406000D02*
X108976000Y-43406000D01*
X120731000Y-40926000D02*
X115740000Y-40926000D01*
X120056000Y-42726000D02*
X115740000Y-42726000D01*
X112860000Y-41766000D02*
X108110000Y-41766000D01*
X118645000Y-44486000D02*
X109955000Y-44486000D01*
X119344000Y-43766000D02*
X109256000Y-43766000D01*
X120584000Y-41486000D02*
X115740000Y-41486000D01*
X118146000Y-44886000D02*
X110454000Y-44886000D01*
X120504000Y-41726000D02*
X115740000Y-41726000D01*
X120532000Y-41646000D02*
X115740000Y-41646000D01*
X120642000Y-41286000D02*
X115740000Y-41286000D01*
X120446000Y-41886000D02*
X115740000Y-41886000D01*
X120845000Y-40205000D02*
X107755000Y-40205000D01*
X112860000Y-42886000D02*
X108636000Y-42886000D01*
X119867000Y-43046000D02*
X115740000Y-43046000D01*
X120349000Y-42126000D02*
X115740000Y-42126000D01*
X118306000Y-44766000D02*
X110294000Y-44766000D01*
X119964000Y-42886000D02*
X115740000Y-42886000D01*
X120811000Y-40486000D02*
X107789000Y-40486000D01*
X118408000Y-44686000D02*
X110192000Y-44686000D01*
X120664000Y-41206000D02*
X115740000Y-41206000D01*
X116581000Y-45726000D02*
X112019000Y-45726000D01*
X120857000Y-40085000D02*
X107743000Y-40085000D01*
X120756000Y-40806000D02*
X115740000Y-40806000D01*
X112860000Y-42246000D02*
X108304000Y-42246000D01*
X120414000Y-41966000D02*
X115740000Y-41966000D01*
X112860000Y-40686000D02*
X107822000Y-40686000D01*
X112860000Y-41846000D02*
X108139000Y-41846000D01*
X120763000Y-40766000D02*
X115740000Y-40766000D01*
X116098000Y-45886000D02*
X112502000Y-45886000D01*
X120684000Y-41126000D02*
X115740000Y-41126000D01*
X117058000Y-45526000D02*
X111542000Y-45526000D01*
X112860000Y-41806000D02*
X108125000Y-41806000D01*
X120278000Y-42286000D02*
X115740000Y-42286000D01*
X118033000Y-44966000D02*
X110567000Y-44966000D01*
X120475000Y-41806000D02*
X115740000Y-41806000D01*
X120873000Y-39845000D02*
X107727000Y-39845000D01*
X118902000Y-44246000D02*
X109698000Y-44246000D01*
X112860000Y-40926000D02*
X107869000Y-40926000D01*
X120430000Y-41926000D02*
X115740000Y-41926000D01*
X112860000Y-41246000D02*
X107947000Y-41246000D01*
X112860000Y-41886000D02*
X108154000Y-41886000D01*
X119763000Y-43206000D02*
X115740000Y-43206000D01*
X120221000Y-42406000D02*
X115740000Y-42406000D01*
X119207000Y-43926000D02*
X109393000Y-43926000D01*
X112860000Y-40726000D02*
X107829000Y-40726000D01*
X116231000Y-45846000D02*
X112369000Y-45846000D01*
X112860000Y-42206000D02*
X108286000Y-42206000D01*
X119917000Y-42966000D02*
X115740000Y-42966000D01*
X120880000Y-39565000D02*
X107720000Y-39565000D01*
X118553000Y-44566000D02*
X110047000Y-44566000D01*
X112860000Y-41406000D02*
X107992000Y-41406000D01*
X112860000Y-40766000D02*
X107837000Y-40766000D01*
X120771000Y-40726000D02*
X115740000Y-40726000D01*
X120880000Y-39525000D02*
X107720000Y-39525000D01*
X120202000Y-42446000D02*
X115740000Y-42446000D01*
X120879000Y-39685000D02*
X107721000Y-39685000D01*
X112860000Y-43166000D02*
X108810000Y-43166000D01*
X112860000Y-42566000D02*
X108459000Y-42566000D01*
X112860000Y-42326000D02*
X108341000Y-42326000D01*
X112860000Y-43086000D02*
X108758000Y-43086000D01*
X120314000Y-42206000D02*
X115740000Y-42206000D01*
X112860000Y-41046000D02*
X107896000Y-41046000D01*
X112860000Y-42806000D02*
X108589000Y-42806000D01*
X112860000Y-41206000D02*
X107936000Y-41206000D01*
X120518000Y-41686000D02*
X115740000Y-41686000D01*
X117727000Y-45166000D02*
X110873000Y-45166000D01*
X112860000Y-42046000D02*
X108218000Y-42046000D01*
X118665000Y-33090431D02*
X117365000Y-33090431D01*
X112860000Y-42686000D02*
X108522000Y-42686000D01*
X112860000Y-40646000D02*
X107815000Y-40646000D01*
X120876000Y-39765000D02*
X107724000Y-39765000D01*
X112860000Y-41566000D02*
X108042000Y-41566000D01*
X120722000Y-40966000D02*
X115740000Y-40966000D01*
X112860000Y-43246000D02*
X108864000Y-43246000D01*
X112860000Y-43326000D02*
X108919000Y-43326000D01*
X120866000Y-39965000D02*
X107734000Y-39965000D01*
X112860000Y-41926000D02*
X108170000Y-41926000D01*
X120162000Y-42526000D02*
X115740000Y-42526000D01*
X120785000Y-40646000D02*
X115740000Y-40646000D01*
X118357000Y-44726000D02*
X110243000Y-44726000D01*
X120827000Y-40366000D02*
X107773000Y-40366000D01*
X112860000Y-42726000D02*
X108544000Y-42726000D01*
X120798000Y-40566000D02*
X107802000Y-40566000D01*
X118777000Y-44366000D02*
X109823000Y-44366000D01*
X112860000Y-42766000D02*
X108567000Y-42766000D01*
X119842000Y-43086000D02*
X115740000Y-43086000D01*
X112860000Y-41686000D02*
X108082000Y-41686000D01*
X112860000Y-40806000D02*
X107844000Y-40806000D01*
X120033000Y-42766000D02*
X115740000Y-42766000D01*
X116685000Y-45686000D02*
X111915000Y-45686000D01*
X118690000Y-44446000D02*
X109910000Y-44446000D01*
X120398000Y-42006000D02*
X115740000Y-42006000D01*
X118457000Y-44646000D02*
X110143000Y-44646000D01*
X120871000Y-39885000D02*
X107729000Y-39885000D01*
X112860000Y-41326000D02*
X107969000Y-41326000D01*
X119892000Y-43006000D02*
X115740000Y-43006000D01*
X112860000Y-41606000D02*
X108055000Y-41606000D01*
X112860000Y-42366000D02*
X108360000Y-42366000D01*
X112860000Y-42006000D02*
X108202000Y-42006000D01*
X116355000Y-45806000D02*
X112245000Y-45806000D01*
X117452000Y-45326000D02*
X111148000Y-45326000D01*
X120620000Y-41366000D02*
X115740000Y-41366000D01*
X120879000Y-39645000D02*
X107721000Y-39645000D01*
X120078000Y-42686000D02*
X115740000Y-42686000D01*
X118505000Y-44606000D02*
X110095000Y-44606000D01*
X112860000Y-42966000D02*
X108683000Y-42966000D01*
X112860000Y-42486000D02*
X108418000Y-42486000D01*
X120841000Y-40246000D02*
X107759000Y-40246000D01*
X120837000Y-40286000D02*
X107763000Y-40286000D01*
X120832000Y-40326000D02*
X107768000Y-40326000D01*
X119505000Y-43566000D02*
X109095000Y-43566000D01*
X112860000Y-41726000D02*
X108096000Y-41726000D01*
X117302000Y-45406000D02*
X111298000Y-45406000D01*
X116471000Y-45766000D02*
X112129000Y-45766000D01*
X120382000Y-42046000D02*
X115740000Y-42046000D01*
X112860000Y-43366000D02*
X108947000Y-43366000D01*
X120704000Y-41046000D02*
X115740000Y-41046000D01*
X120713000Y-41006000D02*
X115740000Y-41006000D01*
X115953000Y-45926000D02*
X112647000Y-45926000D01*
X112860000Y-41126000D02*
X107916000Y-41126000D01*
X112860000Y-43206000D02*
X108837000Y-43206000D01*
X112860000Y-42526000D02*
X108438000Y-42526000D01*
X119595000Y-43446000D02*
X115740000Y-43446000D01*
X119060000Y-44086000D02*
X109540000Y-44086000D01*
X118734000Y-44406000D02*
X109866000Y-44406000D01*
X120875000Y-39805000D02*
X107725000Y-39805000D01*
X120240000Y-42366000D02*
X115740000Y-42366000D01*
X120099000Y-42646000D02*
X115740000Y-42646000D01*
X120880000Y-39605000D02*
X107720000Y-39605000D01*
X120694000Y-41086000D02*
X115740000Y-41086000D01*
X112860000Y-40846000D02*
X107852000Y-40846000D01*
X112860000Y-41086000D02*
X107906000Y-41086000D01*
X112860000Y-42406000D02*
X108379000Y-42406000D01*
X120608000Y-41406000D02*
X115740000Y-41406000D01*
X112860000Y-43446000D02*
X109005000Y-43446000D01*
X120816000Y-40446000D02*
X107784000Y-40446000D01*
X120674000Y-41166000D02*
X115740000Y-41166000D01*
X120877000Y-39725000D02*
X107723000Y-39725000D01*
X119097000Y-44046000D02*
X109503000Y-44046000D01*
X112860000Y-41966000D02*
X108186000Y-41966000D01*
X120331000Y-42166000D02*
X115740000Y-42166000D01*
X120822000Y-40406000D02*
X107778000Y-40406000D01*
X120141000Y-42566000D02*
X115740000Y-42566000D01*
X120805000Y-40526000D02*
X107795000Y-40526000D01*
X119816000Y-43126000D02*
X115740000Y-43126000D01*
X120120000Y-42606000D02*
X115740000Y-42606000D01*
X117142000Y-45486000D02*
X111458000Y-45486000D01*
X119474000Y-43606000D02*
X109126000Y-43606000D01*
X112860000Y-41646000D02*
X108068000Y-41646000D01*
X115615000Y-46006000D02*
X112985000Y-46006000D01*
X114775000Y-46126000D02*
X113825000Y-46126000D01*
X112860000Y-43286000D02*
X108891000Y-43286000D01*
X112860000Y-43006000D02*
X108708000Y-43006000D01*
X112860000Y-42446000D02*
X108398000Y-42446000D01*
X115407000Y-46046000D02*
X113193000Y-46046000D01*
X112860000Y-42166000D02*
X108269000Y-42166000D01*
X112860000Y-42286000D02*
X108322000Y-42286000D01*
X118982000Y-44166000D02*
X109618000Y-44166000D01*
X120558000Y-41566000D02*
X115740000Y-41566000D01*
X115150000Y-46086000D02*
X113450000Y-46086000D01*
X119681000Y-43326000D02*
X115740000Y-43326000D01*
X119790000Y-43166000D02*
X115740000Y-43166000D01*
X119709000Y-43286000D02*
X115740000Y-43286000D01*
X117593000Y-45246000D02*
X111007000Y-45246000D01*
X112860000Y-42846000D02*
X108612000Y-42846000D01*
X119410000Y-43686000D02*
X109190000Y-43686000D01*
X120259000Y-42326000D02*
X115740000Y-42326000D01*
X112860000Y-42926000D02*
X108659000Y-42926000D01*
X118254000Y-44806000D02*
X110346000Y-44806000D01*
X112860000Y-42126000D02*
X108251000Y-42126000D01*
X119565000Y-43486000D02*
X109035000Y-43486000D01*
X119624000Y-43406000D02*
X115740000Y-43406000D01*
X117223000Y-45446000D02*
X111377000Y-45446000D01*
X119941000Y-42926000D02*
X115740000Y-42926000D01*
X120863000Y-40005000D02*
X107737000Y-40005000D01*
X112860000Y-42646000D02*
X108501000Y-42646000D01*
X120868000Y-39925000D02*
X107732000Y-39925000D01*
X119311000Y-43806000D02*
X109289000Y-43806000D01*
X118090000Y-44926000D02*
X110510000Y-44926000D01*
X116784000Y-45646000D02*
X111816000Y-45646000D01*
X120849000Y-40165000D02*
X107751000Y-40165000D01*
X116970000Y-45566000D02*
X111630000Y-45566000D01*
X119736000Y-43246000D02*
X115740000Y-43246000D01*
X112860000Y-40886000D02*
X107861000Y-40886000D01*
X117378000Y-45366000D02*
X111222000Y-45366000D01*
X115794000Y-45966000D02*
X112806000Y-45966000D01*
X117975000Y-45006000D02*
X110625000Y-45006000D01*
X119171000Y-43966000D02*
X109429000Y-43966000D01*
X118200000Y-44846000D02*
X110400000Y-44846000D01*
X119134000Y-44006000D02*
X109466000Y-44006000D01*
X118819000Y-44326000D02*
X109781000Y-44326000D01*
X120545000Y-41606000D02*
X115740000Y-41606000D01*
X120011000Y-42806000D02*
X115740000Y-42806000D01*
X112860000Y-41286000D02*
X107958000Y-41286000D01*
X112860000Y-42086000D02*
X108235000Y-42086000D01*
X119988000Y-42846000D02*
X115740000Y-42846000D01*
X120596000Y-41446000D02*
X115740000Y-41446000D01*
X120461000Y-41846000D02*
X115740000Y-41846000D01*
X120653000Y-41246000D02*
X115740000Y-41246000D01*
X119242000Y-43886000D02*
X109358000Y-43886000D01*
X117854000Y-45086000D02*
X110746000Y-45086000D01*
X119378000Y-43726000D02*
X109222000Y-43726000D01*
X112860000Y-40606000D02*
X107808000Y-40606000D01*
X120490000Y-41766000D02*
X115740000Y-41766000D01*
X119442000Y-43646000D02*
X109158000Y-43646000D01*
X112860000Y-41446000D02*
X108004000Y-41446000D01*
X120182000Y-42486000D02*
X115740000Y-42486000D01*
X112860000Y-40966000D02*
X107878000Y-40966000D01*
X120748000Y-40846000D02*
X115740000Y-40846000D01*
X112860000Y-41366000D02*
X107980000Y-41366000D01*
X120778000Y-40686000D02*
X115740000Y-40686000D01*
X117523000Y-45286000D02*
X111077000Y-45286000D01*
X119021000Y-44126000D02*
X109579000Y-44126000D01*
X118861000Y-44286000D02*
X109739000Y-44286000D01*
X112860000Y-41166000D02*
X107926000Y-41166000D01*
X112860000Y-42606000D02*
X108480000Y-42606000D01*
X119653000Y-43366000D02*
X115740000Y-43366000D01*
X118015000Y-32440431D02*
X118015000Y-33740431D01*
X120853000Y-40125000D02*
X107747000Y-40125000D01*
X120571000Y-41526000D02*
X115740000Y-41526000D01*
X112860000Y-43126000D02*
X108784000Y-43126000D01*
X119535000Y-43526000D02*
X109065000Y-43526000D01*
X112860000Y-41006000D02*
X107887000Y-41006000D01*
X116879000Y-45606000D02*
X111721000Y-45606000D01*
X117661000Y-45206000D02*
X110939000Y-45206000D01*
X120739000Y-40886000D02*
X115740000Y-40886000D01*
X112860000Y-41526000D02*
X108029000Y-41526000D01*
X112860000Y-43046000D02*
X108733000Y-43046000D01*
X118599000Y-44526000D02*
X110001000Y-44526000D01*
X112860000Y-41486000D02*
X108016000Y-41486000D01*
X120365000Y-42086000D02*
X115740000Y-42086000D01*
X119277000Y-43846000D02*
X109323000Y-43846000D01*
X120920000Y-39525000D02*
G75*
G03*
X120920000Y-39525000I-6620000J0D01*
G01*
X133930000Y-76930000D02*
X133930000Y-75420000D01*
X126960000Y-76930000D02*
X126960000Y-72289000D01*
X137200000Y-76930000D02*
X137200000Y-72289000D01*
X137200000Y-76930000D02*
X126960000Y-76930000D01*
X137200000Y-75420000D02*
X126960000Y-75420000D01*
X130229000Y-76930000D02*
X130229000Y-75420000D01*
X137200000Y-72289000D02*
X126960000Y-72289000D01*
X125620000Y-46235000D02*
X129955000Y-46235000D01*
X124730000Y-33315000D02*
X139430000Y-33315000D01*
X138540000Y-46235000D02*
X139430000Y-33315000D01*
X125620000Y-46235000D02*
X124730000Y-33315000D01*
X134180000Y-46235000D02*
X138540000Y-46235000D01*
X137200000Y-47530000D02*
X137200000Y-52171000D01*
X126960000Y-47530000D02*
X126960000Y-52171000D01*
X126960000Y-52171000D02*
X137200000Y-52171000D01*
X130230000Y-47530000D02*
X130230000Y-49040000D01*
X133931000Y-47530000D02*
X133931000Y-49040000D01*
X126960000Y-49040000D02*
X137200000Y-49040000D01*
X126960000Y-47530000D02*
X137200000Y-47530000D01*
X148650000Y-72330000D02*
X148650000Y-73660000D01*
X146050000Y-72330000D02*
X140910000Y-72330000D01*
X146050000Y-72330000D02*
X146050000Y-74990000D01*
X147320000Y-72330000D02*
X148650000Y-72330000D01*
X146050000Y-74990000D02*
X140910000Y-74990000D01*
X140910000Y-72330000D02*
X140910000Y-74990000D01*
X69860000Y-62160000D02*
X69860000Y-64560000D01*
X67460000Y-62160000D02*
X69860000Y-62160000D01*
X67460000Y-64560000D02*
X67460000Y-62160000D01*
X69860000Y-64560000D02*
X67460000Y-64560000D01*
X96985000Y-42326000D02*
X92466000Y-42326000D01*
X104829000Y-41046000D02*
X99865000Y-41046000D01*
X105005000Y-39525000D02*
X91845000Y-39525000D01*
X104864000Y-40886000D02*
X99865000Y-40886000D01*
X103915000Y-43166000D02*
X99865000Y-43166000D01*
X104017000Y-43006000D02*
X99865000Y-43006000D01*
X96985000Y-41286000D02*
X92083000Y-41286000D01*
X104789000Y-41206000D02*
X99865000Y-41206000D01*
X99919000Y-45966000D02*
X96931000Y-45966000D01*
X104421000Y-42246000D02*
X99865000Y-42246000D01*
X102533000Y-44686000D02*
X94317000Y-44686000D01*
X103861000Y-43246000D02*
X99865000Y-43246000D01*
X99275000Y-46086000D02*
X97575000Y-46086000D01*
X96985000Y-41406000D02*
X92117000Y-41406000D01*
X104991000Y-39965000D02*
X91859000Y-39965000D01*
X102986000Y-44286000D02*
X93864000Y-44286000D01*
X103567000Y-43646000D02*
X93283000Y-43646000D01*
X104181000Y-42726000D02*
X99865000Y-42726000D01*
X96985000Y-42686000D02*
X92647000Y-42686000D01*
X101095000Y-45566000D02*
X95755000Y-45566000D01*
X100223000Y-45886000D02*
X96627000Y-45886000D01*
X104670000Y-41606000D02*
X99865000Y-41606000D01*
X104809000Y-41126000D02*
X99865000Y-41126000D01*
X96985000Y-41806000D02*
X92250000Y-41806000D01*
X104966000Y-40246000D02*
X91884000Y-40246000D01*
X102790000Y-33090431D02*
X101490000Y-33090431D01*
X104643000Y-41686000D02*
X99865000Y-41686000D01*
X104873000Y-40846000D02*
X99865000Y-40846000D01*
X103630000Y-43566000D02*
X93220000Y-43566000D01*
X104136000Y-42806000D02*
X99865000Y-42806000D01*
X104066000Y-42926000D02*
X99865000Y-42926000D01*
X96985000Y-42646000D02*
X92626000Y-42646000D01*
X96985000Y-41326000D02*
X92094000Y-41326000D01*
X100356000Y-45846000D02*
X96494000Y-45846000D01*
X96985000Y-41966000D02*
X92311000Y-41966000D01*
X96985000Y-41446000D02*
X92129000Y-41446000D01*
X104941000Y-40446000D02*
X91909000Y-40446000D01*
X96985000Y-42406000D02*
X92504000Y-42406000D01*
X104307000Y-42486000D02*
X99865000Y-42486000D01*
X104245000Y-42606000D02*
X99865000Y-42606000D01*
X104923000Y-40566000D02*
X91927000Y-40566000D01*
X96985000Y-42926000D02*
X92784000Y-42926000D01*
X96985000Y-41886000D02*
X92279000Y-41886000D01*
X104615000Y-41766000D02*
X99865000Y-41766000D01*
X103888000Y-43206000D02*
X99865000Y-43206000D01*
X96985000Y-41726000D02*
X92221000Y-41726000D01*
X104224000Y-42646000D02*
X99865000Y-42646000D01*
X96985000Y-41366000D02*
X92105000Y-41366000D01*
X96985000Y-41566000D02*
X92167000Y-41566000D01*
X105000000Y-39805000D02*
X91850000Y-39805000D01*
X103660000Y-43526000D02*
X93190000Y-43526000D01*
X101718000Y-45246000D02*
X95132000Y-45246000D01*
X96985000Y-42766000D02*
X92692000Y-42766000D01*
X102678000Y-44566000D02*
X94172000Y-44566000D01*
X102815000Y-44446000D02*
X94035000Y-44446000D01*
X104439000Y-42206000D02*
X99865000Y-42206000D01*
X104910000Y-40646000D02*
X99865000Y-40646000D01*
X96985000Y-40886000D02*
X91986000Y-40886000D01*
X96985000Y-42206000D02*
X92411000Y-42206000D01*
X96985000Y-40726000D02*
X91954000Y-40726000D01*
X99740000Y-46006000D02*
X97110000Y-46006000D01*
X104988000Y-40005000D02*
X91862000Y-40005000D01*
X104657000Y-41646000D02*
X99865000Y-41646000D01*
X104403000Y-42286000D02*
X99865000Y-42286000D01*
X100810000Y-45686000D02*
X96040000Y-45686000D01*
X103367000Y-43886000D02*
X93483000Y-43886000D01*
X96985000Y-43446000D02*
X93130000Y-43446000D01*
X104767000Y-41286000D02*
X99865000Y-41286000D01*
X104523000Y-42006000D02*
X99865000Y-42006000D01*
X104957000Y-40326000D02*
X91893000Y-40326000D01*
X104745000Y-41366000D02*
X99865000Y-41366000D01*
X103027000Y-44246000D02*
X93823000Y-44246000D01*
X103107000Y-44166000D02*
X93743000Y-44166000D01*
X96985000Y-43326000D02*
X93044000Y-43326000D01*
X105002000Y-39725000D02*
X91848000Y-39725000D01*
X101852000Y-45166000D02*
X94998000Y-45166000D01*
X104930000Y-40526000D02*
X91920000Y-40526000D01*
X103941000Y-43126000D02*
X99865000Y-43126000D01*
X96985000Y-41486000D02*
X92141000Y-41486000D01*
X96985000Y-41126000D02*
X92041000Y-41126000D01*
X100706000Y-45726000D02*
X96144000Y-45726000D01*
X104896000Y-40726000D02*
X99865000Y-40726000D01*
X104287000Y-42526000D02*
X99865000Y-42526000D01*
X103834000Y-43286000D02*
X99865000Y-43286000D01*
X96985000Y-43006000D02*
X92833000Y-43006000D01*
X104346000Y-42406000D02*
X99865000Y-42406000D01*
X104819000Y-41086000D02*
X99865000Y-41086000D01*
X104998000Y-39845000D02*
X91852000Y-39845000D01*
X96985000Y-40686000D02*
X91947000Y-40686000D01*
X96985000Y-42846000D02*
X92737000Y-42846000D01*
X104365000Y-42366000D02*
X99865000Y-42366000D01*
X103720000Y-43446000D02*
X99865000Y-43446000D01*
X104903000Y-40686000D02*
X99865000Y-40686000D01*
X96985000Y-42806000D02*
X92714000Y-42806000D01*
X104113000Y-42846000D02*
X99865000Y-42846000D01*
X101183000Y-45526000D02*
X95667000Y-45526000D01*
X96985000Y-41046000D02*
X92021000Y-41046000D01*
X101267000Y-45486000D02*
X95583000Y-45486000D01*
X103535000Y-43686000D02*
X93315000Y-43686000D01*
X96985000Y-43206000D02*
X92962000Y-43206000D01*
X103599000Y-43606000D02*
X93251000Y-43606000D01*
X104970000Y-40205000D02*
X91880000Y-40205000D01*
X105004000Y-39685000D02*
X91846000Y-39685000D01*
X101004000Y-45606000D02*
X95846000Y-45606000D01*
X101577000Y-45326000D02*
X95273000Y-45326000D01*
X96985000Y-42126000D02*
X92376000Y-42126000D01*
X103296000Y-43966000D02*
X93554000Y-43966000D01*
X96985000Y-42726000D02*
X92669000Y-42726000D01*
X96985000Y-41206000D02*
X92061000Y-41206000D01*
X104266000Y-42566000D02*
X99865000Y-42566000D01*
X103749000Y-43406000D02*
X99865000Y-43406000D01*
X104952000Y-40366000D02*
X91898000Y-40366000D01*
X104696000Y-41526000D02*
X99865000Y-41526000D01*
X103402000Y-43846000D02*
X93448000Y-43846000D01*
X104555000Y-41926000D02*
X99865000Y-41926000D01*
X104778000Y-41246000D02*
X99865000Y-41246000D01*
X102724000Y-44526000D02*
X94126000Y-44526000D01*
X96985000Y-41846000D02*
X92264000Y-41846000D01*
X105004000Y-39645000D02*
X91846000Y-39645000D01*
X104721000Y-41446000D02*
X99865000Y-41446000D01*
X103778000Y-43366000D02*
X99865000Y-43366000D01*
X104456000Y-42166000D02*
X99865000Y-42166000D01*
X104982000Y-40085000D02*
X91868000Y-40085000D01*
X96985000Y-42006000D02*
X92327000Y-42006000D01*
X96985000Y-41526000D02*
X92154000Y-41526000D01*
X103332000Y-43926000D02*
X93518000Y-43926000D01*
X104586000Y-41846000D02*
X99865000Y-41846000D01*
X96985000Y-42486000D02*
X92543000Y-42486000D01*
X96985000Y-41166000D02*
X92051000Y-41166000D01*
X96985000Y-42606000D02*
X92605000Y-42606000D01*
X104993000Y-39925000D02*
X91857000Y-39925000D01*
X101427000Y-45406000D02*
X95423000Y-45406000D01*
X102944000Y-44326000D02*
X93906000Y-44326000D01*
X96985000Y-41926000D02*
X92295000Y-41926000D01*
X102630000Y-44606000D02*
X94220000Y-44606000D01*
X104327000Y-42446000D02*
X99865000Y-42446000D01*
X96985000Y-42966000D02*
X92808000Y-42966000D01*
X104978000Y-40125000D02*
X91872000Y-40125000D01*
X101786000Y-45206000D02*
X95064000Y-45206000D01*
X102859000Y-44406000D02*
X93991000Y-44406000D01*
X96985000Y-41646000D02*
X92193000Y-41646000D01*
X96985000Y-40926000D02*
X91994000Y-40926000D01*
X102770000Y-44486000D02*
X94080000Y-44486000D01*
X96985000Y-41006000D02*
X92012000Y-41006000D01*
X103259000Y-44006000D02*
X93591000Y-44006000D01*
X104985000Y-40045000D02*
X91865000Y-40045000D01*
X96985000Y-42086000D02*
X92360000Y-42086000D01*
X102215000Y-44926000D02*
X94635000Y-44926000D01*
X104847000Y-40966000D02*
X99865000Y-40966000D01*
X104042000Y-42966000D02*
X99865000Y-42966000D01*
X96985000Y-43366000D02*
X93072000Y-43366000D01*
X104936000Y-40486000D02*
X91914000Y-40486000D01*
X101348000Y-45446000D02*
X95502000Y-45446000D01*
X102040000Y-45046000D02*
X94810000Y-45046000D01*
X96985000Y-40846000D02*
X91977000Y-40846000D01*
X104838000Y-41006000D02*
X99865000Y-41006000D01*
X96985000Y-43246000D02*
X92989000Y-43246000D01*
X102902000Y-44366000D02*
X93948000Y-44366000D01*
X104888000Y-40766000D02*
X99865000Y-40766000D01*
X104571000Y-41886000D02*
X99865000Y-41886000D01*
X96985000Y-43286000D02*
X93016000Y-43286000D01*
X96985000Y-40966000D02*
X92003000Y-40966000D01*
X104490000Y-42086000D02*
X99865000Y-42086000D01*
X105005000Y-39605000D02*
X91845000Y-39605000D01*
X104996000Y-39885000D02*
X91854000Y-39885000D01*
X103469000Y-43766000D02*
X93381000Y-43766000D01*
X96985000Y-42166000D02*
X92394000Y-42166000D01*
X102140000Y-32440431D02*
X102140000Y-33740431D01*
X104507000Y-42046000D02*
X99865000Y-42046000D01*
X96985000Y-41086000D02*
X92031000Y-41086000D01*
X104089000Y-42886000D02*
X99865000Y-42886000D01*
X100909000Y-45646000D02*
X95941000Y-45646000D01*
X104856000Y-40926000D02*
X99865000Y-40926000D01*
X99532000Y-46046000D02*
X97318000Y-46046000D01*
X103992000Y-43046000D02*
X99865000Y-43046000D01*
X96985000Y-43406000D02*
X93101000Y-43406000D01*
X104683000Y-41566000D02*
X99865000Y-41566000D01*
X103967000Y-43086000D02*
X99865000Y-43086000D01*
X104600000Y-41806000D02*
X99865000Y-41806000D01*
X102431000Y-44766000D02*
X94419000Y-44766000D01*
X104474000Y-42126000D02*
X99865000Y-42126000D01*
X96985000Y-42366000D02*
X92485000Y-42366000D01*
X104539000Y-41966000D02*
X99865000Y-41966000D01*
X103068000Y-44206000D02*
X93782000Y-44206000D01*
X96985000Y-41686000D02*
X92207000Y-41686000D01*
X104629000Y-41726000D02*
X99865000Y-41726000D01*
X103146000Y-44126000D02*
X93704000Y-44126000D01*
X104881000Y-40806000D02*
X99865000Y-40806000D01*
X96985000Y-40766000D02*
X91962000Y-40766000D01*
X105001000Y-39765000D02*
X91849000Y-39765000D01*
X96985000Y-42286000D02*
X92447000Y-42286000D01*
X98900000Y-46126000D02*
X97950000Y-46126000D01*
X104947000Y-40406000D02*
X91903000Y-40406000D01*
X96985000Y-42046000D02*
X92343000Y-42046000D01*
X101916000Y-45126000D02*
X94934000Y-45126000D01*
X96985000Y-40646000D02*
X91940000Y-40646000D01*
X102158000Y-44966000D02*
X94692000Y-44966000D01*
X104962000Y-40286000D02*
X91888000Y-40286000D01*
X104733000Y-41406000D02*
X99865000Y-41406000D01*
X100480000Y-45806000D02*
X96370000Y-45806000D01*
X102482000Y-44726000D02*
X94368000Y-44726000D01*
X101648000Y-45286000D02*
X95202000Y-45286000D01*
X104917000Y-40606000D02*
X99865000Y-40606000D01*
X103222000Y-44046000D02*
X93628000Y-44046000D01*
X103806000Y-43326000D02*
X99865000Y-43326000D01*
X101979000Y-45086000D02*
X94871000Y-45086000D01*
X96985000Y-43166000D02*
X92935000Y-43166000D01*
X102100000Y-45006000D02*
X94750000Y-45006000D01*
X104709000Y-41486000D02*
X99865000Y-41486000D01*
X96985000Y-40606000D02*
X91933000Y-40606000D01*
X104756000Y-41326000D02*
X99865000Y-41326000D01*
X104974000Y-40165000D02*
X91876000Y-40165000D01*
X102379000Y-44806000D02*
X94471000Y-44806000D01*
X104158000Y-42766000D02*
X99865000Y-42766000D01*
X96985000Y-42886000D02*
X92761000Y-42886000D01*
X103503000Y-43726000D02*
X93347000Y-43726000D01*
X103185000Y-44086000D02*
X93665000Y-44086000D01*
X105005000Y-39565000D02*
X91845000Y-39565000D01*
X102325000Y-44846000D02*
X94525000Y-44846000D01*
X96985000Y-43086000D02*
X92883000Y-43086000D01*
X96985000Y-42246000D02*
X92429000Y-42246000D01*
X104203000Y-42686000D02*
X99865000Y-42686000D01*
X103436000Y-43806000D02*
X93414000Y-43806000D01*
X96985000Y-43046000D02*
X92858000Y-43046000D01*
X96985000Y-40806000D02*
X91969000Y-40806000D01*
X103690000Y-43486000D02*
X93160000Y-43486000D01*
X96985000Y-43126000D02*
X92909000Y-43126000D01*
X96985000Y-42446000D02*
X92523000Y-42446000D01*
X102582000Y-44646000D02*
X94268000Y-44646000D01*
X96985000Y-41766000D02*
X92235000Y-41766000D01*
X101503000Y-45366000D02*
X95347000Y-45366000D01*
X100078000Y-45926000D02*
X96772000Y-45926000D01*
X104384000Y-42326000D02*
X99865000Y-42326000D01*
X96985000Y-41246000D02*
X92072000Y-41246000D01*
X96985000Y-42566000D02*
X92584000Y-42566000D01*
X104799000Y-41166000D02*
X99865000Y-41166000D01*
X96985000Y-42526000D02*
X92563000Y-42526000D01*
X102271000Y-44886000D02*
X94579000Y-44886000D01*
X100596000Y-45766000D02*
X96254000Y-45766000D01*
X96985000Y-41606000D02*
X92180000Y-41606000D01*
X105045000Y-39525000D02*
G75*
G03*
X105045000Y-39525000I-6620000J0D01*
G01*
X96985000Y-57006000D02*
X92235000Y-57006000D01*
X102100000Y-60246000D02*
X94750000Y-60246000D01*
X104917000Y-55846000D02*
X99865000Y-55846000D01*
X101577000Y-60566000D02*
X95273000Y-60566000D01*
X102140000Y-47680431D02*
X102140000Y-48980431D01*
X96985000Y-58326000D02*
X92883000Y-58326000D01*
X96985000Y-57846000D02*
X92605000Y-57846000D01*
X96985000Y-56166000D02*
X91994000Y-56166000D01*
X104474000Y-57366000D02*
X99865000Y-57366000D01*
X102158000Y-60206000D02*
X94692000Y-60206000D01*
X96985000Y-58646000D02*
X93101000Y-58646000D01*
X101095000Y-60806000D02*
X95755000Y-60806000D01*
X103567000Y-58886000D02*
X93283000Y-58886000D01*
X102271000Y-60126000D02*
X94579000Y-60126000D01*
X96985000Y-57446000D02*
X92411000Y-57446000D01*
X102902000Y-59606000D02*
X93948000Y-59606000D01*
X102630000Y-59846000D02*
X94220000Y-59846000D01*
X96985000Y-58286000D02*
X92858000Y-58286000D01*
X96985000Y-56406000D02*
X92051000Y-56406000D01*
X104838000Y-56246000D02*
X99865000Y-56246000D01*
X104923000Y-55806000D02*
X91927000Y-55806000D01*
X103720000Y-58686000D02*
X99865000Y-58686000D01*
X104456000Y-57406000D02*
X99865000Y-57406000D01*
X105004000Y-54885000D02*
X91846000Y-54885000D01*
X104982000Y-55325000D02*
X91868000Y-55325000D01*
X101916000Y-60366000D02*
X94934000Y-60366000D01*
X96985000Y-56886000D02*
X92193000Y-56886000D01*
X96985000Y-57526000D02*
X92447000Y-57526000D01*
X104158000Y-58006000D02*
X99865000Y-58006000D01*
X102379000Y-60046000D02*
X94471000Y-60046000D01*
X104881000Y-56046000D02*
X99865000Y-56046000D01*
X96985000Y-57326000D02*
X92360000Y-57326000D01*
X104287000Y-57766000D02*
X99865000Y-57766000D01*
X104873000Y-56086000D02*
X99865000Y-56086000D01*
X105005000Y-54845000D02*
X91845000Y-54845000D01*
X102859000Y-59646000D02*
X93991000Y-59646000D01*
X103630000Y-58806000D02*
X93220000Y-58806000D01*
X96985000Y-58006000D02*
X92692000Y-58006000D01*
X104978000Y-55365000D02*
X91872000Y-55365000D01*
X104042000Y-58206000D02*
X99865000Y-58206000D01*
X102040000Y-60286000D02*
X94810000Y-60286000D01*
X103296000Y-59206000D02*
X93554000Y-59206000D01*
X104203000Y-57926000D02*
X99865000Y-57926000D01*
X104888000Y-56006000D02*
X99865000Y-56006000D01*
X103222000Y-59286000D02*
X93628000Y-59286000D01*
X104089000Y-58126000D02*
X99865000Y-58126000D01*
X96985000Y-56446000D02*
X92061000Y-56446000D01*
X100596000Y-61006000D02*
X96254000Y-61006000D01*
X96985000Y-56806000D02*
X92167000Y-56806000D01*
X104586000Y-57086000D02*
X99865000Y-57086000D01*
X96985000Y-56926000D02*
X92207000Y-56926000D01*
X96985000Y-56086000D02*
X91977000Y-56086000D01*
X96985000Y-57246000D02*
X92327000Y-57246000D01*
X102790000Y-48330431D02*
X101490000Y-48330431D01*
X104756000Y-56566000D02*
X99865000Y-56566000D01*
X96985000Y-57126000D02*
X92279000Y-57126000D01*
X96985000Y-58366000D02*
X92909000Y-58366000D01*
X96985000Y-56126000D02*
X91986000Y-56126000D01*
X96985000Y-58086000D02*
X92737000Y-58086000D01*
X96985000Y-56686000D02*
X92129000Y-56686000D01*
X104856000Y-56166000D02*
X99865000Y-56166000D01*
X103915000Y-58406000D02*
X99865000Y-58406000D01*
X101786000Y-60446000D02*
X95064000Y-60446000D01*
X102986000Y-59526000D02*
X93864000Y-59526000D01*
X104245000Y-57846000D02*
X99865000Y-57846000D01*
X104490000Y-57326000D02*
X99865000Y-57326000D01*
X96985000Y-57686000D02*
X92523000Y-57686000D01*
X100223000Y-61126000D02*
X96627000Y-61126000D01*
X96985000Y-55966000D02*
X91954000Y-55966000D01*
X103107000Y-59406000D02*
X93743000Y-59406000D01*
X101183000Y-60766000D02*
X95667000Y-60766000D01*
X101852000Y-60406000D02*
X94998000Y-60406000D01*
X102582000Y-59886000D02*
X94268000Y-59886000D01*
X96985000Y-57806000D02*
X92584000Y-57806000D01*
X104421000Y-57486000D02*
X99865000Y-57486000D01*
X104224000Y-57886000D02*
X99865000Y-57886000D01*
X104809000Y-56366000D02*
X99865000Y-56366000D01*
X96985000Y-58446000D02*
X92962000Y-58446000D01*
X105000000Y-55045000D02*
X91850000Y-55045000D01*
X96985000Y-57926000D02*
X92647000Y-57926000D01*
X103690000Y-58726000D02*
X93160000Y-58726000D01*
X96985000Y-57086000D02*
X92264000Y-57086000D01*
X96985000Y-57966000D02*
X92669000Y-57966000D01*
X104930000Y-55766000D02*
X91920000Y-55766000D01*
X104767000Y-56526000D02*
X99865000Y-56526000D01*
X105001000Y-55005000D02*
X91849000Y-55005000D01*
X101718000Y-60486000D02*
X95132000Y-60486000D01*
X96985000Y-56286000D02*
X92021000Y-56286000D01*
X96985000Y-58406000D02*
X92935000Y-58406000D01*
X104555000Y-57166000D02*
X99865000Y-57166000D01*
X104733000Y-56646000D02*
X99865000Y-56646000D01*
X104799000Y-56406000D02*
X99865000Y-56406000D01*
X96985000Y-57766000D02*
X92563000Y-57766000D01*
X104996000Y-55125000D02*
X91854000Y-55125000D01*
X102724000Y-59766000D02*
X94126000Y-59766000D01*
X103332000Y-59166000D02*
X93518000Y-59166000D01*
X104600000Y-57046000D02*
X99865000Y-57046000D01*
X101267000Y-60726000D02*
X95583000Y-60726000D01*
X102482000Y-59966000D02*
X94368000Y-59966000D01*
X104966000Y-55486000D02*
X91884000Y-55486000D01*
X96985000Y-58526000D02*
X93016000Y-58526000D01*
X102678000Y-59806000D02*
X94172000Y-59806000D01*
X101427000Y-60646000D02*
X95423000Y-60646000D01*
X96985000Y-56486000D02*
X92072000Y-56486000D01*
X105005000Y-54805000D02*
X91845000Y-54805000D01*
X96985000Y-56846000D02*
X92180000Y-56846000D01*
X101503000Y-60606000D02*
X95347000Y-60606000D01*
X100480000Y-61046000D02*
X96370000Y-61046000D01*
X103436000Y-59046000D02*
X93414000Y-59046000D01*
X96985000Y-57166000D02*
X92295000Y-57166000D01*
X104988000Y-55245000D02*
X91862000Y-55245000D01*
X104998000Y-55085000D02*
X91852000Y-55085000D01*
X104136000Y-58046000D02*
X99865000Y-58046000D01*
X96985000Y-58606000D02*
X93072000Y-58606000D01*
X96985000Y-58166000D02*
X92784000Y-58166000D01*
X99919000Y-61206000D02*
X96931000Y-61206000D01*
X101648000Y-60526000D02*
X95202000Y-60526000D01*
X96985000Y-56966000D02*
X92221000Y-56966000D01*
X104266000Y-57806000D02*
X99865000Y-57806000D01*
X104957000Y-55566000D02*
X91893000Y-55566000D01*
X96985000Y-57726000D02*
X92543000Y-57726000D01*
X96985000Y-57046000D02*
X92250000Y-57046000D01*
X103861000Y-58486000D02*
X99865000Y-58486000D01*
X100356000Y-61086000D02*
X96494000Y-61086000D01*
X96985000Y-57886000D02*
X92626000Y-57886000D01*
X99532000Y-61286000D02*
X97318000Y-61286000D01*
X98900000Y-61366000D02*
X97950000Y-61366000D01*
X104643000Y-56926000D02*
X99865000Y-56926000D01*
X102770000Y-59726000D02*
X94080000Y-59726000D01*
X96985000Y-57606000D02*
X92485000Y-57606000D01*
X103146000Y-59366000D02*
X93704000Y-59366000D01*
X96985000Y-58126000D02*
X92761000Y-58126000D01*
X104864000Y-56126000D02*
X99865000Y-56126000D01*
X105005000Y-54765000D02*
X91845000Y-54765000D01*
X96985000Y-57406000D02*
X92394000Y-57406000D01*
X96985000Y-57566000D02*
X92466000Y-57566000D01*
X104670000Y-56846000D02*
X99865000Y-56846000D01*
X101348000Y-60686000D02*
X95502000Y-60686000D01*
X103660000Y-58766000D02*
X93190000Y-58766000D01*
X100078000Y-61166000D02*
X96772000Y-61166000D01*
X96985000Y-58046000D02*
X92714000Y-58046000D01*
X102215000Y-60166000D02*
X94635000Y-60166000D01*
X104993000Y-55165000D02*
X91857000Y-55165000D01*
X102325000Y-60086000D02*
X94525000Y-60086000D01*
X96985000Y-56526000D02*
X92083000Y-56526000D01*
X99740000Y-61246000D02*
X97110000Y-61246000D01*
X104657000Y-56886000D02*
X99865000Y-56886000D01*
X96985000Y-56046000D02*
X91969000Y-56046000D01*
X104985000Y-55285000D02*
X91865000Y-55285000D01*
X102533000Y-59926000D02*
X94317000Y-59926000D01*
X103367000Y-59126000D02*
X93483000Y-59126000D01*
X102431000Y-60006000D02*
X94419000Y-60006000D01*
X104962000Y-55526000D02*
X91888000Y-55526000D01*
X104952000Y-55606000D02*
X91898000Y-55606000D01*
X104778000Y-56486000D02*
X99865000Y-56486000D01*
X104789000Y-56446000D02*
X99865000Y-56446000D01*
X103941000Y-58366000D02*
X99865000Y-58366000D01*
X96985000Y-57486000D02*
X92429000Y-57486000D01*
X101979000Y-60326000D02*
X94871000Y-60326000D01*
X104384000Y-57566000D02*
X99865000Y-57566000D01*
X103834000Y-58526000D02*
X99865000Y-58526000D01*
X96985000Y-58206000D02*
X92808000Y-58206000D01*
X96985000Y-56606000D02*
X92105000Y-56606000D01*
X103469000Y-59006000D02*
X93381000Y-59006000D01*
X96985000Y-57366000D02*
X92376000Y-57366000D01*
X104507000Y-57286000D02*
X99865000Y-57286000D01*
X101004000Y-60846000D02*
X95846000Y-60846000D01*
X102944000Y-59566000D02*
X93906000Y-59566000D01*
X103068000Y-59446000D02*
X93782000Y-59446000D01*
X96985000Y-57206000D02*
X92311000Y-57206000D01*
X96985000Y-57646000D02*
X92504000Y-57646000D01*
X104327000Y-57686000D02*
X99865000Y-57686000D01*
X96985000Y-56206000D02*
X92003000Y-56206000D01*
X103992000Y-58286000D02*
X99865000Y-58286000D01*
X100810000Y-60926000D02*
X96040000Y-60926000D01*
X103185000Y-59326000D02*
X93665000Y-59326000D01*
X103402000Y-59086000D02*
X93448000Y-59086000D01*
X96985000Y-57286000D02*
X92343000Y-57286000D01*
X96985000Y-56726000D02*
X92141000Y-56726000D01*
X103749000Y-58646000D02*
X99865000Y-58646000D01*
X104847000Y-56206000D02*
X99865000Y-56206000D01*
X96985000Y-58486000D02*
X92989000Y-58486000D01*
X96985000Y-56646000D02*
X92117000Y-56646000D01*
X104941000Y-55686000D02*
X91909000Y-55686000D01*
X104629000Y-56966000D02*
X99865000Y-56966000D01*
X103888000Y-58446000D02*
X99865000Y-58446000D01*
X104439000Y-57446000D02*
X99865000Y-57446000D01*
X103259000Y-59246000D02*
X93591000Y-59246000D01*
X105002000Y-54965000D02*
X91848000Y-54965000D01*
X103967000Y-58326000D02*
X99865000Y-58326000D01*
X104936000Y-55726000D02*
X91914000Y-55726000D01*
X103778000Y-58606000D02*
X99865000Y-58606000D01*
X104403000Y-57526000D02*
X99865000Y-57526000D01*
X104970000Y-55445000D02*
X91880000Y-55445000D01*
X104896000Y-55966000D02*
X99865000Y-55966000D01*
X104974000Y-55405000D02*
X91876000Y-55405000D01*
X104709000Y-56726000D02*
X99865000Y-56726000D01*
X104991000Y-55205000D02*
X91859000Y-55205000D01*
X104181000Y-57966000D02*
X99865000Y-57966000D01*
X96985000Y-56566000D02*
X92094000Y-56566000D01*
X104307000Y-57726000D02*
X99865000Y-57726000D01*
X96985000Y-56326000D02*
X92031000Y-56326000D01*
X104745000Y-56606000D02*
X99865000Y-56606000D01*
X96985000Y-55886000D02*
X91940000Y-55886000D01*
X102815000Y-59686000D02*
X94035000Y-59686000D01*
X104721000Y-56686000D02*
X99865000Y-56686000D01*
X99275000Y-61326000D02*
X97575000Y-61326000D01*
X96985000Y-56366000D02*
X92041000Y-56366000D01*
X104017000Y-58246000D02*
X99865000Y-58246000D01*
X104819000Y-56326000D02*
X99865000Y-56326000D01*
X104346000Y-57646000D02*
X99865000Y-57646000D01*
X104615000Y-57006000D02*
X99865000Y-57006000D01*
X96985000Y-55926000D02*
X91947000Y-55926000D01*
X104571000Y-57126000D02*
X99865000Y-57126000D01*
X104947000Y-55646000D02*
X91903000Y-55646000D01*
X96985000Y-58566000D02*
X93044000Y-58566000D01*
X104539000Y-57206000D02*
X99865000Y-57206000D01*
X96985000Y-58246000D02*
X92833000Y-58246000D01*
X103503000Y-58966000D02*
X93347000Y-58966000D01*
X96985000Y-56246000D02*
X92012000Y-56246000D01*
X104066000Y-58166000D02*
X99865000Y-58166000D01*
X103027000Y-59486000D02*
X93823000Y-59486000D01*
X104910000Y-55886000D02*
X99865000Y-55886000D01*
X104829000Y-56286000D02*
X99865000Y-56286000D01*
X96985000Y-55846000D02*
X91933000Y-55846000D01*
X96985000Y-56006000D02*
X91962000Y-56006000D01*
X104523000Y-57246000D02*
X99865000Y-57246000D01*
X104683000Y-56806000D02*
X99865000Y-56806000D01*
X100706000Y-60966000D02*
X96144000Y-60966000D01*
X103599000Y-58846000D02*
X93251000Y-58846000D01*
X96985000Y-58686000D02*
X93130000Y-58686000D01*
X96985000Y-56766000D02*
X92154000Y-56766000D01*
X104113000Y-58086000D02*
X99865000Y-58086000D01*
X104696000Y-56766000D02*
X99865000Y-56766000D01*
X105004000Y-54925000D02*
X91846000Y-54925000D01*
X104365000Y-57606000D02*
X99865000Y-57606000D01*
X103806000Y-58566000D02*
X99865000Y-58566000D01*
X100909000Y-60886000D02*
X95941000Y-60886000D01*
X104903000Y-55926000D02*
X99865000Y-55926000D01*
X103535000Y-58926000D02*
X93315000Y-58926000D01*
X105045000Y-54765000D02*
G75*
G03*
X105045000Y-54765000I-6620000J0D01*
G01*
X104985000Y-70114785D02*
X91865000Y-70114785D01*
X96985000Y-70915785D02*
X91977000Y-70915785D01*
X103259000Y-74075785D02*
X93591000Y-74075785D01*
X104615000Y-71835785D02*
X99865000Y-71835785D01*
X102431000Y-74835785D02*
X94419000Y-74835785D01*
X104993000Y-69994785D02*
X91857000Y-69994785D01*
X104856000Y-70995785D02*
X99865000Y-70995785D01*
X104838000Y-71075785D02*
X99865000Y-71075785D01*
X96985000Y-72915785D02*
X92737000Y-72915785D01*
X104696000Y-71595785D02*
X99865000Y-71595785D01*
X96985000Y-71635785D02*
X92167000Y-71635785D01*
X96985000Y-71115785D02*
X92021000Y-71115785D01*
X102325000Y-74915785D02*
X94525000Y-74915785D01*
X96985000Y-71315785D02*
X92072000Y-71315785D01*
X103992000Y-73115785D02*
X99865000Y-73115785D01*
X96985000Y-72995785D02*
X92784000Y-72995785D01*
X96985000Y-72475785D02*
X92504000Y-72475785D01*
X100706000Y-75795785D02*
X96144000Y-75795785D01*
X104778000Y-71315785D02*
X99865000Y-71315785D01*
X104888000Y-70835785D02*
X99865000Y-70835785D01*
X104384000Y-72395785D02*
X99865000Y-72395785D01*
X104507000Y-72115785D02*
X99865000Y-72115785D01*
X104873000Y-70915785D02*
X99865000Y-70915785D01*
X96985000Y-71595785D02*
X92154000Y-71595785D01*
X102100000Y-75075785D02*
X94750000Y-75075785D01*
X96985000Y-73515785D02*
X93130000Y-73515785D01*
X96985000Y-71155785D02*
X92031000Y-71155785D01*
X96985000Y-72195785D02*
X92376000Y-72195785D01*
X104709000Y-71555785D02*
X99865000Y-71555785D01*
X96985000Y-72155785D02*
X92360000Y-72155785D01*
X102815000Y-74515785D02*
X94035000Y-74515785D01*
X102140000Y-62510216D02*
X102140000Y-63810216D01*
X104113000Y-72915785D02*
X99865000Y-72915785D01*
X102724000Y-74595785D02*
X94126000Y-74595785D01*
X96985000Y-71915785D02*
X92264000Y-71915785D01*
X96985000Y-71435785D02*
X92105000Y-71435785D01*
X104136000Y-72875785D02*
X99865000Y-72875785D01*
X100810000Y-75755785D02*
X96040000Y-75755785D01*
X96985000Y-72755785D02*
X92647000Y-72755785D01*
X103720000Y-73515785D02*
X99865000Y-73515785D01*
X96985000Y-72715785D02*
X92626000Y-72715785D01*
X104327000Y-72515785D02*
X99865000Y-72515785D01*
X104930000Y-70595785D02*
X91920000Y-70595785D01*
X105002000Y-69794785D02*
X91848000Y-69794785D01*
X101786000Y-75275785D02*
X95064000Y-75275785D01*
X96985000Y-71875785D02*
X92250000Y-71875785D01*
X103806000Y-73395785D02*
X99865000Y-73395785D01*
X96985000Y-72035785D02*
X92311000Y-72035785D01*
X103185000Y-74155785D02*
X93665000Y-74155785D01*
X96985000Y-71075785D02*
X92012000Y-71075785D01*
X102902000Y-74435785D02*
X93948000Y-74435785D01*
X103222000Y-74115785D02*
X93628000Y-74115785D01*
X104991000Y-70034785D02*
X91859000Y-70034785D01*
X104923000Y-70635785D02*
X91927000Y-70635785D01*
X96985000Y-73075785D02*
X92833000Y-73075785D01*
X104089000Y-72955785D02*
X99865000Y-72955785D01*
X102533000Y-74755785D02*
X94317000Y-74755785D01*
X96985000Y-71955785D02*
X92279000Y-71955785D01*
X96985000Y-72515785D02*
X92523000Y-72515785D01*
X104819000Y-71155785D02*
X99865000Y-71155785D01*
X96985000Y-70675785D02*
X91933000Y-70675785D01*
X96985000Y-72955785D02*
X92761000Y-72955785D01*
X103567000Y-73715785D02*
X93283000Y-73715785D01*
X102986000Y-74355785D02*
X93864000Y-74355785D01*
X104421000Y-72315785D02*
X99865000Y-72315785D01*
X103107000Y-74235785D02*
X93743000Y-74235785D01*
X96985000Y-70755785D02*
X91947000Y-70755785D01*
X96985000Y-71195785D02*
X92041000Y-71195785D01*
X104066000Y-72995785D02*
X99865000Y-72995785D01*
X104203000Y-72755785D02*
X99865000Y-72755785D01*
X105005000Y-69674785D02*
X91845000Y-69674785D01*
X103469000Y-73835785D02*
X93381000Y-73835785D01*
X104941000Y-70515785D02*
X91909000Y-70515785D01*
X99532000Y-76115785D02*
X97318000Y-76115785D01*
X105005000Y-69634785D02*
X91845000Y-69634785D01*
X102770000Y-74555785D02*
X94080000Y-74555785D01*
X96985000Y-71395785D02*
X92094000Y-71395785D01*
X101183000Y-75595785D02*
X95667000Y-75595785D01*
X103861000Y-73315785D02*
X99865000Y-73315785D01*
X102678000Y-74635785D02*
X94172000Y-74635785D01*
X99275000Y-76155785D02*
X97575000Y-76155785D01*
X103332000Y-73995785D02*
X93518000Y-73995785D01*
X102790000Y-63160216D02*
X101490000Y-63160216D01*
X101577000Y-75395785D02*
X95273000Y-75395785D01*
X104346000Y-72475785D02*
X99865000Y-72475785D01*
X104917000Y-70675785D02*
X99865000Y-70675785D01*
X103915000Y-73235785D02*
X99865000Y-73235785D01*
X96985000Y-73235785D02*
X92935000Y-73235785D01*
X104456000Y-72235785D02*
X99865000Y-72235785D01*
X96985000Y-70795785D02*
X91954000Y-70795785D01*
X96985000Y-71715785D02*
X92193000Y-71715785D01*
X96985000Y-70835785D02*
X91962000Y-70835785D01*
X96985000Y-73475785D02*
X93101000Y-73475785D01*
X104809000Y-71195785D02*
X99865000Y-71195785D01*
X102944000Y-74395785D02*
X93906000Y-74395785D01*
X101916000Y-75195785D02*
X94934000Y-75195785D01*
X96985000Y-71355785D02*
X92083000Y-71355785D01*
X101348000Y-75515785D02*
X95502000Y-75515785D01*
X104957000Y-70395785D02*
X91893000Y-70395785D01*
X104657000Y-71715785D02*
X99865000Y-71715785D01*
X104490000Y-72155785D02*
X99865000Y-72155785D01*
X96985000Y-71475785D02*
X92117000Y-71475785D01*
X102630000Y-74675785D02*
X94220000Y-74675785D01*
X100223000Y-75955785D02*
X96627000Y-75955785D01*
X103967000Y-73155785D02*
X99865000Y-73155785D01*
X103503000Y-73795785D02*
X93347000Y-73795785D01*
X100078000Y-75995785D02*
X96772000Y-75995785D01*
X101427000Y-75475785D02*
X95423000Y-75475785D01*
X104789000Y-71275785D02*
X99865000Y-71275785D01*
X104881000Y-70875785D02*
X99865000Y-70875785D01*
X96985000Y-73315785D02*
X92989000Y-73315785D01*
X96985000Y-73155785D02*
X92883000Y-73155785D01*
X96985000Y-71555785D02*
X92141000Y-71555785D01*
X103888000Y-73275785D02*
X99865000Y-73275785D01*
X103367000Y-73955785D02*
X93483000Y-73955785D01*
X96985000Y-72315785D02*
X92429000Y-72315785D01*
X98900000Y-76195785D02*
X97950000Y-76195785D01*
X96985000Y-71795785D02*
X92221000Y-71795785D01*
X104042000Y-73035785D02*
X99865000Y-73035785D01*
X104307000Y-72555785D02*
X99865000Y-72555785D01*
X105004000Y-69714785D02*
X91846000Y-69714785D01*
X103749000Y-73475785D02*
X99865000Y-73475785D01*
X104539000Y-72035785D02*
X99865000Y-72035785D01*
X96985000Y-73275785D02*
X92962000Y-73275785D01*
X101979000Y-75155785D02*
X94871000Y-75155785D01*
X104745000Y-71435785D02*
X99865000Y-71435785D01*
X104245000Y-72675785D02*
X99865000Y-72675785D01*
X96985000Y-72235785D02*
X92394000Y-72235785D01*
X96985000Y-72675785D02*
X92605000Y-72675785D01*
X104847000Y-71035785D02*
X99865000Y-71035785D01*
X96985000Y-72435785D02*
X92485000Y-72435785D01*
X104996000Y-69954785D02*
X91854000Y-69954785D01*
X104988000Y-70074785D02*
X91862000Y-70074785D01*
X104966000Y-70315785D02*
X91884000Y-70315785D01*
X100596000Y-75835785D02*
X96254000Y-75835785D01*
X96985000Y-70995785D02*
X91994000Y-70995785D01*
X102040000Y-75115785D02*
X94810000Y-75115785D01*
X96985000Y-71835785D02*
X92235000Y-71835785D01*
X103778000Y-73435785D02*
X99865000Y-73435785D01*
X101852000Y-75235785D02*
X94998000Y-75235785D01*
X104474000Y-72195785D02*
X99865000Y-72195785D01*
X96985000Y-72395785D02*
X92466000Y-72395785D01*
X104952000Y-70435785D02*
X91898000Y-70435785D01*
X96985000Y-71995785D02*
X92295000Y-71995785D01*
X104571000Y-71955785D02*
X99865000Y-71955785D01*
X102271000Y-74955785D02*
X94579000Y-74955785D01*
X96985000Y-70875785D02*
X91969000Y-70875785D01*
X100356000Y-75915785D02*
X96494000Y-75915785D01*
X105005000Y-69594785D02*
X91845000Y-69594785D01*
X104733000Y-71475785D02*
X99865000Y-71475785D01*
X96985000Y-73435785D02*
X93072000Y-73435785D01*
X104978000Y-70194785D02*
X91872000Y-70194785D01*
X100480000Y-75875785D02*
X96370000Y-75875785D01*
X103436000Y-73875785D02*
X93414000Y-73875785D01*
X96985000Y-71755785D02*
X92207000Y-71755785D01*
X96985000Y-71675785D02*
X92180000Y-71675785D01*
X96985000Y-73035785D02*
X92808000Y-73035785D01*
X104629000Y-71795785D02*
X99865000Y-71795785D01*
X104947000Y-70475785D02*
X91903000Y-70475785D01*
X104756000Y-71395785D02*
X99865000Y-71395785D01*
X104974000Y-70234785D02*
X91876000Y-70234785D01*
X103599000Y-73675785D02*
X93251000Y-73675785D01*
X103834000Y-73355785D02*
X99865000Y-73355785D01*
X102379000Y-74875785D02*
X94471000Y-74875785D01*
X102482000Y-74795785D02*
X94368000Y-74795785D01*
X96985000Y-71035785D02*
X92003000Y-71035785D01*
X104970000Y-70274785D02*
X91880000Y-70274785D01*
X104224000Y-72715785D02*
X99865000Y-72715785D01*
X96985000Y-72835785D02*
X92692000Y-72835785D01*
X96985000Y-73395785D02*
X93044000Y-73395785D01*
X104643000Y-71755785D02*
X99865000Y-71755785D01*
X101095000Y-75635785D02*
X95755000Y-75635785D01*
X105001000Y-69834785D02*
X91849000Y-69834785D01*
X104403000Y-72355785D02*
X99865000Y-72355785D01*
X104982000Y-70154785D02*
X91868000Y-70154785D01*
X102158000Y-75035785D02*
X94692000Y-75035785D01*
X102859000Y-74475785D02*
X93991000Y-74475785D01*
X104864000Y-70955785D02*
X99865000Y-70955785D01*
X103027000Y-74315785D02*
X93823000Y-74315785D01*
X102582000Y-74715785D02*
X94268000Y-74715785D01*
X101267000Y-75555785D02*
X95583000Y-75555785D01*
X96985000Y-73355785D02*
X93016000Y-73355785D01*
X104555000Y-71995785D02*
X99865000Y-71995785D01*
X96985000Y-73115785D02*
X92858000Y-73115785D01*
X104936000Y-70555785D02*
X91914000Y-70555785D01*
X103402000Y-73915785D02*
X93448000Y-73915785D01*
X104287000Y-72595785D02*
X99865000Y-72595785D01*
X104910000Y-70715785D02*
X99865000Y-70715785D01*
X96985000Y-72875785D02*
X92714000Y-72875785D01*
X96985000Y-71515785D02*
X92129000Y-71515785D01*
X96985000Y-72555785D02*
X92543000Y-72555785D01*
X96985000Y-72115785D02*
X92343000Y-72115785D01*
X99740000Y-76075785D02*
X97110000Y-76075785D01*
X103068000Y-74275785D02*
X93782000Y-74275785D01*
X104670000Y-71675785D02*
X99865000Y-71675785D01*
X104767000Y-71355785D02*
X99865000Y-71355785D01*
X101718000Y-75315785D02*
X95132000Y-75315785D01*
X104896000Y-70795785D02*
X99865000Y-70795785D01*
X104962000Y-70355785D02*
X91888000Y-70355785D01*
X96985000Y-72355785D02*
X92447000Y-72355785D01*
X105004000Y-69754785D02*
X91846000Y-69754785D01*
X96985000Y-71235785D02*
X92051000Y-71235785D01*
X104439000Y-72275785D02*
X99865000Y-72275785D01*
X103630000Y-73635785D02*
X93220000Y-73635785D01*
X103296000Y-74035785D02*
X93554000Y-74035785D01*
X96985000Y-72075785D02*
X92327000Y-72075785D01*
X104181000Y-72795785D02*
X99865000Y-72795785D01*
X104266000Y-72635785D02*
X99865000Y-72635785D01*
X96985000Y-73195785D02*
X92909000Y-73195785D01*
X104903000Y-70755785D02*
X99865000Y-70755785D01*
X96985000Y-70955785D02*
X91986000Y-70955785D01*
X104829000Y-71115785D02*
X99865000Y-71115785D01*
X100909000Y-75715785D02*
X95941000Y-75715785D01*
X104365000Y-72435785D02*
X99865000Y-72435785D01*
X101648000Y-75355785D02*
X95202000Y-75355785D01*
X96985000Y-70715785D02*
X91940000Y-70715785D01*
X103660000Y-73595785D02*
X93190000Y-73595785D01*
X103941000Y-73195785D02*
X99865000Y-73195785D01*
X101004000Y-75675785D02*
X95846000Y-75675785D01*
X104683000Y-71635785D02*
X99865000Y-71635785D01*
X104586000Y-71915785D02*
X99865000Y-71915785D01*
X105000000Y-69874785D02*
X91850000Y-69874785D01*
X104721000Y-71515785D02*
X99865000Y-71515785D01*
X103690000Y-73555785D02*
X93160000Y-73555785D01*
X103146000Y-74195785D02*
X93704000Y-74195785D01*
X104523000Y-72075785D02*
X99865000Y-72075785D01*
X96985000Y-72275785D02*
X92411000Y-72275785D01*
X96985000Y-71275785D02*
X92061000Y-71275785D01*
X96985000Y-72795785D02*
X92669000Y-72795785D01*
X103535000Y-73755785D02*
X93315000Y-73755785D01*
X104600000Y-71875785D02*
X99865000Y-71875785D01*
X96985000Y-72595785D02*
X92563000Y-72595785D01*
X104799000Y-71235785D02*
X99865000Y-71235785D01*
X102215000Y-74995785D02*
X94635000Y-74995785D01*
X96985000Y-72635785D02*
X92584000Y-72635785D01*
X104998000Y-69914785D02*
X91852000Y-69914785D01*
X99919000Y-76035785D02*
X96931000Y-76035785D01*
X101503000Y-75435785D02*
X95347000Y-75435785D01*
X104158000Y-72835785D02*
X99865000Y-72835785D01*
X104017000Y-73075785D02*
X99865000Y-73075785D01*
X105045000Y-69594785D02*
G75*
G03*
X105045000Y-69594785I-6620000J0D01*
G01*
X47460000Y-62400000D02*
X49860000Y-62400000D01*
X47460000Y-64800000D02*
X47460000Y-62400000D01*
X49860000Y-62400000D02*
X49860000Y-64800000D01*
X49860000Y-64800000D02*
X47460000Y-64800000D01*
%LPC*%
D12*
X147305000Y-53770000D03*
D13*
X144765000Y-53770000D03*
X142225000Y-53770000D03*
D14*
X53340000Y-86360000D03*
D12*
X147305000Y-58850000D03*
D13*
X144765000Y-58850000D03*
X142225000Y-58850000D03*
D15*
X22860000Y-87630000D03*
D14*
X58420000Y-86360000D03*
D16*
X98425000Y-82745000D03*
D17*
X98425000Y-87745000D03*
D16*
X114300000Y-52265000D03*
D17*
X114300000Y-57265000D03*
D15*
X148590000Y-87630000D03*
D16*
X114300000Y-82745000D03*
D17*
X114300000Y-87745000D03*
D14*
X48660000Y-43360000D03*
X81280000Y-67280000D03*
D18*
X81280000Y-72280000D03*
X86280000Y-72280000D03*
X86280000Y-67280000D03*
D14*
X68660000Y-48360000D03*
X68660000Y-43360000D03*
D19*
X128052500Y-55880000D03*
X131027500Y-55880000D03*
D20*
X31810000Y-33590000D03*
X39310000Y-34990000D03*
D17*
X83820000Y-88900000D03*
D21*
X88900000Y-88900000D03*
D12*
X129540000Y-60960000D03*
D13*
X132080000Y-60960000D03*
D12*
X142240000Y-43180000D03*
D13*
X142240000Y-40640000D03*
X142240000Y-38100000D03*
D14*
X46990000Y-86360000D03*
D19*
X128052500Y-68580000D03*
X131027500Y-68580000D03*
D22*
X38100000Y-39530000D03*
D23*
X38100000Y-59530000D03*
D12*
X147305000Y-69010000D03*
D13*
X144765000Y-69010000D03*
X142225000Y-69010000D03*
D12*
X142240000Y-81280000D03*
D13*
X142240000Y-83820000D03*
X142240000Y-86360000D03*
D17*
X83820000Y-81280000D03*
D21*
X88900000Y-81280000D03*
D22*
X30480000Y-39530000D03*
D23*
X30480000Y-59530000D03*
D24*
X124460000Y-72670000D03*
X124460000Y-69570000D03*
D17*
X83780000Y-43180000D03*
D21*
X88860000Y-43180000D03*
D17*
X83820000Y-35560000D03*
D21*
X88900000Y-35560000D03*
D15*
X22860000Y-36830000D03*
D12*
X147305000Y-48690000D03*
D13*
X144765000Y-48690000D03*
X142225000Y-48690000D03*
D25*
X132080000Y-78740000D03*
D12*
X129540000Y-64770000D03*
D13*
X132080000Y-64770000D03*
D14*
X39370000Y-86360000D03*
D26*
X91440000Y-63266000D03*
X91440000Y-60726000D03*
D14*
X68660000Y-58360000D03*
D15*
X148590000Y-36830000D03*
D12*
X147305000Y-63930000D03*
D13*
X144765000Y-63930000D03*
X142225000Y-63930000D03*
D27*
X134060000Y-55880000D03*
X137160000Y-55880000D03*
D16*
X114300000Y-67094785D03*
D17*
X114300000Y-72094785D03*
D28*
X30480000Y-79470000D03*
X30480000Y-86740000D03*
D29*
X30480000Y-63120000D03*
X30480000Y-70390000D03*
D16*
X114300000Y-37025000D03*
D17*
X114300000Y-42025000D03*
D30*
X134620000Y-73660000D03*
D31*
X132080000Y-73660000D03*
X129540000Y-73660000D03*
D25*
X132080000Y-45720000D03*
D30*
X129540000Y-50800000D03*
D31*
X132080000Y-50800000D03*
X134620000Y-50800000D03*
D12*
X147320000Y-73660000D03*
D13*
X144780000Y-73660000D03*
X142240000Y-73660000D03*
D14*
X68660000Y-63360000D03*
D16*
X98425000Y-37025000D03*
D17*
X98425000Y-42025000D03*
D16*
X98425000Y-52265000D03*
D17*
X98425000Y-57265000D03*
D16*
X98425000Y-67094785D03*
D17*
X98425000Y-72094785D03*
D14*
X48660000Y-63600000D03*
M02*
