%TF.GenerationSoftware,KiCad,Pcbnew,(6.0.10)*%
%TF.CreationDate,2023-04-08T13:34:01+03:00*%
%TF.ProjectId,DelSol_PSU,44656c53-6f6c-45f5-9053-552e6b696361,rev?*%
%TF.SameCoordinates,Original*%
%TF.FileFunction,Legend,Bot*%
%TF.FilePolarity,Positive*%
%FSLAX46Y46*%
G04 Gerber Fmt 4.6, Leading zero omitted, Abs format (unit mm)*
G04 Created by KiCad (PCBNEW (6.0.10)) date 2023-04-08 13:34:01*
%MOMM*%
%LPD*%
G01*
G04 APERTURE LIST*
G04 Aperture macros list*
%AMRoundRect*
0 Rectangle with rounded corners*
0 $1 Rounding radius*
0 $2 $3 $4 $5 $6 $7 $8 $9 X,Y pos of 4 corners*
0 Add a 4 corners polygon primitive as box body*
4,1,4,$2,$3,$4,$5,$6,$7,$8,$9,$2,$3,0*
0 Add four circle primitives for the rounded corners*
1,1,$1+$1,$2,$3*
1,1,$1+$1,$4,$5*
1,1,$1+$1,$6,$7*
1,1,$1+$1,$8,$9*
0 Add four rect primitives between the rounded corners*
20,1,$1+$1,$2,$3,$4,$5,0*
20,1,$1+$1,$4,$5,$6,$7,0*
20,1,$1+$1,$6,$7,$8,$9,0*
20,1,$1+$1,$8,$9,$2,$3,0*%
%AMOutline4P*
0 Free polygon, 4 corners , with rotation*
0 The origin of the aperture is its center*
0 number of corners: always 4*
0 $1 to $8 corner X, Y*
0 $9 Rotation angle, in degrees counterclockwise*
0 create outline with 4 corners*
4,1,4,$1,$2,$3,$4,$5,$6,$7,$8,$1,$2,$9*%
G04 Aperture macros list end*
%ADD10C,0.150000*%
%ADD11C,0.120000*%
%ADD12R,1.700000X1.700000*%
%ADD13O,1.700000X1.700000*%
%ADD14R,2.000000X2.000000*%
%ADD15C,3.200000*%
%ADD16R,2.400000X2.400000*%
%ADD17C,2.400000*%
%ADD18O,2.000000X2.000000*%
%ADD19C,1.800000*%
%ADD20O,2.400000X2.400000*%
%ADD21C,1.600000*%
%ADD22O,1.600000X1.600000*%
%ADD23O,3.780000X2.600000*%
%ADD24C,1.400000*%
%ADD25RoundRect,0.500000X0.900000X-0.500000X0.900000X0.500000X-0.900000X0.500000X-0.900000X-0.500000X0*%
%ADD26O,2.800000X2.000000*%
%ADD27R,1.905000X2.000000*%
%ADD28O,1.905000X2.000000*%
%ADD29Outline4P,-1.800000X-1.150000X1.800000X-0.550000X1.800000X0.550000X-1.800000X1.150000X270.000000*%
%ADD30Outline4P,-1.800000X-1.150000X1.800000X-0.550000X1.800000X0.550000X-1.800000X1.150000X90.000000*%
%ADD31RoundRect,0.250000X-0.275000X0.400000X-0.275000X-0.400000X0.275000X-0.400000X0.275000X0.400000X0*%
%ADD32Outline4P,-1.800000X-1.150000X1.800000X-0.550000X1.800000X0.550000X-1.800000X1.150000X0.000000*%
%ADD33Outline4P,-1.800000X-1.150000X1.800000X-0.550000X1.800000X0.550000X-1.800000X1.150000X180.000000*%
%ADD34RoundRect,0.250000X0.475000X-0.337500X0.475000X0.337500X-0.475000X0.337500X-0.475000X-0.337500X0*%
%ADD35RoundRect,0.250000X-0.475000X0.337500X-0.475000X-0.337500X0.475000X-0.337500X0.475000X0.337500X0*%
%ADD36RoundRect,0.250000X0.337500X0.475000X-0.337500X0.475000X-0.337500X-0.475000X0.337500X-0.475000X0*%
%ADD37R,1.300000X1.500000*%
%ADD38RoundRect,0.250000X-0.337500X-0.475000X0.337500X-0.475000X0.337500X0.475000X-0.337500X0.475000X0*%
G04 APERTURE END LIST*
D10*
X86740952Y-47061428D02*
X85979047Y-47061428D01*
X81660952Y-47061428D02*
X80899047Y-47061428D01*
X81280000Y-47442380D02*
X81280000Y-46680476D01*
X88892380Y-70381904D02*
X87892380Y-70381904D01*
X87892380Y-70620000D01*
X87940000Y-70762857D01*
X88035238Y-70858095D01*
X88130476Y-70905714D01*
X88320952Y-70953333D01*
X88463809Y-70953333D01*
X88654285Y-70905714D01*
X88749523Y-70858095D01*
X88844761Y-70762857D01*
X88892380Y-70620000D01*
X88892380Y-70381904D01*
X87892380Y-71286666D02*
X87892380Y-71953333D01*
X88892380Y-71524761D01*
X118157142Y-83177142D02*
X118204761Y-83129523D01*
X118252380Y-82986666D01*
X118252380Y-82891428D01*
X118204761Y-82748571D01*
X118109523Y-82653333D01*
X118014285Y-82605714D01*
X117823809Y-82558095D01*
X117680952Y-82558095D01*
X117490476Y-82605714D01*
X117395238Y-82653333D01*
X117300000Y-82748571D01*
X117252380Y-82891428D01*
X117252380Y-82986666D01*
X117300000Y-83129523D01*
X117347619Y-83177142D01*
X118252380Y-84129523D02*
X118252380Y-83558095D01*
X118252380Y-83843809D02*
X117252380Y-83843809D01*
X117395238Y-83748571D01*
X117490476Y-83653333D01*
X117538095Y-83558095D01*
X117252380Y-84986666D02*
X117252380Y-84796190D01*
X117300000Y-84700952D01*
X117347619Y-84653333D01*
X117490476Y-84558095D01*
X117680952Y-84510476D01*
X118061904Y-84510476D01*
X118157142Y-84558095D01*
X118204761Y-84605714D01*
X118252380Y-84700952D01*
X118252380Y-84891428D01*
X118204761Y-84986666D01*
X118157142Y-85034285D01*
X118061904Y-85081904D01*
X117823809Y-85081904D01*
X117728571Y-85034285D01*
X117680952Y-84986666D01*
X117633333Y-84891428D01*
X117633333Y-84700952D01*
X117680952Y-84605714D01*
X117728571Y-84558095D01*
X117823809Y-84510476D01*
X132458095Y-41552380D02*
X132458095Y-40552380D01*
X132220000Y-40552380D01*
X132077142Y-40600000D01*
X131981904Y-40695238D01*
X131934285Y-40790476D01*
X131886666Y-40980952D01*
X131886666Y-41123809D01*
X131934285Y-41314285D01*
X131981904Y-41409523D01*
X132077142Y-41504761D01*
X132220000Y-41552380D01*
X132458095Y-41552380D01*
X130934285Y-41552380D02*
X131505714Y-41552380D01*
X131220000Y-41552380D02*
X131220000Y-40552380D01*
X131315238Y-40695238D01*
X131410476Y-40790476D01*
X131505714Y-40838095D01*
X74427142Y-60417142D02*
X74474761Y-60369523D01*
X74522380Y-60226666D01*
X74522380Y-60131428D01*
X74474761Y-59988571D01*
X74379523Y-59893333D01*
X74284285Y-59845714D01*
X74093809Y-59798095D01*
X73950952Y-59798095D01*
X73760476Y-59845714D01*
X73665238Y-59893333D01*
X73570000Y-59988571D01*
X73522380Y-60131428D01*
X73522380Y-60226666D01*
X73570000Y-60369523D01*
X73617619Y-60417142D01*
X74522380Y-61369523D02*
X74522380Y-60798095D01*
X74522380Y-61083809D02*
X73522380Y-61083809D01*
X73665238Y-60988571D01*
X73760476Y-60893333D01*
X73808095Y-60798095D01*
X73855714Y-62226666D02*
X74522380Y-62226666D01*
X73474761Y-61988571D02*
X74189047Y-61750476D01*
X74189047Y-62369523D01*
X118157142Y-39997142D02*
X118204761Y-39949523D01*
X118252380Y-39806666D01*
X118252380Y-39711428D01*
X118204761Y-39568571D01*
X118109523Y-39473333D01*
X118014285Y-39425714D01*
X117823809Y-39378095D01*
X117680952Y-39378095D01*
X117490476Y-39425714D01*
X117395238Y-39473333D01*
X117300000Y-39568571D01*
X117252380Y-39711428D01*
X117252380Y-39806666D01*
X117300000Y-39949523D01*
X117347619Y-39997142D01*
X118252380Y-40949523D02*
X118252380Y-40378095D01*
X118252380Y-40663809D02*
X117252380Y-40663809D01*
X117395238Y-40568571D01*
X117490476Y-40473333D01*
X117538095Y-40378095D01*
X117252380Y-41854285D02*
X117252380Y-41378095D01*
X117728571Y-41330476D01*
X117680952Y-41378095D01*
X117633333Y-41473333D01*
X117633333Y-41711428D01*
X117680952Y-41806666D01*
X117728571Y-41854285D01*
X117823809Y-41901904D01*
X118061904Y-41901904D01*
X118157142Y-41854285D01*
X118204761Y-41806666D01*
X118252380Y-41711428D01*
X118252380Y-41473333D01*
X118204761Y-41378095D01*
X118157142Y-41330476D01*
X128217142Y-68413333D02*
X128264761Y-68365714D01*
X128312380Y-68222857D01*
X128312380Y-68127619D01*
X128264761Y-67984761D01*
X128169523Y-67889523D01*
X128074285Y-67841904D01*
X127883809Y-67794285D01*
X127740952Y-67794285D01*
X127550476Y-67841904D01*
X127455238Y-67889523D01*
X127360000Y-67984761D01*
X127312380Y-68127619D01*
X127312380Y-68222857D01*
X127360000Y-68365714D01*
X127407619Y-68413333D01*
X127740952Y-68984761D02*
X127693333Y-68889523D01*
X127645714Y-68841904D01*
X127550476Y-68794285D01*
X127502857Y-68794285D01*
X127407619Y-68841904D01*
X127360000Y-68889523D01*
X127312380Y-68984761D01*
X127312380Y-69175238D01*
X127360000Y-69270476D01*
X127407619Y-69318095D01*
X127502857Y-69365714D01*
X127550476Y-69365714D01*
X127645714Y-69318095D01*
X127693333Y-69270476D01*
X127740952Y-69175238D01*
X127740952Y-68984761D01*
X127788571Y-68889523D01*
X127836190Y-68841904D01*
X127931428Y-68794285D01*
X128121904Y-68794285D01*
X128217142Y-68841904D01*
X128264761Y-68889523D01*
X128312380Y-68984761D01*
X128312380Y-69175238D01*
X128264761Y-69270476D01*
X128217142Y-69318095D01*
X128121904Y-69365714D01*
X127931428Y-69365714D01*
X127836190Y-69318095D01*
X127788571Y-69270476D01*
X127740952Y-69175238D01*
X74427142Y-45177142D02*
X74474761Y-45129523D01*
X74522380Y-44986666D01*
X74522380Y-44891428D01*
X74474761Y-44748571D01*
X74379523Y-44653333D01*
X74284285Y-44605714D01*
X74093809Y-44558095D01*
X73950952Y-44558095D01*
X73760476Y-44605714D01*
X73665238Y-44653333D01*
X73570000Y-44748571D01*
X73522380Y-44891428D01*
X73522380Y-44986666D01*
X73570000Y-45129523D01*
X73617619Y-45177142D01*
X74522380Y-46129523D02*
X74522380Y-45558095D01*
X74522380Y-45843809D02*
X73522380Y-45843809D01*
X73665238Y-45748571D01*
X73760476Y-45653333D01*
X73808095Y-45558095D01*
X73522380Y-46462857D02*
X73522380Y-47081904D01*
X73903333Y-46748571D01*
X73903333Y-46891428D01*
X73950952Y-46986666D01*
X73998571Y-47034285D01*
X74093809Y-47081904D01*
X74331904Y-47081904D01*
X74427142Y-47034285D01*
X74474761Y-46986666D01*
X74522380Y-46891428D01*
X74522380Y-46605714D01*
X74474761Y-46510476D01*
X74427142Y-46462857D01*
X134342142Y-68413333D02*
X134389761Y-68365714D01*
X134437380Y-68222857D01*
X134437380Y-68127619D01*
X134389761Y-67984761D01*
X134294523Y-67889523D01*
X134199285Y-67841904D01*
X134008809Y-67794285D01*
X133865952Y-67794285D01*
X133675476Y-67841904D01*
X133580238Y-67889523D01*
X133485000Y-67984761D01*
X133437380Y-68127619D01*
X133437380Y-68222857D01*
X133485000Y-68365714D01*
X133532619Y-68413333D01*
X133437380Y-68746666D02*
X133437380Y-69413333D01*
X134437380Y-68984761D01*
X132458095Y-89812380D02*
X132458095Y-88812380D01*
X132220000Y-88812380D01*
X132077142Y-88860000D01*
X131981904Y-88955238D01*
X131934285Y-89050476D01*
X131886666Y-89240952D01*
X131886666Y-89383809D01*
X131934285Y-89574285D01*
X131981904Y-89669523D01*
X132077142Y-89764761D01*
X132220000Y-89812380D01*
X132458095Y-89812380D01*
X131315238Y-89240952D02*
X131410476Y-89193333D01*
X131458095Y-89145714D01*
X131505714Y-89050476D01*
X131505714Y-89002857D01*
X131458095Y-88907619D01*
X131410476Y-88860000D01*
X131315238Y-88812380D01*
X131124761Y-88812380D01*
X131029523Y-88860000D01*
X130981904Y-88907619D01*
X130934285Y-89002857D01*
X130934285Y-89050476D01*
X130981904Y-89145714D01*
X131029523Y-89193333D01*
X131124761Y-89240952D01*
X131315238Y-89240952D01*
X131410476Y-89288571D01*
X131458095Y-89336190D01*
X131505714Y-89431428D01*
X131505714Y-89621904D01*
X131458095Y-89717142D01*
X131410476Y-89764761D01*
X131315238Y-89812380D01*
X131124761Y-89812380D01*
X131029523Y-89764761D01*
X130981904Y-89717142D01*
X130934285Y-89621904D01*
X130934285Y-89431428D01*
X130981904Y-89336190D01*
X131029523Y-89288571D01*
X131124761Y-89240952D01*
X137961666Y-53697142D02*
X138009285Y-53744761D01*
X138152142Y-53792380D01*
X138247380Y-53792380D01*
X138390238Y-53744761D01*
X138485476Y-53649523D01*
X138533095Y-53554285D01*
X138580714Y-53363809D01*
X138580714Y-53220952D01*
X138533095Y-53030476D01*
X138485476Y-52935238D01*
X138390238Y-52840000D01*
X138247380Y-52792380D01*
X138152142Y-52792380D01*
X138009285Y-52840000D01*
X137961666Y-52887619D01*
X137104523Y-53125714D02*
X137104523Y-53792380D01*
X137342619Y-52744761D02*
X137580714Y-53459047D01*
X136961666Y-53459047D01*
X79172380Y-52601904D02*
X78172380Y-52601904D01*
X78172380Y-52840000D01*
X78220000Y-52982857D01*
X78315238Y-53078095D01*
X78410476Y-53125714D01*
X78600952Y-53173333D01*
X78743809Y-53173333D01*
X78934285Y-53125714D01*
X79029523Y-53078095D01*
X79124761Y-52982857D01*
X79172380Y-52840000D01*
X79172380Y-52601904D01*
X78172380Y-53506666D02*
X78172380Y-54125714D01*
X78553333Y-53792380D01*
X78553333Y-53935238D01*
X78600952Y-54030476D01*
X78648571Y-54078095D01*
X78743809Y-54125714D01*
X78981904Y-54125714D01*
X79077142Y-54078095D01*
X79124761Y-54030476D01*
X79172380Y-53935238D01*
X79172380Y-53649523D01*
X79124761Y-53554285D01*
X79077142Y-53506666D01*
X91432380Y-50061904D02*
X90432380Y-50061904D01*
X90432380Y-50300000D01*
X90480000Y-50442857D01*
X90575238Y-50538095D01*
X90670476Y-50585714D01*
X90860952Y-50633333D01*
X91003809Y-50633333D01*
X91194285Y-50585714D01*
X91289523Y-50538095D01*
X91384761Y-50442857D01*
X91432380Y-50300000D01*
X91432380Y-50061904D01*
X90765714Y-51490476D02*
X91432380Y-51490476D01*
X90384761Y-51252380D02*
X91099047Y-51014285D01*
X91099047Y-51633333D01*
X126531666Y-53697142D02*
X126579285Y-53744761D01*
X126722142Y-53792380D01*
X126817380Y-53792380D01*
X126960238Y-53744761D01*
X127055476Y-53649523D01*
X127103095Y-53554285D01*
X127150714Y-53363809D01*
X127150714Y-53220952D01*
X127103095Y-53030476D01*
X127055476Y-52935238D01*
X126960238Y-52840000D01*
X126817380Y-52792380D01*
X126722142Y-52792380D01*
X126579285Y-52840000D01*
X126531666Y-52887619D01*
X126198333Y-52792380D02*
X125579285Y-52792380D01*
X125912619Y-53173333D01*
X125769761Y-53173333D01*
X125674523Y-53220952D01*
X125626904Y-53268571D01*
X125579285Y-53363809D01*
X125579285Y-53601904D01*
X125626904Y-53697142D01*
X125674523Y-53744761D01*
X125769761Y-53792380D01*
X126055476Y-53792380D01*
X126150714Y-53744761D01*
X126198333Y-53697142D01*
D11*
X89290000Y-66270000D02*
X93590000Y-66270000D01*
X93590000Y-66270000D02*
X93590000Y-73820000D01*
X89290000Y-66270000D02*
X89290000Y-73820000D01*
X118595000Y-81935000D02*
X120165000Y-81935000D01*
X120165000Y-81935000D02*
X120165000Y-84820000D01*
X118595000Y-84820000D02*
X118595000Y-81935000D01*
X126870000Y-40250000D02*
X126870000Y-35950000D01*
X126870000Y-35950000D02*
X134420000Y-35950000D01*
X126870000Y-40250000D02*
X134420000Y-40250000D01*
X71655000Y-61321252D02*
X71655000Y-60798748D01*
X73125000Y-61321252D02*
X73125000Y-60798748D01*
X118595000Y-41640000D02*
X118595000Y-38755000D01*
X118595000Y-38755000D02*
X120165000Y-38755000D01*
X120165000Y-38755000D02*
X120165000Y-41640000D01*
X128805000Y-68318748D02*
X128805000Y-68841252D01*
X130275000Y-68318748D02*
X130275000Y-68841252D01*
X71655000Y-46081252D02*
X71655000Y-45558748D01*
X73125000Y-46081252D02*
X73125000Y-45558748D01*
X132815000Y-68318748D02*
X132815000Y-68841252D01*
X131345000Y-68318748D02*
X131345000Y-68841252D01*
X126870000Y-88510000D02*
X126870000Y-84210000D01*
X126870000Y-88510000D02*
X134420000Y-88510000D01*
X126870000Y-84210000D02*
X134420000Y-84210000D01*
X134881252Y-54075000D02*
X134358748Y-54075000D01*
X134881252Y-52605000D02*
X134358748Y-52605000D01*
X87280000Y-50055000D02*
X88070000Y-50055000D01*
X88070000Y-50055000D02*
X88070000Y-56625000D01*
X79570000Y-50055000D02*
X80360000Y-50055000D01*
X79570000Y-50065000D02*
X79570000Y-56615000D01*
X88070000Y-56625000D02*
X87280000Y-56625000D01*
X82180000Y-56625000D02*
X85460000Y-56625000D01*
X82180000Y-50055000D02*
X85460000Y-50055000D01*
X80360000Y-56625000D02*
X79570000Y-56625000D01*
X80360000Y-50055000D02*
X80360000Y-48200000D01*
X96130000Y-45950000D02*
X96130000Y-53500000D01*
X91830000Y-45950000D02*
X91830000Y-53500000D01*
X91830000Y-45950000D02*
X96130000Y-45950000D01*
X129278748Y-54075000D02*
X129801252Y-54075000D01*
X129278748Y-52605000D02*
X129801252Y-52605000D01*
%LPC*%
D12*
X147305000Y-53770000D03*
D13*
X144765000Y-53770000D03*
X142225000Y-53770000D03*
D14*
X53340000Y-86360000D03*
D12*
X147305000Y-58850000D03*
D13*
X144765000Y-58850000D03*
X142225000Y-58850000D03*
D15*
X22860000Y-87630000D03*
D14*
X58420000Y-86360000D03*
D16*
X98425000Y-82745000D03*
D17*
X98425000Y-87745000D03*
D16*
X114300000Y-52265000D03*
D17*
X114300000Y-57265000D03*
D15*
X148590000Y-87630000D03*
D16*
X114300000Y-82745000D03*
D17*
X114300000Y-87745000D03*
D14*
X48660000Y-43360000D03*
X81280000Y-67280000D03*
D18*
X81280000Y-72280000D03*
X86280000Y-72280000D03*
X86280000Y-67280000D03*
D14*
X68660000Y-48360000D03*
X68660000Y-43360000D03*
D19*
X31810000Y-33590000D03*
X39310000Y-34990000D03*
D17*
X83820000Y-88900000D03*
D20*
X88900000Y-88900000D03*
D12*
X129540000Y-60960000D03*
D13*
X132080000Y-60960000D03*
D12*
X142240000Y-43180000D03*
D13*
X142240000Y-40640000D03*
X142240000Y-38100000D03*
D14*
X46990000Y-86360000D03*
D21*
X38100000Y-39530000D03*
D22*
X38100000Y-59530000D03*
D12*
X147305000Y-69010000D03*
D13*
X144765000Y-69010000D03*
X142225000Y-69010000D03*
D12*
X142240000Y-81280000D03*
D13*
X142240000Y-83820000D03*
X142240000Y-86360000D03*
D17*
X83820000Y-81280000D03*
D20*
X88900000Y-81280000D03*
D21*
X30480000Y-39530000D03*
D22*
X30480000Y-59530000D03*
D17*
X83780000Y-43180000D03*
D20*
X88860000Y-43180000D03*
D17*
X83820000Y-35560000D03*
D20*
X88900000Y-35560000D03*
D15*
X22860000Y-36830000D03*
D12*
X147305000Y-48690000D03*
D13*
X144765000Y-48690000D03*
X142225000Y-48690000D03*
D23*
X132080000Y-78740000D03*
D12*
X129540000Y-64770000D03*
D13*
X132080000Y-64770000D03*
D14*
X39370000Y-86360000D03*
D24*
X91440000Y-63266000D03*
X91440000Y-60726000D03*
D14*
X68660000Y-58360000D03*
D15*
X148590000Y-36830000D03*
D12*
X147305000Y-63930000D03*
D13*
X144765000Y-63930000D03*
X142225000Y-63930000D03*
D16*
X114300000Y-67094785D03*
D17*
X114300000Y-72094785D03*
D25*
X30480000Y-79470000D03*
X30480000Y-86740000D03*
D26*
X30480000Y-63120000D03*
X30480000Y-70390000D03*
D16*
X114300000Y-37025000D03*
D17*
X114300000Y-42025000D03*
D27*
X134620000Y-73660000D03*
D28*
X132080000Y-73660000D03*
X129540000Y-73660000D03*
D23*
X132080000Y-45720000D03*
D27*
X129540000Y-50800000D03*
D28*
X132080000Y-50800000D03*
X134620000Y-50800000D03*
D12*
X147320000Y-73660000D03*
D13*
X144780000Y-73660000D03*
X142240000Y-73660000D03*
D14*
X68660000Y-63360000D03*
D16*
X98425000Y-37025000D03*
D17*
X98425000Y-42025000D03*
D16*
X98425000Y-52265000D03*
D17*
X98425000Y-57265000D03*
D16*
X98425000Y-67094785D03*
D17*
X98425000Y-72094785D03*
D14*
X48660000Y-63600000D03*
D29*
X91440000Y-68220000D03*
D30*
X91440000Y-74020000D03*
D31*
X119380000Y-82845000D03*
X119380000Y-84795000D03*
D32*
X128820000Y-38100000D03*
D33*
X134620000Y-38100000D03*
D34*
X72390000Y-62097500D03*
X72390000Y-60022500D03*
D31*
X119380000Y-39665000D03*
X119380000Y-41615000D03*
D35*
X129540000Y-67542500D03*
X129540000Y-69617500D03*
D34*
X72390000Y-46857500D03*
X72390000Y-44782500D03*
D35*
X132080000Y-67542500D03*
X132080000Y-69617500D03*
D32*
X128820000Y-86360000D03*
D33*
X134620000Y-86360000D03*
D36*
X135657500Y-53340000D03*
X133582500Y-53340000D03*
D37*
X81270000Y-48890000D03*
X86370000Y-48890000D03*
X86370000Y-57790000D03*
X81270000Y-57790000D03*
D29*
X93980000Y-47900000D03*
D30*
X93980000Y-53700000D03*
D38*
X128502500Y-53340000D03*
X130577500Y-53340000D03*
M02*
