M48
; DRILL file {KiCad (6.0.10)} date Sat Apr  8 13:33:59 2023
; FORMAT={-:-/ absolute / inch / decimal}
; #@! TF.CreationDate,2023-04-08T13:33:59+03:00
; #@! TF.GenerationSoftware,Kicad,Pcbnew,(6.0.10)
; #@! TF.FileFunction,Plated,1,2,PTH
FMAT,2
INCH
; #@! TA.AperFunction,Plated,PTH,ComponentDrill
T1C0.0315
; #@! TA.AperFunction,Plated,PTH,ComponentDrill
T2C0.0394
; #@! TA.AperFunction,Plated,PTH,ComponentDrill
T3C0.0402
; #@! TA.AperFunction,Plated,PTH,ComponentDrill
T4C0.0433
; #@! TA.AperFunction,Plated,PTH,ComponentDrill
T5C0.0472
%
G90
G05
T1
X1.2Y-1.5563
X1.2Y-2.3437
X1.2524Y-1.3224
X1.5Y-1.5563
X1.5Y-2.3437
X1.5476Y-1.3776
X3.6Y-2.3908
X3.6Y-2.4908
T2
X1.55Y-3.4
X1.85Y-3.4
X1.9157Y-1.7071
X1.9157Y-2.5039
X2.1Y-3.4
X2.3Y-3.4
X2.7031Y-1.7071
X2.7031Y-1.9039
X2.7031Y-2.2976
X2.7031Y-2.4945
X3.2Y-2.6488
X3.2Y-2.8457
X3.3969Y-2.6488
X3.3969Y-2.8457
X5.1Y-2.4
X5.1Y-2.55
X5.2Y-2.4
X5.2Y-2.55
X5.5994Y-1.9169
X5.5994Y-2.1169
X5.5994Y-2.3169
X5.5994Y-2.5169
X5.5994Y-2.7169
X5.6Y-1.5
X5.6Y-1.6
X5.6Y-1.7
X5.6Y-2.9
X5.6Y-3.2
X5.6Y-3.3
X5.6Y-3.4
X5.6994Y-1.9169
X5.6994Y-2.1169
X5.6994Y-2.3169
X5.6994Y-2.5169
X5.6994Y-2.7169
X5.7Y-2.9
X5.7994Y-1.9169
X5.7994Y-2.1169
X5.7994Y-2.3169
X5.7994Y-2.5169
X5.7994Y-2.7169
X5.8Y-2.9
T4
X5.1Y-2.0
X5.1Y-2.9
X5.2Y-2.0
X5.2Y-2.9
X5.3Y-2.0
X5.3Y-2.9
T5
X3.2984Y-1.7
X3.3Y-1.4
X3.3Y-3.2
X3.3Y-3.5
X3.4984Y-1.7
X3.5Y-1.4
X3.5Y-3.2
X3.5Y-3.5
X3.875Y-1.4577
X3.875Y-1.6545
X3.875Y-2.0577
X3.875Y-2.2545
X3.875Y-2.6415
X3.875Y-2.8384
X3.875Y-3.2577
X3.875Y-3.4545
X4.5Y-1.4577
X4.5Y-1.6545
X4.5Y-2.0577
X4.5Y-2.2545
X4.5Y-2.6415
X4.5Y-2.8384
X4.5Y-3.2577
X4.5Y-3.4545
T3
G00X1.1833Y-2.485
M15
G01X1.2167Y-2.485
M16
G05
G00X1.1833Y-2.7713
M15
G01X1.2167Y-2.7713
M16
G05
G00X1.1833Y-3.1287
M15
G01X1.2167Y-3.1287
M16
G05
G00X1.1833Y-3.415
M15
G01X1.2167Y-3.415
M16
G05
T4
G00X5.1768Y-1.8
M15
G01X5.2232Y-1.8
M16
G05
G00X5.2232Y-3.1
M15
G01X5.1768Y-3.1
M16
G05
T0
M30
