%TF.GenerationSoftware,KiCad,Pcbnew,4.0.7*%
%TF.CreationDate,2018-04-11T15:18:22+03:00*%
%TF.ProjectId,pi_adc_rtc_etc,70695F6164635F7274635F6574632E6B,rev?*%
%TF.FileFunction,Soldermask,Bot*%
%FSLAX46Y46*%
G04 Gerber Fmt 4.6, Leading zero omitted, Abs format (unit mm)*
G04 Created by KiCad (PCBNEW 4.0.7) date 04/11/18 15:18:22*
%MOMM*%
%LPD*%
G01*
G04 APERTURE LIST*
%ADD10C,0.150000*%
%ADD11R,2.127200X2.127200*%
%ADD12O,2.127200X2.127200*%
%ADD13C,4.400500*%
%ADD14R,2.000000X2.400000*%
%ADD15R,3.600000X2.900000*%
%ADD16R,2.400000X2.000000*%
%ADD17O,2.400000X3.400000*%
%ADD18R,3.400000X2.400000*%
%ADD19O,3.400000X2.400000*%
%ADD20R,3.400000X3.400000*%
%ADD21C,3.400000*%
%ADD22R,2.100000X2.100000*%
%ADD23O,2.100000X2.100000*%
%ADD24R,2.900000X2.900000*%
%ADD25C,2.900000*%
%ADD26R,2.100000X2.400000*%
%ADD27R,2.400000X2.100000*%
%ADD28C,1.840000*%
%ADD29R,2.800000X2.000000*%
%ADD30O,2.800000X2.000000*%
%ADD31C,1.400000*%
%ADD32R,2.100000X3.700000*%
%ADD33R,2.400000X2.400000*%
%ADD34C,2.400000*%
G04 APERTURE END LIST*
D10*
X85000000Y39000000D02*
X85000000Y56000000D01*
X74000000Y39000000D02*
X85000000Y39000000D01*
X74000000Y24000000D02*
X74000000Y39000000D01*
X85000000Y24000000D02*
X74000000Y24000000D01*
X85000000Y0D02*
X85000000Y24000000D01*
X85000000Y56000000D02*
X0Y56000000D01*
X0Y0D02*
X85000000Y0D01*
X0Y56000000D02*
X0Y0D01*
D11*
X2255360Y50720860D03*
D12*
X2255360Y53260860D03*
X4795360Y50720860D03*
X4795360Y53260860D03*
X7335360Y50720860D03*
X7335360Y53260860D03*
X9875360Y50720860D03*
X9875360Y53260860D03*
X12415360Y50720860D03*
X12415360Y53260860D03*
X14955360Y50720860D03*
X14955360Y53260860D03*
X17495360Y50720860D03*
X17495360Y53260860D03*
X20035360Y50720860D03*
X20035360Y53260860D03*
X22575360Y50720860D03*
X22575360Y53260860D03*
X25115360Y50720860D03*
X25115360Y53260860D03*
X27655360Y50720860D03*
X27655360Y53260860D03*
X30195360Y50720860D03*
X30195360Y53260860D03*
X32735360Y50720860D03*
X32735360Y53260860D03*
D13*
X41920000Y15900000D03*
X41920000Y5740000D03*
D14*
X30490000Y34220000D03*
X30490000Y38220000D03*
D15*
X63120000Y26060000D03*
X58820000Y26060000D03*
D16*
X62970000Y28600000D03*
X58970000Y28600000D03*
D14*
X20330000Y17710000D03*
X20330000Y21710000D03*
D15*
X63120000Y36220000D03*
X58820000Y36220000D03*
D16*
X58970000Y33680000D03*
X62970000Y33680000D03*
D14*
X15250000Y34220000D03*
X15250000Y38220000D03*
D16*
X31030000Y24790000D03*
X35030000Y24790000D03*
D14*
X22870000Y16630000D03*
X22870000Y12630000D03*
D15*
X35180000Y12090000D03*
X30880000Y12090000D03*
D16*
X31030000Y7010000D03*
X35030000Y7010000D03*
D17*
X10170000Y8280000D03*
D18*
X7630000Y5740000D03*
D19*
X12710000Y5740000D03*
D20*
X81290000Y42570000D03*
D21*
X76210000Y42570000D03*
D22*
X10170000Y41300000D03*
D23*
X10170000Y38760000D03*
X10170000Y36220000D03*
X10170000Y33680000D03*
D22*
X1280000Y41300000D03*
D23*
X1280000Y38760000D03*
X1280000Y36220000D03*
X1280000Y33680000D03*
D22*
X5090000Y41300000D03*
D23*
X5090000Y38760000D03*
X5090000Y36220000D03*
X5090000Y33680000D03*
D22*
X17790000Y46380000D03*
D23*
X15250000Y46380000D03*
X12710000Y46380000D03*
X10170000Y46380000D03*
D24*
X57780000Y22140000D03*
D25*
X71780000Y22140000D03*
X71780000Y40140000D03*
X57780000Y40140000D03*
X60280000Y22140000D03*
X69280000Y22140000D03*
X69280000Y40140000D03*
X60280000Y40140000D03*
D22*
X5090000Y46380000D03*
D20*
X81290000Y52095000D03*
D21*
X76210000Y52095000D03*
D22*
X17790000Y34950000D03*
D23*
X17790000Y37490000D03*
X20330000Y34950000D03*
X20330000Y37490000D03*
X22870000Y34950000D03*
X22870000Y37490000D03*
X25410000Y34950000D03*
X25410000Y37490000D03*
X27950000Y34950000D03*
X27950000Y37490000D03*
D22*
X49540000Y37490000D03*
D23*
X49540000Y34950000D03*
X47000000Y37490000D03*
X47000000Y34950000D03*
X44460000Y37490000D03*
X44460000Y34950000D03*
X41920000Y37490000D03*
X41920000Y34950000D03*
X39380000Y37490000D03*
X39380000Y34950000D03*
D22*
X1280000Y46380000D03*
X38110000Y52730000D03*
X38110000Y50190000D03*
X1280000Y22250000D03*
D23*
X3820000Y22250000D03*
X6360000Y22250000D03*
D22*
X1280000Y19710000D03*
D23*
X3820000Y19710000D03*
X6360000Y19710000D03*
D22*
X6360000Y17170000D03*
X6360000Y14630000D03*
X34300000Y22250000D03*
D23*
X31760000Y22250000D03*
X29220000Y22250000D03*
D22*
X60970000Y1930000D03*
D26*
X22870000Y31870000D03*
X22870000Y27870000D03*
X20330000Y31870000D03*
X20330000Y27870000D03*
X25410000Y31870000D03*
X25410000Y27870000D03*
D27*
X10710000Y22250000D03*
X14710000Y22250000D03*
X10710000Y19710000D03*
X14710000Y19710000D03*
X10710000Y17170000D03*
X14710000Y17170000D03*
X10710000Y14630000D03*
X14710000Y14630000D03*
X32490000Y19710000D03*
X28490000Y19710000D03*
X35030000Y27330000D03*
X31030000Y27330000D03*
X31030000Y15900000D03*
X35030000Y15900000D03*
X4360000Y1930000D03*
X8360000Y1930000D03*
X8360000Y9550000D03*
X4360000Y9550000D03*
D28*
X2550000Y3200000D03*
X2550000Y5740000D03*
X2550000Y8280000D03*
D29*
X17790000Y22250000D03*
D30*
X25410000Y4470000D03*
X17790000Y19710000D03*
X25410000Y7010000D03*
X17790000Y17170000D03*
X25410000Y9550000D03*
X17790000Y14630000D03*
X25410000Y12090000D03*
X17790000Y12090000D03*
X25410000Y14630000D03*
X17790000Y9550000D03*
X25410000Y17170000D03*
X17790000Y7010000D03*
X25410000Y19710000D03*
X17790000Y4470000D03*
X25410000Y22250000D03*
D29*
X53350000Y15900000D03*
D30*
X60970000Y8280000D03*
X53350000Y13360000D03*
X60970000Y10820000D03*
X53350000Y10820000D03*
X60970000Y13360000D03*
X53350000Y8280000D03*
X60970000Y15900000D03*
D31*
X54620000Y19710000D03*
X52080000Y19710000D03*
D32*
X71130000Y27120000D03*
X71130000Y32620000D03*
D33*
X54620000Y51460000D03*
D34*
X54620000Y46460000D03*
M02*
