%TF.GenerationSoftware,KiCad,Pcbnew,4.0.7*%
%TF.CreationDate,2018-04-11T15:18:22+03:00*%
%TF.ProjectId,pi_adc_rtc_etc,70695F6164635F7274635F6574632E6B,rev?*%
%TF.FileFunction,Legend,Top*%
%FSLAX46Y46*%
G04 Gerber Fmt 4.6, Leading zero omitted, Abs format (unit mm)*
G04 Created by KiCad (PCBNEW 4.0.7) date 04/11/18 15:18:22*
%MOMM*%
%LPD*%
G01*
G04 APERTURE LIST*
%ADD10C,0.150000*%
%ADD11C,0.250000*%
%ADD12C,0.120000*%
G04 APERTURE END LIST*
D10*
D11*
X41539048Y19638571D02*
X42300953Y19638571D01*
X41920001Y19257619D02*
X41920001Y20019524D01*
D10*
X85000000Y39000000D02*
X85000000Y56000000D01*
X74000000Y39000000D02*
X85000000Y39000000D01*
X74000000Y24000000D02*
X74000000Y39000000D01*
X85000000Y24000000D02*
X74000000Y24000000D01*
X85000000Y0D02*
X85000000Y24000000D01*
X85000000Y56000000D02*
X0Y56000000D01*
X0Y0D02*
X85000000Y0D01*
X0Y56000000D02*
X0Y0D01*
X985360Y54530860D02*
X34005360Y54530860D01*
X3525360Y49450860D02*
X34005360Y49450860D01*
X34005360Y54530860D02*
X34005360Y49450860D01*
X985360Y54530860D02*
X985360Y51990860D01*
X705360Y50720860D02*
X705360Y49170860D01*
X985360Y51990860D02*
X3525360Y51990860D01*
X3525360Y51990860D02*
X3525360Y49450860D01*
X705360Y49170860D02*
X2255360Y49170860D01*
D12*
X8470000Y3940000D02*
X11870000Y3940000D01*
X8719857Y7889913D02*
G75*
G03X7920000Y7090000I1250143J-2049913D01*
G01*
X11620143Y7889913D02*
G75*
G02X12420000Y7090000I-1250143J-2049913D01*
G01*
X8031377Y4365632D02*
G75*
G03X8370000Y3940000I2038623J1274368D01*
G01*
X12308623Y4365632D02*
G75*
G02X11970000Y3940000I-2038623J1274368D01*
G01*
X73670000Y45110000D02*
X83830000Y45110000D01*
X73670000Y46380000D02*
X73670000Y38760000D01*
X73670000Y38760000D02*
X83830000Y38760000D01*
X83830000Y38760000D02*
X83830000Y46380000D01*
X83830000Y46380000D02*
X73670000Y46380000D01*
X8840000Y32350000D02*
X11500000Y32350000D01*
X8840000Y40030000D02*
X8840000Y32350000D01*
X11500000Y40030000D02*
X11500000Y32350000D01*
X8840000Y40030000D02*
X11500000Y40030000D01*
X8840000Y41300000D02*
X8840000Y42630000D01*
X8840000Y42630000D02*
X10170000Y42630000D01*
X-50000Y32350000D02*
X2610000Y32350000D01*
X-50000Y40030000D02*
X-50000Y32350000D01*
X2610000Y40030000D02*
X2610000Y32350000D01*
X-50000Y40030000D02*
X2610000Y40030000D01*
X-50000Y41300000D02*
X-50000Y42630000D01*
X-50000Y42630000D02*
X1280000Y42630000D01*
X3760000Y32350000D02*
X6420000Y32350000D01*
X3760000Y40030000D02*
X3760000Y32350000D01*
X6420000Y40030000D02*
X6420000Y32350000D01*
X3760000Y40030000D02*
X6420000Y40030000D01*
X3760000Y41300000D02*
X3760000Y42630000D01*
X3760000Y42630000D02*
X5090000Y42630000D01*
X8840000Y47710000D02*
X8840000Y45050000D01*
X16520000Y47710000D02*
X8840000Y47710000D01*
X16520000Y45050000D02*
X8840000Y45050000D01*
X16520000Y47710000D02*
X16520000Y45050000D01*
X17790000Y47710000D02*
X19120000Y47710000D01*
X19120000Y47710000D02*
X19120000Y46380000D01*
D10*
X56280000Y41640000D02*
X73280000Y41640000D01*
X73280000Y41640000D02*
X73280000Y20640000D01*
X73280000Y20640000D02*
X56280000Y20640000D01*
X56280000Y20640000D02*
X56280000Y41640000D01*
D12*
X3760000Y45050000D02*
X6420000Y45050000D01*
X3760000Y45110000D02*
X3760000Y45050000D01*
X6420000Y45110000D02*
X6420000Y45050000D01*
X3760000Y45110000D02*
X6420000Y45110000D01*
X3760000Y46380000D02*
X3760000Y47710000D01*
X3760000Y47710000D02*
X5090000Y47710000D01*
X73670000Y54635000D02*
X83830000Y54635000D01*
X73670000Y55905000D02*
X73670000Y48285000D01*
X73670000Y48285000D02*
X83830000Y48285000D01*
X83830000Y48285000D02*
X83830000Y55905000D01*
X83830000Y55905000D02*
X73670000Y55905000D01*
X29280000Y33620000D02*
X29280000Y38820000D01*
X19060000Y33620000D02*
X29280000Y33620000D01*
X16460000Y38820000D02*
X29280000Y38820000D01*
X19060000Y33620000D02*
X19060000Y36220000D01*
X19060000Y36220000D02*
X16460000Y36220000D01*
X16460000Y36220000D02*
X16460000Y38820000D01*
X17790000Y33620000D02*
X16460000Y33620000D01*
X16460000Y33620000D02*
X16460000Y34950000D01*
X38050000Y38820000D02*
X38050000Y33620000D01*
X48270000Y38820000D02*
X38050000Y38820000D01*
X50870000Y33620000D02*
X38050000Y33620000D01*
X48270000Y38820000D02*
X48270000Y36220000D01*
X48270000Y36220000D02*
X50870000Y36220000D01*
X50870000Y36220000D02*
X50870000Y33620000D01*
X49540000Y38820000D02*
X50870000Y38820000D01*
X50870000Y38820000D02*
X50870000Y37490000D01*
X-50000Y45050000D02*
X2610000Y45050000D01*
X-50000Y45110000D02*
X-50000Y45050000D01*
X2610000Y45110000D02*
X2610000Y45050000D01*
X-50000Y45110000D02*
X2610000Y45110000D01*
X-50000Y46380000D02*
X-50000Y47710000D01*
X-50000Y47710000D02*
X1280000Y47710000D01*
X36780000Y51400000D02*
X39440000Y51400000D01*
X36780000Y51460000D02*
X36780000Y51400000D01*
X39440000Y51460000D02*
X39440000Y51400000D01*
X36780000Y51460000D02*
X39440000Y51460000D01*
X36780000Y52730000D02*
X36780000Y54060000D01*
X36780000Y54060000D02*
X38110000Y54060000D01*
X36780000Y48860000D02*
X39440000Y48860000D01*
X36780000Y48920000D02*
X36780000Y48860000D01*
X39440000Y48920000D02*
X39440000Y48860000D01*
X36780000Y48920000D02*
X39440000Y48920000D01*
X36780000Y50190000D02*
X36780000Y51520000D01*
X36780000Y51520000D02*
X38110000Y51520000D01*
X7690000Y20920000D02*
X7690000Y23580000D01*
X2550000Y20920000D02*
X7690000Y20920000D01*
X2550000Y23580000D02*
X7690000Y23580000D01*
X2550000Y20920000D02*
X2550000Y23580000D01*
X1280000Y20920000D02*
X-50000Y20920000D01*
X-50000Y20920000D02*
X-50000Y22250000D01*
X7690000Y18380000D02*
X7690000Y21040000D01*
X2550000Y18380000D02*
X7690000Y18380000D01*
X2550000Y21040000D02*
X7690000Y21040000D01*
X2550000Y18380000D02*
X2550000Y21040000D01*
X1280000Y18380000D02*
X-50000Y18380000D01*
X-50000Y18380000D02*
X-50000Y19710000D01*
X5030000Y15840000D02*
X7690000Y15840000D01*
X5030000Y15900000D02*
X5030000Y15840000D01*
X7690000Y15900000D02*
X7690000Y15840000D01*
X5030000Y15900000D02*
X7690000Y15900000D01*
X5030000Y17170000D02*
X5030000Y18500000D01*
X5030000Y18500000D02*
X6360000Y18500000D01*
X5030000Y13300000D02*
X7690000Y13300000D01*
X5030000Y13360000D02*
X5030000Y13300000D01*
X7690000Y13360000D02*
X7690000Y13300000D01*
X5030000Y13360000D02*
X7690000Y13360000D01*
X5030000Y14630000D02*
X5030000Y15960000D01*
X5030000Y15960000D02*
X6360000Y15960000D01*
X27890000Y23580000D02*
X27890000Y20920000D01*
X33030000Y23580000D02*
X27890000Y23580000D01*
X33030000Y20920000D02*
X27890000Y20920000D01*
X33030000Y23580000D02*
X33030000Y20920000D01*
X34300000Y23580000D02*
X35630000Y23580000D01*
X35630000Y23580000D02*
X35630000Y22250000D01*
X59640000Y600000D02*
X62300000Y600000D01*
X59640000Y660000D02*
X59640000Y600000D01*
X62300000Y660000D02*
X62300000Y600000D01*
X59640000Y660000D02*
X62300000Y660000D01*
X59640000Y1930000D02*
X59640000Y3260000D01*
X59640000Y3260000D02*
X60970000Y3260000D01*
X2554296Y2285309D02*
G75*
G02X245000Y2245000I-1154296J-40309D01*
G01*
X245948Y2224879D02*
G75*
G02X1640000Y3374000I1154052J20121D01*
G01*
X5020000Y10565000D02*
X5020000Y915000D01*
X69000Y10565000D02*
X69000Y915000D01*
X5020000Y10565000D02*
X69000Y10565000D01*
X5020000Y915000D02*
X69000Y915000D01*
X2134000Y1369000D02*
X524000Y2980000D01*
X2275000Y1509000D02*
X665000Y3121000D01*
X22600000Y23580000D02*
G75*
G02X20600000Y23580000I-1000000J0D01*
G01*
X20600000Y23580000D02*
X19350000Y23580000D01*
X19350000Y23580000D02*
X19350000Y3140000D01*
X19350000Y3140000D02*
X23850000Y3140000D01*
X23850000Y3140000D02*
X23850000Y23580000D01*
X23850000Y23580000D02*
X22600000Y23580000D01*
X58160000Y17230000D02*
G75*
G02X56160000Y17230000I-1000000J0D01*
G01*
X56160000Y17230000D02*
X54910000Y17230000D01*
X54910000Y17230000D02*
X54910000Y6950000D01*
X54910000Y6950000D02*
X59410000Y6950000D01*
X59410000Y6950000D02*
X59410000Y17230000D01*
X59410000Y17230000D02*
X58160000Y17230000D01*
X55050000Y22510000D02*
X55050000Y33410000D01*
X55050000Y33410000D02*
X51650000Y33410000D01*
X51650000Y33410000D02*
X51650000Y22510000D01*
X51650000Y22510000D02*
X55050000Y22510000D01*
X53950000Y22510000D02*
X54620000Y21110000D01*
X54620000Y21110000D02*
X54620000Y20410000D01*
X52750000Y22510000D02*
X52080000Y21110000D01*
X52080000Y21110000D02*
X52080000Y20410000D01*
X56003264Y44061563D02*
G75*
G03X56000000Y53859357I-1383264J4898437D01*
G01*
X53236736Y44061563D02*
G75*
G02X53240000Y53859357I1383264J4898437D01*
G01*
X53236736Y44061563D02*
G75*
G03X56000000Y44060643I1383264J4898437D01*
G01*
X59670000Y48960000D02*
X49570000Y48960000D01*
X59670000Y48920000D02*
X49570000Y48920000D01*
X59670000Y48880000D02*
X49570000Y48880000D01*
X59669000Y48840000D02*
X49571000Y48840000D01*
X59668000Y48800000D02*
X49572000Y48800000D01*
X59667000Y48760000D02*
X49573000Y48760000D01*
X59665000Y48720000D02*
X49575000Y48720000D01*
X59663000Y48680000D02*
X49577000Y48680000D01*
X59660000Y48640000D02*
X49580000Y48640000D01*
X59658000Y48600000D02*
X49582000Y48600000D01*
X59655000Y48560000D02*
X49585000Y48560000D01*
X59651000Y48520000D02*
X49589000Y48520000D01*
X59648000Y48480000D02*
X49592000Y48480000D01*
X59644000Y48440000D02*
X49596000Y48440000D01*
X59640000Y48400000D02*
X49600000Y48400000D01*
X59635000Y48360000D02*
X49605000Y48360000D01*
X59630000Y48320000D02*
X49610000Y48320000D01*
X59625000Y48280000D02*
X49615000Y48280000D01*
X59619000Y48239000D02*
X49621000Y48239000D01*
X59613000Y48199000D02*
X49627000Y48199000D01*
X59607000Y48159000D02*
X49633000Y48159000D01*
X59601000Y48119000D02*
X49639000Y48119000D01*
X59594000Y48079000D02*
X49646000Y48079000D01*
X59587000Y48039000D02*
X49653000Y48039000D01*
X59579000Y47999000D02*
X49661000Y47999000D01*
X59571000Y47959000D02*
X49669000Y47959000D01*
X59563000Y47919000D02*
X49677000Y47919000D01*
X59555000Y47879000D02*
X49685000Y47879000D01*
X59546000Y47839000D02*
X49694000Y47839000D01*
X59537000Y47799000D02*
X49703000Y47799000D01*
X59527000Y47759000D02*
X49713000Y47759000D01*
X59517000Y47719000D02*
X49723000Y47719000D01*
X59507000Y47679000D02*
X49733000Y47679000D01*
X59496000Y47639000D02*
X55801000Y47639000D01*
X53439000Y47639000D02*
X49744000Y47639000D01*
X59485000Y47599000D02*
X55801000Y47599000D01*
X53439000Y47599000D02*
X49755000Y47599000D01*
X59474000Y47559000D02*
X55801000Y47559000D01*
X53439000Y47559000D02*
X49766000Y47559000D01*
X59463000Y47519000D02*
X55801000Y47519000D01*
X53439000Y47519000D02*
X49777000Y47519000D01*
X59451000Y47479000D02*
X55801000Y47479000D01*
X53439000Y47479000D02*
X49789000Y47479000D01*
X59438000Y47439000D02*
X55801000Y47439000D01*
X53439000Y47439000D02*
X49802000Y47439000D01*
X59426000Y47399000D02*
X55801000Y47399000D01*
X53439000Y47399000D02*
X49814000Y47399000D01*
X59412000Y47359000D02*
X55801000Y47359000D01*
X53439000Y47359000D02*
X49828000Y47359000D01*
X59399000Y47319000D02*
X55801000Y47319000D01*
X53439000Y47319000D02*
X49841000Y47319000D01*
X59385000Y47279000D02*
X55801000Y47279000D01*
X53439000Y47279000D02*
X49855000Y47279000D01*
X59371000Y47239000D02*
X55801000Y47239000D01*
X53439000Y47239000D02*
X49869000Y47239000D01*
X59357000Y47199000D02*
X55801000Y47199000D01*
X53439000Y47199000D02*
X49883000Y47199000D01*
X59342000Y47159000D02*
X55801000Y47159000D01*
X53439000Y47159000D02*
X49898000Y47159000D01*
X59326000Y47119000D02*
X55801000Y47119000D01*
X53439000Y47119000D02*
X49914000Y47119000D01*
X59311000Y47079000D02*
X55801000Y47079000D01*
X53439000Y47079000D02*
X49929000Y47079000D01*
X59294000Y47039000D02*
X55801000Y47039000D01*
X53439000Y47039000D02*
X49946000Y47039000D01*
X59278000Y46999000D02*
X55801000Y46999000D01*
X53439000Y46999000D02*
X49962000Y46999000D01*
X59261000Y46959000D02*
X55801000Y46959000D01*
X53439000Y46959000D02*
X49979000Y46959000D01*
X59244000Y46919000D02*
X55801000Y46919000D01*
X53439000Y46919000D02*
X49996000Y46919000D01*
X59226000Y46879000D02*
X55801000Y46879000D01*
X53439000Y46879000D02*
X50014000Y46879000D01*
X59208000Y46839000D02*
X55801000Y46839000D01*
X53439000Y46839000D02*
X50032000Y46839000D01*
X59189000Y46799000D02*
X55801000Y46799000D01*
X53439000Y46799000D02*
X50051000Y46799000D01*
X59170000Y46759000D02*
X55801000Y46759000D01*
X53439000Y46759000D02*
X50070000Y46759000D01*
X59151000Y46719000D02*
X55801000Y46719000D01*
X53439000Y46719000D02*
X50089000Y46719000D01*
X59131000Y46679000D02*
X55801000Y46679000D01*
X53439000Y46679000D02*
X50109000Y46679000D01*
X59111000Y46639000D02*
X55801000Y46639000D01*
X53439000Y46639000D02*
X50129000Y46639000D01*
X59090000Y46599000D02*
X55801000Y46599000D01*
X53439000Y46599000D02*
X50150000Y46599000D01*
X59069000Y46559000D02*
X55801000Y46559000D01*
X53439000Y46559000D02*
X50171000Y46559000D01*
X59048000Y46519000D02*
X55801000Y46519000D01*
X53439000Y46519000D02*
X50192000Y46519000D01*
X59025000Y46479000D02*
X55801000Y46479000D01*
X53439000Y46479000D02*
X50215000Y46479000D01*
X59003000Y46439000D02*
X55801000Y46439000D01*
X53439000Y46439000D02*
X50237000Y46439000D01*
X58980000Y46399000D02*
X55801000Y46399000D01*
X53439000Y46399000D02*
X50260000Y46399000D01*
X58956000Y46359000D02*
X55801000Y46359000D01*
X53439000Y46359000D02*
X50284000Y46359000D01*
X58932000Y46319000D02*
X55801000Y46319000D01*
X53439000Y46319000D02*
X50308000Y46319000D01*
X58908000Y46279000D02*
X55801000Y46279000D01*
X53439000Y46279000D02*
X50332000Y46279000D01*
X58883000Y46239000D02*
X55801000Y46239000D01*
X53439000Y46239000D02*
X50357000Y46239000D01*
X58857000Y46199000D02*
X55801000Y46199000D01*
X53439000Y46199000D02*
X50383000Y46199000D01*
X58831000Y46159000D02*
X55801000Y46159000D01*
X53439000Y46159000D02*
X50409000Y46159000D01*
X58805000Y46119000D02*
X55801000Y46119000D01*
X53439000Y46119000D02*
X50435000Y46119000D01*
X58777000Y46079000D02*
X55801000Y46079000D01*
X53439000Y46079000D02*
X50463000Y46079000D01*
X58750000Y46039000D02*
X55801000Y46039000D01*
X53439000Y46039000D02*
X50490000Y46039000D01*
X58721000Y45999000D02*
X55801000Y45999000D01*
X53439000Y45999000D02*
X50519000Y45999000D01*
X58692000Y45959000D02*
X55801000Y45959000D01*
X53439000Y45959000D02*
X50548000Y45959000D01*
X58663000Y45919000D02*
X55801000Y45919000D01*
X53439000Y45919000D02*
X50577000Y45919000D01*
X58633000Y45879000D02*
X55801000Y45879000D01*
X53439000Y45879000D02*
X50607000Y45879000D01*
X58602000Y45839000D02*
X55801000Y45839000D01*
X53439000Y45839000D02*
X50638000Y45839000D01*
X58571000Y45799000D02*
X55801000Y45799000D01*
X53439000Y45799000D02*
X50669000Y45799000D01*
X58539000Y45759000D02*
X55801000Y45759000D01*
X53439000Y45759000D02*
X50701000Y45759000D01*
X58506000Y45719000D02*
X55801000Y45719000D01*
X53439000Y45719000D02*
X50734000Y45719000D01*
X58473000Y45679000D02*
X55801000Y45679000D01*
X53439000Y45679000D02*
X50767000Y45679000D01*
X58439000Y45639000D02*
X55801000Y45639000D01*
X53439000Y45639000D02*
X50801000Y45639000D01*
X58404000Y45599000D02*
X55801000Y45599000D01*
X53439000Y45599000D02*
X50836000Y45599000D01*
X58368000Y45559000D02*
X55801000Y45559000D01*
X53439000Y45559000D02*
X50872000Y45559000D01*
X58332000Y45519000D02*
X55801000Y45519000D01*
X53439000Y45519000D02*
X50908000Y45519000D01*
X58295000Y45479000D02*
X55801000Y45479000D01*
X53439000Y45479000D02*
X50945000Y45479000D01*
X58257000Y45439000D02*
X55801000Y45439000D01*
X53439000Y45439000D02*
X50983000Y45439000D01*
X58218000Y45399000D02*
X55801000Y45399000D01*
X53439000Y45399000D02*
X51022000Y45399000D01*
X58179000Y45359000D02*
X55801000Y45359000D01*
X53439000Y45359000D02*
X51061000Y45359000D01*
X58138000Y45319000D02*
X55801000Y45319000D01*
X53439000Y45319000D02*
X51102000Y45319000D01*
X58097000Y45279000D02*
X51143000Y45279000D01*
X58055000Y45239000D02*
X51185000Y45239000D01*
X58011000Y45199000D02*
X51229000Y45199000D01*
X57967000Y45159000D02*
X51273000Y45159000D01*
X57922000Y45119000D02*
X51318000Y45119000D01*
X57875000Y45079000D02*
X51365000Y45079000D01*
X57827000Y45039000D02*
X51413000Y45039000D01*
X57778000Y44999000D02*
X51462000Y44999000D01*
X57728000Y44959000D02*
X51512000Y44959000D01*
X57677000Y44919000D02*
X51563000Y44919000D01*
X57624000Y44879000D02*
X51616000Y44879000D01*
X57569000Y44839000D02*
X51671000Y44839000D01*
X57514000Y44799000D02*
X51726000Y44799000D01*
X57456000Y44759000D02*
X51784000Y44759000D01*
X57397000Y44719000D02*
X51843000Y44719000D01*
X57335000Y44679000D02*
X51905000Y44679000D01*
X57272000Y44639000D02*
X51968000Y44639000D01*
X57207000Y44599000D02*
X52033000Y44599000D01*
X57139000Y44559000D02*
X52101000Y44559000D01*
X57069000Y44519000D02*
X52171000Y44519000D01*
X56997000Y44479000D02*
X52243000Y44479000D01*
X56921000Y44439000D02*
X52319000Y44439000D01*
X56842000Y44399000D02*
X52398000Y44399000D01*
X56760000Y44359000D02*
X52480000Y44359000D01*
X56673000Y44319000D02*
X52567000Y44319000D01*
X56582000Y44279000D02*
X52658000Y44279000D01*
X56486000Y44239000D02*
X52754000Y44239000D01*
X56383000Y44199000D02*
X52857000Y44199000D01*
X56274000Y44159000D02*
X52966000Y44159000D01*
X56156000Y44119000D02*
X53084000Y44119000D01*
X56027000Y44079000D02*
X53213000Y44079000D01*
X55885000Y44039000D02*
X53355000Y44039000D01*
X55724000Y43999000D02*
X53516000Y43999000D01*
X55533000Y43959000D02*
X53707000Y43959000D01*
X55292000Y43919000D02*
X53948000Y43919000D01*
X54899000Y43879000D02*
X54341000Y43879000D01*
X54620000Y54160000D02*
X54620000Y52660000D01*
X55370000Y53410000D02*
X53870000Y53410000D01*
D10*
X35321341Y51570265D02*
X34321341Y51570265D01*
X34321341Y51951218D01*
X34368960Y52046456D01*
X34416579Y52094075D01*
X34511817Y52141694D01*
X34654674Y52141694D01*
X34749912Y52094075D01*
X34797531Y52046456D01*
X34845150Y51951218D01*
X34845150Y51570265D01*
X35321341Y53094075D02*
X35321341Y52522646D01*
X35321341Y52808360D02*
X34321341Y52808360D01*
X34464198Y52713122D01*
X34559436Y52617884D01*
X34607055Y52522646D01*
X41645371Y10262886D02*
X41692990Y10405743D01*
X41740610Y10453362D01*
X41835848Y10500981D01*
X41978705Y10500981D01*
X42073943Y10453362D01*
X42121562Y10405743D01*
X42169181Y10310505D01*
X42169181Y9929552D01*
X41169181Y9929552D01*
X41169181Y10262886D01*
X41216800Y10358124D01*
X41264419Y10405743D01*
X41359657Y10453362D01*
X41454895Y10453362D01*
X41550133Y10405743D01*
X41597752Y10358124D01*
X41645371Y10262886D01*
X41645371Y9929552D01*
X41169181Y10786695D02*
X41169181Y11358124D01*
X42169181Y11072409D02*
X41169181Y11072409D01*
X42169181Y12215267D02*
X42169181Y11643838D01*
X42169181Y11929552D02*
X41169181Y11929552D01*
X41312038Y11834314D01*
X41407276Y11739076D01*
X41454895Y11643838D01*
X45023571Y7510476D02*
X45071190Y7653333D01*
X45118810Y7700952D01*
X45214048Y7748571D01*
X45356905Y7748571D01*
X45452143Y7700952D01*
X45499762Y7653333D01*
X45547381Y7558095D01*
X45547381Y7177142D01*
X44547381Y7177142D01*
X44547381Y7510476D01*
X44595000Y7605714D01*
X44642619Y7653333D01*
X44737857Y7700952D01*
X44833095Y7700952D01*
X44928333Y7653333D01*
X44975952Y7605714D01*
X45023571Y7510476D01*
X45023571Y7177142D01*
X45547381Y8605714D02*
X45023571Y8605714D01*
X44928333Y8558095D01*
X44880714Y8462857D01*
X44880714Y8272380D01*
X44928333Y8177142D01*
X45499762Y8605714D02*
X45547381Y8510476D01*
X45547381Y8272380D01*
X45499762Y8177142D01*
X45404524Y8129523D01*
X45309286Y8129523D01*
X45214048Y8177142D01*
X45166429Y8272380D01*
X45166429Y8510476D01*
X45118810Y8605714D01*
X44880714Y8939047D02*
X44880714Y9319999D01*
X44547381Y9081904D02*
X45404524Y9081904D01*
X45499762Y9129523D01*
X45547381Y9224761D01*
X45547381Y9319999D01*
X44880714Y9510476D02*
X44880714Y9891428D01*
X44547381Y9653333D02*
X45404524Y9653333D01*
X45499762Y9700952D01*
X45547381Y9796190D01*
X45547381Y9891428D01*
X45499762Y10605715D02*
X45547381Y10510477D01*
X45547381Y10320000D01*
X45499762Y10224762D01*
X45404524Y10177143D01*
X45023571Y10177143D01*
X44928333Y10224762D01*
X44880714Y10320000D01*
X44880714Y10510477D01*
X44928333Y10605715D01*
X45023571Y10653334D01*
X45118810Y10653334D01*
X45214048Y10177143D01*
X45547381Y11081905D02*
X44880714Y11081905D01*
X45071190Y11081905D02*
X44975952Y11129524D01*
X44928333Y11177143D01*
X44880714Y11272381D01*
X44880714Y11367620D01*
X44880714Y11605715D02*
X45547381Y11843810D01*
X44880714Y12081906D02*
X45547381Y11843810D01*
X45785476Y11748572D01*
X45833095Y11700953D01*
X45880714Y11605715D01*
X44547381Y13129525D02*
X44547381Y13748573D01*
X44928333Y13415239D01*
X44928333Y13558097D01*
X44975952Y13653335D01*
X45023571Y13700954D01*
X45118810Y13748573D01*
X45356905Y13748573D01*
X45452143Y13700954D01*
X45499762Y13653335D01*
X45547381Y13558097D01*
X45547381Y13272382D01*
X45499762Y13177144D01*
X45452143Y13129525D01*
X44880714Y14081906D02*
X45547381Y14320001D01*
X44880714Y14558097D01*
X13241905Y7827619D02*
X13241905Y8827619D01*
X13480000Y8827619D01*
X13622858Y8780000D01*
X13718096Y8684762D01*
X13765715Y8589524D01*
X13813334Y8399048D01*
X13813334Y8256190D01*
X13765715Y8065714D01*
X13718096Y7970476D01*
X13622858Y7875238D01*
X13480000Y7827619D01*
X13241905Y7827619D01*
X14194286Y8732381D02*
X14241905Y8780000D01*
X14337143Y8827619D01*
X14575239Y8827619D01*
X14670477Y8780000D01*
X14718096Y8732381D01*
X14765715Y8637143D01*
X14765715Y8541905D01*
X14718096Y8399048D01*
X14146667Y7827619D01*
X14765715Y7827619D01*
X7146190Y3112619D02*
X7717619Y3112619D01*
X7431904Y2112619D02*
X7431904Y3112619D01*
X8527143Y2112619D02*
X8050952Y2112619D01*
X8050952Y3112619D01*
X9289048Y2779286D02*
X9289048Y2112619D01*
X9050952Y3160238D02*
X8812857Y2445952D01*
X9431905Y2445952D01*
X9717619Y3112619D02*
X10336667Y3112619D01*
X10003333Y2731667D01*
X10146191Y2731667D01*
X10241429Y2684048D01*
X10289048Y2636429D01*
X10336667Y2541190D01*
X10336667Y2303095D01*
X10289048Y2207857D01*
X10241429Y2160238D01*
X10146191Y2112619D01*
X9860476Y2112619D01*
X9765238Y2160238D01*
X9717619Y2207857D01*
X11289048Y2112619D02*
X10717619Y2112619D01*
X11003333Y2112619D02*
X11003333Y3112619D01*
X10908095Y2969762D01*
X10812857Y2874524D01*
X10717619Y2826905D01*
X12193810Y2112619D02*
X11717619Y2112619D01*
X11717619Y3112619D01*
X12527143Y2112619D02*
X12527143Y3112619D01*
X12908096Y3112619D01*
X13003334Y3065000D01*
X13050953Y3017381D01*
X13098572Y2922143D01*
X13098572Y2779286D01*
X13050953Y2684048D01*
X13003334Y2636429D01*
X12908096Y2588810D01*
X12527143Y2588810D01*
X78202381Y42236667D02*
X78916667Y42236667D01*
X79059524Y42189047D01*
X79154762Y42093809D01*
X79202381Y41950952D01*
X79202381Y41855714D01*
X79202381Y43236667D02*
X79202381Y42665238D01*
X79202381Y42950952D02*
X78202381Y42950952D01*
X78345238Y42855714D01*
X78440476Y42760476D01*
X78488095Y42665238D01*
X72852381Y42498809D02*
X71852381Y42498809D01*
X71852381Y42879762D01*
X71900000Y42975000D01*
X71947619Y43022619D01*
X72042857Y43070238D01*
X72185714Y43070238D01*
X72280952Y43022619D01*
X72328571Y42975000D01*
X72376190Y42879762D01*
X72376190Y42498809D01*
X72852381Y43641666D02*
X72804762Y43546428D01*
X72757143Y43498809D01*
X72661905Y43451190D01*
X72376190Y43451190D01*
X72280952Y43498809D01*
X72233333Y43546428D01*
X72185714Y43641666D01*
X72185714Y43784524D01*
X72233333Y43879762D01*
X72280952Y43927381D01*
X72376190Y43975000D01*
X72661905Y43975000D01*
X72757143Y43927381D01*
X72804762Y43879762D01*
X72852381Y43784524D01*
X72852381Y43641666D01*
X72185714Y44308333D02*
X72852381Y44498809D01*
X72376190Y44689286D01*
X72852381Y44879762D01*
X72185714Y45070238D01*
X72804762Y45832143D02*
X72852381Y45736905D01*
X72852381Y45546428D01*
X72804762Y45451190D01*
X72709524Y45403571D01*
X72328571Y45403571D01*
X72233333Y45451190D01*
X72185714Y45546428D01*
X72185714Y45736905D01*
X72233333Y45832143D01*
X72328571Y45879762D01*
X72423810Y45879762D01*
X72519048Y45403571D01*
X72852381Y46308333D02*
X72185714Y46308333D01*
X72376190Y46308333D02*
X72280952Y46355952D01*
X72233333Y46403571D01*
X72185714Y46498809D01*
X72185714Y46594048D01*
X11527381Y38426667D02*
X12241667Y38426667D01*
X12384524Y38379047D01*
X12479762Y38283809D01*
X12527381Y38140952D01*
X12527381Y38045714D01*
X11622619Y38855238D02*
X11575000Y38902857D01*
X11527381Y38998095D01*
X11527381Y39236191D01*
X11575000Y39331429D01*
X11622619Y39379048D01*
X11717857Y39426667D01*
X11813095Y39426667D01*
X11955952Y39379048D01*
X12527381Y38807619D01*
X12527381Y39426667D01*
X10622381Y28417619D02*
X9622381Y28417619D01*
X10622381Y28893809D02*
X9955714Y28893809D01*
X10146190Y28893809D02*
X10050952Y28941428D01*
X10003333Y28989047D01*
X9955714Y29084285D01*
X9955714Y29179524D01*
X10717619Y29274762D02*
X10717619Y30036667D01*
X10622381Y30274762D02*
X9622381Y30274762D01*
X9622381Y30941428D02*
X9622381Y31131905D01*
X9670000Y31227143D01*
X9765238Y31322381D01*
X9955714Y31370000D01*
X10289048Y31370000D01*
X10479524Y31322381D01*
X10574762Y31227143D01*
X10622381Y31131905D01*
X10622381Y30941428D01*
X10574762Y30846190D01*
X10479524Y30750952D01*
X10289048Y30703333D01*
X9955714Y30703333D01*
X9765238Y30750952D01*
X9670000Y30846190D01*
X9622381Y30941428D01*
X2637381Y38426667D02*
X3351667Y38426667D01*
X3494524Y38379047D01*
X3589762Y38283809D01*
X3637381Y38140952D01*
X3637381Y38045714D01*
X2637381Y38807619D02*
X2637381Y39426667D01*
X3018333Y39093333D01*
X3018333Y39236191D01*
X3065952Y39331429D01*
X3113571Y39379048D01*
X3208810Y39426667D01*
X3446905Y39426667D01*
X3542143Y39379048D01*
X3589762Y39331429D01*
X3637381Y39236191D01*
X3637381Y38950476D01*
X3589762Y38855238D01*
X3542143Y38807619D01*
X732381Y28346191D02*
X732381Y28917620D01*
X1732381Y28631905D02*
X732381Y28631905D01*
X1065714Y29155715D02*
X1732381Y29346191D01*
X1256190Y29536668D01*
X1732381Y29727144D01*
X1065714Y29917620D01*
X1732381Y30298572D02*
X1065714Y30298572D01*
X732381Y30298572D02*
X780000Y30250953D01*
X827619Y30298572D01*
X780000Y30346191D01*
X732381Y30298572D01*
X827619Y30298572D01*
X732381Y30965238D02*
X732381Y31060477D01*
X780000Y31155715D01*
X827619Y31203334D01*
X922857Y31250953D01*
X1113333Y31298572D01*
X1351429Y31298572D01*
X1541905Y31250953D01*
X1637143Y31203334D01*
X1684762Y31155715D01*
X1732381Y31060477D01*
X1732381Y30965238D01*
X1684762Y30870000D01*
X1637143Y30822381D01*
X1541905Y30774762D01*
X1351429Y30727143D01*
X1113333Y30727143D01*
X922857Y30774762D01*
X827619Y30822381D01*
X780000Y30870000D01*
X732381Y30965238D01*
X6447381Y38426667D02*
X7161667Y38426667D01*
X7304524Y38379047D01*
X7399762Y38283809D01*
X7447381Y38140952D01*
X7447381Y38045714D01*
X6780714Y39331429D02*
X7447381Y39331429D01*
X6399762Y39093333D02*
X7114048Y38855238D01*
X7114048Y39474286D01*
X4542381Y28346191D02*
X4542381Y28917620D01*
X5542381Y28631905D02*
X4542381Y28631905D01*
X4875714Y29155715D02*
X5542381Y29346191D01*
X5066190Y29536668D01*
X5542381Y29727144D01*
X4875714Y29917620D01*
X5542381Y30298572D02*
X4875714Y30298572D01*
X4542381Y30298572D02*
X4590000Y30250953D01*
X4637619Y30298572D01*
X4590000Y30346191D01*
X4542381Y30298572D01*
X4637619Y30298572D01*
X5542381Y31298572D02*
X5542381Y30727143D01*
X5542381Y31012857D02*
X4542381Y31012857D01*
X4685238Y30917619D01*
X4780476Y30822381D01*
X4828095Y30727143D01*
X9836667Y48832619D02*
X9836667Y48118333D01*
X9789047Y47975476D01*
X9693809Y47880238D01*
X9550952Y47832619D01*
X9455714Y47832619D01*
X10789048Y48832619D02*
X10312857Y48832619D01*
X10265238Y48356429D01*
X10312857Y48404048D01*
X10408095Y48451667D01*
X10646191Y48451667D01*
X10741429Y48404048D01*
X10789048Y48356429D01*
X10836667Y48261190D01*
X10836667Y48023095D01*
X10789048Y47927857D01*
X10741429Y47880238D01*
X10646191Y47832619D01*
X10408095Y47832619D01*
X10312857Y47880238D01*
X10265238Y47927857D01*
X10757857Y43435238D02*
X10900714Y43387619D01*
X11138810Y43387619D01*
X11234048Y43435238D01*
X11281667Y43482857D01*
X11329286Y43578095D01*
X11329286Y43673333D01*
X11281667Y43768571D01*
X11234048Y43816190D01*
X11138810Y43863810D01*
X10948333Y43911429D01*
X10853095Y43959048D01*
X10805476Y44006667D01*
X10757857Y44101905D01*
X10757857Y44197143D01*
X10805476Y44292381D01*
X10853095Y44340000D01*
X10948333Y44387619D01*
X11186429Y44387619D01*
X11329286Y44340000D01*
X12138810Y43435238D02*
X12043572Y43387619D01*
X11853095Y43387619D01*
X11757857Y43435238D01*
X11710238Y43530476D01*
X11710238Y43911429D01*
X11757857Y44006667D01*
X11853095Y44054286D01*
X12043572Y44054286D01*
X12138810Y44006667D01*
X12186429Y43911429D01*
X12186429Y43816190D01*
X11710238Y43720952D01*
X12615000Y43387619D02*
X12615000Y44054286D01*
X12615000Y43863810D02*
X12662619Y43959048D01*
X12710238Y44006667D01*
X12805476Y44054286D01*
X12900715Y44054286D01*
X13234048Y43387619D02*
X13234048Y44054286D01*
X13234048Y44387619D02*
X13186429Y44340000D01*
X13234048Y44292381D01*
X13281667Y44340000D01*
X13234048Y44387619D01*
X13234048Y44292381D01*
X14138810Y43387619D02*
X14138810Y43911429D01*
X14091191Y44006667D01*
X13995953Y44054286D01*
X13805476Y44054286D01*
X13710238Y44006667D01*
X14138810Y43435238D02*
X14043572Y43387619D01*
X13805476Y43387619D01*
X13710238Y43435238D01*
X13662619Y43530476D01*
X13662619Y43625714D01*
X13710238Y43720952D01*
X13805476Y43768571D01*
X14043572Y43768571D01*
X14138810Y43816190D01*
X14757857Y43387619D02*
X14662619Y43435238D01*
X14615000Y43530476D01*
X14615000Y44387619D01*
X14900715Y43292381D02*
X15662620Y43292381D01*
X16472144Y43482857D02*
X16424525Y43435238D01*
X16281668Y43387619D01*
X16186430Y43387619D01*
X16043572Y43435238D01*
X15948334Y43530476D01*
X15900715Y43625714D01*
X15853096Y43816190D01*
X15853096Y43959048D01*
X15900715Y44149524D01*
X15948334Y44244762D01*
X16043572Y44340000D01*
X16186430Y44387619D01*
X16281668Y44387619D01*
X16424525Y44340000D01*
X16472144Y44292381D01*
X17091191Y44387619D02*
X17281668Y44387619D01*
X17376906Y44340000D01*
X17472144Y44244762D01*
X17519763Y44054286D01*
X17519763Y43720952D01*
X17472144Y43530476D01*
X17376906Y43435238D01*
X17281668Y43387619D01*
X17091191Y43387619D01*
X16995953Y43435238D01*
X16900715Y43530476D01*
X16853096Y43720952D01*
X16853096Y44054286D01*
X16900715Y44244762D01*
X16995953Y44340000D01*
X17091191Y44387619D01*
X17900715Y44292381D02*
X17948334Y44340000D01*
X18043572Y44387619D01*
X18281668Y44387619D01*
X18376906Y44340000D01*
X18424525Y44292381D01*
X18472144Y44197143D01*
X18472144Y44101905D01*
X18424525Y43959048D01*
X17853096Y43387619D01*
X18472144Y43387619D01*
X72732381Y30330476D02*
X71732381Y30330476D01*
X72446667Y30663810D01*
X71732381Y30997143D01*
X72732381Y30997143D01*
X72732381Y31997143D02*
X72732381Y31425714D01*
X72732381Y31711428D02*
X71732381Y31711428D01*
X71875238Y31616190D01*
X71970476Y31520952D01*
X72018095Y31425714D01*
X4351905Y47832619D02*
X4351905Y48832619D01*
X4732858Y48832619D01*
X4828096Y48785000D01*
X4875715Y48737381D01*
X4923334Y48642143D01*
X4923334Y48499286D01*
X4875715Y48404048D01*
X4828096Y48356429D01*
X4732858Y48308810D01*
X4351905Y48308810D01*
X5256667Y48832619D02*
X5875715Y48832619D01*
X5542381Y48451667D01*
X5685239Y48451667D01*
X5780477Y48404048D01*
X5828096Y48356429D01*
X5875715Y48261190D01*
X5875715Y48023095D01*
X5828096Y47927857D01*
X5780477Y47880238D01*
X5685239Y47832619D01*
X5399524Y47832619D01*
X5304286Y47880238D01*
X5256667Y47927857D01*
X5423571Y43673333D02*
X5899762Y43673333D01*
X5328333Y43387619D02*
X5661666Y44387619D01*
X5995000Y43387619D01*
X6756905Y44054286D02*
X6756905Y43387619D01*
X6328333Y44054286D02*
X6328333Y43530476D01*
X6375952Y43435238D01*
X6471190Y43387619D01*
X6614048Y43387619D01*
X6709286Y43435238D01*
X6756905Y43482857D01*
X7137857Y43387619D02*
X7661667Y44054286D01*
X7137857Y44054286D02*
X7661667Y43387619D01*
X8233095Y44387619D02*
X8328334Y44387619D01*
X8423572Y44340000D01*
X8471191Y44292381D01*
X8518810Y44197143D01*
X8566429Y44006667D01*
X8566429Y43768571D01*
X8518810Y43578095D01*
X8471191Y43482857D01*
X8423572Y43435238D01*
X8328334Y43387619D01*
X8233095Y43387619D01*
X8137857Y43435238D01*
X8090238Y43482857D01*
X8042619Y43578095D01*
X7995000Y43768571D01*
X7995000Y44006667D01*
X8042619Y44197143D01*
X8090238Y44292381D01*
X8137857Y44340000D01*
X8233095Y44387619D01*
X79202381Y51991905D02*
X78202381Y51991905D01*
X78202381Y52372858D01*
X78250000Y52468096D01*
X78297619Y52515715D01*
X78392857Y52563334D01*
X78535714Y52563334D01*
X78630952Y52515715D01*
X78678571Y52468096D01*
X78726190Y52372858D01*
X78726190Y51991905D01*
X78535714Y53420477D02*
X79202381Y53420477D01*
X78154762Y53182381D02*
X78869048Y52944286D01*
X78869048Y53563334D01*
X85171429Y48904286D02*
X85171429Y49666191D01*
X85552381Y49285239D02*
X84790476Y49285239D01*
X84552381Y50618572D02*
X84552381Y50142381D01*
X85028571Y50094762D01*
X84980952Y50142381D01*
X84933333Y50237619D01*
X84933333Y50475715D01*
X84980952Y50570953D01*
X85028571Y50618572D01*
X85123810Y50666191D01*
X85361905Y50666191D01*
X85457143Y50618572D01*
X85504762Y50570953D01*
X85552381Y50475715D01*
X85552381Y50237619D01*
X85504762Y50142381D01*
X85457143Y50094762D01*
X84552381Y50951905D02*
X85552381Y51285238D01*
X84552381Y51618572D01*
X15912381Y35481905D02*
X14912381Y35481905D01*
X14912381Y35862858D01*
X14960000Y35958096D01*
X15007619Y36005715D01*
X15102857Y36053334D01*
X15245714Y36053334D01*
X15340952Y36005715D01*
X15388571Y35958096D01*
X15436190Y35862858D01*
X15436190Y35481905D01*
X14912381Y36958096D02*
X14912381Y36481905D01*
X15388571Y36434286D01*
X15340952Y36481905D01*
X15293333Y36577143D01*
X15293333Y36815239D01*
X15340952Y36910477D01*
X15388571Y36958096D01*
X15483810Y37005715D01*
X15721905Y37005715D01*
X15817143Y36958096D01*
X15864762Y36910477D01*
X15912381Y36815239D01*
X15912381Y36577143D01*
X15864762Y36481905D01*
X15817143Y36434286D01*
X17004286Y40101429D02*
X17147143Y40053810D01*
X17194762Y40006190D01*
X17242381Y39910952D01*
X17242381Y39768095D01*
X17194762Y39672857D01*
X17147143Y39625238D01*
X17051905Y39577619D01*
X16670952Y39577619D01*
X16670952Y40577619D01*
X17004286Y40577619D01*
X17099524Y40530000D01*
X17147143Y40482381D01*
X17194762Y40387143D01*
X17194762Y40291905D01*
X17147143Y40196667D01*
X17099524Y40149048D01*
X17004286Y40101429D01*
X16670952Y40101429D01*
X18099524Y40244286D02*
X18099524Y39577619D01*
X17670952Y40244286D02*
X17670952Y39720476D01*
X17718571Y39625238D01*
X17813809Y39577619D01*
X17956667Y39577619D01*
X18051905Y39625238D01*
X18099524Y39672857D01*
X18528095Y39625238D02*
X18623333Y39577619D01*
X18813809Y39577619D01*
X18909048Y39625238D01*
X18956667Y39720476D01*
X18956667Y39768095D01*
X18909048Y39863333D01*
X18813809Y39910952D01*
X18670952Y39910952D01*
X18575714Y39958571D01*
X18528095Y40053810D01*
X18528095Y40101429D01*
X18575714Y40196667D01*
X18670952Y40244286D01*
X18813809Y40244286D01*
X18909048Y40196667D01*
X52322381Y35481905D02*
X51322381Y35481905D01*
X51322381Y35862858D01*
X51370000Y35958096D01*
X51417619Y36005715D01*
X51512857Y36053334D01*
X51655714Y36053334D01*
X51750952Y36005715D01*
X51798571Y35958096D01*
X51846190Y35862858D01*
X51846190Y35481905D01*
X51322381Y36910477D02*
X51322381Y36720000D01*
X51370000Y36624762D01*
X51417619Y36577143D01*
X51560476Y36481905D01*
X51750952Y36434286D01*
X52131905Y36434286D01*
X52227143Y36481905D01*
X52274762Y36529524D01*
X52322381Y36624762D01*
X52322381Y36815239D01*
X52274762Y36910477D01*
X52227143Y36958096D01*
X52131905Y37005715D01*
X51893810Y37005715D01*
X51798571Y36958096D01*
X51750952Y36910477D01*
X51703333Y36815239D01*
X51703333Y36624762D01*
X51750952Y36529524D01*
X51798571Y36481905D01*
X51893810Y36434286D01*
X37880000Y39625238D02*
X38022857Y39577619D01*
X38260953Y39577619D01*
X38356191Y39625238D01*
X38403810Y39672857D01*
X38451429Y39768095D01*
X38451429Y39863333D01*
X38403810Y39958571D01*
X38356191Y40006190D01*
X38260953Y40053810D01*
X38070476Y40101429D01*
X37975238Y40149048D01*
X37927619Y40196667D01*
X37880000Y40291905D01*
X37880000Y40387143D01*
X37927619Y40482381D01*
X37975238Y40530000D01*
X38070476Y40577619D01*
X38308572Y40577619D01*
X38451429Y40530000D01*
X38880000Y39577619D02*
X38880000Y40577619D01*
X39260953Y40577619D01*
X39356191Y40530000D01*
X39403810Y40482381D01*
X39451429Y40387143D01*
X39451429Y40244286D01*
X39403810Y40149048D01*
X39356191Y40101429D01*
X39260953Y40053810D01*
X38880000Y40053810D01*
X39880000Y39577619D02*
X39880000Y40577619D01*
X40546666Y40577619D02*
X40641905Y40577619D01*
X40737143Y40530000D01*
X40784762Y40482381D01*
X40832381Y40387143D01*
X40880000Y40196667D01*
X40880000Y39958571D01*
X40832381Y39768095D01*
X40784762Y39672857D01*
X40737143Y39625238D01*
X40641905Y39577619D01*
X40546666Y39577619D01*
X40451428Y39625238D01*
X40403809Y39672857D01*
X40356190Y39768095D01*
X40308571Y39958571D01*
X40308571Y40196667D01*
X40356190Y40387143D01*
X40403809Y40482381D01*
X40451428Y40530000D01*
X40546666Y40577619D01*
X541905Y47832619D02*
X541905Y48832619D01*
X922858Y48832619D01*
X1018096Y48785000D01*
X1065715Y48737381D01*
X1113334Y48642143D01*
X1113334Y48499286D01*
X1065715Y48404048D01*
X1018096Y48356429D01*
X922858Y48308810D01*
X541905Y48308810D01*
X1446667Y48832619D02*
X2113334Y48832619D01*
X1684762Y47832619D01*
X621429Y43387619D02*
X621429Y44387619D01*
X1002382Y44387619D01*
X1097620Y44340000D01*
X1145239Y44292381D01*
X1192858Y44197143D01*
X1192858Y44054286D01*
X1145239Y43959048D01*
X1097620Y43911429D01*
X1002382Y43863810D01*
X621429Y43863810D01*
X1526191Y44054286D02*
X1716667Y43387619D01*
X1907144Y43863810D01*
X2097620Y43387619D01*
X2288096Y44054286D01*
X2669048Y43387619D02*
X2669048Y44054286D01*
X2669048Y43959048D02*
X2716667Y44006667D01*
X2811905Y44054286D01*
X2954763Y44054286D01*
X3050001Y44006667D01*
X3097620Y43911429D01*
X3097620Y43387619D01*
X3097620Y43911429D02*
X3145239Y44006667D01*
X3240477Y44054286D01*
X3383334Y44054286D01*
X3478572Y44006667D01*
X3526191Y43911429D01*
X3526191Y43387619D01*
X4192857Y44387619D02*
X4288096Y44387619D01*
X4383334Y44340000D01*
X4430953Y44292381D01*
X4478572Y44197143D01*
X4526191Y44006667D01*
X4526191Y43768571D01*
X4478572Y43578095D01*
X4430953Y43482857D01*
X4383334Y43435238D01*
X4288096Y43387619D01*
X4192857Y43387619D01*
X4097619Y43435238D01*
X4050000Y43482857D01*
X4002381Y43578095D01*
X3954762Y43768571D01*
X3954762Y44006667D01*
X4002381Y44197143D01*
X4050000Y44292381D01*
X4097619Y44340000D01*
X4192857Y44387619D01*
X39911905Y52277619D02*
X39911905Y53277619D01*
X40292858Y53277619D01*
X40388096Y53230000D01*
X40435715Y53182381D01*
X40483334Y53087143D01*
X40483334Y52944286D01*
X40435715Y52849048D01*
X40388096Y52801429D01*
X40292858Y52753810D01*
X39911905Y52753810D01*
X41054762Y52849048D02*
X40959524Y52896667D01*
X40911905Y52944286D01*
X40864286Y53039524D01*
X40864286Y53087143D01*
X40911905Y53182381D01*
X40959524Y53230000D01*
X41054762Y53277619D01*
X41245239Y53277619D01*
X41340477Y53230000D01*
X41388096Y53182381D01*
X41435715Y53087143D01*
X41435715Y53039524D01*
X41388096Y52944286D01*
X41340477Y52896667D01*
X41245239Y52849048D01*
X41054762Y52849048D01*
X40959524Y52801429D01*
X40911905Y52753810D01*
X40864286Y52658571D01*
X40864286Y52468095D01*
X40911905Y52372857D01*
X40959524Y52325238D01*
X41054762Y52277619D01*
X41245239Y52277619D01*
X41340477Y52325238D01*
X41388096Y52372857D01*
X41435715Y52468095D01*
X41435715Y52658571D01*
X41388096Y52753810D01*
X41340477Y52801429D01*
X41245239Y52849048D01*
X42888571Y52563333D02*
X43364762Y52563333D01*
X42793333Y52277619D02*
X43126666Y53277619D01*
X43460000Y52277619D01*
X44221905Y52944286D02*
X44221905Y52277619D01*
X43793333Y52944286D02*
X43793333Y52420476D01*
X43840952Y52325238D01*
X43936190Y52277619D01*
X44079048Y52277619D01*
X44174286Y52325238D01*
X44221905Y52372857D01*
X44602857Y52277619D02*
X45126667Y52944286D01*
X44602857Y52944286D02*
X45126667Y52277619D01*
X46031429Y52277619D02*
X45460000Y52277619D01*
X45745714Y52277619D02*
X45745714Y53277619D01*
X45650476Y53134762D01*
X45555238Y53039524D01*
X45460000Y52991905D01*
X39911905Y49737619D02*
X39911905Y50737619D01*
X40292858Y50737619D01*
X40388096Y50690000D01*
X40435715Y50642381D01*
X40483334Y50547143D01*
X40483334Y50404286D01*
X40435715Y50309048D01*
X40388096Y50261429D01*
X40292858Y50213810D01*
X39911905Y50213810D01*
X40959524Y49737619D02*
X41150000Y49737619D01*
X41245239Y49785238D01*
X41292858Y49832857D01*
X41388096Y49975714D01*
X41435715Y50166190D01*
X41435715Y50547143D01*
X41388096Y50642381D01*
X41340477Y50690000D01*
X41245239Y50737619D01*
X41054762Y50737619D01*
X40959524Y50690000D01*
X40911905Y50642381D01*
X40864286Y50547143D01*
X40864286Y50309048D01*
X40911905Y50213810D01*
X40959524Y50166190D01*
X41054762Y50118571D01*
X41245239Y50118571D01*
X41340477Y50166190D01*
X41388096Y50213810D01*
X41435715Y50309048D01*
X43221905Y49785238D02*
X43364762Y49737619D01*
X43602858Y49737619D01*
X43698096Y49785238D01*
X43745715Y49832857D01*
X43793334Y49928095D01*
X43793334Y50023333D01*
X43745715Y50118571D01*
X43698096Y50166190D01*
X43602858Y50213810D01*
X43412381Y50261429D01*
X43317143Y50309048D01*
X43269524Y50356667D01*
X43221905Y50451905D01*
X43221905Y50547143D01*
X43269524Y50642381D01*
X43317143Y50690000D01*
X43412381Y50737619D01*
X43650477Y50737619D01*
X43793334Y50690000D01*
X44174286Y49785238D02*
X44317143Y49737619D01*
X44555239Y49737619D01*
X44650477Y49785238D01*
X44698096Y49832857D01*
X44745715Y49928095D01*
X44745715Y50023333D01*
X44698096Y50118571D01*
X44650477Y50166190D01*
X44555239Y50213810D01*
X44364762Y50261429D01*
X44269524Y50309048D01*
X44221905Y50356667D01*
X44174286Y50451905D01*
X44174286Y50547143D01*
X44221905Y50642381D01*
X44269524Y50690000D01*
X44364762Y50737619D01*
X44602858Y50737619D01*
X44745715Y50690000D01*
X45698096Y49737619D02*
X45126667Y49737619D01*
X45412381Y49737619D02*
X45412381Y50737619D01*
X45317143Y50594762D01*
X45221905Y50499524D01*
X45126667Y50451905D01*
X700714Y24337619D02*
X700714Y25337619D01*
X1081667Y25337619D01*
X1176905Y25290000D01*
X1224524Y25242381D01*
X1272143Y25147143D01*
X1272143Y25004286D01*
X1224524Y24909048D01*
X1176905Y24861429D01*
X1081667Y24813810D01*
X700714Y24813810D01*
X2224524Y24337619D02*
X1653095Y24337619D01*
X1938809Y24337619D02*
X1938809Y25337619D01*
X1843571Y25194762D01*
X1748333Y25099524D01*
X1653095Y25051905D01*
X2843571Y25337619D02*
X2938810Y25337619D01*
X3034048Y25290000D01*
X3081667Y25242381D01*
X3129286Y25147143D01*
X3176905Y24956667D01*
X3176905Y24718571D01*
X3129286Y24528095D01*
X3081667Y24432857D01*
X3034048Y24385238D01*
X2938810Y24337619D01*
X2843571Y24337619D01*
X2748333Y24385238D01*
X2700714Y24432857D01*
X2653095Y24528095D01*
X2605476Y24718571D01*
X2605476Y24956667D01*
X2653095Y25147143D01*
X2700714Y25242381D01*
X2748333Y25290000D01*
X2843571Y25337619D01*
X962619Y25893333D02*
X1438810Y25893333D01*
X867381Y25607619D02*
X1200714Y26607619D01*
X1534048Y25607619D01*
X1867381Y25607619D02*
X1867381Y26274286D01*
X1867381Y26607619D02*
X1819762Y26560000D01*
X1867381Y26512381D01*
X1915000Y26560000D01*
X1867381Y26607619D01*
X1867381Y26512381D01*
X2534047Y26607619D02*
X2629286Y26607619D01*
X2724524Y26560000D01*
X2772143Y26512381D01*
X2819762Y26417143D01*
X2867381Y26226667D01*
X2867381Y25988571D01*
X2819762Y25798095D01*
X2772143Y25702857D01*
X2724524Y25655238D01*
X2629286Y25607619D01*
X2534047Y25607619D01*
X2438809Y25655238D01*
X2391190Y25702857D01*
X2343571Y25798095D01*
X2295952Y25988571D01*
X2295952Y26226667D01*
X2343571Y26417143D01*
X2391190Y26512381D01*
X2438809Y26560000D01*
X2534047Y26607619D01*
X700714Y15447619D02*
X700714Y16447619D01*
X1081667Y16447619D01*
X1176905Y16400000D01*
X1224524Y16352381D01*
X1272143Y16257143D01*
X1272143Y16114286D01*
X1224524Y16019048D01*
X1176905Y15971429D01*
X1081667Y15923810D01*
X700714Y15923810D01*
X2224524Y15447619D02*
X1653095Y15447619D01*
X1938809Y15447619D02*
X1938809Y16447619D01*
X1843571Y16304762D01*
X1748333Y16209524D01*
X1653095Y16161905D01*
X3176905Y15447619D02*
X2605476Y15447619D01*
X2891190Y15447619D02*
X2891190Y16447619D01*
X2795952Y16304762D01*
X2700714Y16209524D01*
X2605476Y16161905D01*
X962619Y17003333D02*
X1438810Y17003333D01*
X867381Y16717619D02*
X1200714Y17717619D01*
X1534048Y16717619D01*
X1867381Y16717619D02*
X1867381Y17384286D01*
X1867381Y17717619D02*
X1819762Y17670000D01*
X1867381Y17622381D01*
X1915000Y17670000D01*
X1867381Y17717619D01*
X1867381Y17622381D01*
X2867381Y16717619D02*
X2295952Y16717619D01*
X2581666Y16717619D02*
X2581666Y17717619D01*
X2486428Y17574762D01*
X2391190Y17479524D01*
X2295952Y17431905D01*
X11495714Y16717619D02*
X11495714Y17717619D01*
X11876667Y17717619D01*
X11971905Y17670000D01*
X12019524Y17622381D01*
X12067143Y17527143D01*
X12067143Y17384286D01*
X12019524Y17289048D01*
X11971905Y17241429D01*
X11876667Y17193810D01*
X11495714Y17193810D01*
X13019524Y16717619D02*
X12448095Y16717619D01*
X12733809Y16717619D02*
X12733809Y17717619D01*
X12638571Y17574762D01*
X12543333Y17479524D01*
X12448095Y17431905D01*
X13400476Y17622381D02*
X13448095Y17670000D01*
X13543333Y17717619D01*
X13781429Y17717619D01*
X13876667Y17670000D01*
X13924286Y17622381D01*
X13971905Y17527143D01*
X13971905Y17431905D01*
X13924286Y17289048D01*
X13352857Y16717619D01*
X13971905Y16717619D01*
X8582619Y17003333D02*
X9058810Y17003333D01*
X8487381Y16717619D02*
X8820714Y17717619D01*
X9154048Y16717619D01*
X9487381Y16717619D02*
X9487381Y17384286D01*
X9487381Y17717619D02*
X9439762Y17670000D01*
X9487381Y17622381D01*
X9535000Y17670000D01*
X9487381Y17717619D01*
X9487381Y17622381D01*
X9915952Y17622381D02*
X9963571Y17670000D01*
X10058809Y17717619D01*
X10296905Y17717619D01*
X10392143Y17670000D01*
X10439762Y17622381D01*
X10487381Y17527143D01*
X10487381Y17431905D01*
X10439762Y17289048D01*
X9868333Y16717619D01*
X10487381Y16717619D01*
X11495714Y14177619D02*
X11495714Y15177619D01*
X11876667Y15177619D01*
X11971905Y15130000D01*
X12019524Y15082381D01*
X12067143Y14987143D01*
X12067143Y14844286D01*
X12019524Y14749048D01*
X11971905Y14701429D01*
X11876667Y14653810D01*
X11495714Y14653810D01*
X13019524Y14177619D02*
X12448095Y14177619D01*
X12733809Y14177619D02*
X12733809Y15177619D01*
X12638571Y15034762D01*
X12543333Y14939524D01*
X12448095Y14891905D01*
X13352857Y15177619D02*
X13971905Y15177619D01*
X13638571Y14796667D01*
X13781429Y14796667D01*
X13876667Y14749048D01*
X13924286Y14701429D01*
X13971905Y14606190D01*
X13971905Y14368095D01*
X13924286Y14272857D01*
X13876667Y14225238D01*
X13781429Y14177619D01*
X13495714Y14177619D01*
X13400476Y14225238D01*
X13352857Y14272857D01*
X8582619Y14463333D02*
X9058810Y14463333D01*
X8487381Y14177619D02*
X8820714Y15177619D01*
X9154048Y14177619D01*
X9487381Y14177619D02*
X9487381Y14844286D01*
X9487381Y15177619D02*
X9439762Y15130000D01*
X9487381Y15082381D01*
X9535000Y15130000D01*
X9487381Y15177619D01*
X9487381Y15082381D01*
X9868333Y15177619D02*
X10487381Y15177619D01*
X10154047Y14796667D01*
X10296905Y14796667D01*
X10392143Y14749048D01*
X10439762Y14701429D01*
X10487381Y14606190D01*
X10487381Y14368095D01*
X10439762Y14272857D01*
X10392143Y14225238D01*
X10296905Y14177619D01*
X10011190Y14177619D01*
X9915952Y14225238D01*
X9868333Y14272857D01*
X28005714Y24337619D02*
X28005714Y25337619D01*
X28386667Y25337619D01*
X28481905Y25290000D01*
X28529524Y25242381D01*
X28577143Y25147143D01*
X28577143Y25004286D01*
X28529524Y24909048D01*
X28481905Y24861429D01*
X28386667Y24813810D01*
X28005714Y24813810D01*
X29529524Y24337619D02*
X28958095Y24337619D01*
X29243809Y24337619D02*
X29243809Y25337619D01*
X29148571Y25194762D01*
X29053333Y25099524D01*
X28958095Y25051905D01*
X30386667Y25004286D02*
X30386667Y24337619D01*
X30148571Y25385238D02*
X29910476Y24670952D01*
X30529524Y24670952D01*
X35975000Y22083333D02*
X36451191Y22083333D01*
X35879762Y21797619D02*
X36213095Y22797619D01*
X36546429Y21797619D01*
X37070238Y22797619D02*
X37260715Y22797619D01*
X37355953Y22750000D01*
X37451191Y22654762D01*
X37498810Y22464286D01*
X37498810Y22130952D01*
X37451191Y21940476D01*
X37355953Y21845238D01*
X37260715Y21797619D01*
X37070238Y21797619D01*
X36975000Y21845238D01*
X36879762Y21940476D01*
X36832143Y22130952D01*
X36832143Y22464286D01*
X36879762Y22654762D01*
X36975000Y22750000D01*
X37070238Y22797619D01*
X38355953Y22464286D02*
X38355953Y21797619D01*
X37927381Y22464286D02*
X37927381Y21940476D01*
X37975000Y21845238D01*
X38070238Y21797619D01*
X38213096Y21797619D01*
X38308334Y21845238D01*
X38355953Y21892857D01*
X38689286Y22464286D02*
X39070238Y22464286D01*
X38832143Y22797619D02*
X38832143Y21940476D01*
X38879762Y21845238D01*
X38975000Y21797619D01*
X39070238Y21797619D01*
X59755714Y3382619D02*
X59755714Y4382619D01*
X60136667Y4382619D01*
X60231905Y4335000D01*
X60279524Y4287381D01*
X60327143Y4192143D01*
X60327143Y4049286D01*
X60279524Y3954048D01*
X60231905Y3906429D01*
X60136667Y3858810D01*
X59755714Y3858810D01*
X61279524Y3382619D02*
X60708095Y3382619D01*
X60993809Y3382619D02*
X60993809Y4382619D01*
X60898571Y4239762D01*
X60803333Y4144524D01*
X60708095Y4096905D01*
X62184286Y4382619D02*
X61708095Y4382619D01*
X61660476Y3906429D01*
X61708095Y3954048D01*
X61803333Y4001667D01*
X62041429Y4001667D01*
X62136667Y3954048D01*
X62184286Y3906429D01*
X62231905Y3811190D01*
X62231905Y3573095D01*
X62184286Y3477857D01*
X62136667Y3430238D01*
X62041429Y3382619D01*
X61803333Y3382619D01*
X61708095Y3430238D01*
X61660476Y3477857D01*
X55779048Y1525238D02*
X55921905Y1477619D01*
X56160001Y1477619D01*
X56255239Y1525238D01*
X56302858Y1572857D01*
X56350477Y1668095D01*
X56350477Y1763333D01*
X56302858Y1858571D01*
X56255239Y1906190D01*
X56160001Y1953810D01*
X55969524Y2001429D01*
X55874286Y2049048D01*
X55826667Y2096667D01*
X55779048Y2191905D01*
X55779048Y2287143D01*
X55826667Y2382381D01*
X55874286Y2430000D01*
X55969524Y2477619D01*
X56207620Y2477619D01*
X56350477Y2430000D01*
X57445715Y1382381D02*
X57350477Y1430000D01*
X57255239Y1525238D01*
X57112382Y1668095D01*
X57017143Y1715714D01*
X56921905Y1715714D01*
X56969524Y1477619D02*
X56874286Y1525238D01*
X56779048Y1620476D01*
X56731429Y1810952D01*
X56731429Y2144286D01*
X56779048Y2334762D01*
X56874286Y2430000D01*
X56969524Y2477619D01*
X57160001Y2477619D01*
X57255239Y2430000D01*
X57350477Y2334762D01*
X57398096Y2144286D01*
X57398096Y1810952D01*
X57350477Y1620476D01*
X57255239Y1525238D01*
X57160001Y1477619D01*
X56969524Y1477619D01*
X57731429Y2477619D02*
X57969524Y1477619D01*
X58160001Y2191905D01*
X58350477Y1477619D01*
X58588572Y2477619D01*
X1319762Y11002619D02*
X986428Y11478810D01*
X748333Y11002619D02*
X748333Y12002619D01*
X1129286Y12002619D01*
X1224524Y11955000D01*
X1272143Y11907381D01*
X1319762Y11812143D01*
X1319762Y11669286D01*
X1272143Y11574048D01*
X1224524Y11526429D01*
X1129286Y11478810D01*
X748333Y11478810D01*
X1605476Y12002619D02*
X1938809Y11002619D01*
X2272143Y12002619D01*
X3129286Y11002619D02*
X2557857Y11002619D01*
X2843571Y11002619D02*
X2843571Y12002619D01*
X2748333Y11859762D01*
X2653095Y11764524D01*
X2557857Y11716905D01*
X20838095Y25127619D02*
X20838095Y24318095D01*
X20885714Y24222857D01*
X20933333Y24175238D01*
X21028571Y24127619D01*
X21219048Y24127619D01*
X21314286Y24175238D01*
X21361905Y24222857D01*
X21409524Y24318095D01*
X21409524Y25127619D01*
X22409524Y24127619D02*
X21838095Y24127619D01*
X22123809Y24127619D02*
X22123809Y25127619D01*
X22028571Y24984762D01*
X21933333Y24889524D01*
X21838095Y24841905D01*
X18504762Y842619D02*
X18504762Y1842619D01*
X18885715Y1842619D01*
X18980953Y1795000D01*
X19028572Y1747381D01*
X19076191Y1652143D01*
X19076191Y1509286D01*
X19028572Y1414048D01*
X18980953Y1366429D01*
X18885715Y1318810D01*
X18504762Y1318810D01*
X20076191Y937857D02*
X20028572Y890238D01*
X19885715Y842619D01*
X19790477Y842619D01*
X19647619Y890238D01*
X19552381Y985476D01*
X19504762Y1080714D01*
X19457143Y1271190D01*
X19457143Y1414048D01*
X19504762Y1604524D01*
X19552381Y1699762D01*
X19647619Y1795000D01*
X19790477Y1842619D01*
X19885715Y1842619D01*
X20028572Y1795000D01*
X20076191Y1747381D01*
X20838096Y1366429D02*
X20504762Y1366429D01*
X20504762Y842619D02*
X20504762Y1842619D01*
X20980953Y1842619D01*
X21504762Y1414048D02*
X21409524Y1461667D01*
X21361905Y1509286D01*
X21314286Y1604524D01*
X21314286Y1652143D01*
X21361905Y1747381D01*
X21409524Y1795000D01*
X21504762Y1842619D01*
X21695239Y1842619D01*
X21790477Y1795000D01*
X21838096Y1747381D01*
X21885715Y1652143D01*
X21885715Y1604524D01*
X21838096Y1509286D01*
X21790477Y1461667D01*
X21695239Y1414048D01*
X21504762Y1414048D01*
X21409524Y1366429D01*
X21361905Y1318810D01*
X21314286Y1223571D01*
X21314286Y1033095D01*
X21361905Y937857D01*
X21409524Y890238D01*
X21504762Y842619D01*
X21695239Y842619D01*
X21790477Y890238D01*
X21838096Y937857D01*
X21885715Y1033095D01*
X21885715Y1223571D01*
X21838096Y1318810D01*
X21790477Y1366429D01*
X21695239Y1414048D01*
X22790477Y1842619D02*
X22314286Y1842619D01*
X22266667Y1366429D01*
X22314286Y1414048D01*
X22409524Y1461667D01*
X22647620Y1461667D01*
X22742858Y1414048D01*
X22790477Y1366429D01*
X22838096Y1271190D01*
X22838096Y1033095D01*
X22790477Y937857D01*
X22742858Y890238D01*
X22647620Y842619D01*
X22409524Y842619D01*
X22314286Y890238D01*
X22266667Y937857D01*
X23314286Y842619D02*
X23504762Y842619D01*
X23600001Y890238D01*
X23647620Y937857D01*
X23742858Y1080714D01*
X23790477Y1271190D01*
X23790477Y1652143D01*
X23742858Y1747381D01*
X23695239Y1795000D01*
X23600001Y1842619D01*
X23409524Y1842619D01*
X23314286Y1795000D01*
X23266667Y1747381D01*
X23219048Y1652143D01*
X23219048Y1414048D01*
X23266667Y1318810D01*
X23314286Y1271190D01*
X23409524Y1223571D01*
X23600001Y1223571D01*
X23695239Y1271190D01*
X23742858Y1318810D01*
X23790477Y1414048D01*
X24742858Y842619D02*
X24171429Y842619D01*
X24457143Y842619D02*
X24457143Y1842619D01*
X24361905Y1699762D01*
X24266667Y1604524D01*
X24171429Y1556905D01*
X56398095Y18777619D02*
X56398095Y17968095D01*
X56445714Y17872857D01*
X56493333Y17825238D01*
X56588571Y17777619D01*
X56779048Y17777619D01*
X56874286Y17825238D01*
X56921905Y17872857D01*
X56969524Y17968095D01*
X56969524Y18777619D01*
X57398095Y18682381D02*
X57445714Y18730000D01*
X57540952Y18777619D01*
X57779048Y18777619D01*
X57874286Y18730000D01*
X57921905Y18682381D01*
X57969524Y18587143D01*
X57969524Y18491905D01*
X57921905Y18349048D01*
X57350476Y17777619D01*
X57969524Y17777619D01*
X54517143Y4652619D02*
X54517143Y5652619D01*
X54755238Y5652619D01*
X54898096Y5605000D01*
X54993334Y5509762D01*
X55040953Y5414524D01*
X55088572Y5224048D01*
X55088572Y5081190D01*
X55040953Y4890714D01*
X54993334Y4795476D01*
X54898096Y4700238D01*
X54755238Y4652619D01*
X54517143Y4652619D01*
X55469524Y4700238D02*
X55612381Y4652619D01*
X55850477Y4652619D01*
X55945715Y4700238D01*
X55993334Y4747857D01*
X56040953Y4843095D01*
X56040953Y4938333D01*
X55993334Y5033571D01*
X55945715Y5081190D01*
X55850477Y5128810D01*
X55660000Y5176429D01*
X55564762Y5224048D01*
X55517143Y5271667D01*
X55469524Y5366905D01*
X55469524Y5462143D01*
X55517143Y5557381D01*
X55564762Y5605000D01*
X55660000Y5652619D01*
X55898096Y5652619D01*
X56040953Y5605000D01*
X56993334Y4652619D02*
X56421905Y4652619D01*
X56707619Y4652619D02*
X56707619Y5652619D01*
X56612381Y5509762D01*
X56517143Y5414524D01*
X56421905Y5366905D01*
X57326667Y5652619D02*
X57945715Y5652619D01*
X57612381Y5271667D01*
X57755239Y5271667D01*
X57850477Y5224048D01*
X57898096Y5176429D01*
X57945715Y5081190D01*
X57945715Y4843095D01*
X57898096Y4747857D01*
X57850477Y4700238D01*
X57755239Y4652619D01*
X57469524Y4652619D01*
X57374286Y4700238D01*
X57326667Y4747857D01*
X58564762Y5652619D02*
X58660001Y5652619D01*
X58755239Y5605000D01*
X58802858Y5557381D01*
X58850477Y5462143D01*
X58898096Y5271667D01*
X58898096Y5033571D01*
X58850477Y4843095D01*
X58802858Y4747857D01*
X58755239Y4700238D01*
X58660001Y4652619D01*
X58564762Y4652619D01*
X58469524Y4700238D01*
X58421905Y4747857D01*
X58374286Y4843095D01*
X58326667Y5033571D01*
X58326667Y5271667D01*
X58374286Y5462143D01*
X58421905Y5557381D01*
X58469524Y5605000D01*
X58564762Y5652619D01*
X59231429Y5652619D02*
X59898096Y5652619D01*
X59469524Y4652619D01*
X52691190Y31933809D02*
X53167381Y31933809D01*
X52167381Y31600476D02*
X52691190Y31933809D01*
X52167381Y32267143D01*
X53167381Y33124286D02*
X53167381Y32552857D01*
X53167381Y32838571D02*
X52167381Y32838571D01*
X52310238Y32743333D01*
X52405476Y32648095D01*
X52453095Y32552857D01*
X61287143Y48793334D02*
X61334762Y48745715D01*
X61382381Y48602858D01*
X61382381Y48507620D01*
X61334762Y48364762D01*
X61239524Y48269524D01*
X61144286Y48221905D01*
X60953810Y48174286D01*
X60810952Y48174286D01*
X60620476Y48221905D01*
X60525238Y48269524D01*
X60430000Y48364762D01*
X60382381Y48507620D01*
X60382381Y48602858D01*
X60430000Y48745715D01*
X60477619Y48793334D01*
X60382381Y49698096D02*
X60382381Y49221905D01*
X60858571Y49174286D01*
X60810952Y49221905D01*
X60763333Y49317143D01*
X60763333Y49555239D01*
X60810952Y49650477D01*
X60858571Y49698096D01*
X60953810Y49745715D01*
X61191905Y49745715D01*
X61287143Y49698096D01*
X61334762Y49650477D01*
X61382381Y49555239D01*
X61382381Y49317143D01*
X61334762Y49221905D01*
X61287143Y49174286D01*
M02*
