%TF.GenerationSoftware,KiCad,Pcbnew,4.0.7*%
%TF.CreationDate,2018-04-11T15:18:22+03:00*%
%TF.ProjectId,pi_adc_rtc_etc,70695F6164635F7274635F6574632E6B,rev?*%
%TF.FileFunction,Legend,Bot*%
%FSLAX46Y46*%
G04 Gerber Fmt 4.6, Leading zero omitted, Abs format (unit mm)*
G04 Created by KiCad (PCBNEW 4.0.7) date 04/11/18 15:18:22*
%MOMM*%
%LPD*%
G01*
G04 APERTURE LIST*
%ADD10C,0.150000*%
%ADD11C,0.120000*%
G04 APERTURE END LIST*
D10*
X85000000Y39000000D02*
X85000000Y56000000D01*
X74000000Y39000000D02*
X85000000Y39000000D01*
X74000000Y24000000D02*
X74000000Y39000000D01*
X85000000Y24000000D02*
X74000000Y24000000D01*
X85000000Y0D02*
X85000000Y24000000D01*
X85000000Y56000000D02*
X0Y56000000D01*
X0Y0D02*
X85000000Y0D01*
X0Y56000000D02*
X0Y0D01*
D11*
X31510000Y37220000D02*
X31510000Y35220000D01*
X29470000Y35220000D02*
X29470000Y37220000D01*
X65020000Y27710000D02*
X59220000Y27710000D01*
X65020000Y24410000D02*
X59220000Y24410000D01*
X65020000Y27710000D02*
X65020000Y24410000D01*
X59970000Y29620000D02*
X61970000Y29620000D01*
X61970000Y27580000D02*
X59970000Y27580000D01*
X21350000Y20710000D02*
X21350000Y18710000D01*
X19310000Y18710000D02*
X19310000Y20710000D01*
X65020000Y37870000D02*
X59220000Y37870000D01*
X65020000Y34570000D02*
X59220000Y34570000D01*
X65020000Y37870000D02*
X65020000Y34570000D01*
X61970000Y32660000D02*
X59970000Y32660000D01*
X59970000Y34700000D02*
X61970000Y34700000D01*
X16270000Y37220000D02*
X16270000Y35220000D01*
X14230000Y35220000D02*
X14230000Y37220000D01*
X34030000Y23770000D02*
X32030000Y23770000D01*
X32030000Y25810000D02*
X34030000Y25810000D01*
X21850000Y13630000D02*
X21850000Y15630000D01*
X23890000Y15630000D02*
X23890000Y13630000D01*
X37080000Y13740000D02*
X31280000Y13740000D01*
X37080000Y10440000D02*
X31280000Y10440000D01*
X37080000Y13740000D02*
X37080000Y10440000D01*
X34030000Y5990000D02*
X32030000Y5990000D01*
X32030000Y8030000D02*
X34030000Y8030000D01*
X23940000Y28870000D02*
X23940000Y30870000D01*
X21800000Y30870000D02*
X21800000Y28870000D01*
X21400000Y28870000D02*
X21400000Y30870000D01*
X19260000Y30870000D02*
X19260000Y28870000D01*
X26480000Y28870000D02*
X26480000Y30870000D01*
X24340000Y30870000D02*
X24340000Y28870000D01*
X13710000Y23320000D02*
X11710000Y23320000D01*
X11710000Y21180000D02*
X13710000Y21180000D01*
X13710000Y20780000D02*
X11710000Y20780000D01*
X11710000Y18640000D02*
X13710000Y18640000D01*
X13710000Y18240000D02*
X11710000Y18240000D01*
X11710000Y16100000D02*
X13710000Y16100000D01*
X13710000Y15700000D02*
X11710000Y15700000D01*
X11710000Y13560000D02*
X13710000Y13560000D01*
X29490000Y18640000D02*
X31490000Y18640000D01*
X31490000Y20780000D02*
X29490000Y20780000D01*
X32030000Y26260000D02*
X34030000Y26260000D01*
X34030000Y28400000D02*
X32030000Y28400000D01*
X34030000Y16970000D02*
X32030000Y16970000D01*
X32030000Y14830000D02*
X34030000Y14830000D01*
X7360000Y3000000D02*
X5360000Y3000000D01*
X5360000Y860000D02*
X7360000Y860000D01*
X5360000Y8480000D02*
X7360000Y8480000D01*
X7360000Y10620000D02*
X5360000Y10620000D01*
X72130000Y32620000D02*
X72130000Y25320000D01*
X72130000Y25320000D02*
X70130000Y25320000D01*
X70130000Y25320000D02*
X70130000Y32620000D01*
D10*
X32752143Y38291666D02*
X32799762Y38339285D01*
X32847381Y38482142D01*
X32847381Y38577380D01*
X32799762Y38720238D01*
X32704524Y38815476D01*
X32609286Y38863095D01*
X32418810Y38910714D01*
X32275952Y38910714D01*
X32085476Y38863095D01*
X31990238Y38815476D01*
X31895000Y38720238D01*
X31847381Y38577380D01*
X31847381Y38482142D01*
X31895000Y38339285D01*
X31942619Y38291666D01*
X32847381Y37339285D02*
X32847381Y37910714D01*
X32847381Y37625000D02*
X31847381Y37625000D01*
X31990238Y37720238D01*
X32085476Y37815476D01*
X32133095Y37910714D01*
X66851666Y25067857D02*
X66899285Y25020238D01*
X67042142Y24972619D01*
X67137380Y24972619D01*
X67280238Y25020238D01*
X67375476Y25115476D01*
X67423095Y25210714D01*
X67470714Y25401190D01*
X67470714Y25544048D01*
X67423095Y25734524D01*
X67375476Y25829762D01*
X67280238Y25925000D01*
X67137380Y25972619D01*
X67042142Y25972619D01*
X66899285Y25925000D01*
X66851666Y25877381D01*
X66470714Y25877381D02*
X66423095Y25925000D01*
X66327857Y25972619D01*
X66089761Y25972619D01*
X65994523Y25925000D01*
X65946904Y25877381D01*
X65899285Y25782143D01*
X65899285Y25686905D01*
X65946904Y25544048D01*
X66518333Y24972619D01*
X65899285Y24972619D01*
X66851666Y28242857D02*
X66899285Y28195238D01*
X67042142Y28147619D01*
X67137380Y28147619D01*
X67280238Y28195238D01*
X67375476Y28290476D01*
X67423095Y28385714D01*
X67470714Y28576190D01*
X67470714Y28719048D01*
X67423095Y28909524D01*
X67375476Y29004762D01*
X67280238Y29100000D01*
X67137380Y29147619D01*
X67042142Y29147619D01*
X66899285Y29100000D01*
X66851666Y29052381D01*
X65994523Y28814286D02*
X65994523Y28147619D01*
X66232619Y29195238D02*
X66470714Y28480952D01*
X65851666Y28480952D01*
X22437143Y19876666D02*
X22484762Y19924285D01*
X22532381Y20067142D01*
X22532381Y20162380D01*
X22484762Y20305238D01*
X22389524Y20400476D01*
X22294286Y20448095D01*
X22103810Y20495714D01*
X21960952Y20495714D01*
X21770476Y20448095D01*
X21675238Y20400476D01*
X21580000Y20305238D01*
X21532381Y20162380D01*
X21532381Y20067142D01*
X21580000Y19924285D01*
X21627619Y19876666D01*
X21532381Y19019523D02*
X21532381Y19210000D01*
X21580000Y19305238D01*
X21627619Y19352857D01*
X21770476Y19448095D01*
X21960952Y19495714D01*
X22341905Y19495714D01*
X22437143Y19448095D01*
X22484762Y19400476D01*
X22532381Y19305238D01*
X22532381Y19114761D01*
X22484762Y19019523D01*
X22437143Y18971904D01*
X22341905Y18924285D01*
X22103810Y18924285D01*
X22008571Y18971904D01*
X21960952Y19019523D01*
X21913333Y19114761D01*
X21913333Y19305238D01*
X21960952Y19400476D01*
X22008571Y19448095D01*
X22103810Y19495714D01*
X66851666Y36497857D02*
X66899285Y36450238D01*
X67042142Y36402619D01*
X67137380Y36402619D01*
X67280238Y36450238D01*
X67375476Y36545476D01*
X67423095Y36640714D01*
X67470714Y36831190D01*
X67470714Y36974048D01*
X67423095Y37164524D01*
X67375476Y37259762D01*
X67280238Y37355000D01*
X67137380Y37402619D01*
X67042142Y37402619D01*
X66899285Y37355000D01*
X66851666Y37307381D01*
X66518333Y37402619D02*
X65851666Y37402619D01*
X66280238Y36402619D01*
X65581666Y33322857D02*
X65629285Y33275238D01*
X65772142Y33227619D01*
X65867380Y33227619D01*
X66010238Y33275238D01*
X66105476Y33370476D01*
X66153095Y33465714D01*
X66200714Y33656190D01*
X66200714Y33799048D01*
X66153095Y33989524D01*
X66105476Y34084762D01*
X66010238Y34180000D01*
X65867380Y34227619D01*
X65772142Y34227619D01*
X65629285Y34180000D01*
X65581666Y34132381D01*
X65010238Y33799048D02*
X65105476Y33846667D01*
X65153095Y33894286D01*
X65200714Y33989524D01*
X65200714Y34037143D01*
X65153095Y34132381D01*
X65105476Y34180000D01*
X65010238Y34227619D01*
X64819761Y34227619D01*
X64724523Y34180000D01*
X64676904Y34132381D01*
X64629285Y34037143D01*
X64629285Y33989524D01*
X64676904Y33894286D01*
X64724523Y33846667D01*
X64819761Y33799048D01*
X65010238Y33799048D01*
X65105476Y33751429D01*
X65153095Y33703810D01*
X65200714Y33608571D01*
X65200714Y33418095D01*
X65153095Y33322857D01*
X65105476Y33275238D01*
X65010238Y33227619D01*
X64819761Y33227619D01*
X64724523Y33275238D01*
X64676904Y33322857D01*
X64629285Y33418095D01*
X64629285Y33608571D01*
X64676904Y33703810D01*
X64724523Y33751429D01*
X64819761Y33799048D01*
X13702143Y38291666D02*
X13749762Y38339285D01*
X13797381Y38482142D01*
X13797381Y38577380D01*
X13749762Y38720238D01*
X13654524Y38815476D01*
X13559286Y38863095D01*
X13368810Y38910714D01*
X13225952Y38910714D01*
X13035476Y38863095D01*
X12940238Y38815476D01*
X12845000Y38720238D01*
X12797381Y38577380D01*
X12797381Y38482142D01*
X12845000Y38339285D01*
X12892619Y38291666D01*
X13797381Y37815476D02*
X13797381Y37625000D01*
X13749762Y37529761D01*
X13702143Y37482142D01*
X13559286Y37386904D01*
X13368810Y37339285D01*
X12987857Y37339285D01*
X12892619Y37386904D01*
X12845000Y37434523D01*
X12797381Y37529761D01*
X12797381Y37720238D01*
X12845000Y37815476D01*
X12892619Y37863095D01*
X12987857Y37910714D01*
X13225952Y37910714D01*
X13321190Y37863095D01*
X13368810Y37815476D01*
X13416429Y37720238D01*
X13416429Y37529761D01*
X13368810Y37434523D01*
X13321190Y37386904D01*
X13225952Y37339285D01*
X38752857Y25067857D02*
X38800476Y25020238D01*
X38943333Y24972619D01*
X39038571Y24972619D01*
X39181429Y25020238D01*
X39276667Y25115476D01*
X39324286Y25210714D01*
X39371905Y25401190D01*
X39371905Y25544048D01*
X39324286Y25734524D01*
X39276667Y25829762D01*
X39181429Y25925000D01*
X39038571Y25972619D01*
X38943333Y25972619D01*
X38800476Y25925000D01*
X38752857Y25877381D01*
X37800476Y24972619D02*
X38371905Y24972619D01*
X38086191Y24972619D02*
X38086191Y25972619D01*
X38181429Y25829762D01*
X38276667Y25734524D01*
X38371905Y25686905D01*
X37181429Y25972619D02*
X37086190Y25972619D01*
X36990952Y25925000D01*
X36943333Y25877381D01*
X36895714Y25782143D01*
X36848095Y25591667D01*
X36848095Y25353571D01*
X36895714Y25163095D01*
X36943333Y25067857D01*
X36990952Y25020238D01*
X37086190Y24972619D01*
X37181429Y24972619D01*
X37276667Y25020238D01*
X37324286Y25067857D01*
X37371905Y25163095D01*
X37419524Y25353571D01*
X37419524Y25591667D01*
X37371905Y25782143D01*
X37324286Y25877381D01*
X37276667Y25925000D01*
X37181429Y25972619D01*
X21477143Y15272857D02*
X21524762Y15320476D01*
X21572381Y15463333D01*
X21572381Y15558571D01*
X21524762Y15701429D01*
X21429524Y15796667D01*
X21334286Y15844286D01*
X21143810Y15891905D01*
X21000952Y15891905D01*
X20810476Y15844286D01*
X20715238Y15796667D01*
X20620000Y15701429D01*
X20572381Y15558571D01*
X20572381Y15463333D01*
X20620000Y15320476D01*
X20667619Y15272857D01*
X21572381Y14320476D02*
X21572381Y14891905D01*
X21572381Y14606191D02*
X20572381Y14606191D01*
X20715238Y14701429D01*
X20810476Y14796667D01*
X20858095Y14891905D01*
X21572381Y13368095D02*
X21572381Y13939524D01*
X21572381Y13653810D02*
X20572381Y13653810D01*
X20715238Y13749048D01*
X20810476Y13844286D01*
X20858095Y13939524D01*
X39387857Y10462857D02*
X39435476Y10415238D01*
X39578333Y10367619D01*
X39673571Y10367619D01*
X39816429Y10415238D01*
X39911667Y10510476D01*
X39959286Y10605714D01*
X40006905Y10796190D01*
X40006905Y10939048D01*
X39959286Y11129524D01*
X39911667Y11224762D01*
X39816429Y11320000D01*
X39673571Y11367619D01*
X39578333Y11367619D01*
X39435476Y11320000D01*
X39387857Y11272381D01*
X38435476Y10367619D02*
X39006905Y10367619D01*
X38721191Y10367619D02*
X38721191Y11367619D01*
X38816429Y11224762D01*
X38911667Y11129524D01*
X39006905Y11081905D01*
X38054524Y11272381D02*
X38006905Y11320000D01*
X37911667Y11367619D01*
X37673571Y11367619D01*
X37578333Y11320000D01*
X37530714Y11272381D01*
X37483095Y11177143D01*
X37483095Y11081905D01*
X37530714Y10939048D01*
X38102143Y10367619D01*
X37483095Y10367619D01*
X38752857Y6017857D02*
X38800476Y5970238D01*
X38943333Y5922619D01*
X39038571Y5922619D01*
X39181429Y5970238D01*
X39276667Y6065476D01*
X39324286Y6160714D01*
X39371905Y6351190D01*
X39371905Y6494048D01*
X39324286Y6684524D01*
X39276667Y6779762D01*
X39181429Y6875000D01*
X39038571Y6922619D01*
X38943333Y6922619D01*
X38800476Y6875000D01*
X38752857Y6827381D01*
X37800476Y5922619D02*
X38371905Y5922619D01*
X38086191Y5922619D02*
X38086191Y6922619D01*
X38181429Y6779762D01*
X38276667Y6684524D01*
X38371905Y6636905D01*
X37467143Y6922619D02*
X36848095Y6922619D01*
X37181429Y6541667D01*
X37038571Y6541667D01*
X36943333Y6494048D01*
X36895714Y6446429D01*
X36848095Y6351190D01*
X36848095Y6113095D01*
X36895714Y6017857D01*
X36943333Y5970238D01*
X37038571Y5922619D01*
X37324286Y5922619D01*
X37419524Y5970238D01*
X37467143Y6017857D01*
X23322381Y25591666D02*
X22846190Y25925000D01*
X23322381Y26163095D02*
X22322381Y26163095D01*
X22322381Y25782142D01*
X22370000Y25686904D01*
X22417619Y25639285D01*
X22512857Y25591666D01*
X22655714Y25591666D01*
X22750952Y25639285D01*
X22798571Y25686904D01*
X22846190Y25782142D01*
X22846190Y26163095D01*
X23322381Y24639285D02*
X23322381Y25210714D01*
X23322381Y24925000D02*
X22322381Y24925000D01*
X22465238Y25020238D01*
X22560476Y25115476D01*
X22608095Y25210714D01*
X20782381Y25591666D02*
X20306190Y25925000D01*
X20782381Y26163095D02*
X19782381Y26163095D01*
X19782381Y25782142D01*
X19830000Y25686904D01*
X19877619Y25639285D01*
X19972857Y25591666D01*
X20115714Y25591666D01*
X20210952Y25639285D01*
X20258571Y25686904D01*
X20306190Y25782142D01*
X20306190Y26163095D01*
X19877619Y25210714D02*
X19830000Y25163095D01*
X19782381Y25067857D01*
X19782381Y24829761D01*
X19830000Y24734523D01*
X19877619Y24686904D01*
X19972857Y24639285D01*
X20068095Y24639285D01*
X20210952Y24686904D01*
X20782381Y25258333D01*
X20782381Y24639285D01*
X25862381Y25591666D02*
X25386190Y25925000D01*
X25862381Y26163095D02*
X24862381Y26163095D01*
X24862381Y25782142D01*
X24910000Y25686904D01*
X24957619Y25639285D01*
X25052857Y25591666D01*
X25195714Y25591666D01*
X25290952Y25639285D01*
X25338571Y25686904D01*
X25386190Y25782142D01*
X25386190Y26163095D01*
X24862381Y25258333D02*
X24862381Y24639285D01*
X25243333Y24972619D01*
X25243333Y24829761D01*
X25290952Y24734523D01*
X25338571Y24686904D01*
X25433810Y24639285D01*
X25671905Y24639285D01*
X25767143Y24686904D01*
X25814762Y24734523D01*
X25862381Y24829761D01*
X25862381Y25115476D01*
X25814762Y25210714D01*
X25767143Y25258333D01*
X9066666Y21797619D02*
X9400000Y22273810D01*
X9638095Y21797619D02*
X9638095Y22797619D01*
X9257142Y22797619D01*
X9161904Y22750000D01*
X9114285Y22702381D01*
X9066666Y22607143D01*
X9066666Y22464286D01*
X9114285Y22369048D01*
X9161904Y22321429D01*
X9257142Y22273810D01*
X9638095Y22273810D01*
X8209523Y22464286D02*
X8209523Y21797619D01*
X8447619Y22845238D02*
X8685714Y22130952D01*
X8066666Y22130952D01*
X9066666Y19257619D02*
X9400000Y19733810D01*
X9638095Y19257619D02*
X9638095Y20257619D01*
X9257142Y20257619D01*
X9161904Y20210000D01*
X9114285Y20162381D01*
X9066666Y20067143D01*
X9066666Y19924286D01*
X9114285Y19829048D01*
X9161904Y19781429D01*
X9257142Y19733810D01*
X9638095Y19733810D01*
X8161904Y20257619D02*
X8638095Y20257619D01*
X8685714Y19781429D01*
X8638095Y19829048D01*
X8542857Y19876667D01*
X8304761Y19876667D01*
X8209523Y19829048D01*
X8161904Y19781429D01*
X8114285Y19686190D01*
X8114285Y19448095D01*
X8161904Y19352857D01*
X8209523Y19305238D01*
X8304761Y19257619D01*
X8542857Y19257619D01*
X8638095Y19305238D01*
X8685714Y19352857D01*
X9066666Y16717619D02*
X9400000Y17193810D01*
X9638095Y16717619D02*
X9638095Y17717619D01*
X9257142Y17717619D01*
X9161904Y17670000D01*
X9114285Y17622381D01*
X9066666Y17527143D01*
X9066666Y17384286D01*
X9114285Y17289048D01*
X9161904Y17241429D01*
X9257142Y17193810D01*
X9638095Y17193810D01*
X8209523Y17717619D02*
X8400000Y17717619D01*
X8495238Y17670000D01*
X8542857Y17622381D01*
X8638095Y17479524D01*
X8685714Y17289048D01*
X8685714Y16908095D01*
X8638095Y16812857D01*
X8590476Y16765238D01*
X8495238Y16717619D01*
X8304761Y16717619D01*
X8209523Y16765238D01*
X8161904Y16812857D01*
X8114285Y16908095D01*
X8114285Y17146190D01*
X8161904Y17241429D01*
X8209523Y17289048D01*
X8304761Y17336667D01*
X8495238Y17336667D01*
X8590476Y17289048D01*
X8638095Y17241429D01*
X8685714Y17146190D01*
X9066666Y14177619D02*
X9400000Y14653810D01*
X9638095Y14177619D02*
X9638095Y15177619D01*
X9257142Y15177619D01*
X9161904Y15130000D01*
X9114285Y15082381D01*
X9066666Y14987143D01*
X9066666Y14844286D01*
X9114285Y14749048D01*
X9161904Y14701429D01*
X9257142Y14653810D01*
X9638095Y14653810D01*
X8733333Y15177619D02*
X8066666Y15177619D01*
X8495238Y14177619D01*
X35101666Y19257619D02*
X35435000Y19733810D01*
X35673095Y19257619D02*
X35673095Y20257619D01*
X35292142Y20257619D01*
X35196904Y20210000D01*
X35149285Y20162381D01*
X35101666Y20067143D01*
X35101666Y19924286D01*
X35149285Y19829048D01*
X35196904Y19781429D01*
X35292142Y19733810D01*
X35673095Y19733810D01*
X34530238Y19829048D02*
X34625476Y19876667D01*
X34673095Y19924286D01*
X34720714Y20019524D01*
X34720714Y20067143D01*
X34673095Y20162381D01*
X34625476Y20210000D01*
X34530238Y20257619D01*
X34339761Y20257619D01*
X34244523Y20210000D01*
X34196904Y20162381D01*
X34149285Y20067143D01*
X34149285Y20019524D01*
X34196904Y19924286D01*
X34244523Y19876667D01*
X34339761Y19829048D01*
X34530238Y19829048D01*
X34625476Y19781429D01*
X34673095Y19733810D01*
X34720714Y19638571D01*
X34720714Y19448095D01*
X34673095Y19352857D01*
X34625476Y19305238D01*
X34530238Y19257619D01*
X34339761Y19257619D01*
X34244523Y19305238D01*
X34196904Y19352857D01*
X34149285Y19448095D01*
X34149285Y19638571D01*
X34196904Y19733810D01*
X34244523Y19781429D01*
X34339761Y19829048D01*
X38276666Y27512619D02*
X38610000Y27988810D01*
X38848095Y27512619D02*
X38848095Y28512619D01*
X38467142Y28512619D01*
X38371904Y28465000D01*
X38324285Y28417381D01*
X38276666Y28322143D01*
X38276666Y28179286D01*
X38324285Y28084048D01*
X38371904Y28036429D01*
X38467142Y27988810D01*
X38848095Y27988810D01*
X37800476Y27512619D02*
X37610000Y27512619D01*
X37514761Y27560238D01*
X37467142Y27607857D01*
X37371904Y27750714D01*
X37324285Y27941190D01*
X37324285Y28322143D01*
X37371904Y28417381D01*
X37419523Y28465000D01*
X37514761Y28512619D01*
X37705238Y28512619D01*
X37800476Y28465000D01*
X37848095Y28417381D01*
X37895714Y28322143D01*
X37895714Y28084048D01*
X37848095Y27988810D01*
X37800476Y27941190D01*
X37705238Y27893571D01*
X37514761Y27893571D01*
X37419523Y27941190D01*
X37371904Y27988810D01*
X37324285Y28084048D01*
X38752857Y14812619D02*
X39086191Y15288810D01*
X39324286Y14812619D02*
X39324286Y15812619D01*
X38943333Y15812619D01*
X38848095Y15765000D01*
X38800476Y15717381D01*
X38752857Y15622143D01*
X38752857Y15479286D01*
X38800476Y15384048D01*
X38848095Y15336429D01*
X38943333Y15288810D01*
X39324286Y15288810D01*
X37800476Y14812619D02*
X38371905Y14812619D01*
X38086191Y14812619D02*
X38086191Y15812619D01*
X38181429Y15669762D01*
X38276667Y15574524D01*
X38371905Y15526905D01*
X37181429Y15812619D02*
X37086190Y15812619D01*
X36990952Y15765000D01*
X36943333Y15717381D01*
X36895714Y15622143D01*
X36848095Y15431667D01*
X36848095Y15193571D01*
X36895714Y15003095D01*
X36943333Y14907857D01*
X36990952Y14860238D01*
X37086190Y14812619D01*
X37181429Y14812619D01*
X37276667Y14860238D01*
X37324286Y14907857D01*
X37371905Y15003095D01*
X37419524Y15193571D01*
X37419524Y15431667D01*
X37371905Y15622143D01*
X37324286Y15717381D01*
X37276667Y15765000D01*
X37181429Y15812619D01*
X12082857Y2112619D02*
X12416191Y2588810D01*
X12654286Y2112619D02*
X12654286Y3112619D01*
X12273333Y3112619D01*
X12178095Y3065000D01*
X12130476Y3017381D01*
X12082857Y2922143D01*
X12082857Y2779286D01*
X12130476Y2684048D01*
X12178095Y2636429D01*
X12273333Y2588810D01*
X12654286Y2588810D01*
X11130476Y2112619D02*
X11701905Y2112619D01*
X11416191Y2112619D02*
X11416191Y3112619D01*
X11511429Y2969762D01*
X11606667Y2874524D01*
X11701905Y2826905D01*
X10178095Y2112619D02*
X10749524Y2112619D01*
X10463810Y2112619D02*
X10463810Y3112619D01*
X10559048Y2969762D01*
X10654286Y2874524D01*
X10749524Y2826905D01*
X13352857Y9097619D02*
X13686191Y9573810D01*
X13924286Y9097619D02*
X13924286Y10097619D01*
X13543333Y10097619D01*
X13448095Y10050000D01*
X13400476Y10002381D01*
X13352857Y9907143D01*
X13352857Y9764286D01*
X13400476Y9669048D01*
X13448095Y9621429D01*
X13543333Y9573810D01*
X13924286Y9573810D01*
X12400476Y9097619D02*
X12971905Y9097619D01*
X12686191Y9097619D02*
X12686191Y10097619D01*
X12781429Y9954762D01*
X12876667Y9859524D01*
X12971905Y9811905D01*
X12019524Y10002381D02*
X11971905Y10050000D01*
X11876667Y10097619D01*
X11638571Y10097619D01*
X11543333Y10050000D01*
X11495714Y10002381D01*
X11448095Y9907143D01*
X11448095Y9811905D01*
X11495714Y9669048D01*
X12067143Y9097619D01*
X11448095Y9097619D01*
X73332381Y30608095D02*
X72332381Y30608095D01*
X72332381Y30370000D01*
X72380000Y30227142D01*
X72475238Y30131904D01*
X72570476Y30084285D01*
X72760952Y30036666D01*
X72903810Y30036666D01*
X73094286Y30084285D01*
X73189524Y30131904D01*
X73284762Y30227142D01*
X73332381Y30370000D01*
X73332381Y30608095D01*
X73332381Y29084285D02*
X73332381Y29655714D01*
X73332381Y29370000D02*
X72332381Y29370000D01*
X72475238Y29465238D01*
X72570476Y29560476D01*
X72618095Y29655714D01*
M02*
