M48
;DRILL file {KiCad 4.0.7} date 04/11/18 15:19:04
;FORMAT={-:-/ absolute / inch / decimal}
FMAT,2
INCH,TZ
T1C0.020
T2C0.024
T3C0.030
T4C0.031
T5C0.039
T6C0.040
T7C0.060
T8C0.079
%
G90
G05
M72
T1
X7.7Y-6.35
X7.8Y-6.35
T2
X6.775Y-6.95
X7.025Y-5.3
X7.025Y-5.925
X7.25Y-5.925
X7.45Y-4.95
X7.45Y-5.35
X8.225Y-5.9
X8.3Y-5.8
T3
X7.9244Y-5.5457
X7.9244Y-6.2543
X8.0228Y-5.5457
X8.0228Y-6.2543
X8.3772Y-5.5457
X8.3772Y-6.2543
X8.4756Y-5.5457
X8.4756Y-6.2543
T4
X5.75Y-6.8
X5.75Y-6.9
X5.75Y-7.
X6.35Y-6.25
X6.35Y-6.35
X6.35Y-6.45
X6.35Y-6.55
X6.35Y-6.65
X6.35Y-6.75
X6.35Y-6.85
X6.35Y-6.95
X6.65Y-6.25
X6.65Y-6.35
X6.65Y-6.45
X6.65Y-6.55
X6.65Y-6.65
X6.65Y-6.75
X6.65Y-6.85
X6.65Y-6.95
X7.75Y-6.5
X7.75Y-6.6
X7.75Y-6.7
X7.75Y-6.8
X8.05Y-6.5
X8.05Y-6.6
X8.05Y-6.7
X8.05Y-6.8
T5
X5.7Y-5.3
X5.7Y-5.5
X5.7Y-5.6
X5.7Y-5.7
X5.7Y-5.8
X5.7Y-6.25
X5.7Y-6.35
X5.8Y-6.25
X5.8Y-6.35
X5.85Y-5.3
X5.85Y-5.5
X5.85Y-5.6
X5.85Y-5.7
X5.85Y-5.8
X5.9Y-6.25
X5.9Y-6.35
X5.9Y-6.45
X5.9Y-6.55
X5.95Y-6.9
X6.05Y-5.3
X6.05Y-5.5
X6.05Y-5.6
X6.05Y-5.7
X6.05Y-5.8
X6.05Y-6.8
X6.15Y-5.3
X6.15Y-6.9
X6.25Y-5.3
X6.35Y-5.3
X6.35Y-5.65
X6.35Y-5.75
X6.45Y-5.65
X6.45Y-5.75
X6.55Y-5.65
X6.55Y-5.75
X6.65Y-5.65
X6.65Y-5.75
X6.75Y-5.65
X6.75Y-5.75
X6.8Y-6.25
X6.9Y-6.25
X7.Y-6.25
X7.15Y-5.05
X7.15Y-5.15
X7.2Y-5.65
X7.2Y-5.75
X7.3Y-5.65
X7.3Y-5.75
X7.4Y-5.65
X7.4Y-5.75
X7.5Y-5.65
X7.5Y-5.75
X7.6Y-5.65
X7.6Y-5.75
X7.8Y-5.1
X7.8Y-5.2969
X8.05Y-7.05
T6
X5.7384Y-5.0291
X5.7384Y-5.1291
X5.8384Y-5.0291
X5.8384Y-5.1291
X5.9384Y-5.0291
X5.9384Y-5.1291
X6.0384Y-5.0291
X6.0384Y-5.1291
X6.1384Y-5.0291
X6.1384Y-5.1291
X6.2384Y-5.0291
X6.2384Y-5.1291
X6.3384Y-5.0291
X6.3384Y-5.1291
X6.4384Y-5.0291
X6.4384Y-5.1291
X6.5384Y-5.0291
X6.5384Y-5.1291
X6.6384Y-5.0291
X6.6384Y-5.1291
X6.7384Y-5.0291
X6.7384Y-5.1291
X6.8384Y-5.0291
X6.8384Y-5.1291
X6.9384Y-5.0291
X6.9384Y-5.1291
T7
X8.65Y-5.075
X8.65Y-5.45
X8.85Y-5.075
X8.85Y-5.45
T8
X7.3Y-6.5
X7.3Y-6.9
T0
M30
