%TF.GenerationSoftware,KiCad,Pcbnew,4.0.7*%
%TF.CreationDate,2018-04-11T15:18:22+03:00*%
%TF.ProjectId,pi_adc_rtc_etc,70695F6164635F7274635F6574632E6B,rev?*%
%TF.FileFunction,Paste,Bot*%
%FSLAX46Y46*%
G04 Gerber Fmt 4.6, Leading zero omitted, Abs format (unit mm)*
G04 Created by KiCad (PCBNEW 4.0.7) date 04/11/18 15:18:22*
%MOMM*%
%LPD*%
G01*
G04 APERTURE LIST*
%ADD10C,0.150000*%
%ADD11R,1.600000X2.000000*%
%ADD12R,3.200000X2.500000*%
%ADD13R,2.000000X1.600000*%
%ADD14R,1.700000X2.000000*%
%ADD15R,2.000000X1.700000*%
%ADD16R,1.700000X3.300000*%
G04 APERTURE END LIST*
D10*
X85000000Y39000000D02*
X85000000Y56000000D01*
X74000000Y39000000D02*
X85000000Y39000000D01*
X74000000Y24000000D02*
X74000000Y39000000D01*
X85000000Y24000000D02*
X74000000Y24000000D01*
X85000000Y0D02*
X85000000Y24000000D01*
X85000000Y56000000D02*
X0Y56000000D01*
X0Y0D02*
X85000000Y0D01*
X0Y56000000D02*
X0Y0D01*
D11*
X30490000Y34220000D03*
X30490000Y38220000D03*
D12*
X63120000Y26060000D03*
X58820000Y26060000D03*
D13*
X62970000Y28600000D03*
X58970000Y28600000D03*
D11*
X20330000Y17710000D03*
X20330000Y21710000D03*
D12*
X63120000Y36220000D03*
X58820000Y36220000D03*
D13*
X58970000Y33680000D03*
X62970000Y33680000D03*
D11*
X15250000Y34220000D03*
X15250000Y38220000D03*
D13*
X31030000Y24790000D03*
X35030000Y24790000D03*
D11*
X22870000Y16630000D03*
X22870000Y12630000D03*
D12*
X35180000Y12090000D03*
X30880000Y12090000D03*
D13*
X31030000Y7010000D03*
X35030000Y7010000D03*
D14*
X22870000Y31870000D03*
X22870000Y27870000D03*
X20330000Y31870000D03*
X20330000Y27870000D03*
X25410000Y31870000D03*
X25410000Y27870000D03*
D15*
X10710000Y22250000D03*
X14710000Y22250000D03*
X10710000Y19710000D03*
X14710000Y19710000D03*
X10710000Y17170000D03*
X14710000Y17170000D03*
X10710000Y14630000D03*
X14710000Y14630000D03*
X32490000Y19710000D03*
X28490000Y19710000D03*
X35030000Y27330000D03*
X31030000Y27330000D03*
X31030000Y15900000D03*
X35030000Y15900000D03*
X4360000Y1930000D03*
X8360000Y1930000D03*
X8360000Y9550000D03*
X4360000Y9550000D03*
D16*
X71130000Y27120000D03*
X71130000Y32620000D03*
M02*
