M48
; DRILL file {KiCad (6.0.10)} date Sat Apr  8 13:29:17 2023
; FORMAT={-:-/ absolute / inch / decimal}
; #@! TF.CreationDate,2023-04-08T13:29:17+03:00
; #@! TF.GenerationSoftware,Kicad,Pcbnew,(6.0.10)
; #@! TF.FileFunction,Plated,1,2,PTH
FMAT,2
INCH
; #@! TA.AperFunction,Plated,PTH,ViaDrill
T1C0.0157
; #@! TA.AperFunction,Plated,PTH,ComponentDrill
T2C0.0315
; #@! TA.AperFunction,Plated,PTH,ComponentDrill
T3C0.0394
%
G90
G05
T1
X1.5319Y-1.95
X1.7Y-1.9
X1.7Y-2.725
X1.975Y-2.45
X2.0Y-1.825
X2.6Y-2.4
X2.65Y-2.45
X2.75Y-2.9
X3.075Y-1.825
X3.55Y-1.825
X3.65Y-2.9
X3.7Y-1.65
X3.825Y-2.125
X3.825Y-2.525
X4.1Y-2.3
X4.15Y-2.25
X4.15Y-2.85
X4.25Y-2.4
X4.675Y-1.75
T2
X1.5004Y-2.0998
X1.5004Y-2.1998
X1.5004Y-2.2998
X1.5004Y-2.3998
X1.5004Y-2.4998
X1.5004Y-2.5998
X1.5004Y-2.6998
X1.8004Y-2.0998
X1.8004Y-2.1998
X1.8004Y-2.2998
X1.8004Y-2.3998
X1.8004Y-2.4998
X1.8004Y-2.5998
X1.8004Y-2.6998
X2.3Y-1.5
X2.3Y-1.6
X2.3Y-1.7
X2.3Y-1.8
X2.3Y-1.9
X2.3Y-2.0
X2.3Y-2.1
X2.6Y-1.5
X2.6Y-1.6
X2.6Y-1.7
X2.6Y-1.8
X2.6Y-1.9
X2.6Y-2.0
X2.6Y-2.1
X4.0004Y-1.4998
X4.0004Y-1.5998
X4.0004Y-1.6998
X4.0004Y-1.7998
X4.0004Y-1.8998
X4.0004Y-1.9998
X4.0004Y-2.0998
X4.3004Y-1.4998
X4.3004Y-1.5998
X4.3004Y-1.6998
X4.3004Y-1.7998
X4.3004Y-1.8998
X4.3004Y-1.9998
X4.3004Y-2.0998
T3
X1.9Y-1.3
X1.9006Y-1.45
X2.0Y-1.3
X2.0006Y-1.45
X2.1Y-1.3
X2.1006Y-1.45
X3.05Y-1.95
X3.05Y-2.05
X3.1Y-2.9
X3.1006Y-2.7
X3.2Y-2.9
X3.2006Y-2.7
X3.25Y-1.95
X3.25Y-2.05
X3.3Y-2.9
X3.3006Y-2.7
X3.6Y-1.45
X3.6006Y-1.3
X3.7Y-1.45
X3.7006Y-1.3
X3.8Y-1.45
X3.8006Y-1.3
X4.6998Y-2.35
X4.7998Y-2.35
X4.8Y-1.3006
X4.8Y-1.4006
X4.8Y-1.5006
X4.8998Y-2.35
X4.9998Y-2.35
X5.0998Y-2.35
T0
M30
