%TF.GenerationSoftware,KiCad,Pcbnew,(6.0.10)*%
%TF.CreationDate,2023-04-08T13:29:20+03:00*%
%TF.ProjectId,DelSol_Modulator,44656c53-6f6c-45f4-9d6f-64756c61746f,rev?*%
%TF.SameCoordinates,Original*%
%TF.FileFunction,Legend,Bot*%
%TF.FilePolarity,Positive*%
%FSLAX46Y46*%
G04 Gerber Fmt 4.6, Leading zero omitted, Abs format (unit mm)*
G04 Created by KiCad (PCBNEW (6.0.10)) date 2023-04-08 13:29:20*
%MOMM*%
%LPD*%
G01*
G04 APERTURE LIST*
G04 Aperture macros list*
%AMRoundRect*
0 Rectangle with rounded corners*
0 $1 Rounding radius*
0 $2 $3 $4 $5 $6 $7 $8 $9 X,Y pos of 4 corners*
0 Add a 4 corners polygon primitive as box body*
4,1,4,$2,$3,$4,$5,$6,$7,$8,$9,$2,$3,0*
0 Add four circle primitives for the rounded corners*
1,1,$1+$1,$2,$3*
1,1,$1+$1,$4,$5*
1,1,$1+$1,$6,$7*
1,1,$1+$1,$8,$9*
0 Add four rect primitives between the rounded corners*
20,1,$1+$1,$2,$3,$4,$5,0*
20,1,$1+$1,$4,$5,$6,$7,0*
20,1,$1+$1,$6,$7,$8,$9,0*
20,1,$1+$1,$8,$9,$2,$3,0*%
G04 Aperture macros list end*
%ADD10C,0.150000*%
%ADD11C,0.120000*%
%ADD12C,3.200000*%
%ADD13R,1.700000X1.700000*%
%ADD14O,1.700000X1.700000*%
%ADD15R,1.600000X1.600000*%
%ADD16O,1.600000X1.600000*%
%ADD17RoundRect,0.250000X0.337500X0.475000X-0.337500X0.475000X-0.337500X-0.475000X0.337500X-0.475000X0*%
%ADD18RoundRect,0.250000X0.625000X-0.400000X0.625000X0.400000X-0.625000X0.400000X-0.625000X-0.400000X0*%
%ADD19RoundRect,0.250000X0.400000X0.625000X-0.400000X0.625000X-0.400000X-0.625000X0.400000X-0.625000X0*%
%ADD20RoundRect,0.250000X-0.625000X0.400000X-0.625000X-0.400000X0.625000X-0.400000X0.625000X0.400000X0*%
%ADD21R,1.700000X3.300000*%
%ADD22RoundRect,0.250000X0.650000X-0.412500X0.650000X0.412500X-0.650000X0.412500X-0.650000X-0.412500X0*%
%ADD23RoundRect,0.250000X-0.400000X-0.625000X0.400000X-0.625000X0.400000X0.625000X-0.400000X0.625000X0*%
%ADD24RoundRect,0.250000X-0.650000X0.412500X-0.650000X-0.412500X0.650000X-0.412500X0.650000X0.412500X0*%
%ADD25RoundRect,0.250000X0.475000X-0.337500X0.475000X0.337500X-0.475000X0.337500X-0.475000X-0.337500X0*%
%ADD26RoundRect,0.250000X-0.412500X-0.650000X0.412500X-0.650000X0.412500X0.650000X-0.412500X0.650000X0*%
%ADD27RoundRect,0.250000X0.412500X0.650000X-0.412500X0.650000X-0.412500X-0.650000X0.412500X-0.650000X0*%
%ADD28RoundRect,0.250000X-0.337500X-0.475000X0.337500X-0.475000X0.337500X0.475000X-0.337500X0.475000X0*%
G04 APERTURE END LIST*
D10*
X48426666Y-45022142D02*
X48474285Y-45069761D01*
X48617142Y-45117380D01*
X48712380Y-45117380D01*
X48855238Y-45069761D01*
X48950476Y-44974523D01*
X48998095Y-44879285D01*
X49045714Y-44688809D01*
X49045714Y-44545952D01*
X48998095Y-44355476D01*
X48950476Y-44260238D01*
X48855238Y-44165000D01*
X48712380Y-44117380D01*
X48617142Y-44117380D01*
X48474285Y-44165000D01*
X48426666Y-44212619D01*
X48093333Y-44117380D02*
X47426666Y-44117380D01*
X47855238Y-45117380D01*
X60777380Y-35393333D02*
X60301190Y-35060000D01*
X60777380Y-34821904D02*
X59777380Y-34821904D01*
X59777380Y-35202857D01*
X59825000Y-35298095D01*
X59872619Y-35345714D01*
X59967857Y-35393333D01*
X60110714Y-35393333D01*
X60205952Y-35345714D01*
X60253571Y-35298095D01*
X60301190Y-35202857D01*
X60301190Y-34821904D01*
X59777380Y-35726666D02*
X59777380Y-36345714D01*
X60158333Y-36012380D01*
X60158333Y-36155238D01*
X60205952Y-36250476D01*
X60253571Y-36298095D01*
X60348809Y-36345714D01*
X60586904Y-36345714D01*
X60682142Y-36298095D01*
X60729761Y-36250476D01*
X60777380Y-36155238D01*
X60777380Y-35869523D01*
X60729761Y-35774285D01*
X60682142Y-35726666D01*
X75572857Y-42997380D02*
X75906190Y-42521190D01*
X76144285Y-42997380D02*
X76144285Y-41997380D01*
X75763333Y-41997380D01*
X75668095Y-42045000D01*
X75620476Y-42092619D01*
X75572857Y-42187857D01*
X75572857Y-42330714D01*
X75620476Y-42425952D01*
X75668095Y-42473571D01*
X75763333Y-42521190D01*
X76144285Y-42521190D01*
X75191904Y-42092619D02*
X75144285Y-42045000D01*
X75049047Y-41997380D01*
X74810952Y-41997380D01*
X74715714Y-42045000D01*
X74668095Y-42092619D01*
X74620476Y-42187857D01*
X74620476Y-42283095D01*
X74668095Y-42425952D01*
X75239523Y-42997380D01*
X74620476Y-42997380D01*
X74239523Y-42092619D02*
X74191904Y-42045000D01*
X74096666Y-41997380D01*
X73858571Y-41997380D01*
X73763333Y-42045000D01*
X73715714Y-42092619D01*
X73668095Y-42187857D01*
X73668095Y-42283095D01*
X73715714Y-42425952D01*
X74287142Y-42997380D01*
X73668095Y-42997380D01*
X41812380Y-37457142D02*
X41336190Y-37123809D01*
X41812380Y-36885714D02*
X40812380Y-36885714D01*
X40812380Y-37266666D01*
X40860000Y-37361904D01*
X40907619Y-37409523D01*
X41002857Y-37457142D01*
X41145714Y-37457142D01*
X41240952Y-37409523D01*
X41288571Y-37361904D01*
X41336190Y-37266666D01*
X41336190Y-36885714D01*
X41812380Y-38409523D02*
X41812380Y-37838095D01*
X41812380Y-38123809D02*
X40812380Y-38123809D01*
X40955238Y-38028571D01*
X41050476Y-37933333D01*
X41098095Y-37838095D01*
X41812380Y-39361904D02*
X41812380Y-38790476D01*
X41812380Y-39076190D02*
X40812380Y-39076190D01*
X40955238Y-38980952D01*
X41050476Y-38885714D01*
X41098095Y-38790476D01*
X56522857Y-39272380D02*
X56856190Y-38796190D01*
X57094285Y-39272380D02*
X57094285Y-38272380D01*
X56713333Y-38272380D01*
X56618095Y-38320000D01*
X56570476Y-38367619D01*
X56522857Y-38462857D01*
X56522857Y-38605714D01*
X56570476Y-38700952D01*
X56618095Y-38748571D01*
X56713333Y-38796190D01*
X57094285Y-38796190D01*
X55570476Y-39272380D02*
X56141904Y-39272380D01*
X55856190Y-39272380D02*
X55856190Y-38272380D01*
X55951428Y-38415238D01*
X56046666Y-38510476D01*
X56141904Y-38558095D01*
X54951428Y-38272380D02*
X54856190Y-38272380D01*
X54760952Y-38320000D01*
X54713333Y-38367619D01*
X54665714Y-38462857D01*
X54618095Y-38653333D01*
X54618095Y-38891428D01*
X54665714Y-39081904D01*
X54713333Y-39177142D01*
X54760952Y-39224761D01*
X54856190Y-39272380D01*
X54951428Y-39272380D01*
X55046666Y-39224761D01*
X55094285Y-39177142D01*
X55141904Y-39081904D01*
X55189523Y-38891428D01*
X55189523Y-38653333D01*
X55141904Y-38462857D01*
X55094285Y-38367619D01*
X55046666Y-38320000D01*
X54951428Y-38272380D01*
X127452380Y-46251904D02*
X126452380Y-46251904D01*
X126452380Y-46490000D01*
X126500000Y-46632857D01*
X126595238Y-46728095D01*
X126690476Y-46775714D01*
X126880952Y-46823333D01*
X127023809Y-46823333D01*
X127214285Y-46775714D01*
X127309523Y-46728095D01*
X127404761Y-46632857D01*
X127452380Y-46490000D01*
X127452380Y-46251904D01*
X127452380Y-47775714D02*
X127452380Y-47204285D01*
X127452380Y-47490000D02*
X126452380Y-47490000D01*
X126595238Y-47394761D01*
X126690476Y-47299523D01*
X126738095Y-47204285D01*
X43537142Y-67302142D02*
X43584761Y-67254523D01*
X43632380Y-67111666D01*
X43632380Y-67016428D01*
X43584761Y-66873571D01*
X43489523Y-66778333D01*
X43394285Y-66730714D01*
X43203809Y-66683095D01*
X43060952Y-66683095D01*
X42870476Y-66730714D01*
X42775238Y-66778333D01*
X42680000Y-66873571D01*
X42632380Y-67016428D01*
X42632380Y-67111666D01*
X42680000Y-67254523D01*
X42727619Y-67302142D01*
X42727619Y-67683095D02*
X42680000Y-67730714D01*
X42632380Y-67825952D01*
X42632380Y-68064047D01*
X42680000Y-68159285D01*
X42727619Y-68206904D01*
X42822857Y-68254523D01*
X42918095Y-68254523D01*
X43060952Y-68206904D01*
X43632380Y-67635476D01*
X43632380Y-68254523D01*
X43632380Y-69206904D02*
X43632380Y-68635476D01*
X43632380Y-68921190D02*
X42632380Y-68921190D01*
X42775238Y-68825952D01*
X42870476Y-68730714D01*
X42918095Y-68635476D01*
X79827380Y-32377142D02*
X79351190Y-32043809D01*
X79827380Y-31805714D02*
X78827380Y-31805714D01*
X78827380Y-32186666D01*
X78875000Y-32281904D01*
X78922619Y-32329523D01*
X79017857Y-32377142D01*
X79160714Y-32377142D01*
X79255952Y-32329523D01*
X79303571Y-32281904D01*
X79351190Y-32186666D01*
X79351190Y-31805714D01*
X79160714Y-33234285D02*
X79827380Y-33234285D01*
X78779761Y-32996190D02*
X79494047Y-32758095D01*
X79494047Y-33377142D01*
X79160714Y-34186666D02*
X79827380Y-34186666D01*
X78779761Y-33948571D02*
X79494047Y-33710476D01*
X79494047Y-34329523D01*
X74461666Y-51887380D02*
X74795000Y-51411190D01*
X75033095Y-51887380D02*
X75033095Y-50887380D01*
X74652142Y-50887380D01*
X74556904Y-50935000D01*
X74509285Y-50982619D01*
X74461666Y-51077857D01*
X74461666Y-51220714D01*
X74509285Y-51315952D01*
X74556904Y-51363571D01*
X74652142Y-51411190D01*
X75033095Y-51411190D01*
X74128333Y-50887380D02*
X73461666Y-50887380D01*
X73890238Y-51887380D01*
X114942857Y-62047380D02*
X115276190Y-61571190D01*
X115514285Y-62047380D02*
X115514285Y-61047380D01*
X115133333Y-61047380D01*
X115038095Y-61095000D01*
X114990476Y-61142619D01*
X114942857Y-61237857D01*
X114942857Y-61380714D01*
X114990476Y-61475952D01*
X115038095Y-61523571D01*
X115133333Y-61571190D01*
X115514285Y-61571190D01*
X113990476Y-62047380D02*
X114561904Y-62047380D01*
X114276190Y-62047380D02*
X114276190Y-61047380D01*
X114371428Y-61190238D01*
X114466666Y-61285476D01*
X114561904Y-61333095D01*
X113657142Y-61047380D02*
X112990476Y-61047380D01*
X113419047Y-62047380D01*
X59856666Y-31652380D02*
X60190000Y-31176190D01*
X60428095Y-31652380D02*
X60428095Y-30652380D01*
X60047142Y-30652380D01*
X59951904Y-30700000D01*
X59904285Y-30747619D01*
X59856666Y-30842857D01*
X59856666Y-30985714D01*
X59904285Y-31080952D01*
X59951904Y-31128571D01*
X60047142Y-31176190D01*
X60428095Y-31176190D01*
X58951904Y-30652380D02*
X59428095Y-30652380D01*
X59475714Y-31128571D01*
X59428095Y-31080952D01*
X59332857Y-31033333D01*
X59094761Y-31033333D01*
X58999523Y-31080952D01*
X58951904Y-31128571D01*
X58904285Y-31223809D01*
X58904285Y-31461904D01*
X58951904Y-31557142D01*
X58999523Y-31604761D01*
X59094761Y-31652380D01*
X59332857Y-31652380D01*
X59428095Y-31604761D01*
X59475714Y-31557142D01*
X92082857Y-40587142D02*
X92130476Y-40634761D01*
X92273333Y-40682380D01*
X92368571Y-40682380D01*
X92511428Y-40634761D01*
X92606666Y-40539523D01*
X92654285Y-40444285D01*
X92701904Y-40253809D01*
X92701904Y-40110952D01*
X92654285Y-39920476D01*
X92606666Y-39825238D01*
X92511428Y-39730000D01*
X92368571Y-39682380D01*
X92273333Y-39682380D01*
X92130476Y-39730000D01*
X92082857Y-39777619D01*
X91130476Y-40682380D02*
X91701904Y-40682380D01*
X91416190Y-40682380D02*
X91416190Y-39682380D01*
X91511428Y-39825238D01*
X91606666Y-39920476D01*
X91701904Y-39968095D01*
X90178095Y-40682380D02*
X90749523Y-40682380D01*
X90463809Y-40682380D02*
X90463809Y-39682380D01*
X90559047Y-39825238D01*
X90654285Y-39920476D01*
X90749523Y-39968095D01*
X86812380Y-32377142D02*
X86336190Y-32043809D01*
X86812380Y-31805714D02*
X85812380Y-31805714D01*
X85812380Y-32186666D01*
X85860000Y-32281904D01*
X85907619Y-32329523D01*
X86002857Y-32377142D01*
X86145714Y-32377142D01*
X86240952Y-32329523D01*
X86288571Y-32281904D01*
X86336190Y-32186666D01*
X86336190Y-31805714D01*
X85907619Y-32758095D02*
X85860000Y-32805714D01*
X85812380Y-32900952D01*
X85812380Y-33139047D01*
X85860000Y-33234285D01*
X85907619Y-33281904D01*
X86002857Y-33329523D01*
X86098095Y-33329523D01*
X86240952Y-33281904D01*
X86812380Y-32710476D01*
X86812380Y-33329523D01*
X85812380Y-34186666D02*
X85812380Y-33996190D01*
X85860000Y-33900952D01*
X85907619Y-33853333D01*
X86050476Y-33758095D01*
X86240952Y-33710476D01*
X86621904Y-33710476D01*
X86717142Y-33758095D01*
X86764761Y-33805714D01*
X86812380Y-33900952D01*
X86812380Y-34091428D01*
X86764761Y-34186666D01*
X86717142Y-34234285D01*
X86621904Y-34281904D01*
X86383809Y-34281904D01*
X86288571Y-34234285D01*
X86240952Y-34186666D01*
X86193333Y-34091428D01*
X86193333Y-33900952D01*
X86240952Y-33805714D01*
X86288571Y-33758095D01*
X86383809Y-33710476D01*
X90812857Y-56247380D02*
X91146190Y-55771190D01*
X91384285Y-56247380D02*
X91384285Y-55247380D01*
X91003333Y-55247380D01*
X90908095Y-55295000D01*
X90860476Y-55342619D01*
X90812857Y-55437857D01*
X90812857Y-55580714D01*
X90860476Y-55675952D01*
X90908095Y-55723571D01*
X91003333Y-55771190D01*
X91384285Y-55771190D01*
X90431904Y-55342619D02*
X90384285Y-55295000D01*
X90289047Y-55247380D01*
X90050952Y-55247380D01*
X89955714Y-55295000D01*
X89908095Y-55342619D01*
X89860476Y-55437857D01*
X89860476Y-55533095D01*
X89908095Y-55675952D01*
X90479523Y-56247380D01*
X89860476Y-56247380D01*
X89289047Y-55675952D02*
X89384285Y-55628333D01*
X89431904Y-55580714D01*
X89479523Y-55485476D01*
X89479523Y-55437857D01*
X89431904Y-55342619D01*
X89384285Y-55295000D01*
X89289047Y-55247380D01*
X89098571Y-55247380D01*
X89003333Y-55295000D01*
X88955714Y-55342619D01*
X88908095Y-55437857D01*
X88908095Y-55485476D01*
X88955714Y-55580714D01*
X89003333Y-55628333D01*
X89098571Y-55675952D01*
X89289047Y-55675952D01*
X89384285Y-55723571D01*
X89431904Y-55771190D01*
X89479523Y-55866428D01*
X89479523Y-56056904D01*
X89431904Y-56152142D01*
X89384285Y-56199761D01*
X89289047Y-56247380D01*
X89098571Y-56247380D01*
X89003333Y-56199761D01*
X88955714Y-56152142D01*
X88908095Y-56056904D01*
X88908095Y-55866428D01*
X88955714Y-55771190D01*
X89003333Y-55723571D01*
X89098571Y-55675952D01*
X98792380Y-43807142D02*
X98316190Y-43473809D01*
X98792380Y-43235714D02*
X97792380Y-43235714D01*
X97792380Y-43616666D01*
X97840000Y-43711904D01*
X97887619Y-43759523D01*
X97982857Y-43807142D01*
X98125714Y-43807142D01*
X98220952Y-43759523D01*
X98268571Y-43711904D01*
X98316190Y-43616666D01*
X98316190Y-43235714D01*
X98792380Y-44759523D02*
X98792380Y-44188095D01*
X98792380Y-44473809D02*
X97792380Y-44473809D01*
X97935238Y-44378571D01*
X98030476Y-44283333D01*
X98078095Y-44188095D01*
X97792380Y-45664285D02*
X97792380Y-45188095D01*
X98268571Y-45140476D01*
X98220952Y-45188095D01*
X98173333Y-45283333D01*
X98173333Y-45521428D01*
X98220952Y-45616666D01*
X98268571Y-45664285D01*
X98363809Y-45711904D01*
X98601904Y-45711904D01*
X98697142Y-45664285D01*
X98744761Y-45616666D01*
X98792380Y-45521428D01*
X98792380Y-45283333D01*
X98744761Y-45188095D01*
X98697142Y-45140476D01*
X68482380Y-38727142D02*
X68006190Y-38393809D01*
X68482380Y-38155714D02*
X67482380Y-38155714D01*
X67482380Y-38536666D01*
X67530000Y-38631904D01*
X67577619Y-38679523D01*
X67672857Y-38727142D01*
X67815714Y-38727142D01*
X67910952Y-38679523D01*
X67958571Y-38631904D01*
X68006190Y-38536666D01*
X68006190Y-38155714D01*
X67577619Y-39108095D02*
X67530000Y-39155714D01*
X67482380Y-39250952D01*
X67482380Y-39489047D01*
X67530000Y-39584285D01*
X67577619Y-39631904D01*
X67672857Y-39679523D01*
X67768095Y-39679523D01*
X67910952Y-39631904D01*
X68482380Y-39060476D01*
X68482380Y-39679523D01*
X67815714Y-40536666D02*
X68482380Y-40536666D01*
X67434761Y-40298571D02*
X68149047Y-40060476D01*
X68149047Y-40679523D01*
X121822380Y-42537142D02*
X121346190Y-42203809D01*
X121822380Y-41965714D02*
X120822380Y-41965714D01*
X120822380Y-42346666D01*
X120870000Y-42441904D01*
X120917619Y-42489523D01*
X121012857Y-42537142D01*
X121155714Y-42537142D01*
X121250952Y-42489523D01*
X121298571Y-42441904D01*
X121346190Y-42346666D01*
X121346190Y-41965714D01*
X120822380Y-42870476D02*
X120822380Y-43489523D01*
X121203333Y-43156190D01*
X121203333Y-43299047D01*
X121250952Y-43394285D01*
X121298571Y-43441904D01*
X121393809Y-43489523D01*
X121631904Y-43489523D01*
X121727142Y-43441904D01*
X121774761Y-43394285D01*
X121822380Y-43299047D01*
X121822380Y-43013333D01*
X121774761Y-42918095D01*
X121727142Y-42870476D01*
X121822380Y-43965714D02*
X121822380Y-44156190D01*
X121774761Y-44251428D01*
X121727142Y-44299047D01*
X121584285Y-44394285D01*
X121393809Y-44441904D01*
X121012857Y-44441904D01*
X120917619Y-44394285D01*
X120870000Y-44346666D01*
X120822380Y-44251428D01*
X120822380Y-44060952D01*
X120870000Y-43965714D01*
X120917619Y-43918095D01*
X121012857Y-43870476D01*
X121250952Y-43870476D01*
X121346190Y-43918095D01*
X121393809Y-43965714D01*
X121441428Y-44060952D01*
X121441428Y-44251428D01*
X121393809Y-44346666D01*
X121346190Y-44394285D01*
X121250952Y-44441904D01*
X40997142Y-67302142D02*
X41044761Y-67254523D01*
X41092380Y-67111666D01*
X41092380Y-67016428D01*
X41044761Y-66873571D01*
X40949523Y-66778333D01*
X40854285Y-66730714D01*
X40663809Y-66683095D01*
X40520952Y-66683095D01*
X40330476Y-66730714D01*
X40235238Y-66778333D01*
X40140000Y-66873571D01*
X40092380Y-67016428D01*
X40092380Y-67111666D01*
X40140000Y-67254523D01*
X40187619Y-67302142D01*
X41092380Y-68254523D02*
X41092380Y-67683095D01*
X41092380Y-67968809D02*
X40092380Y-67968809D01*
X40235238Y-67873571D01*
X40330476Y-67778333D01*
X40378095Y-67683095D01*
X40092380Y-68587857D02*
X40092380Y-69254523D01*
X41092380Y-68825952D01*
X48426666Y-41857142D02*
X48474285Y-41904761D01*
X48617142Y-41952380D01*
X48712380Y-41952380D01*
X48855238Y-41904761D01*
X48950476Y-41809523D01*
X48998095Y-41714285D01*
X49045714Y-41523809D01*
X49045714Y-41380952D01*
X48998095Y-41190476D01*
X48950476Y-41095238D01*
X48855238Y-41000000D01*
X48712380Y-40952380D01*
X48617142Y-40952380D01*
X48474285Y-41000000D01*
X48426666Y-41047619D01*
X47569523Y-40952380D02*
X47760000Y-40952380D01*
X47855238Y-41000000D01*
X47902857Y-41047619D01*
X47998095Y-41190476D01*
X48045714Y-41380952D01*
X48045714Y-41761904D01*
X47998095Y-41857142D01*
X47950476Y-41904761D01*
X47855238Y-41952380D01*
X47664761Y-41952380D01*
X47569523Y-41904761D01*
X47521904Y-41857142D01*
X47474285Y-41761904D01*
X47474285Y-41523809D01*
X47521904Y-41428571D01*
X47569523Y-41380952D01*
X47664761Y-41333333D01*
X47855238Y-41333333D01*
X47950476Y-41380952D01*
X47998095Y-41428571D01*
X48045714Y-41523809D01*
X104592380Y-34917142D02*
X104116190Y-34583809D01*
X104592380Y-34345714D02*
X103592380Y-34345714D01*
X103592380Y-34726666D01*
X103640000Y-34821904D01*
X103687619Y-34869523D01*
X103782857Y-34917142D01*
X103925714Y-34917142D01*
X104020952Y-34869523D01*
X104068571Y-34821904D01*
X104116190Y-34726666D01*
X104116190Y-34345714D01*
X104592380Y-35869523D02*
X104592380Y-35298095D01*
X104592380Y-35583809D02*
X103592380Y-35583809D01*
X103735238Y-35488571D01*
X103830476Y-35393333D01*
X103878095Y-35298095D01*
X103925714Y-36726666D02*
X104592380Y-36726666D01*
X103544761Y-36488571D02*
X104259047Y-36250476D01*
X104259047Y-36869523D01*
X124912380Y-46251904D02*
X123912380Y-46251904D01*
X123912380Y-46490000D01*
X123960000Y-46632857D01*
X124055238Y-46728095D01*
X124150476Y-46775714D01*
X124340952Y-46823333D01*
X124483809Y-46823333D01*
X124674285Y-46775714D01*
X124769523Y-46728095D01*
X124864761Y-46632857D01*
X124912380Y-46490000D01*
X124912380Y-46251904D01*
X124007619Y-47204285D02*
X123960000Y-47251904D01*
X123912380Y-47347142D01*
X123912380Y-47585238D01*
X123960000Y-47680476D01*
X124007619Y-47728095D01*
X124102857Y-47775714D01*
X124198095Y-47775714D01*
X124340952Y-47728095D01*
X124912380Y-47156666D01*
X124912380Y-47775714D01*
X63857142Y-37298333D02*
X63904761Y-37250714D01*
X63952380Y-37107857D01*
X63952380Y-37012619D01*
X63904761Y-36869761D01*
X63809523Y-36774523D01*
X63714285Y-36726904D01*
X63523809Y-36679285D01*
X63380952Y-36679285D01*
X63190476Y-36726904D01*
X63095238Y-36774523D01*
X63000000Y-36869761D01*
X62952380Y-37012619D01*
X62952380Y-37107857D01*
X63000000Y-37250714D01*
X63047619Y-37298333D01*
X62952380Y-37631666D02*
X62952380Y-38250714D01*
X63333333Y-37917380D01*
X63333333Y-38060238D01*
X63380952Y-38155476D01*
X63428571Y-38203095D01*
X63523809Y-38250714D01*
X63761904Y-38250714D01*
X63857142Y-38203095D01*
X63904761Y-38155476D01*
X63952380Y-38060238D01*
X63952380Y-37774523D01*
X63904761Y-37679285D01*
X63857142Y-37631666D01*
X99652057Y-39365180D02*
X99985390Y-38888990D01*
X100223485Y-39365180D02*
X100223485Y-38365180D01*
X99842533Y-38365180D01*
X99747295Y-38412800D01*
X99699676Y-38460419D01*
X99652057Y-38555657D01*
X99652057Y-38698514D01*
X99699676Y-38793752D01*
X99747295Y-38841371D01*
X99842533Y-38888990D01*
X100223485Y-38888990D01*
X99271104Y-38460419D02*
X99223485Y-38412800D01*
X99128247Y-38365180D01*
X98890152Y-38365180D01*
X98794914Y-38412800D01*
X98747295Y-38460419D01*
X98699676Y-38555657D01*
X98699676Y-38650895D01*
X98747295Y-38793752D01*
X99318723Y-39365180D01*
X98699676Y-39365180D01*
X97794914Y-38365180D02*
X98271104Y-38365180D01*
X98318723Y-38841371D01*
X98271104Y-38793752D01*
X98175866Y-38746133D01*
X97937771Y-38746133D01*
X97842533Y-38793752D01*
X97794914Y-38841371D01*
X97747295Y-38936609D01*
X97747295Y-39174704D01*
X97794914Y-39269942D01*
X97842533Y-39317561D01*
X97937771Y-39365180D01*
X98175866Y-39365180D01*
X98271104Y-39317561D01*
X98318723Y-39269942D01*
X74302857Y-72292380D02*
X74636190Y-71816190D01*
X74874285Y-72292380D02*
X74874285Y-71292380D01*
X74493333Y-71292380D01*
X74398095Y-71340000D01*
X74350476Y-71387619D01*
X74302857Y-71482857D01*
X74302857Y-71625714D01*
X74350476Y-71720952D01*
X74398095Y-71768571D01*
X74493333Y-71816190D01*
X74874285Y-71816190D01*
X73445714Y-71625714D02*
X73445714Y-72292380D01*
X73683809Y-71244761D02*
X73921904Y-71959047D01*
X73302857Y-71959047D01*
X72398095Y-72292380D02*
X72969523Y-72292380D01*
X72683809Y-72292380D02*
X72683809Y-71292380D01*
X72779047Y-71435238D01*
X72874285Y-71530476D01*
X72969523Y-71578095D01*
X124912380Y-61587142D02*
X124436190Y-61253809D01*
X124912380Y-61015714D02*
X123912380Y-61015714D01*
X123912380Y-61396666D01*
X123960000Y-61491904D01*
X124007619Y-61539523D01*
X124102857Y-61587142D01*
X124245714Y-61587142D01*
X124340952Y-61539523D01*
X124388571Y-61491904D01*
X124436190Y-61396666D01*
X124436190Y-61015714D01*
X123912380Y-61920476D02*
X123912380Y-62539523D01*
X124293333Y-62206190D01*
X124293333Y-62349047D01*
X124340952Y-62444285D01*
X124388571Y-62491904D01*
X124483809Y-62539523D01*
X124721904Y-62539523D01*
X124817142Y-62491904D01*
X124864761Y-62444285D01*
X124912380Y-62349047D01*
X124912380Y-62063333D01*
X124864761Y-61968095D01*
X124817142Y-61920476D01*
X123912380Y-63444285D02*
X123912380Y-62968095D01*
X124388571Y-62920476D01*
X124340952Y-62968095D01*
X124293333Y-63063333D01*
X124293333Y-63301428D01*
X124340952Y-63396666D01*
X124388571Y-63444285D01*
X124483809Y-63491904D01*
X124721904Y-63491904D01*
X124817142Y-63444285D01*
X124864761Y-63396666D01*
X124912380Y-63301428D01*
X124912380Y-63063333D01*
X124864761Y-62968095D01*
X124817142Y-62920476D01*
X42086666Y-52067142D02*
X42134285Y-52114761D01*
X42277142Y-52162380D01*
X42372380Y-52162380D01*
X42515238Y-52114761D01*
X42610476Y-52019523D01*
X42658095Y-51924285D01*
X42705714Y-51733809D01*
X42705714Y-51590952D01*
X42658095Y-51400476D01*
X42610476Y-51305238D01*
X42515238Y-51210000D01*
X42372380Y-51162380D01*
X42277142Y-51162380D01*
X42134285Y-51210000D01*
X42086666Y-51257619D01*
X41705714Y-51257619D02*
X41658095Y-51210000D01*
X41562857Y-51162380D01*
X41324761Y-51162380D01*
X41229523Y-51210000D01*
X41181904Y-51257619D01*
X41134285Y-51352857D01*
X41134285Y-51448095D01*
X41181904Y-51590952D01*
X41753333Y-52162380D01*
X41134285Y-52162380D01*
X117482857Y-42912380D02*
X117816190Y-42436190D01*
X118054285Y-42912380D02*
X118054285Y-41912380D01*
X117673333Y-41912380D01*
X117578095Y-41960000D01*
X117530476Y-42007619D01*
X117482857Y-42102857D01*
X117482857Y-42245714D01*
X117530476Y-42340952D01*
X117578095Y-42388571D01*
X117673333Y-42436190D01*
X118054285Y-42436190D01*
X116625714Y-42245714D02*
X116625714Y-42912380D01*
X116863809Y-41864761D02*
X117101904Y-42579047D01*
X116482857Y-42579047D01*
X115911428Y-41912380D02*
X115816190Y-41912380D01*
X115720952Y-41960000D01*
X115673333Y-42007619D01*
X115625714Y-42102857D01*
X115578095Y-42293333D01*
X115578095Y-42531428D01*
X115625714Y-42721904D01*
X115673333Y-42817142D01*
X115720952Y-42864761D01*
X115816190Y-42912380D01*
X115911428Y-42912380D01*
X116006666Y-42864761D01*
X116054285Y-42817142D01*
X116101904Y-42721904D01*
X116149523Y-42531428D01*
X116149523Y-42293333D01*
X116101904Y-42102857D01*
X116054285Y-42007619D01*
X116006666Y-41960000D01*
X115911428Y-41912380D01*
X41092380Y-54443333D02*
X40616190Y-54110000D01*
X41092380Y-53871904D02*
X40092380Y-53871904D01*
X40092380Y-54252857D01*
X40140000Y-54348095D01*
X40187619Y-54395714D01*
X40282857Y-54443333D01*
X40425714Y-54443333D01*
X40520952Y-54395714D01*
X40568571Y-54348095D01*
X40616190Y-54252857D01*
X40616190Y-53871904D01*
X41092380Y-55395714D02*
X41092380Y-54824285D01*
X41092380Y-55110000D02*
X40092380Y-55110000D01*
X40235238Y-55014761D01*
X40330476Y-54919523D01*
X40378095Y-54824285D01*
X112752142Y-34282142D02*
X112799761Y-34234523D01*
X112847380Y-34091666D01*
X112847380Y-33996428D01*
X112799761Y-33853571D01*
X112704523Y-33758333D01*
X112609285Y-33710714D01*
X112418809Y-33663095D01*
X112275952Y-33663095D01*
X112085476Y-33710714D01*
X111990238Y-33758333D01*
X111895000Y-33853571D01*
X111847380Y-33996428D01*
X111847380Y-34091666D01*
X111895000Y-34234523D01*
X111942619Y-34282142D01*
X112847380Y-35234523D02*
X112847380Y-34663095D01*
X112847380Y-34948809D02*
X111847380Y-34948809D01*
X111990238Y-34853571D01*
X112085476Y-34758333D01*
X112133095Y-34663095D01*
X111847380Y-36139285D02*
X111847380Y-35663095D01*
X112323571Y-35615476D01*
X112275952Y-35663095D01*
X112228333Y-35758333D01*
X112228333Y-35996428D01*
X112275952Y-36091666D01*
X112323571Y-36139285D01*
X112418809Y-36186904D01*
X112656904Y-36186904D01*
X112752142Y-36139285D01*
X112799761Y-36091666D01*
X112847380Y-35996428D01*
X112847380Y-35758333D01*
X112799761Y-35663095D01*
X112752142Y-35615476D01*
X55612380Y-44918333D02*
X55136190Y-44585000D01*
X55612380Y-44346904D02*
X54612380Y-44346904D01*
X54612380Y-44727857D01*
X54660000Y-44823095D01*
X54707619Y-44870714D01*
X54802857Y-44918333D01*
X54945714Y-44918333D01*
X55040952Y-44870714D01*
X55088571Y-44823095D01*
X55136190Y-44727857D01*
X55136190Y-44346904D01*
X54945714Y-45775476D02*
X55612380Y-45775476D01*
X54564761Y-45537380D02*
X55279047Y-45299285D01*
X55279047Y-45918333D01*
X61317142Y-48887142D02*
X61364761Y-48839523D01*
X61412380Y-48696666D01*
X61412380Y-48601428D01*
X61364761Y-48458571D01*
X61269523Y-48363333D01*
X61174285Y-48315714D01*
X60983809Y-48268095D01*
X60840952Y-48268095D01*
X60650476Y-48315714D01*
X60555238Y-48363333D01*
X60460000Y-48458571D01*
X60412380Y-48601428D01*
X60412380Y-48696666D01*
X60460000Y-48839523D01*
X60507619Y-48887142D01*
X61412380Y-49839523D02*
X61412380Y-49268095D01*
X61412380Y-49553809D02*
X60412380Y-49553809D01*
X60555238Y-49458571D01*
X60650476Y-49363333D01*
X60698095Y-49268095D01*
X60840952Y-50410952D02*
X60793333Y-50315714D01*
X60745714Y-50268095D01*
X60650476Y-50220476D01*
X60602857Y-50220476D01*
X60507619Y-50268095D01*
X60460000Y-50315714D01*
X60412380Y-50410952D01*
X60412380Y-50601428D01*
X60460000Y-50696666D01*
X60507619Y-50744285D01*
X60602857Y-50791904D01*
X60650476Y-50791904D01*
X60745714Y-50744285D01*
X60793333Y-50696666D01*
X60840952Y-50601428D01*
X60840952Y-50410952D01*
X60888571Y-50315714D01*
X60936190Y-50268095D01*
X61031428Y-50220476D01*
X61221904Y-50220476D01*
X61317142Y-50268095D01*
X61364761Y-50315714D01*
X61412380Y-50410952D01*
X61412380Y-50601428D01*
X61364761Y-50696666D01*
X61317142Y-50744285D01*
X61221904Y-50791904D01*
X61031428Y-50791904D01*
X60936190Y-50744285D01*
X60888571Y-50696666D01*
X60840952Y-50601428D01*
X62396666Y-59422380D02*
X62730000Y-58946190D01*
X62968095Y-59422380D02*
X62968095Y-58422380D01*
X62587142Y-58422380D01*
X62491904Y-58470000D01*
X62444285Y-58517619D01*
X62396666Y-58612857D01*
X62396666Y-58755714D01*
X62444285Y-58850952D01*
X62491904Y-58898571D01*
X62587142Y-58946190D01*
X62968095Y-58946190D01*
X61539523Y-58422380D02*
X61730000Y-58422380D01*
X61825238Y-58470000D01*
X61872857Y-58517619D01*
X61968095Y-58660476D01*
X62015714Y-58850952D01*
X62015714Y-59231904D01*
X61968095Y-59327142D01*
X61920476Y-59374761D01*
X61825238Y-59422380D01*
X61634761Y-59422380D01*
X61539523Y-59374761D01*
X61491904Y-59327142D01*
X61444285Y-59231904D01*
X61444285Y-58993809D01*
X61491904Y-58898571D01*
X61539523Y-58850952D01*
X61634761Y-58803333D01*
X61825238Y-58803333D01*
X61920476Y-58850952D01*
X61968095Y-58898571D01*
X62015714Y-58993809D01*
X97797857Y-56237142D02*
X97845476Y-56284761D01*
X97988333Y-56332380D01*
X98083571Y-56332380D01*
X98226428Y-56284761D01*
X98321666Y-56189523D01*
X98369285Y-56094285D01*
X98416904Y-55903809D01*
X98416904Y-55760952D01*
X98369285Y-55570476D01*
X98321666Y-55475238D01*
X98226428Y-55380000D01*
X98083571Y-55332380D01*
X97988333Y-55332380D01*
X97845476Y-55380000D01*
X97797857Y-55427619D01*
X96845476Y-56332380D02*
X97416904Y-56332380D01*
X97131190Y-56332380D02*
X97131190Y-55332380D01*
X97226428Y-55475238D01*
X97321666Y-55570476D01*
X97416904Y-55618095D01*
X96226428Y-55332380D02*
X96131190Y-55332380D01*
X96035952Y-55380000D01*
X95988333Y-55427619D01*
X95940714Y-55522857D01*
X95893095Y-55713333D01*
X95893095Y-55951428D01*
X95940714Y-56141904D01*
X95988333Y-56237142D01*
X96035952Y-56284761D01*
X96131190Y-56332380D01*
X96226428Y-56332380D01*
X96321666Y-56284761D01*
X96369285Y-56237142D01*
X96416904Y-56141904D01*
X96464523Y-55951428D01*
X96464523Y-55713333D01*
X96416904Y-55522857D01*
X96369285Y-55427619D01*
X96321666Y-55380000D01*
X96226428Y-55332380D01*
X114942857Y-58237380D02*
X115276190Y-57761190D01*
X115514285Y-58237380D02*
X115514285Y-57237380D01*
X115133333Y-57237380D01*
X115038095Y-57285000D01*
X114990476Y-57332619D01*
X114942857Y-57427857D01*
X114942857Y-57570714D01*
X114990476Y-57665952D01*
X115038095Y-57713571D01*
X115133333Y-57761190D01*
X115514285Y-57761190D01*
X114561904Y-57332619D02*
X114514285Y-57285000D01*
X114419047Y-57237380D01*
X114180952Y-57237380D01*
X114085714Y-57285000D01*
X114038095Y-57332619D01*
X113990476Y-57427857D01*
X113990476Y-57523095D01*
X114038095Y-57665952D01*
X114609523Y-58237380D01*
X113990476Y-58237380D01*
X113038095Y-58237380D02*
X113609523Y-58237380D01*
X113323809Y-58237380D02*
X113323809Y-57237380D01*
X113419047Y-57380238D01*
X113514285Y-57475476D01*
X113609523Y-57523095D01*
X114942857Y-68482380D02*
X115276190Y-68006190D01*
X115514285Y-68482380D02*
X115514285Y-67482380D01*
X115133333Y-67482380D01*
X115038095Y-67530000D01*
X114990476Y-67577619D01*
X114942857Y-67672857D01*
X114942857Y-67815714D01*
X114990476Y-67910952D01*
X115038095Y-67958571D01*
X115133333Y-68006190D01*
X115514285Y-68006190D01*
X114609523Y-67482380D02*
X113990476Y-67482380D01*
X114323809Y-67863333D01*
X114180952Y-67863333D01*
X114085714Y-67910952D01*
X114038095Y-67958571D01*
X113990476Y-68053809D01*
X113990476Y-68291904D01*
X114038095Y-68387142D01*
X114085714Y-68434761D01*
X114180952Y-68482380D01*
X114466666Y-68482380D01*
X114561904Y-68434761D01*
X114609523Y-68387142D01*
X113371428Y-67482380D02*
X113276190Y-67482380D01*
X113180952Y-67530000D01*
X113133333Y-67577619D01*
X113085714Y-67672857D01*
X113038095Y-67863333D01*
X113038095Y-68101428D01*
X113085714Y-68291904D01*
X113133333Y-68387142D01*
X113180952Y-68434761D01*
X113276190Y-68482380D01*
X113371428Y-68482380D01*
X113466666Y-68434761D01*
X113514285Y-68387142D01*
X113561904Y-68291904D01*
X113609523Y-68101428D01*
X113609523Y-67863333D01*
X113561904Y-67672857D01*
X113514285Y-67577619D01*
X113466666Y-67530000D01*
X113371428Y-67482380D01*
X122372380Y-46251904D02*
X121372380Y-46251904D01*
X121372380Y-46490000D01*
X121420000Y-46632857D01*
X121515238Y-46728095D01*
X121610476Y-46775714D01*
X121800952Y-46823333D01*
X121943809Y-46823333D01*
X122134285Y-46775714D01*
X122229523Y-46728095D01*
X122324761Y-46632857D01*
X122372380Y-46490000D01*
X122372380Y-46251904D01*
X121372380Y-47156666D02*
X121372380Y-47775714D01*
X121753333Y-47442380D01*
X121753333Y-47585238D01*
X121800952Y-47680476D01*
X121848571Y-47728095D01*
X121943809Y-47775714D01*
X122181904Y-47775714D01*
X122277142Y-47728095D01*
X122324761Y-47680476D01*
X122372380Y-47585238D01*
X122372380Y-47299523D01*
X122324761Y-47204285D01*
X122277142Y-47156666D01*
X104497142Y-49522142D02*
X104544761Y-49474523D01*
X104592380Y-49331666D01*
X104592380Y-49236428D01*
X104544761Y-49093571D01*
X104449523Y-48998333D01*
X104354285Y-48950714D01*
X104163809Y-48903095D01*
X104020952Y-48903095D01*
X103830476Y-48950714D01*
X103735238Y-48998333D01*
X103640000Y-49093571D01*
X103592380Y-49236428D01*
X103592380Y-49331666D01*
X103640000Y-49474523D01*
X103687619Y-49522142D01*
X104592380Y-50474523D02*
X104592380Y-49903095D01*
X104592380Y-50188809D02*
X103592380Y-50188809D01*
X103735238Y-50093571D01*
X103830476Y-49998333D01*
X103878095Y-49903095D01*
X104592380Y-50950714D02*
X104592380Y-51141190D01*
X104544761Y-51236428D01*
X104497142Y-51284047D01*
X104354285Y-51379285D01*
X104163809Y-51426904D01*
X103782857Y-51426904D01*
X103687619Y-51379285D01*
X103640000Y-51331666D01*
X103592380Y-51236428D01*
X103592380Y-51045952D01*
X103640000Y-50950714D01*
X103687619Y-50903095D01*
X103782857Y-50855476D01*
X104020952Y-50855476D01*
X104116190Y-50903095D01*
X104163809Y-50950714D01*
X104211428Y-51045952D01*
X104211428Y-51236428D01*
X104163809Y-51331666D01*
X104116190Y-51379285D01*
X104020952Y-51426904D01*
X75572857Y-36732380D02*
X75906190Y-36256190D01*
X76144285Y-36732380D02*
X76144285Y-35732380D01*
X75763333Y-35732380D01*
X75668095Y-35780000D01*
X75620476Y-35827619D01*
X75572857Y-35922857D01*
X75572857Y-36065714D01*
X75620476Y-36160952D01*
X75668095Y-36208571D01*
X75763333Y-36256190D01*
X76144285Y-36256190D01*
X75191904Y-35827619D02*
X75144285Y-35780000D01*
X75049047Y-35732380D01*
X74810952Y-35732380D01*
X74715714Y-35780000D01*
X74668095Y-35827619D01*
X74620476Y-35922857D01*
X74620476Y-36018095D01*
X74668095Y-36160952D01*
X75239523Y-36732380D01*
X74620476Y-36732380D01*
X74287142Y-35732380D02*
X73668095Y-35732380D01*
X74001428Y-36113333D01*
X73858571Y-36113333D01*
X73763333Y-36160952D01*
X73715714Y-36208571D01*
X73668095Y-36303809D01*
X73668095Y-36541904D01*
X73715714Y-36637142D01*
X73763333Y-36684761D01*
X73858571Y-36732380D01*
X74144285Y-36732380D01*
X74239523Y-36684761D01*
X74287142Y-36637142D01*
X43632380Y-54443333D02*
X43156190Y-54110000D01*
X43632380Y-53871904D02*
X42632380Y-53871904D01*
X42632380Y-54252857D01*
X42680000Y-54348095D01*
X42727619Y-54395714D01*
X42822857Y-54443333D01*
X42965714Y-54443333D01*
X43060952Y-54395714D01*
X43108571Y-54348095D01*
X43156190Y-54252857D01*
X43156190Y-53871904D01*
X42727619Y-54824285D02*
X42680000Y-54871904D01*
X42632380Y-54967142D01*
X42632380Y-55205238D01*
X42680000Y-55300476D01*
X42727619Y-55348095D01*
X42822857Y-55395714D01*
X42918095Y-55395714D01*
X43060952Y-55348095D01*
X43632380Y-54776666D01*
X43632380Y-55395714D01*
X72556666Y-46807380D02*
X72890000Y-46331190D01*
X73128095Y-46807380D02*
X73128095Y-45807380D01*
X72747142Y-45807380D01*
X72651904Y-45855000D01*
X72604285Y-45902619D01*
X72556666Y-45997857D01*
X72556666Y-46140714D01*
X72604285Y-46235952D01*
X72651904Y-46283571D01*
X72747142Y-46331190D01*
X73128095Y-46331190D01*
X72080476Y-46807380D02*
X71890000Y-46807380D01*
X71794761Y-46759761D01*
X71747142Y-46712142D01*
X71651904Y-46569285D01*
X71604285Y-46378809D01*
X71604285Y-45997857D01*
X71651904Y-45902619D01*
X71699523Y-45855000D01*
X71794761Y-45807380D01*
X71985238Y-45807380D01*
X72080476Y-45855000D01*
X72128095Y-45902619D01*
X72175714Y-45997857D01*
X72175714Y-46235952D01*
X72128095Y-46331190D01*
X72080476Y-46378809D01*
X71985238Y-46426428D01*
X71794761Y-46426428D01*
X71699523Y-46378809D01*
X71651904Y-46331190D01*
X71604285Y-46235952D01*
X56237142Y-55078333D02*
X56284761Y-55030714D01*
X56332380Y-54887857D01*
X56332380Y-54792619D01*
X56284761Y-54649761D01*
X56189523Y-54554523D01*
X56094285Y-54506904D01*
X55903809Y-54459285D01*
X55760952Y-54459285D01*
X55570476Y-54506904D01*
X55475238Y-54554523D01*
X55380000Y-54649761D01*
X55332380Y-54792619D01*
X55332380Y-54887857D01*
X55380000Y-55030714D01*
X55427619Y-55078333D01*
X55332380Y-55983095D02*
X55332380Y-55506904D01*
X55808571Y-55459285D01*
X55760952Y-55506904D01*
X55713333Y-55602142D01*
X55713333Y-55840238D01*
X55760952Y-55935476D01*
X55808571Y-55983095D01*
X55903809Y-56030714D01*
X56141904Y-56030714D01*
X56237142Y-55983095D01*
X56284761Y-55935476D01*
X56332380Y-55840238D01*
X56332380Y-55602142D01*
X56284761Y-55506904D01*
X56237142Y-55459285D01*
X119832380Y-61587142D02*
X119356190Y-61253809D01*
X119832380Y-61015714D02*
X118832380Y-61015714D01*
X118832380Y-61396666D01*
X118880000Y-61491904D01*
X118927619Y-61539523D01*
X119022857Y-61587142D01*
X119165714Y-61587142D01*
X119260952Y-61539523D01*
X119308571Y-61491904D01*
X119356190Y-61396666D01*
X119356190Y-61015714D01*
X118832380Y-61920476D02*
X118832380Y-62539523D01*
X119213333Y-62206190D01*
X119213333Y-62349047D01*
X119260952Y-62444285D01*
X119308571Y-62491904D01*
X119403809Y-62539523D01*
X119641904Y-62539523D01*
X119737142Y-62491904D01*
X119784761Y-62444285D01*
X119832380Y-62349047D01*
X119832380Y-62063333D01*
X119784761Y-61968095D01*
X119737142Y-61920476D01*
X119832380Y-63491904D02*
X119832380Y-62920476D01*
X119832380Y-63206190D02*
X118832380Y-63206190D01*
X118975238Y-63110952D01*
X119070476Y-63015714D01*
X119118095Y-62920476D01*
X52236666Y-49347380D02*
X52570000Y-48871190D01*
X52808095Y-49347380D02*
X52808095Y-48347380D01*
X52427142Y-48347380D01*
X52331904Y-48395000D01*
X52284285Y-48442619D01*
X52236666Y-48537857D01*
X52236666Y-48680714D01*
X52284285Y-48775952D01*
X52331904Y-48823571D01*
X52427142Y-48871190D01*
X52808095Y-48871190D01*
X51665238Y-48775952D02*
X51760476Y-48728333D01*
X51808095Y-48680714D01*
X51855714Y-48585476D01*
X51855714Y-48537857D01*
X51808095Y-48442619D01*
X51760476Y-48395000D01*
X51665238Y-48347380D01*
X51474761Y-48347380D01*
X51379523Y-48395000D01*
X51331904Y-48442619D01*
X51284285Y-48537857D01*
X51284285Y-48585476D01*
X51331904Y-48680714D01*
X51379523Y-48728333D01*
X51474761Y-48775952D01*
X51665238Y-48775952D01*
X51760476Y-48823571D01*
X51808095Y-48871190D01*
X51855714Y-48966428D01*
X51855714Y-49156904D01*
X51808095Y-49252142D01*
X51760476Y-49299761D01*
X51665238Y-49347380D01*
X51474761Y-49347380D01*
X51379523Y-49299761D01*
X51331904Y-49252142D01*
X51284285Y-49156904D01*
X51284285Y-48966428D01*
X51331904Y-48871190D01*
X51379523Y-48823571D01*
X51474761Y-48775952D01*
X116212857Y-46712142D02*
X116260476Y-46759761D01*
X116403333Y-46807380D01*
X116498571Y-46807380D01*
X116641428Y-46759761D01*
X116736666Y-46664523D01*
X116784285Y-46569285D01*
X116831904Y-46378809D01*
X116831904Y-46235952D01*
X116784285Y-46045476D01*
X116736666Y-45950238D01*
X116641428Y-45855000D01*
X116498571Y-45807380D01*
X116403333Y-45807380D01*
X116260476Y-45855000D01*
X116212857Y-45902619D01*
X115260476Y-46807380D02*
X115831904Y-46807380D01*
X115546190Y-46807380D02*
X115546190Y-45807380D01*
X115641428Y-45950238D01*
X115736666Y-46045476D01*
X115831904Y-46093095D01*
X114403333Y-46140714D02*
X114403333Y-46807380D01*
X114641428Y-45759761D02*
X114879523Y-46474047D01*
X114260476Y-46474047D01*
X127452380Y-61587142D02*
X126976190Y-61253809D01*
X127452380Y-61015714D02*
X126452380Y-61015714D01*
X126452380Y-61396666D01*
X126500000Y-61491904D01*
X126547619Y-61539523D01*
X126642857Y-61587142D01*
X126785714Y-61587142D01*
X126880952Y-61539523D01*
X126928571Y-61491904D01*
X126976190Y-61396666D01*
X126976190Y-61015714D01*
X126452380Y-61920476D02*
X126452380Y-62539523D01*
X126833333Y-62206190D01*
X126833333Y-62349047D01*
X126880952Y-62444285D01*
X126928571Y-62491904D01*
X127023809Y-62539523D01*
X127261904Y-62539523D01*
X127357142Y-62491904D01*
X127404761Y-62444285D01*
X127452380Y-62349047D01*
X127452380Y-62063333D01*
X127404761Y-61968095D01*
X127357142Y-61920476D01*
X126452380Y-62872857D02*
X126452380Y-63491904D01*
X126833333Y-63158571D01*
X126833333Y-63301428D01*
X126880952Y-63396666D01*
X126928571Y-63444285D01*
X127023809Y-63491904D01*
X127261904Y-63491904D01*
X127357142Y-63444285D01*
X127404761Y-63396666D01*
X127452380Y-63301428D01*
X127452380Y-63015714D01*
X127404761Y-62920476D01*
X127357142Y-62872857D01*
X41812380Y-43807142D02*
X41336190Y-43473809D01*
X41812380Y-43235714D02*
X40812380Y-43235714D01*
X40812380Y-43616666D01*
X40860000Y-43711904D01*
X40907619Y-43759523D01*
X41002857Y-43807142D01*
X41145714Y-43807142D01*
X41240952Y-43759523D01*
X41288571Y-43711904D01*
X41336190Y-43616666D01*
X41336190Y-43235714D01*
X41812380Y-44759523D02*
X41812380Y-44188095D01*
X41812380Y-44473809D02*
X40812380Y-44473809D01*
X40955238Y-44378571D01*
X41050476Y-44283333D01*
X41098095Y-44188095D01*
X40907619Y-45140476D02*
X40860000Y-45188095D01*
X40812380Y-45283333D01*
X40812380Y-45521428D01*
X40860000Y-45616666D01*
X40907619Y-45664285D01*
X41002857Y-45711904D01*
X41098095Y-45711904D01*
X41240952Y-45664285D01*
X41812380Y-45092857D01*
X41812380Y-45711904D01*
X117482857Y-35377380D02*
X117816190Y-34901190D01*
X118054285Y-35377380D02*
X118054285Y-34377380D01*
X117673333Y-34377380D01*
X117578095Y-34425000D01*
X117530476Y-34472619D01*
X117482857Y-34567857D01*
X117482857Y-34710714D01*
X117530476Y-34805952D01*
X117578095Y-34853571D01*
X117673333Y-34901190D01*
X118054285Y-34901190D01*
X117149523Y-34377380D02*
X116530476Y-34377380D01*
X116863809Y-34758333D01*
X116720952Y-34758333D01*
X116625714Y-34805952D01*
X116578095Y-34853571D01*
X116530476Y-34948809D01*
X116530476Y-35186904D01*
X116578095Y-35282142D01*
X116625714Y-35329761D01*
X116720952Y-35377380D01*
X117006666Y-35377380D01*
X117101904Y-35329761D01*
X117149523Y-35282142D01*
X115959047Y-34805952D02*
X116054285Y-34758333D01*
X116101904Y-34710714D01*
X116149523Y-34615476D01*
X116149523Y-34567857D01*
X116101904Y-34472619D01*
X116054285Y-34425000D01*
X115959047Y-34377380D01*
X115768571Y-34377380D01*
X115673333Y-34425000D01*
X115625714Y-34472619D01*
X115578095Y-34567857D01*
X115578095Y-34615476D01*
X115625714Y-34710714D01*
X115673333Y-34758333D01*
X115768571Y-34805952D01*
X115959047Y-34805952D01*
X116054285Y-34853571D01*
X116101904Y-34901190D01*
X116149523Y-34996428D01*
X116149523Y-35186904D01*
X116101904Y-35282142D01*
X116054285Y-35329761D01*
X115959047Y-35377380D01*
X115768571Y-35377380D01*
X115673333Y-35329761D01*
X115625714Y-35282142D01*
X115578095Y-35186904D01*
X115578095Y-34996428D01*
X115625714Y-34901190D01*
X115673333Y-34853571D01*
X115768571Y-34805952D01*
X114942857Y-49432380D02*
X115276190Y-48956190D01*
X115514285Y-49432380D02*
X115514285Y-48432380D01*
X115133333Y-48432380D01*
X115038095Y-48480000D01*
X114990476Y-48527619D01*
X114942857Y-48622857D01*
X114942857Y-48765714D01*
X114990476Y-48860952D01*
X115038095Y-48908571D01*
X115133333Y-48956190D01*
X115514285Y-48956190D01*
X113990476Y-49432380D02*
X114561904Y-49432380D01*
X114276190Y-49432380D02*
X114276190Y-48432380D01*
X114371428Y-48575238D01*
X114466666Y-48670476D01*
X114561904Y-48718095D01*
X113419047Y-48860952D02*
X113514285Y-48813333D01*
X113561904Y-48765714D01*
X113609523Y-48670476D01*
X113609523Y-48622857D01*
X113561904Y-48527619D01*
X113514285Y-48480000D01*
X113419047Y-48432380D01*
X113228571Y-48432380D01*
X113133333Y-48480000D01*
X113085714Y-48527619D01*
X113038095Y-48622857D01*
X113038095Y-48670476D01*
X113085714Y-48765714D01*
X113133333Y-48813333D01*
X113228571Y-48860952D01*
X113419047Y-48860952D01*
X113514285Y-48908571D01*
X113561904Y-48956190D01*
X113609523Y-49051428D01*
X113609523Y-49241904D01*
X113561904Y-49337142D01*
X113514285Y-49384761D01*
X113419047Y-49432380D01*
X113228571Y-49432380D01*
X113133333Y-49384761D01*
X113085714Y-49337142D01*
X113038095Y-49241904D01*
X113038095Y-49051428D01*
X113085714Y-48956190D01*
X113133333Y-48908571D01*
X113228571Y-48860952D01*
X72556666Y-55602142D02*
X72604285Y-55649761D01*
X72747142Y-55697380D01*
X72842380Y-55697380D01*
X72985238Y-55649761D01*
X73080476Y-55554523D01*
X73128095Y-55459285D01*
X73175714Y-55268809D01*
X73175714Y-55125952D01*
X73128095Y-54935476D01*
X73080476Y-54840238D01*
X72985238Y-54745000D01*
X72842380Y-54697380D01*
X72747142Y-54697380D01*
X72604285Y-54745000D01*
X72556666Y-54792619D01*
X71699523Y-55030714D02*
X71699523Y-55697380D01*
X71937619Y-54649761D02*
X72175714Y-55364047D01*
X71556666Y-55364047D01*
X99067857Y-49347380D02*
X99401190Y-48871190D01*
X99639285Y-49347380D02*
X99639285Y-48347380D01*
X99258333Y-48347380D01*
X99163095Y-48395000D01*
X99115476Y-48442619D01*
X99067857Y-48537857D01*
X99067857Y-48680714D01*
X99115476Y-48775952D01*
X99163095Y-48823571D01*
X99258333Y-48871190D01*
X99639285Y-48871190D01*
X98686904Y-48442619D02*
X98639285Y-48395000D01*
X98544047Y-48347380D01*
X98305952Y-48347380D01*
X98210714Y-48395000D01*
X98163095Y-48442619D01*
X98115476Y-48537857D01*
X98115476Y-48633095D01*
X98163095Y-48775952D01*
X98734523Y-49347380D01*
X98115476Y-49347380D01*
X97496428Y-48347380D02*
X97401190Y-48347380D01*
X97305952Y-48395000D01*
X97258333Y-48442619D01*
X97210714Y-48537857D01*
X97163095Y-48728333D01*
X97163095Y-48966428D01*
X97210714Y-49156904D01*
X97258333Y-49252142D01*
X97305952Y-49299761D01*
X97401190Y-49347380D01*
X97496428Y-49347380D01*
X97591666Y-49299761D01*
X97639285Y-49252142D01*
X97686904Y-49156904D01*
X97734523Y-48966428D01*
X97734523Y-48728333D01*
X97686904Y-48537857D01*
X97639285Y-48442619D01*
X97591666Y-48395000D01*
X97496428Y-48347380D01*
X107037142Y-49522142D02*
X107084761Y-49474523D01*
X107132380Y-49331666D01*
X107132380Y-49236428D01*
X107084761Y-49093571D01*
X106989523Y-48998333D01*
X106894285Y-48950714D01*
X106703809Y-48903095D01*
X106560952Y-48903095D01*
X106370476Y-48950714D01*
X106275238Y-48998333D01*
X106180000Y-49093571D01*
X106132380Y-49236428D01*
X106132380Y-49331666D01*
X106180000Y-49474523D01*
X106227619Y-49522142D01*
X106227619Y-49903095D02*
X106180000Y-49950714D01*
X106132380Y-50045952D01*
X106132380Y-50284047D01*
X106180000Y-50379285D01*
X106227619Y-50426904D01*
X106322857Y-50474523D01*
X106418095Y-50474523D01*
X106560952Y-50426904D01*
X107132380Y-49855476D01*
X107132380Y-50474523D01*
X106132380Y-50807857D02*
X106132380Y-51426904D01*
X106513333Y-51093571D01*
X106513333Y-51236428D01*
X106560952Y-51331666D01*
X106608571Y-51379285D01*
X106703809Y-51426904D01*
X106941904Y-51426904D01*
X107037142Y-51379285D01*
X107084761Y-51331666D01*
X107132380Y-51236428D01*
X107132380Y-50950714D01*
X107084761Y-50855476D01*
X107037142Y-50807857D01*
X83002380Y-32377142D02*
X82526190Y-32043809D01*
X83002380Y-31805714D02*
X82002380Y-31805714D01*
X82002380Y-32186666D01*
X82050000Y-32281904D01*
X82097619Y-32329523D01*
X82192857Y-32377142D01*
X82335714Y-32377142D01*
X82430952Y-32329523D01*
X82478571Y-32281904D01*
X82526190Y-32186666D01*
X82526190Y-31805714D01*
X82335714Y-33234285D02*
X83002380Y-33234285D01*
X81954761Y-32996190D02*
X82669047Y-32758095D01*
X82669047Y-33377142D01*
X82002380Y-34234285D02*
X82002380Y-33758095D01*
X82478571Y-33710476D01*
X82430952Y-33758095D01*
X82383333Y-33853333D01*
X82383333Y-34091428D01*
X82430952Y-34186666D01*
X82478571Y-34234285D01*
X82573809Y-34281904D01*
X82811904Y-34281904D01*
X82907142Y-34234285D01*
X82954761Y-34186666D01*
X83002380Y-34091428D01*
X83002380Y-33853333D01*
X82954761Y-33758095D01*
X82907142Y-33710476D01*
X128802380Y-42537142D02*
X128326190Y-42203809D01*
X128802380Y-41965714D02*
X127802380Y-41965714D01*
X127802380Y-42346666D01*
X127850000Y-42441904D01*
X127897619Y-42489523D01*
X127992857Y-42537142D01*
X128135714Y-42537142D01*
X128230952Y-42489523D01*
X128278571Y-42441904D01*
X128326190Y-42346666D01*
X128326190Y-41965714D01*
X128135714Y-43394285D02*
X128802380Y-43394285D01*
X127754761Y-43156190D02*
X128469047Y-42918095D01*
X128469047Y-43537142D01*
X127802380Y-43822857D02*
X127802380Y-44441904D01*
X128183333Y-44108571D01*
X128183333Y-44251428D01*
X128230952Y-44346666D01*
X128278571Y-44394285D01*
X128373809Y-44441904D01*
X128611904Y-44441904D01*
X128707142Y-44394285D01*
X128754761Y-44346666D01*
X128802380Y-44251428D01*
X128802380Y-43965714D01*
X128754761Y-43870476D01*
X128707142Y-43822857D01*
X84992380Y-42537142D02*
X84516190Y-42203809D01*
X84992380Y-41965714D02*
X83992380Y-41965714D01*
X83992380Y-42346666D01*
X84040000Y-42441904D01*
X84087619Y-42489523D01*
X84182857Y-42537142D01*
X84325714Y-42537142D01*
X84420952Y-42489523D01*
X84468571Y-42441904D01*
X84516190Y-42346666D01*
X84516190Y-41965714D01*
X84087619Y-42918095D02*
X84040000Y-42965714D01*
X83992380Y-43060952D01*
X83992380Y-43299047D01*
X84040000Y-43394285D01*
X84087619Y-43441904D01*
X84182857Y-43489523D01*
X84278095Y-43489523D01*
X84420952Y-43441904D01*
X84992380Y-42870476D01*
X84992380Y-43489523D01*
X83992380Y-43822857D02*
X83992380Y-44489523D01*
X84992380Y-44060952D01*
X114942857Y-63402380D02*
X115276190Y-62926190D01*
X115514285Y-63402380D02*
X115514285Y-62402380D01*
X115133333Y-62402380D01*
X115038095Y-62450000D01*
X114990476Y-62497619D01*
X114942857Y-62592857D01*
X114942857Y-62735714D01*
X114990476Y-62830952D01*
X115038095Y-62878571D01*
X115133333Y-62926190D01*
X115514285Y-62926190D01*
X114561904Y-62497619D02*
X114514285Y-62450000D01*
X114419047Y-62402380D01*
X114180952Y-62402380D01*
X114085714Y-62450000D01*
X114038095Y-62497619D01*
X113990476Y-62592857D01*
X113990476Y-62688095D01*
X114038095Y-62830952D01*
X114609523Y-63402380D01*
X113990476Y-63402380D01*
X113514285Y-63402380D02*
X113323809Y-63402380D01*
X113228571Y-63354761D01*
X113180952Y-63307142D01*
X113085714Y-63164285D01*
X113038095Y-62973809D01*
X113038095Y-62592857D01*
X113085714Y-62497619D01*
X113133333Y-62450000D01*
X113228571Y-62402380D01*
X113419047Y-62402380D01*
X113514285Y-62450000D01*
X113561904Y-62497619D01*
X113609523Y-62592857D01*
X113609523Y-62830952D01*
X113561904Y-62926190D01*
X113514285Y-62973809D01*
X113419047Y-63021428D01*
X113228571Y-63021428D01*
X113133333Y-62973809D01*
X113085714Y-62926190D01*
X113038095Y-62830952D01*
X63857142Y-48887142D02*
X63904761Y-48839523D01*
X63952380Y-48696666D01*
X63952380Y-48601428D01*
X63904761Y-48458571D01*
X63809523Y-48363333D01*
X63714285Y-48315714D01*
X63523809Y-48268095D01*
X63380952Y-48268095D01*
X63190476Y-48315714D01*
X63095238Y-48363333D01*
X63000000Y-48458571D01*
X62952380Y-48601428D01*
X62952380Y-48696666D01*
X63000000Y-48839523D01*
X63047619Y-48887142D01*
X63047619Y-49268095D02*
X63000000Y-49315714D01*
X62952380Y-49410952D01*
X62952380Y-49649047D01*
X63000000Y-49744285D01*
X63047619Y-49791904D01*
X63142857Y-49839523D01*
X63238095Y-49839523D01*
X63380952Y-49791904D01*
X63952380Y-49220476D01*
X63952380Y-49839523D01*
X63047619Y-50220476D02*
X63000000Y-50268095D01*
X62952380Y-50363333D01*
X62952380Y-50601428D01*
X63000000Y-50696666D01*
X63047619Y-50744285D01*
X63142857Y-50791904D01*
X63238095Y-50791904D01*
X63380952Y-50744285D01*
X63952380Y-50172857D01*
X63952380Y-50791904D01*
X107037142Y-37298333D02*
X107084761Y-37250714D01*
X107132380Y-37107857D01*
X107132380Y-37012619D01*
X107084761Y-36869761D01*
X106989523Y-36774523D01*
X106894285Y-36726904D01*
X106703809Y-36679285D01*
X106560952Y-36679285D01*
X106370476Y-36726904D01*
X106275238Y-36774523D01*
X106180000Y-36869761D01*
X106132380Y-37012619D01*
X106132380Y-37107857D01*
X106180000Y-37250714D01*
X106227619Y-37298333D01*
X106560952Y-37869761D02*
X106513333Y-37774523D01*
X106465714Y-37726904D01*
X106370476Y-37679285D01*
X106322857Y-37679285D01*
X106227619Y-37726904D01*
X106180000Y-37774523D01*
X106132380Y-37869761D01*
X106132380Y-38060238D01*
X106180000Y-38155476D01*
X106227619Y-38203095D01*
X106322857Y-38250714D01*
X106370476Y-38250714D01*
X106465714Y-38203095D01*
X106513333Y-38155476D01*
X106560952Y-38060238D01*
X106560952Y-37869761D01*
X106608571Y-37774523D01*
X106656190Y-37726904D01*
X106751428Y-37679285D01*
X106941904Y-37679285D01*
X107037142Y-37726904D01*
X107084761Y-37774523D01*
X107132380Y-37869761D01*
X107132380Y-38060238D01*
X107084761Y-38155476D01*
X107037142Y-38203095D01*
X106941904Y-38250714D01*
X106751428Y-38250714D01*
X106656190Y-38203095D01*
X106608571Y-38155476D01*
X106560952Y-38060238D01*
X89542857Y-72207380D02*
X89876190Y-71731190D01*
X90114285Y-72207380D02*
X90114285Y-71207380D01*
X89733333Y-71207380D01*
X89638095Y-71255000D01*
X89590476Y-71302619D01*
X89542857Y-71397857D01*
X89542857Y-71540714D01*
X89590476Y-71635952D01*
X89638095Y-71683571D01*
X89733333Y-71731190D01*
X90114285Y-71731190D01*
X88685714Y-71540714D02*
X88685714Y-72207380D01*
X88923809Y-71159761D02*
X89161904Y-71874047D01*
X88542857Y-71874047D01*
X88209523Y-71302619D02*
X88161904Y-71255000D01*
X88066666Y-71207380D01*
X87828571Y-71207380D01*
X87733333Y-71255000D01*
X87685714Y-71302619D01*
X87638095Y-71397857D01*
X87638095Y-71493095D01*
X87685714Y-71635952D01*
X88257142Y-72207380D01*
X87638095Y-72207380D01*
X122372380Y-61587142D02*
X121896190Y-61253809D01*
X122372380Y-61015714D02*
X121372380Y-61015714D01*
X121372380Y-61396666D01*
X121420000Y-61491904D01*
X121467619Y-61539523D01*
X121562857Y-61587142D01*
X121705714Y-61587142D01*
X121800952Y-61539523D01*
X121848571Y-61491904D01*
X121896190Y-61396666D01*
X121896190Y-61015714D01*
X121372380Y-61920476D02*
X121372380Y-62539523D01*
X121753333Y-62206190D01*
X121753333Y-62349047D01*
X121800952Y-62444285D01*
X121848571Y-62491904D01*
X121943809Y-62539523D01*
X122181904Y-62539523D01*
X122277142Y-62491904D01*
X122324761Y-62444285D01*
X122372380Y-62349047D01*
X122372380Y-62063333D01*
X122324761Y-61968095D01*
X122277142Y-61920476D01*
X121372380Y-62872857D02*
X121372380Y-63539523D01*
X122372380Y-63110952D01*
X92717857Y-46712142D02*
X92765476Y-46759761D01*
X92908333Y-46807380D01*
X93003571Y-46807380D01*
X93146428Y-46759761D01*
X93241666Y-46664523D01*
X93289285Y-46569285D01*
X93336904Y-46378809D01*
X93336904Y-46235952D01*
X93289285Y-46045476D01*
X93241666Y-45950238D01*
X93146428Y-45855000D01*
X93003571Y-45807380D01*
X92908333Y-45807380D01*
X92765476Y-45855000D01*
X92717857Y-45902619D01*
X91765476Y-46807380D02*
X92336904Y-46807380D01*
X92051190Y-46807380D02*
X92051190Y-45807380D01*
X92146428Y-45950238D01*
X92241666Y-46045476D01*
X92336904Y-46093095D01*
X91384523Y-45902619D02*
X91336904Y-45855000D01*
X91241666Y-45807380D01*
X91003571Y-45807380D01*
X90908333Y-45855000D01*
X90860714Y-45902619D01*
X90813095Y-45997857D01*
X90813095Y-46093095D01*
X90860714Y-46235952D01*
X91432142Y-46807380D01*
X90813095Y-46807380D01*
X117641666Y-53697142D02*
X117689285Y-53744761D01*
X117832142Y-53792380D01*
X117927380Y-53792380D01*
X118070238Y-53744761D01*
X118165476Y-53649523D01*
X118213095Y-53554285D01*
X118260714Y-53363809D01*
X118260714Y-53220952D01*
X118213095Y-53030476D01*
X118165476Y-52935238D01*
X118070238Y-52840000D01*
X117927380Y-52792380D01*
X117832142Y-52792380D01*
X117689285Y-52840000D01*
X117641666Y-52887619D01*
X117165476Y-53792380D02*
X116975000Y-53792380D01*
X116879761Y-53744761D01*
X116832142Y-53697142D01*
X116736904Y-53554285D01*
X116689285Y-53363809D01*
X116689285Y-52982857D01*
X116736904Y-52887619D01*
X116784523Y-52840000D01*
X116879761Y-52792380D01*
X117070238Y-52792380D01*
X117165476Y-52840000D01*
X117213095Y-52887619D01*
X117260714Y-52982857D01*
X117260714Y-53220952D01*
X117213095Y-53316190D01*
X117165476Y-53363809D01*
X117070238Y-53411428D01*
X116879761Y-53411428D01*
X116784523Y-53363809D01*
X116736904Y-53316190D01*
X116689285Y-53220952D01*
X102242857Y-31652380D02*
X102576190Y-31176190D01*
X102814285Y-31652380D02*
X102814285Y-30652380D01*
X102433333Y-30652380D01*
X102338095Y-30700000D01*
X102290476Y-30747619D01*
X102242857Y-30842857D01*
X102242857Y-30985714D01*
X102290476Y-31080952D01*
X102338095Y-31128571D01*
X102433333Y-31176190D01*
X102814285Y-31176190D01*
X101290476Y-31652380D02*
X101861904Y-31652380D01*
X101576190Y-31652380D02*
X101576190Y-30652380D01*
X101671428Y-30795238D01*
X101766666Y-30890476D01*
X101861904Y-30938095D01*
X100433333Y-30652380D02*
X100623809Y-30652380D01*
X100719047Y-30700000D01*
X100766666Y-30747619D01*
X100861904Y-30890476D01*
X100909523Y-31080952D01*
X100909523Y-31461904D01*
X100861904Y-31557142D01*
X100814285Y-31604761D01*
X100719047Y-31652380D01*
X100528571Y-31652380D01*
X100433333Y-31604761D01*
X100385714Y-31557142D01*
X100338095Y-31461904D01*
X100338095Y-31223809D01*
X100385714Y-31128571D01*
X100433333Y-31080952D01*
X100528571Y-31033333D01*
X100719047Y-31033333D01*
X100814285Y-31080952D01*
X100861904Y-31128571D01*
X100909523Y-31223809D01*
X90812857Y-49347380D02*
X91146190Y-48871190D01*
X91384285Y-49347380D02*
X91384285Y-48347380D01*
X91003333Y-48347380D01*
X90908095Y-48395000D01*
X90860476Y-48442619D01*
X90812857Y-48537857D01*
X90812857Y-48680714D01*
X90860476Y-48775952D01*
X90908095Y-48823571D01*
X91003333Y-48871190D01*
X91384285Y-48871190D01*
X89860476Y-49347380D02*
X90431904Y-49347380D01*
X90146190Y-49347380D02*
X90146190Y-48347380D01*
X90241428Y-48490238D01*
X90336666Y-48585476D01*
X90431904Y-48633095D01*
X89384285Y-49347380D02*
X89193809Y-49347380D01*
X89098571Y-49299761D01*
X89050952Y-49252142D01*
X88955714Y-49109285D01*
X88908095Y-48918809D01*
X88908095Y-48537857D01*
X88955714Y-48442619D01*
X89003333Y-48395000D01*
X89098571Y-48347380D01*
X89289047Y-48347380D01*
X89384285Y-48395000D01*
X89431904Y-48442619D01*
X89479523Y-48537857D01*
X89479523Y-48775952D01*
X89431904Y-48871190D01*
X89384285Y-48918809D01*
X89289047Y-48966428D01*
X89098571Y-48966428D01*
X89003333Y-48918809D01*
X88955714Y-48871190D01*
X88908095Y-48775952D01*
X52712857Y-55612380D02*
X53046190Y-55136190D01*
X53284285Y-55612380D02*
X53284285Y-54612380D01*
X52903333Y-54612380D01*
X52808095Y-54660000D01*
X52760476Y-54707619D01*
X52712857Y-54802857D01*
X52712857Y-54945714D01*
X52760476Y-55040952D01*
X52808095Y-55088571D01*
X52903333Y-55136190D01*
X53284285Y-55136190D01*
X51760476Y-55612380D02*
X52331904Y-55612380D01*
X52046190Y-55612380D02*
X52046190Y-54612380D01*
X52141428Y-54755238D01*
X52236666Y-54850476D01*
X52331904Y-54898095D01*
X51427142Y-54612380D02*
X50808095Y-54612380D01*
X51141428Y-54993333D01*
X50998571Y-54993333D01*
X50903333Y-55040952D01*
X50855714Y-55088571D01*
X50808095Y-55183809D01*
X50808095Y-55421904D01*
X50855714Y-55517142D01*
X50903333Y-55564761D01*
X50998571Y-55612380D01*
X51284285Y-55612380D01*
X51379523Y-55564761D01*
X51427142Y-55517142D01*
D11*
X48521252Y-45610000D02*
X47998748Y-45610000D01*
X48521252Y-47080000D02*
X47998748Y-47080000D01*
X61870000Y-40097064D02*
X61870000Y-38642936D01*
X60050000Y-40097064D02*
X60050000Y-38642936D01*
X75657064Y-39730000D02*
X74202936Y-39730000D01*
X75657064Y-41550000D02*
X74202936Y-41550000D01*
X42270000Y-37372936D02*
X42270000Y-38827064D01*
X44090000Y-37372936D02*
X44090000Y-38827064D01*
X55337064Y-39730000D02*
X53882936Y-39730000D01*
X55337064Y-41550000D02*
X53882936Y-41550000D01*
X126000000Y-57010000D02*
X126000000Y-49710000D01*
X128000000Y-57010000D02*
X126000000Y-57010000D01*
X128000000Y-49710000D02*
X128000000Y-57010000D01*
X42270000Y-64211252D02*
X42270000Y-62788748D01*
X44090000Y-64211252D02*
X44090000Y-62788748D01*
X78465000Y-36102936D02*
X78465000Y-37557064D01*
X80285000Y-36102936D02*
X80285000Y-37557064D01*
X71212064Y-51710000D02*
X69757936Y-51710000D01*
X71212064Y-49890000D02*
X69757936Y-49890000D01*
X115027064Y-60600000D02*
X113572936Y-60600000D01*
X115027064Y-58780000D02*
X113572936Y-58780000D01*
X58867064Y-33930000D02*
X57412936Y-33930000D01*
X58867064Y-32110000D02*
X57412936Y-32110000D01*
X91701252Y-42645000D02*
X91178748Y-42645000D01*
X91701252Y-41175000D02*
X91178748Y-41175000D01*
X87270000Y-36382936D02*
X87270000Y-37837064D01*
X85450000Y-36382936D02*
X85450000Y-37837064D01*
X89442936Y-53065000D02*
X90897064Y-53065000D01*
X89442936Y-54885000D02*
X90897064Y-54885000D01*
X97430000Y-45177064D02*
X97430000Y-43722936D01*
X95610000Y-45177064D02*
X95610000Y-43722936D01*
X68940000Y-38642936D02*
X68940000Y-40097064D01*
X70760000Y-38642936D02*
X70760000Y-40097064D01*
X124100000Y-42452936D02*
X124100000Y-43907064D01*
X122280000Y-42452936D02*
X122280000Y-43907064D01*
X39730000Y-62723748D02*
X39730000Y-64146252D01*
X41550000Y-62723748D02*
X41550000Y-64146252D01*
X48521252Y-42445000D02*
X47998748Y-42445000D01*
X48521252Y-43915000D02*
X47998748Y-43915000D01*
X105050000Y-40097064D02*
X105050000Y-38642936D01*
X103230000Y-40097064D02*
X103230000Y-38642936D01*
X123460000Y-57020000D02*
X123460000Y-49720000D01*
X125460000Y-49720000D02*
X125460000Y-57020000D01*
X125460000Y-57020000D02*
X123460000Y-57020000D01*
X64235000Y-40901252D02*
X64235000Y-40378748D01*
X62765000Y-40901252D02*
X62765000Y-40378748D01*
X98517064Y-41550000D02*
X97062936Y-41550000D01*
X98517064Y-39730000D02*
X97062936Y-39730000D01*
X74387064Y-74570000D02*
X72932936Y-74570000D01*
X74387064Y-72750000D02*
X72932936Y-72750000D01*
X123550000Y-66767064D02*
X123550000Y-65312936D01*
X125370000Y-66767064D02*
X125370000Y-65312936D01*
X41208748Y-48950000D02*
X42631252Y-48950000D01*
X41208748Y-50770000D02*
X42631252Y-50770000D01*
X116112936Y-39730000D02*
X117567064Y-39730000D01*
X116112936Y-41550000D02*
X117567064Y-41550000D01*
X39730000Y-59147064D02*
X39730000Y-57692936D01*
X41550000Y-59147064D02*
X41550000Y-57692936D01*
X111485000Y-38658748D02*
X111485000Y-40081252D01*
X113305000Y-38658748D02*
X113305000Y-40081252D01*
X54250000Y-45812064D02*
X54250000Y-44357936D01*
X52430000Y-45812064D02*
X52430000Y-44357936D01*
X60050000Y-46431252D02*
X60050000Y-45008748D01*
X61870000Y-46431252D02*
X61870000Y-45008748D01*
X61502936Y-58060000D02*
X62957064Y-58060000D01*
X61502936Y-56240000D02*
X62957064Y-56240000D01*
X97866252Y-53065000D02*
X96443748Y-53065000D01*
X97866252Y-54885000D02*
X96443748Y-54885000D01*
X113572936Y-56790000D02*
X115027064Y-56790000D01*
X113572936Y-54970000D02*
X115027064Y-54970000D01*
X115027064Y-68940000D02*
X113572936Y-68940000D01*
X115027064Y-70760000D02*
X113572936Y-70760000D01*
X122920000Y-49770000D02*
X122920000Y-57070000D01*
X122920000Y-57070000D02*
X120920000Y-57070000D01*
X120920000Y-57070000D02*
X120920000Y-49770000D01*
X105050000Y-46431252D02*
X105050000Y-45008748D01*
X103230000Y-46431252D02*
X103230000Y-45008748D01*
X75657064Y-39010000D02*
X74202936Y-39010000D01*
X75657064Y-37190000D02*
X74202936Y-37190000D01*
X44090000Y-59147064D02*
X44090000Y-57692936D01*
X42270000Y-59147064D02*
X42270000Y-57692936D01*
X69757936Y-49170000D02*
X71212064Y-49170000D01*
X69757936Y-47350000D02*
X71212064Y-47350000D01*
X55145000Y-52331252D02*
X55145000Y-51808748D01*
X56615000Y-52331252D02*
X56615000Y-51808748D01*
X120290000Y-65312936D02*
X120290000Y-66767064D01*
X118470000Y-65312936D02*
X118470000Y-66767064D01*
X51342936Y-51710000D02*
X52797064Y-51710000D01*
X51342936Y-49890000D02*
X52797064Y-49890000D01*
X115011252Y-45360000D02*
X113588748Y-45360000D01*
X115011252Y-43540000D02*
X113588748Y-43540000D01*
X126090000Y-66767064D02*
X126090000Y-65312936D01*
X127910000Y-66767064D02*
X127910000Y-65312936D01*
X44090000Y-43722936D02*
X44090000Y-45177064D01*
X42270000Y-43722936D02*
X42270000Y-45177064D01*
X116112936Y-39010000D02*
X117567064Y-39010000D01*
X116112936Y-37190000D02*
X117567064Y-37190000D01*
X115027064Y-49890000D02*
X113572936Y-49890000D01*
X115027064Y-51710000D02*
X113572936Y-51710000D01*
X70223748Y-54075000D02*
X70746252Y-54075000D01*
X70223748Y-52605000D02*
X70746252Y-52605000D01*
X96427936Y-49890000D02*
X97882064Y-49890000D01*
X96427936Y-51710000D02*
X97882064Y-51710000D01*
X107590000Y-45008748D02*
X107590000Y-46431252D01*
X105770000Y-45008748D02*
X105770000Y-46431252D01*
X83460000Y-36102936D02*
X83460000Y-37557064D01*
X81640000Y-36102936D02*
X81640000Y-37557064D01*
X127440000Y-43907064D02*
X127440000Y-42452936D01*
X125620000Y-43907064D02*
X125620000Y-42452936D01*
X87270000Y-42452936D02*
X87270000Y-43907064D01*
X85450000Y-42452936D02*
X85450000Y-43907064D01*
X115027064Y-65680000D02*
X113572936Y-65680000D01*
X115027064Y-63860000D02*
X113572936Y-63860000D01*
X64410000Y-45008748D02*
X64410000Y-46431252D01*
X62590000Y-45008748D02*
X62590000Y-46431252D01*
X105945000Y-40901252D02*
X105945000Y-40378748D01*
X107415000Y-40901252D02*
X107415000Y-40378748D01*
X88172936Y-72750000D02*
X89627064Y-72750000D01*
X88172936Y-74570000D02*
X89627064Y-74570000D01*
X122830000Y-66767064D02*
X122830000Y-65312936D01*
X121010000Y-66767064D02*
X121010000Y-65312936D01*
X91701252Y-43715000D02*
X91178748Y-43715000D01*
X91701252Y-45185000D02*
X91178748Y-45185000D01*
X113806248Y-52605000D02*
X114328752Y-52605000D01*
X113806248Y-54075000D02*
X114328752Y-54075000D01*
X102327064Y-33930000D02*
X100872936Y-33930000D01*
X102327064Y-32110000D02*
X100872936Y-32110000D01*
X89442936Y-49890000D02*
X90897064Y-49890000D01*
X89442936Y-51710000D02*
X90897064Y-51710000D01*
X51342936Y-52430000D02*
X52797064Y-52430000D01*
X51342936Y-54250000D02*
X52797064Y-54250000D01*
%LPC*%
D12*
X36830000Y-34290000D03*
D13*
X78755000Y-68580000D03*
D14*
X81295000Y-68580000D03*
X83835000Y-68580000D03*
D15*
X58420000Y-38100000D03*
D16*
X58420000Y-40640000D03*
X58420000Y-43180000D03*
X58420000Y-45720000D03*
X58420000Y-48260000D03*
X58420000Y-50800000D03*
X58420000Y-53340000D03*
X66040000Y-53340000D03*
X66040000Y-50800000D03*
X66040000Y-48260000D03*
X66040000Y-45720000D03*
X66040000Y-43180000D03*
X66040000Y-40640000D03*
X66040000Y-38100000D03*
D12*
X128270000Y-74930000D03*
D13*
X48260000Y-33020000D03*
D14*
X50800000Y-33020000D03*
X53340000Y-33020000D03*
D13*
X91455000Y-33020000D03*
D14*
X93995000Y-33020000D03*
X96535000Y-33020000D03*
D13*
X121920000Y-33035000D03*
D14*
X121920000Y-35575000D03*
X121920000Y-38115000D03*
D13*
X129535000Y-59690000D03*
D14*
X126995000Y-59690000D03*
X124455000Y-59690000D03*
X121915000Y-59690000D03*
X119375000Y-59690000D03*
D13*
X91440000Y-36830000D03*
D14*
X93980000Y-36830000D03*
X96520000Y-36830000D03*
D12*
X36830000Y-74930000D03*
X128270000Y-34290000D03*
D13*
X48275000Y-36830000D03*
D14*
X50815000Y-36830000D03*
X53355000Y-36830000D03*
D15*
X101610000Y-38095000D03*
D16*
X101610000Y-40635000D03*
X101610000Y-43175000D03*
X101610000Y-45715000D03*
X101610000Y-48255000D03*
X101610000Y-50795000D03*
X101610000Y-53335000D03*
X109230000Y-53335000D03*
X109230000Y-50795000D03*
X109230000Y-48255000D03*
X109230000Y-45715000D03*
X109230000Y-43175000D03*
X109230000Y-40635000D03*
X109230000Y-38095000D03*
D13*
X82550000Y-52070000D03*
D14*
X82550000Y-49530000D03*
D13*
X77470000Y-52070000D03*
D14*
X77470000Y-49530000D03*
D13*
X78740000Y-73660000D03*
D14*
X81280000Y-73660000D03*
X83820000Y-73660000D03*
D15*
X38110000Y-53335000D03*
D16*
X38110000Y-55875000D03*
X38110000Y-58415000D03*
X38110000Y-60955000D03*
X38110000Y-63495000D03*
X38110000Y-66035000D03*
X38110000Y-68575000D03*
X45730000Y-68575000D03*
X45730000Y-66035000D03*
X45730000Y-63495000D03*
X45730000Y-60955000D03*
X45730000Y-58415000D03*
X45730000Y-55875000D03*
X45730000Y-53335000D03*
D17*
X49297500Y-46345000D03*
X47222500Y-46345000D03*
D18*
X60960000Y-40920000D03*
X60960000Y-37820000D03*
D19*
X76480000Y-40640000D03*
X73380000Y-40640000D03*
D20*
X43180000Y-36550000D03*
X43180000Y-39650000D03*
D19*
X56160000Y-40640000D03*
X53060000Y-40640000D03*
D21*
X127000000Y-55210000D03*
X127000000Y-49710000D03*
D22*
X43180000Y-65062500D03*
X43180000Y-61937500D03*
D20*
X79375000Y-35280000D03*
X79375000Y-38380000D03*
D19*
X72035000Y-50800000D03*
X68935000Y-50800000D03*
X115850000Y-59690000D03*
X112750000Y-59690000D03*
X59690000Y-33020000D03*
X56590000Y-33020000D03*
D17*
X92477500Y-41910000D03*
X90402500Y-41910000D03*
D20*
X86360000Y-35560000D03*
X86360000Y-38660000D03*
D23*
X88620000Y-53975000D03*
X91720000Y-53975000D03*
D18*
X96520000Y-46000000D03*
X96520000Y-42900000D03*
D20*
X69850000Y-37820000D03*
X69850000Y-40920000D03*
X123190000Y-41630000D03*
X123190000Y-44730000D03*
D24*
X40640000Y-61872500D03*
X40640000Y-64997500D03*
D17*
X49297500Y-43180000D03*
X47222500Y-43180000D03*
D18*
X104140000Y-40920000D03*
X104140000Y-37820000D03*
D21*
X124460000Y-55220000D03*
X124460000Y-49720000D03*
D25*
X63500000Y-41677500D03*
X63500000Y-39602500D03*
D19*
X99340000Y-40640000D03*
X96240000Y-40640000D03*
X75210000Y-73660000D03*
X72110000Y-73660000D03*
D18*
X124460000Y-67590000D03*
X124460000Y-64490000D03*
D26*
X40357500Y-49860000D03*
X43482500Y-49860000D03*
D23*
X115290000Y-40640000D03*
X118390000Y-40640000D03*
D18*
X40640000Y-59970000D03*
X40640000Y-56870000D03*
D24*
X112395000Y-37807500D03*
X112395000Y-40932500D03*
D18*
X53340000Y-46635000D03*
X53340000Y-43535000D03*
D22*
X60960000Y-47282500D03*
X60960000Y-44157500D03*
D23*
X60680000Y-57150000D03*
X63780000Y-57150000D03*
D27*
X98717500Y-53975000D03*
X95592500Y-53975000D03*
D23*
X112750000Y-55880000D03*
X115850000Y-55880000D03*
D19*
X115850000Y-69850000D03*
X112750000Y-69850000D03*
D21*
X121920000Y-55270000D03*
X121920000Y-49770000D03*
D22*
X104140000Y-47282500D03*
X104140000Y-44157500D03*
D19*
X76480000Y-38100000D03*
X73380000Y-38100000D03*
D18*
X43180000Y-59970000D03*
X43180000Y-56870000D03*
D23*
X68935000Y-48260000D03*
X72035000Y-48260000D03*
D25*
X55880000Y-53107500D03*
X55880000Y-51032500D03*
D20*
X119380000Y-64490000D03*
X119380000Y-67590000D03*
D23*
X50520000Y-50800000D03*
X53620000Y-50800000D03*
D27*
X115862500Y-44450000D03*
X112737500Y-44450000D03*
D18*
X127000000Y-67590000D03*
X127000000Y-64490000D03*
D20*
X43180000Y-42900000D03*
X43180000Y-46000000D03*
D23*
X115290000Y-38100000D03*
X118390000Y-38100000D03*
D19*
X115850000Y-50800000D03*
X112750000Y-50800000D03*
D28*
X69447500Y-53340000D03*
X71522500Y-53340000D03*
D23*
X95605000Y-50800000D03*
X98705000Y-50800000D03*
D24*
X106680000Y-44157500D03*
X106680000Y-47282500D03*
D20*
X82550000Y-35280000D03*
X82550000Y-38380000D03*
D18*
X126530000Y-44730000D03*
X126530000Y-41630000D03*
D20*
X86360000Y-41630000D03*
X86360000Y-44730000D03*
D19*
X115850000Y-64770000D03*
X112750000Y-64770000D03*
D24*
X63500000Y-44157500D03*
X63500000Y-47282500D03*
D25*
X106680000Y-41677500D03*
X106680000Y-39602500D03*
D23*
X87350000Y-73660000D03*
X90450000Y-73660000D03*
D18*
X121920000Y-67590000D03*
X121920000Y-64490000D03*
D17*
X92477500Y-44450000D03*
X90402500Y-44450000D03*
D28*
X113030000Y-53340000D03*
X115105000Y-53340000D03*
D19*
X103150000Y-33020000D03*
X100050000Y-33020000D03*
D23*
X88620000Y-50800000D03*
X91720000Y-50800000D03*
X50520000Y-53340000D03*
X53620000Y-53340000D03*
M02*
