%TF.GenerationSoftware,KiCad,Pcbnew,(6.0.10)*%
%TF.CreationDate,2023-04-08T13:29:21+03:00*%
%TF.ProjectId,DelSol_Modulator,44656c53-6f6c-45f4-9d6f-64756c61746f,rev?*%
%TF.SameCoordinates,Original*%
%TF.FileFunction,Soldermask,Bot*%
%TF.FilePolarity,Negative*%
%FSLAX46Y46*%
G04 Gerber Fmt 4.6, Leading zero omitted, Abs format (unit mm)*
G04 Created by KiCad (PCBNEW (6.0.10)) date 2023-04-08 13:29:21*
%MOMM*%
%LPD*%
G01*
G04 APERTURE LIST*
G04 Aperture macros list*
%AMRoundRect*
0 Rectangle with rounded corners*
0 $1 Rounding radius*
0 $2 $3 $4 $5 $6 $7 $8 $9 X,Y pos of 4 corners*
0 Add a 4 corners polygon primitive as box body*
4,1,4,$2,$3,$4,$5,$6,$7,$8,$9,$2,$3,0*
0 Add four circle primitives for the rounded corners*
1,1,$1+$1,$2,$3*
1,1,$1+$1,$4,$5*
1,1,$1+$1,$6,$7*
1,1,$1+$1,$8,$9*
0 Add four rect primitives between the rounded corners*
20,1,$1+$1,$2,$3,$4,$5,0*
20,1,$1+$1,$4,$5,$6,$7,0*
20,1,$1+$1,$6,$7,$8,$9,0*
20,1,$1+$1,$8,$9,$2,$3,0*%
G04 Aperture macros list end*
%ADD10C,3.200000*%
%ADD11R,1.700000X1.700000*%
%ADD12O,1.700000X1.700000*%
%ADD13R,1.600000X1.600000*%
%ADD14O,1.600000X1.600000*%
%ADD15RoundRect,0.250000X0.337500X0.475000X-0.337500X0.475000X-0.337500X-0.475000X0.337500X-0.475000X0*%
%ADD16RoundRect,0.250000X0.625000X-0.400000X0.625000X0.400000X-0.625000X0.400000X-0.625000X-0.400000X0*%
%ADD17RoundRect,0.250000X0.400000X0.625000X-0.400000X0.625000X-0.400000X-0.625000X0.400000X-0.625000X0*%
%ADD18RoundRect,0.250000X-0.625000X0.400000X-0.625000X-0.400000X0.625000X-0.400000X0.625000X0.400000X0*%
%ADD19R,1.700000X3.300000*%
%ADD20RoundRect,0.250000X0.650000X-0.412500X0.650000X0.412500X-0.650000X0.412500X-0.650000X-0.412500X0*%
%ADD21RoundRect,0.250000X-0.400000X-0.625000X0.400000X-0.625000X0.400000X0.625000X-0.400000X0.625000X0*%
%ADD22RoundRect,0.250000X-0.650000X0.412500X-0.650000X-0.412500X0.650000X-0.412500X0.650000X0.412500X0*%
%ADD23RoundRect,0.250000X0.475000X-0.337500X0.475000X0.337500X-0.475000X0.337500X-0.475000X-0.337500X0*%
%ADD24RoundRect,0.250000X-0.412500X-0.650000X0.412500X-0.650000X0.412500X0.650000X-0.412500X0.650000X0*%
%ADD25RoundRect,0.250000X0.412500X0.650000X-0.412500X0.650000X-0.412500X-0.650000X0.412500X-0.650000X0*%
%ADD26RoundRect,0.250000X-0.337500X-0.475000X0.337500X-0.475000X0.337500X0.475000X-0.337500X0.475000X0*%
G04 APERTURE END LIST*
D10*
X36830000Y-34290000D03*
D11*
X78755000Y-68580000D03*
D12*
X81295000Y-68580000D03*
X83835000Y-68580000D03*
D13*
X58420000Y-38100000D03*
D14*
X58420000Y-40640000D03*
X58420000Y-43180000D03*
X58420000Y-45720000D03*
X58420000Y-48260000D03*
X58420000Y-50800000D03*
X58420000Y-53340000D03*
X66040000Y-53340000D03*
X66040000Y-50800000D03*
X66040000Y-48260000D03*
X66040000Y-45720000D03*
X66040000Y-43180000D03*
X66040000Y-40640000D03*
X66040000Y-38100000D03*
D10*
X128270000Y-74930000D03*
D11*
X48260000Y-33020000D03*
D12*
X50800000Y-33020000D03*
X53340000Y-33020000D03*
D11*
X91455000Y-33020000D03*
D12*
X93995000Y-33020000D03*
X96535000Y-33020000D03*
D11*
X121920000Y-33035000D03*
D12*
X121920000Y-35575000D03*
X121920000Y-38115000D03*
D11*
X129535000Y-59690000D03*
D12*
X126995000Y-59690000D03*
X124455000Y-59690000D03*
X121915000Y-59690000D03*
X119375000Y-59690000D03*
D11*
X91440000Y-36830000D03*
D12*
X93980000Y-36830000D03*
X96520000Y-36830000D03*
D10*
X36830000Y-74930000D03*
X128270000Y-34290000D03*
D11*
X48275000Y-36830000D03*
D12*
X50815000Y-36830000D03*
X53355000Y-36830000D03*
D13*
X101610000Y-38095000D03*
D14*
X101610000Y-40635000D03*
X101610000Y-43175000D03*
X101610000Y-45715000D03*
X101610000Y-48255000D03*
X101610000Y-50795000D03*
X101610000Y-53335000D03*
X109230000Y-53335000D03*
X109230000Y-50795000D03*
X109230000Y-48255000D03*
X109230000Y-45715000D03*
X109230000Y-43175000D03*
X109230000Y-40635000D03*
X109230000Y-38095000D03*
D11*
X82550000Y-52070000D03*
D12*
X82550000Y-49530000D03*
D11*
X77470000Y-52070000D03*
D12*
X77470000Y-49530000D03*
D11*
X78740000Y-73660000D03*
D12*
X81280000Y-73660000D03*
X83820000Y-73660000D03*
D13*
X38110000Y-53335000D03*
D14*
X38110000Y-55875000D03*
X38110000Y-58415000D03*
X38110000Y-60955000D03*
X38110000Y-63495000D03*
X38110000Y-66035000D03*
X38110000Y-68575000D03*
X45730000Y-68575000D03*
X45730000Y-66035000D03*
X45730000Y-63495000D03*
X45730000Y-60955000D03*
X45730000Y-58415000D03*
X45730000Y-55875000D03*
X45730000Y-53335000D03*
D15*
X49297500Y-46345000D03*
X47222500Y-46345000D03*
D16*
X60960000Y-40920000D03*
X60960000Y-37820000D03*
D17*
X76480000Y-40640000D03*
X73380000Y-40640000D03*
D18*
X43180000Y-36550000D03*
X43180000Y-39650000D03*
D17*
X56160000Y-40640000D03*
X53060000Y-40640000D03*
D19*
X127000000Y-55210000D03*
X127000000Y-49710000D03*
D20*
X43180000Y-65062500D03*
X43180000Y-61937500D03*
D18*
X79375000Y-35280000D03*
X79375000Y-38380000D03*
D17*
X72035000Y-50800000D03*
X68935000Y-50800000D03*
X115850000Y-59690000D03*
X112750000Y-59690000D03*
X59690000Y-33020000D03*
X56590000Y-33020000D03*
D15*
X92477500Y-41910000D03*
X90402500Y-41910000D03*
D18*
X86360000Y-35560000D03*
X86360000Y-38660000D03*
D21*
X88620000Y-53975000D03*
X91720000Y-53975000D03*
D16*
X96520000Y-46000000D03*
X96520000Y-42900000D03*
D18*
X69850000Y-37820000D03*
X69850000Y-40920000D03*
X123190000Y-41630000D03*
X123190000Y-44730000D03*
D22*
X40640000Y-61872500D03*
X40640000Y-64997500D03*
D15*
X49297500Y-43180000D03*
X47222500Y-43180000D03*
D16*
X104140000Y-40920000D03*
X104140000Y-37820000D03*
D19*
X124460000Y-55220000D03*
X124460000Y-49720000D03*
D23*
X63500000Y-41677500D03*
X63500000Y-39602500D03*
D17*
X99340000Y-40640000D03*
X96240000Y-40640000D03*
X75210000Y-73660000D03*
X72110000Y-73660000D03*
D16*
X124460000Y-67590000D03*
X124460000Y-64490000D03*
D24*
X40357500Y-49860000D03*
X43482500Y-49860000D03*
D21*
X115290000Y-40640000D03*
X118390000Y-40640000D03*
D16*
X40640000Y-59970000D03*
X40640000Y-56870000D03*
D22*
X112395000Y-37807500D03*
X112395000Y-40932500D03*
D16*
X53340000Y-46635000D03*
X53340000Y-43535000D03*
D20*
X60960000Y-47282500D03*
X60960000Y-44157500D03*
D21*
X60680000Y-57150000D03*
X63780000Y-57150000D03*
D25*
X98717500Y-53975000D03*
X95592500Y-53975000D03*
D21*
X112750000Y-55880000D03*
X115850000Y-55880000D03*
D17*
X115850000Y-69850000D03*
X112750000Y-69850000D03*
D19*
X121920000Y-55270000D03*
X121920000Y-49770000D03*
D20*
X104140000Y-47282500D03*
X104140000Y-44157500D03*
D17*
X76480000Y-38100000D03*
X73380000Y-38100000D03*
D16*
X43180000Y-59970000D03*
X43180000Y-56870000D03*
D21*
X68935000Y-48260000D03*
X72035000Y-48260000D03*
D23*
X55880000Y-53107500D03*
X55880000Y-51032500D03*
D18*
X119380000Y-64490000D03*
X119380000Y-67590000D03*
D21*
X50520000Y-50800000D03*
X53620000Y-50800000D03*
D25*
X115862500Y-44450000D03*
X112737500Y-44450000D03*
D16*
X127000000Y-67590000D03*
X127000000Y-64490000D03*
D18*
X43180000Y-42900000D03*
X43180000Y-46000000D03*
D21*
X115290000Y-38100000D03*
X118390000Y-38100000D03*
D17*
X115850000Y-50800000D03*
X112750000Y-50800000D03*
D26*
X69447500Y-53340000D03*
X71522500Y-53340000D03*
D21*
X95605000Y-50800000D03*
X98705000Y-50800000D03*
D22*
X106680000Y-44157500D03*
X106680000Y-47282500D03*
D18*
X82550000Y-35280000D03*
X82550000Y-38380000D03*
D16*
X126530000Y-44730000D03*
X126530000Y-41630000D03*
D18*
X86360000Y-41630000D03*
X86360000Y-44730000D03*
D17*
X115850000Y-64770000D03*
X112750000Y-64770000D03*
D22*
X63500000Y-44157500D03*
X63500000Y-47282500D03*
D23*
X106680000Y-41677500D03*
X106680000Y-39602500D03*
D21*
X87350000Y-73660000D03*
X90450000Y-73660000D03*
D16*
X121920000Y-67590000D03*
X121920000Y-64490000D03*
D15*
X92477500Y-44450000D03*
X90402500Y-44450000D03*
D26*
X113030000Y-53340000D03*
X115105000Y-53340000D03*
D17*
X103150000Y-33020000D03*
X100050000Y-33020000D03*
D21*
X88620000Y-50800000D03*
X91720000Y-50800000D03*
X50520000Y-53340000D03*
X53620000Y-53340000D03*
M02*
