%TF.GenerationSoftware,KiCad,Pcbnew,(6.0.10)*%
%TF.CreationDate,2023-04-08T13:29:20+03:00*%
%TF.ProjectId,DelSol_Modulator,44656c53-6f6c-45f4-9d6f-64756c61746f,rev?*%
%TF.SameCoordinates,Original*%
%TF.FileFunction,Legend,Top*%
%TF.FilePolarity,Positive*%
%FSLAX46Y46*%
G04 Gerber Fmt 4.6, Leading zero omitted, Abs format (unit mm)*
G04 Created by KiCad (PCBNEW (6.0.10)) date 2023-04-08 13:29:20*
%MOMM*%
%LPD*%
G01*
G04 APERTURE LIST*
G04 Aperture macros list*
%AMRoundRect*
0 Rectangle with rounded corners*
0 $1 Rounding radius*
0 $2 $3 $4 $5 $6 $7 $8 $9 X,Y pos of 4 corners*
0 Add a 4 corners polygon primitive as box body*
4,1,4,$2,$3,$4,$5,$6,$7,$8,$9,$2,$3,0*
0 Add four circle primitives for the rounded corners*
1,1,$1+$1,$2,$3*
1,1,$1+$1,$4,$5*
1,1,$1+$1,$6,$7*
1,1,$1+$1,$8,$9*
0 Add four rect primitives between the rounded corners*
20,1,$1+$1,$2,$3,$4,$5,0*
20,1,$1+$1,$4,$5,$6,$7,0*
20,1,$1+$1,$6,$7,$8,$9,0*
20,1,$1+$1,$8,$9,$2,$3,0*%
G04 Aperture macros list end*
%ADD10C,0.150000*%
%ADD11C,0.120000*%
%ADD12C,3.200000*%
%ADD13R,1.700000X1.700000*%
%ADD14O,1.700000X1.700000*%
%ADD15R,1.600000X1.600000*%
%ADD16O,1.600000X1.600000*%
%ADD17RoundRect,0.250000X0.625000X-0.400000X0.625000X0.400000X-0.625000X0.400000X-0.625000X-0.400000X0*%
%ADD18RoundRect,0.250000X0.550000X-1.412500X0.550000X1.412500X-0.550000X1.412500X-0.550000X-1.412500X0*%
%ADD19RoundRect,0.250000X-0.550000X1.412500X-0.550000X-1.412500X0.550000X-1.412500X0.550000X1.412500X0*%
%ADD20RoundRect,0.250000X-1.412500X-0.550000X1.412500X-0.550000X1.412500X0.550000X-1.412500X0.550000X0*%
G04 APERTURE END LIST*
D10*
X109069523Y-74112380D02*
X109069523Y-73112380D01*
X109069523Y-74064761D02*
X108974285Y-74112380D01*
X108783809Y-74112380D01*
X108688571Y-74064761D01*
X108640952Y-74017142D01*
X108593333Y-73921904D01*
X108593333Y-73636190D01*
X108640952Y-73540952D01*
X108688571Y-73493333D01*
X108783809Y-73445714D01*
X108974285Y-73445714D01*
X109069523Y-73493333D01*
X109450476Y-73445714D02*
X109974285Y-73445714D01*
X109450476Y-74112380D01*
X109974285Y-74112380D01*
X110974285Y-73636190D02*
X110926666Y-73588571D01*
X110831428Y-73540952D01*
X110736190Y-73540952D01*
X110640952Y-73588571D01*
X110593333Y-73636190D01*
X110545714Y-73731428D01*
X110545714Y-73826666D01*
X110593333Y-73921904D01*
X110640952Y-73969523D01*
X110736190Y-74017142D01*
X110831428Y-74017142D01*
X110926666Y-73969523D01*
X110974285Y-73921904D01*
X110974285Y-73540952D02*
X110974285Y-73921904D01*
X111021904Y-73969523D01*
X111069523Y-73969523D01*
X111164761Y-73921904D01*
X111212380Y-73826666D01*
X111212380Y-73588571D01*
X111117142Y-73445714D01*
X110974285Y-73350476D01*
X110783809Y-73302857D01*
X110593333Y-73350476D01*
X110450476Y-73445714D01*
X110355238Y-73588571D01*
X110307619Y-73779047D01*
X110355238Y-73969523D01*
X110450476Y-74112380D01*
X110593333Y-74207619D01*
X110783809Y-74255238D01*
X110974285Y-74207619D01*
X111117142Y-74112380D01*
X112069523Y-74112380D02*
X112069523Y-73112380D01*
X112069523Y-74064761D02*
X111974285Y-74112380D01*
X111783809Y-74112380D01*
X111688571Y-74064761D01*
X111640952Y-74017142D01*
X111593333Y-73921904D01*
X111593333Y-73636190D01*
X111640952Y-73540952D01*
X111688571Y-73493333D01*
X111783809Y-73445714D01*
X111974285Y-73445714D01*
X112069523Y-73493333D01*
X112450476Y-73445714D02*
X112974285Y-73445714D01*
X112450476Y-74112380D01*
X112974285Y-74112380D01*
X113355238Y-74017142D02*
X113402857Y-74064761D01*
X113355238Y-74112380D01*
X113307619Y-74064761D01*
X113355238Y-74017142D01*
X113355238Y-74112380D01*
X113831428Y-74112380D02*
X113831428Y-73445714D01*
X113831428Y-73636190D02*
X113879047Y-73540952D01*
X113926666Y-73493333D01*
X114021904Y-73445714D01*
X114117142Y-73445714D01*
X114879047Y-73445714D02*
X114879047Y-74112380D01*
X114450476Y-73445714D02*
X114450476Y-73969523D01*
X114498095Y-74064761D01*
X114593333Y-74112380D01*
X114736190Y-74112380D01*
X114831428Y-74064761D01*
X114879047Y-74017142D01*
X106855238Y-75752142D02*
X106807619Y-75799761D01*
X106664761Y-75847380D01*
X106569523Y-75847380D01*
X106426666Y-75799761D01*
X106331428Y-75704523D01*
X106283809Y-75609285D01*
X106236190Y-75418809D01*
X106236190Y-75275952D01*
X106283809Y-75085476D01*
X106331428Y-74990238D01*
X106426666Y-74895000D01*
X106569523Y-74847380D01*
X106664761Y-74847380D01*
X106807619Y-74895000D01*
X106855238Y-74942619D01*
X107283809Y-75847380D02*
X107283809Y-74847380D01*
X107712380Y-75847380D02*
X107712380Y-75323571D01*
X107664761Y-75228333D01*
X107569523Y-75180714D01*
X107426666Y-75180714D01*
X107331428Y-75228333D01*
X107283809Y-75275952D01*
X108331428Y-75847380D02*
X108236190Y-75799761D01*
X108188571Y-75752142D01*
X108140952Y-75656904D01*
X108140952Y-75371190D01*
X108188571Y-75275952D01*
X108236190Y-75228333D01*
X108331428Y-75180714D01*
X108474285Y-75180714D01*
X108569523Y-75228333D01*
X108617142Y-75275952D01*
X108664761Y-75371190D01*
X108664761Y-75656904D01*
X108617142Y-75752142D01*
X108569523Y-75799761D01*
X108474285Y-75847380D01*
X108331428Y-75847380D01*
X109093333Y-75847380D02*
X109093333Y-75180714D01*
X109093333Y-75371190D02*
X109140952Y-75275952D01*
X109188571Y-75228333D01*
X109283809Y-75180714D01*
X109379047Y-75180714D01*
X110140952Y-75180714D02*
X110140952Y-75847380D01*
X109712380Y-75180714D02*
X109712380Y-75704523D01*
X109760000Y-75799761D01*
X109855238Y-75847380D01*
X109998095Y-75847380D01*
X110093333Y-75799761D01*
X110140952Y-75752142D01*
X110569523Y-75799761D02*
X110664761Y-75847380D01*
X110855238Y-75847380D01*
X110950476Y-75799761D01*
X110998095Y-75704523D01*
X110998095Y-75656904D01*
X110950476Y-75561666D01*
X110855238Y-75514047D01*
X110712380Y-75514047D01*
X110617142Y-75466428D01*
X110569523Y-75371190D01*
X110569523Y-75323571D01*
X110617142Y-75228333D01*
X110712380Y-75180714D01*
X110855238Y-75180714D01*
X110950476Y-75228333D01*
X112188571Y-75847380D02*
X112188571Y-74847380D01*
X112426666Y-74847380D01*
X112569523Y-74895000D01*
X112664761Y-74990238D01*
X112712380Y-75085476D01*
X112760000Y-75275952D01*
X112760000Y-75418809D01*
X112712380Y-75609285D01*
X112664761Y-75704523D01*
X112569523Y-75799761D01*
X112426666Y-75847380D01*
X112188571Y-75847380D01*
X113569523Y-75799761D02*
X113474285Y-75847380D01*
X113283809Y-75847380D01*
X113188571Y-75799761D01*
X113140952Y-75704523D01*
X113140952Y-75323571D01*
X113188571Y-75228333D01*
X113283809Y-75180714D01*
X113474285Y-75180714D01*
X113569523Y-75228333D01*
X113617142Y-75323571D01*
X113617142Y-75418809D01*
X113140952Y-75514047D01*
X114188571Y-75847380D02*
X114093333Y-75799761D01*
X114045714Y-75704523D01*
X114045714Y-74847380D01*
X115283809Y-75799761D02*
X115426666Y-75847380D01*
X115664761Y-75847380D01*
X115760000Y-75799761D01*
X115807619Y-75752142D01*
X115855238Y-75656904D01*
X115855238Y-75561666D01*
X115807619Y-75466428D01*
X115760000Y-75418809D01*
X115664761Y-75371190D01*
X115474285Y-75323571D01*
X115379047Y-75275952D01*
X115331428Y-75228333D01*
X115283809Y-75133095D01*
X115283809Y-75037857D01*
X115331428Y-74942619D01*
X115379047Y-74895000D01*
X115474285Y-74847380D01*
X115712380Y-74847380D01*
X115855238Y-74895000D01*
X116426666Y-75847380D02*
X116331428Y-75799761D01*
X116283809Y-75752142D01*
X116236190Y-75656904D01*
X116236190Y-75371190D01*
X116283809Y-75275952D01*
X116331428Y-75228333D01*
X116426666Y-75180714D01*
X116569523Y-75180714D01*
X116664761Y-75228333D01*
X116712380Y-75275952D01*
X116760000Y-75371190D01*
X116760000Y-75656904D01*
X116712380Y-75752142D01*
X116664761Y-75799761D01*
X116569523Y-75847380D01*
X116426666Y-75847380D01*
X117331428Y-75847380D02*
X117236190Y-75799761D01*
X117188571Y-75704523D01*
X117188571Y-74847380D01*
X108045714Y-77457380D02*
X108045714Y-76457380D01*
X108379047Y-77171666D01*
X108712380Y-76457380D01*
X108712380Y-77457380D01*
X109331428Y-77457380D02*
X109236190Y-77409761D01*
X109188571Y-77362142D01*
X109140952Y-77266904D01*
X109140952Y-76981190D01*
X109188571Y-76885952D01*
X109236190Y-76838333D01*
X109331428Y-76790714D01*
X109474285Y-76790714D01*
X109569523Y-76838333D01*
X109617142Y-76885952D01*
X109664761Y-76981190D01*
X109664761Y-77266904D01*
X109617142Y-77362142D01*
X109569523Y-77409761D01*
X109474285Y-77457380D01*
X109331428Y-77457380D01*
X110521904Y-77457380D02*
X110521904Y-76457380D01*
X110521904Y-77409761D02*
X110426666Y-77457380D01*
X110236190Y-77457380D01*
X110140952Y-77409761D01*
X110093333Y-77362142D01*
X110045714Y-77266904D01*
X110045714Y-76981190D01*
X110093333Y-76885952D01*
X110140952Y-76838333D01*
X110236190Y-76790714D01*
X110426666Y-76790714D01*
X110521904Y-76838333D01*
X111140952Y-77457380D02*
X111045714Y-77409761D01*
X110998095Y-77314523D01*
X110998095Y-76457380D01*
X111950476Y-76790714D02*
X111950476Y-77457380D01*
X111521904Y-76790714D02*
X111521904Y-77314523D01*
X111569523Y-77409761D01*
X111664761Y-77457380D01*
X111807619Y-77457380D01*
X111902857Y-77409761D01*
X111950476Y-77362142D01*
X112569523Y-77457380D02*
X112474285Y-77409761D01*
X112426666Y-77314523D01*
X112426666Y-76457380D01*
X113379047Y-77457380D02*
X113379047Y-76933571D01*
X113331428Y-76838333D01*
X113236190Y-76790714D01*
X113045714Y-76790714D01*
X112950476Y-76838333D01*
X113379047Y-77409761D02*
X113283809Y-77457380D01*
X113045714Y-77457380D01*
X112950476Y-77409761D01*
X112902857Y-77314523D01*
X112902857Y-77219285D01*
X112950476Y-77124047D01*
X113045714Y-77076428D01*
X113283809Y-77076428D01*
X113379047Y-77028809D01*
X113712380Y-76790714D02*
X114093333Y-76790714D01*
X113855238Y-76457380D02*
X113855238Y-77314523D01*
X113902857Y-77409761D01*
X113998095Y-77457380D01*
X114093333Y-77457380D01*
X114569523Y-77457380D02*
X114474285Y-77409761D01*
X114426666Y-77362142D01*
X114379047Y-77266904D01*
X114379047Y-76981190D01*
X114426666Y-76885952D01*
X114474285Y-76838333D01*
X114569523Y-76790714D01*
X114712380Y-76790714D01*
X114807619Y-76838333D01*
X114855238Y-76885952D01*
X114902857Y-76981190D01*
X114902857Y-77266904D01*
X114855238Y-77362142D01*
X114807619Y-77409761D01*
X114712380Y-77457380D01*
X114569523Y-77457380D01*
X115331428Y-77457380D02*
X115331428Y-76790714D01*
X115331428Y-76981190D02*
X115379047Y-76885952D01*
X115426666Y-76838333D01*
X115521904Y-76790714D01*
X115617142Y-76790714D01*
X77906666Y-70572380D02*
X77906666Y-71286666D01*
X77859047Y-71429523D01*
X77763809Y-71524761D01*
X77620952Y-71572380D01*
X77525714Y-71572380D01*
X78382857Y-71572380D02*
X78382857Y-70572380D01*
X78763809Y-70572380D01*
X78859047Y-70620000D01*
X78906666Y-70667619D01*
X78954285Y-70762857D01*
X78954285Y-70905714D01*
X78906666Y-71000952D01*
X78859047Y-71048571D01*
X78763809Y-71096190D01*
X78382857Y-71096190D01*
X79906666Y-71572380D02*
X79335238Y-71572380D01*
X79620952Y-71572380D02*
X79620952Y-70572380D01*
X79525714Y-70715238D01*
X79430476Y-70810476D01*
X79335238Y-70858095D01*
X57658095Y-55332380D02*
X57658095Y-56141904D01*
X57705714Y-56237142D01*
X57753333Y-56284761D01*
X57848571Y-56332380D01*
X58039047Y-56332380D01*
X58134285Y-56284761D01*
X58181904Y-56237142D01*
X58229523Y-56141904D01*
X58229523Y-55332380D01*
X58658095Y-55427619D02*
X58705714Y-55380000D01*
X58800952Y-55332380D01*
X59039047Y-55332380D01*
X59134285Y-55380000D01*
X59181904Y-55427619D01*
X59229523Y-55522857D01*
X59229523Y-55618095D01*
X59181904Y-55760952D01*
X58610476Y-56332380D01*
X59229523Y-56332380D01*
X45386666Y-32472380D02*
X45386666Y-33186666D01*
X45339047Y-33329523D01*
X45243809Y-33424761D01*
X45100952Y-33472380D01*
X45005714Y-33472380D01*
X46386666Y-33472380D02*
X45815238Y-33472380D01*
X46100952Y-33472380D02*
X46100952Y-32472380D01*
X46005714Y-32615238D01*
X45910476Y-32710476D01*
X45815238Y-32758095D01*
X127452380Y-70492857D02*
X126976190Y-70826190D01*
X127452380Y-71064285D02*
X126452380Y-71064285D01*
X126452380Y-70683333D01*
X126500000Y-70588095D01*
X126547619Y-70540476D01*
X126642857Y-70492857D01*
X126785714Y-70492857D01*
X126880952Y-70540476D01*
X126928571Y-70588095D01*
X126976190Y-70683333D01*
X126976190Y-71064285D01*
X126452380Y-70159523D02*
X126452380Y-69540476D01*
X126833333Y-69873809D01*
X126833333Y-69730952D01*
X126880952Y-69635714D01*
X126928571Y-69588095D01*
X127023809Y-69540476D01*
X127261904Y-69540476D01*
X127357142Y-69588095D01*
X127404761Y-69635714D01*
X127452380Y-69730952D01*
X127452380Y-70016666D01*
X127404761Y-70111904D01*
X127357142Y-70159523D01*
X126547619Y-69159523D02*
X126500000Y-69111904D01*
X126452380Y-69016666D01*
X126452380Y-68778571D01*
X126500000Y-68683333D01*
X126547619Y-68635714D01*
X126642857Y-68588095D01*
X126738095Y-68588095D01*
X126880952Y-68635714D01*
X127452380Y-69207142D01*
X127452380Y-68588095D01*
X112387142Y-36552142D02*
X112339523Y-36599761D01*
X112196666Y-36647380D01*
X112101428Y-36647380D01*
X111958571Y-36599761D01*
X111863333Y-36504523D01*
X111815714Y-36409285D01*
X111768095Y-36218809D01*
X111768095Y-36075952D01*
X111815714Y-35885476D01*
X111863333Y-35790238D01*
X111958571Y-35695000D01*
X112101428Y-35647380D01*
X112196666Y-35647380D01*
X112339523Y-35695000D01*
X112387142Y-35742619D01*
X113339523Y-36647380D02*
X112768095Y-36647380D01*
X113053809Y-36647380D02*
X113053809Y-35647380D01*
X112958571Y-35790238D01*
X112863333Y-35885476D01*
X112768095Y-35933095D01*
X113672857Y-35647380D02*
X114291904Y-35647380D01*
X113958571Y-36028333D01*
X114101428Y-36028333D01*
X114196666Y-36075952D01*
X114244285Y-36123571D01*
X114291904Y-36218809D01*
X114291904Y-36456904D01*
X114244285Y-36552142D01*
X114196666Y-36599761D01*
X114101428Y-36647380D01*
X113815714Y-36647380D01*
X113720476Y-36599761D01*
X113672857Y-36552142D01*
X98726666Y-32472380D02*
X98726666Y-33186666D01*
X98679047Y-33329523D01*
X98583809Y-33424761D01*
X98440952Y-33472380D01*
X98345714Y-33472380D01*
X99107619Y-32472380D02*
X99726666Y-32472380D01*
X99393333Y-32853333D01*
X99536190Y-32853333D01*
X99631428Y-32900952D01*
X99679047Y-32948571D01*
X99726666Y-33043809D01*
X99726666Y-33281904D01*
X99679047Y-33377142D01*
X99631428Y-33424761D01*
X99536190Y-33472380D01*
X99250476Y-33472380D01*
X99155238Y-33424761D01*
X99107619Y-33377142D01*
X124761666Y-38822380D02*
X124761666Y-39536666D01*
X124714047Y-39679523D01*
X124618809Y-39774761D01*
X124475952Y-39822380D01*
X124380714Y-39822380D01*
X125142619Y-38822380D02*
X125809285Y-38822380D01*
X125380714Y-39822380D01*
X124912380Y-70492857D02*
X124436190Y-70826190D01*
X124912380Y-71064285D02*
X123912380Y-71064285D01*
X123912380Y-70683333D01*
X123960000Y-70588095D01*
X124007619Y-70540476D01*
X124102857Y-70492857D01*
X124245714Y-70492857D01*
X124340952Y-70540476D01*
X124388571Y-70588095D01*
X124436190Y-70683333D01*
X124436190Y-71064285D01*
X123912380Y-70159523D02*
X123912380Y-69540476D01*
X124293333Y-69873809D01*
X124293333Y-69730952D01*
X124340952Y-69635714D01*
X124388571Y-69588095D01*
X124483809Y-69540476D01*
X124721904Y-69540476D01*
X124817142Y-69588095D01*
X124864761Y-69635714D01*
X124912380Y-69730952D01*
X124912380Y-70016666D01*
X124864761Y-70111904D01*
X124817142Y-70159523D01*
X124245714Y-68683333D02*
X124912380Y-68683333D01*
X123864761Y-68921428D02*
X124579047Y-69159523D01*
X124579047Y-68540476D01*
X64127142Y-67032142D02*
X64079523Y-67079761D01*
X63936666Y-67127380D01*
X63841428Y-67127380D01*
X63698571Y-67079761D01*
X63603333Y-66984523D01*
X63555714Y-66889285D01*
X63508095Y-66698809D01*
X63508095Y-66555952D01*
X63555714Y-66365476D01*
X63603333Y-66270238D01*
X63698571Y-66175000D01*
X63841428Y-66127380D01*
X63936666Y-66127380D01*
X64079523Y-66175000D01*
X64127142Y-66222619D01*
X65079523Y-67127380D02*
X64508095Y-67127380D01*
X64793809Y-67127380D02*
X64793809Y-66127380D01*
X64698571Y-66270238D01*
X64603333Y-66365476D01*
X64508095Y-66413095D01*
X65936666Y-66127380D02*
X65746190Y-66127380D01*
X65650952Y-66175000D01*
X65603333Y-66222619D01*
X65508095Y-66365476D01*
X65460476Y-66555952D01*
X65460476Y-66936904D01*
X65508095Y-67032142D01*
X65555714Y-67079761D01*
X65650952Y-67127380D01*
X65841428Y-67127380D01*
X65936666Y-67079761D01*
X65984285Y-67032142D01*
X66031904Y-66936904D01*
X66031904Y-66698809D01*
X65984285Y-66603571D01*
X65936666Y-66555952D01*
X65841428Y-66508333D01*
X65650952Y-66508333D01*
X65555714Y-66555952D01*
X65508095Y-66603571D01*
X65460476Y-66698809D01*
X118411666Y-56602380D02*
X118411666Y-57316666D01*
X118364047Y-57459523D01*
X118268809Y-57554761D01*
X118125952Y-57602380D01*
X118030714Y-57602380D01*
X119364047Y-56602380D02*
X118887857Y-56602380D01*
X118840238Y-57078571D01*
X118887857Y-57030952D01*
X118983095Y-56983333D01*
X119221190Y-56983333D01*
X119316428Y-57030952D01*
X119364047Y-57078571D01*
X119411666Y-57173809D01*
X119411666Y-57411904D01*
X119364047Y-57507142D01*
X119316428Y-57554761D01*
X119221190Y-57602380D01*
X118983095Y-57602380D01*
X118887857Y-57554761D01*
X118840238Y-57507142D01*
X98726666Y-36282380D02*
X98726666Y-36996666D01*
X98679047Y-37139523D01*
X98583809Y-37234761D01*
X98440952Y-37282380D01*
X98345714Y-37282380D01*
X99631428Y-36615714D02*
X99631428Y-37282380D01*
X99393333Y-36234761D02*
X99155238Y-36949047D01*
X99774285Y-36949047D01*
X92067142Y-67032142D02*
X92019523Y-67079761D01*
X91876666Y-67127380D01*
X91781428Y-67127380D01*
X91638571Y-67079761D01*
X91543333Y-66984523D01*
X91495714Y-66889285D01*
X91448095Y-66698809D01*
X91448095Y-66555952D01*
X91495714Y-66365476D01*
X91543333Y-66270238D01*
X91638571Y-66175000D01*
X91781428Y-66127380D01*
X91876666Y-66127380D01*
X92019523Y-66175000D01*
X92067142Y-66222619D01*
X92448095Y-66222619D02*
X92495714Y-66175000D01*
X92590952Y-66127380D01*
X92829047Y-66127380D01*
X92924285Y-66175000D01*
X92971904Y-66222619D01*
X93019523Y-66317857D01*
X93019523Y-66413095D01*
X92971904Y-66555952D01*
X92400476Y-67127380D01*
X93019523Y-67127380D01*
X93638571Y-66127380D02*
X93733809Y-66127380D01*
X93829047Y-66175000D01*
X93876666Y-66222619D01*
X93924285Y-66317857D01*
X93971904Y-66508333D01*
X93971904Y-66746428D01*
X93924285Y-66936904D01*
X93876666Y-67032142D01*
X93829047Y-67079761D01*
X93733809Y-67127380D01*
X93638571Y-67127380D01*
X93543333Y-67079761D01*
X93495714Y-67032142D01*
X93448095Y-66936904D01*
X93400476Y-66746428D01*
X93400476Y-66508333D01*
X93448095Y-66317857D01*
X93495714Y-66222619D01*
X93543333Y-66175000D01*
X93638571Y-66127380D01*
X122372380Y-70492857D02*
X121896190Y-70826190D01*
X122372380Y-71064285D02*
X121372380Y-71064285D01*
X121372380Y-70683333D01*
X121420000Y-70588095D01*
X121467619Y-70540476D01*
X121562857Y-70492857D01*
X121705714Y-70492857D01*
X121800952Y-70540476D01*
X121848571Y-70588095D01*
X121896190Y-70683333D01*
X121896190Y-71064285D01*
X121372380Y-70159523D02*
X121372380Y-69540476D01*
X121753333Y-69873809D01*
X121753333Y-69730952D01*
X121800952Y-69635714D01*
X121848571Y-69588095D01*
X121943809Y-69540476D01*
X122181904Y-69540476D01*
X122277142Y-69588095D01*
X122324761Y-69635714D01*
X122372380Y-69730952D01*
X122372380Y-70016666D01*
X122324761Y-70111904D01*
X122277142Y-70159523D01*
X121372380Y-68683333D02*
X121372380Y-68873809D01*
X121420000Y-68969047D01*
X121467619Y-69016666D01*
X121610476Y-69111904D01*
X121800952Y-69159523D01*
X122181904Y-69159523D01*
X122277142Y-69111904D01*
X122324761Y-69064285D01*
X122372380Y-68969047D01*
X122372380Y-68778571D01*
X122324761Y-68683333D01*
X122277142Y-68635714D01*
X122181904Y-68588095D01*
X121943809Y-68588095D01*
X121848571Y-68635714D01*
X121800952Y-68683333D01*
X121753333Y-68778571D01*
X121753333Y-68969047D01*
X121800952Y-69064285D01*
X121848571Y-69111904D01*
X121943809Y-69159523D01*
X45386666Y-36282380D02*
X45386666Y-36996666D01*
X45339047Y-37139523D01*
X45243809Y-37234761D01*
X45100952Y-37282380D01*
X45005714Y-37282380D01*
X45815238Y-36377619D02*
X45862857Y-36330000D01*
X45958095Y-36282380D01*
X46196190Y-36282380D01*
X46291428Y-36330000D01*
X46339047Y-36377619D01*
X46386666Y-36472857D01*
X46386666Y-36568095D01*
X46339047Y-36710952D01*
X45767619Y-37282380D01*
X46386666Y-37282380D01*
X100838095Y-55332380D02*
X100838095Y-56141904D01*
X100885714Y-56237142D01*
X100933333Y-56284761D01*
X101028571Y-56332380D01*
X101219047Y-56332380D01*
X101314285Y-56284761D01*
X101361904Y-56237142D01*
X101409523Y-56141904D01*
X101409523Y-55332380D01*
X101790476Y-55332380D02*
X102409523Y-55332380D01*
X102076190Y-55713333D01*
X102219047Y-55713333D01*
X102314285Y-55760952D01*
X102361904Y-55808571D01*
X102409523Y-55903809D01*
X102409523Y-56141904D01*
X102361904Y-56237142D01*
X102314285Y-56284761D01*
X102219047Y-56332380D01*
X101933333Y-56332380D01*
X101838095Y-56284761D01*
X101790476Y-56237142D01*
X82216666Y-54062380D02*
X82216666Y-54776666D01*
X82169047Y-54919523D01*
X82073809Y-55014761D01*
X81930952Y-55062380D01*
X81835714Y-55062380D01*
X82740476Y-55062380D02*
X82930952Y-55062380D01*
X83026190Y-55014761D01*
X83073809Y-54967142D01*
X83169047Y-54824285D01*
X83216666Y-54633809D01*
X83216666Y-54252857D01*
X83169047Y-54157619D01*
X83121428Y-54110000D01*
X83026190Y-54062380D01*
X82835714Y-54062380D01*
X82740476Y-54110000D01*
X82692857Y-54157619D01*
X82645238Y-54252857D01*
X82645238Y-54490952D01*
X82692857Y-54586190D01*
X82740476Y-54633809D01*
X82835714Y-54681428D01*
X83026190Y-54681428D01*
X83121428Y-54633809D01*
X83169047Y-54586190D01*
X83216666Y-54490952D01*
X77136666Y-54062380D02*
X77136666Y-54776666D01*
X77089047Y-54919523D01*
X76993809Y-55014761D01*
X76850952Y-55062380D01*
X76755714Y-55062380D01*
X77755714Y-54490952D02*
X77660476Y-54443333D01*
X77612857Y-54395714D01*
X77565238Y-54300476D01*
X77565238Y-54252857D01*
X77612857Y-54157619D01*
X77660476Y-54110000D01*
X77755714Y-54062380D01*
X77946190Y-54062380D01*
X78041428Y-54110000D01*
X78089047Y-54157619D01*
X78136666Y-54252857D01*
X78136666Y-54300476D01*
X78089047Y-54395714D01*
X78041428Y-54443333D01*
X77946190Y-54490952D01*
X77755714Y-54490952D01*
X77660476Y-54538571D01*
X77612857Y-54586190D01*
X77565238Y-54681428D01*
X77565238Y-54871904D01*
X77612857Y-54967142D01*
X77660476Y-55014761D01*
X77755714Y-55062380D01*
X77946190Y-55062380D01*
X78041428Y-55014761D01*
X78089047Y-54967142D01*
X78136666Y-54871904D01*
X78136666Y-54681428D01*
X78089047Y-54586190D01*
X78041428Y-54538571D01*
X77946190Y-54490952D01*
X37298333Y-41727142D02*
X37250714Y-41774761D01*
X37107857Y-41822380D01*
X37012619Y-41822380D01*
X36869761Y-41774761D01*
X36774523Y-41679523D01*
X36726904Y-41584285D01*
X36679285Y-41393809D01*
X36679285Y-41250952D01*
X36726904Y-41060476D01*
X36774523Y-40965238D01*
X36869761Y-40870000D01*
X37012619Y-40822380D01*
X37107857Y-40822380D01*
X37250714Y-40870000D01*
X37298333Y-40917619D01*
X38250714Y-41822380D02*
X37679285Y-41822380D01*
X37965000Y-41822380D02*
X37965000Y-40822380D01*
X37869761Y-40965238D01*
X37774523Y-41060476D01*
X37679285Y-41108095D01*
X77771666Y-75652380D02*
X77771666Y-76366666D01*
X77724047Y-76509523D01*
X77628809Y-76604761D01*
X77485952Y-76652380D01*
X77390714Y-76652380D01*
X78676428Y-75652380D02*
X78485952Y-75652380D01*
X78390714Y-75700000D01*
X78343095Y-75747619D01*
X78247857Y-75890476D01*
X78200238Y-76080952D01*
X78200238Y-76461904D01*
X78247857Y-76557142D01*
X78295476Y-76604761D01*
X78390714Y-76652380D01*
X78581190Y-76652380D01*
X78676428Y-76604761D01*
X78724047Y-76557142D01*
X78771666Y-76461904D01*
X78771666Y-76223809D01*
X78724047Y-76128571D01*
X78676428Y-76080952D01*
X78581190Y-76033333D01*
X78390714Y-76033333D01*
X78295476Y-76080952D01*
X78247857Y-76128571D01*
X78200238Y-76223809D01*
X37973095Y-70572380D02*
X37973095Y-71381904D01*
X38020714Y-71477142D01*
X38068333Y-71524761D01*
X38163571Y-71572380D01*
X38354047Y-71572380D01*
X38449285Y-71524761D01*
X38496904Y-71477142D01*
X38544523Y-71381904D01*
X38544523Y-70572380D01*
X39544523Y-71572380D02*
X38973095Y-71572380D01*
X39258809Y-71572380D02*
X39258809Y-70572380D01*
X39163571Y-70715238D01*
X39068333Y-70810476D01*
X38973095Y-70858095D01*
D11*
X85165000Y-69910000D02*
X85165000Y-67250000D01*
X80025000Y-67250000D02*
X85165000Y-67250000D01*
X78755000Y-69910000D02*
X77425000Y-69910000D01*
X80025000Y-69910000D02*
X80025000Y-67250000D01*
X80025000Y-69910000D02*
X85165000Y-69910000D01*
X77425000Y-69910000D02*
X77425000Y-68580000D01*
X61230000Y-36770000D02*
X59580000Y-36770000D01*
X64880000Y-54670000D02*
X64880000Y-36770000D01*
X59580000Y-54670000D02*
X64880000Y-54670000D01*
X59580000Y-36770000D02*
X59580000Y-54670000D01*
X64880000Y-36770000D02*
X63230000Y-36770000D01*
X61230000Y-36770000D02*
G75*
G03*
X63230000Y-36770000I1000000J0D01*
G01*
X46930000Y-34350000D02*
X46930000Y-33020000D01*
X49530000Y-31690000D02*
X54670000Y-31690000D01*
X49530000Y-34350000D02*
X49530000Y-31690000D01*
X48260000Y-34350000D02*
X46930000Y-34350000D01*
X49530000Y-34350000D02*
X54670000Y-34350000D01*
X54670000Y-34350000D02*
X54670000Y-31690000D01*
X126090000Y-66767064D02*
X126090000Y-65312936D01*
X127910000Y-66767064D02*
X127910000Y-65312936D01*
X113224437Y-44050000D02*
X112160000Y-42985563D01*
X118980000Y-42985563D02*
X118980000Y-37230000D01*
X113224437Y-44050000D02*
X114510000Y-44050000D01*
X117915563Y-44050000D02*
X116630000Y-44050000D01*
X112160000Y-37230000D02*
X114510000Y-37230000D01*
X112160000Y-42985563D02*
X112160000Y-37230000D01*
X117915563Y-44050000D02*
X118980000Y-42985563D01*
X118980000Y-37230000D02*
X116630000Y-37230000D01*
X97865000Y-34350000D02*
X97865000Y-31690000D01*
X91455000Y-34350000D02*
X90125000Y-34350000D01*
X92725000Y-31690000D02*
X97865000Y-31690000D01*
X90125000Y-34350000D02*
X90125000Y-33020000D01*
X92725000Y-34350000D02*
X97865000Y-34350000D01*
X92725000Y-34350000D02*
X92725000Y-31690000D01*
X120590000Y-31705000D02*
X121920000Y-31705000D01*
X120590000Y-39445000D02*
X123250000Y-39445000D01*
X120590000Y-34305000D02*
X120590000Y-39445000D01*
X123250000Y-34305000D02*
X123250000Y-39445000D01*
X120590000Y-34305000D02*
X123250000Y-34305000D01*
X120590000Y-33035000D02*
X120590000Y-31705000D01*
X123550000Y-66767064D02*
X123550000Y-65312936D01*
X125370000Y-66767064D02*
X125370000Y-65312936D01*
X63900000Y-73465563D02*
X63900000Y-67710000D01*
X64964437Y-74530000D02*
X66250000Y-74530000D01*
X69655563Y-74530000D02*
X68370000Y-74530000D01*
X69655563Y-74530000D02*
X70720000Y-73465563D01*
X70720000Y-67710000D02*
X68370000Y-67710000D01*
X63900000Y-67710000D02*
X66250000Y-67710000D01*
X64964437Y-74530000D02*
X63900000Y-73465563D01*
X70720000Y-73465563D02*
X70720000Y-67710000D01*
X130865000Y-58360000D02*
X130865000Y-59690000D01*
X128265000Y-58360000D02*
X118045000Y-58360000D01*
X129535000Y-58360000D02*
X130865000Y-58360000D01*
X128265000Y-58360000D02*
X128265000Y-61020000D01*
X128265000Y-61020000D02*
X118045000Y-61020000D01*
X118045000Y-58360000D02*
X118045000Y-61020000D01*
X97850000Y-38160000D02*
X97850000Y-35500000D01*
X90110000Y-38160000D02*
X90110000Y-36830000D01*
X92710000Y-38160000D02*
X97850000Y-38160000D01*
X91440000Y-38160000D02*
X90110000Y-38160000D01*
X92710000Y-35500000D02*
X97850000Y-35500000D01*
X92710000Y-38160000D02*
X92710000Y-35500000D01*
X98660000Y-74530000D02*
X96310000Y-74530000D01*
X98660000Y-68774437D02*
X98660000Y-74530000D01*
X97595563Y-67710000D02*
X98660000Y-68774437D01*
X91840000Y-74530000D02*
X94190000Y-74530000D01*
X91840000Y-68774437D02*
X91840000Y-74530000D01*
X92904437Y-67710000D02*
X91840000Y-68774437D01*
X97595563Y-67710000D02*
X96310000Y-67710000D01*
X92904437Y-67710000D02*
X94190000Y-67710000D01*
X121010000Y-66767064D02*
X121010000Y-65312936D01*
X122830000Y-66767064D02*
X122830000Y-65312936D01*
X49545000Y-38160000D02*
X54685000Y-38160000D01*
X49545000Y-38160000D02*
X49545000Y-35500000D01*
X48275000Y-38160000D02*
X46945000Y-38160000D01*
X54685000Y-38160000D02*
X54685000Y-35500000D01*
X49545000Y-35500000D02*
X54685000Y-35500000D01*
X46945000Y-38160000D02*
X46945000Y-36830000D01*
X104420000Y-36765000D02*
X102770000Y-36765000D01*
X102770000Y-54665000D02*
X108070000Y-54665000D01*
X108070000Y-36765000D02*
X106420000Y-36765000D01*
X108070000Y-54665000D02*
X108070000Y-36765000D01*
X102770000Y-36765000D02*
X102770000Y-54665000D01*
X104420000Y-36765000D02*
G75*
G03*
X106420000Y-36765000I1000000J0D01*
G01*
X83880000Y-50800000D02*
X83880000Y-48200000D01*
X83880000Y-50800000D02*
X81220000Y-50800000D01*
X81220000Y-50800000D02*
X81220000Y-48200000D01*
X83880000Y-53400000D02*
X82550000Y-53400000D01*
X83880000Y-48200000D02*
X81220000Y-48200000D01*
X83880000Y-52070000D02*
X83880000Y-53400000D01*
X78800000Y-48200000D02*
X76140000Y-48200000D01*
X78800000Y-50800000D02*
X76140000Y-50800000D01*
X76140000Y-50800000D02*
X76140000Y-48200000D01*
X78800000Y-50800000D02*
X78800000Y-48200000D01*
X78800000Y-52070000D02*
X78800000Y-53400000D01*
X78800000Y-53400000D02*
X77470000Y-53400000D01*
X38294437Y-49130000D02*
X44050000Y-49130000D01*
X37230000Y-48065563D02*
X38294437Y-49130000D01*
X44050000Y-42310000D02*
X44050000Y-44660000D01*
X38294437Y-42310000D02*
X44050000Y-42310000D01*
X37230000Y-43374437D02*
X37230000Y-44660000D01*
X37230000Y-48065563D02*
X37230000Y-46780000D01*
X37230000Y-43374437D02*
X38294437Y-42310000D01*
X44050000Y-49130000D02*
X44050000Y-46780000D01*
X80010000Y-74990000D02*
X80010000Y-72330000D01*
X77410000Y-74990000D02*
X77410000Y-73660000D01*
X80010000Y-72330000D02*
X85150000Y-72330000D01*
X78740000Y-74990000D02*
X77410000Y-74990000D01*
X80010000Y-74990000D02*
X85150000Y-74990000D01*
X85150000Y-74990000D02*
X85150000Y-72330000D01*
X39270000Y-69905000D02*
X44570000Y-69905000D01*
X39270000Y-52005000D02*
X39270000Y-69905000D01*
X40920000Y-52005000D02*
X39270000Y-52005000D01*
X44570000Y-69905000D02*
X44570000Y-52005000D01*
X44570000Y-52005000D02*
X42920000Y-52005000D01*
X40920000Y-52005000D02*
G75*
G03*
X42920000Y-52005000I1000000J0D01*
G01*
%LPC*%
D12*
X36830000Y-34290000D03*
D13*
X78755000Y-68580000D03*
D14*
X81295000Y-68580000D03*
X83835000Y-68580000D03*
D15*
X58420000Y-38100000D03*
D16*
X58420000Y-40640000D03*
X58420000Y-43180000D03*
X58420000Y-45720000D03*
X58420000Y-48260000D03*
X58420000Y-50800000D03*
X58420000Y-53340000D03*
X66040000Y-53340000D03*
X66040000Y-50800000D03*
X66040000Y-48260000D03*
X66040000Y-45720000D03*
X66040000Y-43180000D03*
X66040000Y-40640000D03*
X66040000Y-38100000D03*
D12*
X128270000Y-74930000D03*
D13*
X48260000Y-33020000D03*
D14*
X50800000Y-33020000D03*
X53340000Y-33020000D03*
D17*
X127000000Y-67590000D03*
X127000000Y-64490000D03*
D18*
X115570000Y-43177500D03*
X115570000Y-38102500D03*
D13*
X91455000Y-33020000D03*
D14*
X93995000Y-33020000D03*
X96535000Y-33020000D03*
D13*
X121920000Y-33035000D03*
D14*
X121920000Y-35575000D03*
X121920000Y-38115000D03*
D17*
X124460000Y-67590000D03*
X124460000Y-64490000D03*
D18*
X67310000Y-73657500D03*
X67310000Y-68582500D03*
D13*
X129535000Y-59690000D03*
D14*
X126995000Y-59690000D03*
X124455000Y-59690000D03*
X121915000Y-59690000D03*
X119375000Y-59690000D03*
D13*
X91440000Y-36830000D03*
D14*
X93980000Y-36830000D03*
X96520000Y-36830000D03*
D12*
X36830000Y-74930000D03*
D19*
X95250000Y-68582500D03*
X95250000Y-73657500D03*
D17*
X121920000Y-67590000D03*
X121920000Y-64490000D03*
D12*
X128270000Y-34290000D03*
D13*
X48275000Y-36830000D03*
D14*
X50815000Y-36830000D03*
X53355000Y-36830000D03*
D15*
X101610000Y-38095000D03*
D16*
X101610000Y-40635000D03*
X101610000Y-43175000D03*
X101610000Y-45715000D03*
X101610000Y-48255000D03*
X101610000Y-50795000D03*
X101610000Y-53335000D03*
X109230000Y-53335000D03*
X109230000Y-50795000D03*
X109230000Y-48255000D03*
X109230000Y-45715000D03*
X109230000Y-43175000D03*
X109230000Y-40635000D03*
X109230000Y-38095000D03*
D13*
X82550000Y-52070000D03*
D14*
X82550000Y-49530000D03*
D13*
X77470000Y-52070000D03*
D14*
X77470000Y-49530000D03*
D20*
X38102500Y-45720000D03*
X43177500Y-45720000D03*
D13*
X78740000Y-73660000D03*
D14*
X81280000Y-73660000D03*
X83820000Y-73660000D03*
D15*
X38110000Y-53335000D03*
D16*
X38110000Y-55875000D03*
X38110000Y-58415000D03*
X38110000Y-60955000D03*
X38110000Y-63495000D03*
X38110000Y-66035000D03*
X38110000Y-68575000D03*
X45730000Y-68575000D03*
X45730000Y-66035000D03*
X45730000Y-63495000D03*
X45730000Y-60955000D03*
X45730000Y-58415000D03*
X45730000Y-55875000D03*
X45730000Y-53335000D03*
M02*
