<?xml version="1.0" standalone="no"?>
 <!DOCTYPE svg PUBLIC "-//W3C//DTD SVG 1.1//EN" 
 "http://www.w3.org/Graphics/SVG/1.1/DTD/svg11.dtd"> 
<svg xmlns="http://www.w3.org/2000/svg" version="1.1" 
    width="6.0833cm" height="6.59384cm" viewBox="0 0 23950 25960 ">
<title>SVG Picture created as motor_assy_00-brd.svg date 2017/01/28 16:14:56 </title>
  <desc>Picture generated by PCBNEW </desc>
<g style="fill:#000000; fill-opacity:1;stroke:#000000; stroke-opacity:1;
stroke-linecap:round; stroke-linejoin:round; "
 transform="translate(0 0) scale(1 1)">
</g>
<g style="fill:#000000; fill-opacity:0.0; 
stroke:#000000; stroke-width:-0.000393701; stroke-opacity:1; 
stroke-linecap:round; stroke-linejoin:round;">
</g>
<g style="fill:#000000; fill-opacity:0.0; 
stroke:#000000; stroke-width:0; stroke-opacity:1; 
stroke-linecap:round; stroke-linejoin:round;">
</g>
<g style="fill:#000000; fill-opacity:1.0; 
stroke:#000000; stroke-width:0; stroke-opacity:1; 
stroke-linecap:round; stroke-linejoin:round;">
<polyline style="fill-rule:evenodd;"
points="15329,17406
17229,17406
17229,18506
15329,18506
15329,17406
" /> 
<polyline style="fill-rule:evenodd;"
points="15329,14906
17229,14906
17229,16006
15329,16006
15329,14906
" /> 
<circle cx="20029.5" cy="12206.7" r="393.5" /> 
</g>
<g style="fill:#000000; fill-opacity:1.0; 
stroke:#000000; stroke-width:39.3701; stroke-opacity:1; 
stroke-linecap:round; stroke-linejoin:round;">
</g>
<g style="fill:#000000; fill-opacity:1.0; 
stroke:#000000; stroke-width:0; stroke-opacity:1; 
stroke-linecap:round; stroke-linejoin:round;">
<circle cx="20029.5" cy="9206.69" r="393.5" /> 
</g>
<g style="fill:#000000; fill-opacity:1.0; 
stroke:#000000; stroke-width:39.3701; stroke-opacity:1; 
stroke-linecap:round; stroke-linejoin:round;">
</g>
<g style="fill:#000000; fill-opacity:1.0; 
stroke:#000000; stroke-width:0; stroke-opacity:1; 
stroke-linecap:round; stroke-linejoin:round;">
<polyline style="fill-rule:evenodd;"
points="13964,15275
14594,15275
14594,16062
13964,16062
13964,15275
" /> 
<polyline style="fill-rule:evenodd;"
points="13964,16850
14594,16850
14594,17637
13964,17637
13964,16850
" /> 
<polyline style="fill-rule:evenodd;"
points="14710,22391
14710,23021
13923,23021
13923,22391
14710,22391
" /> 
<polyline style="fill-rule:evenodd;"
points="13135,22391
13135,23021
12348,23021
12348,22391
13135,22391
" /> 
<polyline style="fill-rule:evenodd;"
points="22229,8656
22229,6756
23329,6756
23329,8656
22229,8656
" /> 
<polyline style="fill-rule:evenodd;"
points="19729,8656
19729,6756
20829,6756
20829,8656
19729,8656
" /> 
<polyline style="fill-rule:evenodd;"
points="20348,10021
20348,9391
21135,9391
21135,10021
20348,10021
" /> 
<polyline style="fill-rule:evenodd;"
points="21923,10021
21923,9391
22710,9391
22710,10021
21923,10021
" /> 
<polyline style="fill-rule:evenodd;"
points="22229,18156
22229,16256
23329,16256
23329,18156
22229,18156
" /> 
<polyline style="fill-rule:evenodd;"
points="19729,18156
19729,16256
20829,16256
20829,18156
19729,18156
" /> 
<polyline style="fill-rule:evenodd;"
points="11348,8521
11348,7891
12135,7891
12135,8521
11348,8521
" /> 
<polyline style="fill-rule:evenodd;"
points="12923,8521
12923,7891
13710,7891
13710,8521
12923,8521
" /> 
<polyline style="fill-rule:evenodd;"
points="20848,12021
20848,11391
21635,11391
21635,12021
20848,12021
" /> 
<polyline style="fill-rule:evenodd;"
points="22423,12021
22423,11391
23210,11391
23210,12021
22423,12021
" /> 
<polyline style="fill-rule:evenodd;"
points="22229,15156
22229,13256
23329,13256
23329,15156
22229,15156
" /> 
<polyline style="fill-rule:evenodd;"
points="19729,15156
19729,13256
20829,13256
20829,15156
19729,15156
" /> 
<polyline style="fill-rule:evenodd;"
points="9464,14984
10094,14984
10094,15929
9464,15929
9464,14984
" /> 
</g>
<g style="fill:#000000; fill-opacity:1.0; 
stroke:#000000; stroke-width:629.921; stroke-opacity:1; 
stroke-linecap:round; stroke-linejoin:round;">
</g>
<g style="fill:#000000; fill-opacity:0.0; 
stroke:#000000; stroke-width:629.921; stroke-opacity:1; 
stroke-linecap:round; stroke-linejoin:round;">
<path d="M2779 18299
L2779 18614
" />
<path d="M8779 15299
L8779 15614
" />
<path d="M3779 18299
L3779 18614
" />
<path d="M7779 15299
L7779 15614
" />
<path d="M4779 18299
L4779 18614
" />
<path d="M6779 15299
L6779 15614
" />
<path d="M5779 18299
L5779 18614
" />
<path d="M5779 15299
L5779 15614
" />
<path d="M6779 18299
L6779 18614
" />
<path d="M4779 15299
L4779 15614
" />
<path d="M7779 18299
L7779 18614
" />
<path d="M3779 15299
L3779 15614
" />
<path d="M8779 18299
L8779 18614
" />
<path d="M2779 15299
L2779 15614
" />
<path d="M9779 18299
L9779 18614
" />
</g>
<g style="fill:#000000; fill-opacity:0.0; 
stroke:#000000; stroke-width:0; stroke-opacity:1; 
stroke-linecap:round; stroke-linejoin:round;">
</g>
<g style="fill:#000000; fill-opacity:1.0; 
stroke:#000000; stroke-width:0; stroke-opacity:1; 
stroke-linecap:round; stroke-linejoin:round;">
<polyline style="fill-rule:evenodd;"
points="6194,1974
6864,1974
6864,3273
6194,3273
6194,1974
" /> 
<polyline style="fill-rule:evenodd;"
points="6194,4139
6864,4139
6864,5438
6194,5438
6194,4139
" /> 
<polyline style="fill-rule:evenodd;"
points="8364,4438
7694,4438
7694,3139
8364,3139
8364,4438
" /> 
<polyline style="fill-rule:evenodd;"
points="8364,2273
7694,2273
7694,974
8364,974
8364,2273
" /> 
<polyline style="fill-rule:evenodd;"
points="14194,1974
14864,1974
14864,3273
14194,3273
14194,1974
" /> 
<polyline style="fill-rule:evenodd;"
points="14194,4139
14864,4139
14864,5438
14194,5438
14194,4139
" /> 
<polyline style="fill-rule:evenodd;"
points="16364,4438
15694,4438
15694,3139
16364,3139
16364,4438
" /> 
<polyline style="fill-rule:evenodd;"
points="16364,2273
15694,2273
15694,974
16364,974
16364,2273
" /> 
<polyline style="fill-rule:evenodd;"
points="2694,1974
3364,1974
3364,3273
2694,3273
2694,1974
" /> 
<polyline style="fill-rule:evenodd;"
points="2694,4139
3364,4139
3364,5438
2694,5438
2694,4139
" /> 
<polyline style="fill-rule:evenodd;"
points="4864,4438
4194,4438
4194,3139
4864,3139
4864,4438
" /> 
<polyline style="fill-rule:evenodd;"
points="4864,2273
4194,2273
4194,974
4864,974
4864,2273
" /> 
<polyline style="fill-rule:evenodd;"
points="11194,1974
11864,1974
11864,3273
11194,3273
11194,1974
" /> 
<polyline style="fill-rule:evenodd;"
points="11194,4139
11864,4139
11864,5438
11194,5438
11194,4139
" /> 
<polyline style="fill-rule:evenodd;"
points="10364,4438
9694,4438
9694,3139
10364,3139
10364,4438
" /> 
<polyline style="fill-rule:evenodd;"
points="10364,2273
9694,2273
9694,974
10364,974
10364,2273
" /> 
<polyline style="fill-rule:evenodd;"
points="19797,19541
19797,18872
21096,18872
21096,19541
19797,19541
" /> 
<polyline style="fill-rule:evenodd;"
points="21962,19541
21962,18872
23261,18872
23261,19541
21962,19541
" /> 
<polyline style="fill-rule:evenodd;"
points="18194,15974
18864,15974
18864,17273
18194,17273
18194,15974
" /> 
<polyline style="fill-rule:evenodd;"
points="18194,18139
18864,18139
18864,19438
18194,19438
18194,18139
" /> 
<polyline style="fill-rule:evenodd;"
points="21021,2214
21021,3198
20037,3198
20037,2214
21021,2214
" /> 
<circle cx="18561" cy="2706.69" r="492.126" /> 
</g>
<g style="fill:#000000; fill-opacity:1.0; 
stroke:#000000; stroke-width:39.3701; stroke-opacity:1; 
stroke-linecap:round; stroke-linejoin:round;">
</g>
<g style="fill:#000000; fill-opacity:1.0; 
stroke:#000000; stroke-width:0; stroke-opacity:1; 
stroke-linecap:round; stroke-linejoin:round;">
<polyline style="fill-rule:evenodd;"
points="2439,22106
2439,21306
3119,21306
3119,22106
2439,22106
" /> 
</g>
<g style="fill:#000000; fill-opacity:1.0; 
stroke:#000000; stroke-width:680; stroke-opacity:1; 
stroke-linecap:round; stroke-linejoin:round;">
</g>
<g style="fill:#000000; fill-opacity:0.0; 
stroke:#000000; stroke-width:680; stroke-opacity:1; 
stroke-linecap:round; stroke-linejoin:round;">
<path d="M3779 21646
L3779 21766
" />
<path d="M4779 21646
L4779 21766
" />
<path d="M5779 21646
L5779 21766
" />
<path d="M6779 21646
L6779 21766
" />
<path d="M7779 21646
L7779 21766
" />
<path d="M8779 21646
L8779 21766
" />
</g>
<g style="fill:#000000; fill-opacity:0.0; 
stroke:#000000; stroke-width:0; stroke-opacity:1; 
stroke-linecap:round; stroke-linejoin:round;">
</g>
<g style="fill:#000000; fill-opacity:1.0; 
stroke:#000000; stroke-width:0; stroke-opacity:1; 
stroke-linecap:round; stroke-linejoin:round;">
<polyline style="fill-rule:evenodd;"
points="5929,4306
5929,5106
5129,5106
5129,4306
5929,4306
" /> 
</g>
<g style="fill:#000000; fill-opacity:1.0; 
stroke:#000000; stroke-width:800; stroke-opacity:1; 
stroke-linecap:round; stroke-linejoin:round;">
</g>
<g style="fill:#000000; fill-opacity:0.0; 
stroke:#000000; stroke-width:800; stroke-opacity:1; 
stroke-linecap:round; stroke-linejoin:round;">
<path d="M4529 4706
L4529 4706
" />
</g>
<g style="fill:#000000; fill-opacity:0.0; 
stroke:#000000; stroke-width:0; stroke-opacity:1; 
stroke-linecap:round; stroke-linejoin:round;">
</g>
<g style="fill:#000000; fill-opacity:1.0; 
stroke:#000000; stroke-width:0; stroke-opacity:1; 
stroke-linecap:round; stroke-linejoin:round;">
<polyline style="fill-rule:evenodd;"
points="13929,4306
13929,5106
13129,5106
13129,4306
13929,4306
" /> 
</g>
<g style="fill:#000000; fill-opacity:1.0; 
stroke:#000000; stroke-width:800; stroke-opacity:1; 
stroke-linecap:round; stroke-linejoin:round;">
</g>
<g style="fill:#000000; fill-opacity:0.0; 
stroke:#000000; stroke-width:800; stroke-opacity:1; 
stroke-linecap:round; stroke-linejoin:round;">
<path d="M12529 4706
L12529 4706
" />
</g>
<g style="fill:#000000; fill-opacity:0.0; 
stroke:#000000; stroke-width:0; stroke-opacity:1; 
stroke-linecap:round; stroke-linejoin:round;">
</g>
<g style="fill:#000000; fill-opacity:1.0; 
stroke:#000000; stroke-width:0; stroke-opacity:1; 
stroke-linecap:round; stroke-linejoin:round;">
<polyline style="fill-rule:evenodd;"
points="12189,22106
12189,21306
12869,21306
12869,22106
12189,22106
" /> 
</g>
<g style="fill:#000000; fill-opacity:1.0; 
stroke:#000000; stroke-width:680; stroke-opacity:1; 
stroke-linecap:round; stroke-linejoin:round;">
</g>
<g style="fill:#000000; fill-opacity:0.0; 
stroke:#000000; stroke-width:680; stroke-opacity:1; 
stroke-linecap:round; stroke-linejoin:round;">
<path d="M13529 21646
L13529 21766
" />
<path d="M14529 21646
L14529 21766
" />
<path d="M15529 21646
L15529 21766
" />
</g>
<g style="fill:#000000; fill-opacity:0.0; 
stroke:#000000; stroke-width:0; stroke-opacity:1; 
stroke-linecap:round; stroke-linejoin:round;">
</g>
<g style="fill:#000000; fill-opacity:1.0; 
stroke:#000000; stroke-width:0; stroke-opacity:1; 
stroke-linecap:round; stroke-linejoin:round;">
<polyline style="fill-rule:evenodd;"
points="19129,22106
19129,21306
19929,21306
19929,22106
19129,22106
" /> 
</g>
<g style="fill:#000000; fill-opacity:1.0; 
stroke:#000000; stroke-width:800; stroke-opacity:1; 
stroke-linecap:round; stroke-linejoin:round;">
</g>
<g style="fill:#000000; fill-opacity:0.0; 
stroke:#000000; stroke-width:800; stroke-opacity:1; 
stroke-linecap:round; stroke-linejoin:round;">
<path d="M20529 21706
L20529 21706
" />
</g>
<g style="fill:#000000; fill-opacity:1.0; 
stroke:#000000; stroke-width:0; stroke-opacity:1; 
stroke-linecap:round; stroke-linejoin:round;">
<circle cx="9029.53" cy="7206.69" r="196.85" /> 
</g>
<g style="fill:#000000; fill-opacity:1.0; 
stroke:#000000; stroke-width:39.3701; stroke-opacity:1; 
stroke-linecap:round; stroke-linejoin:round;">
</g>
<g style="fill:#000000; fill-opacity:1.0; 
stroke:#000000; stroke-width:0; stroke-opacity:1; 
stroke-linecap:round; stroke-linejoin:round;">
<circle cx="8529.53" cy="6706.69" r="196.85" /> 
</g>
<g style="fill:#000000; fill-opacity:1.0; 
stroke:#000000; stroke-width:39.3701; stroke-opacity:1; 
stroke-linecap:round; stroke-linejoin:round;">
</g>
<g style="fill:#000000; fill-opacity:1.0; 
stroke:#000000; stroke-width:0; stroke-opacity:1; 
stroke-linecap:round; stroke-linejoin:round;">
<polyline style="fill-rule:evenodd;"
points="9332,6509
9726,6509
9726,6903
9332,6903
9332,6509
" /> 
<polyline style="fill-rule:evenodd;"
points="10944,15775
11614,15775
11614,16562
10944,16562
10944,15775
" /> 
<polyline style="fill-rule:evenodd;"
points="10944,17350
11614,17350
11614,18137
10944,18137
10944,17350
" /> 
<polyline style="fill-rule:evenodd;"
points="2598,17291
2598,16622
3385,16622
3385,17291
2598,17291
" /> 
<polyline style="fill-rule:evenodd;"
points="4173,17291
4173,16622
4960,16622
4960,17291
4173,17291
" /> 
<polyline style="fill-rule:evenodd;"
points="5114,24887
4444,24887
4444,24100
5114,24100
5114,24887
" /> 
<polyline style="fill-rule:evenodd;"
points="5114,23312
4444,23312
4444,22525
5114,22525
5114,23312
" /> 
<polyline style="fill-rule:evenodd;"
points="4114,24887
3444,24887
3444,24100
4114,24100
4114,24887
" /> 
<polyline style="fill-rule:evenodd;"
points="4114,23312
3444,23312
3444,22525
4114,22525
4114,23312
" /> 
<circle cx="15529.5" cy="8206.69" r="472.441" /> 
</g>
<g style="fill:#000000; fill-opacity:1.0; 
stroke:#000000; stroke-width:39.3701; stroke-opacity:1; 
stroke-linecap:round; stroke-linejoin:round;">
</g>
<g style="fill:#000000; fill-opacity:1.0; 
stroke:#000000; stroke-width:944.882; stroke-opacity:1; 
stroke-linecap:round; stroke-linejoin:round;">
</g>
<g style="fill:#000000; fill-opacity:0.0; 
stroke:#000000; stroke-width:944.882; stroke-opacity:1; 
stroke-linecap:round; stroke-linejoin:round;">
<path d="M15529 14206
L15529 14206
" />
</g>
<g style="fill:#000000; fill-opacity:0.0; 
stroke:#000000; stroke-width:0; stroke-opacity:1; 
stroke-linecap:round; stroke-linejoin:round;">
</g>
<g style="fill:#000000; fill-opacity:1.0; 
stroke:#000000; stroke-width:0; stroke-opacity:1; 
stroke-linecap:round; stroke-linejoin:round;">
<polyline style="fill-rule:evenodd;"
points="15848,6541
15848,5872
16635,5872
16635,6541
15848,6541
" /> 
<polyline style="fill-rule:evenodd;"
points="17423,6541
17423,5872
18210,5872
18210,6541
17423,6541
" /> 
<polyline style="fill-rule:evenodd;"
points="7364,8887
6694,8887
6694,8100
7364,8100
7364,8887
" /> 
<polyline style="fill-rule:evenodd;"
points="7364,7312
6694,7312
6694,6525
7364,6525
7364,7312
" /> 
<polyline style="fill-rule:evenodd;"
points="14710,23372
14710,24041
13923,24041
13923,23372
14710,23372
" /> 
<polyline style="fill-rule:evenodd;"
points="13135,23372
13135,24041
12348,24041
12348,23372
13135,23372
" /> 
<polyline style="fill-rule:evenodd;"
points="18348,4541
18348,3872
19135,3872
19135,4541
18348,4541
" /> 
<polyline style="fill-rule:evenodd;"
points="19923,4541
19923,3872
20710,3872
20710,4541
19923,4541
" /> 
<polyline style="fill-rule:evenodd;"
points="15848,11541
15848,10872
16635,10872
16635,11541
15848,11541
" /> 
<polyline style="fill-rule:evenodd;"
points="17423,11541
17423,10872
18210,10872
18210,11541
17423,11541
" /> 
<polyline style="fill-rule:evenodd;"
points="18864,14887
18194,14887
18194,14100
18864,14100
18864,14887
" /> 
<polyline style="fill-rule:evenodd;"
points="18864,13312
18194,13312
18194,12525
18864,12525
18864,13312
" /> 
<polyline style="fill-rule:evenodd;"
points="9557,10021
9557,9391
10501,9391
10501,10021
9557,10021
" /> 
</g>
<g style="fill:#000000; fill-opacity:1.0; 
stroke:#000000; stroke-width:629.921; stroke-opacity:1; 
stroke-linecap:round; stroke-linejoin:round;">
</g>
<g style="fill:#000000; fill-opacity:0.0; 
stroke:#000000; stroke-width:629.921; stroke-opacity:1; 
stroke-linecap:round; stroke-linejoin:round;">
<path d="M12872 12706
L13187 12706
" />
<path d="M9872 10706
L10187 10706
" />
<path d="M12872 11706
L13187 11706
" />
<path d="M9872 11706
L10187 11706
" />
<path d="M12872 10706
L13187 10706
" />
<path d="M9872 12706
L10187 12706
" />
<path d="M12872 9706
L13187 9706
" />
</g>
<g style="fill:#000000; fill-opacity:0.0; 
stroke:#000000; stroke-width:0; stroke-opacity:1; 
stroke-linecap:round; stroke-linejoin:round;">
</g>
<g style="fill:#000000; fill-opacity:1.0; 
stroke:#000000; stroke-width:0; stroke-opacity:1; 
stroke-linecap:round; stroke-linejoin:round;">
<polyline style="fill-rule:evenodd;"
points="6210,5891
6210,6521
5423,6521
5423,5891
6210,5891
" /> 
<polyline style="fill-rule:evenodd;"
points="4635,5891
4635,6521
3848,6521
3848,5891
4635,5891
" /> 
<polyline style="fill-rule:evenodd;"
points="14210,5891
14210,6521
13423,6521
13423,5891
14210,5891
" /> 
<polyline style="fill-rule:evenodd;"
points="12635,5891
12635,6521
11848,6521
11848,5891
12635,5891
" /> 
</g>
<g style="fill:#000000; fill-opacity:1.0; 
stroke:#000000; stroke-width:98.4252; stroke-opacity:1; 
stroke-linecap:round; stroke-linejoin:round;">
</g>
<g style="fill:#000000; fill-opacity:0.0; 
stroke:#000000; stroke-width:98.4252; stroke-opacity:1; 
stroke-linecap:round; stroke-linejoin:round;">
<path d="M10029 12706
L10529 12706
" />
<path d="M12029 11206
L12029 8494
" />
<path d="M10529 12706
L12029 11206
" />
<path d="M12029 8494
L11742 8206
" />
</g>
<g style="fill:#000000; fill-opacity:0.0; 
stroke:#000000; stroke-width:118.11; stroke-opacity:1; 
stroke-linecap:round; stroke-linejoin:round;">
<path d="M8529 6706
L8529 7206
" />
<path d="M14529 20206
L14529 21706
" />
<path d="M12529 18206
L14529 20206
" />
<path d="M12529 14956
L12529 18206
" />
<path d="M11779 14206
L12529 14956
" />
<path d="M9279 14206
L11779 14206
" />
<path d="M7779 12706
L9279 14206
" />
<path d="M6279 12706
L7779 12706
" />
<path d="M5779 12206
L6279 12706
" />
<path d="M5779 8206
L5779 12206
" />
<path d="M6279 7706
L5779 8206
" />
<path d="M8029 7706
L6279 7706
" />
<path d="M8529 7206
L8029 7706
" />
</g>
<g style="fill:#000000; fill-opacity:0.0; 
stroke:#000000; stroke-width:196.85; stroke-opacity:1; 
stroke-linecap:round; stroke-linejoin:round;">
<path d="M14316 22706
L14316 23706
" />
<path d="M14529 21706
L14529 22494
" />
<path d="M14529 22494
L14316 22706
" />
</g>
<g style="fill:#000000; fill-opacity:0.0; 
stroke:#000000; stroke-width:98.4252; stroke-opacity:1; 
stroke-linecap:round; stroke-linejoin:round;">
<path d="M14316 22706
L14529 22494
" />
</g>
<g style="fill:#000000; fill-opacity:0.0; 
stroke:#000000; stroke-width:196.85; stroke-opacity:1; 
stroke-linecap:round; stroke-linejoin:round;">
<path d="M17816 6206
L17816 7706
" />
<path d="M17816 7706
L17779 7706
" />
</g>
<g style="fill:#000000; fill-opacity:0.0; 
stroke:#000000; stroke-width:393.701; stroke-opacity:1; 
stroke-linecap:round; stroke-linejoin:round;">
<path d="M15529 8206
L15779 8206
" />
<path d="M15779 8206
L16279 7706
" />
<path d="M16279 7706
L17779 7706
" />
<path d="M17779 7706
L20279 7706
" />
<path d="M20029 9206
L20029 7956
" />
<path d="M20029 7956
L20279 7706
" />
<path d="M20742 9706
L20529 9706
" />
<path d="M20529 9706
L20029 9206
" />
</g>
<g style="fill:#000000; fill-opacity:0.0; 
stroke:#000000; stroke-width:98.4252; stroke-opacity:1; 
stroke-linecap:round; stroke-linejoin:round;">
<path d="M20029 9206
L20242 9206
" />
<path d="M20242 9206
L20742 9706
" />
<path d="M20279 7706
L18029 7706
" />
<path d="M18029 7706
L16029 7706
" />
<path d="M16029 7706
L15529 8206
" />
<path d="M15279 7956
L15529 8206
" />
<path d="M20029 7956
L20279 7706
" />
</g>
<g style="fill:#000000; fill-opacity:0.0; 
stroke:#000000; stroke-width:393.701; stroke-opacity:1; 
stroke-linecap:round; stroke-linejoin:round;">
<path d="M20029 12206
L19029 12206
" />
<path d="M19029 12206
L18529 12706
" />
<path d="M18529 12706
L18529 12919
" />
<path d="M20029 12206
L20742 12206
" />
<path d="M20742 12206
L21242 11706
" />
<path d="M20279 17206
L20529 17206
" />
<path d="M20529 17206
L21529 16206
" />
<path d="M21529 16206
L21529 11994
" />
<path d="M21529 11994
L21242 11706
" />
</g>
<g style="fill:#000000; fill-opacity:0.0; 
stroke:#000000; stroke-width:787.402; stroke-opacity:1; 
stroke-linecap:round; stroke-linejoin:round;">
<path d="M18529 16624
L19696 16624
" />
<path d="M19696 16624
L20279 17206
" />
</g>
<g style="fill:#000000; fill-opacity:0.0; 
stroke:#000000; stroke-width:98.4252; stroke-opacity:1; 
stroke-linecap:round; stroke-linejoin:round;">
<path d="M20529 17206
L21529 16206
" />
<path d="M19696 16624
L20279 17206
" />
<path d="M20446 19206
L20446 17374
" />
<path d="M20446 17374
L20279 17206
" />
<path d="M18529 12919
L18529 12706
" />
<path d="M18529 12706
L19029 12206
" />
</g>
<g style="fill:#000000; fill-opacity:0.0; 
stroke:#000000; stroke-width:196.85; stroke-opacity:1; 
stroke-linecap:round; stroke-linejoin:round;">
<path d="M18529 14494
L17816 14494
" />
<path d="M17816 14494
L17029 13706
" />
<path d="M17029 13706
L17029 12206
" />
<path d="M13029 9706
L16029 9706
" />
<path d="M13316 8206
L13316 9419
" />
<path d="M13316 9419
L13029 9706
" />
</g>
<g style="fill:#000000; fill-opacity:0.0; 
stroke:#000000; stroke-width:787.402; stroke-opacity:1; 
stroke-linecap:round; stroke-linejoin:round;">
<path d="M18529 14494
L19992 14494
" />
<path d="M19992 14494
L20279 14206
" />
</g>
<g style="fill:#000000; fill-opacity:0.0; 
stroke:#000000; stroke-width:98.4252; stroke-opacity:1; 
stroke-linecap:round; stroke-linejoin:round;">
<path d="M17029 13706
L17816 14494
" />
<path d="M17029 10706
L17029 12206
" />
<path d="M17029 12206
L17029 13706
" />
<path d="M16029 9706
L17029 10706
" />
<path d="M19992 14494
L20279 14206
" />
<path d="M9779 15456
L10779 15456
" />
<path d="M10779 15456
L11279 15956
" />
<path d="M11279 15956
L11279 16169
" />
</g>
<g style="fill:#000000; fill-opacity:0.0; 
stroke:#000000; stroke-width:196.85; stroke-opacity:1; 
stroke-linecap:round; stroke-linejoin:round;">
<path d="M2779 21706
L2779 18456
" />
</g>
<g style="fill:#000000; fill-opacity:0.0; 
stroke:#000000; stroke-width:98.4252; stroke-opacity:1; 
stroke-linecap:round; stroke-linejoin:round;">
<path d="M2779 18456
L2779 17169
" />
<path d="M2779 17169
L2992 16956
" />
</g>
<g style="fill:#000000; fill-opacity:0.0; 
stroke:#000000; stroke-width:196.85; stroke-opacity:1; 
stroke-linecap:round; stroke-linejoin:round;">
<path d="M3779 21706
L3779 22919
" />
<path d="M3779 21706
L3779 18456
" />
<path d="M4779 21706
L4779 20456
" />
<path d="M4779 20456
L5529 19706
" />
<path d="M5529 19706
L8529 19706
" />
<path d="M8529 19706
L8779 19456
" />
<path d="M8779 19456
L8779 18456
" />
<path d="M4779 21706
L4779 22919
" />
</g>
<g style="fill:#000000; fill-opacity:0.0; 
stroke:#000000; stroke-width:98.4252; stroke-opacity:1; 
stroke-linecap:round; stroke-linejoin:round;">
<path d="M8779 19456
L8779 18456
" />
<path d="M8529 19706
L8779 19456
" />
<path d="M5529 19706
L8529 19706
" />
<path d="M4779 20456
L5529 19706
" />
</g>
<g style="fill:#000000; fill-opacity:0.0; 
stroke:#000000; stroke-width:393.701; stroke-opacity:1; 
stroke-linecap:round; stroke-linejoin:round;">
<path d="M13529 21706
L13529 20456
" />
<path d="M11279 18206
L11279 17744
" />
<path d="M13529 20456
L11279 18206
" />
</g>
<g style="fill:#000000; fill-opacity:0.0; 
stroke:#000000; stroke-width:196.85; stroke-opacity:1; 
stroke-linecap:round; stroke-linejoin:round;">
<path d="M9779 18456
L10779 18456
" />
<path d="M10779 18456
L11279 17956
" />
<path d="M11279 17956
L11279 17744
" />
<path d="M4566 16956
L9279 16956
" />
<path d="M9279 16956
L9779 17456
" />
<path d="M9779 17456
L9779 18456
" />
</g>
<g style="fill:#000000; fill-opacity:0.0; 
stroke:#000000; stroke-width:98.4252; stroke-opacity:1; 
stroke-linecap:round; stroke-linejoin:round;">
<path d="M9779 17456
L9779 18456
" />
<path d="M9279 16956
L9779 17456
" />
<path d="M10779 18456
L11279 17956
" />
<path d="M11279 17956
L11279 17744
" />
</g>
<g style="fill:#000000; fill-opacity:0.0; 
stroke:#000000; stroke-width:787.402; stroke-opacity:1; 
stroke-linecap:round; stroke-linejoin:round;">
<path d="M18529 18789
L18529 20706
" />
<path d="M18529 20706
L19529 21706
" />
</g>
<g style="fill:#000000; fill-opacity:0.0; 
stroke:#000000; stroke-width:98.4252; stroke-opacity:1; 
stroke-linecap:round; stroke-linejoin:round;">
<path d="M18529 20706
L19529 21706
" />
</g>
<g style="fill:#000000; fill-opacity:0.0; 
stroke:#000000; stroke-width:196.85; stroke-opacity:1; 
stroke-linecap:round; stroke-linejoin:round;">
<path d="M20529 2706
L20529 3994
" />
<path d="M20529 3994
L20316 4206
" />
<path d="M20316 4206
L20529 4206
" />
<path d="M20529 4206
L21529 5206
" />
<path d="M21529 5206
L21529 8706
" />
<path d="M21529 10706
L18316 10706
" />
<path d="M18316 10706
L17816 11206
" />
</g>
<g style="fill:#000000; fill-opacity:0.0; 
stroke:#000000; stroke-width:98.4252; stroke-opacity:1; 
stroke-linecap:round; stroke-linejoin:round;">
<path d="M20529 4206
L21529 5206
" />
<path d="M18529 10706
L18029 11206
" />
<path d="M21529 10706
L18529 10706
" />
<path d="M21529 5206
L21529 8706
" />
<path d="M21529 8706
L21529 10706
" />
<path d="M18029 11206
L17816 11206
" />
<path d="M20316 4206
L20529 3994
" />
</g>
<g style="fill:#000000; fill-opacity:0.0; 
stroke:#000000; stroke-width:196.85; stroke-opacity:1; 
stroke-linecap:round; stroke-linejoin:round;">
<path d="M13029 11706
L13029 10706
" />
<path d="M13029 11706
L12529 11706
" />
<path d="M15529 20206
L15529 21706
" />
<path d="M13279 17956
L15529 20206
" />
<path d="M13279 14456
L13279 17956
" />
<path d="M12029 13206
L13279 14456
" />
<path d="M12029 12206
L12029 13206
" />
<path d="M12529 11706
L12029 12206
" />
<path d="M9029 7206
L9029 8706
" />
<path d="M9029 8706
L10029 9706
" />
<path d="M9529 6706
L10029 7206
" />
<path d="M10029 7206
L15529 7206
" />
<path d="M15529 7206
L16242 6494
" />
<path d="M16242 6494
L16242 6206
" />
</g>
<g style="fill:#000000; fill-opacity:0.0; 
stroke:#000000; stroke-width:98.4252; stroke-opacity:1; 
stroke-linecap:round; stroke-linejoin:round;">
<path d="M10029 11706
L10529 11706
" />
<path d="M10529 8706
L10529 7206
" />
<path d="M11029 9206
L10529 8706
" />
<path d="M11029 11206
L11029 9206
" />
<path d="M10529 11706
L11029 11206
" />
<path d="M16242 6206
L16242 6494
" />
<path d="M16242 6494
L15529 7206
" />
<path d="M15529 7206
L10529 7206
" />
<path d="M10529 7206
L10029 7206
" />
</g>
<g style="fill:#000000; fill-opacity:0.0; 
stroke:#000000; stroke-width:196.85; stroke-opacity:1; 
stroke-linecap:round; stroke-linejoin:round;">
<path d="M10029 10706
L8029 10706
" />
<path d="M7029 9706
L7029 8494
" />
<path d="M8029 10706
L7029 9706
" />
<path d="M13029 12706
L15279 12706
" />
<path d="M16242 11744
L16242 11206
" />
<path d="M15279 12706
L16242 11744
" />
<path d="M5816 6206
L5816 6669
" />
<path d="M7779 13956
L7779 15456
" />
<path d="M7279 13456
L7779 13956
" />
<path d="M5779 13456
L7279 13456
" />
<path d="M5029 12706
L5779 13456
" />
<path d="M5029 7456
L5029 12706
" />
<path d="M5816 6669
L5029 7456
" />
<path d="M6529 4789
L7029 4789
" />
<path d="M7029 4789
L8029 3789
" />
<path d="M6529 4789
L5612 4789
" />
<path d="M5612 4789
L5529 4706
" />
<path d="M5816 6206
L5816 4994
" />
<path d="M5816 4994
L5529 4706
" />
</g>
<g style="fill:#000000; fill-opacity:0.0; 
stroke:#000000; stroke-width:98.4252; stroke-opacity:1; 
stroke-linecap:round; stroke-linejoin:round;">
<path d="M7029 4789
L8029 3789
" />
<path d="M5816 4994
L5529 4706
" />
<path d="M5612 4789
L5529 4706
" />
</g>
<g style="fill:#000000; fill-opacity:0.0; 
stroke:#000000; stroke-width:196.85; stroke-opacity:1; 
stroke-linecap:round; stroke-linejoin:round;">
<path d="M4779 15456
L4779 13456
" />
<path d="M4242 12919
L4242 6206
" />
<path d="M4779 13456
L4242 12919
" />
<path d="M3029 4789
L3196 4789
" />
<path d="M3196 4789
L3279 4706
" />
<path d="M3279 4706
L4529 4706
" />
<path d="M4242 6206
L4242 4994
" />
<path d="M4242 4994
L4529 4706
" />
</g>
<g style="fill:#000000; fill-opacity:0.0; 
stroke:#000000; stroke-width:98.4252; stroke-opacity:1; 
stroke-linecap:round; stroke-linejoin:round;">
<path d="M4529 4706
L3112 4706
" />
<path d="M3112 4706
L3029 4789
" />
<path d="M4159 6289
L4242 6206
" />
<path d="M4242 4994
L4529 4706
" />
<path d="M4446 4789
L4529 4706
" />
</g>
<g style="fill:#000000; fill-opacity:0.0; 
stroke:#000000; stroke-width:196.85; stroke-opacity:1; 
stroke-linecap:round; stroke-linejoin:round;">
<path d="M13816 6206
L13816 4994
" />
<path d="M13816 4994
L13529 4706
" />
<path d="M14529 4789
L15446 4789
" />
<path d="M15446 4789
L16029 4206
" />
<path d="M16029 4206
L16029 3789
" />
<path d="M14529 4789
L13612 4789
" />
<path d="M13612 4789
L13529 4706
" />
</g>
<g style="fill:#000000; fill-opacity:0.0; 
stroke:#000000; stroke-width:98.4252; stroke-opacity:1; 
stroke-linecap:round; stroke-linejoin:round;">
<path d="M13816 4994
L13529 4706
" />
<path d="M13612 4789
L13529 4706
" />
<path d="M16029 3789
L16029 4206
" />
<path d="M16029 4206
L15446 4789
" />
</g>
<g style="fill:#000000; fill-opacity:0.0; 
stroke:#000000; stroke-width:196.85; stroke-opacity:1; 
stroke-linecap:round; stroke-linejoin:round;">
<path d="M12242 6206
L12242 4994
" />
<path d="M12242 4994
L12529 4706
" />
<path d="M11529 4789
L11029 4789
" />
<path d="M11029 4789
L10029 3789
" />
<path d="M11529 4789
L12446 4789
" />
<path d="M12446 4789
L12529 4706
" />
</g>
<g style="fill:#000000; fill-opacity:0.0; 
stroke:#000000; stroke-width:98.4252; stroke-opacity:1; 
stroke-linecap:round; stroke-linejoin:round;">
<path d="M12242 4994
L12529 4706
" />
<path d="M12446 4789
L12529 4706
" />
<path d="M10029 3789
L10112 3789
" />
<path d="M10112 3789
L11112 4789
" />
<path d="M11112 4789
L11529 4789
" />
</g>
<g style="fill:#000000; fill-opacity:0.0; 
stroke:#000000; stroke-width:118.11; stroke-opacity:1; 
stroke-linecap:round; stroke-linejoin:round;">
<path d="M11529 2624
L14529 2624
" />
<path d="M6529 2624
L11529 2624
" />
<path d="M3029 2624
L6529 2624
" />
</g>
<g style="fill:#000000; fill-opacity:0.0; 
stroke:#000000; stroke-width:196.85; stroke-opacity:1; 
stroke-linecap:round; stroke-linejoin:round;">
<path d="M2779 15456
L2779 14456
" />
<path d="M2779 14456
L2029 13706
" />
<path d="M2029 13706
L2029 2956
" />
<path d="M2029 2956
L2362 2624
" />
<path d="M2362 2624
L3029 2624
" />
</g>
<g style="fill:#000000; fill-opacity:0.0; 
stroke:#000000; stroke-width:787.402; stroke-opacity:1; 
stroke-linecap:round; stroke-linejoin:round;">
<path d="M14279 15669
L14279 15456
" />
<path d="M14279 15456
L15529 14206
" />
<path d="M15529 14206
L15529 14706
" />
<path d="M15529 14706
L16279 15456
" />
</g>
<g style="fill:#000000; fill-opacity:0.0; 
stroke:#000000; stroke-width:98.4252; stroke-opacity:1; 
stroke-linecap:round; stroke-linejoin:round;">
<path d="M8529 2624
L8946 2624
" />
<path d="M6529 2624
L8529 2624
" />
<path d="M8946 2624
L9029 2706
" />
<path d="M7029 6206
L7029 6919
" />
<path d="M9029 4706
L9029 2706
" />
<path d="M8529 5206
L9029 4706
" />
<path d="M8029 5206
L8529 5206
" />
<path d="M7029 6206
L8029 5206
" />
<path d="M2779 14456
L2029 13706
" />
</g>
<g style="fill:#000000; fill-opacity:1.0; 
stroke:#000000; stroke-width:100; stroke-opacity:1; 
stroke-linecap:round; stroke-linejoin:round;">
<polyline style="fill-rule:evenodd;"
points="3944,1511
4007,1574
4479,1574
4479,1566
4579,1566
4579,1574
5051,1574
5114,1511
5114,986
7444,986
7444,1511
7507,1574
7979,1574
7979,1566
8079,1566
8079,1574
8551,1574
8614,1511
8614,986
9444,986
9444,1511
9507,1574
9979,1574
9979,1566
10079,1566
10079,1574
10551,1574
10614,1511
10614,986
15444,986
15444,1511
15507,1574
15979,1574
15979,1566
16079,1566
16079,1574
16551,1574
16614,1511
16614,986
22232,986
22231,986
21978,1155
21809,1408
21750,1706
21809,2005
21978,2257
22231,2426
22529,2486
22827,2426
23080,2257
23249,2005
23250,2003
23250,6506
22892,6506
22829,6569
22829,7656
22837,7656
22837,7756
22829,7756
22829,8844
22892,8906
23250,8906
23250,11141
22929,11141
22866,11204
22866,11656
22874,11656
22874,11756
22866,11756
22866,12209
22929,12271
23250,12271
23250,13006
22892,13006
22829,13069
22829,14156
22837,14156
22837,14256
22829,14256
22829,15344
22892,15406
23250,15406
23250,16006
22892,16006
22829,16069
22829,17156
22837,17156
22837,17256
22829,17256
22829,18344
22892,18406
23250,18406
23250,18622
22724,18622
22662,18684
22662,19156
22670,19156
22670,19256
22662,19256
22662,19728
22724,19791
23250,19791
23250,24409
23249,24408
23080,24155
22827,23986
22529,23927
22231,23986
21978,24155
21809,24408
21750,24706
21809,25005
21978,25257
22231,25426
22232,25427
1326,25427
1327,25426
1580,25257
1749,25005
1809,24706
1789,24606
3194,24606
3194,24937
3232,25029
3303,25099
3395,25137
3667,25137
3729,25075
3729,24544
3829,24544
3829,25075
3892,25137
4163,25137
4255,25099
4279,25075
4303,25099
4395,25137
4667,25137
4729,25075
4729,24544
4829,24544
4829,25075
4892,25137
5163,25137
5255,25099
5326,25029
5364,24937
5364,24606
5301,24544
4829,24544
4729,24544
3829,24544
3729,24544
3257,24544
3194,24606
1789,24606
1749,24408
1580,24155
1423,24050
3194,24050
3194,24381
3257,24444
3729,24444
3729,23912
3829,23912
3829,24444
4729,24444
4729,23912
4829,23912
4829,24444
5301,24444
5364,24381
5364,24050
5326,23958
5255,23888
5163,23850
4892,23850
4829,23912
4729,23912
4667,23850
4395,23850
4303,23888
4279,23912
4255,23888
4163,23850
3892,23850
3829,23912
3729,23912
3667,23850
3395,23850
3303,23888
3232,23958
3194,24050
1423,24050
1327,23986
1029,23927
731,23986
478,24155
309,24408
309,24409
309,23819
12098,23819
12098,24091
12136,24182
12206,24253
12298,24291
12629,24291
12692,24228
12692,23756
12792,23756
12792,24228
12854,24291
13185,24291
13277,24253
13347,24182
13385,24091
13385,23819
13323,23756
12792,23756
12692,23756
12160,23756
12098,23819
309,23819
309,2956
1681,2956
1681,2956
1681,13706
1681,13706
1703,13817
1707,13840
1762,13922
1783,13953
2431,14601
2431,14851
2380,14885
2257,15068
2214,15285
2214,15628
2257,15844
2380,16027
2563,16150
2779,16193
2995,16150
3179,16027
3279,15877
3380,16027
3563,16150
3779,16193
3995,16150
4179,16027
4279,15877
4380,16027
4563,16150
4779,16193
4995,16150
5179,16027
5278,15878
5415,16049
5609,16155
5642,16162
5729,16114
5729,15506
5829,15506
5829,16114
5916,16162
5949,16155
6143,16049
6279,15880
6415,16049
6609,16155
6642,16162
6729,16114
6729,15506
5829,15506
5729,15506
5721,15506
5721,15406
5729,15406
5729,14799
5829,14799
5829,15406
6729,15406
6729,14799
6642,14751
6609,14758
6415,14864
6279,15033
6143,14864
5949,14758
5916,14751
5829,14799
5729,14799
5642,14751
5609,14758
5415,14864
5278,15034
5179,14885
5127,14851
5127,13456
5127,13456
5101,13323
5046,13241
5025,13210
5025,13210
4590,12774
4590,6776
4635,6776
4728,6759
4813,6704
4870,6620
4890,6521
4890,5891
4873,5799
4818,5713
4734,5656
4635,5636
4590,5636
4590,5347
4791,5307
4910,5227
4946,5284
5030,5341
5129,5361
5468,5361
5468,5636
5423,5636
5330,5654
5245,5709
5188,5792
5168,5891
5168,6521
5185,6614
5240,6699
5272,6721
4783,7210
4707,7323
4707,7323
4681,7456
4681,7456
4681,12706
4681,12706
4696,12785
4707,12840
4759,12918
4783,12953
5533,13703
5533,13703
5646,13778
5668,13782
5779,13805
5779,13805
7135,13805
7431,14101
7431,14851
7380,14885
7280,15034
7143,14864
6949,14758
6916,14751
6829,14799
6829,15406
6837,15406
6837,15506
6829,15506
6829,16114
6916,16162
6949,16155
7143,16049
7280,15878
7380,16027
7563,16150
7779,16193
7995,16150
8179,16027
8279,15877
8380,16027
8563,16150
8779,16193
8995,16150
9179,16027
9217,15970
9227,16021
9281,16106
9365,16163
9464,16184
10094,16184
10187,16166
10272,16111
10329,16028
10349,15929
10349,15755
10655,15755
10689,15790
10689,16562
10707,16655
10762,16740
10845,16797
10944,16817
11614,16817
11706,16800
11791,16745
11848,16662
11869,16562
11869,15775
11851,15682
11796,15597
11713,15540
11614,15520
11266,15520
10991,15245
10894,15180
10779,15157
10349,15157
10349,14984
10331,14891
10277,14806
10193,14749
10094,14729
9464,14729
9371,14746
9286,14801
9229,14885
9217,14943
9179,14885
8995,14763
8779,14720
8563,14763
8380,14885
8279,15035
8179,14885
8127,14851
8127,13956
8127,13956
8101,13823
8089,13805
8025,13710
8025,13710
7525,13210
7504,13195
7412,13134
7390,13130
7279,13108
7279,13108
5923,13108
5377,12562
5377,7601
6063,6915
6063,6915
6138,6802
6140,6795
6144,6776
6210,6776
6303,6759
6388,6704
6439,6628
6439,7312
6455,7397
6279,7397
6161,7421
6060,7488
5560,7988
5493,8088
5493,8088
5470,8206
5470,12206
5493,12324
5560,12425
6060,12925
6161,12992
6279,13015
7651,13015
9060,14425
9161,14492
9279,14515
11651,14515
12220,15084
12220,18206
12243,18324
12310,18425
14220,20334
14220,21144
14112,21216
14029,21340
13976,21261
13976,20456
13975,20453
13942,20285
13845,20140
11864,18159
11869,18137
11869,17350
11851,17257
11796,17172
11713,17115
11614,17095
10944,17095
10852,17112
10767,17167
10710,17251
10689,17350
10689,18053
10635,18108
10309,18108
10301,18068
10179,17885
10127,17851
10127,17456
10127,17456
10101,17323
10081,17294
10025,17210
10025,17210
9525,16710
9523,16708
9412,16634
9390,16630
9279,16608
9279,16608
5212,16608
5198,16529
5143,16444
5059,16387
4960,16367
4173,16367
4080,16384
3995,16439
3938,16522
3918,16622
3918,17291
3935,17383
3990,17469
4074,17526
4173,17546
4960,17546
5053,17528
5138,17474
5195,17390
5212,17305
9135,17305
9431,17601
9431,17851
9380,17885
9279,18035
9179,17885
8995,17763
8779,17720
8563,17763
8380,17885
8279,18035
8179,17885
7995,17763
7779,17720
7563,17763
7380,17885
7280,18034
7143,17864
6949,17758
6916,17751
6829,17799
6829,18406
6837,18406
6837,18506
6829,18506
6829,19114
6916,19162
6949,19155
7143,19049
7280,18878
7380,19027
7563,19150
7779,19193
7995,19150
8179,19027
8279,18877
8380,19027
8431,19061
8431,19312
8385,19358
5529,19358
5529,19358
5418,19380
5396,19384
5283,19460
5283,19460
4533,20210
4457,20323
4457,20323
4431,20456
4431,20456
4431,21170
4362,21216
4279,21340
4196,21216
4127,21170
4127,19061
4179,19027
4279,18877
4380,19027
4563,19150
4779,19193
4995,19150
5179,19027
5278,18878
5415,19049
5609,19155
5642,19162
5729,19114
5729,18506
5829,18506
5829,19114
5916,19162
5949,19155
6143,19049
6279,18880
6415,19049
6609,19155
6642,19162
6729,19114
6729,18506
5829,18506
5729,18506
5721,18506
5721,18406
5729,18406
5729,17799
5829,17799
5829,18406
6729,18406
6729,17799
6642,17751
6609,17758
6415,17864
6279,18033
6143,17864
5949,17758
5916,17751
5829,17799
5729,17799
5642,17751
5609,17758
5415,17864
5278,18034
5179,17885
4995,17763
4779,17720
4563,17763
4380,17885
4279,18035
4179,17885
3995,17763
3779,17720
3563,17763
3380,17885
3279,18035
3179,17885
3078,17818
3078,17546
3385,17546
3478,17528
3563,17474
3620,17390
3640,17291
3640,16622
3623,16529
3568,16444
3484,16387
3385,16367
2598,16367
2505,16384
2420,16439
2363,16522
2343,16622
2343,17291
2360,17383
2415,17469
2480,17513
2480,17818
2380,17885
2257,18068
2214,18285
2214,18628
2257,18844
2380,19027
2431,19061
2431,21053
2346,21069
2261,21123
2204,21207
2184,21306
2184,22106
2202,22199
2256,22284
2340,22341
2439,22361
3119,22361
3212,22344
3297,22289
3354,22205
3357,22189
3362,22196
3431,22242
3431,22273
3352,22288
3267,22342
3210,22426
3189,22525
3189,23312
3207,23405
3262,23490
3345,23547
3444,23567
4114,23567
4206,23550
4280,23503
4345,23547
4444,23567
5114,23567
5206,23550
5291,23495
5348,23412
5369,23312
5369,22819
12098,22819
12098,23071
12136,23163
12170,23196
12136,23230
12098,23322
12098,23594
12160,23656
12692,23656
12692,22756
12792,22756
12792,23656
13323,23656
13385,23594
13385,23322
13347,23230
13314,23196
13347,23163
13385,23071
13385,22819
13323,22756
12792,22756
12692,22756
12160,22756
12098,22819
5369,22819
5369,22525
5351,22432
5296,22347
5213,22290
5127,22273
5127,22242
5196,22196
5278,22074
5424,22238
5631,22338
5638,22339
5729,22291
5729,21756
5721,21756
5721,21656
5729,21656
5729,21121
5829,21121
5829,21656
5837,21656
5837,21756
5829,21756
5829,22291
5920,22339
5927,22338
6134,22238
6280,22074
6362,22196
6553,22324
6779,22369
7005,22324
7196,22196
7279,22072
7362,22196
7553,22324
7779,22369
8005,22324
8196,22196
8279,22072
8362,22196
8553,22324
8779,22369
9005,22324
9196,22196
9324,22005
9369,21779
9369,21633
9324,21408
9223,21256
11939,21256
11939,21594
12002,21656
12479,21656
12479,21119
12417,21056
12139,21056
12047,21094
11977,21165
11939,21256
9223,21256
9196,21216
9005,21088
8779,21043
8553,21088
8362,21216
8279,21340
8196,21216
8005,21088
7779,21043
7553,21088
7362,21216
7279,21340
7196,21216
7005,21088
6779,21043
6553,21088
6362,21216
6280,21338
6134,21174
5927,21074
5920,21073
5829,21121
5729,21121
5638,21073
5631,21074
5424,21174
5278,21338
5196,21216
5127,21170
5127,20601
5673,20055
8529,20055
8529,20055
8640,20032
8662,20028
8775,19953
8775,19953
9025,19703
9025,19703
9080,19621
9101,19590
9127,19456
9127,19456
9127,19061
9179,19027
9279,18877
9380,19027
9563,19150
9779,19193
9995,19150
10179,19027
10301,18844
10309,18805
10779,18805
10779,18805
10890,18782
10912,18778
11025,18703
11084,18644
13082,20641
13082,21168
13081,21165
13011,21094
12919,21056
12642,21056
12579,21119
12579,21656
12587,21656
12587,21756
12579,21756
12579,21764
12479,21764
12479,21756
12002,21756
11939,21819
11939,22156
11977,22248
12047,22318
12099,22339
12098,22342
12098,22594
12160,22656
12692,22656
12692,22648
12792,22648
12792,22656
13323,22656
13385,22594
13385,22342
13385,22340
13529,22369
13678,22339
13668,22391
13668,23021
13685,23114
13739,23197
13688,23272
13668,23372
13668,24041
13685,24133
13740,24219
13824,24276
13923,24296
14710,24296
14803,24278
14888,24224
14945,24140
14965,24041
14965,23372
14948,23279
14894,23195
14945,23120
14965,23021
14965,22391
14948,22299
14901,22226
14946,22196
15029,22072
15112,22196
15303,22324
15529,22369
15755,22324
15946,22196
16074,22005
16119,21779
16119,21633
16074,21408
15946,21216
15877,21170
15877,20706
17885,20706
17934,20953
18074,21161
18874,21962
18874,22106
18892,22199
18946,22284
19030,22341
19129,22361
19929,22361
20022,22344
20107,22289
20146,22231
20148,22233
20378,22338
20479,22292
20479,21756
20579,21756
20579,22292
20680,22338
20910,22233
21083,22047
21161,21857
21114,21756
20579,21756
20479,21756
20471,21756
20471,21656
20479,21656
20479,21121
20579,21121
20579,21656
21114,21656
21161,21555
21083,21366
20910,21180
20680,21074
20579,21121
20479,21121
20378,21074
20148,21180
20146,21182
20112,21128
20028,21071
19929,21051
19784,21051
19173,20440
19173,18789
19124,18543
19119,18535
19119,18139
19101,18047
19046,17962
18963,17904
18864,17884
18194,17884
18102,17902
18017,17957
17960,18040
17939,18139
17939,18535
17934,18543
17885,18789
17885,20706
17885,20706
15877,20706
15877,20206
15877,20206
15851,20073
15821,20028
15775,19960
15775,19960
13884,18069
15079,18069
15079,18556
15117,18648
15187,18718
15279,18756
16167,18756
16229,18694
16229,18006
16329,18006
16329,18694
16392,18756
17279,18756
17371,18718
17441,18648
17479,18556
17479,18069
17417,18006
16329,18006
16229,18006
15142,18006
15079,18069
13884,18069
13627,17812
13627,17356
13714,17356
13714,17687
13752,17779
13822,17849
13914,17887
14167,17887
14229,17825
14229,17294
14329,17294
14329,17825
14392,17887
14644,17887
14736,17849
14806,17779
14844,17687
14844,17356
15079,17356
15079,17844
15142,17906
16229,17906
16229,17219
16329,17219
16329,17906
17417,17906
17479,17844
17479,17356
17441,17265
17371,17194
17279,17156
16392,17156
16329,17219
16229,17219
16167,17156
15279,17156
15187,17194
15117,17265
15079,17356
14844,17356
14844,17356
14781,17294
14329,17294
14229,17294
13777,17294
13714,17356
13627,17356
13627,16800
13714,16800
13714,17131
13777,17194
14229,17194
14229,16662
14329,16662
14329,17194
14781,17194
14844,17131
14844,16800
14806,16708
14736,16638
14644,16600
14392,16600
14329,16662
14229,16662
14167,16600
13914,16600
13822,16638
13752,16708
13714,16800
13627,16800
13627,15456
13635,15456
13635,15456
13635,15669
13684,15915
13709,15952
13709,16062
13727,16155
13781,16240
13865,16297
13964,16317
14594,16317
14687,16300
14772,16245
14829,16162
14849,16062
14849,15952
14874,15915
14909,15736
15074,15571
15074,16006
15092,16099
15146,16184
15230,16241
15329,16261
17229,16261
17322,16244
17407,16189
17464,16105
17484,16006
17484,14906
17466,14814
17412,14728
17328,14671
17229,14651
16384,14651
16202,14469
16251,14220
16251,14192
16196,13916
16040,13681
15805,13525
15529,13470
15253,13525
15018,13681
14862,13916
14850,13975
13824,15001
13684,15210
13635,15456
13627,15456
13627,14456
13627,14456
13601,14323
13601,14323
13525,14210
13525,14210
12377,13062
12377,12985
12458,13106
12641,13228
12857,13271
13201,13271
13417,13228
13600,13106
13634,13055
15279,13055
15279,13055
15390,13032
15412,13028
15525,12953
16488,11990
16488,11990
16564,11877
16574,11823
16580,11796
16635,11796
16728,11778
16730,11777
16730,12039
16707,12073
16681,12206
16681,13706
16681,13706
16703,13817
16707,13840
16762,13922
16783,13953
17570,14740
17570,14740
17679,14812
17683,14815
17816,14842
17816,14842
17939,14842
17939,14887
17957,14980
18012,15065
18095,15122
18194,15142
18864,15142
18890,15137
19474,15137
19474,15156
19492,15249
19546,15334
19630,15391
19729,15411
20829,15411
20922,15394
21007,15339
21064,15255
21082,15165
21082,16021
21017,16086
21012,16078
20928,16021
20829,16001
19804,16001
19696,15980
19696,15980
19119,15980
19119,15974
19101,15881
19046,15796
18963,15739
18864,15719
18194,15719
18102,15736
18017,15791
17960,15875
17939,15974
17939,16369
17934,16377
17885,16624
17934,16870
17939,16878
17939,17273
17957,17366
18012,17451
18095,17508
18194,17528
18864,17528
18956,17511
19041,17456
19098,17372
19119,17273
19119,17267
19430,17267
19474,17312
19474,18156
19492,18249
19546,18334
19630,18391
19729,18411
20147,18411
20147,18617
19797,18617
19704,18634
19619,18689
19562,18772
19542,18872
19542,19541
19559,19633
19614,19719
19698,19776
19797,19796
21096,19796
21189,19778
21274,19724
21331,19640
21351,19541
21351,19319
21712,19319
21712,19591
21750,19682
21820,19753
21912,19791
22499,19791
22562,19728
22562,19256
21775,19256
21712,19319
21351,19319
21351,18872
21341,18822
21712,18822
21712,19094
21775,19156
22562,19156
22562,18684
22499,18622
21912,18622
21820,18660
21750,18730
21712,18822
21341,18822
21333,18779
21279,18694
21195,18637
21096,18617
20746,18617
20746,18411
20829,18411
20922,18394
21007,18339
21064,18255
21084,18156
21084,17319
21979,17319
21979,18206
22017,18298
22087,18368
22179,18406
22667,18406
22729,18344
22729,17256
22042,17256
21979,17319
21084,17319
21084,17283
21845,16522
21942,16377
21944,16367
21976,16206
21979,16206
21979,17094
22042,17156
22729,17156
22729,16069
22667,16006
22179,16006
22087,16044
22017,16115
21979,16206
21976,16206
21976,16206
21976,14319
21979,14319
21979,15206
22017,15298
22087,15368
22179,15406
22667,15406
22729,15344
22729,14256
22042,14256
21979,14319
21976,14319
21976,13206
21979,13206
21979,14094
22042,14156
22729,14156
22729,13069
22667,13006
22179,13006
22087,13044
22017,13115
21979,13206
21976,13206
21976,11994
21942,11823
21939,11819
22173,11819
22173,12071
22211,12163
22281,12233
22373,12271
22704,12271
22766,12209
22766,11756
22235,11756
22173,11819
21939,11819
21890,11745
21890,11391
21881,11342
22173,11342
22173,11594
22235,11656
22766,11656
22766,11204
22704,11141
22373,11141
22281,11179
22211,11250
22173,11342
21881,11342
21873,11299
21818,11213
21734,11156
21635,11136
20848,11136
20755,11154
20670,11209
20613,11292
20593,11391
20593,11723
20557,11759
20492,11759
20394,11661
20158,11563
19902,11563
19665,11660
19566,11759
19029,11759
18858,11793
18786,11841
18713,11890
18333,12270
18194,12270
18102,12288
18017,12342
17960,12426
17939,12525
17939,13312
17957,13405
18012,13490
18095,13547
18194,13567
18864,13567
18956,13550
19041,13495
19098,13412
19119,13312
19119,12749
19214,12653
19566,12653
19664,12751
19900,12850
20156,12850
20393,12752
20492,12653
20742,12653
20913,12619
21058,12522
21082,12498
21082,13247
21066,13164
21012,13078
20928,13021
20829,13001
19729,13001
19636,13019
19551,13073
19494,13157
19474,13256
19474,13850
18888,13850
18864,13845
18194,13845
18102,13862
18017,13917
17960,14001
17939,14100
17939,14124
17377,13562
17377,12206
17351,12073
17328,12039
17328,11777
17423,11796
18210,11796
18303,11778
18388,11724
18445,11640
18465,11541
18465,11193
18604,11055
21529,11055
21662,11028
21775,10953
21851,10840
21877,10706
21851,10573
21828,10539
21828,10253
21873,10271
22204,10271
22266,10209
22266,9756
22366,9756
22366,10209
22429,10271
22760,10271
22852,10233
22922,10163
22960,10071
22960,9819
22898,9756
22366,9756
22266,9756
22259,9756
22259,9656
22266,9656
22266,9204
22366,9204
22366,9656
22898,9656
22960,9594
22960,9342
22922,9250
22852,9179
22760,9141
22429,9141
22366,9204
22266,9204
22204,9141
21873,9141
21828,9160
21828,8873
21851,8840
21877,8706
21877,7819
21979,7819
21979,8706
22017,8798
22087,8868
22179,8906
22667,8906
22729,8844
22729,7756
22042,7756
21979,7819
21877,7819
21877,6706
21979,6706
21979,7594
22042,7656
22729,7656
22729,6569
22667,6506
22179,6506
22087,6544
22017,6615
21979,6706
21877,6706
21877,5206
21851,5073
21775,4960
21775,4960
20965,4149
20965,3872
20948,3779
20893,3694
20877,3683
20877,3453
21021,3453
21114,3436
21199,3381
21256,3297
21276,3198
21276,2214
21259,2121
21204,2036
21120,1979
21021,1959
20037,1959
19944,1977
19859,2031
19802,2115
19782,2214
19782,3198
19799,3291
19854,3376
19938,3433
20037,3453
20181,3453
20181,3617
19923,3617
19830,3634
19745,3689
19688,3772
19668,3872
19668,4541
19685,4633
19740,4719
19824,4776
19923,4796
20626,4796
21181,5351
21181,8706
21207,8840
21230,8873
21230,9155
21135,9136
20673,9136
20673,9079
20603,8911
20829,8911
20922,8894
21007,8839
21064,8755
21084,8656
21084,6756
21066,6664
21012,6578
20928,6521
20829,6501
19729,6501
19636,6519
19551,6573
19494,6657
19474,6756
19474,7259
18165,7259
18165,6796
18210,6796
18303,6778
18388,6724
18445,6640
18465,6541
18465,5872
18448,5779
18393,5694
18309,5637
18210,5617
17423,5617
17330,5634
17245,5689
17188,5772
17168,5872
17168,6541
17185,6633
17240,6719
17324,6776
17423,6796
17468,6796
17468,7259
16279,7259
16108,7293
16012,7358
15963,7390
15926,7428
15915,7430
15817,7495
15783,7529
15707,7498
15775,7453
15775,7453
16432,6796
16635,6796
16728,6778
16813,6724
16870,6640
16890,6541
16890,5872
16873,5779
16818,5694
16734,5637
16635,5617
15848,5617
15755,5634
15670,5689
15613,5772
15593,5872
15593,6541
15610,6632
15385,6858
10173,6858
9981,6665
9981,6509
9963,6417
9909,6332
9825,6275
9726,6254
9332,6254
9240,6272
9154,6327
9097,6410
9077,6509
9077,6759
8976,6759
8976,6618
8908,6453
8782,6328
8618,6259
8441,6259
8276,6327
8150,6453
8082,6617
8082,6795
8150,6959
8220,7029
8220,7078
7901,7397
7601,7397
7619,7312
7619,6525
7601,6432
7546,6347
7463,6290
7384,6274
8153,5505
8529,5505
8644,5483
8741,5418
9241,4918
9305,4821
9328,4706
9328,2933
9554,2933
9517,2957
9460,3040
9439,3139
9439,4438
9457,4531
9512,4616
9595,4673
9694,4693
10364,4693
10429,4681
10783,5035
10783,5035
10896,5111
10939,5119
10939,5438
10957,5531
11012,5616
11095,5673
11194,5693
11694,5693
11670,5709
11613,5792
11593,5891
11593,6521
11610,6614
11665,6699
11749,6756
11848,6776
12635,6776
12728,6759
12813,6704
12870,6620
12890,6521
12890,5891
12873,5799
12818,5713
12734,5656
12635,5636
12590,5636
12590,5347
12791,5307
12910,5227
12946,5284
13030,5341
13129,5361
13468,5361
13468,5636
13423,5636
13330,5654
13245,5709
13188,5792
13168,5891
13168,6521
13185,6614
13240,6699
13324,6756
13423,6776
14210,6776
14303,6759
14388,6704
14445,6620
14465,6521
14465,5891
14448,5799
14393,5713
14363,5693
14864,5693
14956,5676
15041,5621
15098,5538
15119,5438
15119,5137
15446,5137
15446,5137
15558,5115
15580,5111
15693,5035
15693,5035
16035,4693
16364,4693
16456,4676
16541,4621
16598,4538
16619,4438
16619,4319
18098,4319
18098,4591
18136,4682
18206,4753
18298,4791
18629,4791
18692,4728
18692,4256
18792,4256
18792,4728
18854,4791
19185,4791
19277,4753
19347,4682
19385,4591
19385,4319
19323,4256
18792,4256
18692,4256
18160,4256
18098,4319
16619,4319
16619,3822
18098,3822
18098,4094
18160,4156
18692,4156
18692,3684
18792,3684
18792,4156
19323,4156
19385,4094
19385,3822
19347,3730
19277,3660
19185,3622
18854,3622
18792,3684
18692,3684
18629,3622
18298,3622
18206,3660
18136,3730
18098,3822
16619,3822
16619,3231
18106,3231
18157,3346
18433,3452
18728,3444
18964,3346
19015,3231
18561,2777
18106,3231
16619,3231
16619,3139
16601,3047
16546,2962
16463,2904
16364,2884
15694,2884
15602,2902
15517,2957
15460,3040
15439,3139
15439,4303
15302,4440
15119,4440
15119,4139
15101,4047
15046,3962
14963,3904
14864,3884
14194,3884
14102,3902
14017,3957
13960,4040
13956,4057
13929,4051
13129,4051
13036,4069
12951,4123
12909,4185
12791,4106
12542,4056
12516,4056
12268,4106
12119,4205
12119,4139
12101,4047
12046,3962
11963,3904
11864,3884
11194,3884
11102,3902
11017,3957
10960,4040
10939,4139
10939,4193
10619,3873
10619,3139
10601,3047
10546,2962
10504,2933
10939,2933
10939,3273
10957,3366
11012,3451
11095,3508
11194,3528
11864,3528
11956,3511
12041,3456
12098,3372
12119,3273
12119,2933
13939,2933
13939,3273
13957,3366
14012,3451
14095,3508
14194,3528
14864,3528
14956,3511
15041,3456
15098,3372
15119,3273
15119,2579
17815,2579
17823,2874
17920,3110
18036,3160
18490,2706
18631,2706
19085,3160
19201,3110
19306,2834
19298,2539
19201,2303
19085,2252
18631,2706
18490,2706
18036,2252
17920,2303
17815,2579
15119,2579
15119,1974
15101,1881
15046,1796
14963,1739
14948,1736
15444,1736
15444,2323
15482,2415
15553,2485
15645,2523
15917,2523
15979,2461
15979,1674
16079,1674
16079,2461
16142,2523
16413,2523
16505,2485
16576,2415
16614,2323
16614,2181
18106,2181
18561,2635
19015,2181
18964,2066
18688,1960
18393,1968
18157,2066
18106,2181
16614,2181
16614,1736
16551,1674
16079,1674
15979,1674
15507,1674
15444,1736
14948,1736
14864,1719
14194,1719
14102,1736
14017,1791
13960,1875
13939,1974
13939,2314
12119,2314
12119,1974
12101,1881
12046,1796
11963,1739
11864,1719
11194,1719
11102,1736
11017,1791
10960,1875
10939,1974
10939,2314
10614,2314
10614,1736
10551,1674
10079,1674
10079,1681
9979,1681
9979,1674
9507,1674
9444,1736
9444,2314
8614,2314
8614,1736
8551,1674
8079,1674
8079,1681
7979,1681
7979,1674
7507,1674
7444,1736
7444,2314
7119,2314
7119,1974
7101,1881
7046,1796
6963,1739
6864,1719
6194,1719
6102,1736
6017,1791
5960,1875
5939,1974
5939,2314
5114,2314
5114,1736
5051,1674
4579,1674
4579,1681
4479,1681
4479,1674
4007,1674
3944,1736
3944,2314
3619,2314
3619,1974
3601,1881
3546,1796
3463,1739
3364,1719
2694,1719
2602,1736
2517,1791
2460,1875
2439,1974
2439,2275
2362,2275
2228,2302
2115,2377
2115,2377
1783,2710
1707,2823
1705,2835
1681,2956
309,2956
309,2003
309,2005
478,2257
731,2426
1029,2486
1327,2426
1580,2257
1749,2005
1809,1706
1749,1408
1580,1155
1327,986
1326,986
3944,986
3944,1511
" /> 
<polyline style="fill-rule:evenodd;"
points="15120,7593
14917,7796
14807,8062
14806,8349
14916,8615
15119,8818
15385,8929
15672,8929
15938,8819
16141,8616
16240,8377
16464,8153
19474,8153
19474,8656
19492,8749
19525,8800
19484,8841
19386,9078
19385,9334
19483,9570
19664,9751
19900,9850
20041,9850
20093,9902
20093,10021
20110,10114
20165,10199
20249,10256
20348,10276
21135,10276
21228,10259
21230,10257
21230,10358
18316,10358
18316,10358
18183,10384
18070,10460
18070,10460
17913,10617
17423,10617
17330,10634
17316,10643
17305,10592
17305,10592
17241,10495
16359,9613
16351,9573
16275,9460
16162,9384
16029,9358
13665,9358
13665,8776
13710,8776
13803,8759
13888,8704
13945,8620
13965,8521
13965,7891
13948,7799
13893,7713
13809,7656
13710,7636
12923,7636
12830,7654
12745,7709
12688,7792
12668,7891
12668,8521
12685,8614
12740,8699
12824,8756
12923,8776
12968,8776
12968,9141
12857,9141
12641,9184
12458,9307
12335,9490
12292,9706
12335,9922
12458,10106
12608,10206
12458,10307
12335,10490
12292,10706
12335,10922
12458,11106
12608,11206
12458,11307
12408,11382
12396,11384
12283,11460
12283,11460
11783,11960
11707,12073
11707,12073
11681,12206
11681,12206
11681,13206
11681,13206
11702,13312
11707,13340
11751,13405
11783,13453
12931,14601
12931,17956
12931,17956
12946,18035
12957,18090
12994,18145
13033,18203
15181,20351
15181,21170
15112,21216
15029,21340
14946,21216
14838,21144
14838,20206
14815,20088
14748,19988
12838,18078
12838,14956
12815,14838
12748,14738
11998,13988
11897,13921
11779,13897
9407,13897
8354,12844
9324,12844
9330,12876
9437,13070
9609,13209
9822,13271
9979,13271
9979,12756
10079,12756
10079,13271
10237,13271
10449,13209
10621,13070
10728,12876
10735,12844
10686,12756
10079,12756
9979,12756
9372,12756
9324,12844
8354,12844
7998,12488
7897,12421
7779,12397
6407,12397
6088,12078
6088,8334
6407,8015
6457,8015
6439,8100
6439,8887
6457,8980
6512,9065
6595,9122
6681,9139
6681,9706
6681,9706
6703,9817
6707,9840
6732,9877
6783,9953
7783,10953
7783,10953
7862,11005
7896,11028
8029,11055
9424,11055
9458,11106
9608,11206
9458,11307
9335,11490
9292,11706
9335,11922
9458,12106
9607,12205
9437,12342
9330,12536
9324,12569
9372,12656
9979,12656
9979,12648
10079,12648
10079,12656
10686,12656
10735,12569
10728,12536
10621,12342
10451,12205
10600,12106
10714,11936
10741,11918
11241,11418
11305,11321
11328,11206
11328,9206
11305,9092
11305,9092
11241,8995
10828,8582
10828,8319
11098,8319
11098,8571
11136,8663
11206,8733
11298,8771
11629,8771
11692,8709
11692,8256
11792,8256
11792,8709
11854,8771
12185,8771
12277,8733
12347,8663
12385,8571
12385,8319
12323,8256
11792,8256
11692,8256
11160,8256
11098,8319
10828,8319
10828,7842
11098,7842
11098,8094
11160,8156
11692,8156
11692,7704
11792,7704
11792,8156
12323,8156
12385,8094
12385,7842
12347,7750
12277,7679
12185,7641
11854,7641
11792,7704
11692,7704
11629,7641
11298,7641
11206,7679
11136,7750
11098,7842
10828,7842
10828,7555
15214,7555
15120,7593
" /> 
</g>
<g style="fill:#FFFFFF; fill-opacity:1.0; 
stroke:#FFFFFF; stroke-width:100; stroke-opacity:1; 
stroke-linecap:round; stroke-linejoin:round;">
</g>
<g style="fill:#FFFFFF; fill-opacity:1.0; 
stroke:#FFFFFF; stroke-width:0; stroke-opacity:1; 
stroke-linecap:round; stroke-linejoin:round;">
<circle cx="20029.5" cy="12206.7" r="197" /> 
</g>
<g style="fill:#FFFFFF; fill-opacity:1.0; 
stroke:#FFFFFF; stroke-width:39.3701; stroke-opacity:1; 
stroke-linecap:round; stroke-linejoin:round;">
</g>
<g style="fill:#FFFFFF; fill-opacity:1.0; 
stroke:#FFFFFF; stroke-width:0; stroke-opacity:1; 
stroke-linecap:round; stroke-linejoin:round;">
<circle cx="20029.5" cy="9206.69" r="197" /> 
</g>
<g style="fill:#FFFFFF; fill-opacity:1.0; 
stroke:#FFFFFF; stroke-width:39.3701; stroke-opacity:1; 
stroke-linecap:round; stroke-linejoin:round;">
</g>
<g style="fill:#FFFFFF; fill-opacity:1.0; 
stroke:#FFFFFF; stroke-width:0; stroke-opacity:1; 
stroke-linecap:round; stroke-linejoin:round;">
<circle cx="9779.53" cy="15456.7" r="157.48" /> 
</g>
<g style="fill:#FFFFFF; fill-opacity:1.0; 
stroke:#FFFFFF; stroke-width:39.3701; stroke-opacity:1; 
stroke-linecap:round; stroke-linejoin:round;">
</g>
<g style="fill:#FFFFFF; fill-opacity:1.0; 
stroke:#FFFFFF; stroke-width:0; stroke-opacity:1; 
stroke-linecap:round; stroke-linejoin:round;">
<circle cx="2779.53" cy="18456.7" r="157.48" /> 
</g>
<g style="fill:#FFFFFF; fill-opacity:1.0; 
stroke:#FFFFFF; stroke-width:39.3701; stroke-opacity:1; 
stroke-linecap:round; stroke-linejoin:round;">
</g>
<g style="fill:#FFFFFF; fill-opacity:1.0; 
stroke:#FFFFFF; stroke-width:0; stroke-opacity:1; 
stroke-linecap:round; stroke-linejoin:round;">
<circle cx="8779.53" cy="15456.7" r="157.48" /> 
</g>
<g style="fill:#FFFFFF; fill-opacity:1.0; 
stroke:#FFFFFF; stroke-width:39.3701; stroke-opacity:1; 
stroke-linecap:round; stroke-linejoin:round;">
</g>
<g style="fill:#FFFFFF; fill-opacity:1.0; 
stroke:#FFFFFF; stroke-width:0; stroke-opacity:1; 
stroke-linecap:round; stroke-linejoin:round;">
<circle cx="3779.53" cy="18456.7" r="157.48" /> 
</g>
<g style="fill:#FFFFFF; fill-opacity:1.0; 
stroke:#FFFFFF; stroke-width:39.3701; stroke-opacity:1; 
stroke-linecap:round; stroke-linejoin:round;">
</g>
<g style="fill:#FFFFFF; fill-opacity:1.0; 
stroke:#FFFFFF; stroke-width:0; stroke-opacity:1; 
stroke-linecap:round; stroke-linejoin:round;">
<circle cx="7779.53" cy="15456.7" r="157.48" /> 
</g>
<g style="fill:#FFFFFF; fill-opacity:1.0; 
stroke:#FFFFFF; stroke-width:39.3701; stroke-opacity:1; 
stroke-linecap:round; stroke-linejoin:round;">
</g>
<g style="fill:#FFFFFF; fill-opacity:1.0; 
stroke:#FFFFFF; stroke-width:0; stroke-opacity:1; 
stroke-linecap:round; stroke-linejoin:round;">
<circle cx="4779.53" cy="18456.7" r="157.48" /> 
</g>
<g style="fill:#FFFFFF; fill-opacity:1.0; 
stroke:#FFFFFF; stroke-width:39.3701; stroke-opacity:1; 
stroke-linecap:round; stroke-linejoin:round;">
</g>
<g style="fill:#FFFFFF; fill-opacity:1.0; 
stroke:#FFFFFF; stroke-width:0; stroke-opacity:1; 
stroke-linecap:round; stroke-linejoin:round;">
<circle cx="6779.53" cy="15456.7" r="157.48" /> 
</g>
<g style="fill:#FFFFFF; fill-opacity:1.0; 
stroke:#FFFFFF; stroke-width:39.3701; stroke-opacity:1; 
stroke-linecap:round; stroke-linejoin:round;">
</g>
<g style="fill:#FFFFFF; fill-opacity:1.0; 
stroke:#FFFFFF; stroke-width:0; stroke-opacity:1; 
stroke-linecap:round; stroke-linejoin:round;">
<circle cx="5779.53" cy="18456.7" r="157.48" /> 
</g>
<g style="fill:#FFFFFF; fill-opacity:1.0; 
stroke:#FFFFFF; stroke-width:39.3701; stroke-opacity:1; 
stroke-linecap:round; stroke-linejoin:round;">
</g>
<g style="fill:#FFFFFF; fill-opacity:1.0; 
stroke:#FFFFFF; stroke-width:0; stroke-opacity:1; 
stroke-linecap:round; stroke-linejoin:round;">
<circle cx="5779.53" cy="15456.7" r="157.48" /> 
</g>
<g style="fill:#FFFFFF; fill-opacity:1.0; 
stroke:#FFFFFF; stroke-width:39.3701; stroke-opacity:1; 
stroke-linecap:round; stroke-linejoin:round;">
</g>
<g style="fill:#FFFFFF; fill-opacity:1.0; 
stroke:#FFFFFF; stroke-width:0; stroke-opacity:1; 
stroke-linecap:round; stroke-linejoin:round;">
<circle cx="6779.53" cy="18456.7" r="157.48" /> 
</g>
<g style="fill:#FFFFFF; fill-opacity:1.0; 
stroke:#FFFFFF; stroke-width:39.3701; stroke-opacity:1; 
stroke-linecap:round; stroke-linejoin:round;">
</g>
<g style="fill:#FFFFFF; fill-opacity:1.0; 
stroke:#FFFFFF; stroke-width:0; stroke-opacity:1; 
stroke-linecap:round; stroke-linejoin:round;">
<circle cx="4779.53" cy="15456.7" r="157.48" /> 
</g>
<g style="fill:#FFFFFF; fill-opacity:1.0; 
stroke:#FFFFFF; stroke-width:39.3701; stroke-opacity:1; 
stroke-linecap:round; stroke-linejoin:round;">
</g>
<g style="fill:#FFFFFF; fill-opacity:1.0; 
stroke:#FFFFFF; stroke-width:0; stroke-opacity:1; 
stroke-linecap:round; stroke-linejoin:round;">
<circle cx="7779.53" cy="18456.7" r="157.48" /> 
</g>
<g style="fill:#FFFFFF; fill-opacity:1.0; 
stroke:#FFFFFF; stroke-width:39.3701; stroke-opacity:1; 
stroke-linecap:round; stroke-linejoin:round;">
</g>
<g style="fill:#FFFFFF; fill-opacity:1.0; 
stroke:#FFFFFF; stroke-width:0; stroke-opacity:1; 
stroke-linecap:round; stroke-linejoin:round;">
<circle cx="3779.53" cy="15456.7" r="157.48" /> 
</g>
<g style="fill:#FFFFFF; fill-opacity:1.0; 
stroke:#FFFFFF; stroke-width:39.3701; stroke-opacity:1; 
stroke-linecap:round; stroke-linejoin:round;">
</g>
<g style="fill:#FFFFFF; fill-opacity:1.0; 
stroke:#FFFFFF; stroke-width:0; stroke-opacity:1; 
stroke-linecap:round; stroke-linejoin:round;">
<circle cx="8779.53" cy="18456.7" r="157.48" /> 
</g>
<g style="fill:#FFFFFF; fill-opacity:1.0; 
stroke:#FFFFFF; stroke-width:39.3701; stroke-opacity:1; 
stroke-linecap:round; stroke-linejoin:round;">
</g>
<g style="fill:#FFFFFF; fill-opacity:1.0; 
stroke:#FFFFFF; stroke-width:0; stroke-opacity:1; 
stroke-linecap:round; stroke-linejoin:round;">
<circle cx="2779.53" cy="15456.7" r="157.48" /> 
</g>
<g style="fill:#FFFFFF; fill-opacity:1.0; 
stroke:#FFFFFF; stroke-width:39.3701; stroke-opacity:1; 
stroke-linecap:round; stroke-linejoin:round;">
</g>
<g style="fill:#FFFFFF; fill-opacity:1.0; 
stroke:#FFFFFF; stroke-width:0; stroke-opacity:1; 
stroke-linecap:round; stroke-linejoin:round;">
<circle cx="9779.53" cy="18456.7" r="157.48" /> 
</g>
<g style="fill:#FFFFFF; fill-opacity:1.0; 
stroke:#FFFFFF; stroke-width:39.3701; stroke-opacity:1; 
stroke-linecap:round; stroke-linejoin:round;">
</g>
<g style="fill:#FFFFFF; fill-opacity:1.0; 
stroke:#FFFFFF; stroke-width:0; stroke-opacity:1; 
stroke-linecap:round; stroke-linejoin:round;">
<circle cx="20529.5" cy="2706.69" r="255.906" /> 
</g>
<g style="fill:#FFFFFF; fill-opacity:1.0; 
stroke:#FFFFFF; stroke-width:39.3701; stroke-opacity:1; 
stroke-linecap:round; stroke-linejoin:round;">
</g>
<g style="fill:#FFFFFF; fill-opacity:1.0; 
stroke:#FFFFFF; stroke-width:0; stroke-opacity:1; 
stroke-linecap:round; stroke-linejoin:round;">
<circle cx="18561" cy="2706.69" r="255.906" /> 
</g>
<g style="fill:#FFFFFF; fill-opacity:1.0; 
stroke:#FFFFFF; stroke-width:39.3701; stroke-opacity:1; 
stroke-linecap:round; stroke-linejoin:round;">
</g>
<g style="fill:#FFFFFF; fill-opacity:1.0; 
stroke:#FFFFFF; stroke-width:0; stroke-opacity:1; 
stroke-linecap:round; stroke-linejoin:round;">
<circle cx="2779.53" cy="21706.7" r="200" /> 
</g>
<g style="fill:#FFFFFF; fill-opacity:1.0; 
stroke:#FFFFFF; stroke-width:39.3701; stroke-opacity:1; 
stroke-linecap:round; stroke-linejoin:round;">
</g>
<g style="fill:#FFFFFF; fill-opacity:1.0; 
stroke:#FFFFFF; stroke-width:0; stroke-opacity:1; 
stroke-linecap:round; stroke-linejoin:round;">
<circle cx="3779.53" cy="21706.7" r="200" /> 
</g>
<g style="fill:#FFFFFF; fill-opacity:1.0; 
stroke:#FFFFFF; stroke-width:39.3701; stroke-opacity:1; 
stroke-linecap:round; stroke-linejoin:round;">
</g>
<g style="fill:#FFFFFF; fill-opacity:1.0; 
stroke:#FFFFFF; stroke-width:0; stroke-opacity:1; 
stroke-linecap:round; stroke-linejoin:round;">
<circle cx="4779.53" cy="21706.7" r="200" /> 
</g>
<g style="fill:#FFFFFF; fill-opacity:1.0; 
stroke:#FFFFFF; stroke-width:39.3701; stroke-opacity:1; 
stroke-linecap:round; stroke-linejoin:round;">
</g>
<g style="fill:#FFFFFF; fill-opacity:1.0; 
stroke:#FFFFFF; stroke-width:0; stroke-opacity:1; 
stroke-linecap:round; stroke-linejoin:round;">
<circle cx="5779.53" cy="21706.7" r="200" /> 
</g>
<g style="fill:#FFFFFF; fill-opacity:1.0; 
stroke:#FFFFFF; stroke-width:39.3701; stroke-opacity:1; 
stroke-linecap:round; stroke-linejoin:round;">
</g>
<g style="fill:#FFFFFF; fill-opacity:1.0; 
stroke:#FFFFFF; stroke-width:0; stroke-opacity:1; 
stroke-linecap:round; stroke-linejoin:round;">
<circle cx="6779.53" cy="21706.7" r="200" /> 
</g>
<g style="fill:#FFFFFF; fill-opacity:1.0; 
stroke:#FFFFFF; stroke-width:39.3701; stroke-opacity:1; 
stroke-linecap:round; stroke-linejoin:round;">
</g>
<g style="fill:#FFFFFF; fill-opacity:1.0; 
stroke:#FFFFFF; stroke-width:0; stroke-opacity:1; 
stroke-linecap:round; stroke-linejoin:round;">
<circle cx="7779.53" cy="21706.7" r="200" /> 
</g>
<g style="fill:#FFFFFF; fill-opacity:1.0; 
stroke:#FFFFFF; stroke-width:39.3701; stroke-opacity:1; 
stroke-linecap:round; stroke-linejoin:round;">
</g>
<g style="fill:#FFFFFF; fill-opacity:1.0; 
stroke:#FFFFFF; stroke-width:0; stroke-opacity:1; 
stroke-linecap:round; stroke-linejoin:round;">
<circle cx="8779.53" cy="21706.7" r="200" /> 
</g>
<g style="fill:#FFFFFF; fill-opacity:1.0; 
stroke:#FFFFFF; stroke-width:39.3701; stroke-opacity:1; 
stroke-linecap:round; stroke-linejoin:round;">
</g>
<g style="fill:#FFFFFF; fill-opacity:1.0; 
stroke:#FFFFFF; stroke-width:0; stroke-opacity:1; 
stroke-linecap:round; stroke-linejoin:round;">
<circle cx="5529.53" cy="4706.69" r="200" /> 
</g>
<g style="fill:#FFFFFF; fill-opacity:1.0; 
stroke:#FFFFFF; stroke-width:39.3701; stroke-opacity:1; 
stroke-linecap:round; stroke-linejoin:round;">
</g>
<g style="fill:#FFFFFF; fill-opacity:1.0; 
stroke:#FFFFFF; stroke-width:0; stroke-opacity:1; 
stroke-linecap:round; stroke-linejoin:round;">
<circle cx="4529.53" cy="4706.69" r="200" /> 
</g>
<g style="fill:#FFFFFF; fill-opacity:1.0; 
stroke:#FFFFFF; stroke-width:39.3701; stroke-opacity:1; 
stroke-linecap:round; stroke-linejoin:round;">
</g>
<g style="fill:#FFFFFF; fill-opacity:1.0; 
stroke:#FFFFFF; stroke-width:0; stroke-opacity:1; 
stroke-linecap:round; stroke-linejoin:round;">
<circle cx="13529.5" cy="4706.69" r="200" /> 
</g>
<g style="fill:#FFFFFF; fill-opacity:1.0; 
stroke:#FFFFFF; stroke-width:39.3701; stroke-opacity:1; 
stroke-linecap:round; stroke-linejoin:round;">
</g>
<g style="fill:#FFFFFF; fill-opacity:1.0; 
stroke:#FFFFFF; stroke-width:0; stroke-opacity:1; 
stroke-linecap:round; stroke-linejoin:round;">
<circle cx="12529.5" cy="4706.69" r="200" /> 
</g>
<g style="fill:#FFFFFF; fill-opacity:1.0; 
stroke:#FFFFFF; stroke-width:39.3701; stroke-opacity:1; 
stroke-linecap:round; stroke-linejoin:round;">
</g>
<g style="fill:#FFFFFF; fill-opacity:1.0; 
stroke:#FFFFFF; stroke-width:0; stroke-opacity:1; 
stroke-linecap:round; stroke-linejoin:round;">
<circle cx="12529.5" cy="21706.7" r="200" /> 
</g>
<g style="fill:#FFFFFF; fill-opacity:1.0; 
stroke:#FFFFFF; stroke-width:39.3701; stroke-opacity:1; 
stroke-linecap:round; stroke-linejoin:round;">
</g>
<g style="fill:#FFFFFF; fill-opacity:1.0; 
stroke:#FFFFFF; stroke-width:0; stroke-opacity:1; 
stroke-linecap:round; stroke-linejoin:round;">
<circle cx="13529.5" cy="21706.7" r="200" /> 
</g>
<g style="fill:#FFFFFF; fill-opacity:1.0; 
stroke:#FFFFFF; stroke-width:39.3701; stroke-opacity:1; 
stroke-linecap:round; stroke-linejoin:round;">
</g>
<g style="fill:#FFFFFF; fill-opacity:1.0; 
stroke:#FFFFFF; stroke-width:0; stroke-opacity:1; 
stroke-linecap:round; stroke-linejoin:round;">
<circle cx="14529.5" cy="21706.7" r="200" /> 
</g>
<g style="fill:#FFFFFF; fill-opacity:1.0; 
stroke:#FFFFFF; stroke-width:39.3701; stroke-opacity:1; 
stroke-linecap:round; stroke-linejoin:round;">
</g>
<g style="fill:#FFFFFF; fill-opacity:1.0; 
stroke:#FFFFFF; stroke-width:0; stroke-opacity:1; 
stroke-linecap:round; stroke-linejoin:round;">
<circle cx="15529.5" cy="21706.7" r="200" /> 
</g>
<g style="fill:#FFFFFF; fill-opacity:1.0; 
stroke:#FFFFFF; stroke-width:39.3701; stroke-opacity:1; 
stroke-linecap:round; stroke-linejoin:round;">
</g>
<g style="fill:#FFFFFF; fill-opacity:1.0; 
stroke:#FFFFFF; stroke-width:0; stroke-opacity:1; 
stroke-linecap:round; stroke-linejoin:round;">
<circle cx="19529.5" cy="21706.7" r="200" /> 
</g>
<g style="fill:#FFFFFF; fill-opacity:1.0; 
stroke:#FFFFFF; stroke-width:39.3701; stroke-opacity:1; 
stroke-linecap:round; stroke-linejoin:round;">
</g>
<g style="fill:#FFFFFF; fill-opacity:1.0; 
stroke:#FFFFFF; stroke-width:0; stroke-opacity:1; 
stroke-linecap:round; stroke-linejoin:round;">
<circle cx="20529.5" cy="21706.7" r="200" /> 
</g>
<g style="fill:#FFFFFF; fill-opacity:1.0; 
stroke:#FFFFFF; stroke-width:39.3701; stroke-opacity:1; 
stroke-linecap:round; stroke-linejoin:round;">
</g>
<g style="fill:#FFFFFF; fill-opacity:1.0; 
stroke:#FFFFFF; stroke-width:0; stroke-opacity:1; 
stroke-linecap:round; stroke-linejoin:round;">
<circle cx="9029.53" cy="7206.69" r="118.11" /> 
</g>
<g style="fill:#FFFFFF; fill-opacity:1.0; 
stroke:#FFFFFF; stroke-width:39.3701; stroke-opacity:1; 
stroke-linecap:round; stroke-linejoin:round;">
</g>
<g style="fill:#FFFFFF; fill-opacity:1.0; 
stroke:#FFFFFF; stroke-width:0; stroke-opacity:1; 
stroke-linecap:round; stroke-linejoin:round;">
<circle cx="8529.53" cy="6706.69" r="118.11" /> 
</g>
<g style="fill:#FFFFFF; fill-opacity:1.0; 
stroke:#FFFFFF; stroke-width:39.3701; stroke-opacity:1; 
stroke-linecap:round; stroke-linejoin:round;">
</g>
<g style="fill:#FFFFFF; fill-opacity:1.0; 
stroke:#FFFFFF; stroke-width:0; stroke-opacity:1; 
stroke-linecap:round; stroke-linejoin:round;">
<circle cx="9529.53" cy="6706.69" r="118.11" /> 
</g>
<g style="fill:#FFFFFF; fill-opacity:1.0; 
stroke:#FFFFFF; stroke-width:39.3701; stroke-opacity:1; 
stroke-linecap:round; stroke-linejoin:round;">
</g>
<g style="fill:#FFFFFF; fill-opacity:1.0; 
stroke:#FFFFFF; stroke-width:0; stroke-opacity:1; 
stroke-linecap:round; stroke-linejoin:round;">
<circle cx="15529.5" cy="8206.69" r="236.22" /> 
</g>
<g style="fill:#FFFFFF; fill-opacity:1.0; 
stroke:#FFFFFF; stroke-width:39.3701; stroke-opacity:1; 
stroke-linecap:round; stroke-linejoin:round;">
</g>
<g style="fill:#FFFFFF; fill-opacity:1.0; 
stroke:#FFFFFF; stroke-width:0; stroke-opacity:1; 
stroke-linecap:round; stroke-linejoin:round;">
<circle cx="15529.5" cy="14206.7" r="236.22" /> 
</g>
<g style="fill:#FFFFFF; fill-opacity:1.0; 
stroke:#FFFFFF; stroke-width:39.3701; stroke-opacity:1; 
stroke-linecap:round; stroke-linejoin:round;">
</g>
<g style="fill:#FFFFFF; fill-opacity:1.0; 
stroke:#FFFFFF; stroke-width:0; stroke-opacity:1; 
stroke-linecap:round; stroke-linejoin:round;">
<circle cx="10029.5" cy="9706.69" r="157.48" /> 
</g>
<g style="fill:#FFFFFF; fill-opacity:1.0; 
stroke:#FFFFFF; stroke-width:39.3701; stroke-opacity:1; 
stroke-linecap:round; stroke-linejoin:round;">
</g>
<g style="fill:#FFFFFF; fill-opacity:1.0; 
stroke:#FFFFFF; stroke-width:0; stroke-opacity:1; 
stroke-linecap:round; stroke-linejoin:round;">
<circle cx="13029.5" cy="12706.7" r="157.48" /> 
</g>
<g style="fill:#FFFFFF; fill-opacity:1.0; 
stroke:#FFFFFF; stroke-width:39.3701; stroke-opacity:1; 
stroke-linecap:round; stroke-linejoin:round;">
</g>
<g style="fill:#FFFFFF; fill-opacity:1.0; 
stroke:#FFFFFF; stroke-width:0; stroke-opacity:1; 
stroke-linecap:round; stroke-linejoin:round;">
<circle cx="10029.5" cy="10706.7" r="157.48" /> 
</g>
<g style="fill:#FFFFFF; fill-opacity:1.0; 
stroke:#FFFFFF; stroke-width:39.3701; stroke-opacity:1; 
stroke-linecap:round; stroke-linejoin:round;">
</g>
<g style="fill:#FFFFFF; fill-opacity:1.0; 
stroke:#FFFFFF; stroke-width:0; stroke-opacity:1; 
stroke-linecap:round; stroke-linejoin:round;">
<circle cx="13029.5" cy="11706.7" r="157.48" /> 
</g>
<g style="fill:#FFFFFF; fill-opacity:1.0; 
stroke:#FFFFFF; stroke-width:39.3701; stroke-opacity:1; 
stroke-linecap:round; stroke-linejoin:round;">
</g>
<g style="fill:#FFFFFF; fill-opacity:1.0; 
stroke:#FFFFFF; stroke-width:0; stroke-opacity:1; 
stroke-linecap:round; stroke-linejoin:round;">
<circle cx="10029.5" cy="11706.7" r="157.48" /> 
</g>
<g style="fill:#FFFFFF; fill-opacity:1.0; 
stroke:#FFFFFF; stroke-width:39.3701; stroke-opacity:1; 
stroke-linecap:round; stroke-linejoin:round;">
</g>
<g style="fill:#FFFFFF; fill-opacity:1.0; 
stroke:#FFFFFF; stroke-width:0; stroke-opacity:1; 
stroke-linecap:round; stroke-linejoin:round;">
<circle cx="13029.5" cy="10706.7" r="157.48" /> 
</g>
<g style="fill:#FFFFFF; fill-opacity:1.0; 
stroke:#FFFFFF; stroke-width:39.3701; stroke-opacity:1; 
stroke-linecap:round; stroke-linejoin:round;">
</g>
<g style="fill:#FFFFFF; fill-opacity:1.0; 
stroke:#FFFFFF; stroke-width:0; stroke-opacity:1; 
stroke-linecap:round; stroke-linejoin:round;">
<circle cx="10029.5" cy="12706.7" r="157.48" /> 
</g>
<g style="fill:#FFFFFF; fill-opacity:1.0; 
stroke:#FFFFFF; stroke-width:39.3701; stroke-opacity:1; 
stroke-linecap:round; stroke-linejoin:round;">
</g>
<g style="fill:#FFFFFF; fill-opacity:1.0; 
stroke:#FFFFFF; stroke-width:0; stroke-opacity:1; 
stroke-linecap:round; stroke-linejoin:round;">
<circle cx="13029.5" cy="9706.69" r="157.48" /> 
</g>
<g style="fill:#FFFFFF; fill-opacity:1.0; 
stroke:#FFFFFF; stroke-width:39.3701; stroke-opacity:1; 
stroke-linecap:round; stroke-linejoin:round;">
</g>
<g style="fill:#000000; fill-opacity:1.0; 
stroke:#000000; stroke-width:39.3701; stroke-opacity:1; 
stroke-linecap:round; stroke-linejoin:round;">
</g>
<g style="fill:#000000; fill-opacity:1.0; 
stroke:#000000; stroke-width:59.0551; stroke-opacity:1; 
stroke-linecap:round; stroke-linejoin:round;">
</g>
<g style="fill:#000000; fill-opacity:0.0; 
stroke:#000000; stroke-width:59.0551; stroke-opacity:1; 
stroke-linecap:round; stroke-linejoin:round;">
<circle cx="1029.53" cy="1706.69" r="500" /> 
<circle cx="22529.5" cy="1706.69" r="500" /> 
<circle cx="1029.53" cy="24706.7" r="500" /> 
<path d="M29 25706
L23529 25706
" />
<path d="M29 706
L29 25706
" />
<path d="M23529 706
L29 706
" />
<circle cx="22529.5" cy="24706.7" r="500" /> 
<path d="M23529 706
L23529 25706
" />
</g> 
</svg>
