M48
;DRILL file {KiCad 4.0.7} date 04/11/18 16:34:33
;FORMAT={-:-/ absolute / inch / decimal}
FMAT,2
INCH,TZ
T1C0.016
T2C0.031
T3C0.039
T4C0.052
%
G90
G05
M72
T1
X5.05Y-4.475
X5.175Y-4.575
X5.325Y-4.825
X5.325Y-4.875
X5.45Y-4.5
X5.825Y-4.025
X5.825Y-4.875
X6.025Y-4.5
T2
X4.8Y-3.7
X4.8Y-3.8
X4.8Y-3.9
X4.8Y-4.
X4.8Y-4.2
X4.8Y-4.3
X4.8Y-4.4
X5.1Y-3.4
X5.1Y-3.7
X5.1Y-3.8
X5.1Y-3.9
X5.1Y-4.
X5.2Y-3.4
X5.3Y-3.4
T3
X4.8Y-4.7
X5.Y-4.375
X5.6Y-4.625
X5.6Y-4.875
X5.7Y-4.15
X5.75Y-4.4
X5.85Y-4.4
X5.95Y-4.4
X6.15Y-4.4
T4
X6.1Y-3.725
X6.1Y-3.9219
X6.1Y-4.1187
T0
M30
