%TF.GenerationSoftware,KiCad,Pcbnew,4.0.7*%
%TF.CreationDate,2018-04-11T16:34:22+03:00*%
%TF.ProjectId,capacity_sensor,63617061636974795F73656E736F722E,rev?*%
%TF.FileFunction,Soldermask,Top*%
%FSLAX46Y46*%
G04 Gerber Fmt 4.6, Leading zero omitted, Abs format (unit mm)*
G04 Created by KiCad (PCBNEW 4.0.7) date 04/11/18 16:34:22*
%MOMM*%
%LPD*%
G01*
G04 APERTURE LIST*
%ADD10C,0.100000*%
%ADD11R,1.500000X1.250000*%
%ADD12R,3.200000X2.500000*%
%ADD13R,2.000000X1.700000*%
%ADD14R,1.600000X1.000000*%
%ADD15R,1.700000X1.700000*%
%ADD16O,1.700000X1.700000*%
%ADD17R,3.960000X1.980000*%
%ADD18O,3.960000X1.980000*%
%ADD19R,1.300000X1.500000*%
%ADD20R,1.500000X1.300000*%
%ADD21C,1.440000*%
%ADD22R,1.600000X1.600000*%
%ADD23O,1.600000X1.600000*%
%ADD24R,1.500000X0.600000*%
%ADD25R,0.800000X1.900000*%
G04 APERTURE END LIST*
D10*
X119380000Y-129540000D02*
X119380000Y-83820000D01*
X161290000Y-129540000D02*
X119380000Y-129540000D01*
X161290000Y-83820000D02*
X161290000Y-129540000D01*
X119380000Y-83820000D02*
X161290000Y-83820000D01*
X159276051Y-125730000D02*
G75*
G03X159276051Y-125730000I-1796051J0D01*
G01*
X124986051Y-125730000D02*
G75*
G03X124986051Y-125730000I-1796051J0D01*
G01*
X159276051Y-87630000D02*
G75*
G03X159276051Y-87630000I-1796051J0D01*
G01*
X124986051Y-87630000D02*
G75*
G03X124986051Y-87630000I-1796051J0D01*
G01*
D11*
X134600000Y-110490000D03*
X132100000Y-110490000D03*
X134600000Y-112395000D03*
X132100000Y-112395000D03*
D12*
X132960000Y-106680000D03*
X128660000Y-106680000D03*
D13*
X140875000Y-88900000D03*
X144875000Y-88900000D03*
D14*
X144780000Y-96750000D03*
X144780000Y-93750000D03*
X144780000Y-98830000D03*
X144780000Y-101830000D03*
D13*
X140875000Y-86360000D03*
X144875000Y-86360000D03*
D15*
X127000000Y-111125000D03*
X121920000Y-119380000D03*
X142240000Y-123825000D03*
X142240000Y-117475000D03*
X151130000Y-111760000D03*
D16*
X148590000Y-111760000D03*
X146050000Y-111760000D03*
D15*
X144780000Y-105410000D03*
D17*
X154940000Y-94615000D03*
D18*
X154940000Y-99615000D03*
X154940000Y-104615000D03*
D15*
X156210000Y-111760000D03*
D19*
X130175000Y-123270000D03*
X130175000Y-120570000D03*
X154305000Y-116760000D03*
X154305000Y-119460000D03*
D20*
X137080000Y-107315000D03*
X139780000Y-107315000D03*
X137080000Y-104140000D03*
X139780000Y-104140000D03*
X143590000Y-91440000D03*
X140890000Y-91440000D03*
D19*
X138430000Y-91520000D03*
X138430000Y-88820000D03*
D21*
X134620000Y-86360000D03*
X132080000Y-86360000D03*
X129540000Y-86360000D03*
X121920000Y-111760000D03*
X121920000Y-109220000D03*
X121920000Y-106680000D03*
D22*
X121920000Y-93980000D03*
D23*
X129540000Y-101600000D03*
X121920000Y-96520000D03*
X129540000Y-99060000D03*
X121920000Y-99060000D03*
X129540000Y-96520000D03*
X121920000Y-101600000D03*
X129540000Y-93980000D03*
D24*
X133190000Y-116205000D03*
X133190000Y-117475000D03*
X133190000Y-118745000D03*
X133190000Y-120015000D03*
X133190000Y-121285000D03*
X133190000Y-122555000D03*
X133190000Y-123825000D03*
X138590000Y-123825000D03*
X138590000Y-122555000D03*
X138590000Y-121285000D03*
X138590000Y-120015000D03*
X138590000Y-118745000D03*
X138590000Y-117475000D03*
X138590000Y-116205000D03*
X145890000Y-116205000D03*
X145890000Y-117475000D03*
X145890000Y-118745000D03*
X145890000Y-120015000D03*
X145890000Y-121285000D03*
X145890000Y-122555000D03*
X145890000Y-123825000D03*
X151290000Y-123825000D03*
X151290000Y-122555000D03*
X151290000Y-121285000D03*
X151290000Y-120015000D03*
X151290000Y-118745000D03*
X151290000Y-117475000D03*
X151290000Y-116205000D03*
D25*
X137480000Y-97385000D03*
X139380000Y-97385000D03*
X138430000Y-94385000D03*
M02*
