<?xml version="1.0" standalone="no"?>
 <!DOCTYPE svg PUBLIC "-//W3C//DTD SVG 1.1//EN" 
 "http://www.w3.org/Graphics/SVG/1.1/DTD/svg11.dtd"> 
<svg
  xmlns:svg="http://www.w3.org/2000/svg"
  xmlns="http://www.w3.org/2000/svg"
  xmlns:xlink="http://www.w3.org/1999/xlink"
  version="1.1"
  width="12.707620cm" height="3.568700cm" viewBox="0 0 127076200 35687000">
<title>SVG Picture created as TapeDelay_Controls-F_Silkscreen.svg date 2023/09/01 14:02:21 </title>
  <desc>Picture generated by PCBNEW </desc>
<g style="fill:#000000; fill-opacity:1.000000;stroke:#000000; stroke-opacity:1.000000;
stroke-linecap:round; stroke-linejoin:round;"
 transform="translate(0 0) scale(1 1)">
</g>
<g style="fill:#000000; fill-opacity:0.0; 
stroke:#000000; stroke-width:0.000000; stroke-opacity:1; 
stroke-linecap:round; stroke-linejoin:round;">
</g>
<g style="fill:#008484; fill-opacity:0.0; 
stroke:#008484; stroke-width:0.000000; stroke-opacity:1; 
stroke-linecap:round; stroke-linejoin:round;">
</g>
<g style="fill:#008484; fill-opacity:0.0; 
stroke:#008484; stroke-width:150000.000000; stroke-opacity:1; 
stroke-linecap:round; stroke-linejoin:round;">
<path d="M59730000 75000
L97195000 75000
" />
<path d="M97195000 75000
L97195000 35635000
" />
<path d="M97195000 35635000
L59730000 35635000
" />
<path d="M59730000 35635000
L59730000 75000
" />
<text x="100370000.000000" y="3325000.000000"
textLength="1909286.000000" font-size="1333333.000000" lengthAdjust="spacingAndGlyphs"
text-anchor="middle" opacity="0">J1</text>
<g class="stroked-text"><desc>J1</desc>
<path d="M100036666 2277380
L100036666 2991666
L99989047 3134523
L99893809 3229761
L99750952 3277380
L99655714 3277380
" />
<path d="M101036666 3277380
L100465238 3277380
" />
<path d="M100750952 3277380
L100750952 2277380
L100655714 2420238
L100560476 2515476
L100465238 2563095
" />
</g><g transform="rotate(-90.000000 97830000.000000 8965000.000000)">
<text x="97830000.000000" y="9465000.000000"
textLength="13623571.000000" font-size="1333333.000000" lengthAdjust="spacingAndGlyphs"
text-anchor="middle" opacity="0">Encoder/Interrupt</text>
</g>
<g class="stroked-text"><desc>Encoder/Interrupt</desc>
<path d="M97758571 15441190
L97758571 15107857
" />
<path d="M98282380 14965000
L98282380 15441190
L97282380 15441190
L97282380 14965000
" />
<path d="M97615714 14536428
L98282380 14536428
" />
<path d="M97710952 14536428
L97663333 14488809
L97615714 14393571
L97615714 14250714
L97663333 14155476
L97758571 14107857
L98282380 14107857
" />
<path d="M98234761 13203095
L98282380 13298333
L98282380 13488809
L98234761 13584047
L98187142 13631666
L98091904 13679285
L97806190 13679285
L97710952 13631666
L97663333 13584047
L97615714 13488809
L97615714 13298333
L97663333 13203095
" />
<path d="M98282380 12631666
L98234761 12726904
L98187142 12774523
L98091904 12822142
L97806190 12822142
L97710952 12774523
L97663333 12726904
L97615714 12631666
L97615714 12488809
L97663333 12393571
L97710952 12345952
L97806190 12298333
L98091904 12298333
L98187142 12345952
L98234761 12393571
L98282380 12488809
L98282380 12631666
" />
<path d="M98282380 11441190
L97282380 11441190
" />
<path d="M98234761 11441190
L98282380 11536428
L98282380 11726904
L98234761 11822142
L98187142 11869761
L98091904 11917380
L97806190 11917380
L97710952 11869761
L97663333 11822142
L97615714 11726904
L97615714 11536428
L97663333 11441190
" />
<path d="M98234761 10584047
L98282380 10679285
L98282380 10869761
L98234761 10965000
L98139523 11012619
L97758571 11012619
L97663333 10965000
L97615714 10869761
L97615714 10679285
L97663333 10584047
L97758571 10536428
L97853809 10536428
L97949047 11012619
" />
<path d="M98282380 10107857
L97615714 10107857
" />
<path d="M97806190 10107857
L97710952 10060238
L97663333 10012619
L97615714 9917380
L97615714 9822142
" />
<path d="M97234761 8774523
L98520476 9631666
" />
<path d="M98282380 8441190
L97282380 8441190
" />
<path d="M97615714 7965000
L98282380 7965000
" />
<path d="M97710952 7965000
L97663333 7917380
L97615714 7822142
L97615714 7679285
L97663333 7584047
L97758571 7536428
L98282380 7536428
" />
<path d="M97615714 7203095
L97615714 6822142
" />
<path d="M97282380 7060238
L98139523 7060238
L98234761 7012619
L98282380 6917380
L98282380 6822142
" />
<path d="M98234761 6107857
L98282380 6203095
L98282380 6393571
L98234761 6488809
L98139523 6536428
L97758571 6536428
L97663333 6488809
L97615714 6393571
L97615714 6203095
L97663333 6107857
L97758571 6060238
L97853809 6060238
L97949047 6536428
" />
<path d="M98282380 5631666
L97615714 5631666
" />
<path d="M97806190 5631666
L97710952 5584047
L97663333 5536428
L97615714 5441190
L97615714 5345952
" />
<path d="M98282380 5012619
L97615714 5012619
" />
<path d="M97806190 5012619
L97710952 4965000
L97663333 4917380
L97615714 4822142
L97615714 4726904
" />
<path d="M97615714 3965000
L98282380 3965000
" />
<path d="M97615714 4393571
L98139523 4393571
L98234761 4345952
L98282380 4250714
L98282380 4107857
L98234761 4012619
L98187142 3965000
" />
<path d="M97615714 3488809
L98615714 3488809
" />
<path d="M97663333 3488809
L97615714 3393571
L97615714 3203095
L97663333 3107857
L97710952 3060238
L97806190 3012619
L98091904 3012619
L98187142 3060238
L98234761 3107857
L98282380 3203095
L98282380 3393571
L98234761 3488809
" />
<path d="M97615714 2726904
L97615714 2345952
" />
<path d="M97282380 2584047
L98139523 2584047
L98234761 2536428
L98282380 2441190
L98282380 2345952
" />
</g><text x="16475000.000000" y="32130000.000000"
textLength="3242619.000000" font-size="1333333.000000" lengthAdjust="spacingAndGlyphs"
text-anchor="middle" opacity="0">SW1</text>
<g class="stroked-text"><desc>SW1</desc>
<path d="M15141666 32034761
L15284523 32082380
L15522619 32082380
L15617857 32034761
L15665476 31987142
L15713095 31891904
L15713095 31796666
L15665476 31701428
L15617857 31653809
L15522619 31606190
L15332142 31558571
L15236904 31510952
L15189285 31463333
L15141666 31368095
L15141666 31272857
L15189285 31177619
L15236904 31130000
L15332142 31082380
L15570238 31082380
L15713095 31130000
" />
<path d="M16046428 31082380
L16284523 32082380
L16475000 31368095
L16665476 32082380
L16903571 31082380
" />
<path d="M17808333 32082380
L17236904 32082380
" />
<path d="M17522619 32082380
L17522619 31082380
L17427380 31225238
L17332142 31320476
L17236904 31368095
" />
</g><text x="15975000.000000" y="23430000.000000"
textLength="8528333.000000" font-size="1333333.000000" lengthAdjust="spacingAndGlyphs"
text-anchor="middle" opacity="0">Run/Pause</text>
<g class="stroked-text"><desc>Run/Pause</desc>
<path d="M12617857 23382380
L12284523 22906190
" />
<path d="M12046428 23382380
L12046428 22382380
L12427380 22382380
L12522619 22430000
L12570238 22477619
L12617857 22572857
L12617857 22715714
L12570238 22810952
L12522619 22858571
L12427380 22906190
L12046428 22906190
" />
<path d="M13475000 22715714
L13475000 23382380
" />
<path d="M13046428 22715714
L13046428 23239523
L13094047 23334761
L13189285 23382380
L13332142 23382380
L13427380 23334761
L13475000 23287142
" />
<path d="M13951190 22715714
L13951190 23382380
" />
<path d="M13951190 22810952
L13998809 22763333
L14094047 22715714
L14236904 22715714
L14332142 22763333
L14379761 22858571
L14379761 23382380
" />
<path d="M15570238 22334761
L14713095 23620476
" />
<path d="M15903571 23382380
L15903571 22382380
L16284523 22382380
L16379761 22430000
L16427380 22477619
L16475000 22572857
L16475000 22715714
L16427380 22810952
L16379761 22858571
L16284523 22906190
L15903571 22906190
" />
<path d="M17332142 23382380
L17332142 22858571
L17284523 22763333
L17189285 22715714
L16998809 22715714
L16903571 22763333
" />
<path d="M17332142 23334761
L17236904 23382380
L16998809 23382380
L16903571 23334761
L16855952 23239523
L16855952 23144285
L16903571 23049047
L16998809 23001428
L17236904 23001428
L17332142 22953809
" />
<path d="M18236904 22715714
L18236904 23382380
" />
<path d="M17808333 22715714
L17808333 23239523
L17855952 23334761
L17951190 23382380
L18094047 23382380
L18189285 23334761
L18236904 23287142
" />
<path d="M18665476 23334761
L18760714 23382380
L18951190 23382380
L19046428 23334761
L19094047 23239523
L19094047 23191904
L19046428 23096666
L18951190 23049047
L18808333 23049047
L18713095 23001428
L18665476 22906190
L18665476 22858571
L18713095 22763333
L18808333 22715714
L18951190 22715714
L19046428 22763333
" />
<path d="M19903571 23334761
L19808333 23382380
L19617857 23382380
L19522619 23334761
L19475000 23239523
L19475000 22858571
L19522619 22763333
L19617857 22715714
L19808333 22715714
L19903571 22763333
L19951190 22858571
L19951190 22953809
L19475000 23049047
" />
</g><text x="117130000.000000" y="18355000.000000"
textLength="3242619.000000" font-size="1333333.000000" lengthAdjust="spacingAndGlyphs"
text-anchor="middle" opacity="0">SW3</text>
<g class="stroked-text"><desc>SW3</desc>
<path d="M115796666 18259761
L115939523 18307380
L116177619 18307380
L116272857 18259761
L116320476 18212142
L116368095 18116904
L116368095 18021666
L116320476 17926428
L116272857 17878809
L116177619 17831190
L115987142 17783571
L115891904 17735952
L115844285 17688333
L115796666 17593095
L115796666 17497857
L115844285 17402619
L115891904 17355000
L115987142 17307380
L116225238 17307380
L116368095 17355000
" />
<path d="M116701428 17307380
L116939523 18307380
L117130000 17593095
L117320476 18307380
L117558571 17307380
" />
<path d="M117844285 17307380
L118463333 17307380
L118130000 17688333
L118272857 17688333
L118368095 17735952
L118415714 17783571
L118463333 17878809
L118463333 18116904
L118415714 18212142
L118368095 18259761
L118272857 18307380
L117987142 18307380
L117891904 18259761
L117844285 18212142
" />
</g><text x="7090000.000000" y="9465000.000000"
textLength="2147381.000000" font-size="1333333.000000" lengthAdjust="spacingAndGlyphs"
text-anchor="middle" opacity="0">D2</text>
<g class="stroked-text"><desc>D2</desc>
<path d="M6351904 9417380
L6351904 8417380
L6590000 8417380
L6732857 8465000
L6828095 8560238
L6875714 8655476
L6923333 8845952
L6923333 8988809
L6875714 9179285
L6828095 9274523
L6732857 9369761
L6590000 9417380
L6351904 9417380
" />
<path d="M7304285 8512619
L7351904 8465000
L7447142 8417380
L7685238 8417380
L7780476 8465000
L7828095 8512619
L7875714 8607857
L7875714 8703095
L7828095 8845952
L7256666 9417380
L7875714 9417380
" />
</g><text x="3215000.000000" y="13695000.000000"
textLength="3528333.000000" font-size="1333333.000000" lengthAdjust="spacingAndGlyphs"
text-anchor="middle" opacity="0">Stop</text>
<g class="stroked-text"><desc>Stop</desc>
<path d="M1738809 13599761
L1881666 13647380
L2119761 13647380
L2215000 13599761
L2262619 13552142
L2310238 13456904
L2310238 13361666
L2262619 13266428
L2215000 13218809
L2119761 13171190
L1929285 13123571
L1834047 13075952
L1786428 13028333
L1738809 12933095
L1738809 12837857
L1786428 12742619
L1834047 12695000
L1929285 12647380
L2167380 12647380
L2310238 12695000
" />
<path d="M2595952 12980714
L2976904 12980714
" />
<path d="M2738809 12647380
L2738809 13504523
L2786428 13599761
L2881666 13647380
L2976904 13647380
" />
<path d="M3453095 13647380
L3357857 13599761
L3310238 13552142
L3262619 13456904
L3262619 13171190
L3310238 13075952
L3357857 13028333
L3453095 12980714
L3595952 12980714
L3691190 13028333
L3738809 13075952
L3786428 13171190
L3786428 13456904
L3738809 13552142
L3691190 13599761
L3595952 13647380
L3453095 13647380
" />
<path d="M4215000 12980714
L4215000 13980714
" />
<path d="M4215000 13028333
L4310238 12980714
L4500714 12980714
L4595952 13028333
L4643571 13075952
L4691190 13171190
L4691190 13456904
L4643571 13552142
L4595952 13599761
L4500714 13647380
L4310238 13647380
L4215000 13599761
" />
</g><text x="123230000.000000" y="32325000.000000"
textLength="2195000.000000" font-size="1333333.000000" lengthAdjust="spacingAndGlyphs"
text-anchor="middle" opacity="0">H4</text>
<g class="stroked-text"><desc>H4</desc>
<path d="M122468095 32277380
L122468095 31277380
" />
<path d="M122468095 31753571
L123039523 31753571
" />
<path d="M123039523 32277380
L123039523 31277380
" />
<path d="M123944285 31610714
L123944285 32277380
" />
<path d="M123706190 31229761
L123468095 31944047
L124087142 31944047
" />
</g><text x="112435000.000000" y="23630000.000000"
textLength="3242619.000000" font-size="1333333.000000" lengthAdjust="spacingAndGlyphs"
text-anchor="middle" opacity="0">SW4</text>
<g class="stroked-text"><desc>SW4</desc>
<path d="M111101666 23534761
L111244523 23582380
L111482619 23582380
L111577857 23534761
L111625476 23487142
L111673095 23391904
L111673095 23296666
L111625476 23201428
L111577857 23153809
L111482619 23106190
L111292142 23058571
L111196904 23010952
L111149285 22963333
L111101666 22868095
L111101666 22772857
L111149285 22677619
L111196904 22630000
L111292142 22582380
L111530238 22582380
L111673095 22630000
" />
<path d="M112006428 22582380
L112244523 23582380
L112435000 22868095
L112625476 23582380
L112863571 22582380
" />
<path d="M113673095 22915714
L113673095 23582380
" />
<path d="M113435000 22534761
L113196904 23249047
L113815952 23249047
" />
</g><text x="110455000.000000" y="32960000.000000"
textLength="5433095.000000" font-size="1333333.000000" lengthAdjust="spacingAndGlyphs"
text-anchor="middle" opacity="0">Escape</text>
<g class="stroked-text"><desc>Escape</desc>
<path d="M108074047 32388571
L108407380 32388571
" />
<path d="M108550238 32912380
L108074047 32912380
L108074047 31912380
L108550238 31912380
" />
<path d="M108931190 32864761
L109026428 32912380
L109216904 32912380
L109312142 32864761
L109359761 32769523
L109359761 32721904
L109312142 32626666
L109216904 32579047
L109074047 32579047
L108978809 32531428
L108931190 32436190
L108931190 32388571
L108978809 32293333
L109074047 32245714
L109216904 32245714
L109312142 32293333
" />
<path d="M110216904 32864761
L110121666 32912380
L109931190 32912380
L109835952 32864761
L109788333 32817142
L109740714 32721904
L109740714 32436190
L109788333 32340952
L109835952 32293333
L109931190 32245714
L110121666 32245714
L110216904 32293333
" />
<path d="M111074047 32912380
L111074047 32388571
L111026428 32293333
L110931190 32245714
L110740714 32245714
L110645476 32293333
" />
<path d="M111074047 32864761
L110978809 32912380
L110740714 32912380
L110645476 32864761
L110597857 32769523
L110597857 32674285
L110645476 32579047
L110740714 32531428
L110978809 32531428
L111074047 32483809
" />
<path d="M111550238 32245714
L111550238 33245714
" />
<path d="M111550238 32293333
L111645476 32245714
L111835952 32245714
L111931190 32293333
L111978809 32340952
L112026428 32436190
L112026428 32721904
L111978809 32817142
L111931190 32864761
L111835952 32912380
L111645476 32912380
L111550238 32864761
" />
<path d="M112835952 32864761
L112740714 32912380
L112550238 32912380
L112455000 32864761
L112407380 32769523
L112407380 32388571
L112455000 32293333
L112550238 32245714
L112740714 32245714
L112835952 32293333
L112883571 32388571
L112883571 32483809
L112407380 32579047
" />
</g><g transform="rotate(-90.000000 58460000.000000 21665000.000000)">
<text x="58460000.000000" y="22165000.000000"
textLength="2147381.000000" font-size="1333333.000000" lengthAdjust="spacingAndGlyphs"
text-anchor="middle" opacity="0">C3</text>
</g>
<g class="stroked-text"><desc>C3</desc>
<path d="M58817142 21831666
L58864761 21879285
L58912380 22022142
L58912380 22117380
L58864761 22260238
L58769523 22355476
L58674285 22403095
L58483809 22450714
L58340952 22450714
L58150476 22403095
L58055238 22355476
L57960000 22260238
L57912380 22117380
L57912380 22022142
L57960000 21879285
L58007619 21831666
" />
<path d="M57912380 21498333
L57912380 20879285
L58293333 21212619
L58293333 21069761
L58340952 20974523
L58388571 20926904
L58483809 20879285
L58721904 20879285
L58817142 20926904
L58864761 20974523
L58912380 21069761
L58912380 21355476
L58864761 21450714
L58817142 21498333
" />
</g><g transform="rotate(-90.000000 58460000.000000 17220000.000000)">
<text x="58460000.000000" y="17720000.000000"
textLength="3528333.000000" font-size="1333333.000000" lengthAdjust="spacingAndGlyphs"
text-anchor="middle" opacity="0">47,0</text>
</g>
<g class="stroked-text"><desc>47,0</desc>
<path d="M58245714 18220000
L58912380 18220000
" />
<path d="M57864761 18458095
L58579047 18696190
L58579047 18077142
" />
<path d="M57912380 17791428
L57912380 17124761
L58912380 17553333
" />
<path d="M58864761 16696190
L58912380 16696190
L59007619 16743809
L59055238 16791428
" />
<path d="M57912380 16077142
L57912380 15981904
L57960000 15886666
L58007619 15839047
L58102857 15791428
L58293333 15743809
L58531428 15743809
L58721904 15791428
L58817142 15839047
L58864761 15886666
L58912380 15981904
L58912380 16077142
L58864761 16172380
L58817142 16220000
L58721904 16267619
L58531428 16315238
L58293333 16315238
L58102857 16267619
L58007619 16220000
L57960000 16172380
L57912380 16077142
" />
</g><g transform="rotate(-90.000000 72015000.000000 2615000.000000)">
<text x="72015000.000000" y="3115000.000000"
textLength="1909286.000000" font-size="1333333.000000" lengthAdjust="spacingAndGlyphs"
text-anchor="middle" opacity="0">J4</text>
</g>
<g class="stroked-text"><desc>J4</desc>
<path d="M71467380 2948333
L72181666 2948333
L72324523 2995952
L72419761 3091190
L72467380 3234047
L72467380 3329285
" />
<path d="M71800714 2043571
L72467380 2043571
" />
<path d="M71419761 2281666
L72134047 2519761
L72134047 1900714
" />
</g><text x="81320000.000000" y="5655000.000000"
textLength="3956905.000000" font-size="1333333.000000" lengthAdjust="spacingAndGlyphs"
text-anchor="middle" opacity="0">OLED</text>
<g class="stroked-text"><desc>OLED</desc>
<path d="M79867619 4607380
L80058095 4607380
L80153333 4655000
L80248571 4750238
L80296190 4940714
L80296190 5274047
L80248571 5464523
L80153333 5559761
L80058095 5607380
L79867619 5607380
L79772380 5559761
L79677142 5464523
L79629523 5274047
L79629523 4940714
L79677142 4750238
L79772380 4655000
L79867619 4607380
" />
<path d="M81200952 5607380
L80724761 5607380
L80724761 4607380
" />
<path d="M81534285 5083571
L81867619 5083571
" />
<path d="M82010476 5607380
L81534285 5607380
L81534285 4607380
L82010476 4607380
" />
<path d="M82439047 5607380
L82439047 4607380
L82677142 4607380
L82820000 4655000
L82915238 4750238
L82962857 4845476
L83010476 5035952
L83010476 5178809
L82962857 5369285
L82915238 5464523
L82820000 5559761
L82677142 5607380
L82439047 5607380
" />
</g><text x="29875000.000000" y="7775000.000000"
textLength="2147381.000000" font-size="1333333.000000" lengthAdjust="spacingAndGlyphs"
text-anchor="middle" opacity="0">D1</text>
<g class="stroked-text"><desc>D1</desc>
<path d="M29136904 7727380
L29136904 6727380
L29375000 6727380
L29517857 6775000
L29613095 6870238
L29660714 6965476
L29708333 7155952
L29708333 7298809
L29660714 7489285
L29613095 7584523
L29517857 7679761
L29375000 7727380
L29136904 7727380
" />
<path d="M30660714 7727380
L30089285 7727380
" />
<path d="M30375000 7727380
L30375000 6727380
L30279761 6870238
L30184523 6965476
L30089285 7013095
" />
</g><text x="29875000.000000" y="13695000.000000"
textLength="9195000.000000" font-size="1333333.000000" lengthAdjust="spacingAndGlyphs"
text-anchor="middle" opacity="0">Power/Load</text>
<g class="stroked-text"><desc>Power/Load</desc>
<path d="M25613095 13647380
L25613095 12647380
L25994047 12647380
L26089285 12695000
L26136904 12742619
L26184523 12837857
L26184523 12980714
L26136904 13075952
L26089285 13123571
L25994047 13171190
L25613095 13171190
" />
<path d="M26755952 13647380
L26660714 13599761
L26613095 13552142
L26565476 13456904
L26565476 13171190
L26613095 13075952
L26660714 13028333
L26755952 12980714
L26898809 12980714
L26994047 13028333
L27041666 13075952
L27089285 13171190
L27089285 13456904
L27041666 13552142
L26994047 13599761
L26898809 13647380
L26755952 13647380
" />
<path d="M27422619 12980714
L27613095 13647380
L27803571 13171190
L27994047 13647380
L28184523 12980714
" />
<path d="M28946428 13599761
L28851190 13647380
L28660714 13647380
L28565476 13599761
L28517857 13504523
L28517857 13123571
L28565476 13028333
L28660714 12980714
L28851190 12980714
L28946428 13028333
L28994047 13123571
L28994047 13218809
L28517857 13314047
" />
<path d="M29422619 13647380
L29422619 12980714
" />
<path d="M29422619 13171190
L29470238 13075952
L29517857 13028333
L29613095 12980714
L29708333 12980714
" />
<path d="M30755952 12599761
L29898809 13885476
" />
<path d="M31565476 13647380
L31089285 13647380
L31089285 12647380
" />
<path d="M32041666 13647380
L31946428 13599761
L31898809 13552142
L31851190 13456904
L31851190 13171190
L31898809 13075952
L31946428 13028333
L32041666 12980714
L32184523 12980714
L32279761 13028333
L32327380 13075952
L32375000 13171190
L32375000 13456904
L32327380 13552142
L32279761 13599761
L32184523 13647380
L32041666 13647380
" />
<path d="M33232142 13647380
L33232142 13123571
L33184523 13028333
L33089285 12980714
L32898809 12980714
L32803571 13028333
" />
<path d="M33232142 13599761
L33136904 13647380
L32898809 13647380
L32803571 13599761
L32755952 13504523
L32755952 13409285
L32803571 13314047
L32898809 13266428
L33136904 13266428
L33232142 13218809
" />
<path d="M34136904 13647380
L34136904 12647380
" />
<path d="M34136904 13599761
L34041666 13647380
L33851190 13647380
L33755952 13599761
L33708333 13552142
L33660714 13456904
L33660714 13171190
L33708333 13075952
L33755952 13028333
L33851190 12980714
L34041666 12980714
L34136904 13028333
" />
</g><text x="20310000.000000" y="9468616.000000"
textLength="2147381.000000" font-size="1333333.000000" lengthAdjust="spacingAndGlyphs"
text-anchor="middle" opacity="0">D3</text>
<g class="stroked-text"><desc>D3</desc>
<path d="M19571904 9420996
L19571904 8420996
L19810000 8420996
L19952857 8468616
L20048095 8563854
L20095714 8659092
L20143333 8849568
L20143333 8992425
L20095714 9182901
L20048095 9278139
L19952857 9373377
L19810000 9420996
L19571904 9420996
" />
<path d="M20476666 8420996
L21095714 8420996
L20762380 8801949
L20905238 8801949
L21000476 8849568
L21048095 8897187
L21095714 8992425
L21095714 9230520
L21048095 9325758
L21000476 9373377
L20905238 9420996
L20619523 9420996
L20524285 9373377
L20476666 9325758
" />
</g><text x="18390000.000000" y="13698616.000000"
textLength="3004524.000000" font-size="1333333.000000" lengthAdjust="spacingAndGlyphs"
text-anchor="middle" opacity="0">Run</text>
<g class="stroked-text"><desc>Run</desc>
<path d="M17794761 13650996
L17461428 13174806
" />
<path d="M17223333 13650996
L17223333 12650996
L17604285 12650996
L17699523 12698616
L17747142 12746235
L17794761 12841473
L17794761 12984330
L17747142 13079568
L17699523 13127187
L17604285 13174806
L17223333 13174806
" />
<path d="M18651904 12984330
L18651904 13650996
" />
<path d="M18223333 12984330
L18223333 13508139
L18270952 13603377
L18366190 13650996
L18509047 13650996
L18604285 13603377
L18651904 13555758
" />
<path d="M19128095 12984330
L19128095 13650996
" />
<path d="M19128095 13079568
L19175714 13031949
L19270952 12984330
L19413809 12984330
L19509047 13031949
L19556666 13127187
L19556666 13650996
" />
</g><text x="29885000.000000" y="32130000.000000"
textLength="3242619.000000" font-size="1333333.000000" lengthAdjust="spacingAndGlyphs"
text-anchor="middle" opacity="0">SW2</text>
<g class="stroked-text"><desc>SW2</desc>
<path d="M28551666 32034761
L28694523 32082380
L28932619 32082380
L29027857 32034761
L29075476 31987142
L29123095 31891904
L29123095 31796666
L29075476 31701428
L29027857 31653809
L28932619 31606190
L28742142 31558571
L28646904 31510952
L28599285 31463333
L28551666 31368095
L28551666 31272857
L28599285 31177619
L28646904 31130000
L28742142 31082380
L28980238 31082380
L29123095 31130000
" />
<path d="M29456428 31082380
L29694523 32082380
L29885000 31368095
L30075476 32082380
L30313571 31082380
" />
<path d="M30646904 31177619
L30694523 31130000
L30789761 31082380
L31027857 31082380
L31123095 31130000
L31170714 31177619
L31218333 31272857
L31218333 31368095
L31170714 31510952
L30599285 32082380
L31218333 32082380
" />
</g><text x="29385000.000000" y="23430000.000000"
textLength="5385476.000000" font-size="1333333.000000" lengthAdjust="spacingAndGlyphs"
text-anchor="middle" opacity="0">Unload</text>
<g class="stroked-text"><desc>Unload</desc>
<path d="M27027857 22382380
L27027857 23191904
L27075476 23287142
L27123095 23334761
L27218333 23382380
L27408809 23382380
L27504047 23334761
L27551666 23287142
L27599285 23191904
L27599285 22382380
" />
<path d="M28075476 22715714
L28075476 23382380
" />
<path d="M28075476 22810952
L28123095 22763333
L28218333 22715714
L28361190 22715714
L28456428 22763333
L28504047 22858571
L28504047 23382380
" />
<path d="M29123095 23382380
L29027857 23334761
L28980238 23239523
L28980238 22382380
" />
<path d="M29646904 23382380
L29551666 23334761
L29504047 23287142
L29456428 23191904
L29456428 22906190
L29504047 22810952
L29551666 22763333
L29646904 22715714
L29789761 22715714
L29885000 22763333
L29932619 22810952
L29980238 22906190
L29980238 23191904
L29932619 23287142
L29885000 23334761
L29789761 23382380
L29646904 23382380
" />
<path d="M30837380 23382380
L30837380 22858571
L30789761 22763333
L30694523 22715714
L30504047 22715714
L30408809 22763333
" />
<path d="M30837380 23334761
L30742142 23382380
L30504047 23382380
L30408809 23334761
L30361190 23239523
L30361190 23144285
L30408809 23049047
L30504047 23001428
L30742142 23001428
L30837380 22953809
" />
<path d="M31742142 23382380
L31742142 22382380
" />
<path d="M31742142 23334761
L31646904 23382380
L31456428 23382380
L31361190 23334761
L31313571 23287142
L31265952 23191904
L31265952 22906190
L31313571 22810952
L31361190 22763333
L31456428 22715714
L31646904 22715714
L31742142 22763333
" />
</g><g transform="rotate(-90.000000 42585000.000000 19760000.000000)">
<text x="42585000.000000" y="20260000.000000"
textLength="2195000.000000" font-size="1333333.000000" lengthAdjust="spacingAndGlyphs"
text-anchor="middle" opacity="0">U1</text>
</g>
<g class="stroked-text"><desc>U1</desc>
<path d="M42037380 20521904
L42846904 20521904
L42942142 20474285
L42989761 20426666
L43037380 20331428
L43037380 20140952
L42989761 20045714
L42942142 19998095
L42846904 19950476
L42037380 19950476
" />
<path d="M43037380 18950476
L43037380 19521904
" />
<path d="M43037380 19236190
L42037380 19236190
L42180238 19331428
L42275476 19426666
L42323095 19521904
" />
</g><g transform="rotate(-90.000000 37505000.000000 18490000.000000)">
<text x="37505000.000000" y="18990000.000000"
textLength="6861667.000000" font-size="1333333.000000" lengthAdjust="spacingAndGlyphs"
text-anchor="middle" opacity="0">PCF8574</text>
</g>
<g class="stroked-text"><desc>PCF8574</desc>
<path d="M37957380 21585238
L36957380 21585238
L36957380 21204285
L37005000 21109047
L37052619 21061428
L37147857 21013809
L37290714 21013809
L37385952 21061428
L37433571 21109047
L37481190 21204285
L37481190 21585238
" />
<path d="M37862142 20013809
L37909761 20061428
L37957380 20204285
L37957380 20299523
L37909761 20442380
L37814523 20537619
L37719285 20585238
L37528809 20632857
L37385952 20632857
L37195476 20585238
L37100238 20537619
L37005000 20442380
L36957380 20299523
L36957380 20204285
L37005000 20061428
L37052619 20013809
" />
<path d="M37433571 19251904
L37433571 19585238
" />
<path d="M37957380 19585238
L36957380 19585238
L36957380 19109047
" />
<path d="M37385952 18585238
L37338333 18680476
L37290714 18728095
L37195476 18775714
L37147857 18775714
L37052619 18728095
L37005000 18680476
L36957380 18585238
L36957380 18394761
L37005000 18299523
L37052619 18251904
L37147857 18204285
L37195476 18204285
L37290714 18251904
L37338333 18299523
L37385952 18394761
L37385952 18585238
L37433571 18680476
L37481190 18728095
L37576428 18775714
L37766904 18775714
L37862142 18728095
L37909761 18680476
L37957380 18585238
L37957380 18394761
L37909761 18299523
L37862142 18251904
L37766904 18204285
L37576428 18204285
L37481190 18251904
L37433571 18299523
L37385952 18394761
" />
<path d="M36957380 17299523
L36957380 17775714
L37433571 17823333
L37385952 17775714
L37338333 17680476
L37338333 17442380
L37385952 17347142
L37433571 17299523
L37528809 17251904
L37766904 17251904
L37862142 17299523
L37909761 17347142
L37957380 17442380
L37957380 17680476
L37909761 17775714
L37862142 17823333
" />
<path d="M36957380 16918571
L36957380 16251904
L37957380 16680476
" />
<path d="M37290714 15442380
L37957380 15442380
" />
<path d="M36909761 15680476
L37624047 15918571
L37624047 15299523
" />
</g></g>
<g style="fill:#008484; fill-opacity:0.0; 
stroke:#008484; stroke-width:120000.000000; stroke-opacity:1; 
stroke-linecap:round; stroke-linejoin:round;">
<path d="M101700000 6425000
L101700000 14105000
" />
<path d="M99040000 5155000
L99040000 3825000
" />
<path d="M99040000 14105000
L101700000 14105000
" />
<path d="M99040000 6425000
L101700000 6425000
" />
<path d="M99040000 3825000
L100370000 3825000
" />
<path d="M99040000 6425000
L99040000 14105000
" />
<path d="M14225000 30630000
L18725000 30630000
" />
<path d="M19975000 28130000
L19975000 26630000
" />
<path d="M18725000 24130000
L14225000 24130000
" />
<path d="M12975000 26630000
L12975000 28130000
" />
<path d="M114315000 3935000
L119365000 3935000
" />
<path d="M105765000 8485000
L105765000 9485000
" />
<path d="M105765000 3935000
L110815000 3935000
" />
<path d="M105765000 10985000
L105765000 11985000
" />
<path d="M119365000 3935000
L119365000 6735000
" />
<path d="M105765000 13535000
L105765000 16535000
" />
<path d="M119365000 8735000
L119365000 11735000
" />
<path d="M105765000 6935000
L105765000 3935000
" />
<path d="M119365000 16535000
L114315000 16535000
" />
<path d="M110815000 16535000
L105765000 16535000
" />
<path d="M119365000 13835000
L119365000 16535000
" />
<path d="M1655000 11315000
L1655000 11471000
" />
<path d="M1655000 8999000
L1655000 9155000
" />
<path d="M4887335.090817 9156391.941426 A1990000.000000 1990000.000000 0.0 0 0 1654999.957900 8999483.966657" />
<path d="M2174038.954550 11315000.047155 A1500000.000000 1500000.000000 0.0 0 0 4256130.087115 11314837.090354" />
<path d="M4256130.087115 9155162.909646 A1500000.000000 1500000.000000 0.0 0 0 2174038.954550 9154999.952845" />
<path d="M1654999.957900 11470516.033343 A1990000.000000 1990000.000000 0.0 0 0 4887335.090817 11313608.058574" />
<path d="M114685000 24130000
L110185000 24130000
" />
<path d="M110185000 30630000
L114685000 30630000
" />
<path d="M108935000 26630000
L108935000 28130000
" />
<path d="M115935000 28130000
L115935000 26630000
" />
<path d="M52876379 18085000
L52876379 16078000
" />
<path d="M53797379 22352000
L53797379 15898000
" />
<path d="M50876379 20184000
L50876379 18066000
" />
<path d="M53196379 18085000
L53196379 15984000
" />
<path d="M53116379 22246000
L53116379 20165000
" />
<path d="M51356379 21069000
L51356379 17181000
" />
<path d="M51676379 18085000
L51676379 16820000
" />
<path d="M53076379 18085000
L53076379 16015000
" />
<path d="M52196379 18085000
L52196379 16409000
" />
<path d="M51956379 21673000
L51956379 20165000
" />
<path d="M52516379 18085000
L52516379 16229000
" />
<path d="M53357379 22300000
L53357379 20165000
" />
<path d="M52676379 22095000
L52676379 20165000
" />
<path d="M51876379 21609000
L51876379 20165000
" />
<path d="M53437379 22314000
L53437379 20165000
" />
<path d="M52836379 22158000
L52836379 20165000
" />
<path d="M50836379 20065000
L50836379 18185000
" />
<path d="M51316379 21015000
L51316379 17235000
" />
<path d="M52796379 22143000
L52796379 20165000
" />
<path d="M53437379 18085000
L53437379 15936000
" />
<path d="M51476379 21217000
L51476379 17033000
" />
<path d="M50756379 19758000
L50756379 18492000
" />
<path d="M51716379 21468000
L51716379 20165000
" />
<path d="M52476379 22001000
L52476379 20165000
" />
<path d="M53477379 18085000
L53477379 15930000
" />
<path d="M52556379 18085000
L52556379 16209000
" />
<path d="M53477379 22320000
L53477379 20165000
" />
<path d="M52956379 22199000
L52956379 20165000
" />
<path d="M53557379 18085000
L53557379 15919000
" />
<path d="M53036379 18085000
L53036379 16027000
" />
<path d="M51636379 21390000
L51636379 16860000
" />
<path d="M51516379 21262000
L51516379 16988000
" />
<path d="M51756379 21505000
L51756379 20165000
" />
<path d="M51556379 21307000
L51556379 16943000
" />
<path d="M52276379 21891000
L52276379 20165000
" />
<path d="M52236379 21867000
L52236379 20165000
" />
<path d="M53597379 22336000
L53597379 20165000
" />
<path d="M53317379 18085000
L53317379 15958000
" />
<path d="M52316379 18085000
L52316379 16335000
" />
<path d="M51876379 18085000
L51876379 16641000
" />
<path d="M52636379 22077000
L52636379 20165000
" />
<path d="M53397379 18085000
L53397379 15943000
" />
<path d="M53557379 22331000
L53557379 20165000
" />
<path d="M53277379 18085000
L53277379 15966000
" />
<path d="M52076379 18085000
L52076379 16489000
" />
<path d="M53757379 22349000
L53757379 15901000
" />
<path d="M52756379 18085000
L52756379 16123000
" />
<path d="M53517379 22326000
L53517379 20165000
" />
<path d="M52316379 21915000
L52316379 20165000
" />
<path d="M52436379 18085000
L52436379 16269000
" />
<path d="M53837379 22353000
L53837379 15897000
" />
<path d="M52276379 18085000
L52276379 16359000
" />
<path d="M57457620 20964000
L56827620 20964000
" />
<path d="M51276379 20959000
L51276379 17291000
" />
<path d="M52596379 18085000
L52596379 16191000
" />
<path d="M51796379 18085000
L51796379 16709000
" />
<path d="M52676379 18085000
L52676379 16155000
" />
<path d="M50796379 19927000
L50796379 18323000
" />
<path d="M52476379 18085000
L52476379 16249000
" />
<path d="M53917379 22355000
L53917379 15895000
" />
<path d="M51596379 21349000
L51596379 16901000
" />
<path d="M52236379 18085000
L52236379 16383000
" />
<path d="M53637379 18085000
L53637379 15910000
" />
<path d="M52956379 18085000
L52956379 16051000
" />
<path d="M51436379 21169000
L51436379 17081000
" />
<path d="M51036379 20557000
L51036379 17693000
" />
<path d="M53116379 18085000
L53116379 16004000
" />
<path d="M50996379 20475000
L50996379 17775000
" />
<path d="M52516379 22021000
L52516379 20165000
" />
<path d="M52836379 18085000
L52836379 16092000
" />
<path d="M53317379 22292000
L53317379 20165000
" />
<path d="M53397379 22307000
L53397379 20165000
" />
<path d="M51996379 21703000
L51996379 20165000
" />
<path d="M51076379 20634000
L51076379 17616000
" />
<path d="M51916379 21641000
L51916379 20165000
" />
<path d="M53236379 18085000
L53236379 15975000
" />
<path d="M53877379 22355000
L53877379 15895000
" />
<path d="M53717379 22347000
L53717379 20165000
" />
<path d="M52596379 22059000
L52596379 20165000
" />
<path d="M51836379 21575000
L51836379 20165000
" />
<path d="M52716379 22111000
L52716379 20165000
" />
<path d="M53277379 22284000
L53277379 20165000
" />
<path d="M53036379 22223000
L53036379 20165000
" />
<path d="M52916379 22186000
L52916379 20165000
" />
<path d="M53156379 18085000
L53156379 15994000
" />
<path d="M57142620 21279000
L57142620 20649000
" />
<path d="M52996379 22211000
L52996379 20165000
" />
<path d="M53076379 22235000
L53076379 20165000
" />
<path d="M50916379 20290000
L50916379 17960000
" />
<path d="M53637379 22340000
L53637379 20165000
" />
<path d="M52156379 21815000
L52156379 20165000
" />
<path d="M53196379 22266000
L53196379 20165000
" />
<path d="M52396379 21959000
L52396379 20165000
" />
<path d="M51116379 20706000
L51116379 17544000
" />
<path d="M53156379 22256000
L53156379 20165000
" />
<path d="M51836379 18085000
L51836379 16675000
" />
<path d="M51756379 18085000
L51756379 16745000
" />
<path d="M52796379 18085000
L52796379 16107000
" />
<path d="M52356379 18085000
L52356379 16313000
" />
<path d="M52116379 21789000
L52116379 20165000
" />
<path d="M52156379 18085000
L52156379 16435000
" />
<path d="M52036379 21732000
L52036379 20165000
" />
<path d="M53717379 18085000
L53717379 15903000
" />
<path d="M51956379 18085000
L51956379 16577000
" />
<path d="M51676379 21430000
L51676379 20165000
" />
<path d="M52556379 22041000
L52556379 20165000
" />
<path d="M53677379 22343000
L53677379 20165000
" />
<path d="M53957379 22355000
L53957379 15895000
" />
<path d="M52636379 18085000
L52636379 16173000
" />
<path d="M53677379 18085000
L53677379 15907000
" />
<path d="M50956379 20387000
L50956379 17863000
" />
<path d="M52716379 18085000
L52716379 16139000
" />
<path d="M53597379 18085000
L53597379 15914000
" />
<path d="M51996379 18085000
L51996379 16547000
" />
<path d="M52876379 22172000
L52876379 20165000
" />
<path d="M51916379 18085000
L51916379 16609000
" />
<path d="M51236379 20901000
L51236379 17349000
" />
<path d="M51396379 21120000
L51396379 17130000
" />
<path d="M52436379 21981000
L52436379 20165000
" />
<path d="M52996379 18085000
L52996379 16039000
" />
<path d="M51196379 20839000
L51196379 17411000
" />
<path d="M52916379 18085000
L52916379 16064000
" />
<path d="M51156379 20775000
L51156379 17475000
" />
<path d="M53357379 18085000
L53357379 15950000
" />
<path d="M50716379 19527000
L50716379 18723000
" />
<path d="M51796379 21541000
L51796379 20165000
" />
<path d="M52356379 21937000
L52356379 20165000
" />
<path d="M52076379 21761000
L52076379 20165000
" />
<path d="M52116379 18085000
L52116379 16461000
" />
<path d="M53517379 18085000
L53517379 15924000
" />
<path d="M52196379 21841000
L52196379 20165000
" />
<path d="M53236379 22275000
L53236379 20165000
" />
<path d="M52756379 22127000
L52756379 20165000
" />
<path d="M52396379 18085000
L52396379 16291000
" />
<path d="M52036379 18085000
L52036379 16518000
" />
<path d="M51716379 18085000
L51716379 16782000
" />
<circle cx="53957379.000000" cy="19125000.000000" r="3270000.000000" /> 
<path d="M75615000 3945000
L83295000 3945000
" />
<path d="M83295000 3945000
L83295000 1285000
" />
<path d="M75615000 1285000
L83295000 1285000
" />
<path d="M73015000 3945000
L73015000 2615000
" />
<path d="M75615000 3945000
L75615000 1285000
" />
<path d="M74345000 3945000
L73015000 3945000
" />
<path d="M28315000 8999000
L28315000 9155000
" />
<path d="M28315000 11315000
L28315000 11471000
" />
<path d="M28314999.957900 11470516.033343 A1990000.000000 1990000.000000 0.0 0 0 31547335.090817 11313608.058574" />
<path d="M30916130.087115 9155162.909646 A1500000.000000 1500000.000000 0.0 0 0 28834038.954550 9154999.952845" />
<path d="M28834038.954550 11315000.047155 A1500000.000000 1500000.000000 0.0 0 0 30916130.087115 11314837.090354" />
<path d="M31547335.090817 9156391.941426 A1990000.000000 1990000.000000 0.0 0 0 28314999.957900 8999483.966657" />
<path d="M14925000 9002616
L14925000 9158616
" />
<path d="M14925000 11318616
L14925000 11474616
" />
<path d="M17526130.087115 9158778.909646 A1500000.000000 1500000.000000 0.0 0 0 15444038.954550 9158615.952845" />
<path d="M15444038.954550 11318616.047155 A1500000.000000 1500000.000000 0.0 0 0 17526130.087115 11318453.090354" />
<path d="M18157335.090817 9160007.941426 A1990000.000000 1990000.000000 0.0 0 0 14924999.957900 9003099.966657" />
<path d="M14924999.957900 11474132.033343 A1990000.000000 1990000.000000 0.0 0 0 18157335.090817 11317224.058574" />
<path d="M33385000 28130000
L33385000 26630000
" />
<path d="M32135000 24130000
L27635000 24130000
" />
<path d="M26385000 26630000
L26385000 28130000
" />
<path d="M27635000 30630000
L32135000 30630000
" />
<path d="M41615000 1285000
L41615000 21725000
" />
<path d="M42865000 1285000
L41615000 1285000
" />
<path d="M41615000 21725000
L46115000 21725000
" />
<path d="M38615000 21785000
L49115000 21785000
" />
<path d="M49115000 21785000
L49115000 1225000
" />
<path d="M38615000 1225000
L38615000 21785000
" />
<path d="M46115000 1285000
L44865000 1285000
" />
<path d="M46115000 21725000
L46115000 1285000
" />
<path d="M49115000 1225000
L38615000 1225000
" />
<path d="M42865000.000000 1285000.000000 A1000000.000000 1000000.000000 0.0 0 0 44865000.000000 1285000.000000" />
<g >
</g>
<g >
</g>
<g >
</g>
<g >
</g>
<g >
</g>
<g >
</g>
<g >
</g>
<g >
</g>
<g >
</g>
<g >
</g>
<g >
</g>
<g >
</g>
<g >
</g>
<g >
</g>
<g >
</g>
<g >
</g>
<g >
</g>
<g >
</g>
<g >
</g>
<g >
</g>
<g >
</g>
<g >
</g>
<g >
</g>
<g >
</g>
<g >
</g>
<g >
</g>
<g >
</g>
<g >
</g>
<g >
</g>
</g>
<g style="fill:#000000; fill-opacity:0.0; 
stroke:#000000; stroke-width:120000.000000; stroke-opacity:1; 
stroke-linecap:round; stroke-linejoin:round;">
</g>
<g style="fill:#C2C200; fill-opacity:0.0; 
stroke:#C2C200; stroke-width:120000.000000; stroke-opacity:1; 
stroke-linecap:round; stroke-linejoin:round;">
</g>
<g style="fill:#C2C200; fill-opacity:0.0; 
stroke:#C2C200; stroke-width:100000.000000; stroke-opacity:1; 
stroke-linecap:round; stroke-linejoin:round;">
<path d="M127050000 75000
L50000 75000
" />
<path d="M50000 75000
L50000 35635000
" />
<path d="M50000 35635000
L127050000 35635000
" />
<path d="M127050000 35635000
L127050000 75000
" />
<g >
</g>
<g >
</g>
<g >
</g>
<g >
</g>
<g >
</g>
<g >
</g>
<g >
</g>
<g >
</g>
<g >
</g>
<g >
</g>
<g >
</g>
<g >
</g>
<g >
</g>
<g >
</g>
<g >
</g>
<g >
</g>
<g >
</g>
<g >
</g>
<g >
</g>
<g >
</g>
<g >
</g>
<g >
</g>
<g >
</g>
<g >
</g>
<g >
</g>
<g >
</g>
<g >
</g>
<g >
</g>
<g >
</g>
</g> 
</svg>
