<?xml version="1.0" standalone="no"?>
 <!DOCTYPE svg PUBLIC "-//W3C//DTD SVG 1.1//EN" 
 "http://www.w3.org/Graphics/SVG/1.1/DTD/svg11.dtd"> 
<svg
  xmlns:svg="http://www.w3.org/2000/svg"
  xmlns="http://www.w3.org/2000/svg"
  xmlns:xlink="http://www.w3.org/1999/xlink"
  version="1.1"
  width="12.707620cm" height="3.568700cm" viewBox="0 0 127076200 35687000">
<title>SVG Picture created as TapeDelay_Controls-B_Fab.svg date 2023/09/01 14:02:21 </title>
  <desc>Picture generated by PCBNEW </desc>
<g style="fill:#000000; fill-opacity:1.000000;stroke:#000000; stroke-opacity:1.000000;
stroke-linecap:round; stroke-linejoin:round;"
 transform="translate(0 0) scale(1 1)">
</g>
<g style="fill:#000000; fill-opacity:0.0; 
stroke:#000000; stroke-width:0.000000; stroke-opacity:1; 
stroke-linecap:round; stroke-linejoin:round;">
</g>
<g style="fill:#000084; fill-opacity:0.0; 
stroke:#000084; stroke-width:0.000000; stroke-opacity:1; 
stroke-linecap:round; stroke-linejoin:round;">
</g>
<g style="fill:#000084; fill-opacity:0.0; 
stroke:#000084; stroke-width:150000.000000; stroke-opacity:1; 
stroke-linecap:round; stroke-linejoin:round;">
<text x="16830000.000000" y="17000000.000000"
transform="scale(-1 1) translate(-33660000.000000 0)"
textLength="2662143.000000" font-size="1333333.000000" lengthAdjust="spacingAndGlyphs"
text-anchor="middle" opacity="0">560</text>
<g class="stroked-text"><desc>560</desc>
<path d="M17544285 15952380
L18020476 15952380
L18068095 16428571
L18020476 16380952
L17925238 16333333
L17687142 16333333
L17591904 16380952
L17544285 16428571
L17496666 16523809
L17496666 16761904
L17544285 16857142
L17591904 16904761
L17687142 16952380
L17925238 16952380
L18020476 16904761
L18068095 16857142
" />
<path d="M16639523 15952380
L16830000 15952380
L16925238 16000000
L16972857 16047619
L17068095 16190476
L17115714 16380952
L17115714 16761904
L17068095 16857142
L17020476 16904761
L16925238 16952380
L16734761 16952380
L16639523 16904761
L16591904 16857142
L16544285 16761904
L16544285 16523809
L16591904 16428571
L16639523 16380952
L16734761 16333333
L16925238 16333333
L17020476 16380952
L17068095 16428571
L17115714 16523809
" />
<path d="M15925238 15952380
L15830000 15952380
L15734761 16000000
L15687142 16047619
L15639523 16142857
L15591904 16333333
L15591904 16571428
L15639523 16761904
L15687142 16857142
L15734761 16904761
L15830000 16952380
L15925238 16952380
L16020476 16904761
L16068095 16857142
L16115714 16761904
L16163333 16571428
L16163333 16333333
L16115714 16142857
L16068095 16047619
L16020476 16000000
L15925238 15952380
" />
</g></g>
<g style="fill:#000084; fill-opacity:0.0; 
stroke:#000084; stroke-width:120000.000000; stroke-opacity:1; 
stroke-linecap:round; stroke-linejoin:round;">
<text x="16830000.000000" y="15080000.000000"
transform="scale(-1 1) translate(-33660000.000000 0)"
textLength="1366905.000000" font-size="1066666.000000" lengthAdjust="spacingAndGlyphs"
text-anchor="middle" opacity="0">R3</text>
<g class="stroked-text"><desc>R3</desc>
<path d="M16963333 15041904
L17230000 14660952
" />
<path d="M17420476 15041904
L17420476 14241904
L17115714 14241904
L17039523 14280000
L17001428 14318095
L16963333 14394285
L16963333 14508571
L17001428 14584761
L17039523 14622857
L17115714 14660952
L17420476 14660952
" />
<path d="M16696666 14241904
L16201428 14241904
L16468095 14546666
L16353809 14546666
L16277619 14584761
L16239523 14622857
L16201428 14699047
L16201428 14889523
L16239523 14965714
L16277619 15003809
L16353809 15041904
L16582380 15041904
L16658571 15003809
L16696666 14965714
" />
</g></g>
<g style="fill:#000084; fill-opacity:0.0; 
stroke:#000084; stroke-width:150000.000000; stroke-opacity:1; 
stroke-linecap:round; stroke-linejoin:round;">
<text x="28895000.000000" y="17635000.000000"
transform="scale(-1 1) translate(-57790000.000000 0)"
textLength="2701143.000000" font-size="1333333.000000" lengthAdjust="spacingAndGlyphs"
text-anchor="middle" opacity="0">560</text>
<g class="stroked-text"><desc>560</desc>
<path d="M29609285 16587380
L30085476 16587380
L30133095 17063571
L30085476 17015952
L29990238 16968333
L29752142 16968333
L29656904 17015952
L29609285 17063571
L29561666 17158809
L29561666 17396904
L29609285 17492142
L29656904 17539761
L29752142 17587380
L29990238 17587380
L30085476 17539761
L30133095 17492142
" />
<path d="M28704523 16587380
L28895000 16587380
L28990238 16635000
L29037857 16682619
L29133095 16825476
L29180714 17015952
L29180714 17396904
L29133095 17492142
L29085476 17539761
L28990238 17587380
L28799761 17587380
L28704523 17539761
L28656904 17492142
L28609285 17396904
L28609285 17158809
L28656904 17063571
L28704523 17015952
L28799761 16968333
L28990238 16968333
L29085476 17015952
L29133095 17063571
L29180714 17158809
" />
<path d="M27990238 16587380
L27895000 16587380
L27799761 16635000
L27752142 16682619
L27704523 16777857
L27656904 16968333
L27656904 17206428
L27704523 17396904
L27752142 17492142
L27799761 17539761
L27895000 17587380
L27990238 17587380
L28085476 17539761
L28133095 17492142
L28180714 17396904
L28228333 17206428
L28228333 16968333
L28180714 16777857
L28133095 16682619
L28085476 16635000
L27990238 16587380
" />
</g></g>
<g style="fill:#000084; fill-opacity:0.0; 
stroke:#000084; stroke-width:120000.000000; stroke-opacity:1; 
stroke-linecap:round; stroke-linejoin:round;">
<text x="28895000.000000" y="15715000.000000"
transform="scale(-1 1) translate(-57790000.000000 0)"
textLength="1366905.000000" font-size="1066666.000000" lengthAdjust="spacingAndGlyphs"
text-anchor="middle" opacity="0">R5</text>
<g class="stroked-text"><desc>R5</desc>
<path d="M29028333 15676904
L29295000 15295952
" />
<path d="M29485476 15676904
L29485476 14876904
L29180714 14876904
L29104523 14915000
L29066428 14953095
L29028333 15029285
L29028333 15143571
L29066428 15219761
L29104523 15257857
L29180714 15295952
L29485476 15295952
" />
<path d="M28304523 14876904
L28685476 14876904
L28723571 15257857
L28685476 15219761
L28609285 15181666
L28418809 15181666
L28342619 15219761
L28304523 15257857
L28266428 15334047
L28266428 15524523
L28304523 15600714
L28342619 15638809
L28418809 15676904
L28609285 15676904
L28685476 15638809
L28723571 15600714
" />
</g></g>
<g style="fill:#000084; fill-opacity:0.0; 
stroke:#000084; stroke-width:150000.000000; stroke-opacity:1; 
stroke-linecap:round; stroke-linejoin:round;">
<text x="33695000.000000" y="7475000.000000"
transform="scale(-1 1) translate(-67390000.000000 0)"
textLength="2701143.000000" font-size="1333333.000000" lengthAdjust="spacingAndGlyphs"
text-anchor="middle" opacity="0">560</text>
<g class="stroked-text"><desc>560</desc>
<path d="M34409285 6427380
L34885476 6427380
L34933095 6903571
L34885476 6855952
L34790238 6808333
L34552142 6808333
L34456904 6855952
L34409285 6903571
L34361666 6998809
L34361666 7236904
L34409285 7332142
L34456904 7379761
L34552142 7427380
L34790238 7427380
L34885476 7379761
L34933095 7332142
" />
<path d="M33504523 6427380
L33695000 6427380
L33790238 6475000
L33837857 6522619
L33933095 6665476
L33980714 6855952
L33980714 7236904
L33933095 7332142
L33885476 7379761
L33790238 7427380
L33599761 7427380
L33504523 7379761
L33456904 7332142
L33409285 7236904
L33409285 6998809
L33456904 6903571
L33504523 6855952
L33599761 6808333
L33790238 6808333
L33885476 6855952
L33933095 6903571
L33980714 6998809
" />
<path d="M32790238 6427380
L32695000 6427380
L32599761 6475000
L32552142 6522619
L32504523 6617857
L32456904 6808333
L32456904 7046428
L32504523 7236904
L32552142 7332142
L32599761 7379761
L32695000 7427380
L32790238 7427380
L32885476 7379761
L32933095 7332142
L32980714 7236904
L33028333 7046428
L33028333 6808333
L32980714 6617857
L32933095 6522619
L32885476 6475000
L32790238 6427380
" />
</g></g>
<g style="fill:#000084; fill-opacity:0.0; 
stroke:#000084; stroke-width:120000.000000; stroke-opacity:1; 
stroke-linecap:round; stroke-linejoin:round;">
<text x="33695000.000000" y="5555000.000000"
transform="scale(-1 1) translate(-67390000.000000 0)"
textLength="1366905.000000" font-size="1066666.000000" lengthAdjust="spacingAndGlyphs"
text-anchor="middle" opacity="0">R4</text>
<g class="stroked-text"><desc>R4</desc>
<path d="M33828333 5516904
L34095000 5135952
" />
<path d="M34285476 5516904
L34285476 4716904
L33980714 4716904
L33904523 4755000
L33866428 4793095
L33828333 4869285
L33828333 4983571
L33866428 5059761
L33904523 5097857
L33980714 5135952
L34285476 5135952
" />
<path d="M33142619 4983571
L33142619 5516904
" />
<path d="M33333095 4678809
L33523571 5250238
L33028333 5250238
" />
</g></g>
<g style="fill:#000084; fill-opacity:0.0; 
stroke:#000084; stroke-width:150000.000000; stroke-opacity:1; 
stroke-linecap:round; stroke-linejoin:round;">
<g transform="rotate(-90.000000 45705000.000000 3885000.000000)">
<text x="45705000.000000" y="4385000.000000"
transform="scale(-1 1) translate(-91410000.000000 0)"
textLength="2224952.000000" font-size="1333333.000000" lengthAdjust="spacingAndGlyphs"
text-anchor="middle" opacity="0">0,1</text>
</g>
<g class="stroked-text"><desc>0,1</desc>
<path d="M45157380 3123095
L45157380 3218333
L45205000 3313571
L45252619 3361190
L45347857 3408809
L45538333 3456428
L45776428 3456428
L45966904 3408809
L46062142 3361190
L46109761 3313571
L46157380 3218333
L46157380 3123095
L46109761 3027857
L46062142 2980238
L45966904 2932619
L45776428 2885000
L45538333 2885000
L45347857 2932619
L45252619 2980238
L45205000 3027857
L45157380 3123095
" />
<path d="M46109761 3932619
L46157380 3932619
L46252619 3885000
L46300238 3837380
" />
<path d="M46157380 4885000
L46157380 4313571
" />
<path d="M46157380 4599285
L45157380 4599285
L45300238 4504047
L45395476 4408809
L45443095 4313571
" />
</g></g>
<g style="fill:#000084; fill-opacity:0.0; 
stroke:#000084; stroke-width:120000.000000; stroke-opacity:1; 
stroke-linecap:round; stroke-linejoin:round;">
<g transform="rotate(-90.000000 43855000.000000 3885000.000000)">
<text x="43855000.000000" y="4285000.000000"
transform="scale(-1 1) translate(-87710000.000000 0)"
textLength="1366905.000000" font-size="1066666.000000" lengthAdjust="spacingAndGlyphs"
text-anchor="middle" opacity="0">C1</text>
</g>
<g class="stroked-text"><desc>C1</desc>
<path d="M44140714 3751666
L44178809 3713571
L44216904 3599285
L44216904 3523095
L44178809 3408809
L44102619 3332619
L44026428 3294523
L43874047 3256428
L43759761 3256428
L43607380 3294523
L43531190 3332619
L43455000 3408809
L43416904 3523095
L43416904 3599285
L43455000 3713571
L43493095 3751666
" />
<path d="M44216904 4513571
L44216904 4056428
" />
<path d="M44216904 4285000
L43416904 4285000
L43531190 4208809
L43607380 4132619
L43645476 4056428
" />
</g></g>
<g style="fill:#000084; fill-opacity:0.0; 
stroke:#000084; stroke-width:150000.000000; stroke-opacity:1; 
stroke-linecap:round; stroke-linejoin:round;">
<text x="3495000.000000" y="17000000.000000"
transform="scale(-1 1) translate(-6990000.000000 0)"
textLength="2701143.000000" font-size="1333333.000000" lengthAdjust="spacingAndGlyphs"
text-anchor="middle" opacity="0">560</text>
<g class="stroked-text"><desc>560</desc>
<path d="M4209285 15952380
L4685476 15952380
L4733095 16428571
L4685476 16380952
L4590238 16333333
L4352142 16333333
L4256904 16380952
L4209285 16428571
L4161666 16523809
L4161666 16761904
L4209285 16857142
L4256904 16904761
L4352142 16952380
L4590238 16952380
L4685476 16904761
L4733095 16857142
" />
<path d="M3304523 15952380
L3495000 15952380
L3590238 16000000
L3637857 16047619
L3733095 16190476
L3780714 16380952
L3780714 16761904
L3733095 16857142
L3685476 16904761
L3590238 16952380
L3399761 16952380
L3304523 16904761
L3256904 16857142
L3209285 16761904
L3209285 16523809
L3256904 16428571
L3304523 16380952
L3399761 16333333
L3590238 16333333
L3685476 16380952
L3733095 16428571
L3780714 16523809
" />
<path d="M2590238 15952380
L2495000 15952380
L2399761 16000000
L2352142 16047619
L2304523 16142857
L2256904 16333333
L2256904 16571428
L2304523 16761904
L2352142 16857142
L2399761 16904761
L2495000 16952380
L2590238 16952380
L2685476 16904761
L2733095 16857142
L2780714 16761904
L2828333 16571428
L2828333 16333333
L2780714 16142857
L2733095 16047619
L2685476 16000000
L2590238 15952380
" />
</g></g>
<g style="fill:#000084; fill-opacity:0.0; 
stroke:#000084; stroke-width:120000.000000; stroke-opacity:1; 
stroke-linecap:round; stroke-linejoin:round;">
<text x="3495000.000000" y="15080000.000000"
transform="scale(-1 1) translate(-6990000.000000 0)"
textLength="1366905.000000" font-size="1066666.000000" lengthAdjust="spacingAndGlyphs"
text-anchor="middle" opacity="0">R2</text>
<g class="stroked-text"><desc>R2</desc>
<path d="M3628333 15041904
L3895000 14660952
" />
<path d="M4085476 15041904
L4085476 14241904
L3780714 14241904
L3704523 14280000
L3666428 14318095
L3628333 14394285
L3628333 14508571
L3666428 14584761
L3704523 14622857
L3780714 14660952
L4085476 14660952
" />
<path d="M3323571 14318095
L3285476 14280000
L3209285 14241904
L3018809 14241904
L2942619 14280000
L2904523 14318095
L2866428 14394285
L2866428 14470476
L2904523 14584761
L3361666 15041904
L2866428 15041904
" />
</g></g>
<g style="fill:#000084; fill-opacity:0.0; 
stroke:#000084; stroke-width:150000.000000; stroke-opacity:1; 
stroke-linecap:round; stroke-linejoin:round;">
<g transform="rotate(-90.000000 55285000.000000 6425000.000000)">
<text x="55285000.000000" y="6925000.000000"
transform="scale(-1 1) translate(-110570000.000000 0)"
textLength="1558286.000000" font-size="1333333.000000" lengthAdjust="spacingAndGlyphs"
text-anchor="middle" opacity="0">J5</text>
</g>
<g class="stroked-text"><desc>J5</desc>
<path d="M54737380 6091666
L55451666 6091666
L55594523 6044047
L55689761 5948809
L55737380 5805952
L55737380 5710714
" />
<path d="M54737380 7044047
L54737380 6567857
L55213571 6520238
L55165952 6567857
L55118333 6663095
L55118333 6901190
L55165952 6996428
L55213571 7044047
L55308809 7091666
L55546904 7091666
L55642142 7044047
L55689761 6996428
L55737380 6901190
L55737380 6663095
L55689761 6567857
L55642142 6520238
" />
</g><g transform="rotate(-90.000000 45675000.000000 11225000.000000)">
<text x="45675000.000000" y="11725000.000000"
transform="scale(-1 1) translate(-91350000.000000 0)"
textLength="2995476.000000" font-size="1333333.000000" lengthAdjust="spacingAndGlyphs"
text-anchor="middle" opacity="0">4,7k</text>
</g>
<g class="stroked-text"><desc>4,7k</desc>
<path d="M45460714 10296428
L46127380 10296428
" />
<path d="M45079761 10058333
L45794047 9820238
L45794047 10439285
" />
<path d="M46079761 10867857
L46127380 10867857
L46222619 10820238
L46270238 10772619
" />
<path d="M45127380 11201190
L45127380 11867857
L46127380 11439285
" />
<path d="M46127380 12248809
L45127380 12248809
" />
<path d="M45746428 12344047
L46127380 12629761
" />
<path d="M45460714 12629761
L45841666 12248809
" />
</g></g>
<g style="fill:#000084; fill-opacity:0.0; 
stroke:#000084; stroke-width:120000.000000; stroke-opacity:1; 
stroke-linecap:round; stroke-linejoin:round;">
<g transform="rotate(-90.000000 43855000.000000 11225000.000000)">
<text x="43855000.000000" y="11625000.000000"
transform="scale(-1 1) translate(-87710000.000000 0)"
textLength="1366905.000000" font-size="1066666.000000" lengthAdjust="spacingAndGlyphs"
text-anchor="middle" opacity="0">R1</text>
</g>
<g class="stroked-text"><desc>R1</desc>
<path d="M44216904 11091666
L43835952 10825000
" />
<path d="M44216904 10634523
L43416904 10634523
L43416904 10939285
L43455000 11015476
L43493095 11053571
L43569285 11091666
L43683571 11091666
L43759761 11053571
L43797857 11015476
L43835952 10939285
L43835952 10634523
" />
<path d="M44216904 11853571
L44216904 11396428
" />
<path d="M44216904 11625000
L43416904 11625000
L43531190 11548809
L43607380 11472619
L43645476 11396428
" />
</g></g>
<g style="fill:#000084; fill-opacity:0.0; 
stroke:#000084; stroke-width:100000.000000; stroke-opacity:1; 
stroke-linecap:round; stroke-linejoin:round;">
<path d="M15230000 15480000
L18430000 15480000
" />
<path d="M15230000 13880000
L15230000 15480000
" />
<path d="M18430000 13880000
L15230000 13880000
" />
<path d="M18430000 15480000
L18430000 13880000
" />
<path d="M27295000 14515000
L27295000 16115000
" />
<path d="M30495000 16115000
L30495000 14515000
" />
<path d="M27295000 16115000
L30495000 16115000
" />
<path d="M30495000 14515000
L27295000 14515000
" />
<path d="M35295000 5955000
L35295000 4355000
" />
<path d="M32095000 5955000
L35295000 5955000
" />
<path d="M32095000 4355000
L32095000 5955000
" />
<path d="M35295000 4355000
L32095000 4355000
" />
<path d="M44655000 2285000
L43055000 2285000
" />
<path d="M43055000 2285000
L43055000 5485000
" />
<path d="M43055000 5485000
L44655000 5485000
" />
<path d="M44655000 5485000
L44655000 2285000
" />
<path d="M1895000 13880000
L1895000 15480000
" />
<path d="M5095000 13880000
L1895000 13880000
" />
<path d="M5095000 15480000
L5095000 13880000
" />
<path d="M1895000 15480000
L5095000 15480000
" />
<path d="M56555000 11505000
L56555000 1345000
" />
<path d="M54015000 1345000
L54015000 10870000
" />
<path d="M54650000 11505000
L56555000 11505000
" />
<path d="M56555000 1345000
L54015000 1345000
" />
<path d="M54015000 10870000
L54650000 11505000
" />
<path d="M43055000 12825000
L44655000 12825000
" />
<path d="M43055000 9625000
L43055000 12825000
" />
<path d="M44655000 9625000
L43055000 9625000
" />
<path d="M44655000 12825000
L44655000 9625000
" />
<g >
</g>
<g >
</g>
<g >
</g>
<g >
</g>
<g >
</g>
<g >
</g>
<g >
</g>
<g >
</g>
<g >
</g>
<g >
</g>
<g >
</g>
<g >
</g>
<g >
</g>
<g >
</g>
<g >
</g>
<g >
</g>
<g >
</g>
<g >
</g>
<g >
</g>
<g >
</g>
<g >
</g>
<g >
</g>
<g >
</g>
<g >
</g>
<g >
</g>
<g >
</g>
<g >
</g>
<g >
</g>
<g >
</g>
</g>
<g style="fill:#000000; fill-opacity:0.0; 
stroke:#000000; stroke-width:100000.000000; stroke-opacity:1; 
stroke-linecap:round; stroke-linejoin:round;">
</g>
<g style="fill:#C2C200; fill-opacity:0.0; 
stroke:#C2C200; stroke-width:100000.000000; stroke-opacity:1; 
stroke-linecap:round; stroke-linejoin:round;">
<path d="M127050000 75000
L50000 75000
" />
<path d="M50000 75000
L50000 35635000
" />
<path d="M50000 35635000
L127050000 35635000
" />
<path d="M127050000 35635000
L127050000 75000
" />
<g >
</g>
<g >
</g>
<g >
</g>
<g >
</g>
<g >
</g>
<g >
</g>
<g >
</g>
<g >
</g>
<g >
</g>
<g >
</g>
<g >
</g>
<g >
</g>
<g >
</g>
<g >
</g>
<g >
</g>
<g >
</g>
<g >
</g>
<g >
</g>
<g >
</g>
<g >
</g>
<g >
</g>
<g >
</g>
<g >
</g>
<g >
</g>
<g >
</g>
<g >
</g>
<g >
</g>
<g >
</g>
<g >
</g>
</g> 
</svg>
