<?xml version="1.0" standalone="no"?>
 <!DOCTYPE svg PUBLIC "-//W3C//DTD SVG 1.1//EN" 
 "http://www.w3.org/Graphics/SVG/1.1/DTD/svg11.dtd"> 
<svg
  xmlns:svg="http://www.w3.org/2000/svg"
  xmlns="http://www.w3.org/2000/svg"
  xmlns:xlink="http://www.w3.org/1999/xlink"
  version="1.1"
  width="12.707620cm" height="3.568700cm" viewBox="0 0 127076200 35687000">
<title>SVG Picture created as TapeDelay_Controls-B_Courtyard.svg date 2023/09/01 14:02:21 </title>
  <desc>Picture generated by PCBNEW </desc>
<g style="fill:#000000; fill-opacity:1.000000;stroke:#000000; stroke-opacity:1.000000;
stroke-linecap:round; stroke-linejoin:round;"
 transform="translate(0 0) scale(1 1)">
</g>
<g style="fill:#000000; fill-opacity:0.0; 
stroke:#000000; stroke-width:0.000000; stroke-opacity:1; 
stroke-linecap:round; stroke-linejoin:round;">
</g>
<g style="fill:#848484; fill-opacity:0.0; 
stroke:#848484; stroke-width:0.000000; stroke-opacity:1; 
stroke-linecap:round; stroke-linejoin:round;">
</g>
<g style="fill:#848484; fill-opacity:0.0; 
stroke:#848484; stroke-width:50000.000000; stroke-opacity:1; 
stroke-linecap:round; stroke-linejoin:round;">
<path d="M14380000 13560000
L14380000 15800000
" />
<path d="M19280000 15800000
L19280000 13560000
" />
<path d="M14380000 15800000
L19280000 15800000
" />
<path d="M19280000 13560000
L14380000 13560000
" />
<path d="M26445000 16435000
L31345000 16435000
" />
<path d="M26445000 14195000
L26445000 16435000
" />
<path d="M31345000 14195000
L26445000 14195000
" />
<path d="M31345000 16435000
L31345000 14195000
" />
<path d="M36145000 4035000
L31245000 4035000
" />
<path d="M31245000 4035000
L31245000 6275000
" />
<path d="M36145000 6275000
L36145000 4035000
" />
<path d="M31245000 6275000
L36145000 6275000
" />
<path d="M45005000 1405000
L42705000 1405000
" />
<path d="M42705000 1405000
L42705000 6365000
" />
<path d="M45005000 6365000
L45005000 1405000
" />
<path d="M42705000 6365000
L45005000 6365000
" />
<path d="M5945000 15800000
L5945000 13560000
" />
<path d="M1045000 15800000
L5945000 15800000
" />
<path d="M1045000 13560000
L1045000 15800000
" />
<path d="M5945000 13560000
L1045000 13560000
" />
<path d="M53485000 12035000
L53485000 835000
" />
<path d="M57085000 835000
L57085000 12035000
" />
<path d="M53485000 835000
L57085000 835000
" />
<path d="M57085000 12035000
L53485000 12035000
" />
<path d="M44975000 8775000
L42735000 8775000
" />
<path d="M44975000 13675000
L44975000 8775000
" />
<path d="M42735000 8775000
L42735000 13675000
" />
<path d="M42735000 13675000
L44975000 13675000
" />
<g >
</g>
<g >
</g>
<g >
</g>
<g >
</g>
<g >
</g>
<g >
</g>
<g >
</g>
<g >
</g>
<g >
</g>
<g >
</g>
<g >
</g>
<g >
</g>
<g >
</g>
<g >
</g>
<g >
</g>
<g >
</g>
<g >
</g>
<g >
</g>
<g >
</g>
<g >
</g>
<g >
</g>
<g >
</g>
<g >
</g>
<g >
</g>
<g >
</g>
<g >
</g>
<g >
</g>
<g >
</g>
<g >
</g>
</g>
<g style="fill:#000000; fill-opacity:0.0; 
stroke:#000000; stroke-width:50000.000000; stroke-opacity:1; 
stroke-linecap:round; stroke-linejoin:round;">
</g>
<g style="fill:#C2C200; fill-opacity:0.0; 
stroke:#C2C200; stroke-width:50000.000000; stroke-opacity:1; 
stroke-linecap:round; stroke-linejoin:round;">
</g>
<g style="fill:#C2C200; fill-opacity:0.0; 
stroke:#C2C200; stroke-width:100000.000000; stroke-opacity:1; 
stroke-linecap:round; stroke-linejoin:round;">
<path d="M127050000 75000
L50000 75000
" />
<path d="M50000 75000
L50000 35635000
" />
<path d="M50000 35635000
L127050000 35635000
" />
<path d="M127050000 35635000
L127050000 75000
" />
<g >
</g>
<g >
</g>
<g >
</g>
<g >
</g>
<g >
</g>
<g >
</g>
<g >
</g>
<g >
</g>
<g >
</g>
<g >
</g>
<g >
</g>
<g >
</g>
<g >
</g>
<g >
</g>
<g >
</g>
<g >
</g>
<g >
</g>
<g >
</g>
<g >
</g>
<g >
</g>
<g >
</g>
<g >
</g>
<g >
</g>
<g >
</g>
<g >
</g>
<g >
</g>
<g >
</g>
<g >
</g>
<g >
</g>
</g> 
</svg>
