<?xml version="1.0" standalone="no"?>
 <!DOCTYPE svg PUBLIC "-//W3C//DTD SVG 1.1//EN" 
 "http://www.w3.org/Graphics/SVG/1.1/DTD/svg11.dtd"> 
<svg
  xmlns:svg="http://www.w3.org/2000/svg"
  xmlns="http://www.w3.org/2000/svg"
  xmlns:xlink="http://www.w3.org/1999/xlink"
  version="1.1"
  width="12.707620cm" height="3.568700cm" viewBox="0 0 127076200 35687000">
<title>SVG Picture created as TapeDelay_Controls-F_Fab.svg date 2023/09/01 14:02:21 </title>
  <desc>Picture generated by PCBNEW </desc>
<g style="fill:#000000; fill-opacity:1.000000;stroke:#000000; stroke-opacity:1.000000;
stroke-linecap:round; stroke-linejoin:round;"
 transform="translate(0 0) scale(1 1)">
</g>
<g style="fill:#000000; fill-opacity:0.0; 
stroke:#000000; stroke-width:0.000000; stroke-opacity:1; 
stroke-linecap:round; stroke-linejoin:round;">
</g>
<g style="fill:#848484; fill-opacity:0.0; 
stroke:#848484; stroke-width:0.000000; stroke-opacity:1; 
stroke-linecap:round; stroke-linejoin:round;">
</g>
<g style="fill:#848484; fill-opacity:0.0; 
stroke:#848484; stroke-width:150000.000000; stroke-opacity:1; 
stroke-linecap:round; stroke-linejoin:round;">
<g transform="rotate(-90.000000 100370000.000000 8965000.000000)">
<text x="100370000.000000" y="9465000.000000"
textLength="1870286.000000" font-size="1333333.000000" lengthAdjust="spacingAndGlyphs"
text-anchor="middle" opacity="0">J1</text>
</g>
<g class="stroked-text"><desc>J1</desc>
<path d="M99822380 9298333
L100536666 9298333
L100679523 9345952
L100774761 9441190
L100822380 9584047
L100822380 9679285
" />
<path d="M100822380 8298333
L100822380 8869761
" />
<path d="M100822380 8584047
L99822380 8584047
L99965238 8679285
L100060476 8774523
L100108095 8869761
" />
</g><text x="16475000.000000" y="27880000.000000"
textLength="3242619.000000" font-size="1333333.000000" lengthAdjust="spacingAndGlyphs"
text-anchor="middle" opacity="0">SW1</text>
<g class="stroked-text"><desc>SW1</desc>
<path d="M15141666 27784761
L15284523 27832380
L15522619 27832380
L15617857 27784761
L15665476 27737142
L15713095 27641904
L15713095 27546666
L15665476 27451428
L15617857 27403809
L15522619 27356190
L15332142 27308571
L15236904 27260952
L15189285 27213333
L15141666 27118095
L15141666 27022857
L15189285 26927619
L15236904 26880000
L15332142 26832380
L15570238 26832380
L15713095 26880000
" />
<path d="M16046428 26832380
L16284523 27832380
L16475000 27118095
L16665476 27832380
L16903571 26832380
" />
<path d="M17808333 27832380
L17236904 27832380
" />
<path d="M17522619 27832380
L17522619 26832380
L17427380 26975238
L17332142 27070476
L17236904 27118095
" />
</g><text x="112365000.000000" y="19835000.000000"
textLength="16480714.000000" font-size="1333333.000000" lengthAdjust="spacingAndGlyphs"
text-anchor="middle" opacity="0">RotaryEncoder_Switch</text>
<g class="stroked-text"><desc>RotaryEncoder_Switch</desc>
<path d="M105031666 19787380
L104698333 19311190
" />
<path d="M104460238 19787380
L104460238 18787380
L104841190 18787380
L104936428 18835000
L104984047 18882619
L105031666 18977857
L105031666 19120714
L104984047 19215952
L104936428 19263571
L104841190 19311190
L104460238 19311190
" />
<path d="M105603095 19787380
L105507857 19739761
L105460238 19692142
L105412619 19596904
L105412619 19311190
L105460238 19215952
L105507857 19168333
L105603095 19120714
L105745952 19120714
L105841190 19168333
L105888809 19215952
L105936428 19311190
L105936428 19596904
L105888809 19692142
L105841190 19739761
L105745952 19787380
L105603095 19787380
" />
<path d="M106222142 19120714
L106603095 19120714
" />
<path d="M106365000 18787380
L106365000 19644523
L106412619 19739761
L106507857 19787380
L106603095 19787380
" />
<path d="M107365000 19787380
L107365000 19263571
L107317380 19168333
L107222142 19120714
L107031666 19120714
L106936428 19168333
" />
<path d="M107365000 19739761
L107269761 19787380
L107031666 19787380
L106936428 19739761
L106888809 19644523
L106888809 19549285
L106936428 19454047
L107031666 19406428
L107269761 19406428
L107365000 19358809
" />
<path d="M107841190 19787380
L107841190 19120714
" />
<path d="M107841190 19311190
L107888809 19215952
L107936428 19168333
L108031666 19120714
L108126904 19120714
" />
<path d="M108365000 19120714
L108603095 19787380
" />
<path d="M108841190 19120714
L108603095 19787380
L108507857 20025476
L108460238 20073095
L108365000 20120714
" />
<path d="M109222142 19263571
L109555476 19263571
" />
<path d="M109698333 19787380
L109222142 19787380
L109222142 18787380
L109698333 18787380
" />
<path d="M110126904 19120714
L110126904 19787380
" />
<path d="M110126904 19215952
L110174523 19168333
L110269761 19120714
L110412619 19120714
L110507857 19168333
L110555476 19263571
L110555476 19787380
" />
<path d="M111460238 19739761
L111365000 19787380
L111174523 19787380
L111079285 19739761
L111031666 19692142
L110984047 19596904
L110984047 19311190
L111031666 19215952
L111079285 19168333
L111174523 19120714
L111365000 19120714
L111460238 19168333
" />
<path d="M112031666 19787380
L111936428 19739761
L111888809 19692142
L111841190 19596904
L111841190 19311190
L111888809 19215952
L111936428 19168333
L112031666 19120714
L112174523 19120714
L112269761 19168333
L112317380 19215952
L112365000 19311190
L112365000 19596904
L112317380 19692142
L112269761 19739761
L112174523 19787380
L112031666 19787380
" />
<path d="M113222142 19787380
L113222142 18787380
" />
<path d="M113222142 19739761
L113126904 19787380
L112936428 19787380
L112841190 19739761
L112793571 19692142
L112745952 19596904
L112745952 19311190
L112793571 19215952
L112841190 19168333
L112936428 19120714
L113126904 19120714
L113222142 19168333
" />
<path d="M114079285 19739761
L113984047 19787380
L113793571 19787380
L113698333 19739761
L113650714 19644523
L113650714 19263571
L113698333 19168333
L113793571 19120714
L113984047 19120714
L114079285 19168333
L114126904 19263571
L114126904 19358809
L113650714 19454047
" />
<path d="M114555476 19787380
L114555476 19120714
" />
<path d="M114555476 19311190
L114603095 19215952
L114650714 19168333
L114745952 19120714
L114841190 19120714
" />
<path d="M114936428 19882619
L115698333 19882619
" />
<path d="M115888809 19739761
L116031666 19787380
L116269761 19787380
L116365000 19739761
L116412619 19692142
L116460238 19596904
L116460238 19501666
L116412619 19406428
L116365000 19358809
L116269761 19311190
L116079285 19263571
L115984047 19215952
L115936428 19168333
L115888809 19073095
L115888809 18977857
L115936428 18882619
L115984047 18835000
L116079285 18787380
L116317380 18787380
L116460238 18835000
" />
<path d="M116793571 19120714
L116984047 19787380
L117174523 19311190
L117365000 19787380
L117555476 19120714
" />
<path d="M117936428 19787380
L117936428 19120714
" />
<path d="M117936428 18787380
L117888809 18835000
L117936428 18882619
L117984047 18835000
L117936428 18787380
L117936428 18882619
" />
<path d="M118269761 19120714
L118650714 19120714
" />
<path d="M118412619 18787380
L118412619 19644523
L118460238 19739761
L118555476 19787380
L118650714 19787380
" />
<path d="M119412619 19739761
L119317380 19787380
L119126904 19787380
L119031666 19739761
L118984047 19692142
L118936428 19596904
L118936428 19311190
L118984047 19215952
L119031666 19168333
L119126904 19120714
L119317380 19120714
L119412619 19168333
" />
<path d="M119841190 19787380
L119841190 18787380
" />
<path d="M120269761 19787380
L120269761 19263571
L120222142 19168333
L120126904 19120714
L119984047 19120714
L119888809 19168333
L119841190 19215952
" />
</g><g transform="rotate(-90.000000 112665000.000000 10235000.000000)">
<text x="112665000.000000" y="10735000.000000"
textLength="3242619.000000" font-size="1333333.000000" lengthAdjust="spacingAndGlyphs"
text-anchor="middle" opacity="0">SW3</text>
</g>
<g class="stroked-text"><desc>SW3</desc>
<path d="M113069761 11568333
L113117380 11425476
L113117380 11187380
L113069761 11092142
L113022142 11044523
L112926904 10996904
L112831666 10996904
L112736428 11044523
L112688809 11092142
L112641190 11187380
L112593571 11377857
L112545952 11473095
L112498333 11520714
L112403095 11568333
L112307857 11568333
L112212619 11520714
L112165000 11473095
L112117380 11377857
L112117380 11139761
L112165000 10996904
" />
<path d="M112117380 10663571
L113117380 10425476
L112403095 10235000
L113117380 10044523
L112117380 9806428
" />
<path d="M112117380 9520714
L112117380 8901666
L112498333 9235000
L112498333 9092142
L112545952 8996904
L112593571 8949285
L112688809 8901666
L112926904 8901666
L113022142 8949285
L113069761 8996904
L113117380 9092142
L113117380 9377857
L113069761 9473095
L113022142 9520714
" />
</g><text x="3850000.000000" y="32325000.000000"
textLength="2195000.000000" font-size="1333333.000000" lengthAdjust="spacingAndGlyphs"
text-anchor="middle" opacity="0">H1</text>
<g class="stroked-text"><desc>H1</desc>
<path d="M3088095 32277380
L3088095 31277380
" />
<path d="M3088095 31753571
L3659523 31753571
" />
<path d="M3659523 32277380
L3659523 31277380
" />
<path d="M4659523 32277380
L4088095 32277380
" />
<path d="M4373809 32277380
L4373809 31277380
L4278571 31420238
L4183333 31515476
L4088095 31563095
" />
</g><text x="63540000.000000" y="4385000.000000"
textLength="2195000.000000" font-size="1333333.000000" lengthAdjust="spacingAndGlyphs"
text-anchor="middle" opacity="0">H5</text>
<g class="stroked-text"><desc>H5</desc>
<path d="M62778095 4337380
L62778095 3337380
" />
<path d="M62778095 3813571
L63349523 3813571
" />
<path d="M63349523 4337380
L63349523 3337380
" />
<path d="M64301904 3337380
L63825714 3337380
L63778095 3813571
L63825714 3765952
L63920952 3718333
L64159047 3718333
L64254285 3765952
L64301904 3813571
L64349523 3908809
L64349523 4146904
L64301904 4242142
L64254285 4289761
L64159047 4337380
L63920952 4337380
L63825714 4289761
L63778095 4242142
" />
</g><text x="123230000.000000" y="32325000.000000"
textLength="2195000.000000" font-size="1333333.000000" lengthAdjust="spacingAndGlyphs"
text-anchor="middle" opacity="0">H4</text>
<g class="stroked-text"><desc>H4</desc>
<path d="M122468095 32277380
L122468095 31277380
" />
<path d="M122468095 31753571
L123039523 31753571
" />
<path d="M123039523 32277380
L123039523 31277380
" />
<path d="M123944285 31610714
L123944285 32277380
" />
<path d="M123706190 31229761
L123468095 31944047
L124087142 31944047
" />
</g><text x="112435000.000000" y="27880000.000000"
textLength="3242619.000000" font-size="1333333.000000" lengthAdjust="spacingAndGlyphs"
text-anchor="middle" opacity="0">SW4</text>
<g class="stroked-text"><desc>SW4</desc>
<path d="M111101666 27784761
L111244523 27832380
L111482619 27832380
L111577857 27784761
L111625476 27737142
L111673095 27641904
L111673095 27546666
L111625476 27451428
L111577857 27403809
L111482619 27356190
L111292142 27308571
L111196904 27260952
L111149285 27213333
L111101666 27118095
L111101666 27022857
L111149285 26927619
L111196904 26880000
L111292142 26832380
L111530238 26832380
L111673095 26880000
" />
<path d="M112006428 26832380
L112244523 27832380
L112435000 27118095
L112625476 27832380
L112863571 26832380
" />
<path d="M113673095 27165714
L113673095 27832380
" />
<path d="M113435000 26784761
L113196904 27499047
L113815952 27499047
" />
</g><g transform="rotate(-90.000000 58460000.000000 21665000.000000)">
<text x="58460000.000000" y="22165000.000000"
textLength="2147381.000000" font-size="1333333.000000" lengthAdjust="spacingAndGlyphs"
text-anchor="middle" opacity="0">C3</text>
</g>
<g class="stroked-text"><desc>C3</desc>
<path d="M58817142 21831666
L58864761 21879285
L58912380 22022142
L58912380 22117380
L58864761 22260238
L58769523 22355476
L58674285 22403095
L58483809 22450714
L58340952 22450714
L58150476 22403095
L58055238 22355476
L57960000 22260238
L57912380 22117380
L57912380 22022142
L57960000 21879285
L58007619 21831666
" />
<path d="M57912380 21498333
L57912380 20879285
L58293333 21212619
L58293333 21069761
L58340952 20974523
L58388571 20926904
L58483809 20879285
L58721904 20879285
L58817142 20926904
L58864761 20974523
L58912380 21069761
L58912380 21355476
L58864761 21450714
L58817142 21498333
" />
</g><text x="78155000.000000" y="3115000.000000"
textLength="1909286.000000" font-size="1333333.000000" lengthAdjust="spacingAndGlyphs"
text-anchor="middle" opacity="0">J4</text>
<g class="stroked-text"><desc>J4</desc>
<path d="M77821666 2067380
L77821666 2781666
L77774047 2924523
L77678809 3019761
L77535952 3067380
L77440714 3067380
" />
<path d="M78726428 2400714
L78726428 3067380
" />
<path d="M78488333 2019761
L78250238 2734047
L78869285 2734047
" />
</g><text x="29885000.000000" y="27880000.000000"
textLength="3242619.000000" font-size="1333333.000000" lengthAdjust="spacingAndGlyphs"
text-anchor="middle" opacity="0">SW2</text>
<g class="stroked-text"><desc>SW2</desc>
<path d="M28551666 27784761
L28694523 27832380
L28932619 27832380
L29027857 27784761
L29075476 27737142
L29123095 27641904
L29123095 27546666
L29075476 27451428
L29027857 27403809
L28932619 27356190
L28742142 27308571
L28646904 27260952
L28599285 27213333
L28551666 27118095
L28551666 27022857
L28599285 26927619
L28646904 26880000
L28742142 26832380
L28980238 26832380
L29123095 26880000
" />
<path d="M29456428 26832380
L29694523 27832380
L29885000 27118095
L30075476 27832380
L30313571 26832380
" />
<path d="M30646904 26927619
L30694523 26880000
L30789761 26832380
L31027857 26832380
L31123095 26880000
L31170714 26927619
L31218333 27022857
L31218333 27118095
L31170714 27260952
L30599285 27832380
L31218333 27832380
" />
</g><text x="123230000.000000" y="4385000.000000"
textLength="2195000.000000" font-size="1333333.000000" lengthAdjust="spacingAndGlyphs"
text-anchor="middle" opacity="0">H3</text>
<g class="stroked-text"><desc>H3</desc>
<path d="M122468095 4337380
L122468095 3337380
" />
<path d="M122468095 3813571
L123039523 3813571
" />
<path d="M123039523 4337380
L123039523 3337380
" />
<path d="M123420476 3337380
L124039523 3337380
L123706190 3718333
L123849047 3718333
L123944285 3765952
L123991904 3813571
L124039523 3908809
L124039523 4146904
L123991904 4242142
L123944285 4289761
L123849047 4337380
L123563333 4337380
L123468095 4289761
L123420476 4242142
" />
</g><text x="3850000.000000" y="4385000.000000"
textLength="2195000.000000" font-size="1333333.000000" lengthAdjust="spacingAndGlyphs"
text-anchor="middle" opacity="0">H2</text>
<g class="stroked-text"><desc>H2</desc>
<path d="M3088095 4337380
L3088095 3337380
" />
<path d="M3088095 3813571
L3659523 3813571
" />
<path d="M3659523 4337380
L3659523 3337380
" />
<path d="M4088095 3432619
L4135714 3385000
L4230952 3337380
L4469047 3337380
L4564285 3385000
L4611904 3432619
L4659523 3527857
L4659523 3623095
L4611904 3765952
L4040476 4337380
L4659523 4337380
" />
</g><text x="93385000.000000" y="32325000.000000"
textLength="2195000.000000" font-size="1333333.000000" lengthAdjust="spacingAndGlyphs"
text-anchor="middle" opacity="0">H7</text>
<g class="stroked-text"><desc>H7</desc>
<path d="M92623095 32277380
L92623095 31277380
" />
<path d="M92623095 31753571
L93194523 31753571
" />
<path d="M93194523 32277380
L93194523 31277380
" />
<path d="M93575476 31277380
L94242142 31277380
L93813571 32277380
" />
</g><g transform="rotate(-90.000000 42585000.000000 19760000.000000)">
<text x="42585000.000000" y="20260000.000000"
textLength="2195000.000000" font-size="1333333.000000" lengthAdjust="spacingAndGlyphs"
text-anchor="middle" opacity="0">U1</text>
</g>
<g class="stroked-text"><desc>U1</desc>
<path d="M42037380 20521904
L42846904 20521904
L42942142 20474285
L42989761 20426666
L43037380 20331428
L43037380 20140952
L42989761 20045714
L42942142 19998095
L42846904 19950476
L42037380 19950476
" />
<path d="M43037380 18950476
L43037380 19521904
" />
<path d="M43037380 19236190
L42037380 19236190
L42180238 19331428
L42275476 19426666
L42323095 19521904
" />
</g><text x="93385000.000000" y="4385000.000000"
textLength="2195000.000000" font-size="1333333.000000" lengthAdjust="spacingAndGlyphs"
text-anchor="middle" opacity="0">H8</text>
<g class="stroked-text"><desc>H8</desc>
<path d="M92623095 4337380
L92623095 3337380
" />
<path d="M92623095 3813571
L93194523 3813571
" />
<path d="M93194523 4337380
L93194523 3337380
" />
<path d="M93813571 3765952
L93718333 3718333
L93670714 3670714
L93623095 3575476
L93623095 3527857
L93670714 3432619
L93718333 3385000
L93813571 3337380
L94004047 3337380
L94099285 3385000
L94146904 3432619
L94194523 3527857
L94194523 3575476
L94146904 3670714
L94099285 3718333
L94004047 3765952
L93813571 3765952
L93718333 3813571
L93670714 3861190
L93623095 3956428
L93623095 4146904
L93670714 4242142
L93718333 4289761
L93813571 4337380
L94004047 4337380
L94099285 4289761
L94146904 4242142
L94194523 4146904
L94194523 3956428
L94146904 3861190
L94099285 3813571
L94004047 3765952
" />
</g><text x="63540000.000000" y="32325000.000000"
textLength="2195000.000000" font-size="1333333.000000" lengthAdjust="spacingAndGlyphs"
text-anchor="middle" opacity="0">H6</text>
<g class="stroked-text"><desc>H6</desc>
<path d="M62778095 32277380
L62778095 31277380
" />
<path d="M62778095 31753571
L63349523 31753571
" />
<path d="M63349523 32277380
L63349523 31277380
" />
<path d="M64254285 31277380
L64063809 31277380
L63968571 31325000
L63920952 31372619
L63825714 31515476
L63778095 31705952
L63778095 32086904
L63825714 32182142
L63873333 32229761
L63968571 32277380
L64159047 32277380
L64254285 32229761
L64301904 32182142
L64349523 32086904
L64349523 31848809
L64301904 31753571
L64254285 31705952
L64159047 31658333
L63968571 31658333
L63873333 31705952
L63825714 31753571
L63778095 31848809
" />
</g></g>
<g style="fill:#848484; fill-opacity:0.0; 
stroke:#848484; stroke-width:100000.000000; stroke-opacity:1; 
stroke-linecap:round; stroke-linejoin:round;">
<path d="M99735000 3885000
L101640000 3885000
" />
<path d="M101640000 14045000
L99100000 14045000
" />
<path d="M99100000 14045000
L99100000 4520000
" />
<path d="M101640000 3885000
L101640000 14045000
" />
<path d="M99100000 4520000
L99735000 3885000
" />
<path d="M19475000 24380000
L19475000 30380000
" />
<path d="M13475000 30380000
L13475000 24380000
" />
<path d="M13475000 24380000
L19475000 24380000
" />
<path d="M19475000 30380000
L16475000 30380000
" />
<path d="M16475000 30380000
L13475000 30380000
" />
<circle cx="16475000.000000" cy="27380000.000000" r="2015564.000000" /> 
<path d="M105865000 4035000
L105865000 16435000
" />
<path d="M105865000 16435000
L119265000 16435000
" />
<path d="M119265000 4035000
L105865000 4035000
" />
<path d="M119265000 16435000
L119265000 4035000
" />
<circle cx="112565000.000000" cy="10235000.000000" r="3000000.000000" /> 
<path d="M1715000 9068810
L1715000 11401190
" />
<path d="M1714444.919901 11400476.062212 A1900000.000000 1900000.000000 0.0 1 0 1714999.816364 9068809.857231" />
<circle cx="3215000.000000" cy="10235000.000000" r="1500000.000000" /> 
<path d="M109435000 30380000
L109435000 24380000
" />
<path d="M109435000 24380000
L112435000 24380000
" />
<path d="M112435000 24380000
L115435000 24380000
" />
<path d="M115435000 30380000
L109435000 30380000
" />
<path d="M115435000 24380000
L115435000 30380000
" />
<circle cx="112435000.000000" cy="27380000.000000" r="2015564.000000" /> 
<path d="M56336351 20813500
L56336351 20183500
" />
<path d="M56651351 20498500
L56021351 20498500
" />
<circle cx="53957379.000000" cy="19125000.000000" r="3150000.000000" /> 
<path d="M73075000 1345000
L83235000 1345000
" />
<path d="M73075000 3250000
L73075000 1345000
" />
<path d="M83235000 1345000
L83235000 3885000
" />
<path d="M73710000 3885000
L73075000 3250000
" />
<path d="M83235000 3885000
L73710000 3885000
" />
<path d="M28375000 9068810
L28375000 11401190
" />
<path d="M28374444.919901 11400476.062212 A1900000.000000 1900000.000000 0.0 1 0 28374999.816364 9068809.857231" />
<circle cx="29875000.000000" cy="10235000.000000" r="1500000.000000" /> 
<path d="M14985000 9072426
L14985000 11404806
" />
<path d="M14984444.919901 11404092.062212 A1900000.000000 1900000.000000 0.0 1 0 14984999.816364 9072425.857231" />
<circle cx="16485000.000000" cy="10238616.000000" r="1500000.000000" /> 
<path d="M32885000 24380000
L32885000 30380000
" />
<path d="M29885000 30380000
L26885000 30380000
" />
<path d="M26885000 24380000
L32885000 24380000
" />
<path d="M26885000 30380000
L26885000 24380000
" />
<path d="M32885000 30380000
L29885000 30380000
" />
<circle cx="29885000.000000" cy="27380000.000000" r="2015564.000000" /> 
<path d="M41690000 1345000
L47040000 1345000
" />
<path d="M48945000 21725000
L48945000 1285000
" />
<path d="M47040000 21665000
L40690000 21665000
" />
<path d="M40690000 21665000
L40690000 2345000
" />
<path d="M38785000 1285000
L38785000 21725000
" />
<path d="M40690000 2345000
L41690000 1345000
" />
<path d="M48945000 1285000
L38785000 1285000
" />
<path d="M38785000 21725000
L48945000 21725000
" />
<path d="M47040000 1345000
L47040000 21665000
" />
<g >
</g>
<g >
</g>
<g >
</g>
<g >
</g>
<g >
</g>
<g >
</g>
<g >
</g>
<g >
</g>
<g >
</g>
<g >
</g>
<g >
</g>
<g >
</g>
<g >
</g>
<g >
</g>
<g >
</g>
<g >
</g>
<g >
</g>
<g >
</g>
<g >
</g>
<g >
</g>
<g >
</g>
<g >
</g>
<g >
</g>
<g >
</g>
<g >
</g>
<g >
</g>
<g >
</g>
<g >
</g>
<g >
</g>
</g>
<g style="fill:#000000; fill-opacity:0.0; 
stroke:#000000; stroke-width:100000.000000; stroke-opacity:1; 
stroke-linecap:round; stroke-linejoin:round;">
</g>
<g style="fill:#C2C200; fill-opacity:0.0; 
stroke:#C2C200; stroke-width:100000.000000; stroke-opacity:1; 
stroke-linecap:round; stroke-linejoin:round;">
<path d="M127050000 75000
L50000 75000
" />
<path d="M50000 75000
L50000 35635000
" />
<path d="M50000 35635000
L127050000 35635000
" />
<path d="M127050000 35635000
L127050000 75000
" />
<g >
</g>
<g >
</g>
<g >
</g>
<g >
</g>
<g >
</g>
<g >
</g>
<g >
</g>
<g >
</g>
<g >
</g>
<g >
</g>
<g >
</g>
<g >
</g>
<g >
</g>
<g >
</g>
<g >
</g>
<g >
</g>
<g >
</g>
<g >
</g>
<g >
</g>
<g >
</g>
<g >
</g>
<g >
</g>
<g >
</g>
<g >
</g>
<g >
</g>
<g >
</g>
<g >
</g>
<g >
</g>
<g >
</g>
</g> 
</svg>
