<?xml version="1.0" standalone="no"?>
 <!DOCTYPE svg PUBLIC "-//W3C//DTD SVG 1.1//EN" 
 "http://www.w3.org/Graphics/SVG/1.1/DTD/svg11.dtd"> 
<svg
  xmlns:svg="http://www.w3.org/2000/svg"
  xmlns="http://www.w3.org/2000/svg"
  xmlns:xlink="http://www.w3.org/1999/xlink"
  version="1.1"
  width="12.707620cm" height="3.568700cm" viewBox="0 0 127076200 35687000">
<title>SVG Picture created as TapeDelay_Controls-B_Silkscreen.svg date 2023/09/01 14:02:21 </title>
  <desc>Picture generated by PCBNEW </desc>
<g style="fill:#000000; fill-opacity:1.000000;stroke:#000000; stroke-opacity:1.000000;
stroke-linecap:round; stroke-linejoin:round;"
 transform="translate(0 0) scale(1 1)">
</g>
<g style="fill:#000000; fill-opacity:0.0; 
stroke:#000000; stroke-width:0.000000; stroke-opacity:1; 
stroke-linecap:round; stroke-linejoin:round;">
</g>
<g style="fill:#840084; fill-opacity:0.0; 
stroke:#840084; stroke-width:0.000000; stroke-opacity:1; 
stroke-linecap:round; stroke-linejoin:round;">
</g>
<g style="fill:#840084; fill-opacity:0.0; 
stroke:#840084; stroke-width:150000.000000; stroke-opacity:1; 
stroke-linecap:round; stroke-linejoin:round;">
<text x="16830000.000000" y="13360000.000000"
transform="scale(-1 1) translate(-33660000.000000 0)"
textLength="1802381.000000" font-size="1333333.000000" lengthAdjust="spacingAndGlyphs"
text-anchor="middle" opacity="0">R3</text>
<g class="stroked-text"><desc>R3</desc>
<path d="M16996666 13312380
L17330000 12836190
" />
<path d="M17568095 13312380
L17568095 12312380
L17187142 12312380
L17091904 12360000
L17044285 12407619
L16996666 12502857
L16996666 12645714
L17044285 12740952
L17091904 12788571
L17187142 12836190
L17568095 12836190
" />
<path d="M16663333 12312380
L16044285 12312380
L16377619 12693333
L16234761 12693333
L16139523 12740952
L16091904 12788571
L16044285 12883809
L16044285 13121904
L16091904 13217142
L16139523 13264761
L16234761 13312380
L16520476 13312380
L16615714 13264761
L16663333 13217142
" />
</g><text x="28895000.000000" y="13995000.000000"
transform="scale(-1 1) translate(-57790000.000000 0)"
textLength="1757381.000000" font-size="1333333.000000" lengthAdjust="spacingAndGlyphs"
text-anchor="middle" opacity="0">R5</text>
<g class="stroked-text"><desc>R5</desc>
<path d="M29061666 13947380
L29395000 13471190
" />
<path d="M29633095 13947380
L29633095 12947380
L29252142 12947380
L29156904 12995000
L29109285 13042619
L29061666 13137857
L29061666 13280714
L29109285 13375952
L29156904 13423571
L29252142 13471190
L29633095 13471190
" />
<path d="M28156904 12947380
L28633095 12947380
L28680714 13423571
L28633095 13375952
L28537857 13328333
L28299761 13328333
L28204523 13375952
L28156904 13423571
L28109285 13518809
L28109285 13756904
L28156904 13852142
L28204523 13899761
L28299761 13947380
L28537857 13947380
L28633095 13899761
L28680714 13852142
" />
</g><text x="33695000.000000" y="3835000.000000"
transform="scale(-1 1) translate(-67390000.000000 0)"
textLength="1757381.000000" font-size="1333333.000000" lengthAdjust="spacingAndGlyphs"
text-anchor="middle" opacity="0">R4</text>
<g class="stroked-text"><desc>R4</desc>
<path d="M33861666 3787380
L34195000 3311190
" />
<path d="M34433095 3787380
L34433095 2787380
L34052142 2787380
L33956904 2835000
L33909285 2882619
L33861666 2977857
L33861666 3120714
L33909285 3215952
L33956904 3263571
L34052142 3311190
L34433095 3311190
" />
<path d="M33004523 3120714
L33004523 3787380
" />
<path d="M33242619 2739761
L33480714 3454047
L32861666 3454047
" />
</g><g transform="rotate(-90.000000 42005000.000000 3885000.000000)">
<text x="42005000.000000" y="4385000.000000"
transform="scale(-1 1) translate(-84010000.000000 0)"
textLength="1757381.000000" font-size="1333333.000000" lengthAdjust="spacingAndGlyphs"
text-anchor="middle" opacity="0">C1</text>
</g>
<g class="stroked-text"><desc>C1</desc>
<path d="M42362142 3718333
L42409761 3670714
L42457380 3527857
L42457380 3432619
L42409761 3289761
L42314523 3194523
L42219285 3146904
L42028809 3099285
L41885952 3099285
L41695476 3146904
L41600238 3194523
L41505000 3289761
L41457380 3432619
L41457380 3527857
L41505000 3670714
L41552619 3718333
" />
<path d="M42457380 4670714
L42457380 4099285
" />
<path d="M42457380 4385000
L41457380 4385000
L41600238 4289761
L41695476 4194523
L41743095 4099285
" />
</g><text x="3495000.000000" y="13360000.000000"
transform="scale(-1 1) translate(-6990000.000000 0)"
textLength="1757381.000000" font-size="1333333.000000" lengthAdjust="spacingAndGlyphs"
text-anchor="middle" opacity="0">R2</text>
<g class="stroked-text"><desc>R2</desc>
<path d="M3661666 13312380
L3995000 12836190
" />
<path d="M4233095 13312380
L4233095 12312380
L3852142 12312380
L3756904 12360000
L3709285 12407619
L3661666 12502857
L3661666 12645714
L3709285 12740952
L3756904 12788571
L3852142 12836190
L4233095 12836190
" />
<path d="M3280714 12407619
L3233095 12360000
L3137857 12312380
L2899761 12312380
L2804523 12360000
L2756904 12407619
L2709285 12502857
L2709285 12598095
L2756904 12740952
L3328333 13312380
L2709285 13312380
" />
</g><g transform="rotate(-90.000000 52745000.000000 6425000.000000)">
<text x="52745000.000000" y="6925000.000000"
transform="scale(-1 1) translate(-105490000.000000 0)"
textLength="1519286.000000" font-size="1333333.000000" lengthAdjust="spacingAndGlyphs"
text-anchor="middle" opacity="0">J5</text>
</g>
<g class="stroked-text"><desc>J5</desc>
<path d="M52197380 6091666
L52911666 6091666
L53054523 6044047
L53149761 5948809
L53197380 5805952
L53197380 5710714
" />
<path d="M52197380 7044047
L52197380 6567857
L52673571 6520238
L52625952 6567857
L52578333 6663095
L52578333 6901190
L52625952 6996428
L52673571 7044047
L52768809 7091666
L53006904 7091666
L53102142 7044047
L53149761 6996428
L53197380 6901190
L53197380 6663095
L53149761 6567857
L53102142 6520238
" />
</g><g transform="rotate(-90.000000 57825000.000000 6425000.000000)">
<text x="57825000.000000" y="6925000.000000"
transform="scale(-1 1) translate(-115650000.000000 0)"
textLength="6043095.000000" font-size="1333333.000000" lengthAdjust="spacingAndGlyphs"
text-anchor="middle" opacity="0">CPU I2C</text>
</g>
<g class="stroked-text"><desc>CPU I2C</desc>
<path d="M58182142 4115476
L58229761 4067857
L58277380 3925000
L58277380 3829761
L58229761 3686904
L58134523 3591666
L58039285 3544047
L57848809 3496428
L57705952 3496428
L57515476 3544047
L57420238 3591666
L57325000 3686904
L57277380 3829761
L57277380 3925000
L57325000 4067857
L57372619 4115476
" />
<path d="M58277380 4544047
L57277380 4544047
L57277380 4925000
L57325000 5020238
L57372619 5067857
L57467857 5115476
L57610714 5115476
L57705952 5067857
L57753571 5020238
L57801190 4925000
L57801190 4544047
" />
<path d="M57277380 5544047
L58086904 5544047
L58182142 5591666
L58229761 5639285
L58277380 5734523
L58277380 5925000
L58229761 6020238
L58182142 6067857
L58086904 6115476
L57277380 6115476
" />
<path d="M58277380 7353571
L57277380 7353571
" />
<path d="M57372619 7782142
L57325000 7829761
L57277380 7925000
L57277380 8163095
L57325000 8258333
L57372619 8305952
L57467857 8353571
L57563095 8353571
L57705952 8305952
L58277380 7734523
L58277380 8353571
" />
<path d="M58182142 9353571
L58229761 9305952
L58277380 9163095
L58277380 9067857
L58229761 8925000
L58134523 8829761
L58039285 8782142
L57848809 8734523
L57705952 8734523
L57515476 8782142
L57420238 8829761
L57325000 8925000
L57277380 9067857
L57277380 9163095
L57325000 9305952
L57372619 9353571
" />
</g><g transform="rotate(-90.000000 42035000.000000 11225000.000000)">
<text x="42035000.000000" y="11725000.000000"
transform="scale(-1 1) translate(-84070000.000000 0)"
textLength="1757381.000000" font-size="1333333.000000" lengthAdjust="spacingAndGlyphs"
text-anchor="middle" opacity="0">R1</text>
</g>
<g class="stroked-text"><desc>R1</desc>
<path d="M42487380 11058333
L42011190 10725000
" />
<path d="M42487380 10486904
L41487380 10486904
L41487380 10867857
L41535000 10963095
L41582619 11010714
L41677857 11058333
L41820714 11058333
L41915952 11010714
L41963571 10963095
L42011190 10867857
L42011190 10486904
" />
<path d="M42487380 12010714
L42487380 11439285
" />
<path d="M42487380 11725000
L41487380 11725000
L41630238 11629761
L41725476 11534523
L41773095 11439285
" />
</g></g>
<g style="fill:#840084; fill-opacity:0.0; 
stroke:#840084; stroke-width:120000.000000; stroke-opacity:1; 
stroke-linecap:round; stroke-linejoin:round;">
<path d="M17557064 15590000
L16102936 15590000
" />
<path d="M17557064 13770000
L16102936 13770000
" />
<path d="M29622064 14405000
L28167936 14405000
" />
<path d="M29622064 16225000
L28167936 16225000
" />
<path d="M34422064 4245000
L32967936 4245000
" />
<path d="M34422064 6065000
L32967936 6065000
" />
<path d="M42945000 3173748
L42945000 4596252
" />
<path d="M44765000 3173748
L44765000 4596252
" />
<path d="M4222064 15590000
L2767936 15590000
" />
<path d="M4222064 13770000
L2767936 13770000
" />
<path d="M53955000 8965000
L53955000 1285000
" />
<path d="M53955000 11565000
L55285000 11565000
" />
<path d="M56615000 8965000
L56615000 1285000
" />
<path d="M53955000 1285000
L56615000 1285000
" />
<path d="M53955000 10235000
L53955000 11565000
" />
<path d="M53955000 8965000
L56615000 8965000
" />
<path d="M42945000 10497936
L42945000 11952064
" />
<path d="M44765000 10497936
L44765000 11952064
" />
<g >
</g>
<g >
</g>
<g >
</g>
<g >
</g>
<g >
</g>
<g >
</g>
<g >
</g>
<g >
</g>
<g >
</g>
<g >
</g>
<g >
</g>
<g >
</g>
<g >
</g>
<g >
</g>
<g >
</g>
<g >
</g>
<g >
</g>
<g >
</g>
<g >
</g>
<g >
</g>
<g >
</g>
<g >
</g>
<g >
</g>
<g >
</g>
<g >
</g>
<g >
</g>
<g >
</g>
<g >
</g>
<g >
</g>
</g>
<g style="fill:#000000; fill-opacity:0.0; 
stroke:#000000; stroke-width:120000.000000; stroke-opacity:1; 
stroke-linecap:round; stroke-linejoin:round;">
</g>
<g style="fill:#C2C200; fill-opacity:0.0; 
stroke:#C2C200; stroke-width:120000.000000; stroke-opacity:1; 
stroke-linecap:round; stroke-linejoin:round;">
</g>
<g style="fill:#C2C200; fill-opacity:0.0; 
stroke:#C2C200; stroke-width:100000.000000; stroke-opacity:1; 
stroke-linecap:round; stroke-linejoin:round;">
<path d="M127050000 75000
L50000 75000
" />
<path d="M50000 75000
L50000 35635000
" />
<path d="M50000 35635000
L127050000 35635000
" />
<path d="M127050000 35635000
L127050000 75000
" />
<g >
</g>
<g >
</g>
<g >
</g>
<g >
</g>
<g >
</g>
<g >
</g>
<g >
</g>
<g >
</g>
<g >
</g>
<g >
</g>
<g >
</g>
<g >
</g>
<g >
</g>
<g >
</g>
<g >
</g>
<g >
</g>
<g >
</g>
<g >
</g>
<g >
</g>
<g >
</g>
<g >
</g>
<g >
</g>
<g >
</g>
<g >
</g>
<g >
</g>
<g >
</g>
<g >
</g>
<g >
</g>
<g >
</g>
</g> 
</svg>
