<?xml version="1.0" standalone="no"?>
 <!DOCTYPE svg PUBLIC "-//W3C//DTD SVG 1.1//EN" 
 "http://www.w3.org/Graphics/SVG/1.1/DTD/svg11.dtd"> 
<svg
  xmlns:svg="http://www.w3.org/2000/svg"
  xmlns="http://www.w3.org/2000/svg"
  xmlns:xlink="http://www.w3.org/1999/xlink"
  version="1.1"
  width="12.707620cm" height="3.568700cm" viewBox="0 0 127076200 35687000">
<title>SVG Picture created as TapeDelay_Controls-F_Courtyard.svg date 2023/09/01 14:02:21 </title>
  <desc>Picture generated by PCBNEW </desc>
<g style="fill:#000000; fill-opacity:1.000000;stroke:#000000; stroke-opacity:1.000000;
stroke-linecap:round; stroke-linejoin:round;"
 transform="translate(0 0) scale(1 1)">
</g>
<g style="fill:#000000; fill-opacity:0.0; 
stroke:#000000; stroke-width:0.000000; stroke-opacity:1; 
stroke-linecap:round; stroke-linejoin:round;">
</g>
<g style="fill:#C2C2C2; fill-opacity:0.0; 
stroke:#C2C2C2; stroke-width:0.000000; stroke-opacity:1; 
stroke-linecap:round; stroke-linejoin:round;">
</g>
<g style="fill:#C2C2C2; fill-opacity:0.0; 
stroke:#C2C2C2; stroke-width:50000.000000; stroke-opacity:1; 
stroke-linecap:round; stroke-linejoin:round;">
<path d="M102170000 14555000
L102170000 3355000
" />
<path d="M98570000 14555000
L102170000 14555000
" />
<path d="M98570000 3355000
L98570000 14555000
" />
<path d="M102170000 3355000
L98570000 3355000
" />
<path d="M21225000 23630000
L20975000 23630000
" />
<path d="M20975000 31130000
L11975000 31130000
" />
<path d="M21225000 31130000
L20975000 31130000
" />
<path d="M11975000 31130000
L11725000 31130000
" />
<path d="M21225000 30880000
L21225000 31130000
" />
<path d="M11725000 31130000
L11725000 30880000
" />
<path d="M21225000 23880000
L21225000 30880000
" />
<path d="M11725000 30880000
L11725000 23880000
" />
<path d="M11725000 23630000
L11725000 23880000
" />
<path d="M21225000 23880000
L21225000 23630000
" />
<path d="M11975000 23630000
L11725000 23630000
" />
<path d="M11975000 23630000
L20975000 23630000
" />
<path d="M114365000 1935000
L114365000 3635000
" />
<path d="M119565000 11685000
L120615000 11685000
" />
<path d="M110815000 1935000
L114365000 1935000
" />
<path d="M120615000 11685000
L120615000 13785000
" />
<path d="M119565000 3635000
L119565000 6685000
" />
<path d="M110815000 16835000
L105565000 16835000
" />
<path d="M105565000 3635000
L110815000 3635000
" />
<path d="M119565000 6685000
L120615000 6685000
" />
<path d="M110815000 18535000
L110815000 16835000
" />
<path d="M120615000 13785000
L119565000 13785000
" />
<path d="M114315000 16835000
L114315000 18535000
" />
<path d="M104015000 6685000
L105565000 6685000
" />
<path d="M105565000 13785000
L104015000 13785000
" />
<path d="M110815000 3635000
L110815000 1935000
" />
<path d="M104015000 13785000
L104015000 6685000
" />
<path d="M114315000 18535000
L110815000 18535000
" />
<path d="M105565000 6685000
L105565000 3635000
" />
<path d="M119565000 13785000
L119565000 16835000
" />
<path d="M105565000 16835000
L105565000 13785000
" />
<path d="M119565000 16835000
L114315000 16835000
" />
<path d="M114365000 3635000
L119565000 3635000
" />
<path d="M120615000 8785000
L119565000 8785000
" />
<path d="M119565000 8785000
L119565000 11685000
" />
<path d="M120615000 6685000
L120615000 8785000
" />
<circle cx="3850000.000000" cy="31825000.000000" r="3450000.000000" /> 
<circle cx="63540000.000000" cy="3885000.000000" r="3450000.000000" /> 
<path d="M5645000 7985000
L795000 7985000
" />
<path d="M795000 7985000
L795000 12485000
" />
<path d="M5645000 12485000
L5645000 7985000
" />
<path d="M795000 12485000
L5645000 12485000
" />
<circle cx="123230000.000000" cy="31825000.000000" r="3450000.000000" /> 
<path d="M116935000 31130000
L117185000 31130000
" />
<path d="M107935000 23630000
L116935000 23630000
" />
<path d="M107685000 30880000
L107685000 31130000
" />
<path d="M107685000 31130000
L107935000 31130000
" />
<path d="M116935000 23630000
L117185000 23630000
" />
<path d="M117185000 31130000
L117185000 30880000
" />
<path d="M116935000 31130000
L107935000 31130000
" />
<path d="M107685000 30880000
L107685000 23880000
" />
<path d="M117185000 23880000
L117185000 30880000
" />
<path d="M107685000 23630000
L107935000 23630000
" />
<path d="M107685000 23880000
L107685000 23630000
" />
<path d="M117185000 23630000
L117185000 23880000
" />
<circle cx="53957379.000000" cy="19125000.000000" r="3400000.000000" /> 
<path d="M83745000 815000
L72545000 815000
" />
<path d="M83745000 4415000
L83745000 815000
" />
<path d="M72545000 815000
L72545000 4415000
" />
<path d="M72545000 4415000
L83745000 4415000
" />
<path d="M33585000 12485000
L33585000 7985000
" />
<path d="M33585000 7985000
L26185000 7985000
" />
<path d="M26185000 7985000
L26185000 12485000
" />
<path d="M26185000 12485000
L33585000 12485000
" />
<path d="M18915000 12488616
L18915000 7988616
" />
<path d="M18915000 7988616
L14065000 7988616
" />
<path d="M14065000 12488616
L18915000 12488616
" />
<path d="M14065000 7988616
L14065000 12488616
" />
<path d="M34635000 23630000
L34385000 23630000
" />
<path d="M25135000 30880000
L25135000 23880000
" />
<path d="M34635000 23880000
L34635000 30880000
" />
<path d="M34635000 31130000
L34385000 31130000
" />
<path d="M34635000 23880000
L34635000 23630000
" />
<path d="M25385000 31130000
L25135000 31130000
" />
<path d="M25135000 31130000
L25135000 30880000
" />
<path d="M34635000 30880000
L34635000 31130000
" />
<path d="M34385000 31130000
L25385000 31130000
" />
<path d="M25385000 23630000
L34385000 23630000
" />
<path d="M25135000 23630000
L25135000 23880000
" />
<path d="M25385000 23630000
L25135000 23630000
" />
<circle cx="123230000.000000" cy="3885000.000000" r="3450000.000000" /> 
<circle cx="3850000.000000" cy="3885000.000000" r="3450000.000000" /> 
<circle cx="93385000.000000" cy="31825000.000000" r="3450000.000000" /> 
<path d="M49205000 1015000
L38505000 1015000
" />
<path d="M49205000 22015000
L49205000 1015000
" />
<path d="M38505000 1015000
L38505000 22015000
" />
<path d="M38505000 22015000
L49205000 22015000
" />
<circle cx="93385000.000000" cy="3885000.000000" r="3450000.000000" /> 
<circle cx="63540000.000000" cy="31825000.000000" r="3450000.000000" /> 
<g >
</g>
<g >
</g>
<g >
</g>
<g >
</g>
<g >
</g>
<g >
</g>
<g >
</g>
<g >
</g>
<g >
</g>
<g >
</g>
<g >
</g>
<g >
</g>
<g >
</g>
<g >
</g>
<g >
</g>
<g >
</g>
<g >
</g>
<g >
</g>
<g >
</g>
<g >
</g>
<g >
</g>
<g >
</g>
<g >
</g>
<g >
</g>
<g >
</g>
<g >
</g>
<g >
</g>
<g >
</g>
<g >
</g>
</g>
<g style="fill:#000000; fill-opacity:0.0; 
stroke:#000000; stroke-width:50000.000000; stroke-opacity:1; 
stroke-linecap:round; stroke-linejoin:round;">
</g>
<g style="fill:#C2C200; fill-opacity:0.0; 
stroke:#C2C200; stroke-width:50000.000000; stroke-opacity:1; 
stroke-linecap:round; stroke-linejoin:round;">
</g>
<g style="fill:#C2C200; fill-opacity:0.0; 
stroke:#C2C200; stroke-width:100000.000000; stroke-opacity:1; 
stroke-linecap:round; stroke-linejoin:round;">
<path d="M127050000 75000
L50000 75000
" />
<path d="M50000 75000
L50000 35635000
" />
<path d="M50000 35635000
L127050000 35635000
" />
<path d="M127050000 35635000
L127050000 75000
" />
<g >
</g>
<g >
</g>
<g >
</g>
<g >
</g>
<g >
</g>
<g >
</g>
<g >
</g>
<g >
</g>
<g >
</g>
<g >
</g>
<g >
</g>
<g >
</g>
<g >
</g>
<g >
</g>
<g >
</g>
<g >
</g>
<g >
</g>
<g >
</g>
<g >
</g>
<g >
</g>
<g >
</g>
<g >
</g>
<g >
</g>
<g >
</g>
<g >
</g>
<g >
</g>
<g >
</g>
<g >
</g>
<g >
</g>
</g> 
</svg>
