%TF.GenerationSoftware,KiCad,Pcbnew,4.0.7*%
%TF.CreationDate,2018-04-11T16:25:57+03:00*%
%TF.ProjectId,radar_01,72616461725F30312E6B696361645F70,rev?*%
%TF.FileFunction,Paste,Top*%
%FSLAX46Y46*%
G04 Gerber Fmt 4.6, Leading zero omitted, Abs format (unit mm)*
G04 Created by KiCad (PCBNEW 4.0.7) date 04/11/18 16:25:57*
%MOMM*%
%LPD*%
G01*
G04 APERTURE LIST*
%ADD10C,0.100000*%
%ADD11C,0.150000*%
%ADD12R,1.700000X2.000000*%
%ADD13R,1.600000X3.500000*%
%ADD14R,1.600000X2.000000*%
%ADD15R,1.500000X1.500000*%
%ADD16R,2.000000X1.700000*%
%ADD17R,1.600000X2.600000*%
%ADD18R,2.600000X1.600000*%
%ADD19R,3.500000X1.600000*%
%ADD20R,1.143000X0.508000*%
%ADD21R,1.500000X1.250000*%
G04 APERTURE END LIST*
D10*
D11*
X152400000Y-54610000D02*
X227330000Y-54610000D01*
X227330000Y-99060000D02*
X152400000Y-99060000D01*
X152400000Y-99060000D02*
X152400000Y-54610000D01*
X229870000Y-99060000D02*
X227330000Y-99060000D01*
X229870000Y-54610000D02*
X229870000Y-99060000D01*
X227330000Y-54610000D02*
X229870000Y-54610000D01*
X173990000Y-76835000D02*
G75*
G03X173990000Y-76835000I-1270000J0D01*
G01*
X212090000Y-76835000D02*
G75*
G03X212090000Y-76835000I-1270000J0D01*
G01*
X156210000Y-96520000D02*
G75*
G03X156210000Y-96520000I-1270000J0D01*
G01*
X156210000Y-57150000D02*
G75*
G03X156210000Y-57150000I-1270000J0D01*
G01*
X228600000Y-96520000D02*
G75*
G03X228600000Y-96520000I-1270000J0D01*
G01*
X228600000Y-57150000D02*
G75*
G03X228600000Y-57150000I-1270000J0D01*
G01*
D12*
X228600000Y-74390000D03*
X228600000Y-70390000D03*
D13*
X190500000Y-67470000D03*
X190500000Y-62070000D03*
D14*
X194310000Y-83090000D03*
X194310000Y-87090000D03*
X194310000Y-74200000D03*
X194310000Y-78200000D03*
X213360000Y-83090000D03*
X213360000Y-87090000D03*
D15*
X164845000Y-64770000D03*
X161545000Y-64770000D03*
D12*
X196850000Y-83090000D03*
X196850000Y-87090000D03*
X191770000Y-83090000D03*
X191770000Y-87090000D03*
X190500000Y-78200000D03*
X190500000Y-74200000D03*
D16*
X206470000Y-90170000D03*
X202470000Y-90170000D03*
X154845000Y-64770000D03*
X158845000Y-64770000D03*
D12*
X196850000Y-74200000D03*
X196850000Y-78200000D03*
X210820000Y-83090000D03*
X210820000Y-87090000D03*
D16*
X210090000Y-67310000D03*
X214090000Y-67310000D03*
X206470000Y-73660000D03*
X202470000Y-73660000D03*
X214090000Y-64770000D03*
X210090000Y-64770000D03*
D12*
X228600000Y-62770000D03*
X228600000Y-66770000D03*
D16*
X216440000Y-78740000D03*
X220440000Y-78740000D03*
D17*
X196850000Y-90910000D03*
X196850000Y-94510000D03*
D13*
X179070000Y-86200000D03*
X179070000Y-91600000D03*
D17*
X186690000Y-83290000D03*
X186690000Y-86890000D03*
X186690000Y-78000000D03*
X186690000Y-74400000D03*
D18*
X206270000Y-64770000D03*
X202670000Y-64770000D03*
X206270000Y-77470000D03*
X202670000Y-77470000D03*
D19*
X223680000Y-86360000D03*
X218280000Y-86360000D03*
D13*
X198120000Y-56990000D03*
X198120000Y-62390000D03*
D20*
X207645000Y-83185000D03*
X207645000Y-84455000D03*
X207645000Y-85725000D03*
X207645000Y-86995000D03*
X201295000Y-86995000D03*
X201295000Y-85725000D03*
X201295000Y-84455000D03*
X201295000Y-83185000D03*
D21*
X224770000Y-73660000D03*
X222270000Y-73660000D03*
X210840000Y-90170000D03*
X213340000Y-90170000D03*
M02*
