%TF.GenerationSoftware,KiCad,Pcbnew,4.0.7*%
%TF.CreationDate,2018-04-11T16:25:57+03:00*%
%TF.ProjectId,radar_01,72616461725F30312E6B696361645F70,rev?*%
%TF.FileFunction,Soldermask,Bot*%
%FSLAX46Y46*%
G04 Gerber Fmt 4.6, Leading zero omitted, Abs format (unit mm)*
G04 Created by KiCad (PCBNEW 4.0.7) date 04/11/18 16:25:57*
%MOMM*%
%LPD*%
G01*
G04 APERTURE LIST*
%ADD10C,0.100000*%
%ADD11C,0.150000*%
%ADD12C,1.924000*%
%ADD13R,2.400000X2.000000*%
%ADD14R,2.000000X2.400000*%
%ADD15R,2.400000X2.400000*%
%ADD16C,2.400000*%
%ADD17R,2.400000X2.100000*%
%ADD18R,3.900000X3.100000*%
%ADD19R,3.100000X3.900000*%
%ADD20R,3.400000X3.400000*%
%ADD21C,3.400000*%
%ADD22R,2.900000X2.900000*%
%ADD23C,2.900000*%
%ADD24R,2.000000X2.000000*%
%ADD25O,2.000000X2.000000*%
G04 APERTURE END LIST*
D10*
D11*
X152400000Y-54610000D02*
X227330000Y-54610000D01*
X227330000Y-99060000D02*
X152400000Y-99060000D01*
X152400000Y-99060000D02*
X152400000Y-54610000D01*
X229870000Y-99060000D02*
X227330000Y-99060000D01*
X229870000Y-54610000D02*
X229870000Y-99060000D01*
X227330000Y-54610000D02*
X229870000Y-54610000D01*
X173990000Y-76835000D02*
G75*
G03X173990000Y-76835000I-1270000J0D01*
G01*
X212090000Y-76835000D02*
G75*
G03X212090000Y-76835000I-1270000J0D01*
G01*
X156210000Y-96520000D02*
G75*
G03X156210000Y-96520000I-1270000J0D01*
G01*
X156210000Y-57150000D02*
G75*
G03X156210000Y-57150000I-1270000J0D01*
G01*
X228600000Y-96520000D02*
G75*
G03X228600000Y-96520000I-1270000J0D01*
G01*
X228600000Y-57150000D02*
G75*
G03X228600000Y-57150000I-1270000J0D01*
G01*
D12*
X171450000Y-93980000D03*
X173990000Y-93980000D03*
X173990000Y-59690000D03*
X176530000Y-59690000D03*
X209550000Y-93980000D03*
X212090000Y-93980000D03*
X209550000Y-59690000D03*
X212090000Y-59690000D03*
D13*
X163290000Y-86360000D03*
X159290000Y-86360000D03*
D14*
X204470000Y-87090000D03*
X204470000Y-83090000D03*
D13*
X163290000Y-68580000D03*
X159290000Y-68580000D03*
D14*
X220980000Y-68040000D03*
X220980000Y-64040000D03*
D15*
X227330000Y-88900000D03*
D16*
X227330000Y-91440000D03*
D17*
X206470000Y-93980000D03*
X202470000Y-93980000D03*
D18*
X167230000Y-91440000D03*
X160430000Y-91440000D03*
D19*
X227330000Y-79150000D03*
X227330000Y-85950000D03*
D18*
X205330000Y-57150000D03*
X198530000Y-57150000D03*
D20*
X160020000Y-95250000D03*
D21*
X165100000Y-95250000D03*
D20*
X165100000Y-58420000D03*
D21*
X160020000Y-58420000D03*
D12*
X219710000Y-96520000D03*
X222250000Y-96520000D03*
X217170000Y-96520000D03*
X219710000Y-57150000D03*
X222250000Y-57150000D03*
X217170000Y-57150000D03*
D22*
X154290000Y-86470000D03*
D23*
X168290000Y-86470000D03*
X168290000Y-68470000D03*
X154290000Y-68470000D03*
X156790000Y-86470000D03*
X165790000Y-86470000D03*
X165790000Y-68470000D03*
X156790000Y-68470000D03*
D24*
X217170000Y-62230000D03*
D25*
X224790000Y-69850000D03*
X217170000Y-64770000D03*
X224790000Y-67310000D03*
X217170000Y-67310000D03*
X224790000Y-64770000D03*
X217170000Y-69850000D03*
X224790000Y-62230000D03*
M02*
