%TF.GenerationSoftware,KiCad,Pcbnew,4.0.7*%
%TF.CreationDate,2018-04-11T16:25:57+03:00*%
%TF.ProjectId,radar_01,72616461725F30312E6B696361645F70,rev?*%
%TF.FileFunction,Copper,L1,Top,Signal*%
%FSLAX46Y46*%
G04 Gerber Fmt 4.6, Leading zero omitted, Abs format (unit mm)*
G04 Created by KiCad (PCBNEW 4.0.7) date 04/11/18 16:25:57*
%MOMM*%
%LPD*%
G01*
G04 APERTURE LIST*
%ADD10C,0.100000*%
%ADD11C,0.150000*%
%ADD12C,0.300000*%
%ADD13R,1.700000X2.000000*%
%ADD14C,1.524000*%
%ADD15R,1.600000X3.500000*%
%ADD16R,1.600000X2.000000*%
%ADD17R,1.500000X1.500000*%
%ADD18R,2.000000X2.000000*%
%ADD19C,2.000000*%
%ADD20R,2.000000X1.700000*%
%ADD21R,1.600000X2.600000*%
%ADD22R,2.600000X1.600000*%
%ADD23R,3.500000X1.600000*%
%ADD24R,3.000000X3.000000*%
%ADD25C,3.000000*%
%ADD26R,2.500000X2.500000*%
%ADD27C,2.500000*%
%ADD28R,1.143000X0.508000*%
%ADD29R,1.600000X1.600000*%
%ADD30O,1.600000X1.600000*%
%ADD31R,1.500000X1.250000*%
%ADD32C,1.500000*%
%ADD33C,0.500000*%
%ADD34C,0.254000*%
G04 APERTURE END LIST*
D10*
D11*
X152400000Y-54610000D02*
X227330000Y-54610000D01*
X227330000Y-99060000D02*
X152400000Y-99060000D01*
X152400000Y-99060000D02*
X152400000Y-54610000D01*
X229870000Y-99060000D02*
X227330000Y-99060000D01*
X229870000Y-54610000D02*
X229870000Y-99060000D01*
X227330000Y-54610000D02*
X229870000Y-54610000D01*
X173990000Y-76835000D02*
G75*
G03X173990000Y-76835000I-1270000J0D01*
G01*
X212090000Y-76835000D02*
G75*
G03X212090000Y-76835000I-1270000J0D01*
G01*
D12*
X181594286Y-69957143D02*
X182737143Y-69957143D01*
X182165714Y-70528571D02*
X182165714Y-69385714D01*
X184165715Y-69028571D02*
X183451429Y-69028571D01*
X183380000Y-69742857D01*
X183451429Y-69671429D01*
X183594286Y-69600000D01*
X183951429Y-69600000D01*
X184094286Y-69671429D01*
X184165715Y-69742857D01*
X184237143Y-69885714D01*
X184237143Y-70242857D01*
X184165715Y-70385714D01*
X184094286Y-70457143D01*
X183951429Y-70528571D01*
X183594286Y-70528571D01*
X183451429Y-70457143D01*
X183380000Y-70385714D01*
D11*
X156210000Y-96520000D02*
G75*
G03X156210000Y-96520000I-1270000J0D01*
G01*
X156210000Y-57150000D02*
G75*
G03X156210000Y-57150000I-1270000J0D01*
G01*
X228600000Y-96520000D02*
G75*
G03X228600000Y-96520000I-1270000J0D01*
G01*
X228600000Y-57150000D02*
G75*
G03X228600000Y-57150000I-1270000J0D01*
G01*
D13*
X228600000Y-74390000D03*
X228600000Y-70390000D03*
D14*
X171450000Y-93980000D03*
X173990000Y-93980000D03*
X173990000Y-59690000D03*
X176530000Y-59690000D03*
X209550000Y-93980000D03*
X212090000Y-93980000D03*
X209550000Y-59690000D03*
X212090000Y-59690000D03*
D15*
X190500000Y-67470000D03*
X190500000Y-62070000D03*
D16*
X194310000Y-83090000D03*
X194310000Y-87090000D03*
X194310000Y-74200000D03*
X194310000Y-78200000D03*
X213360000Y-83090000D03*
X213360000Y-87090000D03*
D17*
X164845000Y-64770000D03*
X161545000Y-64770000D03*
D18*
X227330000Y-88900000D03*
D19*
X227330000Y-91440000D03*
D13*
X196850000Y-83090000D03*
X196850000Y-87090000D03*
X191770000Y-83090000D03*
X191770000Y-87090000D03*
X190500000Y-78200000D03*
X190500000Y-74200000D03*
D20*
X206470000Y-90170000D03*
X202470000Y-90170000D03*
X154845000Y-64770000D03*
X158845000Y-64770000D03*
D13*
X196850000Y-74200000D03*
X196850000Y-78200000D03*
X210820000Y-83090000D03*
X210820000Y-87090000D03*
D20*
X210090000Y-67310000D03*
X214090000Y-67310000D03*
X206470000Y-73660000D03*
X202470000Y-73660000D03*
X214090000Y-64770000D03*
X210090000Y-64770000D03*
D13*
X228600000Y-62770000D03*
X228600000Y-66770000D03*
D20*
X216440000Y-78740000D03*
X220440000Y-78740000D03*
D21*
X196850000Y-90910000D03*
X196850000Y-94510000D03*
D15*
X179070000Y-86200000D03*
X179070000Y-91600000D03*
D21*
X186690000Y-83290000D03*
X186690000Y-86890000D03*
X186690000Y-78000000D03*
X186690000Y-74400000D03*
D22*
X206270000Y-64770000D03*
X202670000Y-64770000D03*
X206270000Y-77470000D03*
X202670000Y-77470000D03*
D23*
X223680000Y-86360000D03*
X218280000Y-86360000D03*
D24*
X160020000Y-95250000D03*
D25*
X165100000Y-95250000D03*
D24*
X165100000Y-58420000D03*
D25*
X160020000Y-58420000D03*
D14*
X219710000Y-96520000D03*
X222250000Y-96520000D03*
X217170000Y-96520000D03*
X219710000Y-57150000D03*
X222250000Y-57150000D03*
X217170000Y-57150000D03*
D15*
X198120000Y-56990000D03*
X198120000Y-62390000D03*
D26*
X154290000Y-86470000D03*
D27*
X168290000Y-86470000D03*
X168290000Y-68470000D03*
X154290000Y-68470000D03*
X156790000Y-86470000D03*
X165790000Y-86470000D03*
X165790000Y-68470000D03*
X156790000Y-68470000D03*
D28*
X207645000Y-83185000D03*
X207645000Y-84455000D03*
X207645000Y-85725000D03*
X207645000Y-86995000D03*
X201295000Y-86995000D03*
X201295000Y-85725000D03*
X201295000Y-84455000D03*
X201295000Y-83185000D03*
D29*
X217170000Y-62230000D03*
D30*
X224790000Y-69850000D03*
X217170000Y-64770000D03*
X224790000Y-67310000D03*
X217170000Y-67310000D03*
X224790000Y-64770000D03*
X217170000Y-69850000D03*
X224790000Y-62230000D03*
D31*
X224770000Y-73660000D03*
X222270000Y-73660000D03*
X210840000Y-90170000D03*
X213340000Y-90170000D03*
D32*
X217170000Y-73660000D03*
X215900000Y-88900000D03*
X199390000Y-88900000D03*
X200660000Y-67310000D03*
X203200000Y-59690000D03*
X207010000Y-81280000D03*
X214630000Y-73660000D03*
X209550000Y-73660000D03*
X191770000Y-57150000D03*
D33*
X196850000Y-90910000D02*
X197380000Y-90910000D01*
X197380000Y-90910000D02*
X198120000Y-90170000D01*
X198120000Y-90170000D02*
X202470000Y-90170000D01*
X201295000Y-85725000D02*
X202565000Y-85725000D01*
X203200000Y-86360000D02*
X203200000Y-89440000D01*
X202565000Y-85725000D02*
X203200000Y-86360000D01*
X203200000Y-89440000D02*
X202470000Y-90170000D01*
X209550000Y-93980000D02*
X212090000Y-93980000D01*
X196850000Y-94510000D02*
X196850000Y-95250000D01*
X196850000Y-95250000D02*
X198120000Y-96520000D01*
X198120000Y-96520000D02*
X208280000Y-96520000D01*
X208280000Y-96520000D02*
X209550000Y-95250000D01*
X209550000Y-95250000D02*
X209550000Y-93980000D01*
X165790000Y-86470000D02*
X168290000Y-86470000D01*
X179070000Y-86200000D02*
X168560000Y-86200000D01*
X168560000Y-86200000D02*
X168290000Y-86470000D01*
X156790000Y-86470000D02*
X154290000Y-86470000D01*
X165100000Y-95250000D02*
X165100000Y-92075000D01*
X165100000Y-92075000D02*
X159495000Y-86470000D01*
X159495000Y-86470000D02*
X154290000Y-86470000D01*
X154290000Y-68470000D02*
X154290000Y-86470000D01*
X154290000Y-68470000D02*
X156790000Y-68470000D01*
X154290000Y-68470000D02*
X154290000Y-65325000D01*
X154290000Y-65325000D02*
X154845000Y-64770000D01*
X179070000Y-91600000D02*
X179070000Y-93980000D01*
X190500000Y-62070000D02*
X178910000Y-62070000D01*
X178910000Y-62070000D02*
X176530000Y-59690000D01*
X198120000Y-62390000D02*
X200290000Y-62390000D01*
X200290000Y-62390000D02*
X202670000Y-64770000D01*
X190500000Y-62070000D02*
X197800000Y-62070000D01*
X197800000Y-62070000D02*
X198120000Y-62390000D01*
X217170000Y-73660000D02*
X217170000Y-69850000D01*
X173990000Y-93980000D02*
X179070000Y-93980000D01*
X179070000Y-93980000D02*
X185420000Y-93980000D01*
X185420000Y-93980000D02*
X186690000Y-92710000D01*
X186690000Y-92710000D02*
X186690000Y-86890000D01*
X218440000Y-87630000D02*
X218440000Y-86520000D01*
X217170000Y-88900000D02*
X218440000Y-87630000D01*
X215900000Y-88900000D02*
X217170000Y-88900000D01*
X218440000Y-86520000D02*
X218280000Y-86360000D01*
X202670000Y-77470000D02*
X202670000Y-73860000D01*
X202670000Y-73860000D02*
X202470000Y-73660000D01*
X201295000Y-86995000D02*
X199390000Y-88900000D01*
X187960000Y-88900000D02*
X186690000Y-87630000D01*
X199390000Y-88900000D02*
X187960000Y-88900000D01*
X186690000Y-87630000D02*
X186690000Y-86890000D01*
X201295000Y-83185000D02*
X203835000Y-83185000D01*
X217170000Y-92710000D02*
X217170000Y-96520000D01*
X215900000Y-91440000D02*
X217170000Y-92710000D01*
X209550000Y-91440000D02*
X215900000Y-91440000D01*
X208280000Y-92710000D02*
X209550000Y-91440000D01*
X205740000Y-92710000D02*
X208280000Y-92710000D01*
X204470000Y-91440000D02*
X205740000Y-92710000D01*
X204470000Y-83820000D02*
X204470000Y-91440000D01*
X203835000Y-83185000D02*
X204470000Y-83820000D01*
X194310000Y-83090000D02*
X196850000Y-83090000D01*
X201295000Y-83185000D02*
X196945000Y-83185000D01*
X196945000Y-83185000D02*
X196850000Y-83090000D01*
X194310000Y-87090000D02*
X196850000Y-87090000D01*
X191770000Y-87090000D02*
X194310000Y-87090000D01*
X201295000Y-84455000D02*
X200025000Y-84455000D01*
X200025000Y-84455000D02*
X197390000Y-87090000D01*
X197390000Y-87090000D02*
X196850000Y-87090000D01*
X209550000Y-59690000D02*
X212090000Y-59690000D01*
X224790000Y-62230000D02*
X228060000Y-62230000D01*
X228060000Y-62230000D02*
X228600000Y-62770000D01*
X216440000Y-78740000D02*
X216440000Y-79470000D01*
X216440000Y-79470000D02*
X215900000Y-80010000D01*
X215900000Y-80010000D02*
X209550000Y-80010000D01*
X190500000Y-67470000D02*
X169290000Y-67470000D01*
X169290000Y-67470000D02*
X168290000Y-68470000D01*
X165790000Y-68470000D02*
X165735000Y-68415000D01*
X165735000Y-68415000D02*
X165735000Y-65660000D01*
X165735000Y-65660000D02*
X164845000Y-64770000D01*
X209550000Y-59690000D02*
X203200000Y-59690000D01*
X200660000Y-67310000D02*
X200660000Y-67470000D01*
X200660000Y-67470000D02*
X200660000Y-67310000D01*
X200660000Y-67310000D02*
X200660000Y-67470000D01*
X190500000Y-67470000D02*
X200660000Y-67470000D01*
X200660000Y-67470000D02*
X209930000Y-67470000D01*
X209930000Y-67470000D02*
X210090000Y-67310000D01*
X190500000Y-74200000D02*
X190500000Y-67470000D01*
X210090000Y-67310000D02*
X210090000Y-71660000D01*
X214630000Y-76200000D02*
X214630000Y-78740000D01*
X210090000Y-71660000D02*
X214630000Y-76200000D01*
X207645000Y-83185000D02*
X207645000Y-81915000D01*
X207645000Y-81915000D02*
X209550000Y-80010000D01*
X214630000Y-78740000D02*
X216440000Y-78740000D01*
X207010000Y-81280000D02*
X207645000Y-81915000D01*
X191770000Y-83090000D02*
X186890000Y-83090000D01*
X186890000Y-83090000D02*
X186690000Y-83290000D01*
X210840000Y-90170000D02*
X210840000Y-87110000D01*
X210840000Y-87110000D02*
X210820000Y-87090000D01*
X210820000Y-87090000D02*
X213360000Y-87090000D01*
X207645000Y-85725000D02*
X210185000Y-85725000D01*
X210185000Y-85725000D02*
X210820000Y-86360000D01*
X210820000Y-86360000D02*
X210820000Y-87090000D01*
X219710000Y-96520000D02*
X219710000Y-91440000D01*
X219710000Y-91440000D02*
X218440000Y-90170000D01*
X218440000Y-90170000D02*
X213340000Y-90170000D01*
X190500000Y-78200000D02*
X186890000Y-78200000D01*
X186890000Y-78200000D02*
X186690000Y-78000000D01*
X207645000Y-86995000D02*
X206375000Y-86995000D01*
X198660000Y-80010000D02*
X196850000Y-78200000D01*
X199390000Y-80010000D02*
X198660000Y-80010000D01*
X200660000Y-81280000D02*
X199390000Y-80010000D01*
X204470000Y-81280000D02*
X200660000Y-81280000D01*
X205740000Y-82550000D02*
X204470000Y-81280000D01*
X205740000Y-86360000D02*
X205740000Y-82550000D01*
X206375000Y-86995000D02*
X205740000Y-86360000D01*
X194310000Y-78200000D02*
X196850000Y-78200000D01*
X186690000Y-78000000D02*
X194110000Y-78000000D01*
X194110000Y-78000000D02*
X194310000Y-78200000D01*
X207645000Y-86995000D02*
X207645000Y-88995000D01*
X207645000Y-88995000D02*
X206470000Y-90170000D01*
X218440000Y-76200000D02*
X220980000Y-76200000D01*
X222270000Y-74910000D02*
X222270000Y-73660000D01*
X220980000Y-76200000D02*
X222270000Y-74910000D01*
X213360000Y-83090000D02*
X216630000Y-83090000D01*
X218440000Y-81280000D02*
X218440000Y-76200000D01*
X216630000Y-83090000D02*
X218440000Y-81280000D01*
X210820000Y-83090000D02*
X213360000Y-83090000D01*
X207645000Y-84455000D02*
X210185000Y-84455000D01*
X210185000Y-84455000D02*
X210820000Y-83820000D01*
X210820000Y-83820000D02*
X210820000Y-83090000D01*
X228600000Y-74390000D02*
X225500000Y-74390000D01*
X225500000Y-74390000D02*
X224770000Y-73660000D01*
X214090000Y-64770000D02*
X217170000Y-64770000D01*
X224770000Y-73660000D02*
X224770000Y-69870000D01*
X224770000Y-69870000D02*
X224790000Y-69850000D01*
X206270000Y-64770000D02*
X210090000Y-64770000D01*
X210090000Y-64770000D02*
X212090000Y-64770000D01*
X212090000Y-67310000D02*
X214090000Y-67310000D01*
X212090000Y-64770000D02*
X212090000Y-67310000D01*
X214090000Y-67310000D02*
X217170000Y-67310000D01*
X219710000Y-57150000D02*
X219710000Y-66040000D01*
X218440000Y-67310000D02*
X217170000Y-67310000D01*
X219710000Y-66040000D02*
X218440000Y-67310000D01*
X217170000Y-57150000D02*
X219710000Y-57150000D01*
X224790000Y-67310000D02*
X225520000Y-67310000D01*
X225520000Y-67310000D02*
X228600000Y-70390000D01*
X206470000Y-73660000D02*
X209550000Y-73660000D01*
X219710000Y-72390000D02*
X224790000Y-67310000D01*
X219710000Y-73660000D02*
X219710000Y-72390000D01*
X218440000Y-74930000D02*
X219710000Y-73660000D01*
X215900000Y-74930000D02*
X218440000Y-74930000D01*
X214630000Y-73660000D02*
X215900000Y-74930000D01*
X224790000Y-67310000D02*
X223520000Y-67310000D01*
X222250000Y-57150000D02*
X222250000Y-66040000D01*
X222250000Y-66040000D02*
X223520000Y-67310000D01*
X206270000Y-77470000D02*
X206270000Y-73860000D01*
X206270000Y-73860000D02*
X206470000Y-73660000D01*
X227330000Y-88900000D02*
X227330000Y-87630000D01*
X227330000Y-87630000D02*
X226060000Y-86360000D01*
X226060000Y-86360000D02*
X223680000Y-86360000D01*
X158845000Y-64770000D02*
X161545000Y-64770000D01*
X224790000Y-64770000D02*
X226060000Y-64770000D01*
X226060000Y-64770000D02*
X228060000Y-66770000D01*
X228060000Y-66770000D02*
X228600000Y-66770000D01*
X227330000Y-91440000D02*
X220980000Y-91440000D01*
X220980000Y-91440000D02*
X220980000Y-79280000D01*
X220980000Y-79280000D02*
X220440000Y-78740000D01*
X198120000Y-56990000D02*
X191930000Y-56990000D01*
X191930000Y-56990000D02*
X191770000Y-57150000D01*
D34*
G36*
X196672560Y-56105000D02*
X192683801Y-56105000D01*
X192555564Y-55976539D01*
X192046702Y-55765241D01*
X191495715Y-55764760D01*
X190986485Y-55975169D01*
X190596539Y-56364436D01*
X190385241Y-56873298D01*
X190384760Y-57424285D01*
X190595169Y-57933515D01*
X190984436Y-58323461D01*
X191493298Y-58534759D01*
X192044285Y-58535240D01*
X192553515Y-58324831D01*
X192943461Y-57935564D01*
X192968609Y-57875000D01*
X196672560Y-57875000D01*
X196672560Y-58740000D01*
X196716838Y-58975317D01*
X196855910Y-59191441D01*
X197068110Y-59336431D01*
X197320000Y-59387440D01*
X198920000Y-59387440D01*
X199155317Y-59343162D01*
X199371441Y-59204090D01*
X199516431Y-58991890D01*
X199567440Y-58740000D01*
X199567440Y-55320000D01*
X226575902Y-55320000D01*
X226572287Y-55320719D01*
X225929929Y-55749929D01*
X225500719Y-56392287D01*
X225350000Y-57150000D01*
X225500719Y-57907713D01*
X225929929Y-58550071D01*
X226572287Y-58979281D01*
X227330000Y-59130000D01*
X228087713Y-58979281D01*
X228730071Y-58550071D01*
X229159281Y-57907713D01*
X229160000Y-57904098D01*
X229160000Y-61122560D01*
X227750000Y-61122560D01*
X227514683Y-61166838D01*
X227298559Y-61305910D01*
X227271850Y-61345000D01*
X225919473Y-61345000D01*
X225832811Y-61215302D01*
X225367264Y-60904233D01*
X224818113Y-60795000D01*
X224761887Y-60795000D01*
X224212736Y-60904233D01*
X223747189Y-61215302D01*
X223436120Y-61680849D01*
X223326887Y-62230000D01*
X223436120Y-62779151D01*
X223747189Y-63244698D01*
X224129275Y-63500000D01*
X223747189Y-63755302D01*
X223436120Y-64220849D01*
X223326887Y-64770000D01*
X223436120Y-65319151D01*
X223747189Y-65784698D01*
X224129275Y-66040000D01*
X223752999Y-66291420D01*
X223135000Y-65673420D01*
X223135000Y-58240478D01*
X223433629Y-57942370D01*
X223646757Y-57429100D01*
X223647242Y-56873339D01*
X223435010Y-56359697D01*
X223042370Y-55966371D01*
X222529100Y-55753243D01*
X221973339Y-55752758D01*
X221459697Y-55964990D01*
X221066371Y-56357630D01*
X220980051Y-56565512D01*
X220895010Y-56359697D01*
X220502370Y-55966371D01*
X219989100Y-55753243D01*
X219433339Y-55752758D01*
X218919697Y-55964990D01*
X218619163Y-56265000D01*
X218260478Y-56265000D01*
X217962370Y-55966371D01*
X217449100Y-55753243D01*
X216893339Y-55752758D01*
X216379697Y-55964990D01*
X215986371Y-56357630D01*
X215773243Y-56870900D01*
X215772758Y-57426661D01*
X215984990Y-57940303D01*
X216377630Y-58333629D01*
X216890900Y-58546757D01*
X217446661Y-58547242D01*
X217960303Y-58335010D01*
X218260837Y-58035000D01*
X218619522Y-58035000D01*
X218825000Y-58240837D01*
X218825000Y-65673421D01*
X218207001Y-66291420D01*
X217830725Y-66040000D01*
X218212811Y-65784698D01*
X218523880Y-65319151D01*
X218633113Y-64770000D01*
X218523880Y-64220849D01*
X218212811Y-63755302D01*
X218068535Y-63658899D01*
X218205317Y-63633162D01*
X218421441Y-63494090D01*
X218566431Y-63281890D01*
X218617440Y-63030000D01*
X218617440Y-61430000D01*
X218573162Y-61194683D01*
X218434090Y-60978559D01*
X218221890Y-60833569D01*
X217970000Y-60782560D01*
X216370000Y-60782560D01*
X216134683Y-60826838D01*
X215918559Y-60965910D01*
X215773569Y-61178110D01*
X215722560Y-61430000D01*
X215722560Y-63030000D01*
X215766838Y-63265317D01*
X215905910Y-63481441D01*
X216118110Y-63626431D01*
X216273089Y-63657815D01*
X216127189Y-63755302D01*
X216040527Y-63885000D01*
X215730854Y-63885000D01*
X215693162Y-63684683D01*
X215554090Y-63468559D01*
X215341890Y-63323569D01*
X215090000Y-63272560D01*
X213090000Y-63272560D01*
X212854683Y-63316838D01*
X212638559Y-63455910D01*
X212493569Y-63668110D01*
X212442560Y-63920000D01*
X212442560Y-63961645D01*
X212428675Y-63952367D01*
X212090000Y-63885000D01*
X211730854Y-63885000D01*
X211693162Y-63684683D01*
X211554090Y-63468559D01*
X211341890Y-63323569D01*
X211090000Y-63272560D01*
X209090000Y-63272560D01*
X208854683Y-63316838D01*
X208638559Y-63455910D01*
X208493569Y-63668110D01*
X208449648Y-63885000D01*
X208201446Y-63885000D01*
X208173162Y-63734683D01*
X208034090Y-63518559D01*
X207821890Y-63373569D01*
X207570000Y-63322560D01*
X204970000Y-63322560D01*
X204734683Y-63366838D01*
X204518559Y-63505910D01*
X204472031Y-63574006D01*
X204329698Y-63431673D01*
X204096309Y-63335000D01*
X202955750Y-63335000D01*
X202797000Y-63493750D01*
X202797000Y-64643000D01*
X202817000Y-64643000D01*
X202817000Y-64897000D01*
X202797000Y-64897000D01*
X202797000Y-66046250D01*
X202955750Y-66205000D01*
X204096309Y-66205000D01*
X204329698Y-66108327D01*
X204470936Y-65967090D01*
X204505910Y-66021441D01*
X204718110Y-66166431D01*
X204970000Y-66217440D01*
X207570000Y-66217440D01*
X207805317Y-66173162D01*
X208021441Y-66034090D01*
X208166431Y-65821890D01*
X208200227Y-65655000D01*
X208449146Y-65655000D01*
X208486838Y-65855317D01*
X208607015Y-66042077D01*
X208493569Y-66208110D01*
X208442560Y-66460000D01*
X208442560Y-66585000D01*
X201859009Y-66585000D01*
X201834831Y-66526485D01*
X201513906Y-66205000D01*
X202384250Y-66205000D01*
X202543000Y-66046250D01*
X202543000Y-64897000D01*
X200893750Y-64897000D01*
X200735000Y-65055750D01*
X200735000Y-65696310D01*
X200829788Y-65925148D01*
X200385715Y-65924760D01*
X199876485Y-66135169D01*
X199486539Y-66524436D01*
X199461391Y-66585000D01*
X191947440Y-66585000D01*
X191947440Y-65720000D01*
X191903162Y-65484683D01*
X191764090Y-65268559D01*
X191551890Y-65123569D01*
X191300000Y-65072560D01*
X189700000Y-65072560D01*
X189464683Y-65116838D01*
X189248559Y-65255910D01*
X189103569Y-65468110D01*
X189052560Y-65720000D01*
X189052560Y-66585000D01*
X169290005Y-66585000D01*
X169290000Y-66584999D01*
X168951326Y-66652366D01*
X168951324Y-66652367D01*
X168951325Y-66652367D01*
X168904075Y-66683938D01*
X168666595Y-66585328D01*
X167916695Y-66584674D01*
X167223628Y-66871043D01*
X167040145Y-67054207D01*
X166859161Y-66872907D01*
X166620000Y-66773599D01*
X166620000Y-65660005D01*
X166620001Y-65660000D01*
X166552633Y-65321326D01*
X166552633Y-65321325D01*
X166360790Y-65034210D01*
X166360787Y-65034208D01*
X166242440Y-64915861D01*
X166242440Y-64020000D01*
X166198162Y-63784683D01*
X166059090Y-63568559D01*
X165846890Y-63423569D01*
X165595000Y-63372560D01*
X164095000Y-63372560D01*
X163859683Y-63416838D01*
X163643559Y-63555910D01*
X163498569Y-63768110D01*
X163447560Y-64020000D01*
X163447560Y-65520000D01*
X163491838Y-65755317D01*
X163630910Y-65971441D01*
X163843110Y-66116431D01*
X164095000Y-66167440D01*
X164850000Y-66167440D01*
X164850000Y-66818827D01*
X164723628Y-66871043D01*
X164192907Y-67400839D01*
X163905328Y-68093405D01*
X163904674Y-68843305D01*
X164191043Y-69536372D01*
X164720839Y-70067093D01*
X165413405Y-70354672D01*
X166163305Y-70355326D01*
X166856372Y-70068957D01*
X167039855Y-69885793D01*
X167220839Y-70067093D01*
X167913405Y-70354672D01*
X168663305Y-70355326D01*
X169356372Y-70068957D01*
X169887093Y-69539161D01*
X170174672Y-68846595D01*
X170175101Y-68355000D01*
X180602143Y-68355000D01*
X180602143Y-71835000D01*
X185157857Y-71835000D01*
X185157857Y-68355000D01*
X189052560Y-68355000D01*
X189052560Y-69220000D01*
X189096838Y-69455317D01*
X189235910Y-69671441D01*
X189448110Y-69816431D01*
X189615000Y-69850227D01*
X189615000Y-72559146D01*
X189414683Y-72596838D01*
X189198559Y-72735910D01*
X189053569Y-72948110D01*
X189002560Y-73200000D01*
X189002560Y-75200000D01*
X189046838Y-75435317D01*
X189185910Y-75651441D01*
X189398110Y-75796431D01*
X189650000Y-75847440D01*
X191350000Y-75847440D01*
X191585317Y-75803162D01*
X191801441Y-75664090D01*
X191946431Y-75451890D01*
X191997440Y-75200000D01*
X191997440Y-74485750D01*
X192875000Y-74485750D01*
X192875000Y-75326309D01*
X192971673Y-75559698D01*
X193150301Y-75738327D01*
X193383690Y-75835000D01*
X194024250Y-75835000D01*
X194183000Y-75676250D01*
X194183000Y-74327000D01*
X194437000Y-74327000D01*
X194437000Y-75676250D01*
X194595750Y-75835000D01*
X195236310Y-75835000D01*
X195469699Y-75738327D01*
X195555000Y-75653026D01*
X195640301Y-75738327D01*
X195873690Y-75835000D01*
X196564250Y-75835000D01*
X196723000Y-75676250D01*
X196723000Y-74327000D01*
X196977000Y-74327000D01*
X196977000Y-75676250D01*
X197135750Y-75835000D01*
X197826310Y-75835000D01*
X198059699Y-75738327D01*
X198238327Y-75559698D01*
X198335000Y-75326309D01*
X198335000Y-74485750D01*
X198176250Y-74327000D01*
X196977000Y-74327000D01*
X196723000Y-74327000D01*
X194437000Y-74327000D01*
X194183000Y-74327000D01*
X193033750Y-74327000D01*
X192875000Y-74485750D01*
X191997440Y-74485750D01*
X191997440Y-73200000D01*
X191973674Y-73073691D01*
X192875000Y-73073691D01*
X192875000Y-73914250D01*
X193033750Y-74073000D01*
X194183000Y-74073000D01*
X194183000Y-72723750D01*
X194437000Y-72723750D01*
X194437000Y-74073000D01*
X196723000Y-74073000D01*
X196723000Y-72723750D01*
X196977000Y-72723750D01*
X196977000Y-74073000D01*
X198176250Y-74073000D01*
X198303500Y-73945750D01*
X200835000Y-73945750D01*
X200835000Y-74636310D01*
X200931673Y-74869699D01*
X201110302Y-75048327D01*
X201343691Y-75145000D01*
X202184250Y-75145000D01*
X202343000Y-74986250D01*
X202343000Y-73787000D01*
X202597000Y-73787000D01*
X202597000Y-74986250D01*
X202755750Y-75145000D01*
X203596309Y-75145000D01*
X203829698Y-75048327D01*
X204008327Y-74869699D01*
X204105000Y-74636310D01*
X204105000Y-73945750D01*
X203946250Y-73787000D01*
X202597000Y-73787000D01*
X202343000Y-73787000D01*
X200993750Y-73787000D01*
X200835000Y-73945750D01*
X198303500Y-73945750D01*
X198335000Y-73914250D01*
X198335000Y-73073691D01*
X198238327Y-72840302D01*
X198081716Y-72683690D01*
X200835000Y-72683690D01*
X200835000Y-73374250D01*
X200993750Y-73533000D01*
X202343000Y-73533000D01*
X202343000Y-72333750D01*
X202597000Y-72333750D01*
X202597000Y-73533000D01*
X203946250Y-73533000D01*
X204105000Y-73374250D01*
X204105000Y-72683690D01*
X204008327Y-72450301D01*
X203829698Y-72271673D01*
X203596309Y-72175000D01*
X202755750Y-72175000D01*
X202597000Y-72333750D01*
X202343000Y-72333750D01*
X202184250Y-72175000D01*
X201343691Y-72175000D01*
X201110302Y-72271673D01*
X200931673Y-72450301D01*
X200835000Y-72683690D01*
X198081716Y-72683690D01*
X198059699Y-72661673D01*
X197826310Y-72565000D01*
X197135750Y-72565000D01*
X196977000Y-72723750D01*
X196723000Y-72723750D01*
X196564250Y-72565000D01*
X195873690Y-72565000D01*
X195640301Y-72661673D01*
X195555000Y-72746974D01*
X195469699Y-72661673D01*
X195236310Y-72565000D01*
X194595750Y-72565000D01*
X194437000Y-72723750D01*
X194183000Y-72723750D01*
X194024250Y-72565000D01*
X193383690Y-72565000D01*
X193150301Y-72661673D01*
X192971673Y-72840302D01*
X192875000Y-73073691D01*
X191973674Y-73073691D01*
X191953162Y-72964683D01*
X191814090Y-72748559D01*
X191601890Y-72603569D01*
X191385000Y-72559648D01*
X191385000Y-69851446D01*
X191535317Y-69823162D01*
X191751441Y-69684090D01*
X191896431Y-69471890D01*
X191947440Y-69220000D01*
X191947440Y-68355000D01*
X199746199Y-68355000D01*
X199874436Y-68483461D01*
X200383298Y-68694759D01*
X200934285Y-68695240D01*
X201443515Y-68484831D01*
X201573572Y-68355000D01*
X208479252Y-68355000D01*
X208486838Y-68395317D01*
X208625910Y-68611441D01*
X208838110Y-68756431D01*
X209090000Y-68807440D01*
X209205000Y-68807440D01*
X209205000Y-71659995D01*
X209204999Y-71660000D01*
X209241091Y-71841441D01*
X209272367Y-71998675D01*
X209381871Y-72162560D01*
X209456946Y-72274918D01*
X209275715Y-72274760D01*
X208766485Y-72485169D01*
X208476148Y-72775000D01*
X208110854Y-72775000D01*
X208073162Y-72574683D01*
X207934090Y-72358559D01*
X207721890Y-72213569D01*
X207470000Y-72162560D01*
X205470000Y-72162560D01*
X205234683Y-72206838D01*
X205018559Y-72345910D01*
X204873569Y-72558110D01*
X204822560Y-72810000D01*
X204822560Y-74510000D01*
X204866838Y-74745317D01*
X205005910Y-74961441D01*
X205218110Y-75106431D01*
X205385000Y-75140227D01*
X205385000Y-76022560D01*
X204970000Y-76022560D01*
X204734683Y-76066838D01*
X204518559Y-76205910D01*
X204472031Y-76274006D01*
X204329698Y-76131673D01*
X204096309Y-76035000D01*
X202955750Y-76035000D01*
X202797000Y-76193750D01*
X202797000Y-77343000D01*
X202817000Y-77343000D01*
X202817000Y-77597000D01*
X202797000Y-77597000D01*
X202797000Y-78746250D01*
X202955750Y-78905000D01*
X204096309Y-78905000D01*
X204329698Y-78808327D01*
X204470936Y-78667090D01*
X204505910Y-78721441D01*
X204718110Y-78866431D01*
X204970000Y-78917440D01*
X207570000Y-78917440D01*
X207805317Y-78873162D01*
X208021441Y-78734090D01*
X208166431Y-78521890D01*
X208217440Y-78270000D01*
X208217440Y-76835000D01*
X208840000Y-76835000D01*
X208990719Y-77592713D01*
X209419929Y-78235071D01*
X210062287Y-78664281D01*
X210820000Y-78815000D01*
X211577713Y-78664281D01*
X212220071Y-78235071D01*
X212649281Y-77592713D01*
X212800000Y-76835000D01*
X212649281Y-76077287D01*
X212220071Y-75434929D01*
X211577713Y-75005719D01*
X210820000Y-74855000D01*
X210062287Y-75005719D01*
X209419929Y-75434929D01*
X208990719Y-76077287D01*
X208840000Y-76835000D01*
X208217440Y-76835000D01*
X208217440Y-76670000D01*
X208173162Y-76434683D01*
X208034090Y-76218559D01*
X207821890Y-76073569D01*
X207570000Y-76022560D01*
X207155000Y-76022560D01*
X207155000Y-75157440D01*
X207470000Y-75157440D01*
X207705317Y-75113162D01*
X207921441Y-74974090D01*
X208066431Y-74761890D01*
X208110352Y-74545000D01*
X208476477Y-74545000D01*
X208764436Y-74833461D01*
X209273298Y-75044759D01*
X209824285Y-75045240D01*
X210333515Y-74834831D01*
X210723461Y-74445564D01*
X210934759Y-73936702D01*
X210934916Y-73756496D01*
X213745000Y-76566579D01*
X213745000Y-78740000D01*
X213812367Y-79078675D01*
X213843320Y-79125000D01*
X209550005Y-79125000D01*
X209550000Y-79124999D01*
X209267516Y-79181190D01*
X209211325Y-79192367D01*
X208924210Y-79384210D01*
X208924208Y-79384213D01*
X207998546Y-80309875D01*
X207795564Y-80106539D01*
X207286702Y-79895241D01*
X206735715Y-79894760D01*
X206226485Y-80105169D01*
X205836539Y-80494436D01*
X205625241Y-81003298D01*
X205625084Y-81183504D01*
X205095790Y-80654210D01*
X204859736Y-80496485D01*
X204808675Y-80462367D01*
X204752484Y-80451190D01*
X204470000Y-80394999D01*
X204469995Y-80395000D01*
X201026579Y-80395000D01*
X200015790Y-79384210D01*
X199889760Y-79300000D01*
X199728675Y-79192367D01*
X199672484Y-79181190D01*
X199390000Y-79124999D01*
X199389995Y-79125000D01*
X199026579Y-79125000D01*
X198347440Y-78445860D01*
X198347440Y-77755750D01*
X200735000Y-77755750D01*
X200735000Y-78396310D01*
X200831673Y-78629699D01*
X201010302Y-78808327D01*
X201243691Y-78905000D01*
X202384250Y-78905000D01*
X202543000Y-78746250D01*
X202543000Y-77597000D01*
X200893750Y-77597000D01*
X200735000Y-77755750D01*
X198347440Y-77755750D01*
X198347440Y-77200000D01*
X198303162Y-76964683D01*
X198164090Y-76748559D01*
X197951890Y-76603569D01*
X197700000Y-76552560D01*
X196000000Y-76552560D01*
X195764683Y-76596838D01*
X195552174Y-76733584D01*
X195361890Y-76603569D01*
X195110000Y-76552560D01*
X193510000Y-76552560D01*
X193274683Y-76596838D01*
X193058559Y-76735910D01*
X192913569Y-76948110D01*
X192879773Y-77115000D01*
X191981446Y-77115000D01*
X191953162Y-76964683D01*
X191814090Y-76748559D01*
X191601890Y-76603569D01*
X191350000Y-76552560D01*
X189650000Y-76552560D01*
X189414683Y-76596838D01*
X189198559Y-76735910D01*
X189053569Y-76948110D01*
X189019773Y-77115000D01*
X188137440Y-77115000D01*
X188137440Y-76700000D01*
X188108029Y-76543690D01*
X200735000Y-76543690D01*
X200735000Y-77184250D01*
X200893750Y-77343000D01*
X202543000Y-77343000D01*
X202543000Y-76193750D01*
X202384250Y-76035000D01*
X201243691Y-76035000D01*
X201010302Y-76131673D01*
X200831673Y-76310301D01*
X200735000Y-76543690D01*
X188108029Y-76543690D01*
X188093162Y-76464683D01*
X187954090Y-76248559D01*
X187885994Y-76202031D01*
X188028327Y-76059698D01*
X188125000Y-75826309D01*
X188125000Y-74685750D01*
X187966250Y-74527000D01*
X186817000Y-74527000D01*
X186817000Y-74547000D01*
X186563000Y-74547000D01*
X186563000Y-74527000D01*
X185413750Y-74527000D01*
X185255000Y-74685750D01*
X185255000Y-75826309D01*
X185351673Y-76059698D01*
X185492910Y-76200936D01*
X185438559Y-76235910D01*
X185293569Y-76448110D01*
X185242560Y-76700000D01*
X185242560Y-79300000D01*
X185286838Y-79535317D01*
X185425910Y-79751441D01*
X185638110Y-79896431D01*
X185890000Y-79947440D01*
X187490000Y-79947440D01*
X187725317Y-79903162D01*
X187941441Y-79764090D01*
X188086431Y-79551890D01*
X188137440Y-79300000D01*
X188137440Y-79085000D01*
X189002560Y-79085000D01*
X189002560Y-79200000D01*
X189046838Y-79435317D01*
X189185910Y-79651441D01*
X189398110Y-79796431D01*
X189650000Y-79847440D01*
X191350000Y-79847440D01*
X191585317Y-79803162D01*
X191801441Y-79664090D01*
X191946431Y-79451890D01*
X191997440Y-79200000D01*
X191997440Y-78885000D01*
X192862560Y-78885000D01*
X192862560Y-79200000D01*
X192906838Y-79435317D01*
X193045910Y-79651441D01*
X193258110Y-79796431D01*
X193510000Y-79847440D01*
X195110000Y-79847440D01*
X195345317Y-79803162D01*
X195557826Y-79666416D01*
X195748110Y-79796431D01*
X196000000Y-79847440D01*
X197245861Y-79847440D01*
X198034208Y-80635787D01*
X198034210Y-80635790D01*
X198061778Y-80654210D01*
X198321326Y-80827634D01*
X198660000Y-80895001D01*
X198660005Y-80895000D01*
X199023420Y-80895000D01*
X200034208Y-81905787D01*
X200034210Y-81905790D01*
X200270264Y-82063515D01*
X200321325Y-82097633D01*
X200660000Y-82165001D01*
X200660005Y-82165000D01*
X204103420Y-82165000D01*
X204855000Y-82916579D01*
X204855000Y-82953421D01*
X204460790Y-82559210D01*
X204322652Y-82466910D01*
X204173675Y-82367367D01*
X204117484Y-82356190D01*
X203835000Y-82299999D01*
X203834995Y-82300000D01*
X201947683Y-82300000D01*
X201866500Y-82283560D01*
X200723500Y-82283560D01*
X200636129Y-82300000D01*
X198347440Y-82300000D01*
X198347440Y-82090000D01*
X198303162Y-81854683D01*
X198164090Y-81638559D01*
X197951890Y-81493569D01*
X197700000Y-81442560D01*
X196000000Y-81442560D01*
X195764683Y-81486838D01*
X195552174Y-81623584D01*
X195361890Y-81493569D01*
X195110000Y-81442560D01*
X193510000Y-81442560D01*
X193274683Y-81486838D01*
X193062174Y-81623584D01*
X192871890Y-81493569D01*
X192620000Y-81442560D01*
X190920000Y-81442560D01*
X190684683Y-81486838D01*
X190468559Y-81625910D01*
X190323569Y-81838110D01*
X190272560Y-82090000D01*
X190272560Y-82205000D01*
X188137440Y-82205000D01*
X188137440Y-81990000D01*
X188093162Y-81754683D01*
X187954090Y-81538559D01*
X187741890Y-81393569D01*
X187490000Y-81342560D01*
X185890000Y-81342560D01*
X185654683Y-81386838D01*
X185438559Y-81525910D01*
X185293569Y-81738110D01*
X185242560Y-81990000D01*
X185242560Y-84590000D01*
X185286838Y-84825317D01*
X185425910Y-85041441D01*
X185494006Y-85087969D01*
X185351673Y-85230302D01*
X185255000Y-85463691D01*
X185255000Y-86604250D01*
X185413750Y-86763000D01*
X186563000Y-86763000D01*
X186563000Y-86743000D01*
X186817000Y-86743000D01*
X186817000Y-86763000D01*
X187966250Y-86763000D01*
X188125000Y-86604250D01*
X188125000Y-85463691D01*
X188028327Y-85230302D01*
X187887090Y-85089064D01*
X187941441Y-85054090D01*
X188086431Y-84841890D01*
X188137440Y-84590000D01*
X188137440Y-83975000D01*
X190272560Y-83975000D01*
X190272560Y-84090000D01*
X190316838Y-84325317D01*
X190455910Y-84541441D01*
X190668110Y-84686431D01*
X190920000Y-84737440D01*
X192620000Y-84737440D01*
X192855317Y-84693162D01*
X193067826Y-84556416D01*
X193258110Y-84686431D01*
X193510000Y-84737440D01*
X195110000Y-84737440D01*
X195345317Y-84693162D01*
X195557826Y-84556416D01*
X195748110Y-84686431D01*
X196000000Y-84737440D01*
X197700000Y-84737440D01*
X197935317Y-84693162D01*
X198151441Y-84554090D01*
X198296431Y-84341890D01*
X198347440Y-84090000D01*
X198347440Y-84070000D01*
X199158421Y-84070000D01*
X197771401Y-85457019D01*
X197700000Y-85442560D01*
X196000000Y-85442560D01*
X195764683Y-85486838D01*
X195552174Y-85623584D01*
X195361890Y-85493569D01*
X195110000Y-85442560D01*
X193510000Y-85442560D01*
X193274683Y-85486838D01*
X193062174Y-85623584D01*
X192871890Y-85493569D01*
X192620000Y-85442560D01*
X190920000Y-85442560D01*
X190684683Y-85486838D01*
X190468559Y-85625910D01*
X190323569Y-85838110D01*
X190272560Y-86090000D01*
X190272560Y-88090000D01*
X190316838Y-88325317D01*
X190455910Y-88541441D01*
X190668110Y-88686431D01*
X190920000Y-88737440D01*
X192620000Y-88737440D01*
X192855317Y-88693162D01*
X193067826Y-88556416D01*
X193258110Y-88686431D01*
X193510000Y-88737440D01*
X195110000Y-88737440D01*
X195345317Y-88693162D01*
X195557826Y-88556416D01*
X195748110Y-88686431D01*
X196000000Y-88737440D01*
X197700000Y-88737440D01*
X197935317Y-88693162D01*
X198151441Y-88554090D01*
X198296431Y-88341890D01*
X198347440Y-88090000D01*
X198347440Y-87384140D01*
X198450829Y-87280750D01*
X200088500Y-87280750D01*
X200088500Y-87375309D01*
X200185173Y-87608698D01*
X200363801Y-87787327D01*
X200597190Y-87884000D01*
X201009250Y-87884000D01*
X201168000Y-87725250D01*
X201168000Y-87122000D01*
X200247250Y-87122000D01*
X200088500Y-87280750D01*
X198450829Y-87280750D01*
X200076060Y-85655519D01*
X200076060Y-85979000D01*
X200120338Y-86214317D01*
X200211104Y-86355371D01*
X200185173Y-86381302D01*
X200088500Y-86614691D01*
X200088500Y-86709250D01*
X200247250Y-86868000D01*
X201168000Y-86868000D01*
X201168000Y-86848000D01*
X201422000Y-86848000D01*
X201422000Y-86868000D01*
X201442000Y-86868000D01*
X201442000Y-87122000D01*
X201422000Y-87122000D01*
X201422000Y-87725250D01*
X201580750Y-87884000D01*
X201992810Y-87884000D01*
X202226199Y-87787327D01*
X202315000Y-87698526D01*
X202315000Y-88672560D01*
X201470000Y-88672560D01*
X201234683Y-88716838D01*
X201018559Y-88855910D01*
X200873569Y-89068110D01*
X200829648Y-89285000D01*
X198195453Y-89285000D01*
X198114090Y-89158559D01*
X197901890Y-89013569D01*
X197650000Y-88962560D01*
X196050000Y-88962560D01*
X195814683Y-89006838D01*
X195598559Y-89145910D01*
X195453569Y-89358110D01*
X195402560Y-89610000D01*
X195402560Y-92210000D01*
X195446838Y-92445317D01*
X195585910Y-92661441D01*
X195655711Y-92709134D01*
X195598559Y-92745910D01*
X195453569Y-92958110D01*
X195402560Y-93210000D01*
X195402560Y-95810000D01*
X195446838Y-96045317D01*
X195585910Y-96261441D01*
X195798110Y-96406431D01*
X196050000Y-96457440D01*
X196805860Y-96457440D01*
X197494208Y-97145787D01*
X197494210Y-97145790D01*
X197691648Y-97277713D01*
X197781325Y-97337633D01*
X198120000Y-97405001D01*
X198120005Y-97405000D01*
X208279995Y-97405000D01*
X208280000Y-97405001D01*
X208562484Y-97348810D01*
X208618675Y-97337633D01*
X208905790Y-97145790D01*
X208905791Y-97145789D01*
X210175787Y-95875792D01*
X210175790Y-95875790D01*
X210367633Y-95588675D01*
X210367633Y-95588674D01*
X210435001Y-95250000D01*
X210435000Y-95249995D01*
X210435000Y-95070478D01*
X210640837Y-94865000D01*
X210999522Y-94865000D01*
X211297630Y-95163629D01*
X211810900Y-95376757D01*
X212366661Y-95377242D01*
X212880303Y-95165010D01*
X213273629Y-94772370D01*
X213486757Y-94259100D01*
X213487242Y-93703339D01*
X213275010Y-93189697D01*
X212882370Y-92796371D01*
X212369100Y-92583243D01*
X211813339Y-92582758D01*
X211299697Y-92794990D01*
X210999163Y-93095000D01*
X210640478Y-93095000D01*
X210342370Y-92796371D01*
X209829100Y-92583243D01*
X209658485Y-92583094D01*
X209916579Y-92325000D01*
X215533420Y-92325000D01*
X216285000Y-93076579D01*
X216285000Y-95429522D01*
X215986371Y-95727630D01*
X215773243Y-96240900D01*
X215772758Y-96796661D01*
X215984990Y-97310303D01*
X216377630Y-97703629D01*
X216890900Y-97916757D01*
X217446661Y-97917242D01*
X217960303Y-97705010D01*
X218353629Y-97312370D01*
X218439949Y-97104488D01*
X218524990Y-97310303D01*
X218917630Y-97703629D01*
X219430900Y-97916757D01*
X219986661Y-97917242D01*
X220500303Y-97705010D01*
X220893629Y-97312370D01*
X220979949Y-97104488D01*
X221064990Y-97310303D01*
X221457630Y-97703629D01*
X221970900Y-97916757D01*
X222526661Y-97917242D01*
X223040303Y-97705010D01*
X223433629Y-97312370D01*
X223646757Y-96799100D01*
X223647242Y-96243339D01*
X223435010Y-95729697D01*
X223042370Y-95336371D01*
X222529100Y-95123243D01*
X221973339Y-95122758D01*
X221459697Y-95334990D01*
X221066371Y-95727630D01*
X220980051Y-95935512D01*
X220895010Y-95729697D01*
X220595000Y-95429163D01*
X220595000Y-92226680D01*
X220641325Y-92257633D01*
X220980000Y-92325000D01*
X225926602Y-92325000D01*
X225943106Y-92364943D01*
X226402637Y-92825278D01*
X227003352Y-93074716D01*
X227653795Y-93075284D01*
X228254943Y-92826894D01*
X228715278Y-92367363D01*
X228964716Y-91766648D01*
X228965284Y-91116205D01*
X228716894Y-90515057D01*
X228650379Y-90448426D01*
X228781441Y-90364090D01*
X228926431Y-90151890D01*
X228977440Y-89900000D01*
X228977440Y-87900000D01*
X228933162Y-87664683D01*
X228794090Y-87448559D01*
X228581890Y-87303569D01*
X228330000Y-87252560D01*
X228121731Y-87252560D01*
X227955790Y-87004210D01*
X227955787Y-87004208D01*
X226685790Y-85734210D01*
X226672006Y-85725000D01*
X226398675Y-85542367D01*
X226342484Y-85531190D01*
X226061502Y-85475298D01*
X226033162Y-85324683D01*
X225894090Y-85108559D01*
X225681890Y-84963569D01*
X225430000Y-84912560D01*
X221930000Y-84912560D01*
X221865000Y-84924791D01*
X221865000Y-80071104D01*
X221891441Y-80054090D01*
X222036431Y-79841890D01*
X222087440Y-79590000D01*
X222087440Y-77890000D01*
X222043162Y-77654683D01*
X221904090Y-77438559D01*
X221691890Y-77293569D01*
X221440000Y-77242560D01*
X219440000Y-77242560D01*
X219325000Y-77264199D01*
X219325000Y-77085000D01*
X220979995Y-77085000D01*
X220980000Y-77085001D01*
X221262484Y-77028810D01*
X221318675Y-77017633D01*
X221605790Y-76825790D01*
X222895787Y-75535792D01*
X222895790Y-75535790D01*
X223087633Y-75248675D01*
X223155000Y-74910000D01*
X223155000Y-74907038D01*
X223255317Y-74888162D01*
X223471441Y-74749090D01*
X223519134Y-74679289D01*
X223555910Y-74736441D01*
X223768110Y-74881431D01*
X224020000Y-74932440D01*
X224790861Y-74932440D01*
X224874208Y-75015787D01*
X224874210Y-75015790D01*
X225161325Y-75207633D01*
X225217516Y-75218810D01*
X225500000Y-75275001D01*
X225500005Y-75275000D01*
X227102560Y-75275000D01*
X227102560Y-75390000D01*
X227146838Y-75625317D01*
X227285910Y-75841441D01*
X227498110Y-75986431D01*
X227750000Y-76037440D01*
X229160000Y-76037440D01*
X229160000Y-95765902D01*
X229159281Y-95762287D01*
X228730071Y-95119929D01*
X228087713Y-94690719D01*
X227330000Y-94540000D01*
X226572287Y-94690719D01*
X225929929Y-95119929D01*
X225500719Y-95762287D01*
X225350000Y-96520000D01*
X225500719Y-97277713D01*
X225929929Y-97920071D01*
X226572287Y-98349281D01*
X226575902Y-98350000D01*
X155694098Y-98350000D01*
X155697713Y-98349281D01*
X156340071Y-97920071D01*
X156769281Y-97277713D01*
X156920000Y-96520000D01*
X156769281Y-95762287D01*
X156340071Y-95119929D01*
X155697713Y-94690719D01*
X154940000Y-94540000D01*
X154182287Y-94690719D01*
X153539929Y-95119929D01*
X153110719Y-95762287D01*
X153110000Y-95765902D01*
X153110000Y-93750000D01*
X157872560Y-93750000D01*
X157872560Y-96750000D01*
X157916838Y-96985317D01*
X158055910Y-97201441D01*
X158268110Y-97346431D01*
X158520000Y-97397440D01*
X161520000Y-97397440D01*
X161755317Y-97353162D01*
X161971441Y-97214090D01*
X162116431Y-97001890D01*
X162164611Y-96763970D01*
X163765635Y-96763970D01*
X163925418Y-97082739D01*
X164716187Y-97392723D01*
X165565387Y-97376497D01*
X166274582Y-97082739D01*
X166434365Y-96763970D01*
X165100000Y-95429605D01*
X163765635Y-96763970D01*
X162164611Y-96763970D01*
X162167440Y-96750000D01*
X162167440Y-94866187D01*
X162957277Y-94866187D01*
X162973503Y-95715387D01*
X163267261Y-96424582D01*
X163586030Y-96584365D01*
X164920395Y-95250000D01*
X165279605Y-95250000D01*
X166613970Y-96584365D01*
X166932739Y-96424582D01*
X167242723Y-95633813D01*
X167229853Y-94960213D01*
X170649392Y-94960213D01*
X170718857Y-95202397D01*
X171242302Y-95389144D01*
X171797368Y-95361362D01*
X172181143Y-95202397D01*
X172250608Y-94960213D01*
X173189392Y-94960213D01*
X173258857Y-95202397D01*
X173782302Y-95389144D01*
X174337368Y-95361362D01*
X174721143Y-95202397D01*
X174790608Y-94960213D01*
X173990000Y-94159605D01*
X173189392Y-94960213D01*
X172250608Y-94960213D01*
X171450000Y-94159605D01*
X170649392Y-94960213D01*
X167229853Y-94960213D01*
X167226497Y-94784613D01*
X166932739Y-94075418D01*
X166613970Y-93915635D01*
X165279605Y-95250000D01*
X164920395Y-95250000D01*
X163586030Y-93915635D01*
X163267261Y-94075418D01*
X162957277Y-94866187D01*
X162167440Y-94866187D01*
X162167440Y-93750000D01*
X162164812Y-93736030D01*
X163765635Y-93736030D01*
X165100000Y-95070395D01*
X166398093Y-93772302D01*
X170040856Y-93772302D01*
X170068638Y-94327368D01*
X170227603Y-94711143D01*
X170469787Y-94780608D01*
X171270395Y-93980000D01*
X171629605Y-93980000D01*
X172430213Y-94780608D01*
X172672397Y-94711143D01*
X172716453Y-94587656D01*
X172767603Y-94711143D01*
X173009787Y-94780608D01*
X173810395Y-93980000D01*
X174169605Y-93980000D01*
X174970213Y-94780608D01*
X175212397Y-94711143D01*
X175399144Y-94187698D01*
X175371362Y-93632632D01*
X175212397Y-93248857D01*
X174970213Y-93179392D01*
X174169605Y-93980000D01*
X173810395Y-93980000D01*
X173009787Y-93179392D01*
X172767603Y-93248857D01*
X172723547Y-93372344D01*
X172672397Y-93248857D01*
X172430213Y-93179392D01*
X171629605Y-93980000D01*
X171270395Y-93980000D01*
X170469787Y-93179392D01*
X170227603Y-93248857D01*
X170040856Y-93772302D01*
X166398093Y-93772302D01*
X166434365Y-93736030D01*
X166274582Y-93417261D01*
X165483813Y-93107277D01*
X164634613Y-93123503D01*
X163925418Y-93417261D01*
X163765635Y-93736030D01*
X162164812Y-93736030D01*
X162123162Y-93514683D01*
X161984090Y-93298559D01*
X161771890Y-93153569D01*
X161520000Y-93102560D01*
X158520000Y-93102560D01*
X158284683Y-93146838D01*
X158068559Y-93285910D01*
X157923569Y-93498110D01*
X157872560Y-93750000D01*
X153110000Y-93750000D01*
X153110000Y-92999787D01*
X170649392Y-92999787D01*
X171450000Y-93800395D01*
X172250608Y-92999787D01*
X173189392Y-92999787D01*
X173990000Y-93800395D01*
X174790608Y-92999787D01*
X174721143Y-92757603D01*
X174197698Y-92570856D01*
X173642632Y-92598638D01*
X173258857Y-92757603D01*
X173189392Y-92999787D01*
X172250608Y-92999787D01*
X172181143Y-92757603D01*
X171657698Y-92570856D01*
X171102632Y-92598638D01*
X170718857Y-92757603D01*
X170649392Y-92999787D01*
X153110000Y-92999787D01*
X153110000Y-91885750D01*
X177635000Y-91885750D01*
X177635000Y-93476309D01*
X177731673Y-93709698D01*
X177910301Y-93888327D01*
X178143690Y-93985000D01*
X178784250Y-93985000D01*
X178943000Y-93826250D01*
X178943000Y-91727000D01*
X179197000Y-91727000D01*
X179197000Y-93826250D01*
X179355750Y-93985000D01*
X179996310Y-93985000D01*
X180229699Y-93888327D01*
X180408327Y-93709698D01*
X180505000Y-93476309D01*
X180505000Y-91885750D01*
X180346250Y-91727000D01*
X179197000Y-91727000D01*
X178943000Y-91727000D01*
X177793750Y-91727000D01*
X177635000Y-91885750D01*
X153110000Y-91885750D01*
X153110000Y-89723691D01*
X177635000Y-89723691D01*
X177635000Y-91314250D01*
X177793750Y-91473000D01*
X178943000Y-91473000D01*
X178943000Y-89373750D01*
X179197000Y-89373750D01*
X179197000Y-91473000D01*
X180346250Y-91473000D01*
X180505000Y-91314250D01*
X180505000Y-89723691D01*
X180408327Y-89490302D01*
X180229699Y-89311673D01*
X179996310Y-89215000D01*
X179355750Y-89215000D01*
X179197000Y-89373750D01*
X178943000Y-89373750D01*
X178784250Y-89215000D01*
X178143690Y-89215000D01*
X177910301Y-89311673D01*
X177731673Y-89490302D01*
X177635000Y-89723691D01*
X153110000Y-89723691D01*
X153110000Y-88355000D01*
X154004250Y-88355000D01*
X154163000Y-88196250D01*
X154163000Y-86597000D01*
X154143000Y-86597000D01*
X154143000Y-86343000D01*
X154163000Y-86343000D01*
X154163000Y-84743750D01*
X154417000Y-84743750D01*
X154417000Y-86343000D01*
X154437000Y-86343000D01*
X154437000Y-86597000D01*
X154417000Y-86597000D01*
X154417000Y-88196250D01*
X154575750Y-88355000D01*
X155666310Y-88355000D01*
X155899699Y-88258327D01*
X155979814Y-88178211D01*
X156465806Y-88364388D01*
X157215435Y-88344250D01*
X157814467Y-88096123D01*
X157943715Y-87803320D01*
X156790000Y-86649605D01*
X156775858Y-86663748D01*
X156596253Y-86484143D01*
X156610395Y-86470000D01*
X156969605Y-86470000D01*
X158123320Y-87623715D01*
X158416123Y-87494467D01*
X158665574Y-86843305D01*
X163904674Y-86843305D01*
X164191043Y-87536372D01*
X164720839Y-88067093D01*
X165413405Y-88354672D01*
X166163305Y-88355326D01*
X166856372Y-88068957D01*
X167039855Y-87885793D01*
X167220839Y-88067093D01*
X167913405Y-88354672D01*
X168663305Y-88355326D01*
X169356372Y-88068957D01*
X169887093Y-87539161D01*
X170075677Y-87085000D01*
X177622560Y-87085000D01*
X177622560Y-87950000D01*
X177666838Y-88185317D01*
X177805910Y-88401441D01*
X178018110Y-88546431D01*
X178270000Y-88597440D01*
X179870000Y-88597440D01*
X180105317Y-88553162D01*
X180321441Y-88414090D01*
X180466431Y-88201890D01*
X180517440Y-87950000D01*
X180517440Y-87175750D01*
X185255000Y-87175750D01*
X185255000Y-88316309D01*
X185351673Y-88549698D01*
X185530301Y-88728327D01*
X185763690Y-88825000D01*
X186404250Y-88825000D01*
X186563000Y-88666250D01*
X186563000Y-87017000D01*
X186817000Y-87017000D01*
X186817000Y-88666250D01*
X186975750Y-88825000D01*
X187616310Y-88825000D01*
X187849699Y-88728327D01*
X188028327Y-88549698D01*
X188125000Y-88316309D01*
X188125000Y-87175750D01*
X187966250Y-87017000D01*
X186817000Y-87017000D01*
X186563000Y-87017000D01*
X185413750Y-87017000D01*
X185255000Y-87175750D01*
X180517440Y-87175750D01*
X180517440Y-84450000D01*
X180473162Y-84214683D01*
X180334090Y-83998559D01*
X180121890Y-83853569D01*
X179870000Y-83802560D01*
X178270000Y-83802560D01*
X178034683Y-83846838D01*
X177818559Y-83985910D01*
X177673569Y-84198110D01*
X177622560Y-84450000D01*
X177622560Y-85315000D01*
X169800483Y-85315000D01*
X169359161Y-84872907D01*
X168666595Y-84585328D01*
X167916695Y-84584674D01*
X167223628Y-84871043D01*
X167040145Y-85054207D01*
X166859161Y-84872907D01*
X166166595Y-84585328D01*
X165416695Y-84584674D01*
X164723628Y-84871043D01*
X164192907Y-85400839D01*
X163905328Y-86093405D01*
X163904674Y-86843305D01*
X158665574Y-86843305D01*
X158684388Y-86794194D01*
X158664250Y-86044565D01*
X158416123Y-85445533D01*
X158123320Y-85316285D01*
X156969605Y-86470000D01*
X156610395Y-86470000D01*
X156596253Y-86455858D01*
X156775858Y-86276253D01*
X156790000Y-86290395D01*
X157943715Y-85136680D01*
X157814467Y-84843877D01*
X157114194Y-84575612D01*
X156364565Y-84595750D01*
X155975098Y-84757072D01*
X155899699Y-84681673D01*
X155666310Y-84585000D01*
X154575750Y-84585000D01*
X154417000Y-84743750D01*
X154163000Y-84743750D01*
X154004250Y-84585000D01*
X153110000Y-84585000D01*
X153110000Y-76835000D01*
X170740000Y-76835000D01*
X170890719Y-77592713D01*
X171319929Y-78235071D01*
X171962287Y-78664281D01*
X172720000Y-78815000D01*
X173477713Y-78664281D01*
X174120071Y-78235071D01*
X174549281Y-77592713D01*
X174700000Y-76835000D01*
X174549281Y-76077287D01*
X174120071Y-75434929D01*
X173477713Y-75005719D01*
X172720000Y-74855000D01*
X171962287Y-75005719D01*
X171319929Y-75434929D01*
X170890719Y-76077287D01*
X170740000Y-76835000D01*
X153110000Y-76835000D01*
X153110000Y-72973691D01*
X185255000Y-72973691D01*
X185255000Y-74114250D01*
X185413750Y-74273000D01*
X186563000Y-74273000D01*
X186563000Y-72623750D01*
X186817000Y-72623750D01*
X186817000Y-74273000D01*
X187966250Y-74273000D01*
X188125000Y-74114250D01*
X188125000Y-72973691D01*
X188028327Y-72740302D01*
X187849699Y-72561673D01*
X187616310Y-72465000D01*
X186975750Y-72465000D01*
X186817000Y-72623750D01*
X186563000Y-72623750D01*
X186404250Y-72465000D01*
X185763690Y-72465000D01*
X185530301Y-72561673D01*
X185351673Y-72740302D01*
X185255000Y-72973691D01*
X153110000Y-72973691D01*
X153110000Y-69829608D01*
X153136286Y-69803322D01*
X153265533Y-70096123D01*
X153965806Y-70364388D01*
X154715435Y-70344250D01*
X155314467Y-70096123D01*
X155433029Y-69827529D01*
X155522554Y-69917054D01*
X155540000Y-69899608D01*
X155557446Y-69917054D01*
X155646971Y-69827529D01*
X155765533Y-70096123D01*
X156465806Y-70364388D01*
X157215435Y-70344250D01*
X157814467Y-70096123D01*
X157943715Y-69803320D01*
X156790000Y-68649605D01*
X156775858Y-68663748D01*
X156596253Y-68484143D01*
X156610395Y-68470000D01*
X156969605Y-68470000D01*
X158123320Y-69623715D01*
X158416123Y-69494467D01*
X158684388Y-68794194D01*
X158664250Y-68044565D01*
X158416123Y-67445533D01*
X158123320Y-67316285D01*
X156969605Y-68470000D01*
X156610395Y-68470000D01*
X156596253Y-68455858D01*
X156775858Y-68276253D01*
X156790000Y-68290395D01*
X157943715Y-67136680D01*
X157814467Y-66843877D01*
X157114194Y-66575612D01*
X156364565Y-66595750D01*
X155765533Y-66843877D01*
X155646971Y-67112471D01*
X155557446Y-67022946D01*
X155540000Y-67040392D01*
X155522554Y-67022946D01*
X155433029Y-67112471D01*
X155314467Y-66843877D01*
X154614194Y-66575612D01*
X153864565Y-66595750D01*
X153265533Y-66843877D01*
X153136286Y-67136678D01*
X153110000Y-67110392D01*
X153110000Y-65055750D01*
X153210000Y-65055750D01*
X153210000Y-65746310D01*
X153306673Y-65979699D01*
X153485302Y-66158327D01*
X153718691Y-66255000D01*
X154559250Y-66255000D01*
X154718000Y-66096250D01*
X154718000Y-64897000D01*
X154972000Y-64897000D01*
X154972000Y-66096250D01*
X155130750Y-66255000D01*
X155971309Y-66255000D01*
X156204698Y-66158327D01*
X156383327Y-65979699D01*
X156480000Y-65746310D01*
X156480000Y-65055750D01*
X156321250Y-64897000D01*
X154972000Y-64897000D01*
X154718000Y-64897000D01*
X153368750Y-64897000D01*
X153210000Y-65055750D01*
X153110000Y-65055750D01*
X153110000Y-63793690D01*
X153210000Y-63793690D01*
X153210000Y-64484250D01*
X153368750Y-64643000D01*
X154718000Y-64643000D01*
X154718000Y-63443750D01*
X154972000Y-63443750D01*
X154972000Y-64643000D01*
X156321250Y-64643000D01*
X156480000Y-64484250D01*
X156480000Y-63920000D01*
X157197560Y-63920000D01*
X157197560Y-65620000D01*
X157241838Y-65855317D01*
X157380910Y-66071441D01*
X157593110Y-66216431D01*
X157845000Y-66267440D01*
X159845000Y-66267440D01*
X160080317Y-66223162D01*
X160296441Y-66084090D01*
X160359884Y-65991238D01*
X160543110Y-66116431D01*
X160795000Y-66167440D01*
X162295000Y-66167440D01*
X162530317Y-66123162D01*
X162746441Y-65984090D01*
X162891431Y-65771890D01*
X162942440Y-65520000D01*
X162942440Y-64020000D01*
X162898162Y-63784683D01*
X162759090Y-63568559D01*
X162546890Y-63423569D01*
X162295000Y-63372560D01*
X160795000Y-63372560D01*
X160559683Y-63416838D01*
X160358933Y-63546017D01*
X160309090Y-63468559D01*
X160096890Y-63323569D01*
X159845000Y-63272560D01*
X157845000Y-63272560D01*
X157609683Y-63316838D01*
X157393559Y-63455910D01*
X157248569Y-63668110D01*
X157197560Y-63920000D01*
X156480000Y-63920000D01*
X156480000Y-63793690D01*
X156383327Y-63560301D01*
X156204698Y-63381673D01*
X155971309Y-63285000D01*
X155130750Y-63285000D01*
X154972000Y-63443750D01*
X154718000Y-63443750D01*
X154559250Y-63285000D01*
X153718691Y-63285000D01*
X153485302Y-63381673D01*
X153306673Y-63560301D01*
X153210000Y-63793690D01*
X153110000Y-63793690D01*
X153110000Y-62355750D01*
X189065000Y-62355750D01*
X189065000Y-63946309D01*
X189161673Y-64179698D01*
X189340301Y-64358327D01*
X189573690Y-64455000D01*
X190214250Y-64455000D01*
X190373000Y-64296250D01*
X190373000Y-62197000D01*
X190627000Y-62197000D01*
X190627000Y-64296250D01*
X190785750Y-64455000D01*
X191426310Y-64455000D01*
X191659699Y-64358327D01*
X191838327Y-64179698D01*
X191935000Y-63946309D01*
X191935000Y-62675750D01*
X196685000Y-62675750D01*
X196685000Y-64266309D01*
X196781673Y-64499698D01*
X196960301Y-64678327D01*
X197193690Y-64775000D01*
X197834250Y-64775000D01*
X197993000Y-64616250D01*
X197993000Y-62517000D01*
X198247000Y-62517000D01*
X198247000Y-64616250D01*
X198405750Y-64775000D01*
X199046310Y-64775000D01*
X199279699Y-64678327D01*
X199458327Y-64499698D01*
X199555000Y-64266309D01*
X199555000Y-63843690D01*
X200735000Y-63843690D01*
X200735000Y-64484250D01*
X200893750Y-64643000D01*
X202543000Y-64643000D01*
X202543000Y-63493750D01*
X202384250Y-63335000D01*
X201243691Y-63335000D01*
X201010302Y-63431673D01*
X200831673Y-63610301D01*
X200735000Y-63843690D01*
X199555000Y-63843690D01*
X199555000Y-62675750D01*
X199396250Y-62517000D01*
X198247000Y-62517000D01*
X197993000Y-62517000D01*
X196843750Y-62517000D01*
X196685000Y-62675750D01*
X191935000Y-62675750D01*
X191935000Y-62355750D01*
X191776250Y-62197000D01*
X190627000Y-62197000D01*
X190373000Y-62197000D01*
X189223750Y-62197000D01*
X189065000Y-62355750D01*
X153110000Y-62355750D01*
X153110000Y-60670213D01*
X173189392Y-60670213D01*
X173258857Y-60912397D01*
X173782302Y-61099144D01*
X174337368Y-61071362D01*
X174721143Y-60912397D01*
X174790608Y-60670213D01*
X175729392Y-60670213D01*
X175798857Y-60912397D01*
X176322302Y-61099144D01*
X176877368Y-61071362D01*
X177261143Y-60912397D01*
X177330608Y-60670213D01*
X176530000Y-59869605D01*
X175729392Y-60670213D01*
X174790608Y-60670213D01*
X173990000Y-59869605D01*
X173189392Y-60670213D01*
X153110000Y-60670213D01*
X153110000Y-59933970D01*
X158685635Y-59933970D01*
X158845418Y-60252739D01*
X159636187Y-60562723D01*
X160485387Y-60546497D01*
X161194582Y-60252739D01*
X161354365Y-59933970D01*
X160020000Y-58599605D01*
X158685635Y-59933970D01*
X153110000Y-59933970D01*
X153110000Y-57904098D01*
X153110719Y-57907713D01*
X153539929Y-58550071D01*
X154182287Y-58979281D01*
X154940000Y-59130000D01*
X155697713Y-58979281D01*
X156340071Y-58550071D01*
X156683437Y-58036187D01*
X157877277Y-58036187D01*
X157893503Y-58885387D01*
X158187261Y-59594582D01*
X158506030Y-59754365D01*
X159840395Y-58420000D01*
X160199605Y-58420000D01*
X161533970Y-59754365D01*
X161852739Y-59594582D01*
X162162723Y-58803813D01*
X162146497Y-57954613D01*
X161852739Y-57245418D01*
X161533970Y-57085635D01*
X160199605Y-58420000D01*
X159840395Y-58420000D01*
X158506030Y-57085635D01*
X158187261Y-57245418D01*
X157877277Y-58036187D01*
X156683437Y-58036187D01*
X156769281Y-57907713D01*
X156920000Y-57150000D01*
X156871472Y-56906030D01*
X158685635Y-56906030D01*
X160020000Y-58240395D01*
X161340395Y-56920000D01*
X162952560Y-56920000D01*
X162952560Y-59920000D01*
X162996838Y-60155317D01*
X163135910Y-60371441D01*
X163348110Y-60516431D01*
X163600000Y-60567440D01*
X166600000Y-60567440D01*
X166835317Y-60523162D01*
X167051441Y-60384090D01*
X167196431Y-60171890D01*
X167247440Y-59920000D01*
X167247440Y-59482302D01*
X172580856Y-59482302D01*
X172608638Y-60037368D01*
X172767603Y-60421143D01*
X173009787Y-60490608D01*
X173810395Y-59690000D01*
X174169605Y-59690000D01*
X174970213Y-60490608D01*
X175212397Y-60421143D01*
X175256453Y-60297656D01*
X175307603Y-60421143D01*
X175549787Y-60490608D01*
X176350395Y-59690000D01*
X176709605Y-59690000D01*
X177510213Y-60490608D01*
X177752397Y-60421143D01*
X177833543Y-60193691D01*
X189065000Y-60193691D01*
X189065000Y-61784250D01*
X189223750Y-61943000D01*
X190373000Y-61943000D01*
X190373000Y-59843750D01*
X190627000Y-59843750D01*
X190627000Y-61943000D01*
X191776250Y-61943000D01*
X191935000Y-61784250D01*
X191935000Y-60513691D01*
X196685000Y-60513691D01*
X196685000Y-62104250D01*
X196843750Y-62263000D01*
X197993000Y-62263000D01*
X197993000Y-60163750D01*
X198247000Y-60163750D01*
X198247000Y-62263000D01*
X199396250Y-62263000D01*
X199555000Y-62104250D01*
X199555000Y-60513691D01*
X199458327Y-60280302D01*
X199279699Y-60101673D01*
X199046310Y-60005000D01*
X198405750Y-60005000D01*
X198247000Y-60163750D01*
X197993000Y-60163750D01*
X197834250Y-60005000D01*
X197193690Y-60005000D01*
X196960301Y-60101673D01*
X196781673Y-60280302D01*
X196685000Y-60513691D01*
X191935000Y-60513691D01*
X191935000Y-60193691D01*
X191839977Y-59964285D01*
X201814760Y-59964285D01*
X202025169Y-60473515D01*
X202414436Y-60863461D01*
X202923298Y-61074759D01*
X203474285Y-61075240D01*
X203983515Y-60864831D01*
X204273852Y-60575000D01*
X208459522Y-60575000D01*
X208757630Y-60873629D01*
X209270900Y-61086757D01*
X209826661Y-61087242D01*
X210340303Y-60875010D01*
X210640837Y-60575000D01*
X210999522Y-60575000D01*
X211297630Y-60873629D01*
X211810900Y-61086757D01*
X212366661Y-61087242D01*
X212880303Y-60875010D01*
X213273629Y-60482370D01*
X213486757Y-59969100D01*
X213487242Y-59413339D01*
X213275010Y-58899697D01*
X212882370Y-58506371D01*
X212369100Y-58293243D01*
X211813339Y-58292758D01*
X211299697Y-58504990D01*
X210999163Y-58805000D01*
X210640478Y-58805000D01*
X210342370Y-58506371D01*
X209829100Y-58293243D01*
X209273339Y-58292758D01*
X208759697Y-58504990D01*
X208459163Y-58805000D01*
X204273523Y-58805000D01*
X203985564Y-58516539D01*
X203476702Y-58305241D01*
X202925715Y-58304760D01*
X202416485Y-58515169D01*
X202026539Y-58904436D01*
X201815241Y-59413298D01*
X201814760Y-59964285D01*
X191839977Y-59964285D01*
X191838327Y-59960302D01*
X191659699Y-59781673D01*
X191426310Y-59685000D01*
X190785750Y-59685000D01*
X190627000Y-59843750D01*
X190373000Y-59843750D01*
X190214250Y-59685000D01*
X189573690Y-59685000D01*
X189340301Y-59781673D01*
X189161673Y-59960302D01*
X189065000Y-60193691D01*
X177833543Y-60193691D01*
X177939144Y-59897698D01*
X177911362Y-59342632D01*
X177752397Y-58958857D01*
X177510213Y-58889392D01*
X176709605Y-59690000D01*
X176350395Y-59690000D01*
X175549787Y-58889392D01*
X175307603Y-58958857D01*
X175263547Y-59082344D01*
X175212397Y-58958857D01*
X174970213Y-58889392D01*
X174169605Y-59690000D01*
X173810395Y-59690000D01*
X173009787Y-58889392D01*
X172767603Y-58958857D01*
X172580856Y-59482302D01*
X167247440Y-59482302D01*
X167247440Y-58709787D01*
X173189392Y-58709787D01*
X173990000Y-59510395D01*
X174790608Y-58709787D01*
X175729392Y-58709787D01*
X176530000Y-59510395D01*
X177330608Y-58709787D01*
X177261143Y-58467603D01*
X176737698Y-58280856D01*
X176182632Y-58308638D01*
X175798857Y-58467603D01*
X175729392Y-58709787D01*
X174790608Y-58709787D01*
X174721143Y-58467603D01*
X174197698Y-58280856D01*
X173642632Y-58308638D01*
X173258857Y-58467603D01*
X173189392Y-58709787D01*
X167247440Y-58709787D01*
X167247440Y-56920000D01*
X167203162Y-56684683D01*
X167064090Y-56468559D01*
X166851890Y-56323569D01*
X166600000Y-56272560D01*
X163600000Y-56272560D01*
X163364683Y-56316838D01*
X163148559Y-56455910D01*
X163003569Y-56668110D01*
X162952560Y-56920000D01*
X161340395Y-56920000D01*
X161354365Y-56906030D01*
X161194582Y-56587261D01*
X160403813Y-56277277D01*
X159554613Y-56293503D01*
X158845418Y-56587261D01*
X158685635Y-56906030D01*
X156871472Y-56906030D01*
X156769281Y-56392287D01*
X156340071Y-55749929D01*
X155697713Y-55320719D01*
X155694098Y-55320000D01*
X196672560Y-55320000D01*
X196672560Y-56105000D01*
X196672560Y-56105000D01*
G37*
X196672560Y-56105000D02*
X192683801Y-56105000D01*
X192555564Y-55976539D01*
X192046702Y-55765241D01*
X191495715Y-55764760D01*
X190986485Y-55975169D01*
X190596539Y-56364436D01*
X190385241Y-56873298D01*
X190384760Y-57424285D01*
X190595169Y-57933515D01*
X190984436Y-58323461D01*
X191493298Y-58534759D01*
X192044285Y-58535240D01*
X192553515Y-58324831D01*
X192943461Y-57935564D01*
X192968609Y-57875000D01*
X196672560Y-57875000D01*
X196672560Y-58740000D01*
X196716838Y-58975317D01*
X196855910Y-59191441D01*
X197068110Y-59336431D01*
X197320000Y-59387440D01*
X198920000Y-59387440D01*
X199155317Y-59343162D01*
X199371441Y-59204090D01*
X199516431Y-58991890D01*
X199567440Y-58740000D01*
X199567440Y-55320000D01*
X226575902Y-55320000D01*
X226572287Y-55320719D01*
X225929929Y-55749929D01*
X225500719Y-56392287D01*
X225350000Y-57150000D01*
X225500719Y-57907713D01*
X225929929Y-58550071D01*
X226572287Y-58979281D01*
X227330000Y-59130000D01*
X228087713Y-58979281D01*
X228730071Y-58550071D01*
X229159281Y-57907713D01*
X229160000Y-57904098D01*
X229160000Y-61122560D01*
X227750000Y-61122560D01*
X227514683Y-61166838D01*
X227298559Y-61305910D01*
X227271850Y-61345000D01*
X225919473Y-61345000D01*
X225832811Y-61215302D01*
X225367264Y-60904233D01*
X224818113Y-60795000D01*
X224761887Y-60795000D01*
X224212736Y-60904233D01*
X223747189Y-61215302D01*
X223436120Y-61680849D01*
X223326887Y-62230000D01*
X223436120Y-62779151D01*
X223747189Y-63244698D01*
X224129275Y-63500000D01*
X223747189Y-63755302D01*
X223436120Y-64220849D01*
X223326887Y-64770000D01*
X223436120Y-65319151D01*
X223747189Y-65784698D01*
X224129275Y-66040000D01*
X223752999Y-66291420D01*
X223135000Y-65673420D01*
X223135000Y-58240478D01*
X223433629Y-57942370D01*
X223646757Y-57429100D01*
X223647242Y-56873339D01*
X223435010Y-56359697D01*
X223042370Y-55966371D01*
X222529100Y-55753243D01*
X221973339Y-55752758D01*
X221459697Y-55964990D01*
X221066371Y-56357630D01*
X220980051Y-56565512D01*
X220895010Y-56359697D01*
X220502370Y-55966371D01*
X219989100Y-55753243D01*
X219433339Y-55752758D01*
X218919697Y-55964990D01*
X218619163Y-56265000D01*
X218260478Y-56265000D01*
X217962370Y-55966371D01*
X217449100Y-55753243D01*
X216893339Y-55752758D01*
X216379697Y-55964990D01*
X215986371Y-56357630D01*
X215773243Y-56870900D01*
X215772758Y-57426661D01*
X215984990Y-57940303D01*
X216377630Y-58333629D01*
X216890900Y-58546757D01*
X217446661Y-58547242D01*
X217960303Y-58335010D01*
X218260837Y-58035000D01*
X218619522Y-58035000D01*
X218825000Y-58240837D01*
X218825000Y-65673421D01*
X218207001Y-66291420D01*
X217830725Y-66040000D01*
X218212811Y-65784698D01*
X218523880Y-65319151D01*
X218633113Y-64770000D01*
X218523880Y-64220849D01*
X218212811Y-63755302D01*
X218068535Y-63658899D01*
X218205317Y-63633162D01*
X218421441Y-63494090D01*
X218566431Y-63281890D01*
X218617440Y-63030000D01*
X218617440Y-61430000D01*
X218573162Y-61194683D01*
X218434090Y-60978559D01*
X218221890Y-60833569D01*
X217970000Y-60782560D01*
X216370000Y-60782560D01*
X216134683Y-60826838D01*
X215918559Y-60965910D01*
X215773569Y-61178110D01*
X215722560Y-61430000D01*
X215722560Y-63030000D01*
X215766838Y-63265317D01*
X215905910Y-63481441D01*
X216118110Y-63626431D01*
X216273089Y-63657815D01*
X216127189Y-63755302D01*
X216040527Y-63885000D01*
X215730854Y-63885000D01*
X215693162Y-63684683D01*
X215554090Y-63468559D01*
X215341890Y-63323569D01*
X215090000Y-63272560D01*
X213090000Y-63272560D01*
X212854683Y-63316838D01*
X212638559Y-63455910D01*
X212493569Y-63668110D01*
X212442560Y-63920000D01*
X212442560Y-63961645D01*
X212428675Y-63952367D01*
X212090000Y-63885000D01*
X211730854Y-63885000D01*
X211693162Y-63684683D01*
X211554090Y-63468559D01*
X211341890Y-63323569D01*
X211090000Y-63272560D01*
X209090000Y-63272560D01*
X208854683Y-63316838D01*
X208638559Y-63455910D01*
X208493569Y-63668110D01*
X208449648Y-63885000D01*
X208201446Y-63885000D01*
X208173162Y-63734683D01*
X208034090Y-63518559D01*
X207821890Y-63373569D01*
X207570000Y-63322560D01*
X204970000Y-63322560D01*
X204734683Y-63366838D01*
X204518559Y-63505910D01*
X204472031Y-63574006D01*
X204329698Y-63431673D01*
X204096309Y-63335000D01*
X202955750Y-63335000D01*
X202797000Y-63493750D01*
X202797000Y-64643000D01*
X202817000Y-64643000D01*
X202817000Y-64897000D01*
X202797000Y-64897000D01*
X202797000Y-66046250D01*
X202955750Y-66205000D01*
X204096309Y-66205000D01*
X204329698Y-66108327D01*
X204470936Y-65967090D01*
X204505910Y-66021441D01*
X204718110Y-66166431D01*
X204970000Y-66217440D01*
X207570000Y-66217440D01*
X207805317Y-66173162D01*
X208021441Y-66034090D01*
X208166431Y-65821890D01*
X208200227Y-65655000D01*
X208449146Y-65655000D01*
X208486838Y-65855317D01*
X208607015Y-66042077D01*
X208493569Y-66208110D01*
X208442560Y-66460000D01*
X208442560Y-66585000D01*
X201859009Y-66585000D01*
X201834831Y-66526485D01*
X201513906Y-66205000D01*
X202384250Y-66205000D01*
X202543000Y-66046250D01*
X202543000Y-64897000D01*
X200893750Y-64897000D01*
X200735000Y-65055750D01*
X200735000Y-65696310D01*
X200829788Y-65925148D01*
X200385715Y-65924760D01*
X199876485Y-66135169D01*
X199486539Y-66524436D01*
X199461391Y-66585000D01*
X191947440Y-66585000D01*
X191947440Y-65720000D01*
X191903162Y-65484683D01*
X191764090Y-65268559D01*
X191551890Y-65123569D01*
X191300000Y-65072560D01*
X189700000Y-65072560D01*
X189464683Y-65116838D01*
X189248559Y-65255910D01*
X189103569Y-65468110D01*
X189052560Y-65720000D01*
X189052560Y-66585000D01*
X169290005Y-66585000D01*
X169290000Y-66584999D01*
X168951326Y-66652366D01*
X168951324Y-66652367D01*
X168951325Y-66652367D01*
X168904075Y-66683938D01*
X168666595Y-66585328D01*
X167916695Y-66584674D01*
X167223628Y-66871043D01*
X167040145Y-67054207D01*
X166859161Y-66872907D01*
X166620000Y-66773599D01*
X166620000Y-65660005D01*
X166620001Y-65660000D01*
X166552633Y-65321326D01*
X166552633Y-65321325D01*
X166360790Y-65034210D01*
X166360787Y-65034208D01*
X166242440Y-64915861D01*
X166242440Y-64020000D01*
X166198162Y-63784683D01*
X166059090Y-63568559D01*
X165846890Y-63423569D01*
X165595000Y-63372560D01*
X164095000Y-63372560D01*
X163859683Y-63416838D01*
X163643559Y-63555910D01*
X163498569Y-63768110D01*
X163447560Y-64020000D01*
X163447560Y-65520000D01*
X163491838Y-65755317D01*
X163630910Y-65971441D01*
X163843110Y-66116431D01*
X164095000Y-66167440D01*
X164850000Y-66167440D01*
X164850000Y-66818827D01*
X164723628Y-66871043D01*
X164192907Y-67400839D01*
X163905328Y-68093405D01*
X163904674Y-68843305D01*
X164191043Y-69536372D01*
X164720839Y-70067093D01*
X165413405Y-70354672D01*
X166163305Y-70355326D01*
X166856372Y-70068957D01*
X167039855Y-69885793D01*
X167220839Y-70067093D01*
X167913405Y-70354672D01*
X168663305Y-70355326D01*
X169356372Y-70068957D01*
X169887093Y-69539161D01*
X170174672Y-68846595D01*
X170175101Y-68355000D01*
X180602143Y-68355000D01*
X180602143Y-71835000D01*
X185157857Y-71835000D01*
X185157857Y-68355000D01*
X189052560Y-68355000D01*
X189052560Y-69220000D01*
X189096838Y-69455317D01*
X189235910Y-69671441D01*
X189448110Y-69816431D01*
X189615000Y-69850227D01*
X189615000Y-72559146D01*
X189414683Y-72596838D01*
X189198559Y-72735910D01*
X189053569Y-72948110D01*
X189002560Y-73200000D01*
X189002560Y-75200000D01*
X189046838Y-75435317D01*
X189185910Y-75651441D01*
X189398110Y-75796431D01*
X189650000Y-75847440D01*
X191350000Y-75847440D01*
X191585317Y-75803162D01*
X191801441Y-75664090D01*
X191946431Y-75451890D01*
X191997440Y-75200000D01*
X191997440Y-74485750D01*
X192875000Y-74485750D01*
X192875000Y-75326309D01*
X192971673Y-75559698D01*
X193150301Y-75738327D01*
X193383690Y-75835000D01*
X194024250Y-75835000D01*
X194183000Y-75676250D01*
X194183000Y-74327000D01*
X194437000Y-74327000D01*
X194437000Y-75676250D01*
X194595750Y-75835000D01*
X195236310Y-75835000D01*
X195469699Y-75738327D01*
X195555000Y-75653026D01*
X195640301Y-75738327D01*
X195873690Y-75835000D01*
X196564250Y-75835000D01*
X196723000Y-75676250D01*
X196723000Y-74327000D01*
X196977000Y-74327000D01*
X196977000Y-75676250D01*
X197135750Y-75835000D01*
X197826310Y-75835000D01*
X198059699Y-75738327D01*
X198238327Y-75559698D01*
X198335000Y-75326309D01*
X198335000Y-74485750D01*
X198176250Y-74327000D01*
X196977000Y-74327000D01*
X196723000Y-74327000D01*
X194437000Y-74327000D01*
X194183000Y-74327000D01*
X193033750Y-74327000D01*
X192875000Y-74485750D01*
X191997440Y-74485750D01*
X191997440Y-73200000D01*
X191973674Y-73073691D01*
X192875000Y-73073691D01*
X192875000Y-73914250D01*
X193033750Y-74073000D01*
X194183000Y-74073000D01*
X194183000Y-72723750D01*
X194437000Y-72723750D01*
X194437000Y-74073000D01*
X196723000Y-74073000D01*
X196723000Y-72723750D01*
X196977000Y-72723750D01*
X196977000Y-74073000D01*
X198176250Y-74073000D01*
X198303500Y-73945750D01*
X200835000Y-73945750D01*
X200835000Y-74636310D01*
X200931673Y-74869699D01*
X201110302Y-75048327D01*
X201343691Y-75145000D01*
X202184250Y-75145000D01*
X202343000Y-74986250D01*
X202343000Y-73787000D01*
X202597000Y-73787000D01*
X202597000Y-74986250D01*
X202755750Y-75145000D01*
X203596309Y-75145000D01*
X203829698Y-75048327D01*
X204008327Y-74869699D01*
X204105000Y-74636310D01*
X204105000Y-73945750D01*
X203946250Y-73787000D01*
X202597000Y-73787000D01*
X202343000Y-73787000D01*
X200993750Y-73787000D01*
X200835000Y-73945750D01*
X198303500Y-73945750D01*
X198335000Y-73914250D01*
X198335000Y-73073691D01*
X198238327Y-72840302D01*
X198081716Y-72683690D01*
X200835000Y-72683690D01*
X200835000Y-73374250D01*
X200993750Y-73533000D01*
X202343000Y-73533000D01*
X202343000Y-72333750D01*
X202597000Y-72333750D01*
X202597000Y-73533000D01*
X203946250Y-73533000D01*
X204105000Y-73374250D01*
X204105000Y-72683690D01*
X204008327Y-72450301D01*
X203829698Y-72271673D01*
X203596309Y-72175000D01*
X202755750Y-72175000D01*
X202597000Y-72333750D01*
X202343000Y-72333750D01*
X202184250Y-72175000D01*
X201343691Y-72175000D01*
X201110302Y-72271673D01*
X200931673Y-72450301D01*
X200835000Y-72683690D01*
X198081716Y-72683690D01*
X198059699Y-72661673D01*
X197826310Y-72565000D01*
X197135750Y-72565000D01*
X196977000Y-72723750D01*
X196723000Y-72723750D01*
X196564250Y-72565000D01*
X195873690Y-72565000D01*
X195640301Y-72661673D01*
X195555000Y-72746974D01*
X195469699Y-72661673D01*
X195236310Y-72565000D01*
X194595750Y-72565000D01*
X194437000Y-72723750D01*
X194183000Y-72723750D01*
X194024250Y-72565000D01*
X193383690Y-72565000D01*
X193150301Y-72661673D01*
X192971673Y-72840302D01*
X192875000Y-73073691D01*
X191973674Y-73073691D01*
X191953162Y-72964683D01*
X191814090Y-72748559D01*
X191601890Y-72603569D01*
X191385000Y-72559648D01*
X191385000Y-69851446D01*
X191535317Y-69823162D01*
X191751441Y-69684090D01*
X191896431Y-69471890D01*
X191947440Y-69220000D01*
X191947440Y-68355000D01*
X199746199Y-68355000D01*
X199874436Y-68483461D01*
X200383298Y-68694759D01*
X200934285Y-68695240D01*
X201443515Y-68484831D01*
X201573572Y-68355000D01*
X208479252Y-68355000D01*
X208486838Y-68395317D01*
X208625910Y-68611441D01*
X208838110Y-68756431D01*
X209090000Y-68807440D01*
X209205000Y-68807440D01*
X209205000Y-71659995D01*
X209204999Y-71660000D01*
X209241091Y-71841441D01*
X209272367Y-71998675D01*
X209381871Y-72162560D01*
X209456946Y-72274918D01*
X209275715Y-72274760D01*
X208766485Y-72485169D01*
X208476148Y-72775000D01*
X208110854Y-72775000D01*
X208073162Y-72574683D01*
X207934090Y-72358559D01*
X207721890Y-72213569D01*
X207470000Y-72162560D01*
X205470000Y-72162560D01*
X205234683Y-72206838D01*
X205018559Y-72345910D01*
X204873569Y-72558110D01*
X204822560Y-72810000D01*
X204822560Y-74510000D01*
X204866838Y-74745317D01*
X205005910Y-74961441D01*
X205218110Y-75106431D01*
X205385000Y-75140227D01*
X205385000Y-76022560D01*
X204970000Y-76022560D01*
X204734683Y-76066838D01*
X204518559Y-76205910D01*
X204472031Y-76274006D01*
X204329698Y-76131673D01*
X204096309Y-76035000D01*
X202955750Y-76035000D01*
X202797000Y-76193750D01*
X202797000Y-77343000D01*
X202817000Y-77343000D01*
X202817000Y-77597000D01*
X202797000Y-77597000D01*
X202797000Y-78746250D01*
X202955750Y-78905000D01*
X204096309Y-78905000D01*
X204329698Y-78808327D01*
X204470936Y-78667090D01*
X204505910Y-78721441D01*
X204718110Y-78866431D01*
X204970000Y-78917440D01*
X207570000Y-78917440D01*
X207805317Y-78873162D01*
X208021441Y-78734090D01*
X208166431Y-78521890D01*
X208217440Y-78270000D01*
X208217440Y-76835000D01*
X208840000Y-76835000D01*
X208990719Y-77592713D01*
X209419929Y-78235071D01*
X210062287Y-78664281D01*
X210820000Y-78815000D01*
X211577713Y-78664281D01*
X212220071Y-78235071D01*
X212649281Y-77592713D01*
X212800000Y-76835000D01*
X212649281Y-76077287D01*
X212220071Y-75434929D01*
X211577713Y-75005719D01*
X210820000Y-74855000D01*
X210062287Y-75005719D01*
X209419929Y-75434929D01*
X208990719Y-76077287D01*
X208840000Y-76835000D01*
X208217440Y-76835000D01*
X208217440Y-76670000D01*
X208173162Y-76434683D01*
X208034090Y-76218559D01*
X207821890Y-76073569D01*
X207570000Y-76022560D01*
X207155000Y-76022560D01*
X207155000Y-75157440D01*
X207470000Y-75157440D01*
X207705317Y-75113162D01*
X207921441Y-74974090D01*
X208066431Y-74761890D01*
X208110352Y-74545000D01*
X208476477Y-74545000D01*
X208764436Y-74833461D01*
X209273298Y-75044759D01*
X209824285Y-75045240D01*
X210333515Y-74834831D01*
X210723461Y-74445564D01*
X210934759Y-73936702D01*
X210934916Y-73756496D01*
X213745000Y-76566579D01*
X213745000Y-78740000D01*
X213812367Y-79078675D01*
X213843320Y-79125000D01*
X209550005Y-79125000D01*
X209550000Y-79124999D01*
X209267516Y-79181190D01*
X209211325Y-79192367D01*
X208924210Y-79384210D01*
X208924208Y-79384213D01*
X207998546Y-80309875D01*
X207795564Y-80106539D01*
X207286702Y-79895241D01*
X206735715Y-79894760D01*
X206226485Y-80105169D01*
X205836539Y-80494436D01*
X205625241Y-81003298D01*
X205625084Y-81183504D01*
X205095790Y-80654210D01*
X204859736Y-80496485D01*
X204808675Y-80462367D01*
X204752484Y-80451190D01*
X204470000Y-80394999D01*
X204469995Y-80395000D01*
X201026579Y-80395000D01*
X200015790Y-79384210D01*
X199889760Y-79300000D01*
X199728675Y-79192367D01*
X199672484Y-79181190D01*
X199390000Y-79124999D01*
X199389995Y-79125000D01*
X199026579Y-79125000D01*
X198347440Y-78445860D01*
X198347440Y-77755750D01*
X200735000Y-77755750D01*
X200735000Y-78396310D01*
X200831673Y-78629699D01*
X201010302Y-78808327D01*
X201243691Y-78905000D01*
X202384250Y-78905000D01*
X202543000Y-78746250D01*
X202543000Y-77597000D01*
X200893750Y-77597000D01*
X200735000Y-77755750D01*
X198347440Y-77755750D01*
X198347440Y-77200000D01*
X198303162Y-76964683D01*
X198164090Y-76748559D01*
X197951890Y-76603569D01*
X197700000Y-76552560D01*
X196000000Y-76552560D01*
X195764683Y-76596838D01*
X195552174Y-76733584D01*
X195361890Y-76603569D01*
X195110000Y-76552560D01*
X193510000Y-76552560D01*
X193274683Y-76596838D01*
X193058559Y-76735910D01*
X192913569Y-76948110D01*
X192879773Y-77115000D01*
X191981446Y-77115000D01*
X191953162Y-76964683D01*
X191814090Y-76748559D01*
X191601890Y-76603569D01*
X191350000Y-76552560D01*
X189650000Y-76552560D01*
X189414683Y-76596838D01*
X189198559Y-76735910D01*
X189053569Y-76948110D01*
X189019773Y-77115000D01*
X188137440Y-77115000D01*
X188137440Y-76700000D01*
X188108029Y-76543690D01*
X200735000Y-76543690D01*
X200735000Y-77184250D01*
X200893750Y-77343000D01*
X202543000Y-77343000D01*
X202543000Y-76193750D01*
X202384250Y-76035000D01*
X201243691Y-76035000D01*
X201010302Y-76131673D01*
X200831673Y-76310301D01*
X200735000Y-76543690D01*
X188108029Y-76543690D01*
X188093162Y-76464683D01*
X187954090Y-76248559D01*
X187885994Y-76202031D01*
X188028327Y-76059698D01*
X188125000Y-75826309D01*
X188125000Y-74685750D01*
X187966250Y-74527000D01*
X186817000Y-74527000D01*
X186817000Y-74547000D01*
X186563000Y-74547000D01*
X186563000Y-74527000D01*
X185413750Y-74527000D01*
X185255000Y-74685750D01*
X185255000Y-75826309D01*
X185351673Y-76059698D01*
X185492910Y-76200936D01*
X185438559Y-76235910D01*
X185293569Y-76448110D01*
X185242560Y-76700000D01*
X185242560Y-79300000D01*
X185286838Y-79535317D01*
X185425910Y-79751441D01*
X185638110Y-79896431D01*
X185890000Y-79947440D01*
X187490000Y-79947440D01*
X187725317Y-79903162D01*
X187941441Y-79764090D01*
X188086431Y-79551890D01*
X188137440Y-79300000D01*
X188137440Y-79085000D01*
X189002560Y-79085000D01*
X189002560Y-79200000D01*
X189046838Y-79435317D01*
X189185910Y-79651441D01*
X189398110Y-79796431D01*
X189650000Y-79847440D01*
X191350000Y-79847440D01*
X191585317Y-79803162D01*
X191801441Y-79664090D01*
X191946431Y-79451890D01*
X191997440Y-79200000D01*
X191997440Y-78885000D01*
X192862560Y-78885000D01*
X192862560Y-79200000D01*
X192906838Y-79435317D01*
X193045910Y-79651441D01*
X193258110Y-79796431D01*
X193510000Y-79847440D01*
X195110000Y-79847440D01*
X195345317Y-79803162D01*
X195557826Y-79666416D01*
X195748110Y-79796431D01*
X196000000Y-79847440D01*
X197245861Y-79847440D01*
X198034208Y-80635787D01*
X198034210Y-80635790D01*
X198061778Y-80654210D01*
X198321326Y-80827634D01*
X198660000Y-80895001D01*
X198660005Y-80895000D01*
X199023420Y-80895000D01*
X200034208Y-81905787D01*
X200034210Y-81905790D01*
X200270264Y-82063515D01*
X200321325Y-82097633D01*
X200660000Y-82165001D01*
X200660005Y-82165000D01*
X204103420Y-82165000D01*
X204855000Y-82916579D01*
X204855000Y-82953421D01*
X204460790Y-82559210D01*
X204322652Y-82466910D01*
X204173675Y-82367367D01*
X204117484Y-82356190D01*
X203835000Y-82299999D01*
X203834995Y-82300000D01*
X201947683Y-82300000D01*
X201866500Y-82283560D01*
X200723500Y-82283560D01*
X200636129Y-82300000D01*
X198347440Y-82300000D01*
X198347440Y-82090000D01*
X198303162Y-81854683D01*
X198164090Y-81638559D01*
X197951890Y-81493569D01*
X197700000Y-81442560D01*
X196000000Y-81442560D01*
X195764683Y-81486838D01*
X195552174Y-81623584D01*
X195361890Y-81493569D01*
X195110000Y-81442560D01*
X193510000Y-81442560D01*
X193274683Y-81486838D01*
X193062174Y-81623584D01*
X192871890Y-81493569D01*
X192620000Y-81442560D01*
X190920000Y-81442560D01*
X190684683Y-81486838D01*
X190468559Y-81625910D01*
X190323569Y-81838110D01*
X190272560Y-82090000D01*
X190272560Y-82205000D01*
X188137440Y-82205000D01*
X188137440Y-81990000D01*
X188093162Y-81754683D01*
X187954090Y-81538559D01*
X187741890Y-81393569D01*
X187490000Y-81342560D01*
X185890000Y-81342560D01*
X185654683Y-81386838D01*
X185438559Y-81525910D01*
X185293569Y-81738110D01*
X185242560Y-81990000D01*
X185242560Y-84590000D01*
X185286838Y-84825317D01*
X185425910Y-85041441D01*
X185494006Y-85087969D01*
X185351673Y-85230302D01*
X185255000Y-85463691D01*
X185255000Y-86604250D01*
X185413750Y-86763000D01*
X186563000Y-86763000D01*
X186563000Y-86743000D01*
X186817000Y-86743000D01*
X186817000Y-86763000D01*
X187966250Y-86763000D01*
X188125000Y-86604250D01*
X188125000Y-85463691D01*
X188028327Y-85230302D01*
X187887090Y-85089064D01*
X187941441Y-85054090D01*
X188086431Y-84841890D01*
X188137440Y-84590000D01*
X188137440Y-83975000D01*
X190272560Y-83975000D01*
X190272560Y-84090000D01*
X190316838Y-84325317D01*
X190455910Y-84541441D01*
X190668110Y-84686431D01*
X190920000Y-84737440D01*
X192620000Y-84737440D01*
X192855317Y-84693162D01*
X193067826Y-84556416D01*
X193258110Y-84686431D01*
X193510000Y-84737440D01*
X195110000Y-84737440D01*
X195345317Y-84693162D01*
X195557826Y-84556416D01*
X195748110Y-84686431D01*
X196000000Y-84737440D01*
X197700000Y-84737440D01*
X197935317Y-84693162D01*
X198151441Y-84554090D01*
X198296431Y-84341890D01*
X198347440Y-84090000D01*
X198347440Y-84070000D01*
X199158421Y-84070000D01*
X197771401Y-85457019D01*
X197700000Y-85442560D01*
X196000000Y-85442560D01*
X195764683Y-85486838D01*
X195552174Y-85623584D01*
X195361890Y-85493569D01*
X195110000Y-85442560D01*
X193510000Y-85442560D01*
X193274683Y-85486838D01*
X193062174Y-85623584D01*
X192871890Y-85493569D01*
X192620000Y-85442560D01*
X190920000Y-85442560D01*
X190684683Y-85486838D01*
X190468559Y-85625910D01*
X190323569Y-85838110D01*
X190272560Y-86090000D01*
X190272560Y-88090000D01*
X190316838Y-88325317D01*
X190455910Y-88541441D01*
X190668110Y-88686431D01*
X190920000Y-88737440D01*
X192620000Y-88737440D01*
X192855317Y-88693162D01*
X193067826Y-88556416D01*
X193258110Y-88686431D01*
X193510000Y-88737440D01*
X195110000Y-88737440D01*
X195345317Y-88693162D01*
X195557826Y-88556416D01*
X195748110Y-88686431D01*
X196000000Y-88737440D01*
X197700000Y-88737440D01*
X197935317Y-88693162D01*
X198151441Y-88554090D01*
X198296431Y-88341890D01*
X198347440Y-88090000D01*
X198347440Y-87384140D01*
X198450829Y-87280750D01*
X200088500Y-87280750D01*
X200088500Y-87375309D01*
X200185173Y-87608698D01*
X200363801Y-87787327D01*
X200597190Y-87884000D01*
X201009250Y-87884000D01*
X201168000Y-87725250D01*
X201168000Y-87122000D01*
X200247250Y-87122000D01*
X200088500Y-87280750D01*
X198450829Y-87280750D01*
X200076060Y-85655519D01*
X200076060Y-85979000D01*
X200120338Y-86214317D01*
X200211104Y-86355371D01*
X200185173Y-86381302D01*
X200088500Y-86614691D01*
X200088500Y-86709250D01*
X200247250Y-86868000D01*
X201168000Y-86868000D01*
X201168000Y-86848000D01*
X201422000Y-86848000D01*
X201422000Y-86868000D01*
X201442000Y-86868000D01*
X201442000Y-87122000D01*
X201422000Y-87122000D01*
X201422000Y-87725250D01*
X201580750Y-87884000D01*
X201992810Y-87884000D01*
X202226199Y-87787327D01*
X202315000Y-87698526D01*
X202315000Y-88672560D01*
X201470000Y-88672560D01*
X201234683Y-88716838D01*
X201018559Y-88855910D01*
X200873569Y-89068110D01*
X200829648Y-89285000D01*
X198195453Y-89285000D01*
X198114090Y-89158559D01*
X197901890Y-89013569D01*
X197650000Y-88962560D01*
X196050000Y-88962560D01*
X195814683Y-89006838D01*
X195598559Y-89145910D01*
X195453569Y-89358110D01*
X195402560Y-89610000D01*
X195402560Y-92210000D01*
X195446838Y-92445317D01*
X195585910Y-92661441D01*
X195655711Y-92709134D01*
X195598559Y-92745910D01*
X195453569Y-92958110D01*
X195402560Y-93210000D01*
X195402560Y-95810000D01*
X195446838Y-96045317D01*
X195585910Y-96261441D01*
X195798110Y-96406431D01*
X196050000Y-96457440D01*
X196805860Y-96457440D01*
X197494208Y-97145787D01*
X197494210Y-97145790D01*
X197691648Y-97277713D01*
X197781325Y-97337633D01*
X198120000Y-97405001D01*
X198120005Y-97405000D01*
X208279995Y-97405000D01*
X208280000Y-97405001D01*
X208562484Y-97348810D01*
X208618675Y-97337633D01*
X208905790Y-97145790D01*
X208905791Y-97145789D01*
X210175787Y-95875792D01*
X210175790Y-95875790D01*
X210367633Y-95588675D01*
X210367633Y-95588674D01*
X210435001Y-95250000D01*
X210435000Y-95249995D01*
X210435000Y-95070478D01*
X210640837Y-94865000D01*
X210999522Y-94865000D01*
X211297630Y-95163629D01*
X211810900Y-95376757D01*
X212366661Y-95377242D01*
X212880303Y-95165010D01*
X213273629Y-94772370D01*
X213486757Y-94259100D01*
X213487242Y-93703339D01*
X213275010Y-93189697D01*
X212882370Y-92796371D01*
X212369100Y-92583243D01*
X211813339Y-92582758D01*
X211299697Y-92794990D01*
X210999163Y-93095000D01*
X210640478Y-93095000D01*
X210342370Y-92796371D01*
X209829100Y-92583243D01*
X209658485Y-92583094D01*
X209916579Y-92325000D01*
X215533420Y-92325000D01*
X216285000Y-93076579D01*
X216285000Y-95429522D01*
X215986371Y-95727630D01*
X215773243Y-96240900D01*
X215772758Y-96796661D01*
X215984990Y-97310303D01*
X216377630Y-97703629D01*
X216890900Y-97916757D01*
X217446661Y-97917242D01*
X217960303Y-97705010D01*
X218353629Y-97312370D01*
X218439949Y-97104488D01*
X218524990Y-97310303D01*
X218917630Y-97703629D01*
X219430900Y-97916757D01*
X219986661Y-97917242D01*
X220500303Y-97705010D01*
X220893629Y-97312370D01*
X220979949Y-97104488D01*
X221064990Y-97310303D01*
X221457630Y-97703629D01*
X221970900Y-97916757D01*
X222526661Y-97917242D01*
X223040303Y-97705010D01*
X223433629Y-97312370D01*
X223646757Y-96799100D01*
X223647242Y-96243339D01*
X223435010Y-95729697D01*
X223042370Y-95336371D01*
X222529100Y-95123243D01*
X221973339Y-95122758D01*
X221459697Y-95334990D01*
X221066371Y-95727630D01*
X220980051Y-95935512D01*
X220895010Y-95729697D01*
X220595000Y-95429163D01*
X220595000Y-92226680D01*
X220641325Y-92257633D01*
X220980000Y-92325000D01*
X225926602Y-92325000D01*
X225943106Y-92364943D01*
X226402637Y-92825278D01*
X227003352Y-93074716D01*
X227653795Y-93075284D01*
X228254943Y-92826894D01*
X228715278Y-92367363D01*
X228964716Y-91766648D01*
X228965284Y-91116205D01*
X228716894Y-90515057D01*
X228650379Y-90448426D01*
X228781441Y-90364090D01*
X228926431Y-90151890D01*
X228977440Y-89900000D01*
X228977440Y-87900000D01*
X228933162Y-87664683D01*
X228794090Y-87448559D01*
X228581890Y-87303569D01*
X228330000Y-87252560D01*
X228121731Y-87252560D01*
X227955790Y-87004210D01*
X227955787Y-87004208D01*
X226685790Y-85734210D01*
X226672006Y-85725000D01*
X226398675Y-85542367D01*
X226342484Y-85531190D01*
X226061502Y-85475298D01*
X226033162Y-85324683D01*
X225894090Y-85108559D01*
X225681890Y-84963569D01*
X225430000Y-84912560D01*
X221930000Y-84912560D01*
X221865000Y-84924791D01*
X221865000Y-80071104D01*
X221891441Y-80054090D01*
X222036431Y-79841890D01*
X222087440Y-79590000D01*
X222087440Y-77890000D01*
X222043162Y-77654683D01*
X221904090Y-77438559D01*
X221691890Y-77293569D01*
X221440000Y-77242560D01*
X219440000Y-77242560D01*
X219325000Y-77264199D01*
X219325000Y-77085000D01*
X220979995Y-77085000D01*
X220980000Y-77085001D01*
X221262484Y-77028810D01*
X221318675Y-77017633D01*
X221605790Y-76825790D01*
X222895787Y-75535792D01*
X222895790Y-75535790D01*
X223087633Y-75248675D01*
X223155000Y-74910000D01*
X223155000Y-74907038D01*
X223255317Y-74888162D01*
X223471441Y-74749090D01*
X223519134Y-74679289D01*
X223555910Y-74736441D01*
X223768110Y-74881431D01*
X224020000Y-74932440D01*
X224790861Y-74932440D01*
X224874208Y-75015787D01*
X224874210Y-75015790D01*
X225161325Y-75207633D01*
X225217516Y-75218810D01*
X225500000Y-75275001D01*
X225500005Y-75275000D01*
X227102560Y-75275000D01*
X227102560Y-75390000D01*
X227146838Y-75625317D01*
X227285910Y-75841441D01*
X227498110Y-75986431D01*
X227750000Y-76037440D01*
X229160000Y-76037440D01*
X229160000Y-95765902D01*
X229159281Y-95762287D01*
X228730071Y-95119929D01*
X228087713Y-94690719D01*
X227330000Y-94540000D01*
X226572287Y-94690719D01*
X225929929Y-95119929D01*
X225500719Y-95762287D01*
X225350000Y-96520000D01*
X225500719Y-97277713D01*
X225929929Y-97920071D01*
X226572287Y-98349281D01*
X226575902Y-98350000D01*
X155694098Y-98350000D01*
X155697713Y-98349281D01*
X156340071Y-97920071D01*
X156769281Y-97277713D01*
X156920000Y-96520000D01*
X156769281Y-95762287D01*
X156340071Y-95119929D01*
X155697713Y-94690719D01*
X154940000Y-94540000D01*
X154182287Y-94690719D01*
X153539929Y-95119929D01*
X153110719Y-95762287D01*
X153110000Y-95765902D01*
X153110000Y-93750000D01*
X157872560Y-93750000D01*
X157872560Y-96750000D01*
X157916838Y-96985317D01*
X158055910Y-97201441D01*
X158268110Y-97346431D01*
X158520000Y-97397440D01*
X161520000Y-97397440D01*
X161755317Y-97353162D01*
X161971441Y-97214090D01*
X162116431Y-97001890D01*
X162164611Y-96763970D01*
X163765635Y-96763970D01*
X163925418Y-97082739D01*
X164716187Y-97392723D01*
X165565387Y-97376497D01*
X166274582Y-97082739D01*
X166434365Y-96763970D01*
X165100000Y-95429605D01*
X163765635Y-96763970D01*
X162164611Y-96763970D01*
X162167440Y-96750000D01*
X162167440Y-94866187D01*
X162957277Y-94866187D01*
X162973503Y-95715387D01*
X163267261Y-96424582D01*
X163586030Y-96584365D01*
X164920395Y-95250000D01*
X165279605Y-95250000D01*
X166613970Y-96584365D01*
X166932739Y-96424582D01*
X167242723Y-95633813D01*
X167229853Y-94960213D01*
X170649392Y-94960213D01*
X170718857Y-95202397D01*
X171242302Y-95389144D01*
X171797368Y-95361362D01*
X172181143Y-95202397D01*
X172250608Y-94960213D01*
X173189392Y-94960213D01*
X173258857Y-95202397D01*
X173782302Y-95389144D01*
X174337368Y-95361362D01*
X174721143Y-95202397D01*
X174790608Y-94960213D01*
X173990000Y-94159605D01*
X173189392Y-94960213D01*
X172250608Y-94960213D01*
X171450000Y-94159605D01*
X170649392Y-94960213D01*
X167229853Y-94960213D01*
X167226497Y-94784613D01*
X166932739Y-94075418D01*
X166613970Y-93915635D01*
X165279605Y-95250000D01*
X164920395Y-95250000D01*
X163586030Y-93915635D01*
X163267261Y-94075418D01*
X162957277Y-94866187D01*
X162167440Y-94866187D01*
X162167440Y-93750000D01*
X162164812Y-93736030D01*
X163765635Y-93736030D01*
X165100000Y-95070395D01*
X166398093Y-93772302D01*
X170040856Y-93772302D01*
X170068638Y-94327368D01*
X170227603Y-94711143D01*
X170469787Y-94780608D01*
X171270395Y-93980000D01*
X171629605Y-93980000D01*
X172430213Y-94780608D01*
X172672397Y-94711143D01*
X172716453Y-94587656D01*
X172767603Y-94711143D01*
X173009787Y-94780608D01*
X173810395Y-93980000D01*
X174169605Y-93980000D01*
X174970213Y-94780608D01*
X175212397Y-94711143D01*
X175399144Y-94187698D01*
X175371362Y-93632632D01*
X175212397Y-93248857D01*
X174970213Y-93179392D01*
X174169605Y-93980000D01*
X173810395Y-93980000D01*
X173009787Y-93179392D01*
X172767603Y-93248857D01*
X172723547Y-93372344D01*
X172672397Y-93248857D01*
X172430213Y-93179392D01*
X171629605Y-93980000D01*
X171270395Y-93980000D01*
X170469787Y-93179392D01*
X170227603Y-93248857D01*
X170040856Y-93772302D01*
X166398093Y-93772302D01*
X166434365Y-93736030D01*
X166274582Y-93417261D01*
X165483813Y-93107277D01*
X164634613Y-93123503D01*
X163925418Y-93417261D01*
X163765635Y-93736030D01*
X162164812Y-93736030D01*
X162123162Y-93514683D01*
X161984090Y-93298559D01*
X161771890Y-93153569D01*
X161520000Y-93102560D01*
X158520000Y-93102560D01*
X158284683Y-93146838D01*
X158068559Y-93285910D01*
X157923569Y-93498110D01*
X157872560Y-93750000D01*
X153110000Y-93750000D01*
X153110000Y-92999787D01*
X170649392Y-92999787D01*
X171450000Y-93800395D01*
X172250608Y-92999787D01*
X173189392Y-92999787D01*
X173990000Y-93800395D01*
X174790608Y-92999787D01*
X174721143Y-92757603D01*
X174197698Y-92570856D01*
X173642632Y-92598638D01*
X173258857Y-92757603D01*
X173189392Y-92999787D01*
X172250608Y-92999787D01*
X172181143Y-92757603D01*
X171657698Y-92570856D01*
X171102632Y-92598638D01*
X170718857Y-92757603D01*
X170649392Y-92999787D01*
X153110000Y-92999787D01*
X153110000Y-91885750D01*
X177635000Y-91885750D01*
X177635000Y-93476309D01*
X177731673Y-93709698D01*
X177910301Y-93888327D01*
X178143690Y-93985000D01*
X178784250Y-93985000D01*
X178943000Y-93826250D01*
X178943000Y-91727000D01*
X179197000Y-91727000D01*
X179197000Y-93826250D01*
X179355750Y-93985000D01*
X179996310Y-93985000D01*
X180229699Y-93888327D01*
X180408327Y-93709698D01*
X180505000Y-93476309D01*
X180505000Y-91885750D01*
X180346250Y-91727000D01*
X179197000Y-91727000D01*
X178943000Y-91727000D01*
X177793750Y-91727000D01*
X177635000Y-91885750D01*
X153110000Y-91885750D01*
X153110000Y-89723691D01*
X177635000Y-89723691D01*
X177635000Y-91314250D01*
X177793750Y-91473000D01*
X178943000Y-91473000D01*
X178943000Y-89373750D01*
X179197000Y-89373750D01*
X179197000Y-91473000D01*
X180346250Y-91473000D01*
X180505000Y-91314250D01*
X180505000Y-89723691D01*
X180408327Y-89490302D01*
X180229699Y-89311673D01*
X179996310Y-89215000D01*
X179355750Y-89215000D01*
X179197000Y-89373750D01*
X178943000Y-89373750D01*
X178784250Y-89215000D01*
X178143690Y-89215000D01*
X177910301Y-89311673D01*
X177731673Y-89490302D01*
X177635000Y-89723691D01*
X153110000Y-89723691D01*
X153110000Y-88355000D01*
X154004250Y-88355000D01*
X154163000Y-88196250D01*
X154163000Y-86597000D01*
X154143000Y-86597000D01*
X154143000Y-86343000D01*
X154163000Y-86343000D01*
X154163000Y-84743750D01*
X154417000Y-84743750D01*
X154417000Y-86343000D01*
X154437000Y-86343000D01*
X154437000Y-86597000D01*
X154417000Y-86597000D01*
X154417000Y-88196250D01*
X154575750Y-88355000D01*
X155666310Y-88355000D01*
X155899699Y-88258327D01*
X155979814Y-88178211D01*
X156465806Y-88364388D01*
X157215435Y-88344250D01*
X157814467Y-88096123D01*
X157943715Y-87803320D01*
X156790000Y-86649605D01*
X156775858Y-86663748D01*
X156596253Y-86484143D01*
X156610395Y-86470000D01*
X156969605Y-86470000D01*
X158123320Y-87623715D01*
X158416123Y-87494467D01*
X158665574Y-86843305D01*
X163904674Y-86843305D01*
X164191043Y-87536372D01*
X164720839Y-88067093D01*
X165413405Y-88354672D01*
X166163305Y-88355326D01*
X166856372Y-88068957D01*
X167039855Y-87885793D01*
X167220839Y-88067093D01*
X167913405Y-88354672D01*
X168663305Y-88355326D01*
X169356372Y-88068957D01*
X169887093Y-87539161D01*
X170075677Y-87085000D01*
X177622560Y-87085000D01*
X177622560Y-87950000D01*
X177666838Y-88185317D01*
X177805910Y-88401441D01*
X178018110Y-88546431D01*
X178270000Y-88597440D01*
X179870000Y-88597440D01*
X180105317Y-88553162D01*
X180321441Y-88414090D01*
X180466431Y-88201890D01*
X180517440Y-87950000D01*
X180517440Y-87175750D01*
X185255000Y-87175750D01*
X185255000Y-88316309D01*
X185351673Y-88549698D01*
X185530301Y-88728327D01*
X185763690Y-88825000D01*
X186404250Y-88825000D01*
X186563000Y-88666250D01*
X186563000Y-87017000D01*
X186817000Y-87017000D01*
X186817000Y-88666250D01*
X186975750Y-88825000D01*
X187616310Y-88825000D01*
X187849699Y-88728327D01*
X188028327Y-88549698D01*
X188125000Y-88316309D01*
X188125000Y-87175750D01*
X187966250Y-87017000D01*
X186817000Y-87017000D01*
X186563000Y-87017000D01*
X185413750Y-87017000D01*
X185255000Y-87175750D01*
X180517440Y-87175750D01*
X180517440Y-84450000D01*
X180473162Y-84214683D01*
X180334090Y-83998559D01*
X180121890Y-83853569D01*
X179870000Y-83802560D01*
X178270000Y-83802560D01*
X178034683Y-83846838D01*
X177818559Y-83985910D01*
X177673569Y-84198110D01*
X177622560Y-84450000D01*
X177622560Y-85315000D01*
X169800483Y-85315000D01*
X169359161Y-84872907D01*
X168666595Y-84585328D01*
X167916695Y-84584674D01*
X167223628Y-84871043D01*
X167040145Y-85054207D01*
X166859161Y-84872907D01*
X166166595Y-84585328D01*
X165416695Y-84584674D01*
X164723628Y-84871043D01*
X164192907Y-85400839D01*
X163905328Y-86093405D01*
X163904674Y-86843305D01*
X158665574Y-86843305D01*
X158684388Y-86794194D01*
X158664250Y-86044565D01*
X158416123Y-85445533D01*
X158123320Y-85316285D01*
X156969605Y-86470000D01*
X156610395Y-86470000D01*
X156596253Y-86455858D01*
X156775858Y-86276253D01*
X156790000Y-86290395D01*
X157943715Y-85136680D01*
X157814467Y-84843877D01*
X157114194Y-84575612D01*
X156364565Y-84595750D01*
X155975098Y-84757072D01*
X155899699Y-84681673D01*
X155666310Y-84585000D01*
X154575750Y-84585000D01*
X154417000Y-84743750D01*
X154163000Y-84743750D01*
X154004250Y-84585000D01*
X153110000Y-84585000D01*
X153110000Y-76835000D01*
X170740000Y-76835000D01*
X170890719Y-77592713D01*
X171319929Y-78235071D01*
X171962287Y-78664281D01*
X172720000Y-78815000D01*
X173477713Y-78664281D01*
X174120071Y-78235071D01*
X174549281Y-77592713D01*
X174700000Y-76835000D01*
X174549281Y-76077287D01*
X174120071Y-75434929D01*
X173477713Y-75005719D01*
X172720000Y-74855000D01*
X171962287Y-75005719D01*
X171319929Y-75434929D01*
X170890719Y-76077287D01*
X170740000Y-76835000D01*
X153110000Y-76835000D01*
X153110000Y-72973691D01*
X185255000Y-72973691D01*
X185255000Y-74114250D01*
X185413750Y-74273000D01*
X186563000Y-74273000D01*
X186563000Y-72623750D01*
X186817000Y-72623750D01*
X186817000Y-74273000D01*
X187966250Y-74273000D01*
X188125000Y-74114250D01*
X188125000Y-72973691D01*
X188028327Y-72740302D01*
X187849699Y-72561673D01*
X187616310Y-72465000D01*
X186975750Y-72465000D01*
X186817000Y-72623750D01*
X186563000Y-72623750D01*
X186404250Y-72465000D01*
X185763690Y-72465000D01*
X185530301Y-72561673D01*
X185351673Y-72740302D01*
X185255000Y-72973691D01*
X153110000Y-72973691D01*
X153110000Y-69829608D01*
X153136286Y-69803322D01*
X153265533Y-70096123D01*
X153965806Y-70364388D01*
X154715435Y-70344250D01*
X155314467Y-70096123D01*
X155433029Y-69827529D01*
X155522554Y-69917054D01*
X155540000Y-69899608D01*
X155557446Y-69917054D01*
X155646971Y-69827529D01*
X155765533Y-70096123D01*
X156465806Y-70364388D01*
X157215435Y-70344250D01*
X157814467Y-70096123D01*
X157943715Y-69803320D01*
X156790000Y-68649605D01*
X156775858Y-68663748D01*
X156596253Y-68484143D01*
X156610395Y-68470000D01*
X156969605Y-68470000D01*
X158123320Y-69623715D01*
X158416123Y-69494467D01*
X158684388Y-68794194D01*
X158664250Y-68044565D01*
X158416123Y-67445533D01*
X158123320Y-67316285D01*
X156969605Y-68470000D01*
X156610395Y-68470000D01*
X156596253Y-68455858D01*
X156775858Y-68276253D01*
X156790000Y-68290395D01*
X157943715Y-67136680D01*
X157814467Y-66843877D01*
X157114194Y-66575612D01*
X156364565Y-66595750D01*
X155765533Y-66843877D01*
X155646971Y-67112471D01*
X155557446Y-67022946D01*
X155540000Y-67040392D01*
X155522554Y-67022946D01*
X155433029Y-67112471D01*
X155314467Y-66843877D01*
X154614194Y-66575612D01*
X153864565Y-66595750D01*
X153265533Y-66843877D01*
X153136286Y-67136678D01*
X153110000Y-67110392D01*
X153110000Y-65055750D01*
X153210000Y-65055750D01*
X153210000Y-65746310D01*
X153306673Y-65979699D01*
X153485302Y-66158327D01*
X153718691Y-66255000D01*
X154559250Y-66255000D01*
X154718000Y-66096250D01*
X154718000Y-64897000D01*
X154972000Y-64897000D01*
X154972000Y-66096250D01*
X155130750Y-66255000D01*
X155971309Y-66255000D01*
X156204698Y-66158327D01*
X156383327Y-65979699D01*
X156480000Y-65746310D01*
X156480000Y-65055750D01*
X156321250Y-64897000D01*
X154972000Y-64897000D01*
X154718000Y-64897000D01*
X153368750Y-64897000D01*
X153210000Y-65055750D01*
X153110000Y-65055750D01*
X153110000Y-63793690D01*
X153210000Y-63793690D01*
X153210000Y-64484250D01*
X153368750Y-64643000D01*
X154718000Y-64643000D01*
X154718000Y-63443750D01*
X154972000Y-63443750D01*
X154972000Y-64643000D01*
X156321250Y-64643000D01*
X156480000Y-64484250D01*
X156480000Y-63920000D01*
X157197560Y-63920000D01*
X157197560Y-65620000D01*
X157241838Y-65855317D01*
X157380910Y-66071441D01*
X157593110Y-66216431D01*
X157845000Y-66267440D01*
X159845000Y-66267440D01*
X160080317Y-66223162D01*
X160296441Y-66084090D01*
X160359884Y-65991238D01*
X160543110Y-66116431D01*
X160795000Y-66167440D01*
X162295000Y-66167440D01*
X162530317Y-66123162D01*
X162746441Y-65984090D01*
X162891431Y-65771890D01*
X162942440Y-65520000D01*
X162942440Y-64020000D01*
X162898162Y-63784683D01*
X162759090Y-63568559D01*
X162546890Y-63423569D01*
X162295000Y-63372560D01*
X160795000Y-63372560D01*
X160559683Y-63416838D01*
X160358933Y-63546017D01*
X160309090Y-63468559D01*
X160096890Y-63323569D01*
X159845000Y-63272560D01*
X157845000Y-63272560D01*
X157609683Y-63316838D01*
X157393559Y-63455910D01*
X157248569Y-63668110D01*
X157197560Y-63920000D01*
X156480000Y-63920000D01*
X156480000Y-63793690D01*
X156383327Y-63560301D01*
X156204698Y-63381673D01*
X155971309Y-63285000D01*
X155130750Y-63285000D01*
X154972000Y-63443750D01*
X154718000Y-63443750D01*
X154559250Y-63285000D01*
X153718691Y-63285000D01*
X153485302Y-63381673D01*
X153306673Y-63560301D01*
X153210000Y-63793690D01*
X153110000Y-63793690D01*
X153110000Y-62355750D01*
X189065000Y-62355750D01*
X189065000Y-63946309D01*
X189161673Y-64179698D01*
X189340301Y-64358327D01*
X189573690Y-64455000D01*
X190214250Y-64455000D01*
X190373000Y-64296250D01*
X190373000Y-62197000D01*
X190627000Y-62197000D01*
X190627000Y-64296250D01*
X190785750Y-64455000D01*
X191426310Y-64455000D01*
X191659699Y-64358327D01*
X191838327Y-64179698D01*
X191935000Y-63946309D01*
X191935000Y-62675750D01*
X196685000Y-62675750D01*
X196685000Y-64266309D01*
X196781673Y-64499698D01*
X196960301Y-64678327D01*
X197193690Y-64775000D01*
X197834250Y-64775000D01*
X197993000Y-64616250D01*
X197993000Y-62517000D01*
X198247000Y-62517000D01*
X198247000Y-64616250D01*
X198405750Y-64775000D01*
X199046310Y-64775000D01*
X199279699Y-64678327D01*
X199458327Y-64499698D01*
X199555000Y-64266309D01*
X199555000Y-63843690D01*
X200735000Y-63843690D01*
X200735000Y-64484250D01*
X200893750Y-64643000D01*
X202543000Y-64643000D01*
X202543000Y-63493750D01*
X202384250Y-63335000D01*
X201243691Y-63335000D01*
X201010302Y-63431673D01*
X200831673Y-63610301D01*
X200735000Y-63843690D01*
X199555000Y-63843690D01*
X199555000Y-62675750D01*
X199396250Y-62517000D01*
X198247000Y-62517000D01*
X197993000Y-62517000D01*
X196843750Y-62517000D01*
X196685000Y-62675750D01*
X191935000Y-62675750D01*
X191935000Y-62355750D01*
X191776250Y-62197000D01*
X190627000Y-62197000D01*
X190373000Y-62197000D01*
X189223750Y-62197000D01*
X189065000Y-62355750D01*
X153110000Y-62355750D01*
X153110000Y-60670213D01*
X173189392Y-60670213D01*
X173258857Y-60912397D01*
X173782302Y-61099144D01*
X174337368Y-61071362D01*
X174721143Y-60912397D01*
X174790608Y-60670213D01*
X175729392Y-60670213D01*
X175798857Y-60912397D01*
X176322302Y-61099144D01*
X176877368Y-61071362D01*
X177261143Y-60912397D01*
X177330608Y-60670213D01*
X176530000Y-59869605D01*
X175729392Y-60670213D01*
X174790608Y-60670213D01*
X173990000Y-59869605D01*
X173189392Y-60670213D01*
X153110000Y-60670213D01*
X153110000Y-59933970D01*
X158685635Y-59933970D01*
X158845418Y-60252739D01*
X159636187Y-60562723D01*
X160485387Y-60546497D01*
X161194582Y-60252739D01*
X161354365Y-59933970D01*
X160020000Y-58599605D01*
X158685635Y-59933970D01*
X153110000Y-59933970D01*
X153110000Y-57904098D01*
X153110719Y-57907713D01*
X153539929Y-58550071D01*
X154182287Y-58979281D01*
X154940000Y-59130000D01*
X155697713Y-58979281D01*
X156340071Y-58550071D01*
X156683437Y-58036187D01*
X157877277Y-58036187D01*
X157893503Y-58885387D01*
X158187261Y-59594582D01*
X158506030Y-59754365D01*
X159840395Y-58420000D01*
X160199605Y-58420000D01*
X161533970Y-59754365D01*
X161852739Y-59594582D01*
X162162723Y-58803813D01*
X162146497Y-57954613D01*
X161852739Y-57245418D01*
X161533970Y-57085635D01*
X160199605Y-58420000D01*
X159840395Y-58420000D01*
X158506030Y-57085635D01*
X158187261Y-57245418D01*
X157877277Y-58036187D01*
X156683437Y-58036187D01*
X156769281Y-57907713D01*
X156920000Y-57150000D01*
X156871472Y-56906030D01*
X158685635Y-56906030D01*
X160020000Y-58240395D01*
X161340395Y-56920000D01*
X162952560Y-56920000D01*
X162952560Y-59920000D01*
X162996838Y-60155317D01*
X163135910Y-60371441D01*
X163348110Y-60516431D01*
X163600000Y-60567440D01*
X166600000Y-60567440D01*
X166835317Y-60523162D01*
X167051441Y-60384090D01*
X167196431Y-60171890D01*
X167247440Y-59920000D01*
X167247440Y-59482302D01*
X172580856Y-59482302D01*
X172608638Y-60037368D01*
X172767603Y-60421143D01*
X173009787Y-60490608D01*
X173810395Y-59690000D01*
X174169605Y-59690000D01*
X174970213Y-60490608D01*
X175212397Y-60421143D01*
X175256453Y-60297656D01*
X175307603Y-60421143D01*
X175549787Y-60490608D01*
X176350395Y-59690000D01*
X176709605Y-59690000D01*
X177510213Y-60490608D01*
X177752397Y-60421143D01*
X177833543Y-60193691D01*
X189065000Y-60193691D01*
X189065000Y-61784250D01*
X189223750Y-61943000D01*
X190373000Y-61943000D01*
X190373000Y-59843750D01*
X190627000Y-59843750D01*
X190627000Y-61943000D01*
X191776250Y-61943000D01*
X191935000Y-61784250D01*
X191935000Y-60513691D01*
X196685000Y-60513691D01*
X196685000Y-62104250D01*
X196843750Y-62263000D01*
X197993000Y-62263000D01*
X197993000Y-60163750D01*
X198247000Y-60163750D01*
X198247000Y-62263000D01*
X199396250Y-62263000D01*
X199555000Y-62104250D01*
X199555000Y-60513691D01*
X199458327Y-60280302D01*
X199279699Y-60101673D01*
X199046310Y-60005000D01*
X198405750Y-60005000D01*
X198247000Y-60163750D01*
X197993000Y-60163750D01*
X197834250Y-60005000D01*
X197193690Y-60005000D01*
X196960301Y-60101673D01*
X196781673Y-60280302D01*
X196685000Y-60513691D01*
X191935000Y-60513691D01*
X191935000Y-60193691D01*
X191839977Y-59964285D01*
X201814760Y-59964285D01*
X202025169Y-60473515D01*
X202414436Y-60863461D01*
X202923298Y-61074759D01*
X203474285Y-61075240D01*
X203983515Y-60864831D01*
X204273852Y-60575000D01*
X208459522Y-60575000D01*
X208757630Y-60873629D01*
X209270900Y-61086757D01*
X209826661Y-61087242D01*
X210340303Y-60875010D01*
X210640837Y-60575000D01*
X210999522Y-60575000D01*
X211297630Y-60873629D01*
X211810900Y-61086757D01*
X212366661Y-61087242D01*
X212880303Y-60875010D01*
X213273629Y-60482370D01*
X213486757Y-59969100D01*
X213487242Y-59413339D01*
X213275010Y-58899697D01*
X212882370Y-58506371D01*
X212369100Y-58293243D01*
X211813339Y-58292758D01*
X211299697Y-58504990D01*
X210999163Y-58805000D01*
X210640478Y-58805000D01*
X210342370Y-58506371D01*
X209829100Y-58293243D01*
X209273339Y-58292758D01*
X208759697Y-58504990D01*
X208459163Y-58805000D01*
X204273523Y-58805000D01*
X203985564Y-58516539D01*
X203476702Y-58305241D01*
X202925715Y-58304760D01*
X202416485Y-58515169D01*
X202026539Y-58904436D01*
X201815241Y-59413298D01*
X201814760Y-59964285D01*
X191839977Y-59964285D01*
X191838327Y-59960302D01*
X191659699Y-59781673D01*
X191426310Y-59685000D01*
X190785750Y-59685000D01*
X190627000Y-59843750D01*
X190373000Y-59843750D01*
X190214250Y-59685000D01*
X189573690Y-59685000D01*
X189340301Y-59781673D01*
X189161673Y-59960302D01*
X189065000Y-60193691D01*
X177833543Y-60193691D01*
X177939144Y-59897698D01*
X177911362Y-59342632D01*
X177752397Y-58958857D01*
X177510213Y-58889392D01*
X176709605Y-59690000D01*
X176350395Y-59690000D01*
X175549787Y-58889392D01*
X175307603Y-58958857D01*
X175263547Y-59082344D01*
X175212397Y-58958857D01*
X174970213Y-58889392D01*
X174169605Y-59690000D01*
X173810395Y-59690000D01*
X173009787Y-58889392D01*
X172767603Y-58958857D01*
X172580856Y-59482302D01*
X167247440Y-59482302D01*
X167247440Y-58709787D01*
X173189392Y-58709787D01*
X173990000Y-59510395D01*
X174790608Y-58709787D01*
X175729392Y-58709787D01*
X176530000Y-59510395D01*
X177330608Y-58709787D01*
X177261143Y-58467603D01*
X176737698Y-58280856D01*
X176182632Y-58308638D01*
X175798857Y-58467603D01*
X175729392Y-58709787D01*
X174790608Y-58709787D01*
X174721143Y-58467603D01*
X174197698Y-58280856D01*
X173642632Y-58308638D01*
X173258857Y-58467603D01*
X173189392Y-58709787D01*
X167247440Y-58709787D01*
X167247440Y-56920000D01*
X167203162Y-56684683D01*
X167064090Y-56468559D01*
X166851890Y-56323569D01*
X166600000Y-56272560D01*
X163600000Y-56272560D01*
X163364683Y-56316838D01*
X163148559Y-56455910D01*
X163003569Y-56668110D01*
X162952560Y-56920000D01*
X161340395Y-56920000D01*
X161354365Y-56906030D01*
X161194582Y-56587261D01*
X160403813Y-56277277D01*
X159554613Y-56293503D01*
X158845418Y-56587261D01*
X158685635Y-56906030D01*
X156871472Y-56906030D01*
X156769281Y-56392287D01*
X156340071Y-55749929D01*
X155697713Y-55320719D01*
X155694098Y-55320000D01*
X196672560Y-55320000D01*
X196672560Y-56105000D01*
G36*
X219440000Y-80237440D02*
X220095000Y-80237440D01*
X220095000Y-84925000D01*
X218565750Y-84925000D01*
X218407000Y-85083750D01*
X218407000Y-86233000D01*
X218427000Y-86233000D01*
X218427000Y-86487000D01*
X218407000Y-86487000D01*
X218407000Y-87636250D01*
X218565750Y-87795000D01*
X220095000Y-87795000D01*
X220095000Y-90573421D01*
X219065790Y-89544210D01*
X219038222Y-89525790D01*
X218778675Y-89352367D01*
X218722484Y-89341190D01*
X218440000Y-89284999D01*
X218439995Y-89285000D01*
X214677279Y-89285000D01*
X214554090Y-89093559D01*
X214341890Y-88948569D01*
X214090000Y-88897560D01*
X212590000Y-88897560D01*
X212354683Y-88941838D01*
X212138559Y-89080910D01*
X212090866Y-89150711D01*
X212054090Y-89093559D01*
X211841890Y-88948569D01*
X211725000Y-88924898D01*
X211725000Y-88727091D01*
X211905317Y-88693162D01*
X212117826Y-88556416D01*
X212308110Y-88686431D01*
X212560000Y-88737440D01*
X214160000Y-88737440D01*
X214395317Y-88693162D01*
X214611441Y-88554090D01*
X214756431Y-88341890D01*
X214807440Y-88090000D01*
X214807440Y-86645750D01*
X215895000Y-86645750D01*
X215895000Y-87286310D01*
X215991673Y-87519699D01*
X216170302Y-87698327D01*
X216403691Y-87795000D01*
X217994250Y-87795000D01*
X218153000Y-87636250D01*
X218153000Y-86487000D01*
X216053750Y-86487000D01*
X215895000Y-86645750D01*
X214807440Y-86645750D01*
X214807440Y-86090000D01*
X214763162Y-85854683D01*
X214624090Y-85638559D01*
X214411890Y-85493569D01*
X214160000Y-85442560D01*
X212560000Y-85442560D01*
X212324683Y-85486838D01*
X212112174Y-85623584D01*
X211921890Y-85493569D01*
X211670000Y-85442560D01*
X211154139Y-85442560D01*
X211145270Y-85433690D01*
X215895000Y-85433690D01*
X215895000Y-86074250D01*
X216053750Y-86233000D01*
X218153000Y-86233000D01*
X218153000Y-85083750D01*
X217994250Y-84925000D01*
X216403691Y-84925000D01*
X216170302Y-85021673D01*
X215991673Y-85200301D01*
X215895000Y-85433690D01*
X211145270Y-85433690D01*
X210810790Y-85099210D01*
X210797006Y-85090000D01*
X210810790Y-85080790D01*
X210810791Y-85080789D01*
X211154139Y-84737440D01*
X211670000Y-84737440D01*
X211905317Y-84693162D01*
X212117826Y-84556416D01*
X212308110Y-84686431D01*
X212560000Y-84737440D01*
X214160000Y-84737440D01*
X214395317Y-84693162D01*
X214611441Y-84554090D01*
X214756431Y-84341890D01*
X214807440Y-84090000D01*
X214807440Y-83975000D01*
X216629995Y-83975000D01*
X216630000Y-83975001D01*
X216927667Y-83915790D01*
X216968675Y-83907633D01*
X217255790Y-83715790D01*
X217255791Y-83715789D01*
X219065787Y-81905792D01*
X219065790Y-81905790D01*
X219257633Y-81618675D01*
X219257634Y-81618674D01*
X219325001Y-81280000D01*
X219325000Y-81279995D01*
X219325000Y-80214152D01*
X219440000Y-80237440D01*
X219440000Y-80237440D01*
G37*
X219440000Y-80237440D02*
X220095000Y-80237440D01*
X220095000Y-84925000D01*
X218565750Y-84925000D01*
X218407000Y-85083750D01*
X218407000Y-86233000D01*
X218427000Y-86233000D01*
X218427000Y-86487000D01*
X218407000Y-86487000D01*
X218407000Y-87636250D01*
X218565750Y-87795000D01*
X220095000Y-87795000D01*
X220095000Y-90573421D01*
X219065790Y-89544210D01*
X219038222Y-89525790D01*
X218778675Y-89352367D01*
X218722484Y-89341190D01*
X218440000Y-89284999D01*
X218439995Y-89285000D01*
X214677279Y-89285000D01*
X214554090Y-89093559D01*
X214341890Y-88948569D01*
X214090000Y-88897560D01*
X212590000Y-88897560D01*
X212354683Y-88941838D01*
X212138559Y-89080910D01*
X212090866Y-89150711D01*
X212054090Y-89093559D01*
X211841890Y-88948569D01*
X211725000Y-88924898D01*
X211725000Y-88727091D01*
X211905317Y-88693162D01*
X212117826Y-88556416D01*
X212308110Y-88686431D01*
X212560000Y-88737440D01*
X214160000Y-88737440D01*
X214395317Y-88693162D01*
X214611441Y-88554090D01*
X214756431Y-88341890D01*
X214807440Y-88090000D01*
X214807440Y-86645750D01*
X215895000Y-86645750D01*
X215895000Y-87286310D01*
X215991673Y-87519699D01*
X216170302Y-87698327D01*
X216403691Y-87795000D01*
X217994250Y-87795000D01*
X218153000Y-87636250D01*
X218153000Y-86487000D01*
X216053750Y-86487000D01*
X215895000Y-86645750D01*
X214807440Y-86645750D01*
X214807440Y-86090000D01*
X214763162Y-85854683D01*
X214624090Y-85638559D01*
X214411890Y-85493569D01*
X214160000Y-85442560D01*
X212560000Y-85442560D01*
X212324683Y-85486838D01*
X212112174Y-85623584D01*
X211921890Y-85493569D01*
X211670000Y-85442560D01*
X211154139Y-85442560D01*
X211145270Y-85433690D01*
X215895000Y-85433690D01*
X215895000Y-86074250D01*
X216053750Y-86233000D01*
X218153000Y-86233000D01*
X218153000Y-85083750D01*
X217994250Y-84925000D01*
X216403691Y-84925000D01*
X216170302Y-85021673D01*
X215991673Y-85200301D01*
X215895000Y-85433690D01*
X211145270Y-85433690D01*
X210810790Y-85099210D01*
X210797006Y-85090000D01*
X210810790Y-85080790D01*
X210810791Y-85080789D01*
X211154139Y-84737440D01*
X211670000Y-84737440D01*
X211905317Y-84693162D01*
X212117826Y-84556416D01*
X212308110Y-84686431D01*
X212560000Y-84737440D01*
X214160000Y-84737440D01*
X214395317Y-84693162D01*
X214611441Y-84554090D01*
X214756431Y-84341890D01*
X214807440Y-84090000D01*
X214807440Y-83975000D01*
X216629995Y-83975000D01*
X216630000Y-83975001D01*
X216927667Y-83915790D01*
X216968675Y-83907633D01*
X217255790Y-83715790D01*
X217255791Y-83715789D01*
X219065787Y-81905792D01*
X219065790Y-81905790D01*
X219257633Y-81618675D01*
X219257634Y-81618674D01*
X219325001Y-81280000D01*
X219325000Y-81279995D01*
X219325000Y-80214152D01*
X219440000Y-80237440D01*
G36*
X221064990Y-57940303D02*
X221365000Y-58240837D01*
X221365000Y-66039995D01*
X221364999Y-66040000D01*
X221398439Y-66208110D01*
X221432367Y-66378675D01*
X221577411Y-66595750D01*
X221624210Y-66665790D01*
X222894208Y-67935787D01*
X222894210Y-67935790D01*
X222905252Y-67943168D01*
X219084210Y-71764210D01*
X218892367Y-72051325D01*
X218892367Y-72051326D01*
X218824999Y-72390000D01*
X218825000Y-72390005D01*
X218825000Y-73293421D01*
X218073420Y-74045000D01*
X216266579Y-74045000D01*
X216014884Y-73793305D01*
X216015240Y-73385715D01*
X215804831Y-72876485D01*
X215415564Y-72486539D01*
X214906702Y-72275241D01*
X214355715Y-72274760D01*
X213846485Y-72485169D01*
X213456539Y-72874436D01*
X213245241Y-73383298D01*
X213245084Y-73563504D01*
X210975000Y-71293420D01*
X210975000Y-70199039D01*
X215778096Y-70199039D01*
X215938959Y-70587423D01*
X216314866Y-71002389D01*
X216820959Y-71241914D01*
X217043000Y-71120629D01*
X217043000Y-69977000D01*
X217297000Y-69977000D01*
X217297000Y-71120629D01*
X217519041Y-71241914D01*
X218025134Y-71002389D01*
X218401041Y-70587423D01*
X218561904Y-70199039D01*
X218439915Y-69977000D01*
X217297000Y-69977000D01*
X217043000Y-69977000D01*
X215900085Y-69977000D01*
X215778096Y-70199039D01*
X210975000Y-70199039D01*
X210975000Y-68807440D01*
X211090000Y-68807440D01*
X211325317Y-68763162D01*
X211541441Y-68624090D01*
X211686431Y-68411890D01*
X211737440Y-68160000D01*
X211737440Y-68118355D01*
X211751325Y-68127633D01*
X212090000Y-68195000D01*
X212449146Y-68195000D01*
X212486838Y-68395317D01*
X212625910Y-68611441D01*
X212838110Y-68756431D01*
X213090000Y-68807440D01*
X215090000Y-68807440D01*
X215325317Y-68763162D01*
X215541441Y-68624090D01*
X215686431Y-68411890D01*
X215730352Y-68195000D01*
X216040527Y-68195000D01*
X216127189Y-68324698D01*
X216531703Y-68594986D01*
X216314866Y-68697611D01*
X215938959Y-69112577D01*
X215778096Y-69500961D01*
X215900085Y-69723000D01*
X217043000Y-69723000D01*
X217043000Y-69703000D01*
X217297000Y-69703000D01*
X217297000Y-69723000D01*
X218439915Y-69723000D01*
X218561904Y-69500961D01*
X218401041Y-69112577D01*
X218025134Y-68697611D01*
X217808297Y-68594986D01*
X218212811Y-68324698D01*
X218299473Y-68195000D01*
X218439995Y-68195000D01*
X218440000Y-68195001D01*
X218722484Y-68138810D01*
X218778675Y-68127633D01*
X219065790Y-67935790D01*
X219065791Y-67935789D01*
X220335787Y-66665792D01*
X220335790Y-66665790D01*
X220527633Y-66378675D01*
X220544217Y-66295302D01*
X220595001Y-66040000D01*
X220595000Y-66039995D01*
X220595000Y-58240478D01*
X220893629Y-57942370D01*
X220979949Y-57734488D01*
X221064990Y-57940303D01*
X221064990Y-57940303D01*
G37*
X221064990Y-57940303D02*
X221365000Y-58240837D01*
X221365000Y-66039995D01*
X221364999Y-66040000D01*
X221398439Y-66208110D01*
X221432367Y-66378675D01*
X221577411Y-66595750D01*
X221624210Y-66665790D01*
X222894208Y-67935787D01*
X222894210Y-67935790D01*
X222905252Y-67943168D01*
X219084210Y-71764210D01*
X218892367Y-72051325D01*
X218892367Y-72051326D01*
X218824999Y-72390000D01*
X218825000Y-72390005D01*
X218825000Y-73293421D01*
X218073420Y-74045000D01*
X216266579Y-74045000D01*
X216014884Y-73793305D01*
X216015240Y-73385715D01*
X215804831Y-72876485D01*
X215415564Y-72486539D01*
X214906702Y-72275241D01*
X214355715Y-72274760D01*
X213846485Y-72485169D01*
X213456539Y-72874436D01*
X213245241Y-73383298D01*
X213245084Y-73563504D01*
X210975000Y-71293420D01*
X210975000Y-70199039D01*
X215778096Y-70199039D01*
X215938959Y-70587423D01*
X216314866Y-71002389D01*
X216820959Y-71241914D01*
X217043000Y-71120629D01*
X217043000Y-69977000D01*
X217297000Y-69977000D01*
X217297000Y-71120629D01*
X217519041Y-71241914D01*
X218025134Y-71002389D01*
X218401041Y-70587423D01*
X218561904Y-70199039D01*
X218439915Y-69977000D01*
X217297000Y-69977000D01*
X217043000Y-69977000D01*
X215900085Y-69977000D01*
X215778096Y-70199039D01*
X210975000Y-70199039D01*
X210975000Y-68807440D01*
X211090000Y-68807440D01*
X211325317Y-68763162D01*
X211541441Y-68624090D01*
X211686431Y-68411890D01*
X211737440Y-68160000D01*
X211737440Y-68118355D01*
X211751325Y-68127633D01*
X212090000Y-68195000D01*
X212449146Y-68195000D01*
X212486838Y-68395317D01*
X212625910Y-68611441D01*
X212838110Y-68756431D01*
X213090000Y-68807440D01*
X215090000Y-68807440D01*
X215325317Y-68763162D01*
X215541441Y-68624090D01*
X215686431Y-68411890D01*
X215730352Y-68195000D01*
X216040527Y-68195000D01*
X216127189Y-68324698D01*
X216531703Y-68594986D01*
X216314866Y-68697611D01*
X215938959Y-69112577D01*
X215778096Y-69500961D01*
X215900085Y-69723000D01*
X217043000Y-69723000D01*
X217043000Y-69703000D01*
X217297000Y-69703000D01*
X217297000Y-69723000D01*
X218439915Y-69723000D01*
X218561904Y-69500961D01*
X218401041Y-69112577D01*
X218025134Y-68697611D01*
X217808297Y-68594986D01*
X218212811Y-68324698D01*
X218299473Y-68195000D01*
X218439995Y-68195000D01*
X218440000Y-68195001D01*
X218722484Y-68138810D01*
X218778675Y-68127633D01*
X219065790Y-67935790D01*
X219065791Y-67935789D01*
X220335787Y-66665792D01*
X220335790Y-66665790D01*
X220527633Y-66378675D01*
X220544217Y-66295302D01*
X220595001Y-66040000D01*
X220595000Y-66039995D01*
X220595000Y-58240478D01*
X220893629Y-57942370D01*
X220979949Y-57734488D01*
X221064990Y-57940303D01*
G36*
X154483748Y-68455858D02*
X154469605Y-68470000D01*
X154483748Y-68484143D01*
X154304143Y-68663748D01*
X154290000Y-68649605D01*
X154275858Y-68663748D01*
X154096253Y-68484143D01*
X154110395Y-68470000D01*
X154096253Y-68455858D01*
X154275858Y-68276253D01*
X154290000Y-68290395D01*
X154304143Y-68276253D01*
X154483748Y-68455858D01*
X154483748Y-68455858D01*
G37*
X154483748Y-68455858D02*
X154469605Y-68470000D01*
X154483748Y-68484143D01*
X154304143Y-68663748D01*
X154290000Y-68649605D01*
X154275858Y-68663748D01*
X154096253Y-68484143D01*
X154110395Y-68470000D01*
X154096253Y-68455858D01*
X154275858Y-68276253D01*
X154290000Y-68290395D01*
X154304143Y-68276253D01*
X154483748Y-68455858D01*
M02*
