%TF.GenerationSoftware,KiCad,Pcbnew,(6.0.10)*%
%TF.CreationDate,2023-04-08T13:29:20+03:00*%
%TF.ProjectId,DelSol_Modulator,44656c53-6f6c-45f4-9d6f-64756c61746f,rev?*%
%TF.SameCoordinates,Original*%
%TF.FileFunction,Copper,L2,Bot*%
%TF.FilePolarity,Positive*%
%FSLAX46Y46*%
G04 Gerber Fmt 4.6, Leading zero omitted, Abs format (unit mm)*
G04 Created by KiCad (PCBNEW (6.0.10)) date 2023-04-08 13:29:20*
%MOMM*%
%LPD*%
G01*
G04 APERTURE LIST*
G04 Aperture macros list*
%AMRoundRect*
0 Rectangle with rounded corners*
0 $1 Rounding radius*
0 $2 $3 $4 $5 $6 $7 $8 $9 X,Y pos of 4 corners*
0 Add a 4 corners polygon primitive as box body*
4,1,4,$2,$3,$4,$5,$6,$7,$8,$9,$2,$3,0*
0 Add four circle primitives for the rounded corners*
1,1,$1+$1,$2,$3*
1,1,$1+$1,$4,$5*
1,1,$1+$1,$6,$7*
1,1,$1+$1,$8,$9*
0 Add four rect primitives between the rounded corners*
20,1,$1+$1,$2,$3,$4,$5,0*
20,1,$1+$1,$4,$5,$6,$7,0*
20,1,$1+$1,$6,$7,$8,$9,0*
20,1,$1+$1,$8,$9,$2,$3,0*%
G04 Aperture macros list end*
%TA.AperFunction,ComponentPad*%
%ADD10R,1.700000X1.700000*%
%TD*%
%TA.AperFunction,ComponentPad*%
%ADD11O,1.700000X1.700000*%
%TD*%
%TA.AperFunction,ComponentPad*%
%ADD12R,1.600000X1.600000*%
%TD*%
%TA.AperFunction,ComponentPad*%
%ADD13O,1.600000X1.600000*%
%TD*%
%TA.AperFunction,SMDPad,CuDef*%
%ADD14RoundRect,0.250000X0.337500X0.475000X-0.337500X0.475000X-0.337500X-0.475000X0.337500X-0.475000X0*%
%TD*%
%TA.AperFunction,SMDPad,CuDef*%
%ADD15RoundRect,0.250000X0.625000X-0.400000X0.625000X0.400000X-0.625000X0.400000X-0.625000X-0.400000X0*%
%TD*%
%TA.AperFunction,SMDPad,CuDef*%
%ADD16RoundRect,0.250000X0.400000X0.625000X-0.400000X0.625000X-0.400000X-0.625000X0.400000X-0.625000X0*%
%TD*%
%TA.AperFunction,SMDPad,CuDef*%
%ADD17RoundRect,0.250000X-0.625000X0.400000X-0.625000X-0.400000X0.625000X-0.400000X0.625000X0.400000X0*%
%TD*%
%TA.AperFunction,SMDPad,CuDef*%
%ADD18R,1.700000X3.300000*%
%TD*%
%TA.AperFunction,SMDPad,CuDef*%
%ADD19RoundRect,0.250000X0.650000X-0.412500X0.650000X0.412500X-0.650000X0.412500X-0.650000X-0.412500X0*%
%TD*%
%TA.AperFunction,SMDPad,CuDef*%
%ADD20RoundRect,0.250000X-0.400000X-0.625000X0.400000X-0.625000X0.400000X0.625000X-0.400000X0.625000X0*%
%TD*%
%TA.AperFunction,SMDPad,CuDef*%
%ADD21RoundRect,0.250000X-0.650000X0.412500X-0.650000X-0.412500X0.650000X-0.412500X0.650000X0.412500X0*%
%TD*%
%TA.AperFunction,SMDPad,CuDef*%
%ADD22RoundRect,0.250000X0.475000X-0.337500X0.475000X0.337500X-0.475000X0.337500X-0.475000X-0.337500X0*%
%TD*%
%TA.AperFunction,SMDPad,CuDef*%
%ADD23RoundRect,0.250000X-0.412500X-0.650000X0.412500X-0.650000X0.412500X0.650000X-0.412500X0.650000X0*%
%TD*%
%TA.AperFunction,SMDPad,CuDef*%
%ADD24RoundRect,0.250000X0.412500X0.650000X-0.412500X0.650000X-0.412500X-0.650000X0.412500X-0.650000X0*%
%TD*%
%TA.AperFunction,SMDPad,CuDef*%
%ADD25RoundRect,0.250000X-0.337500X-0.475000X0.337500X-0.475000X0.337500X0.475000X-0.337500X0.475000X0*%
%TD*%
%TA.AperFunction,ViaPad*%
%ADD26C,0.800000*%
%TD*%
%TA.AperFunction,Conductor*%
%ADD27C,0.400000*%
%TD*%
%TA.AperFunction,Conductor*%
%ADD28C,1.000000*%
%TD*%
G04 APERTURE END LIST*
D10*
X78755000Y-68580000D03*
D11*
X81295000Y-68580000D03*
X83835000Y-68580000D03*
D12*
X58420000Y-38100000D03*
D13*
X58420000Y-40640000D03*
X58420000Y-43180000D03*
X58420000Y-45720000D03*
X58420000Y-48260000D03*
X58420000Y-50800000D03*
X58420000Y-53340000D03*
X66040000Y-53340000D03*
X66040000Y-50800000D03*
X66040000Y-48260000D03*
X66040000Y-45720000D03*
X66040000Y-43180000D03*
X66040000Y-40640000D03*
X66040000Y-38100000D03*
D10*
X48260000Y-33020000D03*
D11*
X50800000Y-33020000D03*
X53340000Y-33020000D03*
D10*
X91455000Y-33020000D03*
D11*
X93995000Y-33020000D03*
X96535000Y-33020000D03*
D10*
X121920000Y-33035000D03*
D11*
X121920000Y-35575000D03*
X121920000Y-38115000D03*
D10*
X129535000Y-59690000D03*
D11*
X126995000Y-59690000D03*
X124455000Y-59690000D03*
X121915000Y-59690000D03*
X119375000Y-59690000D03*
D10*
X91440000Y-36830000D03*
D11*
X93980000Y-36830000D03*
X96520000Y-36830000D03*
D10*
X48275000Y-36830000D03*
D11*
X50815000Y-36830000D03*
X53355000Y-36830000D03*
D12*
X101610000Y-38095000D03*
D13*
X101610000Y-40635000D03*
X101610000Y-43175000D03*
X101610000Y-45715000D03*
X101610000Y-48255000D03*
X101610000Y-50795000D03*
X101610000Y-53335000D03*
X109230000Y-53335000D03*
X109230000Y-50795000D03*
X109230000Y-48255000D03*
X109230000Y-45715000D03*
X109230000Y-43175000D03*
X109230000Y-40635000D03*
X109230000Y-38095000D03*
D10*
X82550000Y-52070000D03*
D11*
X82550000Y-49530000D03*
D10*
X77470000Y-52070000D03*
D11*
X77470000Y-49530000D03*
D10*
X78740000Y-73660000D03*
D11*
X81280000Y-73660000D03*
X83820000Y-73660000D03*
D12*
X38110000Y-53335000D03*
D13*
X38110000Y-55875000D03*
X38110000Y-58415000D03*
X38110000Y-60955000D03*
X38110000Y-63495000D03*
X38110000Y-66035000D03*
X38110000Y-68575000D03*
X45730000Y-68575000D03*
X45730000Y-66035000D03*
X45730000Y-63495000D03*
X45730000Y-60955000D03*
X45730000Y-58415000D03*
X45730000Y-55875000D03*
X45730000Y-53335000D03*
D14*
X49297500Y-46345000D03*
X47222500Y-46345000D03*
D15*
X60960000Y-40920000D03*
X60960000Y-37820000D03*
D16*
X76480000Y-40640000D03*
X73380000Y-40640000D03*
D17*
X43180000Y-36550000D03*
X43180000Y-39650000D03*
D16*
X56160000Y-40640000D03*
X53060000Y-40640000D03*
D18*
X127000000Y-55210000D03*
X127000000Y-49710000D03*
D19*
X43180000Y-65062500D03*
X43180000Y-61937500D03*
D17*
X79375000Y-35280000D03*
X79375000Y-38380000D03*
D16*
X72035000Y-50800000D03*
X68935000Y-50800000D03*
X115850000Y-59690000D03*
X112750000Y-59690000D03*
X59690000Y-33020000D03*
X56590000Y-33020000D03*
D14*
X92477500Y-41910000D03*
X90402500Y-41910000D03*
D17*
X86360000Y-35560000D03*
X86360000Y-38660000D03*
D20*
X88620000Y-53975000D03*
X91720000Y-53975000D03*
D15*
X96520000Y-46000000D03*
X96520000Y-42900000D03*
D17*
X69850000Y-37820000D03*
X69850000Y-40920000D03*
X123190000Y-41630000D03*
X123190000Y-44730000D03*
D21*
X40640000Y-61872500D03*
X40640000Y-64997500D03*
D14*
X49297500Y-43180000D03*
X47222500Y-43180000D03*
D15*
X104140000Y-40920000D03*
X104140000Y-37820000D03*
D18*
X124460000Y-55220000D03*
X124460000Y-49720000D03*
D22*
X63500000Y-41677500D03*
X63500000Y-39602500D03*
D16*
X99340000Y-40640000D03*
X96240000Y-40640000D03*
X75210000Y-73660000D03*
X72110000Y-73660000D03*
D15*
X124460000Y-67590000D03*
X124460000Y-64490000D03*
D23*
X40357500Y-49860000D03*
X43482500Y-49860000D03*
D20*
X115290000Y-40640000D03*
X118390000Y-40640000D03*
D15*
X40640000Y-59970000D03*
X40640000Y-56870000D03*
D21*
X112395000Y-37807500D03*
X112395000Y-40932500D03*
D15*
X53340000Y-46635000D03*
X53340000Y-43535000D03*
D19*
X60960000Y-47282500D03*
X60960000Y-44157500D03*
D20*
X60680000Y-57150000D03*
X63780000Y-57150000D03*
D24*
X98717500Y-53975000D03*
X95592500Y-53975000D03*
D20*
X112750000Y-55880000D03*
X115850000Y-55880000D03*
D16*
X115850000Y-69850000D03*
X112750000Y-69850000D03*
D18*
X121920000Y-55270000D03*
X121920000Y-49770000D03*
D19*
X104140000Y-47282500D03*
X104140000Y-44157500D03*
D16*
X76480000Y-38100000D03*
X73380000Y-38100000D03*
D15*
X43180000Y-59970000D03*
X43180000Y-56870000D03*
D20*
X68935000Y-48260000D03*
X72035000Y-48260000D03*
D22*
X55880000Y-53107500D03*
X55880000Y-51032500D03*
D17*
X119380000Y-64490000D03*
X119380000Y-67590000D03*
D20*
X50520000Y-50800000D03*
X53620000Y-50800000D03*
D24*
X115862500Y-44450000D03*
X112737500Y-44450000D03*
D15*
X127000000Y-67590000D03*
X127000000Y-64490000D03*
D17*
X43180000Y-42900000D03*
X43180000Y-46000000D03*
D20*
X115290000Y-38100000D03*
X118390000Y-38100000D03*
D16*
X115850000Y-50800000D03*
X112750000Y-50800000D03*
D25*
X69447500Y-53340000D03*
X71522500Y-53340000D03*
D20*
X95605000Y-50800000D03*
X98705000Y-50800000D03*
D21*
X106680000Y-44157500D03*
X106680000Y-47282500D03*
D17*
X82550000Y-35280000D03*
X82550000Y-38380000D03*
D15*
X126530000Y-44730000D03*
X126530000Y-41630000D03*
D17*
X86360000Y-41630000D03*
X86360000Y-44730000D03*
D16*
X115850000Y-64770000D03*
X112750000Y-64770000D03*
D21*
X63500000Y-44157500D03*
X63500000Y-47282500D03*
D22*
X106680000Y-41677500D03*
X106680000Y-39602500D03*
D20*
X87350000Y-73660000D03*
X90450000Y-73660000D03*
D15*
X121920000Y-67590000D03*
X121920000Y-64490000D03*
D14*
X92477500Y-44450000D03*
X90402500Y-44450000D03*
D25*
X113030000Y-53340000D03*
X115105000Y-53340000D03*
D16*
X103150000Y-33020000D03*
X100050000Y-33020000D03*
D20*
X88620000Y-50800000D03*
X91720000Y-50800000D03*
X50520000Y-53340000D03*
X53620000Y-53340000D03*
D26*
X118745000Y-44450000D03*
X50165000Y-62230000D03*
X38909500Y-49530000D03*
X67310000Y-62230000D03*
X50800000Y-46355000D03*
X93980000Y-41910000D03*
X43180000Y-48260000D03*
X66040000Y-60960000D03*
X107950000Y-60960000D03*
X104140000Y-58420000D03*
X78105000Y-46355000D03*
X90170000Y-46355000D03*
X69850000Y-73660000D03*
X43180000Y-69215000D03*
X92710000Y-73660000D03*
X97155000Y-53975000D03*
X97155000Y-64135000D03*
X105410000Y-57150000D03*
X105410000Y-72390000D03*
D27*
X126995000Y-64485000D02*
X127000000Y-64490000D01*
X126995000Y-59690000D02*
X126995000Y-64485000D01*
X127000000Y-64490000D02*
X124950000Y-66540000D01*
X124460000Y-64490000D02*
X123410000Y-65540000D01*
X124455000Y-64485000D02*
X124455000Y-59690000D01*
X124460000Y-64490000D02*
X124455000Y-64485000D01*
X121920000Y-64490000D02*
X119380000Y-64490000D01*
X121915000Y-64485000D02*
X121915000Y-59690000D01*
X121920000Y-64490000D02*
X121915000Y-64485000D01*
X102235000Y-44450000D02*
X100965000Y-44450000D01*
X102527500Y-44157500D02*
X102235000Y-44450000D01*
X106680000Y-41677500D02*
X106680000Y-44157500D01*
X60960000Y-44157500D02*
X63500000Y-44157500D01*
X110965000Y-44375000D02*
X110965000Y-45880000D01*
X92477500Y-41910000D02*
X92477500Y-42947500D01*
X100465000Y-43950000D02*
X93480000Y-43950000D01*
X46280000Y-64695000D02*
X47700000Y-64695000D01*
D28*
X81280000Y-68595000D02*
X81295000Y-68580000D01*
D27*
X40640000Y-64997500D02*
X43115000Y-64997500D01*
X38909500Y-49530000D02*
X40027500Y-49530000D01*
X104140000Y-44157500D02*
X106680000Y-44157500D01*
X106680000Y-44157500D02*
X107657500Y-44157500D01*
X92477500Y-42947500D02*
X92477500Y-44450000D01*
X107875000Y-44375000D02*
X110965000Y-44375000D01*
X107657500Y-44157500D02*
X107875000Y-44375000D01*
X110965000Y-45880000D02*
X110999999Y-45914999D01*
X43180000Y-65062500D02*
X43547500Y-64695000D01*
X104140000Y-44157500D02*
X102527500Y-44157500D01*
X47700000Y-64695000D02*
X49530000Y-62865000D01*
X110999999Y-45914999D02*
X114397501Y-45914999D01*
X49307500Y-46355000D02*
X49297500Y-46345000D01*
X60960000Y-44157500D02*
X59347500Y-44157500D01*
X43547500Y-64695000D02*
X46280000Y-64695000D01*
X92477500Y-41910000D02*
X93980000Y-41910000D01*
X49297500Y-46345000D02*
X49297500Y-43180000D01*
X59347500Y-44157500D02*
X59055000Y-44450000D01*
X49297500Y-44217500D02*
X49297500Y-43180000D01*
X100965000Y-44450000D02*
X100465000Y-43950000D01*
X114397501Y-45914999D02*
X115862500Y-44450000D01*
X54234239Y-44585000D02*
X49665000Y-44585000D01*
X50800000Y-46355000D02*
X49307500Y-46355000D01*
X93480000Y-43950000D02*
X92477500Y-42947500D01*
X54369239Y-44450000D02*
X54234239Y-44585000D01*
X50165000Y-62230000D02*
X67310000Y-62230000D01*
X43115000Y-64997500D02*
X43180000Y-65062500D01*
D28*
X81280000Y-73660000D02*
X81280000Y-68595000D01*
D27*
X59055000Y-44450000D02*
X54369239Y-44450000D01*
X49530000Y-62865000D02*
X50165000Y-62230000D01*
X49665000Y-44585000D02*
X49297500Y-44217500D01*
X40027500Y-49530000D02*
X40357500Y-49860000D01*
X63500000Y-41677500D02*
X63500000Y-44157500D01*
X115862500Y-44450000D02*
X118745000Y-44450000D01*
X45730000Y-58415000D02*
X46990000Y-59675000D01*
X43180000Y-56870000D02*
X43180000Y-50162500D01*
X43180000Y-48260000D02*
X43180000Y-49557500D01*
X43180000Y-49557500D02*
X43482500Y-49860000D01*
X40640000Y-56870000D02*
X43180000Y-56870000D01*
X45730000Y-63495000D02*
X38110000Y-63495000D01*
X38110000Y-58415000D02*
X39095000Y-58415000D01*
X39095000Y-58415000D02*
X40640000Y-56870000D01*
X44725000Y-58415000D02*
X43180000Y-56870000D01*
X46990000Y-62235000D02*
X45730000Y-63495000D01*
X43180000Y-50162500D02*
X43482500Y-49860000D01*
X45730000Y-58415000D02*
X44725000Y-58415000D01*
X46990000Y-59675000D02*
X46990000Y-62235000D01*
X59457500Y-39602500D02*
X58420000Y-40640000D01*
X56160000Y-40640000D02*
X58420000Y-40640000D01*
X63500000Y-39602500D02*
X59457500Y-39602500D01*
X69850000Y-48260000D02*
X70485000Y-48895000D01*
X68935000Y-48260000D02*
X69850000Y-48260000D01*
X107950000Y-60960000D02*
X66040000Y-60960000D01*
X70485000Y-48895000D02*
X70485000Y-52302500D01*
X66040000Y-53340000D02*
X69447500Y-53340000D01*
X70485000Y-52302500D02*
X69447500Y-53340000D01*
X72035000Y-50800000D02*
X72035000Y-52827500D01*
X72035000Y-52827500D02*
X71522500Y-53340000D01*
X72035000Y-48260000D02*
X72035000Y-50800000D01*
X71522500Y-56112500D02*
X71522500Y-53340000D01*
X70485000Y-57150000D02*
X71522500Y-56112500D01*
X63780000Y-57150000D02*
X70485000Y-57150000D01*
X58420000Y-55880000D02*
X59690000Y-57150000D01*
X60680000Y-57150000D02*
X60680000Y-58140000D01*
X59690000Y-57150000D02*
X60680000Y-57150000D01*
X55647500Y-53340000D02*
X55880000Y-53107500D01*
X56112500Y-53340000D02*
X55880000Y-53107500D01*
X58420000Y-53340000D02*
X56112500Y-53340000D01*
X103505000Y-59055000D02*
X104140000Y-58420000D01*
X61595000Y-59055000D02*
X103505000Y-59055000D01*
X53620000Y-53340000D02*
X55647500Y-53340000D01*
X58420000Y-53340000D02*
X58420000Y-55880000D01*
X60680000Y-58140000D02*
X61595000Y-59055000D01*
X58420000Y-50800000D02*
X56112500Y-50800000D01*
X55647500Y-50800000D02*
X55880000Y-51032500D01*
X56112500Y-50800000D02*
X55880000Y-51032500D01*
X53620000Y-50800000D02*
X55647500Y-50800000D01*
X43180000Y-42900000D02*
X46942500Y-42900000D01*
X46942500Y-42900000D02*
X47222500Y-43180000D01*
X43180000Y-39650000D02*
X43180000Y-42900000D01*
X47222500Y-46345000D02*
X47222500Y-50397500D01*
X50520000Y-53340000D02*
X50520000Y-50800000D01*
X47222500Y-50397500D02*
X47625000Y-50800000D01*
X47625000Y-50800000D02*
X50520000Y-50800000D01*
X46877500Y-46000000D02*
X47222500Y-46345000D01*
X43180000Y-46000000D02*
X46877500Y-46000000D01*
X101605000Y-40640000D02*
X101610000Y-40635000D01*
X106680000Y-39602500D02*
X102642500Y-39602500D01*
X102642500Y-39602500D02*
X101610000Y-40635000D01*
X99340000Y-40640000D02*
X101605000Y-40640000D01*
X76480000Y-44730000D02*
X76480000Y-40640000D01*
X93345000Y-46355000D02*
X90170000Y-46355000D01*
X102042057Y-46990000D02*
X100330000Y-46990000D01*
X108098630Y-53335000D02*
X102840000Y-48076370D01*
X102840000Y-47787943D02*
X102042057Y-46990000D01*
X114300000Y-65405000D02*
X112750000Y-66955000D01*
X112750000Y-55880000D02*
X113665000Y-55880000D01*
X109230000Y-53335000D02*
X108098630Y-53335000D01*
X95150000Y-44550000D02*
X93345000Y-46355000D01*
X112750000Y-55880000D02*
X112750000Y-53620000D01*
X113665000Y-55880000D02*
X114300000Y-56515000D01*
X102840000Y-48076370D02*
X102840000Y-47787943D01*
X109230000Y-53335000D02*
X113025000Y-53335000D01*
X97890000Y-44550000D02*
X95150000Y-44550000D01*
X78105000Y-46355000D02*
X76480000Y-44730000D01*
X112750000Y-53620000D02*
X113030000Y-53340000D01*
X100330000Y-46990000D02*
X97890000Y-44550000D01*
X112750000Y-66955000D02*
X112750000Y-69850000D01*
X113025000Y-53335000D02*
X113030000Y-53340000D01*
X114300000Y-56515000D02*
X114300000Y-65405000D01*
X115850000Y-55880000D02*
X115850000Y-59690000D01*
X115850000Y-52595000D02*
X115105000Y-53340000D01*
X115850000Y-50800000D02*
X115850000Y-52595000D01*
X115850000Y-55880000D02*
X115850000Y-54085000D01*
X115850000Y-54085000D02*
X115105000Y-53340000D01*
X87630000Y-55880000D02*
X84455000Y-52705000D01*
X101610000Y-53335000D02*
X104135000Y-53335000D01*
X93020000Y-55275000D02*
X97417500Y-55275000D01*
X104135000Y-53335000D02*
X110490000Y-59690000D01*
X110490000Y-59690000D02*
X112750000Y-59690000D01*
X91720000Y-54330000D02*
X90170000Y-55880000D01*
X98717500Y-53975000D02*
X100970000Y-53975000D01*
X100970000Y-53975000D02*
X101610000Y-53335000D01*
X97417500Y-55275000D02*
X98717500Y-53975000D01*
X91720000Y-53975000D02*
X93020000Y-55275000D01*
X77750000Y-36830000D02*
X76480000Y-38100000D01*
X90170000Y-55880000D02*
X87630000Y-55880000D01*
X84455000Y-52705000D02*
X84455000Y-38340761D01*
X91720000Y-53975000D02*
X91720000Y-54330000D01*
X82944239Y-36830000D02*
X77750000Y-36830000D01*
X84455000Y-38340761D02*
X82944239Y-36830000D01*
X112750000Y-59690000D02*
X112750000Y-64770000D01*
X95592500Y-50812500D02*
X95605000Y-50800000D01*
X91720000Y-50800000D02*
X95605000Y-50800000D01*
X95592500Y-53975000D02*
X95592500Y-50812500D01*
X86360000Y-38660000D02*
X86360000Y-41630000D01*
X86640000Y-41910000D02*
X86360000Y-41630000D01*
X90402500Y-41910000D02*
X86640000Y-41910000D01*
X86640000Y-44450000D02*
X86360000Y-44730000D01*
X90402500Y-44450000D02*
X88900000Y-44450000D01*
X88620000Y-44730000D02*
X88900000Y-44450000D01*
X88620000Y-53975000D02*
X88620000Y-50800000D01*
X88900000Y-44450000D02*
X86640000Y-44450000D01*
X88620000Y-50800000D02*
X88620000Y-44730000D01*
X111462500Y-43175000D02*
X112737500Y-44450000D01*
X116340000Y-41775000D02*
X116340000Y-38205761D01*
X113665000Y-44450000D02*
X116340000Y-41775000D01*
X118970761Y-35575000D02*
X121920000Y-35575000D01*
X126530000Y-38265000D02*
X123840000Y-35575000D01*
X116340000Y-38205761D02*
X118970761Y-35575000D01*
X126530000Y-41630000D02*
X126530000Y-38265000D01*
X109230000Y-43175000D02*
X111462500Y-43175000D01*
X112737500Y-44450000D02*
X113665000Y-44450000D01*
X123840000Y-35575000D02*
X121920000Y-35575000D01*
X114997500Y-37807500D02*
X115290000Y-38100000D01*
X112395000Y-37807500D02*
X109517500Y-37807500D01*
X109517500Y-37807500D02*
X109230000Y-38095000D01*
X112395000Y-37807500D02*
X114997500Y-37807500D01*
X112395000Y-40932500D02*
X114997500Y-40932500D01*
X109527500Y-40932500D02*
X109230000Y-40635000D01*
X114997500Y-40932500D02*
X115290000Y-40640000D01*
X112395000Y-40932500D02*
X109527500Y-40932500D01*
X40640000Y-59970000D02*
X40640000Y-61872500D01*
X38110000Y-60955000D02*
X40635000Y-60955000D01*
X101610000Y-45715000D02*
X102572500Y-45715000D01*
D28*
X72110000Y-73660000D02*
X69850000Y-73660000D01*
D27*
X59397500Y-45720000D02*
X60960000Y-47282500D01*
X102572500Y-45715000D02*
X104140000Y-47282500D01*
X58420000Y-45720000D02*
X59397500Y-45720000D01*
X109230000Y-45715000D02*
X108247500Y-45715000D01*
X121920000Y-67590000D02*
X124460000Y-67590000D01*
X43180000Y-60960000D02*
X43180000Y-61937500D01*
X124460000Y-67590000D02*
X127000000Y-67590000D01*
D28*
X92710000Y-73660000D02*
X121285000Y-73660000D01*
D27*
X43180000Y-69215000D02*
X43180000Y-76835000D01*
X66040000Y-45720000D02*
X65062500Y-45720000D01*
X91440000Y-76200000D02*
X91440000Y-74650000D01*
X109230000Y-45715000D02*
X110029999Y-46514999D01*
X110029999Y-46514999D02*
X121405001Y-46514999D01*
X65062500Y-45720000D02*
X63500000Y-47282500D01*
X43185000Y-60955000D02*
X43180000Y-60960000D01*
X90170000Y-77470000D02*
X91440000Y-76200000D01*
X43815000Y-77470000D02*
X90170000Y-77470000D01*
X77470000Y-52070000D02*
X82550000Y-52070000D01*
X108247500Y-45715000D02*
X106680000Y-47282500D01*
X123190000Y-44730000D02*
X126530000Y-44730000D01*
X43180000Y-59970000D02*
X43180000Y-60960000D01*
D28*
X121285000Y-73660000D02*
X121920000Y-73025000D01*
D27*
X121405001Y-46514999D02*
X123190000Y-44730000D01*
D28*
X121920000Y-73025000D02*
X121920000Y-67590000D01*
D27*
X43180000Y-76835000D02*
X43815000Y-77470000D01*
X45730000Y-60955000D02*
X43185000Y-60955000D01*
X91440000Y-74650000D02*
X90450000Y-73660000D01*
D28*
X90450000Y-73660000D02*
X92710000Y-73660000D01*
D27*
X117475000Y-66675000D02*
X117475000Y-71120000D01*
X114800000Y-70744239D02*
X114800000Y-65820000D01*
X115810761Y-71755000D02*
X114800000Y-70744239D01*
X124950000Y-66540000D02*
X117610000Y-66540000D01*
X114800000Y-65820000D02*
X115850000Y-64770000D01*
X117475000Y-71120000D02*
X116840000Y-71755000D01*
X116840000Y-71755000D02*
X115810761Y-71755000D01*
X127000000Y-55210000D02*
X127000000Y-59685000D01*
X117610000Y-66540000D02*
X117475000Y-66675000D01*
X128905000Y-48895000D02*
X128090000Y-49710000D01*
X124460000Y-49720000D02*
X126990000Y-49720000D01*
X118390000Y-40640000D02*
X118390000Y-41555000D01*
X124410000Y-49770000D02*
X124460000Y-49720000D01*
X118390000Y-38100000D02*
X118390000Y-40640000D01*
X121920000Y-49770000D02*
X124410000Y-49770000D01*
X128905000Y-43815000D02*
X128905000Y-48895000D01*
X118390000Y-41555000D02*
X120015000Y-43180000D01*
X126990000Y-49720000D02*
X127000000Y-49710000D01*
X120015000Y-43180000D02*
X128270000Y-43180000D01*
X128270000Y-43180000D02*
X128905000Y-43815000D01*
X128090000Y-49710000D02*
X127000000Y-49710000D01*
X124460000Y-55220000D02*
X124460000Y-59685000D01*
X115850000Y-67030000D02*
X115850000Y-69850000D01*
X124460000Y-59685000D02*
X124455000Y-59690000D01*
X117340000Y-65540000D02*
X115850000Y-67030000D01*
X123410000Y-65540000D02*
X117340000Y-65540000D01*
X121920000Y-55270000D02*
X121920000Y-59685000D01*
X121920000Y-59685000D02*
X121915000Y-59690000D01*
X90805000Y-31115000D02*
X48895000Y-31115000D01*
X34290000Y-31750000D02*
X34925000Y-31115000D01*
X34925000Y-31115000D02*
X47625000Y-31115000D01*
X34290000Y-65405000D02*
X34290000Y-31750000D01*
X91455000Y-33020000D02*
X91455000Y-31765000D01*
X48260000Y-31750000D02*
X48260000Y-33020000D01*
X48895000Y-31115000D02*
X48260000Y-31750000D01*
X38110000Y-68575000D02*
X38110000Y-66035000D01*
X34920000Y-66035000D02*
X34290000Y-65405000D01*
X38110000Y-66035000D02*
X34920000Y-66035000D01*
X47625000Y-31115000D02*
X48260000Y-31750000D01*
X91455000Y-31765000D02*
X90805000Y-31115000D01*
X50800000Y-34290000D02*
X50165000Y-34925000D01*
X50165000Y-34925000D02*
X43815000Y-34925000D01*
X50800000Y-33020000D02*
X50800000Y-34290000D01*
X43180000Y-35560000D02*
X43180000Y-36550000D01*
X43815000Y-34925000D02*
X43180000Y-35560000D01*
X53340000Y-33020000D02*
X56590000Y-33020000D01*
X52070000Y-40640000D02*
X53060000Y-40640000D01*
X50815000Y-39385000D02*
X52070000Y-40640000D01*
X48275000Y-36830000D02*
X50815000Y-36830000D01*
X50815000Y-36830000D02*
X50815000Y-39385000D01*
X62510000Y-35280000D02*
X60960000Y-36830000D01*
X79375000Y-35280000D02*
X62510000Y-35280000D01*
X58700000Y-37820000D02*
X58420000Y-38100000D01*
X53355000Y-36830000D02*
X57150000Y-36830000D01*
X58420000Y-34290000D02*
X58420000Y-38100000D01*
X57150000Y-36830000D02*
X58420000Y-38100000D01*
X59690000Y-33020000D02*
X58420000Y-34290000D01*
X60960000Y-36830000D02*
X60960000Y-37820000D01*
X60960000Y-37820000D02*
X58700000Y-37820000D01*
X93995000Y-34275000D02*
X93995000Y-33020000D01*
X86360000Y-35560000D02*
X86995000Y-34925000D01*
X93345000Y-34925000D02*
X93995000Y-34275000D01*
X86995000Y-34925000D02*
X93345000Y-34925000D01*
X96535000Y-33020000D02*
X100050000Y-33020000D01*
X91440000Y-36830000D02*
X93980000Y-36830000D01*
X93980000Y-36830000D02*
X93980000Y-38735000D01*
X93980000Y-38735000D02*
X95885000Y-40640000D01*
X95885000Y-40640000D02*
X96240000Y-40640000D01*
X96520000Y-36830000D02*
X95250000Y-35560000D01*
X103865000Y-38095000D02*
X104140000Y-37820000D01*
X100345000Y-36830000D02*
X101610000Y-38095000D01*
X88485000Y-36610000D02*
X89535000Y-35560000D01*
X104140000Y-37820000D02*
X104140000Y-34010000D01*
X104140000Y-34010000D02*
X103150000Y-33020000D01*
X95250000Y-35560000D02*
X89535000Y-35560000D01*
X82550000Y-35280000D02*
X83880000Y-36610000D01*
X83880000Y-36610000D02*
X88485000Y-36610000D01*
X101610000Y-38095000D02*
X103865000Y-38095000D01*
X96520000Y-36830000D02*
X100345000Y-36830000D01*
D28*
X78755000Y-73645000D02*
X78740000Y-73660000D01*
X78740000Y-73660000D02*
X75210000Y-73660000D01*
X78755000Y-68580000D02*
X78755000Y-73645000D01*
X83820000Y-73660000D02*
X87350000Y-73660000D01*
X83820000Y-73660000D02*
X83820000Y-68595000D01*
X83820000Y-68595000D02*
X83835000Y-68580000D01*
D27*
X58420000Y-43180000D02*
X58700000Y-43180000D01*
X58700000Y-43180000D02*
X60960000Y-40920000D01*
X58420000Y-43180000D02*
X53695000Y-43180000D01*
X53695000Y-43180000D02*
X53340000Y-43535000D01*
X38110000Y-55875000D02*
X38110000Y-53335000D01*
X47625000Y-44450000D02*
X38735000Y-44450000D01*
X38110000Y-45095000D02*
X38110000Y-53335000D01*
X53340000Y-46635000D02*
X52350000Y-47625000D01*
X48260000Y-47625000D02*
X48260000Y-45085000D01*
X48260000Y-45085000D02*
X47625000Y-44450000D01*
X52350000Y-47625000D02*
X48260000Y-47625000D01*
X38100000Y-45085000D02*
X38110000Y-45095000D01*
X38735000Y-44450000D02*
X38100000Y-45085000D01*
X66040000Y-50800000D02*
X68935000Y-50800000D01*
X104140000Y-40920000D02*
X103865000Y-40920000D01*
X96520000Y-42900000D02*
X96795000Y-43175000D01*
X96795000Y-43175000D02*
X101610000Y-43175000D01*
X103865000Y-40920000D02*
X101610000Y-43175000D01*
X45730000Y-68575000D02*
X45730000Y-66035000D01*
X96520000Y-48895000D02*
X97155000Y-49530000D01*
X96520000Y-46000000D02*
X96520000Y-48895000D01*
X97155000Y-49530000D02*
X97155000Y-53975000D01*
X48900000Y-66035000D02*
X50800000Y-64135000D01*
X45730000Y-66035000D02*
X48900000Y-66035000D01*
X50800000Y-64135000D02*
X97155000Y-64135000D01*
X112745000Y-50795000D02*
X112750000Y-50800000D01*
X109230000Y-50795000D02*
X112745000Y-50795000D01*
X101605000Y-50800000D02*
X101610000Y-50795000D01*
X98705000Y-50800000D02*
X101605000Y-50800000D01*
X69570000Y-40640000D02*
X69850000Y-40920000D01*
X66040000Y-40640000D02*
X69570000Y-40640000D01*
X73380000Y-38100000D02*
X73380000Y-40640000D01*
X73380000Y-40640000D02*
X70130000Y-40640000D01*
X70130000Y-40640000D02*
X69850000Y-40920000D01*
X118110000Y-72390000D02*
X119380000Y-71120000D01*
X69850000Y-36830000D02*
X69850000Y-37820000D01*
X74930000Y-55880000D02*
X74930000Y-36830000D01*
X105410000Y-72390000D02*
X118110000Y-72390000D01*
X69570000Y-38100000D02*
X69850000Y-37820000D01*
X66040000Y-38100000D02*
X69570000Y-38100000D01*
X76200000Y-57150000D02*
X74930000Y-55880000D01*
X105410000Y-57150000D02*
X76200000Y-57150000D01*
X119380000Y-71120000D02*
X119380000Y-67590000D01*
X74930000Y-36830000D02*
X74295000Y-36195000D01*
X74295000Y-36195000D02*
X70485000Y-36195000D01*
X70485000Y-36195000D02*
X69850000Y-36830000D01*
X123190000Y-39385000D02*
X121920000Y-38115000D01*
X123190000Y-41630000D02*
X123190000Y-39385000D01*
X67310000Y-44450000D02*
X67310000Y-46990000D01*
X66040000Y-43180000D02*
X67310000Y-44450000D01*
X59055000Y-48895000D02*
X65405000Y-48895000D01*
X52070000Y-55245000D02*
X52070000Y-49530000D01*
X51440000Y-55875000D02*
X52070000Y-55245000D01*
X52705000Y-48895000D02*
X57785000Y-48895000D01*
X57785000Y-48895000D02*
X58420000Y-48260000D01*
X45730000Y-53335000D02*
X45730000Y-55875000D01*
X45730000Y-55875000D02*
X51440000Y-55875000D01*
X65405000Y-48895000D02*
X66040000Y-48260000D01*
X52070000Y-49530000D02*
X52705000Y-48895000D01*
X58420000Y-48260000D02*
X59055000Y-48895000D01*
X67310000Y-46990000D02*
X66040000Y-48260000D01*
X79375000Y-47625000D02*
X77470000Y-49530000D01*
X79375000Y-38380000D02*
X79375000Y-47625000D01*
X82550000Y-38380000D02*
X82550000Y-49530000D01*
M02*
