%TF.GenerationSoftware,KiCad,Pcbnew,(6.0.10)*%
%TF.CreationDate,2023-04-08T13:29:21+03:00*%
%TF.ProjectId,DelSol_Modulator,44656c53-6f6c-45f4-9d6f-64756c61746f,rev?*%
%TF.SameCoordinates,Original*%
%TF.FileFunction,Soldermask,Top*%
%TF.FilePolarity,Negative*%
%FSLAX46Y46*%
G04 Gerber Fmt 4.6, Leading zero omitted, Abs format (unit mm)*
G04 Created by KiCad (PCBNEW (6.0.10)) date 2023-04-08 13:29:21*
%MOMM*%
%LPD*%
G01*
G04 APERTURE LIST*
G04 Aperture macros list*
%AMRoundRect*
0 Rectangle with rounded corners*
0 $1 Rounding radius*
0 $2 $3 $4 $5 $6 $7 $8 $9 X,Y pos of 4 corners*
0 Add a 4 corners polygon primitive as box body*
4,1,4,$2,$3,$4,$5,$6,$7,$8,$9,$2,$3,0*
0 Add four circle primitives for the rounded corners*
1,1,$1+$1,$2,$3*
1,1,$1+$1,$4,$5*
1,1,$1+$1,$6,$7*
1,1,$1+$1,$8,$9*
0 Add four rect primitives between the rounded corners*
20,1,$1+$1,$2,$3,$4,$5,0*
20,1,$1+$1,$4,$5,$6,$7,0*
20,1,$1+$1,$6,$7,$8,$9,0*
20,1,$1+$1,$8,$9,$2,$3,0*%
G04 Aperture macros list end*
%ADD10C,3.200000*%
%ADD11R,1.700000X1.700000*%
%ADD12O,1.700000X1.700000*%
%ADD13R,1.600000X1.600000*%
%ADD14O,1.600000X1.600000*%
%ADD15RoundRect,0.250000X0.625000X-0.400000X0.625000X0.400000X-0.625000X0.400000X-0.625000X-0.400000X0*%
%ADD16RoundRect,0.250000X0.550000X-1.412500X0.550000X1.412500X-0.550000X1.412500X-0.550000X-1.412500X0*%
%ADD17RoundRect,0.250000X-0.550000X1.412500X-0.550000X-1.412500X0.550000X-1.412500X0.550000X1.412500X0*%
%ADD18RoundRect,0.250000X-1.412500X-0.550000X1.412500X-0.550000X1.412500X0.550000X-1.412500X0.550000X0*%
G04 APERTURE END LIST*
D10*
X36830000Y-34290000D03*
D11*
X78755000Y-68580000D03*
D12*
X81295000Y-68580000D03*
X83835000Y-68580000D03*
D13*
X58420000Y-38100000D03*
D14*
X58420000Y-40640000D03*
X58420000Y-43180000D03*
X58420000Y-45720000D03*
X58420000Y-48260000D03*
X58420000Y-50800000D03*
X58420000Y-53340000D03*
X66040000Y-53340000D03*
X66040000Y-50800000D03*
X66040000Y-48260000D03*
X66040000Y-45720000D03*
X66040000Y-43180000D03*
X66040000Y-40640000D03*
X66040000Y-38100000D03*
D10*
X128270000Y-74930000D03*
D11*
X48260000Y-33020000D03*
D12*
X50800000Y-33020000D03*
X53340000Y-33020000D03*
D15*
X127000000Y-67590000D03*
X127000000Y-64490000D03*
D16*
X115570000Y-43177500D03*
X115570000Y-38102500D03*
D11*
X91455000Y-33020000D03*
D12*
X93995000Y-33020000D03*
X96535000Y-33020000D03*
D11*
X121920000Y-33035000D03*
D12*
X121920000Y-35575000D03*
X121920000Y-38115000D03*
D15*
X124460000Y-67590000D03*
X124460000Y-64490000D03*
D16*
X67310000Y-73657500D03*
X67310000Y-68582500D03*
D11*
X129535000Y-59690000D03*
D12*
X126995000Y-59690000D03*
X124455000Y-59690000D03*
X121915000Y-59690000D03*
X119375000Y-59690000D03*
D11*
X91440000Y-36830000D03*
D12*
X93980000Y-36830000D03*
X96520000Y-36830000D03*
D10*
X36830000Y-74930000D03*
D17*
X95250000Y-68582500D03*
X95250000Y-73657500D03*
D15*
X121920000Y-67590000D03*
X121920000Y-64490000D03*
D10*
X128270000Y-34290000D03*
D11*
X48275000Y-36830000D03*
D12*
X50815000Y-36830000D03*
X53355000Y-36830000D03*
D13*
X101610000Y-38095000D03*
D14*
X101610000Y-40635000D03*
X101610000Y-43175000D03*
X101610000Y-45715000D03*
X101610000Y-48255000D03*
X101610000Y-50795000D03*
X101610000Y-53335000D03*
X109230000Y-53335000D03*
X109230000Y-50795000D03*
X109230000Y-48255000D03*
X109230000Y-45715000D03*
X109230000Y-43175000D03*
X109230000Y-40635000D03*
X109230000Y-38095000D03*
D11*
X82550000Y-52070000D03*
D12*
X82550000Y-49530000D03*
D11*
X77470000Y-52070000D03*
D12*
X77470000Y-49530000D03*
D18*
X38102500Y-45720000D03*
X43177500Y-45720000D03*
D11*
X78740000Y-73660000D03*
D12*
X81280000Y-73660000D03*
X83820000Y-73660000D03*
D13*
X38110000Y-53335000D03*
D14*
X38110000Y-55875000D03*
X38110000Y-58415000D03*
X38110000Y-60955000D03*
X38110000Y-63495000D03*
X38110000Y-66035000D03*
X38110000Y-68575000D03*
X45730000Y-68575000D03*
X45730000Y-66035000D03*
X45730000Y-63495000D03*
X45730000Y-60955000D03*
X45730000Y-58415000D03*
X45730000Y-55875000D03*
X45730000Y-53335000D03*
M02*
