%TF.GenerationSoftware,KiCad,Pcbnew,(6.0.10)*%
%TF.CreationDate,2023-04-08T13:29:20+03:00*%
%TF.ProjectId,DelSol_Modulator,44656c53-6f6c-45f4-9d6f-64756c61746f,rev?*%
%TF.SameCoordinates,Original*%
%TF.FileFunction,Paste,Bot*%
%TF.FilePolarity,Positive*%
%FSLAX46Y46*%
G04 Gerber Fmt 4.6, Leading zero omitted, Abs format (unit mm)*
G04 Created by KiCad (PCBNEW (6.0.10)) date 2023-04-08 13:29:20*
%MOMM*%
%LPD*%
G01*
G04 APERTURE LIST*
G04 Aperture macros list*
%AMRoundRect*
0 Rectangle with rounded corners*
0 $1 Rounding radius*
0 $2 $3 $4 $5 $6 $7 $8 $9 X,Y pos of 4 corners*
0 Add a 4 corners polygon primitive as box body*
4,1,4,$2,$3,$4,$5,$6,$7,$8,$9,$2,$3,0*
0 Add four circle primitives for the rounded corners*
1,1,$1+$1,$2,$3*
1,1,$1+$1,$4,$5*
1,1,$1+$1,$6,$7*
1,1,$1+$1,$8,$9*
0 Add four rect primitives between the rounded corners*
20,1,$1+$1,$2,$3,$4,$5,0*
20,1,$1+$1,$4,$5,$6,$7,0*
20,1,$1+$1,$6,$7,$8,$9,0*
20,1,$1+$1,$8,$9,$2,$3,0*%
G04 Aperture macros list end*
%ADD10RoundRect,0.250000X0.337500X0.475000X-0.337500X0.475000X-0.337500X-0.475000X0.337500X-0.475000X0*%
%ADD11RoundRect,0.250000X0.625000X-0.400000X0.625000X0.400000X-0.625000X0.400000X-0.625000X-0.400000X0*%
%ADD12RoundRect,0.250000X0.400000X0.625000X-0.400000X0.625000X-0.400000X-0.625000X0.400000X-0.625000X0*%
%ADD13RoundRect,0.250000X-0.625000X0.400000X-0.625000X-0.400000X0.625000X-0.400000X0.625000X0.400000X0*%
%ADD14R,1.700000X3.300000*%
%ADD15RoundRect,0.250000X0.650000X-0.412500X0.650000X0.412500X-0.650000X0.412500X-0.650000X-0.412500X0*%
%ADD16RoundRect,0.250000X-0.400000X-0.625000X0.400000X-0.625000X0.400000X0.625000X-0.400000X0.625000X0*%
%ADD17RoundRect,0.250000X-0.650000X0.412500X-0.650000X-0.412500X0.650000X-0.412500X0.650000X0.412500X0*%
%ADD18RoundRect,0.250000X0.475000X-0.337500X0.475000X0.337500X-0.475000X0.337500X-0.475000X-0.337500X0*%
%ADD19RoundRect,0.250000X-0.412500X-0.650000X0.412500X-0.650000X0.412500X0.650000X-0.412500X0.650000X0*%
%ADD20RoundRect,0.250000X0.412500X0.650000X-0.412500X0.650000X-0.412500X-0.650000X0.412500X-0.650000X0*%
%ADD21RoundRect,0.250000X-0.337500X-0.475000X0.337500X-0.475000X0.337500X0.475000X-0.337500X0.475000X0*%
G04 APERTURE END LIST*
D10*
X49297500Y-46345000D03*
X47222500Y-46345000D03*
D11*
X60960000Y-40920000D03*
X60960000Y-37820000D03*
D12*
X76480000Y-40640000D03*
X73380000Y-40640000D03*
D13*
X43180000Y-36550000D03*
X43180000Y-39650000D03*
D12*
X56160000Y-40640000D03*
X53060000Y-40640000D03*
D14*
X127000000Y-55210000D03*
X127000000Y-49710000D03*
D15*
X43180000Y-65062500D03*
X43180000Y-61937500D03*
D13*
X79375000Y-35280000D03*
X79375000Y-38380000D03*
D12*
X72035000Y-50800000D03*
X68935000Y-50800000D03*
X115850000Y-59690000D03*
X112750000Y-59690000D03*
X59690000Y-33020000D03*
X56590000Y-33020000D03*
D10*
X92477500Y-41910000D03*
X90402500Y-41910000D03*
D13*
X86360000Y-35560000D03*
X86360000Y-38660000D03*
D16*
X88620000Y-53975000D03*
X91720000Y-53975000D03*
D11*
X96520000Y-46000000D03*
X96520000Y-42900000D03*
D13*
X69850000Y-37820000D03*
X69850000Y-40920000D03*
X123190000Y-41630000D03*
X123190000Y-44730000D03*
D17*
X40640000Y-61872500D03*
X40640000Y-64997500D03*
D10*
X49297500Y-43180000D03*
X47222500Y-43180000D03*
D11*
X104140000Y-40920000D03*
X104140000Y-37820000D03*
D14*
X124460000Y-55220000D03*
X124460000Y-49720000D03*
D18*
X63500000Y-41677500D03*
X63500000Y-39602500D03*
D12*
X99340000Y-40640000D03*
X96240000Y-40640000D03*
X75210000Y-73660000D03*
X72110000Y-73660000D03*
D11*
X124460000Y-67590000D03*
X124460000Y-64490000D03*
D19*
X40357500Y-49860000D03*
X43482500Y-49860000D03*
D16*
X115290000Y-40640000D03*
X118390000Y-40640000D03*
D11*
X40640000Y-59970000D03*
X40640000Y-56870000D03*
D17*
X112395000Y-37807500D03*
X112395000Y-40932500D03*
D11*
X53340000Y-46635000D03*
X53340000Y-43535000D03*
D15*
X60960000Y-47282500D03*
X60960000Y-44157500D03*
D16*
X60680000Y-57150000D03*
X63780000Y-57150000D03*
D20*
X98717500Y-53975000D03*
X95592500Y-53975000D03*
D16*
X112750000Y-55880000D03*
X115850000Y-55880000D03*
D12*
X115850000Y-69850000D03*
X112750000Y-69850000D03*
D14*
X121920000Y-55270000D03*
X121920000Y-49770000D03*
D15*
X104140000Y-47282500D03*
X104140000Y-44157500D03*
D12*
X76480000Y-38100000D03*
X73380000Y-38100000D03*
D11*
X43180000Y-59970000D03*
X43180000Y-56870000D03*
D16*
X68935000Y-48260000D03*
X72035000Y-48260000D03*
D18*
X55880000Y-53107500D03*
X55880000Y-51032500D03*
D13*
X119380000Y-64490000D03*
X119380000Y-67590000D03*
D16*
X50520000Y-50800000D03*
X53620000Y-50800000D03*
D20*
X115862500Y-44450000D03*
X112737500Y-44450000D03*
D11*
X127000000Y-67590000D03*
X127000000Y-64490000D03*
D13*
X43180000Y-42900000D03*
X43180000Y-46000000D03*
D16*
X115290000Y-38100000D03*
X118390000Y-38100000D03*
D12*
X115850000Y-50800000D03*
X112750000Y-50800000D03*
D21*
X69447500Y-53340000D03*
X71522500Y-53340000D03*
D16*
X95605000Y-50800000D03*
X98705000Y-50800000D03*
D17*
X106680000Y-44157500D03*
X106680000Y-47282500D03*
D13*
X82550000Y-35280000D03*
X82550000Y-38380000D03*
D11*
X126530000Y-44730000D03*
X126530000Y-41630000D03*
D13*
X86360000Y-41630000D03*
X86360000Y-44730000D03*
D12*
X115850000Y-64770000D03*
X112750000Y-64770000D03*
D17*
X63500000Y-44157500D03*
X63500000Y-47282500D03*
D18*
X106680000Y-41677500D03*
X106680000Y-39602500D03*
D16*
X87350000Y-73660000D03*
X90450000Y-73660000D03*
D11*
X121920000Y-67590000D03*
X121920000Y-64490000D03*
D10*
X92477500Y-44450000D03*
X90402500Y-44450000D03*
D21*
X113030000Y-53340000D03*
X115105000Y-53340000D03*
D12*
X103150000Y-33020000D03*
X100050000Y-33020000D03*
D16*
X88620000Y-50800000D03*
X91720000Y-50800000D03*
X50520000Y-53340000D03*
X53620000Y-53340000D03*
M02*
