<?xml version="1.0" standalone="no"?>
 <!DOCTYPE svg PUBLIC "-//W3C//DTD SVG 1.1//EN" 
 "http://www.w3.org/Graphics/SVG/1.1/DTD/svg11.dtd"> 
<svg xmlns="http://www.w3.org/2000/svg" version="1.1" 
    width="11.5214cm" height="7.62762cm" viewBox="0 0 45360 30030 ">
<title>SVG Picture created as pi_adc_rtc_etc-F.SilkS.svg date 2018/04/11 10:04:04 </title>
  <desc>Picture generated by PCBNEW </desc>
<g style="fill:#000000; fill-opacity:1;stroke:#000000; stroke-opacity:1;
stroke-linecap:round; stroke-linejoin:round; "
 transform="translate(0 0) scale(1 1)">
</g>
<g style="fill:#000000; fill-opacity:0.0; 
stroke:#000000; stroke-width:-0.000393701; stroke-opacity:1; 
stroke-linecap:round; stroke-linejoin:round;">
</g>
<g style="fill:#000000; fill-opacity:0.0; 
stroke:#000000; stroke-width:59.0551; stroke-opacity:1; 
stroke-linecap:round; stroke-linejoin:round;">
<path d="M39698 11811
L39698 5118
" />
<path d="M35367 11811
L39698 11811
" />
<path d="M35367 17716
L35367 11811
" />
<path d="M39698 17716
L35367 17716
" />
<path d="M39698 27165
L39698 17716
" />
<path d="M39698 5118
L6233 5118
" />
<path d="M6233 27165
L39698 27165
" />
<path d="M6233 5118
L6233 27165
" />
<path d="M20139 6862
L19745 6862
L19745 6712
L19764 6674
L19783 6655
L19820 6637
L19877 6637
L19914 6655
L19933 6674
L19952 6712
L19952 6862
" />
<path d="M20139 6262
L20139 6487
" />
<path d="M20139 6374
L19745 6374
L19802 6412
L19839 6449
L19858 6487
" />
<path d="M22629 23124
L22648 23068
L22666 23049
L22704 23031
L22760 23031
L22798 23049
L22816 23068
L22835 23106
L22835 23256
L22441 23256
L22441 23124
L22460 23087
L22479 23068
L22516 23049
L22554 23049
L22591 23068
L22610 23087
L22629 23124
L22629 23256
" />
<path d="M22441 22918
L22441 22693
" />
<path d="M22835 22806
L22441 22806
" />
<path d="M22835 22356
L22835 22581
" />
<path d="M22835 22468
L22441 22468
L22498 22506
L22535 22543
L22554 22581
" />
<path d="M23959 24442
L23978 24386
L23996 24367
L24034 24349
L24090 24349
L24128 24367
L24146 24386
L24165 24424
L24165 24574
L23771 24574
L23771 24442
L23790 24405
L23809 24386
L23846 24367
L23884 24367
L23921 24386
L23940 24405
L23959 24442
L23959 24574
" />
<path d="M24165 24011
L23959 24011
L23921 24030
L23903 24067
L23903 24142
L23921 24180
" />
<path d="M24146 24011
L24165 24049
L24165 24142
L24146 24180
L24109 24199
L24071 24199
L24034 24180
L24015 24142
L24015 24049
L23996 24011
" />
<path d="M23903 23880
L23903 23730
" />
<path d="M23771 23824
L24109 23824
L24146 23805
L24165 23767
L24165 23730
" />
<path d="M23903 23655
L23903 23505
" />
<path d="M23771 23599
L24109 23599
L24146 23580
L24165 23542
L24165 23505
" />
<path d="M24146 23224
L24165 23261
L24165 23336
L24146 23374
L24109 23392
L23959 23392
L23921 23374
L23903 23336
L23903 23261
L23921 23224
L23959 23205
L23996 23205
L24034 23392
" />
<path d="M24165 23036
L23903 23036
" />
<path d="M23978 23036
L23940 23017
L23921 22999
L23903 22961
L23903 22924
" />
<path d="M23903 22830
L24165 22736
" />
<path d="M23903 22643
L24165 22736
L24259 22774
L24278 22793
L24296 22830
" />
<path d="M24203 22586
L24203 22286
" />
<path d="M24128 21968
L24146 21986
L24165 22043
L24165 22080
L24146 22136
L24109 22174
L24071 22193
L23996 22211
L23940 22211
L23865 22193
L23828 22174
L23790 22136
L23771 22080
L23771 22043
L23790 21986
L23809 21968
" />
<path d="M24146 21649
L24165 21686
L24165 21761
L24146 21799
L24109 21818
L23959 21818
L23921 21799
L23903 21761
L23903 21686
L23921 21649
L23959 21630
L23996 21630
L24034 21818
" />
<path d="M24165 21405
L24146 21443
L24109 21461
L23771 21461
" />
<path d="M24165 21199
L24146 21236
L24109 21255
L23771 21255
" />
<path d="M27128 9971
L27146 9989
L27165 10046
L27165 10083
L27146 10139
L27109 10177
L27071 10196
L26996 10214
L26940 10214
L26865 10196
L26828 10177
L26790 10139
L26771 10083
L26771 10046
L26790 9989
L26809 9971
" />
<path d="M26771 9614
L26771 9802
L26959 9821
L26940 9802
L26921 9764
L26921 9671
L26940 9633
L26959 9614
L26996 9596
L27090 9596
L27128 9614
L27146 9633
L27165 9671
L27165 9764
L27146 9802
L27128 9821
" />
<path d="M11946 25333
L11946 24939
L12040 24939
L12096 24958
L12134 24996
L12153 25033
L12171 25108
L12171 25164
L12153 25239
L12134 25277
L12096 25314
L12040 25333
L11946 25333
" />
<path d="M12321 24977
L12340 24958
L12378 24939
L12471 24939
L12509 24958
L12528 24977
L12546 25014
L12546 25052
L12528 25108
L12303 25333
L12546 25333
" />
<path d="M37021 10536
L37303 10536
L37359 10555
L37396 10592
L37415 10649
L37415 10686
" />
<path d="M37415 10143
L37415 10368
" />
<path d="M37415 10255
L37021 10255
L37078 10293
L37115 10330
L37134 10368
" />
<path d="M34915 10433
L34521 10433
L34521 10283
L34540 10246
L34559 10227
L34596 10208
L34653 10208
L34690 10227
L34709 10246
L34728 10283
L34728 10433
" />
<path d="M34915 9983
L34896 10021
L34878 10039
L34840 10058
L34728 10058
L34690 10039
L34671 10021
L34653 9983
L34653 9927
L34671 9889
L34690 9871
L34728 9852
L34840 9852
L34878 9871
L34896 9889
L34915 9927
L34915 9983
" />
<path d="M34653 9721
L34915 9646
L34728 9571
L34915 9496
L34653 9421
" />
<path d="M34896 9121
L34915 9158
L34915 9233
L34896 9271
L34859 9289
L34709 9289
L34671 9271
L34653 9233
L34653 9158
L34671 9121
L34709 9102
L34746 9102
L34784 9289
" />
<path d="M34915 8933
L34653 8933
" />
<path d="M34728 8933
L34690 8914
L34671 8896
L34653 8858
L34653 8821
" />
<path d="M10771 15286
L11053 15286
L11109 15305
L11146 15342
L11165 15399
L11165 15436
" />
<path d="M10809 15118
L10790 15099
L10771 15061
L10771 14968
L10790 14930
L10809 14911
L10846 14893
L10884 14893
L10940 14911
L11165 15136
L11165 14893
" />
<path d="M10415 15977
L10021 15977
" />
<path d="M10415 15789
L10153 15789
" />
<path d="M10228 15789
L10190 15771
L10171 15752
L10153 15714
L10153 15677
" />
<path d="M10453 15639
L10453 15339
" />
<path d="M10415 15246
L10021 15246
" />
<path d="M10021 14983
L10021 14908
L10040 14871
L10078 14833
L10153 14814
L10284 14814
L10359 14833
L10396 14871
L10415 14908
L10415 14983
L10396 15021
L10359 15058
L10284 15077
L10153 15077
L10078 15058
L10040 15021
L10021 14983
" />
<path d="M7271 15286
L7553 15286
L7609 15305
L7646 15342
L7665 15399
L7665 15436
" />
<path d="M7271 15136
L7271 14893
L7421 15024
L7421 14968
L7440 14930
L7459 14911
L7496 14893
L7590 14893
L7628 14911
L7646 14930
L7665 14968
L7665 15080
L7646 15118
L7628 15136
" />
<path d="M6521 16005
L6521 15780
" />
<path d="M6915 15892
L6521 15892
" />
<path d="M6653 15686
L6915 15611
L6728 15536
L6915 15461
L6653 15386
" />
<path d="M6915 15236
L6653 15236
" />
<path d="M6521 15236
L6540 15255
L6559 15236
L6540 15218
L6521 15236
L6559 15236
" />
<path d="M6521 14974
L6521 14936
L6540 14899
L6559 14880
L6596 14861
L6671 14843
L6765 14843
L6840 14861
L6878 14880
L6896 14899
L6915 14936
L6915 14974
L6896 15011
L6878 15030
L6840 15049
L6765 15068
L6671 15068
L6596 15049
L6559 15030
L6540 15011
L6521 14974
" />
<path d="M8771 15286
L9053 15286
L9109 15305
L9146 15342
L9165 15399
L9165 15436
" />
<path d="M8903 14930
L9165 14930
" />
<path d="M8753 15024
L9034 15118
L9034 14874
" />
<path d="M8021 16005
L8021 15780
" />
<path d="M8415 15892
L8021 15892
" />
<path d="M8153 15686
L8415 15611
L8228 15536
L8415 15461
L8153 15386
" />
<path d="M8415 15236
L8153 15236
" />
<path d="M8021 15236
L8040 15255
L8059 15236
L8040 15218
L8021 15236
L8059 15236
" />
<path d="M8415 14843
L8415 15068
" />
<path d="M8415 14955
L8021 14955
L8078 14993
L8115 15030
L8134 15068
" />
<path d="M13106 10189
L13106 10471
L13087 10527
L13050 10564
L12993 10583
L12956 10583
" />
<path d="M13481 10189
L13293 10189
L13275 10377
L13293 10358
L13331 10339
L13425 10339
L13462 10358
L13481 10377
L13500 10414
L13500 10508
L13481 10546
L13462 10564
L13425 10583
L13331 10583
L13293 10564
L13275 10546
" />
<path d="M10468 10064
L10525 10083
L10618 10083
L10656 10064
L10675 10046
L10693 10008
L10693 9971
L10675 9933
L10656 9914
L10618 9896
L10543 9877
L10506 9858
L10487 9839
L10468 9802
L10468 9764
L10487 9727
L10506 9708
L10543 9689
L10637 9689
L10693 9708
" />
<path d="M11012 10064
L10975 10083
L10900 10083
L10862 10064
L10843 10027
L10843 9877
L10862 9839
L10900 9821
L10975 9821
L11012 9839
L11031 9877
L11031 9914
L10843 9952
" />
<path d="M11200 10083
L11200 9821
" />
<path d="M11200 9896
L11218 9858
L11237 9839
L11275 9821
L11312 9821
" />
<path d="M11443 10083
L11443 9821
" />
<path d="M11443 9689
L11425 9708
L11443 9727
L11462 9708
L11443 9689
L11443 9727
" />
<path d="M11800 10083
L11800 9877
L11781 9839
L11743 9821
L11668 9821
L11631 9839
" />
<path d="M11800 10064
L11762 10083
L11668 10083
L11631 10064
L11612 10027
L11612 9989
L11631 9952
L11668 9933
L11762 9933
L11800 9914
" />
<path d="M12043 10083
L12006 10064
L11987 10027
L11987 9689
" />
<path d="M12100 10121
L12399 10121
" />
<path d="M12718 10046
L12699 10064
L12643 10083
L12606 10083
L12549 10064
L12512 10027
L12493 9989
L12474 9914
L12474 9858
L12493 9783
L12512 9746
L12549 9708
L12606 9689
L12643 9689
L12699 9708
L12718 9727
" />
<path d="M12962 9689
L13037 9689
L13074 9708
L13112 9746
L13131 9821
L13131 9952
L13112 10027
L13074 10064
L13037 10083
L12962 10083
L12924 10064
L12887 10027
L12868 9952
L12868 9821
L12887 9746
L12924 9708
L12962 9689
" />
<path d="M13281 9727
L13299 9708
L13337 9689
L13431 9689
L13468 9708
L13487 9727
L13506 9764
L13506 9802
L13487 9858
L13262 10083
L13506 10083
" />
<path d="M34868 15224
L34474 15224
L34755 15092
L34474 14961
L34868 14961
" />
<path d="M34868 14568
L34868 14793
" />
<path d="M34868 14680
L34474 14680
L34530 14718
L34568 14755
L34587 14793
" />
<path d="M7946 8333
L7946 7939
L8096 7939
L8134 7958
L8153 7977
L8171 8014
L8171 8071
L8153 8108
L8134 8127
L8096 8146
L7946 8146
" />
<path d="M8303 7939
L8546 7939
L8415 8089
L8471 8089
L8509 8108
L8528 8127
L8546 8164
L8546 8258
L8528 8296
L8509 8314
L8471 8333
L8359 8333
L8321 8314
L8303 8296
" />
<path d="M8368 9971
L8556 9971
" />
<path d="M8331 10083
L8462 9689
L8593 10083
" />
<path d="M8893 9821
L8893 10083
" />
<path d="M8725 9821
L8725 10027
L8743 10064
L8781 10083
L8837 10083
L8875 10064
L8893 10046
" />
<path d="M9043 10083
L9250 9821
" />
<path d="M9043 9821
L9250 10083
" />
<path d="M9474 9689
L9512 9689
L9549 9708
L9568 9727
L9587 9764
L9606 9839
L9606 9933
L9587 10008
L9568 10046
L9549 10064
L9512 10083
L9474 10083
L9437 10064
L9418 10046
L9399 10008
L9381 9933
L9381 9839
L9399 9764
L9418 9727
L9437 9708
L9474 9689
" />
<path d="M37415 7446
L37021 7446
L37021 7296
L37040 7258
L37059 7239
L37096 7221
L37153 7221
L37190 7239
L37209 7258
L37228 7296
L37228 7446
" />
<path d="M37153 6883
L37415 6883
" />
<path d="M37003 6977
L37284 7071
L37284 6827
" />
<path d="M34765 6661
L34765 6361
" />
<path d="M34915 6511
L34615 6511
" />
<path d="M34521 5986
L34521 6174
L34709 6193
L34690 6174
L34671 6136
L34671 6043
L34690 6005
L34709 5986
L34746 5968
L34840 5968
L34878 5986
L34896 6005
L34915 6043
L34915 6136
L34896 6174
L34878 6193
" />
<path d="M34521 5855
L34915 5724
L34521 5593
" />
<path d="M13498 13196
L13104 13196
L13104 13046
L13123 13008
L13142 12989
L13179 12971
L13235 12971
L13273 12989
L13292 13008
L13310 13046
L13310 13196
" />
<path d="M13104 12614
L13104 12802
L13292 12821
L13273 12802
L13254 12764
L13254 12671
L13273 12633
L13292 12614
L13329 12596
L13423 12596
L13460 12614
L13479 12633
L13498 12671
L13498 12764
L13479 12802
L13460 12821
" />
<path d="M13928 11377
L13984 11396
L14003 11414
L14021 11452
L14021 11508
L14003 11546
L13984 11564
L13946 11583
L13796 11583
L13796 11189
L13928 11189
L13965 11208
L13984 11227
L14003 11264
L14003 11302
L13984 11339
L13965 11358
L13928 11377
L13796 11377
" />
<path d="M14359 11321
L14359 11583
" />
<path d="M14190 11321
L14190 11527
L14209 11564
L14246 11583
L14303 11583
L14340 11564
L14359 11546
" />
<path d="M14528 11564
L14565 11583
L14640 11583
L14678 11564
L14696 11527
L14696 11508
L14678 11471
L14640 11452
L14584 11452
L14546 11433
L14528 11396
L14528 11377
L14546 11339
L14584 11321
L14640 11321
L14678 11339
" />
<path d="M26832 13196
L26439 13196
L26439 13046
L26458 13008
L26476 12989
L26514 12971
L26570 12971
L26607 12989
L26626 13008
L26645 13046
L26645 13196
" />
<path d="M26439 12633
L26439 12708
L26458 12746
L26476 12764
L26532 12802
L26607 12821
L26757 12821
L26795 12802
L26814 12783
L26832 12746
L26832 12671
L26814 12633
L26795 12614
L26757 12596
L26664 12596
L26626 12614
L26607 12633
L26589 12671
L26589 12746
L26607 12783
L26626 12802
L26664 12821
" />
<path d="M21146 11564
L21203 11583
L21296 11583
L21334 11564
L21353 11546
L21371 11508
L21371 11471
L21353 11433
L21334 11414
L21296 11396
L21221 11377
L21184 11358
L21165 11339
L21146 11302
L21146 11264
L21165 11227
L21184 11208
L21221 11189
L21315 11189
L21371 11208
" />
<path d="M21540 11583
L21540 11189
L21690 11189
L21728 11208
L21746 11227
L21765 11264
L21765 11321
L21746 11358
L21728 11377
L21690 11396
L21540 11396
" />
<path d="M21934 11583
L21934 11189
" />
<path d="M22196 11189
L22234 11189
L22271 11208
L22290 11227
L22309 11264
L22328 11339
L22328 11433
L22309 11508
L22290 11546
L22271 11564
L22234 11583
L22196 11583
L22159 11564
L22140 11546
L22121 11508
L22103 11433
L22103 11339
L22121 11264
L22140 11227
L22159 11208
L22196 11189
" />
<path d="M6446 8333
L6446 7939
L6596 7939
L6634 7958
L6653 7977
L6671 8014
L6671 8071
L6653 8108
L6634 8127
L6596 8146
L6446 8146
" />
<path d="M6803 7939
L7065 7939
L6896 8333
" />
<path d="M6478 10083
L6478 9689
L6628 9689
L6665 9708
L6684 9727
L6703 9764
L6703 9821
L6684 9858
L6665 9877
L6628 9896
L6478 9896
" />
<path d="M6834 9821
L6909 10083
L6984 9896
L7059 10083
L7134 9821
" />
<path d="M7284 10083
L7284 9821
" />
<path d="M7284 9858
L7303 9839
L7340 9821
L7396 9821
L7434 9839
L7453 9877
L7453 10083
" />
<path d="M7453 9877
L7471 9839
L7509 9821
L7565 9821
L7603 9839
L7621 9877
L7621 10083
" />
<path d="M7884 9689
L7921 9689
L7959 9708
L7978 9727
L7996 9764
L8015 9839
L8015 9933
L7996 10008
L7978 10046
L7959 10064
L7921 10083
L7884 10083
L7846 10064
L7828 10046
L7809 10008
L7790 9933
L7790 9839
L7809 9764
L7828 9727
L7846 9708
L7884 9689
" />
<path d="M22446 6583
L22446 6189
L22596 6189
L22634 6208
L22653 6227
L22671 6264
L22671 6321
L22653 6358
L22634 6377
L22596 6396
L22446 6396
" />
<path d="M22896 6358
L22859 6339
L22840 6321
L22821 6283
L22821 6264
L22840 6227
L22859 6208
L22896 6189
L22971 6189
L23009 6208
L23028 6227
L23046 6264
L23046 6283
L23028 6321
L23009 6339
L22971 6358
L22896 6358
L22859 6377
L22840 6396
L22821 6433
L22821 6508
L22840 6546
L22859 6564
L22896 6583
L22971 6583
L23009 6564
L23028 6546
L23046 6508
L23046 6433
L23028 6396
L23009 6377
L22971 6358
" />
<path d="M21868 5971
L22056 5971
" />
<path d="M21831 6083
L21962 5689
L22093 6083
" />
<path d="M22393 5821
L22393 6083
" />
<path d="M22225 5821
L22225 6027
L22243 6064
L22281 6083
L22337 6083
L22375 6064
L22393 6046
" />
<path d="M22543 6083
L22750 5821
" />
<path d="M22543 5821
L22750 6083
" />
<path d="M23106 6083
L22881 6083
" />
<path d="M22993 6083
L22993 5689
L22956 5746
L22918 5783
L22881 5802
" />
<path d="M22446 8083
L22446 7689
L22596 7689
L22634 7708
L22653 7727
L22671 7764
L22671 7821
L22653 7858
L22634 7877
L22596 7896
L22446 7896
" />
<path d="M22859 8083
L22934 8083
L22971 8064
L22990 8046
L23028 7989
L23046 7914
L23046 7764
L23028 7727
L23009 7708
L22971 7689
L22896 7689
L22859 7708
L22840 7727
L22821 7764
L22821 7858
L22840 7896
L22859 7914
L22896 7933
L22971 7933
L23009 7914
L23028 7896
L23046 7858
" />
<path d="M22000 7564
L22056 7583
L22150 7583
L22187 7564
L22206 7546
L22225 7508
L22225 7471
L22206 7433
L22187 7414
L22150 7396
L22075 7377
L22037 7358
L22018 7339
L22000 7302
L22000 7264
L22018 7227
L22037 7208
L22075 7189
L22168 7189
L22225 7208
" />
<path d="M22375 7564
L22431 7583
L22525 7583
L22562 7564
L22581 7546
L22600 7508
L22600 7471
L22581 7433
L22562 7414
L22525 7396
L22450 7377
L22412 7358
L22393 7339
L22375 7302
L22375 7264
L22393 7227
L22412 7208
L22450 7189
L22543 7189
L22600 7208
" />
<path d="M22974 7583
L22750 7583
" />
<path d="M22862 7583
L22862 7189
L22824 7246
L22787 7283
L22750 7302
" />
<path d="M6509 17583
L6509 17189
L6659 17189
L6696 17208
L6715 17227
L6734 17264
L6734 17321
L6715 17358
L6696 17377
L6659 17396
L6509 17396
" />
<path d="M7109 17583
L6884 17583
" />
<path d="M6996 17583
L6996 17189
L6959 17246
L6921 17283
L6884 17302
" />
<path d="M7353 17189
L7390 17189
L7428 17208
L7446 17227
L7465 17264
L7484 17339
L7484 17433
L7465 17508
L7446 17546
L7428 17564
L7390 17583
L7353 17583
L7315 17564
L7296 17546
L7278 17508
L7259 17433
L7259 17339
L7278 17264
L7296 17227
L7315 17208
L7353 17189
" />
<path d="M6612 16971
L6800 16971
" />
<path d="M6575 17083
L6706 16689
L6837 17083
" />
<path d="M6968 17083
L6968 16821
" />
<path d="M6968 16689
L6950 16708
L6968 16727
L6987 16708
L6968 16689
L6968 16727
" />
<path d="M7231 16689
L7268 16689
L7306 16708
L7324 16727
L7343 16764
L7362 16839
L7362 16933
L7343 17008
L7324 17046
L7306 17064
L7268 17083
L7231 17083
L7193 17064
L7175 17046
L7156 17008
L7137 16933
L7137 16839
L7156 16764
L7175 16727
L7193 16708
L7231 16689
" />
<path d="M6509 21083
L6509 20689
L6659 20689
L6696 20708
L6715 20727
L6734 20764
L6734 20821
L6715 20858
L6696 20877
L6659 20896
L6509 20896
" />
<path d="M7109 21083
L6884 21083
" />
<path d="M6996 21083
L6996 20689
L6959 20746
L6921 20783
L6884 20802
" />
<path d="M7484 21083
L7259 21083
" />
<path d="M7371 21083
L7371 20689
L7334 20746
L7296 20783
L7259 20802
" />
<path d="M6612 20471
L6800 20471
" />
<path d="M6575 20583
L6706 20189
L6837 20583
" />
<path d="M6968 20583
L6968 20321
" />
<path d="M6968 20189
L6950 20208
L6968 20227
L6987 20208
L6968 20189
L6968 20227
" />
<path d="M7362 20583
L7137 20583
" />
<path d="M7249 20583
L7249 20189
L7212 20246
L7175 20283
L7137 20302
" />
<path d="M10759 20583
L10759 20189
L10909 20189
L10946 20208
L10965 20227
L10984 20264
L10984 20321
L10965 20358
L10946 20377
L10909 20396
L10759 20396
" />
<path d="M11359 20583
L11134 20583
" />
<path d="M11246 20583
L11246 20189
L11209 20246
L11171 20283
L11134 20302
" />
<path d="M11509 20227
L11528 20208
L11565 20189
L11659 20189
L11696 20208
L11715 20227
L11734 20264
L11734 20302
L11715 20358
L11490 20583
L11734 20583
" />
<path d="M9612 20471
L9800 20471
" />
<path d="M9575 20583
L9706 20189
L9837 20583
" />
<path d="M9968 20583
L9968 20321
" />
<path d="M9968 20189
L9950 20208
L9968 20227
L9987 20208
L9968 20189
L9968 20227
" />
<path d="M10137 20227
L10156 20208
L10193 20189
L10287 20189
L10324 20208
L10343 20227
L10362 20264
L10362 20302
L10343 20358
L10118 20583
L10362 20583
" />
<path d="M10759 21583
L10759 21189
L10909 21189
L10946 21208
L10965 21227
L10984 21264
L10984 21321
L10965 21358
L10946 21377
L10909 21396
L10759 21396
" />
<path d="M11359 21583
L11134 21583
" />
<path d="M11246 21583
L11246 21189
L11209 21246
L11171 21283
L11134 21302
" />
<path d="M11490 21189
L11734 21189
L11603 21339
L11659 21339
L11696 21358
L11715 21377
L11734 21414
L11734 21508
L11715 21546
L11696 21564
L11659 21583
L11546 21583
L11509 21564
L11490 21546
" />
<path d="M9612 21471
L9800 21471
" />
<path d="M9575 21583
L9706 21189
L9837 21583
" />
<path d="M9968 21583
L9968 21321
" />
<path d="M9968 21189
L9950 21208
L9968 21227
L9987 21208
L9968 21189
L9968 21227
" />
<path d="M10118 21189
L10362 21189
L10231 21339
L10287 21339
L10324 21358
L10343 21377
L10362 21414
L10362 21508
L10343 21546
L10324 21564
L10287 21583
L10175 21583
L10137 21564
L10118 21546
" />
<path d="M20509 18083
L20509 17689
L20659 17689
L20696 17708
L20715 17727
L20734 17764
L20734 17821
L20715 17858
L20696 17877
L20659 17896
L20509 17896
" />
<path d="M21109 18083
L20884 18083
" />
<path d="M20996 18083
L20996 17689
L20959 17746
L20921 17783
L20884 17802
" />
<path d="M21446 17821
L21446 18083
" />
<path d="M21353 17671
L21259 17952
L21503 17952
" />
<path d="M20396 18721
L20584 18721
" />
<path d="M20359 18833
L20490 18439
L20621 18833
" />
<path d="M20828 18439
L20903 18439
L20940 18458
L20978 18496
L20996 18571
L20996 18702
L20978 18777
L20940 18814
L20903 18833
L20828 18833
L20790 18814
L20753 18777
L20734 18702
L20734 18571
L20753 18496
L20790 18458
L20828 18439
" />
<path d="M21334 18571
L21334 18833
" />
<path d="M21165 18571
L21165 18777
L21184 18814
L21221 18833
L21278 18833
L21315 18814
L21334 18796
" />
<path d="M21465 18571
L21615 18571
" />
<path d="M21521 18439
L21521 18777
L21540 18814
L21578 18833
L21615 18833
" />
<path d="M28259 26083
L28259 25689
L28409 25689
L28446 25708
L28465 25727
L28484 25764
L28484 25821
L28465 25858
L28446 25877
L28409 25896
L28259 25896
" />
<path d="M28859 26083
L28634 26083
" />
<path d="M28746 26083
L28746 25689
L28709 25746
L28671 25783
L28634 25802
" />
<path d="M29215 25689
L29028 25689
L29009 25877
L29028 25858
L29065 25839
L29159 25839
L29196 25858
L29215 25877
L29234 25914
L29234 26008
L29215 26046
L29196 26064
L29159 26083
L29065 26083
L29028 26064
L29009 26046
" />
<path d="M28193 26814
L28250 26833
L28343 26833
L28381 26814
L28400 26796
L28418 26758
L28418 26721
L28400 26683
L28381 26664
L28343 26646
L28268 26627
L28231 26608
L28212 26589
L28193 26552
L28193 26514
L28212 26477
L28231 26458
L28268 26439
L28362 26439
L28418 26458
" />
<path d="M28850 26871
L28812 26852
L28775 26814
L28718 26758
L28681 26739
L28643 26739
" />
<path d="M28662 26833
L28625 26814
L28587 26777
L28568 26702
L28568 26571
L28587 26496
L28625 26458
L28662 26439
L28737 26439
L28775 26458
L28812 26496
L28831 26571
L28831 26702
L28812 26777
L28775 26814
L28737 26833
L28662 26833
" />
<path d="M28962 26439
L29056 26833
L29131 26552
L29206 26833
L29299 26439
" />
<path d="M6753 22833
L6621 22646
" />
<path d="M6528 22833
L6528 22439
L6678 22439
L6715 22458
L6734 22477
L6753 22514
L6753 22571
L6734 22608
L6715 22627
L6678 22646
L6528 22646
" />
<path d="M6865 22439
L6996 22833
L7128 22439
" />
<path d="M7465 22833
L7240 22833
" />
<path d="M7353 22833
L7353 22439
L7315 22496
L7278 22533
L7240 22552
" />
<path d="M14437 17272
L14437 17591
L14456 17628
L14475 17647
L14512 17666
L14587 17666
L14625 17647
L14643 17628
L14662 17591
L14662 17272
" />
<path d="M15056 17666
L14831 17666
" />
<path d="M14943 17666
L14943 17272
L14906 17328
L14868 17366
L14831 17385
" />
<path d="M28437 19772
L28437 20091
L28456 20128
L28475 20147
L28512 20166
L28587 20166
L28625 20147
L28643 20128
L28662 20091
L28662 19772
" />
<path d="M28831 19810
L28850 19791
L28887 19772
L28981 19772
L29018 19791
L29037 19810
L29056 19847
L29056 19885
L29037 19941
L28812 20166
L29056 20166
" />
<path d="M26978 14592
L27165 14592
" />
<path d="M26771 14724
L26978 14592
L26771 14461
" />
<path d="M27165 14124
L27165 14349
" />
<path d="M27165 14236
L26771 14236
L26828 14274
L26865 14311
L26884 14349
" />
<path d="M6621 5696
L19621 5696
" />
<path d="M7621 7696
L19621 7696
" />
<path d="M19621 5696
L19621 7696
" />
<path d="M6621 5696
L6621 6696
" />
<path d="M6511 7196
L6511 7806
" />
<path d="M6621 6696
L7621 6696
" />
<path d="M7621 6696
L7621 7696
" />
<path d="M6511 7806
L7121 7806
" />
</g>
<g style="fill:#000000; fill-opacity:0.0; 
stroke:#000000; stroke-width:47.2441; stroke-opacity:1; 
stroke-linecap:round; stroke-linejoin:round;">
<circle cx="27737.5" cy="7397.64" r="2003.94" /> 
<path d="M29725 7397
L25749 7397
" />
<path d="M29725 7413
L25749 7413
" />
<path d="M29725 7429
L25749 7429
" />
<path d="M29725 7444
L25749 7444
" />
<path d="M29724 7460
L25750 7460
" />
<path d="M29724 7476
L25750 7476
" />
<path d="M29723 7492
L25751 7492
" />
<path d="M29722 7507
L28123 7507
" />
<path d="M27351 7507
L25752 7507
" />
<path d="M29721 7523
L28123 7523
" />
<path d="M27351 7523
L25753 7523
" />
<path d="M29720 7539
L28123 7539
" />
<path d="M27351 7539
L25754 7539
" />
<path d="M29719 7555
L28123 7555
" />
<path d="M27351 7555
L25755 7555
" />
<path d="M29718 7570
L28123 7570
" />
<path d="M27351 7570
L25756 7570
" />
<path d="M29717 7586
L28123 7586
" />
<path d="M27351 7586
L25758 7586
" />
<path d="M29715 7602
L28123 7602
" />
<path d="M27351 7602
L25759 7602
" />
<path d="M29713 7618
L28123 7618
" />
<path d="M27351 7618
L25761 7618
" />
<path d="M29711 7633
L28123 7633
" />
<path d="M27351 7633
L25763 7633
" />
<path d="M29709 7649
L28123 7649
" />
<path d="M27351 7649
L25765 7649
" />
<path d="M29708 7665
L28123 7665
" />
<path d="M27351 7665
L25767 7665
" />
<path d="M29705 7681
L28123 7681
" />
<path d="M27351 7681
L25769 7681
" />
<path d="M29703 7697
L28123 7697
" />
<path d="M27351 7697
L25771 7697
" />
<path d="M29700 7712
L28123 7712
" />
<path d="M27351 7712
L25774 7712
" />
<path d="M29698 7728
L28123 7728
" />
<path d="M27351 7728
L25776 7728
" />
<path d="M29695 7744
L28123 7744
" />
<path d="M27351 7744
L25779 7744
" />
<path d="M29693 7760
L28123 7760
" />
<path d="M27351 7760
L25782 7760
" />
<path d="M29689 7775
L28123 7775
" />
<path d="M27351 7775
L25785 7775
" />
<path d="M29686 7791
L28123 7791
" />
<path d="M27351 7791
L25788 7791
" />
<path d="M29683 7807
L28123 7807
" />
<path d="M27351 7807
L25791 7807
" />
<path d="M29680 7823
L28123 7823
" />
<path d="M27351 7823
L25794 7823
" />
<path d="M29676 7838
L28123 7838
" />
<path d="M27351 7838
L25798 7838
" />
<path d="M29673 7854
L28123 7854
" />
<path d="M27351 7854
L25801 7854
" />
<path d="M29669 7870
L28123 7870
" />
<path d="M27351 7870
L25805 7870
" />
<path d="M29665 7886
L28123 7886
" />
<path d="M27351 7886
L25809 7886
" />
<path d="M29661 7901
L28123 7901
" />
<path d="M27351 7901
L25813 7901
" />
<path d="M29657 7917
L28123 7917
" />
<path d="M27351 7917
L25817 7917
" />
<path d="M29652 7933
L28123 7933
" />
<path d="M27351 7933
L25822 7933
" />
<path d="M29648 7949
L28123 7949
" />
<path d="M27351 7949
L25826 7949
" />
<path d="M29644 7964
L28123 7964
" />
<path d="M27351 7964
L25830 7964
" />
<path d="M29639 7980
L28123 7980
" />
<path d="M27351 7980
L25835 7980
" />
<path d="M29634 7996
L28123 7996
" />
<path d="M27351 7996
L25840 7996
" />
<path d="M29629 8012
L28123 8012
" />
<path d="M27351 8012
L25845 8012
" />
<path d="M29624 8027
L28123 8027
" />
<path d="M27351 8027
L25850 8027
" />
<path d="M29619 8043
L28123 8043
" />
<path d="M27351 8043
L25856 8043
" />
<path d="M29613 8059
L28123 8059
" />
<path d="M27351 8059
L25861 8059
" />
<path d="M29608 8075
L28123 8075
" />
<path d="M27351 8075
L25867 8075
" />
<path d="M29602 8090
L28123 8090
" />
<path d="M27351 8090
L25872 8090
" />
<path d="M29596 8106
L28123 8106
" />
<path d="M27351 8106
L25878 8106
" />
<path d="M29590 8122
L28123 8122
" />
<path d="M27351 8122
L25884 8122
" />
<path d="M29584 8138
L28123 8138
" />
<path d="M27351 8138
L25890 8138
" />
<path d="M29577 8153
L28123 8153
" />
<path d="M27351 8153
L25897 8153
" />
<path d="M29571 8169
L28123 8169
" />
<path d="M27351 8169
L25903 8169
" />
<path d="M29564 8185
L28123 8185
" />
<path d="M27351 8185
L25910 8185
" />
<path d="M29558 8201
L28123 8201
" />
<path d="M27351 8201
L25917 8201
" />
<path d="M29550 8216
L28123 8216
" />
<path d="M27351 8216
L25924 8216
" />
<path d="M29543 8232
L28123 8232
" />
<path d="M27351 8232
L25931 8232
" />
<path d="M29536 8248
L28123 8248
" />
<path d="M27351 8248
L25938 8248
" />
<path d="M29528 8264
L28123 8264
" />
<path d="M27351 8264
L25946 8264
" />
<path d="M29521 8279
L25953 8279
" />
<path d="M29513 8295
L25961 8295
" />
<path d="M29505 8311
L25969 8311
" />
<path d="M29497 8327
L25977 8327
" />
<path d="M29489 8342
L25985 8342
" />
<path d="M29480 8358
L25994 8358
" />
<path d="M29471 8374
L26003 8374
" />
<path d="M29463 8390
L26011 8390
" />
<path d="M29454 8405
L26020 8405
" />
<path d="M29444 8421
L26030 8421
" />
<path d="M29435 8437
L26039 8437
" />
<path d="M29425 8453
L26049 8453
" />
<path d="M29415 8468
L26059 8468
" />
<path d="M29405 8484
L26069 8484
" />
<path d="M29395 8500
L26079 8500
" />
<path d="M29385 8516
L26089 8516
" />
<path d="M29374 8531
L26100 8531
" />
<path d="M29363 8547
L26111 8547
" />
<path d="M29352 8563
L26122 8563
" />
<path d="M29340 8579
L26134 8579
" />
<path d="M29329 8594
L26145 8594
" />
<path d="M29317 8610
L26157 8610
" />
<path d="M29305 8626
L26169 8626
" />
<path d="M29293 8642
L26182 8642
" />
<path d="M29280 8657
L26194 8657
" />
<path d="M29267 8673
L26207 8673
" />
<path d="M29254 8689
L26220 8689
" />
<path d="M29241 8705
L26233 8705
" />
<path d="M29227 8720
L26247 8720
" />
<path d="M29213 8736
L26261 8736
" />
<path d="M29198 8752
L26276 8752
" />
<path d="M29184 8768
L26290 8768
" />
<path d="M29169 8783
L26305 8783
" />
<path d="M29154 8799
L26320 8799
" />
<path d="M29138 8815
L26336 8815
" />
<path d="M29122 8831
L26352 8831
" />
<path d="M29106 8846
L26368 8846
" />
<path d="M29089 8862
L26385 8862
" />
<path d="M29072 8878
L26402 8878
" />
<path d="M29055 8894
L26419 8894
" />
<path d="M29037 8909
L26437 8909
" />
<path d="M29019 8925
L26456 8925
" />
<path d="M29000 8941
L26474 8941
" />
<path d="M28980 8957
L26494 8957
" />
<path d="M28961 8972
L26513 8972
" />
<path d="M28941 8988
L26533 8988
" />
<path d="M28920 9004
L26554 9004
" />
<path d="M28898 9020
L26576 9020
" />
<path d="M28876 9035
L26598 9035
" />
<path d="M28854 9051
L26620 9051
" />
<path d="M28830 9067
L26644 9067
" />
<path d="M28806 9083
L26668 9083
" />
<path d="M28781 9098
L26693 9098
" />
<path d="M28756 9114
L26719 9114
" />
<path d="M28729 9130
L26745 9130
" />
<path d="M28701 9146
L26773 9146
" />
<path d="M28673 9161
L26801 9161
" />
<path d="M28643 9177
L26831 9177
" />
<path d="M28612 9193
L26862 9193
" />
<path d="M28580 9209
L26895 9209
" />
<path d="M28545 9224
L26929 9224
" />
<path d="M28509 9240
L26965 9240
" />
<path d="M28472 9256
L27002 9256
" />
<path d="M28431 9272
L27043 9272
" />
<path d="M28388 9287
L27086 9287
" />
<path d="M28342 9303
L27132 9303
" />
<path d="M28291 9319
L27183 9319
" />
<path d="M28235 9335
L27239 9335
" />
<path d="M28172 9350
L27302 9350
" />
<path d="M28096 9366
L27378 9366
" />
<path d="M28002 9382
L27472 9382
" />
<path d="M27847 9398
L27627 9398
" />
<path d="M27737 6039
L27737 6511
" />
<path d="M27993 6275
L27481 6275
" />
<path d="M9568 25614
L10906 25614
" />
<path d="M9666.61 24059.1 A945.292 945.292 0.0 0 0 9351.71 24374 " />
<path d="M11123.4 24374 A945.292 945.292 0.0 0 0 10808.5 24059.1 " />
<path d="M9395.55 25446.6 A946.521 946.521 0.0 0 0 9528.87 25614.2 " />
<path d="M10946.2 25614.2 A946.521 946.521 0.0 0 0 11079.5 25446.6 " />
<path d="M35237 9405
L39237 9405
" />
<path d="M35237 8905
L35237 11905
" />
<path d="M35237 11905
L39237 11905
" />
<path d="M39237 11905
L39237 8905
" />
<path d="M39237 8905
L35237 8905
" />
<path d="M9713 14429
L10761 14429
" />
<path d="M9713 11405
L9713 14429
" />
<path d="M10761 11405
L10761 14429
" />
<path d="M9713 11405
L10761 11405
" />
<path d="M9713 10905
L9713 10381
" />
<path d="M9713 10381
L10237 10381
" />
<path d="M6213 14429
L7261 14429
" />
<path d="M6213 11405
L6213 14429
" />
<path d="M7261 11405
L7261 14429
" />
<path d="M6213 11405
L7261 11405
" />
<path d="M6213 10905
L6213 10381
" />
<path d="M6213 10381
L6737 10381
" />
<path d="M7713 14429
L8761 14429
" />
<path d="M7713 11405
L7713 14429
" />
<path d="M8761 11405
L8761 14429
" />
<path d="M7713 11405
L8761 11405
" />
<path d="M7713 10905
L7713 10381
" />
<path d="M7713 10381
L8237 10381
" />
<path d="M9713 8381
L9713 9429
" />
<path d="M12737 8381
L9713 8381
" />
<path d="M12737 9429
L9713 9429
" />
<path d="M12737 8381
L12737 9429
" />
<path d="M13237 8381
L13761 8381
" />
<path d="M13761 8381
L13761 8905
" />
</g>
<g style="fill:#000000; fill-opacity:0.0; 
stroke:#000000; stroke-width:59.0551; stroke-opacity:1; 
stroke-linecap:round; stroke-linejoin:round;">
<path d="M28391 10771
L35083 10771
" />
<path d="M35083 10771
L35083 19039
" />
<path d="M35083 19039
L28391 19039
" />
<path d="M28391 19039
L28391 10771
" />
</g>
<g style="fill:#000000; fill-opacity:0.0; 
stroke:#000000; stroke-width:47.2441; stroke-opacity:1; 
stroke-linecap:round; stroke-linejoin:round;">
<path d="M7713 9429
L8761 9429
" />
<path d="M7713 9405
L7713 9429
" />
<path d="M8761 9405
L8761 9429
" />
<path d="M7713 9405
L8761 9405
" />
<path d="M7713 8905
L7713 8381
" />
<path d="M7713 8381
L8237 8381
" />
<path d="M39237 7905
L35237 7905
" />
<path d="M39237 8405
L39237 5405
" />
<path d="M39237 5405
L35237 5405
" />
<path d="M35237 5405
L35237 8405
" />
<path d="M35237 8405
L39237 8405
" />
<path d="M18761 13929
L18761 11881
" />
<path d="M14737 13929
L18761 13929
" />
<path d="M13713 11881
L18761 11881
" />
<path d="M14737 13929
L14737 12905
" />
<path d="M14737 12905
L13713 12905
" />
<path d="M13713 12905
L13713 11881
" />
<path d="M14237 13929
L13713 13929
" />
<path d="M13713 13929
L13713 13405
" />
<path d="M21213 11881
L21213 13929
" />
<path d="M25237 11881
L21213 11881
" />
<path d="M26261 13929
L21213 13929
" />
<path d="M25237 11881
L25237 12905
" />
<path d="M25237 12905
L26261 12905
" />
<path d="M26261 12905
L26261 13929
" />
<path d="M25737 11881
L26261 11881
" />
<path d="M26261 11881
L26261 12405
" />
<path d="M6213 9429
L7261 9429
" />
<path d="M6213 9405
L6213 9429
" />
<path d="M7261 9405
L7261 9429
" />
<path d="M6213 9405
L7261 9405
" />
<path d="M6213 8905
L6213 8381
" />
<path d="M6213 8381
L6737 8381
" />
<path d="M20713 6429
L21761 6429
" />
<path d="M20713 6405
L20713 6429
" />
<path d="M21761 6405
L21761 6429
" />
<path d="M20713 6405
L21761 6405
" />
<path d="M20713 5905
L20713 5381
" />
<path d="M20713 5381
L21237 5381
" />
<path d="M20713 7929
L21761 7929
" />
<path d="M20713 7905
L20713 7929
" />
<path d="M21761 7905
L21761 7929
" />
<path d="M20713 7905
L21761 7905
" />
<path d="M20713 7405
L20713 6881
" />
<path d="M20713 6881
L21237 6881
" />
<path d="M9261 18929
L9261 17881
" />
<path d="M7237 18929
L9261 18929
" />
<path d="M7237 17881
L9261 17881
" />
<path d="M7237 18929
L7237 17881
" />
<path d="M6737 18929
L6213 18929
" />
<path d="M6213 18929
L6213 18405
" />
<path d="M9261 19929
L9261 18881
" />
<path d="M7237 19929
L9261 19929
" />
<path d="M7237 18881
L9261 18881
" />
<path d="M7237 19929
L7237 18881
" />
<path d="M6737 19929
L6213 19929
" />
<path d="M6213 19929
L6213 19405
" />
<path d="M8213 20929
L9261 20929
" />
<path d="M8213 20905
L8213 20929
" />
<path d="M9261 20905
L9261 20929
" />
<path d="M8213 20905
L9261 20905
" />
<path d="M8213 20405
L8213 19881
" />
<path d="M8213 19881
L8737 19881
" />
<path d="M8213 21929
L9261 21929
" />
<path d="M8213 21905
L8213 21929
" />
<path d="M9261 21905
L9261 21929
" />
<path d="M8213 21905
L9261 21905
" />
<path d="M8213 21405
L8213 20881
" />
<path d="M8213 20881
L8737 20881
" />
<path d="M17213 17881
L17213 18929
" />
<path d="M19237 17881
L17213 17881
" />
<path d="M19237 18929
L17213 18929
" />
<path d="M19237 17881
L19237 18929
" />
<path d="M19737 17881
L20261 17881
" />
<path d="M20261 17881
L20261 18405
" />
<path d="M29713 26929
L30761 26929
" />
<path d="M29713 26905
L29713 26929
" />
<path d="M30761 26905
L30761 26929
" />
<path d="M29713 26905
L30761 26905
" />
<path d="M29713 26405
L29713 25881
" />
<path d="M29713 25881
L30237 25881
" />
<path d="M6330.05 26281.5 A454.724 454.724 0.0 1 0 7239.22 26265.6 " />
<path d="M6879.26 25837 A454.42 454.42 0.0 0 0 6330.43 26289.4 " />
<path d="M8209 23005
L8209 26805
" />
<path d="M6260 23005
L6260 26805
" />
<path d="M8209 23005
L6260 23005
" />
<path d="M8209 26805
L6260 26805
" />
<path d="M7073 26626
L6439 25992
" />
<path d="M7129 26571
L6495 25936
" />
<path d="M14343.8 17881.9 A393.701 393.701 0.0 0 0 15131.2 17881.9 " />
<path d="M14343 17881
L13851 17881
" />
<path d="M13851 17881
L13851 25929
" />
<path d="M13851 25929
L15623 25929
" />
<path d="M15623 25929
L15623 17881
" />
<path d="M15623 17881
L15131 17881
" />
<path d="M28343.8 20381.9 A393.701 393.701 0.0 0 0 29131.2 20381.9 " />
<path d="M28343 20381
L27851 20381
" />
<path d="M27851 20381
L27851 24429
" />
<path d="M27851 24429
L29623 24429
" />
<path d="M29623 24429
L29623 20381
" />
<path d="M29623 20381
L29131 20381
" />
<path d="M27906 18303
L27906 14011
" />
<path d="M27906 14011
L26568 14011
" />
<path d="M26568 14011
L26568 18303
" />
<path d="M26568 18303
L27906 18303
" />
<path d="M27473 18303
L27737 18854
" />
<path d="M27737 18854
L27737 19129
" />
<path d="M27001 18303
L26737 18854
" />
<path d="M26737 18854
L26737 19129
" />
</g>
<g style="fill:#000000; fill-opacity:0.0; 
stroke:#000000; stroke-width:0; stroke-opacity:1; 
stroke-linecap:round; stroke-linejoin:round;">
</g>
<g style="fill:#000000; fill-opacity:1.0; 
stroke:#000000; stroke-width:0; stroke-opacity:1; 
stroke-linecap:round; stroke-linejoin:round;">
<polyline style="fill-rule:evenodd;"
points="7461,7536
6781,7536
6781,6856
7461,6856
7461,7536
" /> 
</g>
<g style="fill:#000000; fill-opacity:1.0; 
stroke:#000000; stroke-width:680; stroke-opacity:1; 
stroke-linecap:round; stroke-linejoin:round;">
</g>
<g style="fill:#000000; fill-opacity:0.0; 
stroke:#000000; stroke-width:680; stroke-opacity:1; 
stroke-linecap:round; stroke-linejoin:round;">
<path d="M7121 6196
L7121 6196
" />
<path d="M8121 7196
L8121 7196
" />
<path d="M8121 6196
L8121 6196
" />
<path d="M9121 7196
L9121 7196
" />
<path d="M9121 6196
L9121 6196
" />
<path d="M10121 7196
L10121 7196
" />
<path d="M10121 6196
L10121 6196
" />
<path d="M11121 7196
L11121 7196
" />
<path d="M11121 6196
L11121 6196
" />
<path d="M12121 7196
L12121 7196
" />
<path d="M12121 6196
L12121 6196
" />
<path d="M13121 7196
L13121 7196
" />
<path d="M13121 6196
L13121 6196
" />
<path d="M14121 7196
L14121 7196
" />
<path d="M14121 6196
L14121 6196
" />
<path d="M15121 7196
L15121 7196
" />
<path d="M15121 6196
L15121 6196
" />
<path d="M16121 7196
L16121 7196
" />
<path d="M16121 6196
L16121 6196
" />
<path d="M17121 7196
L17121 7196
" />
<path d="M17121 6196
L17121 6196
" />
<path d="M18121 7196
L18121 7196
" />
<path d="M18121 6196
L18121 6196
" />
<path d="M19121 7196
L19121 7196
" />
<path d="M19121 6196
L19121 6196
" />
</g> 
</svg>
