<?xml version="1.0" standalone="no"?>
 <!DOCTYPE svg PUBLIC "-//W3C//DTD SVG 1.1//EN" 
 "http://www.w3.org/Graphics/SVG/1.1/DTD/svg11.dtd"> 
<svg xmlns="http://www.w3.org/2000/svg" version="1.1" 
    width="11.5214cm" height="7.62762cm" viewBox="0 0 45360 30030 ">
<title>SVG Picture created as pi_adc_rtc_etc-Cmts.User.svg date 2018/04/11 10:04:04 </title>
  <desc>Picture generated by PCBNEW </desc>
<g style="fill:#000000; fill-opacity:1;stroke:#000000; stroke-opacity:1;
stroke-linecap:round; stroke-linejoin:round; "
 transform="translate(0 0) scale(1 1)">
</g>
<g style="fill:#000000; fill-opacity:0.0; 
stroke:#000000; stroke-width:-0.000393701; stroke-opacity:1; 
stroke-linecap:round; stroke-linejoin:round;">
</g>
<g style="fill:#000000; fill-opacity:0.0; 
stroke:#000000; stroke-width:59.0551; stroke-opacity:1; 
stroke-linecap:round; stroke-linejoin:round;">
<path d="M39698 11811
L39698 5118
" />
<path d="M35367 11811
L39698 11811
" />
<path d="M35367 17716
L35367 11811
" />
<path d="M39698 17716
L35367 17716
" />
<path d="M39698 27165
L39698 17716
" />
<path d="M39698 5118
L6233 5118
" />
<path d="M6233 27165
L39698 27165
" />
<path d="M6233 5118
L6233 27165
" />
</g>
<g style="fill:#000000; fill-opacity:0.0; 
stroke:#000000; stroke-width:150; stroke-opacity:1; 
stroke-linecap:round; stroke-linejoin:round;">
<path d="M24217 26445
L24177 26365
" />
<path d="M24177 26365
L24177 26275
" />
<path d="M24177 26275
L24217 26195
" />
<path d="M24217 26195
L24357 26165
" />
<path d="M24357 26165
L24537 26165
" />
<path d="M24537 26165
L24567 26205
" />
<path d="M24567 26205
L24597 26325
" />
<path d="M24597 26325
L24577 26415
" />
<path d="M24577 26415
L24437 26435
" />
<path d="M24437 26435
L24387 26195
" />
<path d="M24387 26195
L24407 26195
" />
<path d="M24197 25925
L24197 25795
" />
<path d="M24197 25795
L24197 25715
" />
<path d="M24197 25715
L24257 25645
" />
<path d="M24257 25645
L24407 25645
" />
<path d="M24407 25645
L24537 25685
" />
<path d="M24537 25685
L24567 25745
" />
<path d="M24567 25745
L24567 25855
" />
<path d="M24567 25855
L24537 25925
" />
<path d="M24537 25925
L24417 25935
" />
<path d="M24417 25935
L24407 25685
" />
<path d="M24517 25325
L24577 25475
" />
<path d="M24577 25475
L24577 25485
" />
<path d="M24597 25315
L24177 25315
" />
<path d="M24577 24835
L24597 25105
" />
<path d="M24787 25125
L24787 25055
" />
<path d="M24787 25055
L24737 24995
" />
<path d="M24737 24995
L24197 24975
" />
<path d="M24547 24225
L24577 24175
" />
<path d="M24577 24175
L24577 24065
" />
<path d="M24577 24065
L24487 24005
" />
<path d="M24487 24005
L24417 24015
" />
<path d="M24417 24015
L24387 24125
" />
<path d="M24387 24125
L24357 24225
" />
<path d="M24357 24225
L24247 24245
" />
<path d="M24247 24245
L24177 24165
" />
<path d="M24177 24165
L24197 24015
" />
<path d="M24177 23725
L24217 23585
" />
<path d="M24217 23585
L24247 23505
" />
<path d="M24247 23505
L24377 23455
" />
<path d="M24377 23455
L24497 23455
" />
<path d="M24497 23455
L24577 23535
" />
<path d="M24577 23535
L24597 23665
" />
<path d="M24787 23745
L24177 23745
" />
<path d="M24177 23155
L24197 22975
" />
<path d="M24197 22975
L24277 22915
" />
<path d="M24277 22915
L24387 22925
" />
<path d="M24387 22925
L24407 23205
" />
<path d="M24537 22915
L24597 23025
" />
<path d="M24597 23025
L24567 23125
" />
<path d="M24567 23125
L24497 23185
" />
<path d="M24497 23185
L24167 23205
" />
<path d="M24177 22325
L24807 22335
" />
<path d="M24807 22335
L24807 22515
" />
<path d="M24807 22515
L24757 22625
" />
<path d="M24757 22625
L24657 22675
" />
<path d="M24657 22675
L24547 22675
" />
<path d="M24547 22675
L24467 22625
" />
<path d="M24467 22625
L24487 22515
" />
<path d="M24487 22515
L24487 22335
" />
<path d="M24217 21605
L24177 21505
" />
<path d="M24177 21505
L24217 21405
" />
<path d="M24217 21405
L24277 21345
" />
<path d="M24277 21345
L24437 21315
" />
<path d="M24437 21315
L24537 21365
" />
<path d="M24537 21365
L24577 21445
" />
<path d="M24577 21445
L24567 21555
" />
<path d="M24567 21555
L24517 21615
" />
<path d="M24517 21615
L24437 21615
" />
<path d="M24437 21615
L24407 21365
" />
<path d="M24597 20845
L24177 21025
" />
<path d="M24177 21025
L24577 21135
" />
<path d="M24577 21135
L24577 21125
" />
<path d="M24467 20325
L24277 20325
" />
<path d="M24277 20325
L24197 20405
" />
<path d="M24197 20405
L24177 20495
" />
<path d="M24177 20495
L24227 20605
" />
<path d="M24227 20605
L24307 20645
" />
<path d="M24307 20645
L24487 20645
" />
<path d="M24487 20645
L24567 20575
" />
<path d="M24567 20575
L24597 20465
" />
<path d="M24597 20465
L24497 20335
" />
<path d="M24167 19685
L24807 19685
" />
<path d="M24807 19685
L24357 19875
" />
<path d="M24357 19875
L24777 20065
" />
<path d="M24777 20065
L24167 20065
" />
</g> 
</svg>
