%TF.GenerationSoftware,KiCad,Pcbnew,(6.0.10)*%
%TF.CreationDate,2023-04-08T13:13:14+03:00*%
%TF.ProjectId,DelSol_Voice,44656c53-6f6c-45f5-966f-6963652e6b69,rev?*%
%TF.SameCoordinates,Original*%
%TF.FileFunction,Paste,Bot*%
%TF.FilePolarity,Positive*%
%FSLAX46Y46*%
G04 Gerber Fmt 4.6, Leading zero omitted, Abs format (unit mm)*
G04 Created by KiCad (PCBNEW (6.0.10)) date 2023-04-08 13:13:14*
%MOMM*%
%LPD*%
G01*
G04 APERTURE LIST*
G04 Aperture macros list*
%AMRoundRect*
0 Rectangle with rounded corners*
0 $1 Rounding radius*
0 $2 $3 $4 $5 $6 $7 $8 $9 X,Y pos of 4 corners*
0 Add a 4 corners polygon primitive as box body*
4,1,4,$2,$3,$4,$5,$6,$7,$8,$9,$2,$3,0*
0 Add four circle primitives for the rounded corners*
1,1,$1+$1,$2,$3*
1,1,$1+$1,$4,$5*
1,1,$1+$1,$6,$7*
1,1,$1+$1,$8,$9*
0 Add four rect primitives between the rounded corners*
20,1,$1+$1,$2,$3,$4,$5,0*
20,1,$1+$1,$4,$5,$6,$7,0*
20,1,$1+$1,$6,$7,$8,$9,0*
20,1,$1+$1,$8,$9,$2,$3,0*%
G04 Aperture macros list end*
%ADD10RoundRect,0.250000X-0.400000X-0.625000X0.400000X-0.625000X0.400000X0.625000X-0.400000X0.625000X0*%
%ADD11R,1.700000X3.300000*%
%ADD12RoundRect,0.250000X-0.337500X-0.475000X0.337500X-0.475000X0.337500X0.475000X-0.337500X0.475000X0*%
%ADD13RoundRect,0.250000X0.400000X0.625000X-0.400000X0.625000X-0.400000X-0.625000X0.400000X-0.625000X0*%
%ADD14RoundRect,0.250000X-0.475000X0.337500X-0.475000X-0.337500X0.475000X-0.337500X0.475000X0.337500X0*%
%ADD15RoundRect,0.250000X-0.650000X0.412500X-0.650000X-0.412500X0.650000X-0.412500X0.650000X0.412500X0*%
%ADD16RoundRect,0.250000X0.625000X-0.400000X0.625000X0.400000X-0.625000X0.400000X-0.625000X-0.400000X0*%
%ADD17RoundRect,0.250000X-0.625000X0.400000X-0.625000X-0.400000X0.625000X-0.400000X0.625000X0.400000X0*%
%ADD18R,3.300000X1.700000*%
%ADD19RoundRect,0.250000X0.475000X-0.337500X0.475000X0.337500X-0.475000X0.337500X-0.475000X-0.337500X0*%
%ADD20RoundRect,0.250000X-0.412500X-0.650000X0.412500X-0.650000X0.412500X0.650000X-0.412500X0.650000X0*%
%ADD21RoundRect,0.250000X0.337500X0.475000X-0.337500X0.475000X-0.337500X-0.475000X0.337500X-0.475000X0*%
G04 APERTURE END LIST*
D10*
X145135000Y-106045000D03*
X148235000Y-106045000D03*
D11*
X182880000Y-119170000D03*
X182880000Y-124670000D03*
D12*
X189462500Y-112395000D03*
X191537500Y-112395000D03*
D10*
X132435000Y-103505000D03*
X135535000Y-103505000D03*
X140055000Y-100965000D03*
X143155000Y-100965000D03*
X164820000Y-106045000D03*
X167920000Y-106045000D03*
D13*
X188240000Y-123190000D03*
X185140000Y-123190000D03*
D14*
X177800000Y-122152500D03*
X177800000Y-124227500D03*
D10*
X146405000Y-113030000D03*
X149505000Y-113030000D03*
X158470000Y-114935000D03*
X161570000Y-114935000D03*
D15*
X173355000Y-102577500D03*
X173355000Y-105702500D03*
D16*
X116205000Y-108865000D03*
X116205000Y-105765000D03*
D10*
X153390000Y-114935000D03*
X156490000Y-114935000D03*
X163550000Y-114935000D03*
X166650000Y-114935000D03*
X155295000Y-103035000D03*
X158395000Y-103035000D03*
D17*
X116205000Y-100685000D03*
X116205000Y-103785000D03*
D13*
X173635000Y-120650000D03*
X170535000Y-120650000D03*
D10*
X132435000Y-106045000D03*
X135535000Y-106045000D03*
D15*
X103505000Y-105752500D03*
X103505000Y-108877500D03*
D18*
X131870000Y-125730000D03*
X137370000Y-125730000D03*
D10*
X155295000Y-106045000D03*
X158395000Y-106045000D03*
X188950000Y-114935000D03*
X192050000Y-114935000D03*
D14*
X118735000Y-97657500D03*
X118735000Y-99732500D03*
D19*
X191770000Y-122322500D03*
X191770000Y-120247500D03*
D17*
X171450000Y-112115000D03*
X171450000Y-115215000D03*
D15*
X184150000Y-103847500D03*
X184150000Y-106972500D03*
D18*
X191645000Y-125565000D03*
X186145000Y-125565000D03*
D15*
X106680000Y-105752500D03*
X106680000Y-108877500D03*
D20*
X125095000Y-102870000D03*
X128220000Y-102870000D03*
D13*
X143155000Y-103505000D03*
X140055000Y-103505000D03*
D10*
X104495000Y-102870000D03*
X107595000Y-102870000D03*
D13*
X143155000Y-106045000D03*
X140055000Y-106045000D03*
D18*
X110065000Y-113665000D03*
X104565000Y-113665000D03*
D21*
X172487500Y-118110000D03*
X170412500Y-118110000D03*
D10*
X150215000Y-106045000D03*
X153315000Y-106045000D03*
D15*
X187325000Y-100037500D03*
X187325000Y-103162500D03*
D19*
X175260000Y-125497500D03*
X175260000Y-123422500D03*
D18*
X110065000Y-99695000D03*
X104565000Y-99695000D03*
M02*
