M48
; DRILL file {KiCad (6.0.10)} date Sat Apr  8 13:13:08 2023
; FORMAT={-:-/ absolute / inch / decimal}
; #@! TF.CreationDate,2023-04-08T13:13:08+03:00
; #@! TF.GenerationSoftware,Kicad,Pcbnew,(6.0.10)
; #@! TF.FileFunction,Plated,1,2,PTH
FMAT,2
INCH
; #@! TA.AperFunction,Plated,PTH,ViaDrill
T1C0.0157
; #@! TA.AperFunction,Plated,PTH,ComponentDrill
T2C0.0295
; #@! TA.AperFunction,Plated,PTH,ComponentDrill
T3C0.0315
; #@! TA.AperFunction,Plated,PTH,ComponentDrill
T4C0.0394
; #@! TA.AperFunction,Plated,PTH,ComponentDrill
T5C0.0512
; #@! TA.AperFunction,Plated,PTH,ComponentDrill
T6C0.0551
%
G90
G05
T1
X4.6257Y-4.0006
X5.25Y-3.925
X5.475Y-5.025
X6.65Y-4.7
X6.675Y-4.975
X6.825Y-3.9
X6.825Y-4.3
X6.85Y-5.025
X6.9Y-4.725
X6.95Y-5.025
X7.1224Y-3.7974
X7.125Y-4.75
X7.2Y-4.45
X7.2571Y-4.875
X7.4Y-4.425
X7.5Y-4.875
X7.6Y-4.4
T2
X6.05Y-4.3358
X6.1Y-4.3858
X6.15Y-4.3358
X6.5Y-4.3358
X6.55Y-4.3858
X6.6Y-4.3358
X7.0892Y-4.825
X7.0892Y-4.875
X7.0892Y-4.925
T3
X4.35Y-4.0258
X4.35Y-4.1242
X4.35Y-4.2758
X4.35Y-4.3742
X4.4754Y-3.8748
X4.4754Y-3.9748
X4.4754Y-4.0748
X4.4754Y-4.1748
X4.4754Y-4.2748
X4.4754Y-4.3748
X4.4754Y-4.4748
X4.7754Y-3.8748
X4.7754Y-3.9748
X4.7754Y-4.0748
X4.7754Y-4.1748
X4.7754Y-4.2748
X4.7754Y-4.3748
X4.7754Y-4.4748
X5.1254Y-4.0754
X5.1254Y-4.1754
X5.1254Y-4.2754
X5.1254Y-4.3754
X5.4254Y-4.0754
X5.4254Y-4.1754
X5.4254Y-4.2754
X5.4254Y-4.3754
X5.7758Y-4.025
X5.7758Y-4.325
X5.7758Y-4.6
X5.8742Y-4.025
X5.8742Y-4.325
X5.8742Y-4.6
X6.325Y-4.3016
X6.325Y-4.4
T4
X3.95Y-4.0748
X3.95Y-4.1748
X4.975Y-4.1752
X4.975Y-4.2752
X4.975Y-4.475
X4.975Y-4.6506
X4.975Y-4.7506
X4.975Y-4.8506
X5.175Y-4.65
X5.175Y-4.75
X5.175Y-4.85
X5.425Y-4.6506
X5.425Y-4.7506
X5.425Y-4.8506
X6.275Y-3.9
X6.375Y-3.9
X6.375Y-4.075
X7.075Y-4.4494
X7.075Y-4.5494
X7.075Y-4.6494
X7.125Y-3.975
X7.125Y-4.075
X7.125Y-4.175
X7.5Y-3.9756
X7.5Y-4.0756
X7.5Y-4.1756
T5
X4.225Y-4.65
X4.225Y-4.8469
X4.675Y-4.6516
X4.675Y-4.8484
T6
X5.6Y-4.9
X6.025Y-4.725
X6.1Y-4.9
X6.275Y-4.9
X6.525Y-4.725
X6.775Y-4.9
T0
M30
