%TF.GenerationSoftware,KiCad,Pcbnew,(6.0.10)*%
%TF.CreationDate,2023-04-08T13:13:14+03:00*%
%TF.ProjectId,DelSol_Voice,44656c53-6f6c-45f5-966f-6963652e6b69,rev?*%
%TF.SameCoordinates,Original*%
%TF.FileFunction,Soldermask,Top*%
%TF.FilePolarity,Negative*%
%FSLAX46Y46*%
G04 Gerber Fmt 4.6, Leading zero omitted, Abs format (unit mm)*
G04 Created by KiCad (PCBNEW (6.0.10)) date 2023-04-08 13:13:14*
%MOMM*%
%LPD*%
G01*
G04 APERTURE LIST*
G04 Aperture macros list*
%AMRoundRect*
0 Rectangle with rounded corners*
0 $1 Rounding radius*
0 $2 $3 $4 $5 $6 $7 $8 $9 X,Y pos of 4 corners*
0 Add a 4 corners polygon primitive as box body*
4,1,4,$2,$3,$4,$5,$6,$7,$8,$9,$2,$3,0*
0 Add four circle primitives for the rounded corners*
1,1,$1+$1,$2,$3*
1,1,$1+$1,$4,$5*
1,1,$1+$1,$6,$7*
1,1,$1+$1,$8,$9*
0 Add four rect primitives between the rounded corners*
20,1,$1+$1,$2,$3,$4,$5,0*
20,1,$1+$1,$4,$5,$6,$7,0*
20,1,$1+$1,$6,$7,$8,$9,0*
20,1,$1+$1,$8,$9,$2,$3,0*%
G04 Aperture macros list end*
%ADD10C,1.600000*%
%ADD11C,3.200000*%
%ADD12R,1.700000X1.700000*%
%ADD13O,1.700000X1.700000*%
%ADD14R,1.300000X1.300000*%
%ADD15C,1.300000*%
%ADD16RoundRect,0.250000X1.412500X0.550000X-1.412500X0.550000X-1.412500X-0.550000X1.412500X-0.550000X0*%
%ADD17R,2.800000X2.800000*%
%ADD18O,2.800000X2.800000*%
%ADD19RoundRect,0.250000X-1.412500X-0.550000X1.412500X-0.550000X1.412500X0.550000X-1.412500X0.550000X0*%
%ADD20C,2.600000*%
%ADD21RoundRect,0.250000X-0.550000X1.412500X-0.550000X-1.412500X0.550000X-1.412500X0.550000X1.412500X0*%
%ADD22R,1.600000X1.600000*%
%ADD23O,1.600000X1.600000*%
%ADD24R,1.500000X1.050000*%
%ADD25O,1.500000X1.050000*%
G04 APERTURE END LIST*
D10*
X160655000Y-111760000D03*
X160655000Y-109260000D03*
X146705000Y-102235000D03*
X149205000Y-102235000D03*
D11*
X198120000Y-124460000D03*
D12*
X131445000Y-118110000D03*
D13*
X131445000Y-120650000D03*
X131445000Y-123190000D03*
D14*
X167640000Y-110130000D03*
D15*
X166370000Y-111400000D03*
X165100000Y-110130000D03*
D14*
X156210000Y-110130000D03*
D15*
X154940000Y-111400000D03*
X153670000Y-110130000D03*
D10*
X110490000Y-111105000D03*
X110490000Y-108605000D03*
D11*
X95250000Y-124460000D03*
X198120000Y-99695000D03*
D12*
X100330000Y-103500000D03*
D13*
X100330000Y-106040000D03*
D16*
X193037500Y-113665000D03*
X187962500Y-113665000D03*
D10*
X146705000Y-116840000D03*
X149205000Y-116840000D03*
D17*
X154940000Y-124460000D03*
D18*
X142240000Y-124460000D03*
D19*
X170182500Y-118110000D03*
X175257500Y-118110000D03*
D20*
X118745000Y-118150000D03*
X118745000Y-123150000D03*
D21*
X173355000Y-101602500D03*
X173355000Y-106677500D03*
D12*
X137795000Y-118125000D03*
D13*
X137795000Y-120665000D03*
X137795000Y-123205000D03*
D21*
X188595000Y-120017500D03*
X188595000Y-125092500D03*
D12*
X126365000Y-113665000D03*
D11*
X95250000Y-99695000D03*
D22*
X130185000Y-103515000D03*
D23*
X130185000Y-106055000D03*
X130185000Y-108595000D03*
X130185000Y-111135000D03*
X137805000Y-111135000D03*
X137805000Y-108595000D03*
X137805000Y-106055000D03*
X137805000Y-103515000D03*
D22*
X113675000Y-98420000D03*
D23*
X113675000Y-100960000D03*
X113675000Y-103500000D03*
X113675000Y-106040000D03*
X113675000Y-108580000D03*
X113675000Y-111120000D03*
X113675000Y-113660000D03*
X121295000Y-113660000D03*
X121295000Y-111120000D03*
X121295000Y-108580000D03*
X121295000Y-106040000D03*
X121295000Y-103500000D03*
X121295000Y-100960000D03*
X121295000Y-98420000D03*
D12*
X161925000Y-99060000D03*
D13*
X159385000Y-99060000D03*
D17*
X165735000Y-120015000D03*
D18*
X153035000Y-120015000D03*
D12*
X190500000Y-100980000D03*
D13*
X190500000Y-103520000D03*
X190500000Y-106060000D03*
D20*
X107315000Y-118110000D03*
X107315000Y-123110000D03*
D12*
X161925000Y-103505000D03*
X126365000Y-108590000D03*
D13*
X126365000Y-106050000D03*
D12*
X179705000Y-118095000D03*
D13*
X179705000Y-115555000D03*
X179705000Y-113015000D03*
D17*
X172085000Y-124460000D03*
D18*
X159385000Y-124460000D03*
D12*
X126365000Y-118125000D03*
D13*
X126365000Y-120665000D03*
X126365000Y-123205000D03*
D12*
X180975000Y-100965000D03*
D13*
X180975000Y-103505000D03*
X180975000Y-106045000D03*
D10*
X146705000Y-109855000D03*
X149205000Y-109855000D03*
X110490000Y-104755000D03*
X110490000Y-102255000D03*
D24*
X180065000Y-125095000D03*
D25*
X180065000Y-123825000D03*
X180065000Y-122555000D03*
M02*
