M48
;DRILL file {KiCad 4.0.5} date 10/30/17 14:37:41
;FORMAT={-:-/ absolute / inch / decimal}
FMAT,2
INCH,TZ
T1C0.028
T2C0.030
T3C0.031
T4C0.032
T5C0.039
T6C0.060
%
G90
G05
M72
T1
X6.1Y-3.4
X7.85Y-3.5
X8.15Y-3.2
X8.25Y-2.9
X8.45Y-2.9
X8.5Y-3.5
X8.55Y-2.9
T2
X5.6457Y-2.7244
X5.6457Y-2.8228
X5.6457Y-3.1772
X5.6457Y-3.2756
X6.3543Y-2.7244
X6.3543Y-2.8228
X6.3543Y-3.1772
X6.3543Y-3.2756
X6.75Y-3.7
X6.85Y-2.35
X6.85Y-3.7
X6.95Y-2.35
X8.25Y-2.35
X8.25Y-3.7
X8.35Y-2.35
X8.35Y-3.7
T3
X8.55Y-2.45
X8.55Y-2.55
X8.55Y-2.65
X8.55Y-2.75
X8.85Y-2.45
X8.85Y-2.55
X8.85Y-2.65
X8.85Y-2.75
T4
X8.55Y-2.25
X8.55Y-3.8
X8.65Y-2.25
X8.65Y-3.8
X8.75Y-2.25
X8.75Y-3.8
T5
X8.95Y-3.55
X8.95Y-3.65
T6
X5.9Y-2.3
X5.9Y-2.5
X5.9Y-3.55
X5.9Y-3.75
T0
M30
