%TF.GenerationSoftware,KiCad,Pcbnew,4.0.7*%
%TF.CreationDate,2018-04-11T16:25:57+03:00*%
%TF.ProjectId,radar_01,72616461725F30312E6B696361645F70,rev?*%
%TF.FileFunction,Legend,Bot*%
%FSLAX46Y46*%
G04 Gerber Fmt 4.6, Leading zero omitted, Abs format (unit mm)*
G04 Created by KiCad (PCBNEW 4.0.7) date 04/11/18 16:25:57*
%MOMM*%
%LPD*%
G01*
G04 APERTURE LIST*
%ADD10C,0.100000*%
%ADD11C,0.150000*%
%ADD12C,0.120000*%
G04 APERTURE END LIST*
D10*
D11*
X152400000Y-54610000D02*
X227330000Y-54610000D01*
X227330000Y-99060000D02*
X152400000Y-99060000D01*
X152400000Y-99060000D02*
X152400000Y-54610000D01*
X229870000Y-99060000D02*
X227330000Y-99060000D01*
X229870000Y-54610000D02*
X229870000Y-99060000D01*
X227330000Y-54610000D02*
X229870000Y-54610000D01*
X173990000Y-76835000D02*
G75*
G03X173990000Y-76835000I-1270000J0D01*
G01*
X212090000Y-76835000D02*
G75*
G03X212090000Y-76835000I-1270000J0D01*
G01*
X156210000Y-96520000D02*
G75*
G03X156210000Y-96520000I-1270000J0D01*
G01*
X156210000Y-57150000D02*
G75*
G03X156210000Y-57150000I-1270000J0D01*
G01*
X228600000Y-96520000D02*
G75*
G03X228600000Y-96520000I-1270000J0D01*
G01*
X228600000Y-57150000D02*
G75*
G03X228600000Y-57150000I-1270000J0D01*
G01*
X160290000Y-85335000D02*
X162290000Y-85335000D01*
X162290000Y-87385000D02*
X160290000Y-87385000D01*
X205495000Y-84090000D02*
X205495000Y-86090000D01*
X203445000Y-86090000D02*
X203445000Y-84090000D01*
X160290000Y-67555000D02*
X162290000Y-67555000D01*
X162290000Y-69605000D02*
X160290000Y-69605000D01*
X222005000Y-65040000D02*
X222005000Y-67040000D01*
X219955000Y-67040000D02*
X219955000Y-65040000D01*
X203470000Y-95055000D02*
X205470000Y-95055000D01*
X205470000Y-92905000D02*
X203470000Y-92905000D01*
D12*
X160430000Y-89940000D02*
X169130000Y-89940000D01*
X169130000Y-89940000D02*
X169130000Y-92940000D01*
X169130000Y-92940000D02*
X160430000Y-92940000D01*
X225830000Y-85950000D02*
X225830000Y-77250000D01*
X225830000Y-77250000D02*
X228830000Y-77250000D01*
X228830000Y-77250000D02*
X228830000Y-85950000D01*
X198530000Y-55650000D02*
X207230000Y-55650000D01*
X207230000Y-55650000D02*
X207230000Y-58650000D01*
X207230000Y-58650000D02*
X198530000Y-58650000D01*
D11*
X161456666Y-86717143D02*
X161504285Y-86764762D01*
X161647142Y-86812381D01*
X161742380Y-86812381D01*
X161885238Y-86764762D01*
X161980476Y-86669524D01*
X162028095Y-86574286D01*
X162075714Y-86383810D01*
X162075714Y-86240952D01*
X162028095Y-86050476D01*
X161980476Y-85955238D01*
X161885238Y-85860000D01*
X161742380Y-85812381D01*
X161647142Y-85812381D01*
X161504285Y-85860000D01*
X161456666Y-85907619D01*
X161123333Y-85812381D02*
X160504285Y-85812381D01*
X160837619Y-86193333D01*
X160694761Y-86193333D01*
X160599523Y-86240952D01*
X160551904Y-86288571D01*
X160504285Y-86383810D01*
X160504285Y-86621905D01*
X160551904Y-86717143D01*
X160599523Y-86764762D01*
X160694761Y-86812381D01*
X160980476Y-86812381D01*
X161075714Y-86764762D01*
X161123333Y-86717143D01*
X204827143Y-84923334D02*
X204874762Y-84875715D01*
X204922381Y-84732858D01*
X204922381Y-84637620D01*
X204874762Y-84494762D01*
X204779524Y-84399524D01*
X204684286Y-84351905D01*
X204493810Y-84304286D01*
X204350952Y-84304286D01*
X204160476Y-84351905D01*
X204065238Y-84399524D01*
X203970000Y-84494762D01*
X203922381Y-84637620D01*
X203922381Y-84732858D01*
X203970000Y-84875715D01*
X204017619Y-84923334D01*
X203922381Y-85828096D02*
X203922381Y-85351905D01*
X204398571Y-85304286D01*
X204350952Y-85351905D01*
X204303333Y-85447143D01*
X204303333Y-85685239D01*
X204350952Y-85780477D01*
X204398571Y-85828096D01*
X204493810Y-85875715D01*
X204731905Y-85875715D01*
X204827143Y-85828096D01*
X204874762Y-85780477D01*
X204922381Y-85685239D01*
X204922381Y-85447143D01*
X204874762Y-85351905D01*
X204827143Y-85304286D01*
X161456666Y-68937143D02*
X161504285Y-68984762D01*
X161647142Y-69032381D01*
X161742380Y-69032381D01*
X161885238Y-68984762D01*
X161980476Y-68889524D01*
X162028095Y-68794286D01*
X162075714Y-68603810D01*
X162075714Y-68460952D01*
X162028095Y-68270476D01*
X161980476Y-68175238D01*
X161885238Y-68080000D01*
X161742380Y-68032381D01*
X161647142Y-68032381D01*
X161504285Y-68080000D01*
X161456666Y-68127619D01*
X161123333Y-68032381D02*
X160456666Y-68032381D01*
X160885238Y-69032381D01*
X221337143Y-65397143D02*
X221384762Y-65349524D01*
X221432381Y-65206667D01*
X221432381Y-65111429D01*
X221384762Y-64968571D01*
X221289524Y-64873333D01*
X221194286Y-64825714D01*
X221003810Y-64778095D01*
X220860952Y-64778095D01*
X220670476Y-64825714D01*
X220575238Y-64873333D01*
X220480000Y-64968571D01*
X220432381Y-65111429D01*
X220432381Y-65206667D01*
X220480000Y-65349524D01*
X220527619Y-65397143D01*
X221432381Y-66349524D02*
X221432381Y-65778095D01*
X221432381Y-66063809D02*
X220432381Y-66063809D01*
X220575238Y-65968571D01*
X220670476Y-65873333D01*
X220718095Y-65778095D01*
X220432381Y-67206667D02*
X220432381Y-67016190D01*
X220480000Y-66920952D01*
X220527619Y-66873333D01*
X220670476Y-66778095D01*
X220860952Y-66730476D01*
X221241905Y-66730476D01*
X221337143Y-66778095D01*
X221384762Y-66825714D01*
X221432381Y-66920952D01*
X221432381Y-67111429D01*
X221384762Y-67206667D01*
X221337143Y-67254286D01*
X221241905Y-67301905D01*
X221003810Y-67301905D01*
X220908571Y-67254286D01*
X220860952Y-67206667D01*
X220813333Y-67111429D01*
X220813333Y-66920952D01*
X220860952Y-66825714D01*
X220908571Y-66778095D01*
X221003810Y-66730476D01*
X204636666Y-94432381D02*
X204970000Y-93956190D01*
X205208095Y-94432381D02*
X205208095Y-93432381D01*
X204827142Y-93432381D01*
X204731904Y-93480000D01*
X204684285Y-93527619D01*
X204636666Y-93622857D01*
X204636666Y-93765714D01*
X204684285Y-93860952D01*
X204731904Y-93908571D01*
X204827142Y-93956190D01*
X205208095Y-93956190D01*
X203684285Y-94432381D02*
X204255714Y-94432381D01*
X203970000Y-94432381D02*
X203970000Y-93432381D01*
X204065238Y-93575238D01*
X204160476Y-93670476D01*
X204255714Y-93718095D01*
X164568095Y-91892381D02*
X164568095Y-90892381D01*
X164330000Y-90892381D01*
X164187142Y-90940000D01*
X164091904Y-91035238D01*
X164044285Y-91130476D01*
X163996666Y-91320952D01*
X163996666Y-91463810D01*
X164044285Y-91654286D01*
X164091904Y-91749524D01*
X164187142Y-91844762D01*
X164330000Y-91892381D01*
X164568095Y-91892381D01*
X163044285Y-91892381D02*
X163615714Y-91892381D01*
X163330000Y-91892381D02*
X163330000Y-90892381D01*
X163425238Y-91035238D01*
X163520476Y-91130476D01*
X163615714Y-91178095D01*
X227782381Y-81811905D02*
X226782381Y-81811905D01*
X226782381Y-82050000D01*
X226830000Y-82192858D01*
X226925238Y-82288096D01*
X227020476Y-82335715D01*
X227210952Y-82383334D01*
X227353810Y-82383334D01*
X227544286Y-82335715D01*
X227639524Y-82288096D01*
X227734762Y-82192858D01*
X227782381Y-82050000D01*
X227782381Y-81811905D01*
X226782381Y-82716667D02*
X226782381Y-83335715D01*
X227163333Y-83002381D01*
X227163333Y-83145239D01*
X227210952Y-83240477D01*
X227258571Y-83288096D01*
X227353810Y-83335715D01*
X227591905Y-83335715D01*
X227687143Y-83288096D01*
X227734762Y-83240477D01*
X227782381Y-83145239D01*
X227782381Y-82859524D01*
X227734762Y-82764286D01*
X227687143Y-82716667D01*
X202668095Y-57602381D02*
X202668095Y-56602381D01*
X202430000Y-56602381D01*
X202287142Y-56650000D01*
X202191904Y-56745238D01*
X202144285Y-56840476D01*
X202096666Y-57030952D01*
X202096666Y-57173810D01*
X202144285Y-57364286D01*
X202191904Y-57459524D01*
X202287142Y-57554762D01*
X202430000Y-57602381D01*
X202668095Y-57602381D01*
X201239523Y-56935714D02*
X201239523Y-57602381D01*
X201477619Y-56554762D02*
X201715714Y-57269048D01*
X201096666Y-57269048D01*
M02*
