M48
;DRILL file {KiCad 4.0.7} date 04/11/18 16:26:14
;FORMAT={-:-/ absolute / inch / decimal}
FMAT,2
INCH,TZ
T1C0.028
T2C0.030
T3C0.031
T4C0.032
T5C0.039
T6C0.060
%
G90
G05
M72
T1
X7.55Y-2.25
X7.85Y-3.5
X7.9Y-2.65
X8.Y-2.35
X8.15Y-3.2
X8.25Y-2.9
X8.45Y-2.9
X8.5Y-3.5
X8.55Y-2.9
T2
X6.0744Y-2.6957
X6.0744Y-3.4043
X6.1728Y-2.6957
X6.1728Y-3.4043
X6.5272Y-2.6957
X6.5272Y-3.4043
X6.6256Y-2.6957
X6.6256Y-3.4043
X6.75Y-3.7
X6.85Y-2.35
X6.85Y-3.7
X6.95Y-2.35
X8.25Y-2.35
X8.25Y-3.7
X8.35Y-2.35
X8.35Y-3.7
T3
X8.55Y-2.45
X8.55Y-2.55
X8.55Y-2.65
X8.55Y-2.75
X8.85Y-2.45
X8.85Y-2.55
X8.85Y-2.65
X8.85Y-2.75
T4
X8.55Y-2.25
X8.55Y-3.8
X8.65Y-2.25
X8.65Y-3.8
X8.75Y-2.25
X8.75Y-3.8
T5
X8.95Y-3.5
X8.95Y-3.6
T6
X6.3Y-2.3
X6.3Y-3.75
X6.5Y-2.3
X6.5Y-3.75
T0
M30
