%TF.GenerationSoftware,KiCad,Pcbnew,4.0.7*%
%TF.CreationDate,2018-04-11T16:25:57+03:00*%
%TF.ProjectId,radar_01,72616461725F30312E6B696361645F70,rev?*%
%TF.FileFunction,Legend,Top*%
%FSLAX46Y46*%
G04 Gerber Fmt 4.6, Leading zero omitted, Abs format (unit mm)*
G04 Created by KiCad (PCBNEW 4.0.7) date 04/11/18 16:25:57*
%MOMM*%
%LPD*%
G01*
G04 APERTURE LIST*
%ADD10C,0.100000*%
%ADD11C,0.150000*%
%ADD12C,0.300000*%
%ADD13C,0.120000*%
G04 APERTURE END LIST*
D10*
D11*
X152400000Y-54610000D02*
X227330000Y-54610000D01*
X227330000Y-99060000D02*
X152400000Y-99060000D01*
X152400000Y-99060000D02*
X152400000Y-54610000D01*
D12*
X162457143Y-73063571D02*
X162457143Y-71563571D01*
X162814286Y-71563571D01*
X163028571Y-71635000D01*
X163171429Y-71777857D01*
X163242857Y-71920714D01*
X163314286Y-72206429D01*
X163314286Y-72420714D01*
X163242857Y-72706429D01*
X163171429Y-72849286D01*
X163028571Y-72992143D01*
X162814286Y-73063571D01*
X162457143Y-73063571D01*
X164814286Y-72920714D02*
X164742857Y-72992143D01*
X164528571Y-73063571D01*
X164385714Y-73063571D01*
X164171429Y-72992143D01*
X164028571Y-72849286D01*
X163957143Y-72706429D01*
X163885714Y-72420714D01*
X163885714Y-72206429D01*
X163957143Y-71920714D01*
X164028571Y-71777857D01*
X164171429Y-71635000D01*
X164385714Y-71563571D01*
X164528571Y-71563571D01*
X164742857Y-71635000D01*
X164814286Y-71706429D01*
X165457143Y-73063571D02*
X165457143Y-71563571D01*
X165814286Y-71563571D01*
X166028571Y-71635000D01*
X166171429Y-71777857D01*
X166242857Y-71920714D01*
X166314286Y-72206429D01*
X166314286Y-72420714D01*
X166242857Y-72706429D01*
X166171429Y-72849286D01*
X166028571Y-72992143D01*
X165814286Y-73063571D01*
X165457143Y-73063571D01*
X167814286Y-72920714D02*
X167742857Y-72992143D01*
X167528571Y-73063571D01*
X167385714Y-73063571D01*
X167171429Y-72992143D01*
X167028571Y-72849286D01*
X166957143Y-72706429D01*
X166885714Y-72420714D01*
X166885714Y-72206429D01*
X166957143Y-71920714D01*
X167028571Y-71777857D01*
X167171429Y-71635000D01*
X167385714Y-71563571D01*
X167528571Y-71563571D01*
X167742857Y-71635000D01*
X167814286Y-71706429D01*
X163814286Y-75042143D02*
X164957143Y-75042143D01*
X164385714Y-75613571D02*
X164385714Y-74470714D01*
X166385715Y-74113571D02*
X165671429Y-74113571D01*
X165600000Y-74827857D01*
X165671429Y-74756429D01*
X165814286Y-74685000D01*
X166171429Y-74685000D01*
X166314286Y-74756429D01*
X166385715Y-74827857D01*
X166457143Y-74970714D01*
X166457143Y-75327857D01*
X166385715Y-75470714D01*
X166314286Y-75542143D01*
X166171429Y-75613571D01*
X165814286Y-75613571D01*
X165671429Y-75542143D01*
X165600000Y-75470714D01*
X208391429Y-98040000D02*
X209105715Y-98040000D01*
X208248572Y-98468571D02*
X208748572Y-96968571D01*
X209248572Y-98468571D01*
X209748572Y-98468571D02*
X209748572Y-97468571D01*
X209748572Y-97611429D02*
X209820000Y-97540000D01*
X209962858Y-97468571D01*
X210177143Y-97468571D01*
X210320000Y-97540000D01*
X210391429Y-97682857D01*
X210391429Y-98468571D01*
X210391429Y-97682857D02*
X210462858Y-97540000D01*
X210605715Y-97468571D01*
X210820000Y-97468571D01*
X210962858Y-97540000D01*
X211034286Y-97682857D01*
X211034286Y-98468571D01*
X211748572Y-97468571D02*
X211748572Y-98968571D01*
X211748572Y-97540000D02*
X211891429Y-97468571D01*
X212177143Y-97468571D01*
X212320000Y-97540000D01*
X212391429Y-97611429D01*
X212462858Y-97754286D01*
X212462858Y-98182857D01*
X212391429Y-98325714D01*
X212320000Y-98397143D01*
X212177143Y-98468571D01*
X211891429Y-98468571D01*
X211748572Y-98397143D01*
X213320001Y-98468571D02*
X213177143Y-98397143D01*
X213105715Y-98254286D01*
X213105715Y-96968571D01*
X209034287Y-56558571D02*
X208320001Y-56558571D01*
X208320001Y-55058571D01*
X210105715Y-56487143D02*
X209962858Y-56558571D01*
X209677144Y-56558571D01*
X209534287Y-56487143D01*
X209462858Y-56344286D01*
X209462858Y-55772857D01*
X209534287Y-55630000D01*
X209677144Y-55558571D01*
X209962858Y-55558571D01*
X210105715Y-55630000D01*
X210177144Y-55772857D01*
X210177144Y-55915714D01*
X209462858Y-56058571D01*
X210677144Y-55558571D02*
X211034287Y-56558571D01*
X211391429Y-55558571D01*
X212534286Y-56487143D02*
X212391429Y-56558571D01*
X212105715Y-56558571D01*
X211962858Y-56487143D01*
X211891429Y-56344286D01*
X211891429Y-55772857D01*
X211962858Y-55630000D01*
X212105715Y-55558571D01*
X212391429Y-55558571D01*
X212534286Y-55630000D01*
X212605715Y-55772857D01*
X212605715Y-55915714D01*
X211891429Y-56058571D01*
X213462858Y-56558571D02*
X213320000Y-56487143D01*
X213248572Y-56344286D01*
X213248572Y-55058571D01*
X168180001Y-97897143D02*
X169322858Y-97897143D01*
X168751429Y-98468571D02*
X168751429Y-97325714D01*
X169965715Y-97111429D02*
X170037144Y-97040000D01*
X170180001Y-96968571D01*
X170537144Y-96968571D01*
X170680001Y-97040000D01*
X170751430Y-97111429D01*
X170822858Y-97254286D01*
X170822858Y-97397143D01*
X170751430Y-97611429D01*
X169894287Y-98468571D01*
X170822858Y-98468571D01*
X172108572Y-97468571D02*
X172108572Y-98468571D01*
X171751429Y-96897143D02*
X171394286Y-97968571D01*
X172322858Y-97968571D01*
X168930000Y-55058571D02*
X169215714Y-55058571D01*
X169358572Y-55130000D01*
X169501429Y-55272857D01*
X169572857Y-55558571D01*
X169572857Y-56058571D01*
X169501429Y-56344286D01*
X169358572Y-56487143D01*
X169215714Y-56558571D01*
X168930000Y-56558571D01*
X168787143Y-56487143D01*
X168644286Y-56344286D01*
X168572857Y-56058571D01*
X168572857Y-55558571D01*
X168644286Y-55272857D01*
X168787143Y-55130000D01*
X168930000Y-55058571D01*
X170858572Y-55558571D02*
X170858572Y-56558571D01*
X170215715Y-55558571D02*
X170215715Y-56344286D01*
X170287143Y-56487143D01*
X170430001Y-56558571D01*
X170644286Y-56558571D01*
X170787143Y-56487143D01*
X170858572Y-56415714D01*
X171358572Y-55558571D02*
X171930001Y-55558571D01*
X171572858Y-55058571D02*
X171572858Y-56344286D01*
X171644286Y-56487143D01*
X171787144Y-56558571D01*
X171930001Y-56558571D01*
D11*
X229870000Y-99060000D02*
X227330000Y-99060000D01*
X229870000Y-54610000D02*
X229870000Y-99060000D01*
X227330000Y-54610000D02*
X229870000Y-54610000D01*
X173990000Y-76835000D02*
G75*
G03X173990000Y-76835000I-1270000J0D01*
G01*
X212090000Y-76835000D02*
G75*
G03X212090000Y-76835000I-1270000J0D01*
G01*
X156210000Y-96520000D02*
G75*
G03X156210000Y-96520000I-1270000J0D01*
G01*
X156210000Y-57150000D02*
G75*
G03X156210000Y-57150000I-1270000J0D01*
G01*
X228600000Y-96520000D02*
G75*
G03X228600000Y-96520000I-1270000J0D01*
G01*
X228600000Y-57150000D02*
G75*
G03X228600000Y-57150000I-1270000J0D01*
G01*
X229675000Y-71390000D02*
X229675000Y-73390000D01*
X227525000Y-73390000D02*
X227525000Y-71390000D01*
X168910000Y-95250000D02*
X168910000Y-58420000D01*
X213360000Y-96520000D02*
X170180000Y-96520000D01*
X214630000Y-58420000D02*
X214630000Y-95250000D01*
X170180000Y-57150000D02*
X213360000Y-57150000D01*
X170180000Y-96520000D02*
G75*
G03X168910000Y-95250000I-1270000J0D01*
G01*
X213360000Y-57150000D02*
G75*
G03X214630000Y-58420000I1270000J0D01*
G01*
X214630000Y-95250000D02*
G75*
G03X213360000Y-96520000I0J-1270000D01*
G01*
X168910000Y-58420000D02*
G75*
G03X170180000Y-57150000I0J1270000D01*
G01*
X212090000Y-76835000D02*
G75*
G03X212090000Y-76835000I-1270000J0D01*
G01*
X173990000Y-76835000D02*
G75*
G03X173990000Y-76835000I-1270000J0D01*
G01*
D13*
X191615262Y-67603022D02*
G75*
G03X191617600Y-61937900I-1115262J2833022D01*
G01*
X189384738Y-61936978D02*
G75*
G03X189382400Y-67602100I1115262J-2833022D01*
G01*
X193040000Y-68072000D02*
X191617600Y-68072000D01*
X193802000Y-61468000D02*
X191617600Y-61468000D01*
X187198000Y-61468000D02*
X189382400Y-61468000D01*
X187960000Y-68072000D02*
X189382400Y-68072000D01*
X193802000Y-61468000D02*
X193802000Y-67310000D01*
X193802000Y-67310000D02*
X193040000Y-68072000D01*
X187960000Y-68072000D02*
X187198000Y-67310000D01*
X187198000Y-67310000D02*
X187198000Y-61468000D01*
D11*
X195335000Y-86090000D02*
X195335000Y-84090000D01*
X193285000Y-84090000D02*
X193285000Y-86090000D01*
X195335000Y-77200000D02*
X195335000Y-75200000D01*
X193285000Y-75200000D02*
X193285000Y-77200000D01*
X214385000Y-86090000D02*
X214385000Y-84090000D01*
X212335000Y-84090000D02*
X212335000Y-86090000D01*
D13*
X160695000Y-63920000D02*
X160695000Y-65620000D01*
X160745000Y-65620000D02*
X164795000Y-65620000D01*
X160745000Y-63920000D02*
X164795000Y-63920000D01*
D11*
X226016000Y-88701000D02*
X226216000Y-88701000D01*
X228610000Y-88701000D02*
X228430000Y-88701000D01*
X228299643Y-91928744D02*
G75*
G03X228616000Y-88701000I-1003643J1727744D01*
G01*
X228429068Y-91253006D02*
G75*
G03X228430000Y-89150000I-1133068J1052006D01*
G01*
X225989274Y-88713780D02*
G75*
G03X226336000Y-91951000I1306726J-1497220D01*
G01*
X226216747Y-89187111D02*
G75*
G03X226236000Y-91235000I1079253J-1013889D01*
G01*
X195775000Y-86090000D02*
X195775000Y-84090000D01*
X197925000Y-84090000D02*
X197925000Y-86090000D01*
X190695000Y-86090000D02*
X190695000Y-84090000D01*
X192845000Y-84090000D02*
X192845000Y-86090000D01*
X191575000Y-75200000D02*
X191575000Y-77200000D01*
X189425000Y-77200000D02*
X189425000Y-75200000D01*
X203470000Y-89095000D02*
X205470000Y-89095000D01*
X205470000Y-91245000D02*
X203470000Y-91245000D01*
X157845000Y-65845000D02*
X155845000Y-65845000D01*
X155845000Y-63695000D02*
X157845000Y-63695000D01*
X195775000Y-77200000D02*
X195775000Y-75200000D01*
X197925000Y-75200000D02*
X197925000Y-77200000D01*
X209745000Y-86090000D02*
X209745000Y-84090000D01*
X211895000Y-84090000D02*
X211895000Y-86090000D01*
X213090000Y-68385000D02*
X211090000Y-68385000D01*
X211090000Y-66235000D02*
X213090000Y-66235000D01*
X203470000Y-72585000D02*
X205470000Y-72585000D01*
X205470000Y-74735000D02*
X203470000Y-74735000D01*
X211090000Y-63695000D02*
X213090000Y-63695000D01*
X213090000Y-65845000D02*
X211090000Y-65845000D01*
X227525000Y-65770000D02*
X227525000Y-63770000D01*
X229675000Y-63770000D02*
X229675000Y-65770000D01*
X219440000Y-79815000D02*
X217440000Y-79815000D01*
X217440000Y-77665000D02*
X219440000Y-77665000D01*
D13*
X195730246Y-90895227D02*
G75*
G03X195732400Y-94526100I1119754J-1814773D01*
G01*
X197967600Y-94526100D02*
G75*
G03X197967600Y-90893900I-1117600J1816100D01*
G01*
X198374000Y-90424000D02*
X197967600Y-90424000D01*
X199136000Y-94996000D02*
X197967600Y-94996000D01*
X194564000Y-94996000D02*
X195732400Y-94996000D01*
X195326000Y-90424000D02*
X195732400Y-90424000D01*
X194564000Y-91186000D02*
X194564000Y-94996000D01*
X194564000Y-91186000D02*
X195326000Y-90424000D01*
X199136000Y-91186000D02*
X199136000Y-94996000D01*
X199136000Y-91186000D02*
X198374000Y-90424000D01*
X177954394Y-86067114D02*
G75*
G03X177952400Y-91732100I1115606J-2832886D01*
G01*
X180187600Y-91732100D02*
G75*
G03X180187600Y-86067900I-1117600J2832100D01*
G01*
X175768000Y-92202000D02*
X177952400Y-92202000D01*
X182372000Y-92202000D02*
X180187600Y-92202000D01*
X176530000Y-85598000D02*
X177952400Y-85598000D01*
X181610000Y-85598000D02*
X180187600Y-85598000D01*
X175768000Y-92202000D02*
X175768000Y-86360000D01*
X175768000Y-86360000D02*
X176530000Y-85598000D01*
X181610000Y-85598000D02*
X182372000Y-86360000D01*
X182372000Y-86360000D02*
X182372000Y-92202000D01*
X185570246Y-83275227D02*
G75*
G03X185572400Y-86906100I1119754J-1814773D01*
G01*
X187807600Y-86906100D02*
G75*
G03X187807600Y-83273900I-1117600J1816100D01*
G01*
X188214000Y-82804000D02*
X187807600Y-82804000D01*
X188976000Y-87376000D02*
X187807600Y-87376000D01*
X184404000Y-87376000D02*
X185572400Y-87376000D01*
X185166000Y-82804000D02*
X185572400Y-82804000D01*
X184404000Y-83566000D02*
X184404000Y-87376000D01*
X184404000Y-83566000D02*
X185166000Y-82804000D01*
X188976000Y-83566000D02*
X188976000Y-87376000D01*
X188976000Y-83566000D02*
X188214000Y-82804000D01*
X187809754Y-78014773D02*
G75*
G03X187807600Y-74383900I-1119754J1814773D01*
G01*
X185572400Y-74383900D02*
G75*
G03X185572400Y-78016100I1117600J-1816100D01*
G01*
X185166000Y-78486000D02*
X185572400Y-78486000D01*
X184404000Y-73914000D02*
X185572400Y-73914000D01*
X188976000Y-73914000D02*
X187807600Y-73914000D01*
X188214000Y-78486000D02*
X187807600Y-78486000D01*
X188976000Y-77724000D02*
X188976000Y-73914000D01*
X188976000Y-77724000D02*
X188214000Y-78486000D01*
X184404000Y-77724000D02*
X184404000Y-73914000D01*
X184404000Y-77724000D02*
X185166000Y-78486000D01*
X206284773Y-63650246D02*
G75*
G03X202653900Y-63652400I-1814773J-1119754D01*
G01*
X202653900Y-65887600D02*
G75*
G03X206286100Y-65887600I1816100J1117600D01*
G01*
X206756000Y-66294000D02*
X206756000Y-65887600D01*
X202184000Y-67056000D02*
X202184000Y-65887600D01*
X202184000Y-62484000D02*
X202184000Y-63652400D01*
X206756000Y-63246000D02*
X206756000Y-63652400D01*
X205994000Y-62484000D02*
X202184000Y-62484000D01*
X205994000Y-62484000D02*
X206756000Y-63246000D01*
X205994000Y-67056000D02*
X202184000Y-67056000D01*
X205994000Y-67056000D02*
X206756000Y-66294000D01*
X206284773Y-76350246D02*
G75*
G03X202653900Y-76352400I-1814773J-1119754D01*
G01*
X202653900Y-78587600D02*
G75*
G03X206286100Y-78587600I1816100J1117600D01*
G01*
X206756000Y-78994000D02*
X206756000Y-78587600D01*
X202184000Y-79756000D02*
X202184000Y-78587600D01*
X202184000Y-75184000D02*
X202184000Y-76352400D01*
X206756000Y-75946000D02*
X206756000Y-76352400D01*
X205994000Y-75184000D02*
X202184000Y-75184000D01*
X205994000Y-75184000D02*
X206756000Y-75946000D01*
X205994000Y-79756000D02*
X202184000Y-79756000D01*
X205994000Y-79756000D02*
X206756000Y-78994000D01*
X223812886Y-85244394D02*
G75*
G03X218147900Y-85242400I-2832886J-1115606D01*
G01*
X218147900Y-87477600D02*
G75*
G03X223812100Y-87477600I2832100J1117600D01*
G01*
X217678000Y-83058000D02*
X217678000Y-85242400D01*
X217678000Y-89662000D02*
X217678000Y-87477600D01*
X224282000Y-83820000D02*
X224282000Y-85242400D01*
X224282000Y-88900000D02*
X224282000Y-87477600D01*
X217678000Y-83058000D02*
X223520000Y-83058000D01*
X223520000Y-83058000D02*
X224282000Y-83820000D01*
X224282000Y-88900000D02*
X223520000Y-89662000D01*
X223520000Y-89662000D02*
X217678000Y-89662000D01*
X167640000Y-97790000D02*
X157480000Y-97790000D01*
X167640000Y-99060000D02*
X167640000Y-91440000D01*
X167640000Y-91440000D02*
X157480000Y-91440000D01*
X157480000Y-91440000D02*
X157480000Y-99060000D01*
X157480000Y-99060000D02*
X167640000Y-99060000D01*
X157480000Y-55880000D02*
X167640000Y-55880000D01*
X157480000Y-54610000D02*
X157480000Y-62230000D01*
X157480000Y-62230000D02*
X167640000Y-62230000D01*
X167640000Y-62230000D02*
X167640000Y-54610000D01*
X167640000Y-54610000D02*
X157480000Y-54610000D01*
D11*
X216154000Y-94488000D02*
X216154000Y-95758000D01*
X216941400Y-95237300D02*
X216903300Y-94983300D01*
X216903300Y-94983300D02*
X216725500Y-94703900D01*
X216725500Y-94703900D02*
X216408000Y-94488000D01*
X216408000Y-94488000D02*
X215963500Y-94475300D01*
X215963500Y-94475300D02*
X215607900Y-94678500D01*
X215607900Y-94678500D02*
X215430100Y-94970600D01*
X215430100Y-94970600D02*
X215379300Y-95288100D01*
X215379300Y-95288100D02*
X215480900Y-95694500D01*
X215480900Y-95694500D02*
X215823800Y-95948500D01*
X215823800Y-95948500D02*
X216001600Y-96037400D01*
X224536000Y-98298000D02*
X214884000Y-98298000D01*
X214884000Y-95250000D02*
X214884000Y-93980000D01*
X214884000Y-93980000D02*
X224536000Y-93980000D01*
X224536000Y-93980000D02*
X224536000Y-99060000D01*
X214884000Y-99060000D02*
X214884000Y-96520000D01*
X214884000Y-96520000D02*
X214884000Y-95250000D01*
X216154000Y-55118000D02*
X216154000Y-56388000D01*
X216941400Y-55867300D02*
X216903300Y-55613300D01*
X216903300Y-55613300D02*
X216725500Y-55333900D01*
X216725500Y-55333900D02*
X216408000Y-55118000D01*
X216408000Y-55118000D02*
X215963500Y-55105300D01*
X215963500Y-55105300D02*
X215607900Y-55308500D01*
X215607900Y-55308500D02*
X215430100Y-55600600D01*
X215430100Y-55600600D02*
X215379300Y-55918100D01*
X215379300Y-55918100D02*
X215480900Y-56324500D01*
X215480900Y-56324500D02*
X215823800Y-56578500D01*
X215823800Y-56578500D02*
X216001600Y-56667400D01*
X224536000Y-58928000D02*
X214884000Y-58928000D01*
X214884000Y-55880000D02*
X214884000Y-54610000D01*
X214884000Y-54610000D02*
X224536000Y-54610000D01*
X224536000Y-54610000D02*
X224536000Y-59690000D01*
X214884000Y-59690000D02*
X214884000Y-57150000D01*
X214884000Y-57150000D02*
X214884000Y-55880000D01*
D13*
X194820000Y-62990000D02*
X197000000Y-62990000D01*
X201420000Y-62990000D02*
X199240000Y-62990000D01*
X195580000Y-56390000D02*
X197000000Y-56390000D01*
X200660000Y-56390000D02*
X199240000Y-56390000D01*
X194820000Y-62990000D02*
X194820000Y-57150000D01*
X194820000Y-57150000D02*
X195580000Y-56390000D01*
X200660000Y-56390000D02*
X201420000Y-57150000D01*
X201420000Y-57150000D02*
X201420000Y-62990000D01*
D11*
X152790000Y-66970000D02*
X169790000Y-66970000D01*
X169790000Y-66970000D02*
X169790000Y-87970000D01*
X169790000Y-87970000D02*
X152790000Y-87970000D01*
X152790000Y-87970000D02*
X152790000Y-66970000D01*
X206756000Y-82550000D02*
X206756000Y-87630000D01*
X206756000Y-87630000D02*
X202184000Y-87630000D01*
X202184000Y-87630000D02*
X202184000Y-82550000D01*
X202184000Y-82550000D02*
X206756000Y-82550000D01*
X205232000Y-82550000D02*
X205232000Y-83058000D01*
X205232000Y-83058000D02*
X203962000Y-83058000D01*
X203962000Y-83058000D02*
X203962000Y-82550000D01*
D13*
X221980000Y-60900000D02*
G75*
G02X219980000Y-60900000I-1000000J0D01*
G01*
X219980000Y-60900000D02*
X218330000Y-60900000D01*
X218330000Y-60900000D02*
X218330000Y-71180000D01*
X218330000Y-71180000D02*
X223630000Y-71180000D01*
X223630000Y-71180000D02*
X223630000Y-60900000D01*
X223630000Y-60900000D02*
X221980000Y-60900000D01*
X215840000Y-60840000D02*
X215840000Y-71240000D01*
X215840000Y-71240000D02*
X226120000Y-71240000D01*
X226120000Y-71240000D02*
X226120000Y-60840000D01*
X226120000Y-60840000D02*
X215840000Y-60840000D01*
X223020000Y-74510000D02*
X224020000Y-74510000D01*
X224020000Y-72810000D02*
X223020000Y-72810000D01*
X212590000Y-89320000D02*
X211590000Y-89320000D01*
X211590000Y-91020000D02*
X212590000Y-91020000D01*
D11*
X227147381Y-73667857D02*
X226671190Y-74001191D01*
X227147381Y-74239286D02*
X226147381Y-74239286D01*
X226147381Y-73858333D01*
X226195000Y-73763095D01*
X226242619Y-73715476D01*
X226337857Y-73667857D01*
X226480714Y-73667857D01*
X226575952Y-73715476D01*
X226623571Y-73763095D01*
X226671190Y-73858333D01*
X226671190Y-74239286D01*
X227147381Y-72715476D02*
X227147381Y-73286905D01*
X227147381Y-73001191D02*
X226147381Y-73001191D01*
X226290238Y-73096429D01*
X226385476Y-73191667D01*
X226433095Y-73286905D01*
X226242619Y-72334524D02*
X226195000Y-72286905D01*
X226147381Y-72191667D01*
X226147381Y-71953571D01*
X226195000Y-71858333D01*
X226242619Y-71810714D01*
X226337857Y-71763095D01*
X226433095Y-71763095D01*
X226575952Y-71810714D01*
X227147381Y-72382143D01*
X227147381Y-71763095D01*
X171450095Y-91400381D02*
X171450095Y-92209905D01*
X171497714Y-92305143D01*
X171545333Y-92352762D01*
X171640571Y-92400381D01*
X171831048Y-92400381D01*
X171926286Y-92352762D01*
X171973905Y-92305143D01*
X172021524Y-92209905D01*
X172021524Y-91400381D01*
X172450095Y-91495619D02*
X172497714Y-91448000D01*
X172592952Y-91400381D01*
X172831048Y-91400381D01*
X172926286Y-91448000D01*
X172973905Y-91495619D01*
X173021524Y-91590857D01*
X173021524Y-91686095D01*
X172973905Y-91828952D01*
X172402476Y-92400381D01*
X173021524Y-92400381D01*
X209986666Y-95464381D02*
X210177143Y-95464381D01*
X210272381Y-95512000D01*
X210367619Y-95607238D01*
X210415238Y-95797714D01*
X210415238Y-96131048D01*
X210367619Y-96321524D01*
X210272381Y-96416762D01*
X210177143Y-96464381D01*
X209986666Y-96464381D01*
X209891428Y-96416762D01*
X209796190Y-96321524D01*
X209748571Y-96131048D01*
X209748571Y-95797714D01*
X209796190Y-95607238D01*
X209891428Y-95512000D01*
X209986666Y-95464381D01*
X211272381Y-95797714D02*
X211272381Y-96464381D01*
X210843809Y-95797714D02*
X210843809Y-96321524D01*
X210891428Y-96416762D01*
X210986666Y-96464381D01*
X211129524Y-96464381D01*
X211224762Y-96416762D01*
X211272381Y-96369143D01*
X211605714Y-95797714D02*
X211986666Y-95797714D01*
X211748571Y-95464381D02*
X211748571Y-96321524D01*
X211796190Y-96416762D01*
X211891428Y-96464381D01*
X211986666Y-96464381D01*
X171958096Y-95512000D02*
X171862858Y-95464381D01*
X171720001Y-95464381D01*
X171577143Y-95512000D01*
X171481905Y-95607238D01*
X171434286Y-95702476D01*
X171386667Y-95892952D01*
X171386667Y-96035810D01*
X171434286Y-96226286D01*
X171481905Y-96321524D01*
X171577143Y-96416762D01*
X171720001Y-96464381D01*
X171815239Y-96464381D01*
X171958096Y-96416762D01*
X172005715Y-96369143D01*
X172005715Y-96035810D01*
X171815239Y-96035810D01*
X172434286Y-96464381D02*
X172434286Y-95464381D01*
X173005715Y-96464381D01*
X173005715Y-95464381D01*
X173481905Y-96464381D02*
X173481905Y-95464381D01*
X173720000Y-95464381D01*
X173862858Y-95512000D01*
X173958096Y-95607238D01*
X174005715Y-95702476D01*
X174053334Y-95892952D01*
X174053334Y-96035810D01*
X174005715Y-96226286D01*
X173958096Y-96321524D01*
X173862858Y-96416762D01*
X173720000Y-96464381D01*
X173481905Y-96464381D01*
X209581905Y-57983429D02*
X210343810Y-57983429D01*
X209962858Y-58364381D02*
X209962858Y-57602476D01*
X211296191Y-57364381D02*
X210820000Y-57364381D01*
X210772381Y-57840571D01*
X210820000Y-57792952D01*
X210915238Y-57745333D01*
X211153334Y-57745333D01*
X211248572Y-57792952D01*
X211296191Y-57840571D01*
X211343810Y-57935810D01*
X211343810Y-58173905D01*
X211296191Y-58269143D01*
X211248572Y-58316762D01*
X211153334Y-58364381D01*
X210915238Y-58364381D01*
X210820000Y-58316762D01*
X210772381Y-58269143D01*
X211677143Y-57697714D02*
X211915238Y-58364381D01*
X212153334Y-57697714D01*
X174498096Y-57412000D02*
X174402858Y-57364381D01*
X174260001Y-57364381D01*
X174117143Y-57412000D01*
X174021905Y-57507238D01*
X173974286Y-57602476D01*
X173926667Y-57792952D01*
X173926667Y-57935810D01*
X173974286Y-58126286D01*
X174021905Y-58221524D01*
X174117143Y-58316762D01*
X174260001Y-58364381D01*
X174355239Y-58364381D01*
X174498096Y-58316762D01*
X174545715Y-58269143D01*
X174545715Y-57935810D01*
X174355239Y-57935810D01*
X174974286Y-58364381D02*
X174974286Y-57364381D01*
X175545715Y-58364381D01*
X175545715Y-57364381D01*
X176021905Y-58364381D02*
X176021905Y-57364381D01*
X176260000Y-57364381D01*
X176402858Y-57412000D01*
X176498096Y-57507238D01*
X176545715Y-57602476D01*
X176593334Y-57792952D01*
X176593334Y-57935810D01*
X176545715Y-58126286D01*
X176498096Y-58221524D01*
X176402858Y-58316762D01*
X176260000Y-58364381D01*
X176021905Y-58364381D01*
X186793143Y-62650666D02*
X186840762Y-62698285D01*
X186888381Y-62841142D01*
X186888381Y-62936380D01*
X186840762Y-63079238D01*
X186745524Y-63174476D01*
X186650286Y-63222095D01*
X186459810Y-63269714D01*
X186316952Y-63269714D01*
X186126476Y-63222095D01*
X186031238Y-63174476D01*
X185936000Y-63079238D01*
X185888381Y-62936380D01*
X185888381Y-62841142D01*
X185936000Y-62698285D01*
X185983619Y-62650666D01*
X186888381Y-62174476D02*
X186888381Y-61984000D01*
X186840762Y-61888761D01*
X186793143Y-61841142D01*
X186650286Y-61745904D01*
X186459810Y-61698285D01*
X186078857Y-61698285D01*
X185983619Y-61745904D01*
X185936000Y-61793523D01*
X185888381Y-61888761D01*
X185888381Y-62079238D01*
X185936000Y-62174476D01*
X185983619Y-62222095D01*
X186078857Y-62269714D01*
X186316952Y-62269714D01*
X186412190Y-62222095D01*
X186459810Y-62174476D01*
X186507429Y-62079238D01*
X186507429Y-61888761D01*
X186459810Y-61793523D01*
X186412190Y-61745904D01*
X186316952Y-61698285D01*
X193479729Y-69430852D02*
X193479729Y-68668947D01*
X193860681Y-69049899D02*
X193098776Y-69049899D01*
X194413143Y-80938666D02*
X194460762Y-80986285D01*
X194508381Y-81129142D01*
X194508381Y-81224380D01*
X194460762Y-81367238D01*
X194365524Y-81462476D01*
X194270286Y-81510095D01*
X194079810Y-81557714D01*
X193936952Y-81557714D01*
X193746476Y-81510095D01*
X193651238Y-81462476D01*
X193556000Y-81367238D01*
X193508381Y-81224380D01*
X193508381Y-81129142D01*
X193556000Y-80986285D01*
X193603619Y-80938666D01*
X193841714Y-80081523D02*
X194508381Y-80081523D01*
X193460762Y-80319619D02*
X194175048Y-80557714D01*
X194175048Y-79938666D01*
X194667143Y-71762857D02*
X194714762Y-71810476D01*
X194762381Y-71953333D01*
X194762381Y-72048571D01*
X194714762Y-72191429D01*
X194619524Y-72286667D01*
X194524286Y-72334286D01*
X194333810Y-72381905D01*
X194190952Y-72381905D01*
X194000476Y-72334286D01*
X193905238Y-72286667D01*
X193810000Y-72191429D01*
X193762381Y-72048571D01*
X193762381Y-71953333D01*
X193810000Y-71810476D01*
X193857619Y-71762857D01*
X194762381Y-70810476D02*
X194762381Y-71381905D01*
X194762381Y-71096191D02*
X193762381Y-71096191D01*
X193905238Y-71191429D01*
X194000476Y-71286667D01*
X194048095Y-71381905D01*
X193762381Y-70191429D02*
X193762381Y-70096190D01*
X193810000Y-70000952D01*
X193857619Y-69953333D01*
X193952857Y-69905714D01*
X194143333Y-69858095D01*
X194381429Y-69858095D01*
X194571905Y-69905714D01*
X194667143Y-69953333D01*
X194714762Y-70000952D01*
X194762381Y-70096190D01*
X194762381Y-70191429D01*
X194714762Y-70286667D01*
X194667143Y-70334286D01*
X194571905Y-70381905D01*
X194381429Y-70429524D01*
X194143333Y-70429524D01*
X193952857Y-70381905D01*
X193857619Y-70334286D01*
X193810000Y-70286667D01*
X193762381Y-70191429D01*
X213717143Y-80652857D02*
X213764762Y-80700476D01*
X213812381Y-80843333D01*
X213812381Y-80938571D01*
X213764762Y-81081429D01*
X213669524Y-81176667D01*
X213574286Y-81224286D01*
X213383810Y-81271905D01*
X213240952Y-81271905D01*
X213050476Y-81224286D01*
X212955238Y-81176667D01*
X212860000Y-81081429D01*
X212812381Y-80938571D01*
X212812381Y-80843333D01*
X212860000Y-80700476D01*
X212907619Y-80652857D01*
X213812381Y-79700476D02*
X213812381Y-80271905D01*
X213812381Y-79986191D02*
X212812381Y-79986191D01*
X212955238Y-80081429D01*
X213050476Y-80176667D01*
X213098095Y-80271905D01*
X212907619Y-79319524D02*
X212860000Y-79271905D01*
X212812381Y-79176667D01*
X212812381Y-78938571D01*
X212860000Y-78843333D01*
X212907619Y-78795714D01*
X213002857Y-78748095D01*
X213098095Y-78748095D01*
X213240952Y-78795714D01*
X213812381Y-79367143D01*
X213812381Y-78748095D01*
X160805905Y-63444381D02*
X160805905Y-62444381D01*
X161044000Y-62444381D01*
X161186858Y-62492000D01*
X161282096Y-62587238D01*
X161329715Y-62682476D01*
X161377334Y-62872952D01*
X161377334Y-63015810D01*
X161329715Y-63206286D01*
X161282096Y-63301524D01*
X161186858Y-63396762D01*
X161044000Y-63444381D01*
X160805905Y-63444381D01*
X161758286Y-62539619D02*
X161805905Y-62492000D01*
X161901143Y-62444381D01*
X162139239Y-62444381D01*
X162234477Y-62492000D01*
X162282096Y-62539619D01*
X162329715Y-62634857D01*
X162329715Y-62730095D01*
X162282096Y-62872952D01*
X161710667Y-63444381D01*
X162329715Y-63444381D01*
X225242381Y-92178095D02*
X224242381Y-92178095D01*
X224242381Y-91940000D01*
X224290000Y-91797142D01*
X224385238Y-91701904D01*
X224480476Y-91654285D01*
X224670952Y-91606666D01*
X224813810Y-91606666D01*
X225004286Y-91654285D01*
X225099524Y-91701904D01*
X225194762Y-91797142D01*
X225242381Y-91940000D01*
X225242381Y-92178095D01*
X224242381Y-90701904D02*
X224242381Y-91178095D01*
X224718571Y-91225714D01*
X224670952Y-91178095D01*
X224623333Y-91082857D01*
X224623333Y-90844761D01*
X224670952Y-90749523D01*
X224718571Y-90701904D01*
X224813810Y-90654285D01*
X225051905Y-90654285D01*
X225147143Y-90701904D01*
X225194762Y-90749523D01*
X225242381Y-90844761D01*
X225242381Y-91082857D01*
X225194762Y-91178095D01*
X225147143Y-91225714D01*
X225496381Y-87383905D02*
X224496381Y-87383905D01*
X225496381Y-86812476D02*
X224924952Y-87241048D01*
X224496381Y-86812476D02*
X225067810Y-87383905D01*
X197048381Y-80938666D02*
X196572190Y-81272000D01*
X197048381Y-81510095D02*
X196048381Y-81510095D01*
X196048381Y-81129142D01*
X196096000Y-81033904D01*
X196143619Y-80986285D01*
X196238857Y-80938666D01*
X196381714Y-80938666D01*
X196476952Y-80986285D01*
X196524571Y-81033904D01*
X196572190Y-81129142D01*
X196572190Y-81510095D01*
X196143619Y-80557714D02*
X196096000Y-80510095D01*
X196048381Y-80414857D01*
X196048381Y-80176761D01*
X196096000Y-80081523D01*
X196143619Y-80033904D01*
X196238857Y-79986285D01*
X196334095Y-79986285D01*
X196476952Y-80033904D01*
X197048381Y-80605333D01*
X197048381Y-79986285D01*
X191968381Y-80938666D02*
X191492190Y-81272000D01*
X191968381Y-81510095D02*
X190968381Y-81510095D01*
X190968381Y-81129142D01*
X191016000Y-81033904D01*
X191063619Y-80986285D01*
X191158857Y-80938666D01*
X191301714Y-80938666D01*
X191396952Y-80986285D01*
X191444571Y-81033904D01*
X191492190Y-81129142D01*
X191492190Y-81510095D01*
X190968381Y-80605333D02*
X190968381Y-79986285D01*
X191349333Y-80319619D01*
X191349333Y-80176761D01*
X191396952Y-80081523D01*
X191444571Y-80033904D01*
X191539810Y-79986285D01*
X191777905Y-79986285D01*
X191873143Y-80033904D01*
X191920762Y-80081523D01*
X191968381Y-80176761D01*
X191968381Y-80462476D01*
X191920762Y-80557714D01*
X191873143Y-80605333D01*
X190952381Y-71286666D02*
X190476190Y-71620000D01*
X190952381Y-71858095D02*
X189952381Y-71858095D01*
X189952381Y-71477142D01*
X190000000Y-71381904D01*
X190047619Y-71334285D01*
X190142857Y-71286666D01*
X190285714Y-71286666D01*
X190380952Y-71334285D01*
X190428571Y-71381904D01*
X190476190Y-71477142D01*
X190476190Y-71858095D01*
X190285714Y-70429523D02*
X190952381Y-70429523D01*
X189904762Y-70667619D02*
X190619048Y-70905714D01*
X190619048Y-70286666D01*
X204303334Y-92400381D02*
X203970000Y-91924190D01*
X203731905Y-92400381D02*
X203731905Y-91400381D01*
X204112858Y-91400381D01*
X204208096Y-91448000D01*
X204255715Y-91495619D01*
X204303334Y-91590857D01*
X204303334Y-91733714D01*
X204255715Y-91828952D01*
X204208096Y-91876571D01*
X204112858Y-91924190D01*
X203731905Y-91924190D01*
X205208096Y-91400381D02*
X204731905Y-91400381D01*
X204684286Y-91876571D01*
X204731905Y-91828952D01*
X204827143Y-91781333D01*
X205065239Y-91781333D01*
X205160477Y-91828952D01*
X205208096Y-91876571D01*
X205255715Y-91971810D01*
X205255715Y-92209905D01*
X205208096Y-92305143D01*
X205160477Y-92352762D01*
X205065239Y-92400381D01*
X204827143Y-92400381D01*
X204731905Y-92352762D01*
X204684286Y-92305143D01*
X154265334Y-63444381D02*
X153932000Y-62968190D01*
X153693905Y-63444381D02*
X153693905Y-62444381D01*
X154074858Y-62444381D01*
X154170096Y-62492000D01*
X154217715Y-62539619D01*
X154265334Y-62634857D01*
X154265334Y-62777714D01*
X154217715Y-62872952D01*
X154170096Y-62920571D01*
X154074858Y-62968190D01*
X153693905Y-62968190D01*
X155122477Y-62444381D02*
X154932000Y-62444381D01*
X154836762Y-62492000D01*
X154789143Y-62539619D01*
X154693905Y-62682476D01*
X154646286Y-62872952D01*
X154646286Y-63253905D01*
X154693905Y-63349143D01*
X154741524Y-63396762D01*
X154836762Y-63444381D01*
X155027239Y-63444381D01*
X155122477Y-63396762D01*
X155170096Y-63349143D01*
X155217715Y-63253905D01*
X155217715Y-63015810D01*
X155170096Y-62920571D01*
X155122477Y-62872952D01*
X155027239Y-62825333D01*
X154836762Y-62825333D01*
X154741524Y-62872952D01*
X154693905Y-62920571D01*
X154646286Y-63015810D01*
X197302381Y-71286666D02*
X196826190Y-71620000D01*
X197302381Y-71858095D02*
X196302381Y-71858095D01*
X196302381Y-71477142D01*
X196350000Y-71381904D01*
X196397619Y-71334285D01*
X196492857Y-71286666D01*
X196635714Y-71286666D01*
X196730952Y-71334285D01*
X196778571Y-71381904D01*
X196826190Y-71477142D01*
X196826190Y-71858095D01*
X196302381Y-70953333D02*
X196302381Y-70286666D01*
X197302381Y-70715238D01*
X211272381Y-80176666D02*
X210796190Y-80510000D01*
X211272381Y-80748095D02*
X210272381Y-80748095D01*
X210272381Y-80367142D01*
X210320000Y-80271904D01*
X210367619Y-80224285D01*
X210462857Y-80176666D01*
X210605714Y-80176666D01*
X210700952Y-80224285D01*
X210748571Y-80271904D01*
X210796190Y-80367142D01*
X210796190Y-80748095D01*
X210700952Y-79605238D02*
X210653333Y-79700476D01*
X210605714Y-79748095D01*
X210510476Y-79795714D01*
X210462857Y-79795714D01*
X210367619Y-79748095D01*
X210320000Y-79700476D01*
X210272381Y-79605238D01*
X210272381Y-79414761D01*
X210320000Y-79319523D01*
X210367619Y-79271904D01*
X210462857Y-79224285D01*
X210510476Y-79224285D01*
X210605714Y-79271904D01*
X210653333Y-79319523D01*
X210700952Y-79414761D01*
X210700952Y-79605238D01*
X210748571Y-79700476D01*
X210796190Y-79748095D01*
X210891429Y-79795714D01*
X211081905Y-79795714D01*
X211177143Y-79748095D01*
X211224762Y-79700476D01*
X211272381Y-79605238D01*
X211272381Y-79414761D01*
X211224762Y-79319523D01*
X211177143Y-79271904D01*
X211081905Y-79224285D01*
X210891429Y-79224285D01*
X210796190Y-79271904D01*
X210748571Y-79319523D01*
X210700952Y-79414761D01*
X212177334Y-69540381D02*
X211844000Y-69064190D01*
X211605905Y-69540381D02*
X211605905Y-68540381D01*
X211986858Y-68540381D01*
X212082096Y-68588000D01*
X212129715Y-68635619D01*
X212177334Y-68730857D01*
X212177334Y-68873714D01*
X212129715Y-68968952D01*
X212082096Y-69016571D01*
X211986858Y-69064190D01*
X211605905Y-69064190D01*
X212653524Y-69540381D02*
X212844000Y-69540381D01*
X212939239Y-69492762D01*
X212986858Y-69445143D01*
X213082096Y-69302286D01*
X213129715Y-69111810D01*
X213129715Y-68730857D01*
X213082096Y-68635619D01*
X213034477Y-68588000D01*
X212939239Y-68540381D01*
X212748762Y-68540381D01*
X212653524Y-68588000D01*
X212605905Y-68635619D01*
X212558286Y-68730857D01*
X212558286Y-68968952D01*
X212605905Y-69064190D01*
X212653524Y-69111810D01*
X212748762Y-69159429D01*
X212939239Y-69159429D01*
X213034477Y-69111810D01*
X213082096Y-69064190D01*
X213129715Y-68968952D01*
X203827143Y-71572381D02*
X203493809Y-71096190D01*
X203255714Y-71572381D02*
X203255714Y-70572381D01*
X203636667Y-70572381D01*
X203731905Y-70620000D01*
X203779524Y-70667619D01*
X203827143Y-70762857D01*
X203827143Y-70905714D01*
X203779524Y-71000952D01*
X203731905Y-71048571D01*
X203636667Y-71096190D01*
X203255714Y-71096190D01*
X204779524Y-71572381D02*
X204208095Y-71572381D01*
X204493809Y-71572381D02*
X204493809Y-70572381D01*
X204398571Y-70715238D01*
X204303333Y-70810476D01*
X204208095Y-70858095D01*
X205398571Y-70572381D02*
X205493810Y-70572381D01*
X205589048Y-70620000D01*
X205636667Y-70667619D01*
X205684286Y-70762857D01*
X205731905Y-70953333D01*
X205731905Y-71191429D01*
X205684286Y-71381905D01*
X205636667Y-71477143D01*
X205589048Y-71524762D01*
X205493810Y-71572381D01*
X205398571Y-71572381D01*
X205303333Y-71524762D01*
X205255714Y-71477143D01*
X205208095Y-71381905D01*
X205160476Y-71191429D01*
X205160476Y-70953333D01*
X205208095Y-70762857D01*
X205255714Y-70667619D01*
X205303333Y-70620000D01*
X205398571Y-70572381D01*
X211701143Y-63444381D02*
X211367809Y-62968190D01*
X211129714Y-63444381D02*
X211129714Y-62444381D01*
X211510667Y-62444381D01*
X211605905Y-62492000D01*
X211653524Y-62539619D01*
X211701143Y-62634857D01*
X211701143Y-62777714D01*
X211653524Y-62872952D01*
X211605905Y-62920571D01*
X211510667Y-62968190D01*
X211129714Y-62968190D01*
X212653524Y-63444381D02*
X212082095Y-63444381D01*
X212367809Y-63444381D02*
X212367809Y-62444381D01*
X212272571Y-62587238D01*
X212177333Y-62682476D01*
X212082095Y-62730095D01*
X213605905Y-63444381D02*
X213034476Y-63444381D01*
X213320190Y-63444381D02*
X213320190Y-62444381D01*
X213224952Y-62587238D01*
X213129714Y-62682476D01*
X213034476Y-62730095D01*
X227147381Y-65412857D02*
X226671190Y-65746191D01*
X227147381Y-65984286D02*
X226147381Y-65984286D01*
X226147381Y-65603333D01*
X226195000Y-65508095D01*
X226242619Y-65460476D01*
X226337857Y-65412857D01*
X226480714Y-65412857D01*
X226575952Y-65460476D01*
X226623571Y-65508095D01*
X226671190Y-65603333D01*
X226671190Y-65984286D01*
X227147381Y-64460476D02*
X227147381Y-65031905D01*
X227147381Y-64746191D02*
X226147381Y-64746191D01*
X226290238Y-64841429D01*
X226385476Y-64936667D01*
X226433095Y-65031905D01*
X226147381Y-64127143D02*
X226147381Y-63508095D01*
X226528333Y-63841429D01*
X226528333Y-63698571D01*
X226575952Y-63603333D01*
X226623571Y-63555714D01*
X226718810Y-63508095D01*
X226956905Y-63508095D01*
X227052143Y-63555714D01*
X227099762Y-63603333D01*
X227147381Y-63698571D01*
X227147381Y-63984286D01*
X227099762Y-64079524D01*
X227052143Y-64127143D01*
X217797143Y-81732381D02*
X217463809Y-81256190D01*
X217225714Y-81732381D02*
X217225714Y-80732381D01*
X217606667Y-80732381D01*
X217701905Y-80780000D01*
X217749524Y-80827619D01*
X217797143Y-80922857D01*
X217797143Y-81065714D01*
X217749524Y-81160952D01*
X217701905Y-81208571D01*
X217606667Y-81256190D01*
X217225714Y-81256190D01*
X218749524Y-81732381D02*
X218178095Y-81732381D01*
X218463809Y-81732381D02*
X218463809Y-80732381D01*
X218368571Y-80875238D01*
X218273333Y-80970476D01*
X218178095Y-81018095D01*
X219606667Y-81065714D02*
X219606667Y-81732381D01*
X219368571Y-80684762D02*
X219130476Y-81399048D01*
X219749524Y-81399048D01*
X193905143Y-91606666D02*
X193952762Y-91654285D01*
X194000381Y-91797142D01*
X194000381Y-91892380D01*
X193952762Y-92035238D01*
X193857524Y-92130476D01*
X193762286Y-92178095D01*
X193571810Y-92225714D01*
X193428952Y-92225714D01*
X193238476Y-92178095D01*
X193143238Y-92130476D01*
X193048000Y-92035238D01*
X193000381Y-91892380D01*
X193000381Y-91797142D01*
X193048000Y-91654285D01*
X193095619Y-91606666D01*
X194000381Y-90654285D02*
X194000381Y-91225714D01*
X194000381Y-90940000D02*
X193000381Y-90940000D01*
X193143238Y-91035238D01*
X193238476Y-91130476D01*
X193286095Y-91225714D01*
X194914829Y-90322352D02*
X194914829Y-89560447D01*
X195295781Y-89941399D02*
X194533876Y-89941399D01*
X175109143Y-87034666D02*
X175156762Y-87082285D01*
X175204381Y-87225142D01*
X175204381Y-87320380D01*
X175156762Y-87463238D01*
X175061524Y-87558476D01*
X174966286Y-87606095D01*
X174775810Y-87653714D01*
X174632952Y-87653714D01*
X174442476Y-87606095D01*
X174347238Y-87558476D01*
X174252000Y-87463238D01*
X174204381Y-87320380D01*
X174204381Y-87225142D01*
X174252000Y-87082285D01*
X174299619Y-87034666D01*
X174299619Y-86653714D02*
X174252000Y-86606095D01*
X174204381Y-86510857D01*
X174204381Y-86272761D01*
X174252000Y-86177523D01*
X174299619Y-86129904D01*
X174394857Y-86082285D01*
X174490095Y-86082285D01*
X174632952Y-86129904D01*
X175204381Y-86701333D01*
X175204381Y-86082285D01*
X176131529Y-85001052D02*
X176131529Y-84239147D01*
X176512481Y-84620099D02*
X175750576Y-84620099D01*
X183745143Y-83986666D02*
X183792762Y-84034285D01*
X183840381Y-84177142D01*
X183840381Y-84272380D01*
X183792762Y-84415238D01*
X183697524Y-84510476D01*
X183602286Y-84558095D01*
X183411810Y-84605714D01*
X183268952Y-84605714D01*
X183078476Y-84558095D01*
X182983238Y-84510476D01*
X182888000Y-84415238D01*
X182840381Y-84272380D01*
X182840381Y-84177142D01*
X182888000Y-84034285D01*
X182935619Y-83986666D01*
X182840381Y-83129523D02*
X182840381Y-83320000D01*
X182888000Y-83415238D01*
X182935619Y-83462857D01*
X183078476Y-83558095D01*
X183268952Y-83605714D01*
X183649905Y-83605714D01*
X183745143Y-83558095D01*
X183792762Y-83510476D01*
X183840381Y-83415238D01*
X183840381Y-83224761D01*
X183792762Y-83129523D01*
X183745143Y-83081904D01*
X183649905Y-83034285D01*
X183411810Y-83034285D01*
X183316571Y-83081904D01*
X183268952Y-83129523D01*
X183221333Y-83224761D01*
X183221333Y-83415238D01*
X183268952Y-83510476D01*
X183316571Y-83558095D01*
X183411810Y-83605714D01*
X184754829Y-82702352D02*
X184754829Y-81940447D01*
X185135781Y-82321399D02*
X184373876Y-82321399D01*
X183745143Y-75826857D02*
X183792762Y-75874476D01*
X183840381Y-76017333D01*
X183840381Y-76112571D01*
X183792762Y-76255429D01*
X183697524Y-76350667D01*
X183602286Y-76398286D01*
X183411810Y-76445905D01*
X183268952Y-76445905D01*
X183078476Y-76398286D01*
X182983238Y-76350667D01*
X182888000Y-76255429D01*
X182840381Y-76112571D01*
X182840381Y-76017333D01*
X182888000Y-75874476D01*
X182935619Y-75826857D01*
X183840381Y-74874476D02*
X183840381Y-75445905D01*
X183840381Y-75160191D02*
X182840381Y-75160191D01*
X182983238Y-75255429D01*
X183078476Y-75350667D01*
X183126095Y-75445905D01*
X183840381Y-73922095D02*
X183840381Y-74493524D01*
X183840381Y-74207810D02*
X182840381Y-74207810D01*
X182983238Y-74303048D01*
X183078476Y-74398286D01*
X183126095Y-74493524D01*
X188768029Y-79349552D02*
X188768029Y-78587647D01*
X189148981Y-78968599D02*
X188387076Y-78968599D01*
X204589143Y-61825143D02*
X204541524Y-61872762D01*
X204398667Y-61920381D01*
X204303429Y-61920381D01*
X204160571Y-61872762D01*
X204065333Y-61777524D01*
X204017714Y-61682286D01*
X203970095Y-61491810D01*
X203970095Y-61348952D01*
X204017714Y-61158476D01*
X204065333Y-61063238D01*
X204160571Y-60968000D01*
X204303429Y-60920381D01*
X204398667Y-60920381D01*
X204541524Y-60968000D01*
X204589143Y-61015619D01*
X205541524Y-61920381D02*
X204970095Y-61920381D01*
X205255809Y-61920381D02*
X205255809Y-60920381D01*
X205160571Y-61063238D01*
X205065333Y-61158476D01*
X204970095Y-61206095D01*
X206398667Y-61253714D02*
X206398667Y-61920381D01*
X206160571Y-60872762D02*
X205922476Y-61587048D01*
X206541524Y-61587048D01*
X206857648Y-62834829D02*
X207619553Y-62834829D01*
X207238601Y-63215781D02*
X207238601Y-62453876D01*
X202557143Y-81129143D02*
X202509524Y-81176762D01*
X202366667Y-81224381D01*
X202271429Y-81224381D01*
X202128571Y-81176762D01*
X202033333Y-81081524D01*
X201985714Y-80986286D01*
X201938095Y-80795810D01*
X201938095Y-80652952D01*
X201985714Y-80462476D01*
X202033333Y-80367238D01*
X202128571Y-80272000D01*
X202271429Y-80224381D01*
X202366667Y-80224381D01*
X202509524Y-80272000D01*
X202557143Y-80319619D01*
X203509524Y-81224381D02*
X202938095Y-81224381D01*
X203223809Y-81224381D02*
X203223809Y-80224381D01*
X203128571Y-80367238D01*
X203033333Y-80462476D01*
X202938095Y-80510095D01*
X204414286Y-80224381D02*
X203938095Y-80224381D01*
X203890476Y-80700571D01*
X203938095Y-80652952D01*
X204033333Y-80605333D01*
X204271429Y-80605333D01*
X204366667Y-80652952D01*
X204414286Y-80700571D01*
X204461905Y-80795810D01*
X204461905Y-81033905D01*
X204414286Y-81129143D01*
X204366667Y-81176762D01*
X204271429Y-81224381D01*
X204033333Y-81224381D01*
X203938095Y-81176762D01*
X203890476Y-81129143D01*
X206857648Y-75534829D02*
X207619553Y-75534829D01*
X207238601Y-75915781D02*
X207238601Y-75153876D01*
X221861143Y-82653143D02*
X221813524Y-82700762D01*
X221670667Y-82748381D01*
X221575429Y-82748381D01*
X221432571Y-82700762D01*
X221337333Y-82605524D01*
X221289714Y-82510286D01*
X221242095Y-82319810D01*
X221242095Y-82176952D01*
X221289714Y-81986476D01*
X221337333Y-81891238D01*
X221432571Y-81796000D01*
X221575429Y-81748381D01*
X221670667Y-81748381D01*
X221813524Y-81796000D01*
X221861143Y-81843619D01*
X222813524Y-82748381D02*
X222242095Y-82748381D01*
X222527809Y-82748381D02*
X222527809Y-81748381D01*
X222432571Y-81891238D01*
X222337333Y-81986476D01*
X222242095Y-82034095D01*
X223146857Y-81748381D02*
X223813524Y-81748381D01*
X223384952Y-82748381D01*
X224878948Y-83421529D02*
X225640853Y-83421529D01*
X225259901Y-83802481D02*
X225259901Y-83040576D01*
X156130667Y-92416381D02*
X156130667Y-93130667D01*
X156083047Y-93273524D01*
X155987809Y-93368762D01*
X155844952Y-93416381D01*
X155749714Y-93416381D01*
X157130667Y-93416381D02*
X156559238Y-93416381D01*
X156844952Y-93416381D02*
X156844952Y-92416381D01*
X156749714Y-92559238D01*
X156654476Y-92654476D01*
X156559238Y-92702095D01*
X156130667Y-59904381D02*
X156130667Y-60618667D01*
X156083047Y-60761524D01*
X155987809Y-60856762D01*
X155844952Y-60904381D01*
X155749714Y-60904381D01*
X156559238Y-59999619D02*
X156606857Y-59952000D01*
X156702095Y-59904381D01*
X156940191Y-59904381D01*
X157035429Y-59952000D01*
X157083048Y-59999619D01*
X157130667Y-60094857D01*
X157130667Y-60190095D01*
X157083048Y-60332952D01*
X156511619Y-60904381D01*
X157130667Y-60904381D01*
X225464762Y-94940381D02*
X225131428Y-94464190D01*
X224893333Y-94940381D02*
X224893333Y-93940381D01*
X225274286Y-93940381D01*
X225369524Y-93988000D01*
X225417143Y-94035619D01*
X225464762Y-94130857D01*
X225464762Y-94273714D01*
X225417143Y-94368952D01*
X225369524Y-94416571D01*
X225274286Y-94464190D01*
X224893333Y-94464190D01*
X225750476Y-93940381D02*
X226083809Y-94940381D01*
X226417143Y-93940381D01*
X227274286Y-94940381D02*
X226702857Y-94940381D01*
X226988571Y-94940381D02*
X226988571Y-93940381D01*
X226893333Y-94083238D01*
X226798095Y-94178476D01*
X226702857Y-94226095D01*
X225464762Y-59888381D02*
X225131428Y-59412190D01*
X224893333Y-59888381D02*
X224893333Y-58888381D01*
X225274286Y-58888381D01*
X225369524Y-58936000D01*
X225417143Y-58983619D01*
X225464762Y-59078857D01*
X225464762Y-59221714D01*
X225417143Y-59316952D01*
X225369524Y-59364571D01*
X225274286Y-59412190D01*
X224893333Y-59412190D01*
X225750476Y-58888381D02*
X226083809Y-59888381D01*
X226417143Y-58888381D01*
X226702857Y-58983619D02*
X226750476Y-58936000D01*
X226845714Y-58888381D01*
X227083810Y-58888381D01*
X227179048Y-58936000D01*
X227226667Y-58983619D01*
X227274286Y-59078857D01*
X227274286Y-59174095D01*
X227226667Y-59316952D01*
X226655238Y-59888381D01*
X227274286Y-59888381D01*
X194413143Y-58554857D02*
X194460762Y-58602476D01*
X194508381Y-58745333D01*
X194508381Y-58840571D01*
X194460762Y-58983429D01*
X194365524Y-59078667D01*
X194270286Y-59126286D01*
X194079810Y-59173905D01*
X193936952Y-59173905D01*
X193746476Y-59126286D01*
X193651238Y-59078667D01*
X193556000Y-58983429D01*
X193508381Y-58840571D01*
X193508381Y-58745333D01*
X193556000Y-58602476D01*
X193603619Y-58554857D01*
X194508381Y-57602476D02*
X194508381Y-58173905D01*
X194508381Y-57888191D02*
X193508381Y-57888191D01*
X193651238Y-57983429D01*
X193746476Y-58078667D01*
X193794095Y-58173905D01*
X193936952Y-57031048D02*
X193889333Y-57126286D01*
X193841714Y-57173905D01*
X193746476Y-57221524D01*
X193698857Y-57221524D01*
X193603619Y-57173905D01*
X193556000Y-57126286D01*
X193508381Y-57031048D01*
X193508381Y-56840571D01*
X193556000Y-56745333D01*
X193603619Y-56697714D01*
X193698857Y-56650095D01*
X193746476Y-56650095D01*
X193841714Y-56697714D01*
X193889333Y-56745333D01*
X193936952Y-56840571D01*
X193936952Y-57031048D01*
X193984571Y-57126286D01*
X194032190Y-57173905D01*
X194127429Y-57221524D01*
X194317905Y-57221524D01*
X194413143Y-57173905D01*
X194460762Y-57126286D01*
X194508381Y-57031048D01*
X194508381Y-56840571D01*
X194460762Y-56745333D01*
X194413143Y-56697714D01*
X194317905Y-56650095D01*
X194127429Y-56650095D01*
X194032190Y-56697714D01*
X193984571Y-56745333D01*
X193936952Y-56840571D01*
X195181429Y-55790952D02*
X195181429Y-55029047D01*
X195562381Y-55409999D02*
X194800476Y-55409999D01*
X153868381Y-78025524D02*
X152868381Y-78025524D01*
X153582667Y-77692190D01*
X152868381Y-77358857D01*
X153868381Y-77358857D01*
X153868381Y-76358857D02*
X153868381Y-76930286D01*
X153868381Y-76644572D02*
X152868381Y-76644572D01*
X153011238Y-76739810D01*
X153106476Y-76835048D01*
X153154095Y-76930286D01*
X202184095Y-87844381D02*
X202184095Y-88653905D01*
X202231714Y-88749143D01*
X202279333Y-88796762D01*
X202374571Y-88844381D01*
X202565048Y-88844381D01*
X202660286Y-88796762D01*
X202707905Y-88749143D01*
X202755524Y-88653905D01*
X202755524Y-87844381D01*
X203755524Y-88844381D02*
X203184095Y-88844381D01*
X203469809Y-88844381D02*
X203469809Y-87844381D01*
X203374571Y-87987238D01*
X203279333Y-88082476D01*
X203184095Y-88130095D01*
X215900095Y-59650381D02*
X215900095Y-60459905D01*
X215947714Y-60555143D01*
X215995333Y-60602762D01*
X216090571Y-60650381D01*
X216281048Y-60650381D01*
X216376286Y-60602762D01*
X216423905Y-60555143D01*
X216471524Y-60459905D01*
X216471524Y-59650381D01*
X216852476Y-59650381D02*
X217471524Y-59650381D01*
X217138190Y-60031333D01*
X217281048Y-60031333D01*
X217376286Y-60078952D01*
X217423905Y-60126571D01*
X217471524Y-60221810D01*
X217471524Y-60459905D01*
X217423905Y-60555143D01*
X217376286Y-60602762D01*
X217281048Y-60650381D01*
X216995333Y-60650381D01*
X216900095Y-60602762D01*
X216852476Y-60555143D01*
X222877143Y-75767143D02*
X222829524Y-75814762D01*
X222686667Y-75862381D01*
X222591429Y-75862381D01*
X222448571Y-75814762D01*
X222353333Y-75719524D01*
X222305714Y-75624286D01*
X222258095Y-75433810D01*
X222258095Y-75290952D01*
X222305714Y-75100476D01*
X222353333Y-75005238D01*
X222448571Y-74910000D01*
X222591429Y-74862381D01*
X222686667Y-74862381D01*
X222829524Y-74910000D01*
X222877143Y-74957619D01*
X223829524Y-75862381D02*
X223258095Y-75862381D01*
X223543809Y-75862381D02*
X223543809Y-74862381D01*
X223448571Y-75005238D01*
X223353333Y-75100476D01*
X223258095Y-75148095D01*
X224162857Y-74862381D02*
X224781905Y-74862381D01*
X224448571Y-75243333D01*
X224591429Y-75243333D01*
X224686667Y-75290952D01*
X224734286Y-75338571D01*
X224781905Y-75433810D01*
X224781905Y-75671905D01*
X224734286Y-75767143D01*
X224686667Y-75814762D01*
X224591429Y-75862381D01*
X224305714Y-75862381D01*
X224210476Y-75814762D01*
X224162857Y-75767143D01*
X213193334Y-92305143D02*
X213145715Y-92352762D01*
X213002858Y-92400381D01*
X212907620Y-92400381D01*
X212764762Y-92352762D01*
X212669524Y-92257524D01*
X212621905Y-92162286D01*
X212574286Y-91971810D01*
X212574286Y-91828952D01*
X212621905Y-91638476D01*
X212669524Y-91543238D01*
X212764762Y-91448000D01*
X212907620Y-91400381D01*
X213002858Y-91400381D01*
X213145715Y-91448000D01*
X213193334Y-91495619D01*
X213764762Y-91828952D02*
X213669524Y-91781333D01*
X213621905Y-91733714D01*
X213574286Y-91638476D01*
X213574286Y-91590857D01*
X213621905Y-91495619D01*
X213669524Y-91448000D01*
X213764762Y-91400381D01*
X213955239Y-91400381D01*
X214050477Y-91448000D01*
X214098096Y-91495619D01*
X214145715Y-91590857D01*
X214145715Y-91638476D01*
X214098096Y-91733714D01*
X214050477Y-91781333D01*
X213955239Y-91828952D01*
X213764762Y-91828952D01*
X213669524Y-91876571D01*
X213621905Y-91924190D01*
X213574286Y-92019429D01*
X213574286Y-92209905D01*
X213621905Y-92305143D01*
X213669524Y-92352762D01*
X213764762Y-92400381D01*
X213955239Y-92400381D01*
X214050477Y-92352762D01*
X214098096Y-92305143D01*
X214145715Y-92209905D01*
X214145715Y-92019429D01*
X214098096Y-91924190D01*
X214050477Y-91876571D01*
X213955239Y-91828952D01*
M02*
