%TF.GenerationSoftware,KiCad,Pcbnew,4.0.7*%
%TF.CreationDate,2018-04-11T16:25:57+03:00*%
%TF.ProjectId,radar_01,72616461725F30312E6B696361645F70,rev?*%
%TF.FileFunction,Copper,L2,Bot,Signal*%
%FSLAX46Y46*%
G04 Gerber Fmt 4.6, Leading zero omitted, Abs format (unit mm)*
G04 Created by KiCad (PCBNEW 4.0.7) date 04/11/18 16:25:57*
%MOMM*%
%LPD*%
G01*
G04 APERTURE LIST*
%ADD10C,0.100000*%
%ADD11C,0.150000*%
%ADD12C,1.524000*%
%ADD13R,2.000000X1.600000*%
%ADD14R,1.600000X2.000000*%
%ADD15R,2.000000X2.000000*%
%ADD16C,2.000000*%
%ADD17R,2.000000X1.700000*%
%ADD18R,3.500000X2.700000*%
%ADD19R,2.700000X3.500000*%
%ADD20R,3.000000X3.000000*%
%ADD21C,3.000000*%
%ADD22R,2.500000X2.500000*%
%ADD23C,2.500000*%
%ADD24R,1.600000X1.600000*%
%ADD25O,1.600000X1.600000*%
%ADD26C,1.500000*%
%ADD27C,0.500000*%
%ADD28C,0.254000*%
G04 APERTURE END LIST*
D10*
D11*
X152400000Y-54610000D02*
X227330000Y-54610000D01*
X227330000Y-99060000D02*
X152400000Y-99060000D01*
X152400000Y-99060000D02*
X152400000Y-54610000D01*
X229870000Y-99060000D02*
X227330000Y-99060000D01*
X229870000Y-54610000D02*
X229870000Y-99060000D01*
X227330000Y-54610000D02*
X229870000Y-54610000D01*
X173990000Y-76835000D02*
G75*
G03X173990000Y-76835000I-1270000J0D01*
G01*
X212090000Y-76835000D02*
G75*
G03X212090000Y-76835000I-1270000J0D01*
G01*
X156210000Y-96520000D02*
G75*
G03X156210000Y-96520000I-1270000J0D01*
G01*
X156210000Y-57150000D02*
G75*
G03X156210000Y-57150000I-1270000J0D01*
G01*
X228600000Y-96520000D02*
G75*
G03X228600000Y-96520000I-1270000J0D01*
G01*
X228600000Y-57150000D02*
G75*
G03X228600000Y-57150000I-1270000J0D01*
G01*
D12*
X171450000Y-93980000D03*
X173990000Y-93980000D03*
X173990000Y-59690000D03*
X176530000Y-59690000D03*
X209550000Y-93980000D03*
X212090000Y-93980000D03*
X209550000Y-59690000D03*
X212090000Y-59690000D03*
D13*
X163290000Y-86360000D03*
X159290000Y-86360000D03*
D14*
X204470000Y-87090000D03*
X204470000Y-83090000D03*
D13*
X163290000Y-68580000D03*
X159290000Y-68580000D03*
D14*
X220980000Y-68040000D03*
X220980000Y-64040000D03*
D15*
X227330000Y-88900000D03*
D16*
X227330000Y-91440000D03*
D17*
X206470000Y-93980000D03*
X202470000Y-93980000D03*
D18*
X167230000Y-91440000D03*
X160430000Y-91440000D03*
D19*
X227330000Y-79150000D03*
X227330000Y-85950000D03*
D18*
X205330000Y-57150000D03*
X198530000Y-57150000D03*
D20*
X160020000Y-95250000D03*
D21*
X165100000Y-95250000D03*
D20*
X165100000Y-58420000D03*
D21*
X160020000Y-58420000D03*
D12*
X219710000Y-96520000D03*
X222250000Y-96520000D03*
X217170000Y-96520000D03*
X219710000Y-57150000D03*
X222250000Y-57150000D03*
X217170000Y-57150000D03*
D22*
X154290000Y-86470000D03*
D23*
X168290000Y-86470000D03*
X168290000Y-68470000D03*
X154290000Y-68470000D03*
X156790000Y-86470000D03*
X165790000Y-86470000D03*
X165790000Y-68470000D03*
X156790000Y-68470000D03*
D24*
X217170000Y-62230000D03*
D25*
X224790000Y-69850000D03*
X217170000Y-64770000D03*
X224790000Y-67310000D03*
X217170000Y-67310000D03*
X224790000Y-64770000D03*
X217170000Y-69850000D03*
X224790000Y-62230000D03*
D26*
X217170000Y-73660000D03*
X215900000Y-88900000D03*
X199390000Y-88900000D03*
X200660000Y-67310000D03*
X203200000Y-59690000D03*
X207010000Y-81280000D03*
X214630000Y-73660000D03*
X209550000Y-73660000D03*
X191770000Y-57150000D03*
D27*
X206470000Y-93980000D02*
X209550000Y-93980000D01*
X163290000Y-86360000D02*
X165680000Y-86360000D01*
X165680000Y-86360000D02*
X165790000Y-86470000D01*
X168290000Y-86470000D02*
X168290000Y-90380000D01*
X168290000Y-90380000D02*
X167230000Y-91440000D01*
X167230000Y-91440000D02*
X167640000Y-91440000D01*
X167640000Y-91440000D02*
X168370000Y-90710000D01*
X173990000Y-93980000D02*
X173990000Y-83185000D01*
X163735000Y-81915000D02*
X159290000Y-86360000D01*
X172720000Y-81915000D02*
X163735000Y-81915000D01*
X173990000Y-83185000D02*
X172720000Y-81915000D01*
X156790000Y-86470000D02*
X156900000Y-86360000D01*
X156900000Y-86360000D02*
X159290000Y-86360000D01*
X161290000Y-62230000D02*
X161290000Y-59690000D01*
X173990000Y-60960000D02*
X172720000Y-62230000D01*
X172720000Y-62230000D02*
X161290000Y-62230000D01*
X173990000Y-59690000D02*
X173990000Y-60960000D01*
X161290000Y-59690000D02*
X160020000Y-58420000D01*
X202470000Y-93980000D02*
X177800000Y-93980000D01*
X177800000Y-93980000D02*
X173990000Y-93980000D01*
X165100000Y-95250000D02*
X170180000Y-95250000D01*
X170180000Y-95250000D02*
X171450000Y-93980000D01*
X215900000Y-88900000D02*
X215900000Y-74930000D01*
X215900000Y-74930000D02*
X217170000Y-73660000D01*
X171450000Y-93980000D02*
X173990000Y-93980000D01*
X173990000Y-59690000D02*
X176530000Y-59690000D01*
X203200000Y-88900000D02*
X215900000Y-88900000D01*
X202470000Y-93980000D02*
X202470000Y-89630000D01*
X202470000Y-89630000D02*
X203200000Y-88900000D01*
X204470000Y-87090000D02*
X204470000Y-87630000D01*
X204470000Y-87630000D02*
X203200000Y-88900000D01*
X203200000Y-88900000D02*
X199390000Y-88900000D01*
X217170000Y-69850000D02*
X219710000Y-69850000D01*
X219710000Y-69850000D02*
X220980000Y-68580000D01*
X220980000Y-68580000D02*
X220980000Y-68040000D01*
X168290000Y-68470000D02*
X165790000Y-68470000D01*
X165790000Y-68470000D02*
X165680000Y-68580000D01*
X165680000Y-68580000D02*
X163290000Y-68580000D01*
X200660000Y-62230000D02*
X200660000Y-67310000D01*
X203200000Y-59690000D02*
X200660000Y-62230000D01*
X204470000Y-83090000D02*
X204470000Y-82550000D01*
X212090000Y-59690000D02*
X223520000Y-59690000D01*
X223520000Y-59690000D02*
X224790000Y-60960000D01*
X224790000Y-60960000D02*
X224790000Y-62230000D01*
X204470000Y-82550000D02*
X205740000Y-81280000D01*
X205740000Y-81280000D02*
X207010000Y-81280000D01*
X224790000Y-62230000D02*
X222250000Y-62230000D01*
X222250000Y-62230000D02*
X220980000Y-63500000D01*
X220980000Y-63500000D02*
X220980000Y-64040000D01*
X219710000Y-96520000D02*
X222250000Y-96520000D01*
X217170000Y-64770000D02*
X218440000Y-64770000D01*
X223520000Y-69850000D02*
X224790000Y-69850000D01*
X223520000Y-67310000D02*
X223520000Y-69850000D01*
X222250000Y-66040000D02*
X223520000Y-67310000D01*
X219710000Y-66040000D02*
X222250000Y-66040000D01*
X218440000Y-64770000D02*
X219710000Y-66040000D01*
X209550000Y-73660000D02*
X214630000Y-73660000D01*
X227330000Y-88900000D02*
X227330000Y-85950000D01*
X160020000Y-95250000D02*
X160020000Y-91850000D01*
X160020000Y-91850000D02*
X160430000Y-91440000D01*
X212090000Y-62230000D02*
X207010000Y-62230000D01*
X205740000Y-60960000D02*
X205740000Y-57560000D01*
X207010000Y-62230000D02*
X205740000Y-60960000D01*
X205740000Y-57560000D02*
X205330000Y-57150000D01*
X227330000Y-72390000D02*
X213360000Y-72390000D01*
X212090000Y-71120000D02*
X212090000Y-62230000D01*
X213360000Y-72390000D02*
X212090000Y-71120000D01*
X217170000Y-62230000D02*
X212090000Y-62230000D01*
X227330000Y-79150000D02*
X227330000Y-72390000D01*
X227330000Y-72390000D02*
X227330000Y-66040000D01*
X226060000Y-64770000D02*
X224790000Y-64770000D01*
X227330000Y-66040000D02*
X226060000Y-64770000D01*
X165100000Y-58420000D02*
X166370000Y-58420000D01*
X166370000Y-58420000D02*
X167640000Y-57150000D01*
X167640000Y-57150000D02*
X191770000Y-57150000D01*
X191770000Y-57150000D02*
X198530000Y-57150000D01*
D28*
G36*
X196328559Y-55335910D02*
X196183569Y-55548110D01*
X196132560Y-55800000D01*
X196132560Y-56265000D01*
X192843523Y-56265000D01*
X192555564Y-55976539D01*
X192046702Y-55765241D01*
X191495715Y-55764760D01*
X190986485Y-55975169D01*
X190696148Y-56265000D01*
X167640005Y-56265000D01*
X167640000Y-56264999D01*
X167345555Y-56323569D01*
X167301325Y-56332367D01*
X167074135Y-56484170D01*
X167064090Y-56468559D01*
X166851890Y-56323569D01*
X166600000Y-56272560D01*
X163600000Y-56272560D01*
X163364683Y-56316838D01*
X163148559Y-56455910D01*
X163003569Y-56668110D01*
X162952560Y-56920000D01*
X162952560Y-59920000D01*
X162996838Y-60155317D01*
X163135910Y-60371441D01*
X163348110Y-60516431D01*
X163600000Y-60567440D01*
X166600000Y-60567440D01*
X166835317Y-60523162D01*
X167051441Y-60384090D01*
X167196431Y-60171890D01*
X167247440Y-59920000D01*
X167247440Y-59482302D01*
X172580856Y-59482302D01*
X172608638Y-60037368D01*
X172767603Y-60421143D01*
X173009787Y-60490608D01*
X173810395Y-59690000D01*
X174169605Y-59690000D01*
X174970213Y-60490608D01*
X175212397Y-60421143D01*
X175256453Y-60297656D01*
X175307603Y-60421143D01*
X175549787Y-60490608D01*
X176350395Y-59690000D01*
X176709605Y-59690000D01*
X177510213Y-60490608D01*
X177752397Y-60421143D01*
X177939144Y-59897698D01*
X177911362Y-59342632D01*
X177752397Y-58958857D01*
X177510213Y-58889392D01*
X176709605Y-59690000D01*
X176350395Y-59690000D01*
X175549787Y-58889392D01*
X175307603Y-58958857D01*
X175263547Y-59082344D01*
X175212397Y-58958857D01*
X174970213Y-58889392D01*
X174169605Y-59690000D01*
X173810395Y-59690000D01*
X173009787Y-58889392D01*
X172767603Y-58958857D01*
X172580856Y-59482302D01*
X167247440Y-59482302D01*
X167247440Y-58794140D01*
X167331792Y-58709787D01*
X173189392Y-58709787D01*
X173990000Y-59510395D01*
X174790608Y-58709787D01*
X175729392Y-58709787D01*
X176530000Y-59510395D01*
X177330608Y-58709787D01*
X177261143Y-58467603D01*
X176737698Y-58280856D01*
X176182632Y-58308638D01*
X175798857Y-58467603D01*
X175729392Y-58709787D01*
X174790608Y-58709787D01*
X174721143Y-58467603D01*
X174197698Y-58280856D01*
X173642632Y-58308638D01*
X173258857Y-58467603D01*
X173189392Y-58709787D01*
X167331792Y-58709787D01*
X168006579Y-58035000D01*
X190696477Y-58035000D01*
X190984436Y-58323461D01*
X191493298Y-58534759D01*
X192044285Y-58535240D01*
X192553515Y-58324831D01*
X192843852Y-58035000D01*
X196132560Y-58035000D01*
X196132560Y-58500000D01*
X196176838Y-58735317D01*
X196315910Y-58951441D01*
X196528110Y-59096431D01*
X196780000Y-59147440D01*
X200280000Y-59147440D01*
X200515317Y-59103162D01*
X200731441Y-58964090D01*
X200876431Y-58751890D01*
X200927440Y-58500000D01*
X200927440Y-55800000D01*
X200883162Y-55564683D01*
X200744090Y-55348559D01*
X200702292Y-55320000D01*
X203153284Y-55320000D01*
X203128559Y-55335910D01*
X202983569Y-55548110D01*
X202932560Y-55800000D01*
X202932560Y-58304766D01*
X202925715Y-58304760D01*
X202416485Y-58515169D01*
X202026539Y-58904436D01*
X201815241Y-59413298D01*
X201814883Y-59823538D01*
X200034210Y-61604210D01*
X199842367Y-61891325D01*
X199842367Y-61891326D01*
X199774999Y-62230000D01*
X199775000Y-62230005D01*
X199775000Y-66236477D01*
X199486539Y-66524436D01*
X199275241Y-67033298D01*
X199274760Y-67584285D01*
X199485169Y-68093515D01*
X199874436Y-68483461D01*
X200383298Y-68694759D01*
X200934285Y-68695240D01*
X201443515Y-68484831D01*
X201833461Y-68095564D01*
X202044759Y-67586702D01*
X202045240Y-67035715D01*
X201834831Y-66526485D01*
X201545000Y-66236148D01*
X201545000Y-62596580D01*
X203066695Y-61074884D01*
X203474285Y-61075240D01*
X203983515Y-60864831D01*
X204373461Y-60475564D01*
X204584759Y-59966702D01*
X204585240Y-59415715D01*
X204474391Y-59147440D01*
X204855000Y-59147440D01*
X204855000Y-60959995D01*
X204854999Y-60960000D01*
X204905783Y-61215302D01*
X204922367Y-61298675D01*
X205010115Y-61430000D01*
X205114210Y-61585790D01*
X206384208Y-62855787D01*
X206384210Y-62855790D01*
X206644935Y-63030000D01*
X206671325Y-63047633D01*
X207010000Y-63115001D01*
X207010005Y-63115000D01*
X211205000Y-63115000D01*
X211205000Y-71119995D01*
X211204999Y-71120000D01*
X211261190Y-71402484D01*
X211272367Y-71458675D01*
X211464210Y-71745790D01*
X212493421Y-72775000D01*
X210623523Y-72775000D01*
X210335564Y-72486539D01*
X209826702Y-72275241D01*
X209275715Y-72274760D01*
X208766485Y-72485169D01*
X208376539Y-72874436D01*
X208165241Y-73383298D01*
X208164760Y-73934285D01*
X208375169Y-74443515D01*
X208764436Y-74833461D01*
X209273298Y-75044759D01*
X209824285Y-75045240D01*
X210333515Y-74834831D01*
X210623852Y-74545000D01*
X213556477Y-74545000D01*
X213844436Y-74833461D01*
X214353298Y-75044759D01*
X214904285Y-75045240D01*
X215413515Y-74834831D01*
X215803461Y-74445564D01*
X216014759Y-73936702D01*
X216015240Y-73385715D01*
X215969494Y-73275000D01*
X226445000Y-73275000D01*
X226445000Y-76752560D01*
X225980000Y-76752560D01*
X225744683Y-76796838D01*
X225528559Y-76935910D01*
X225383569Y-77148110D01*
X225332560Y-77400000D01*
X225332560Y-80900000D01*
X225376838Y-81135317D01*
X225515910Y-81351441D01*
X225728110Y-81496431D01*
X225980000Y-81547440D01*
X228680000Y-81547440D01*
X228915317Y-81503162D01*
X229131441Y-81364090D01*
X229160000Y-81322292D01*
X229160000Y-83773284D01*
X229144090Y-83748559D01*
X228931890Y-83603569D01*
X228680000Y-83552560D01*
X225980000Y-83552560D01*
X225744683Y-83596838D01*
X225528559Y-83735910D01*
X225383569Y-83948110D01*
X225332560Y-84200000D01*
X225332560Y-87700000D01*
X225376838Y-87935317D01*
X225515910Y-88151441D01*
X225682560Y-88265308D01*
X225682560Y-89900000D01*
X225726838Y-90135317D01*
X225865910Y-90351441D01*
X226008561Y-90448910D01*
X225944722Y-90512637D01*
X225695284Y-91113352D01*
X225694716Y-91763795D01*
X225943106Y-92364943D01*
X226402637Y-92825278D01*
X227003352Y-93074716D01*
X227653795Y-93075284D01*
X228254943Y-92826894D01*
X228715278Y-92367363D01*
X228964716Y-91766648D01*
X228965284Y-91116205D01*
X228716894Y-90515057D01*
X228650379Y-90448426D01*
X228781441Y-90364090D01*
X228926431Y-90151890D01*
X228977440Y-89900000D01*
X228977440Y-88263187D01*
X229131441Y-88164090D01*
X229160000Y-88122292D01*
X229160000Y-95765902D01*
X229159281Y-95762287D01*
X228730071Y-95119929D01*
X228087713Y-94690719D01*
X227330000Y-94540000D01*
X226572287Y-94690719D01*
X225929929Y-95119929D01*
X225500719Y-95762287D01*
X225350000Y-96520000D01*
X225500719Y-97277713D01*
X225929929Y-97920071D01*
X226572287Y-98349281D01*
X226575902Y-98350000D01*
X155694098Y-98350000D01*
X155697713Y-98349281D01*
X156340071Y-97920071D01*
X156769281Y-97277713D01*
X156920000Y-96520000D01*
X156769281Y-95762287D01*
X156340071Y-95119929D01*
X155697713Y-94690719D01*
X154940000Y-94540000D01*
X154182287Y-94690719D01*
X153539929Y-95119929D01*
X153110719Y-95762287D01*
X153110000Y-95765902D01*
X153110000Y-93750000D01*
X157872560Y-93750000D01*
X157872560Y-96750000D01*
X157916838Y-96985317D01*
X158055910Y-97201441D01*
X158268110Y-97346431D01*
X158520000Y-97397440D01*
X161520000Y-97397440D01*
X161755317Y-97353162D01*
X161971441Y-97214090D01*
X162116431Y-97001890D01*
X162164611Y-96763970D01*
X163765635Y-96763970D01*
X163925418Y-97082739D01*
X164716187Y-97392723D01*
X165565387Y-97376497D01*
X166274582Y-97082739D01*
X166417978Y-96796661D01*
X215772758Y-96796661D01*
X215984990Y-97310303D01*
X216377630Y-97703629D01*
X216890900Y-97916757D01*
X217446661Y-97917242D01*
X217960303Y-97705010D01*
X218353629Y-97312370D01*
X218439949Y-97104488D01*
X218524990Y-97310303D01*
X218917630Y-97703629D01*
X219430900Y-97916757D01*
X219986661Y-97917242D01*
X220500303Y-97705010D01*
X220800837Y-97405000D01*
X221159522Y-97405000D01*
X221457630Y-97703629D01*
X221970900Y-97916757D01*
X222526661Y-97917242D01*
X223040303Y-97705010D01*
X223433629Y-97312370D01*
X223646757Y-96799100D01*
X223647242Y-96243339D01*
X223435010Y-95729697D01*
X223042370Y-95336371D01*
X222529100Y-95123243D01*
X221973339Y-95122758D01*
X221459697Y-95334990D01*
X221159163Y-95635000D01*
X220800478Y-95635000D01*
X220502370Y-95336371D01*
X219989100Y-95123243D01*
X219433339Y-95122758D01*
X218919697Y-95334990D01*
X218526371Y-95727630D01*
X218440051Y-95935512D01*
X218355010Y-95729697D01*
X217962370Y-95336371D01*
X217449100Y-95123243D01*
X216893339Y-95122758D01*
X216379697Y-95334990D01*
X215986371Y-95727630D01*
X215773243Y-96240900D01*
X215772758Y-96796661D01*
X166417978Y-96796661D01*
X166434365Y-96763970D01*
X165100000Y-95429605D01*
X163765635Y-96763970D01*
X162164611Y-96763970D01*
X162167440Y-96750000D01*
X162167440Y-94866187D01*
X162957277Y-94866187D01*
X162973503Y-95715387D01*
X163267261Y-96424582D01*
X163586030Y-96584365D01*
X164920395Y-95250000D01*
X165279605Y-95250000D01*
X166613970Y-96584365D01*
X166932739Y-96424582D01*
X167242723Y-95633813D01*
X167229853Y-94960213D01*
X170649392Y-94960213D01*
X170718857Y-95202397D01*
X171242302Y-95389144D01*
X171797368Y-95361362D01*
X172181143Y-95202397D01*
X172250608Y-94960213D01*
X173189392Y-94960213D01*
X173258857Y-95202397D01*
X173782302Y-95389144D01*
X174337368Y-95361362D01*
X174721143Y-95202397D01*
X174790608Y-94960213D01*
X173990000Y-94159605D01*
X173189392Y-94960213D01*
X172250608Y-94960213D01*
X171450000Y-94159605D01*
X170649392Y-94960213D01*
X167229853Y-94960213D01*
X167226497Y-94784613D01*
X166932739Y-94075418D01*
X166613970Y-93915635D01*
X165279605Y-95250000D01*
X164920395Y-95250000D01*
X163586030Y-93915635D01*
X163267261Y-94075418D01*
X162957277Y-94866187D01*
X162167440Y-94866187D01*
X162167440Y-93750000D01*
X162123162Y-93514683D01*
X162073457Y-93437440D01*
X162180000Y-93437440D01*
X162415317Y-93393162D01*
X162631441Y-93254090D01*
X162776431Y-93041890D01*
X162827440Y-92790000D01*
X162827440Y-90090000D01*
X162783162Y-89854683D01*
X162644090Y-89638559D01*
X162431890Y-89493569D01*
X162180000Y-89442560D01*
X158680000Y-89442560D01*
X158444683Y-89486838D01*
X158228559Y-89625910D01*
X158083569Y-89838110D01*
X158032560Y-90090000D01*
X158032560Y-92790000D01*
X158076838Y-93025317D01*
X158192998Y-93205835D01*
X158068559Y-93285910D01*
X157923569Y-93498110D01*
X157872560Y-93750000D01*
X153110000Y-93750000D01*
X153110000Y-88355000D01*
X154004250Y-88355000D01*
X154163000Y-88196250D01*
X154163000Y-86597000D01*
X154143000Y-86597000D01*
X154143000Y-86343000D01*
X154163000Y-86343000D01*
X154163000Y-84743750D01*
X154417000Y-84743750D01*
X154417000Y-86343000D01*
X154437000Y-86343000D01*
X154437000Y-86597000D01*
X154417000Y-86597000D01*
X154417000Y-88196250D01*
X154575750Y-88355000D01*
X155666310Y-88355000D01*
X155899699Y-88258327D01*
X155979814Y-88178211D01*
X156465806Y-88364388D01*
X157215435Y-88344250D01*
X157814467Y-88096123D01*
X157943715Y-87803320D01*
X156790000Y-86649605D01*
X156775858Y-86663748D01*
X156596253Y-86484143D01*
X156610395Y-86470000D01*
X156596253Y-86455858D01*
X156775858Y-86276253D01*
X156790000Y-86290395D01*
X156804143Y-86276253D01*
X156983748Y-86455858D01*
X156969605Y-86470000D01*
X157655000Y-87155395D01*
X157655000Y-87286310D01*
X157751673Y-87519699D01*
X157930302Y-87698327D01*
X158163691Y-87795000D01*
X159004250Y-87795000D01*
X159163000Y-87636250D01*
X159163000Y-86487000D01*
X159417000Y-86487000D01*
X159417000Y-87636250D01*
X159575750Y-87795000D01*
X160416309Y-87795000D01*
X160649698Y-87698327D01*
X160828327Y-87519699D01*
X160925000Y-87286310D01*
X160925000Y-86645750D01*
X160766250Y-86487000D01*
X159417000Y-86487000D01*
X159163000Y-86487000D01*
X159143000Y-86487000D01*
X159143000Y-86233000D01*
X159163000Y-86233000D01*
X159163000Y-85083750D01*
X159417000Y-85083750D01*
X159417000Y-86233000D01*
X160766250Y-86233000D01*
X160925000Y-86074250D01*
X160925000Y-85560000D01*
X161642560Y-85560000D01*
X161642560Y-87160000D01*
X161686838Y-87395317D01*
X161825910Y-87611441D01*
X162038110Y-87756431D01*
X162290000Y-87807440D01*
X164290000Y-87807440D01*
X164434497Y-87780251D01*
X164720839Y-88067093D01*
X165413405Y-88354672D01*
X166163305Y-88355326D01*
X166856372Y-88068957D01*
X167039855Y-87885793D01*
X167220839Y-88067093D01*
X167405000Y-88143563D01*
X167405000Y-89442560D01*
X165480000Y-89442560D01*
X165244683Y-89486838D01*
X165028559Y-89625910D01*
X164883569Y-89838110D01*
X164832560Y-90090000D01*
X164832560Y-92790000D01*
X164876838Y-93025317D01*
X164936310Y-93117738D01*
X164634613Y-93123503D01*
X163925418Y-93417261D01*
X163765635Y-93736030D01*
X165100000Y-95070395D01*
X166398093Y-93772302D01*
X170040856Y-93772302D01*
X170068638Y-94327368D01*
X170227603Y-94711143D01*
X170469787Y-94780608D01*
X171270395Y-93980000D01*
X171629605Y-93980000D01*
X172430213Y-94780608D01*
X172672397Y-94711143D01*
X172716453Y-94587656D01*
X172767603Y-94711143D01*
X173009787Y-94780608D01*
X173810395Y-93980000D01*
X174169605Y-93980000D01*
X174970213Y-94780608D01*
X175212397Y-94711143D01*
X175371297Y-94265750D01*
X200835000Y-94265750D01*
X200835000Y-94956310D01*
X200931673Y-95189699D01*
X201110302Y-95368327D01*
X201343691Y-95465000D01*
X202184250Y-95465000D01*
X202343000Y-95306250D01*
X202343000Y-94107000D01*
X202597000Y-94107000D01*
X202597000Y-95306250D01*
X202755750Y-95465000D01*
X203596309Y-95465000D01*
X203829698Y-95368327D01*
X204008327Y-95189699D01*
X204105000Y-94956310D01*
X204105000Y-94265750D01*
X203946250Y-94107000D01*
X202597000Y-94107000D01*
X202343000Y-94107000D01*
X200993750Y-94107000D01*
X200835000Y-94265750D01*
X175371297Y-94265750D01*
X175399144Y-94187698D01*
X175371362Y-93632632D01*
X175212397Y-93248857D01*
X174970213Y-93179392D01*
X174169605Y-93980000D01*
X173810395Y-93980000D01*
X173009787Y-93179392D01*
X172767603Y-93248857D01*
X172723547Y-93372344D01*
X172672397Y-93248857D01*
X172430213Y-93179392D01*
X171629605Y-93980000D01*
X171270395Y-93980000D01*
X170469787Y-93179392D01*
X170227603Y-93248857D01*
X170040856Y-93772302D01*
X166398093Y-93772302D01*
X166434365Y-93736030D01*
X166284697Y-93437440D01*
X168980000Y-93437440D01*
X169215317Y-93393162D01*
X169431441Y-93254090D01*
X169576431Y-93041890D01*
X169584957Y-92999787D01*
X170649392Y-92999787D01*
X171450000Y-93800395D01*
X172250608Y-92999787D01*
X173189392Y-92999787D01*
X173990000Y-93800395D01*
X174786705Y-93003690D01*
X200835000Y-93003690D01*
X200835000Y-93694250D01*
X200993750Y-93853000D01*
X202343000Y-93853000D01*
X202343000Y-92653750D01*
X202597000Y-92653750D01*
X202597000Y-93853000D01*
X203946250Y-93853000D01*
X204105000Y-93694250D01*
X204105000Y-93130000D01*
X204822560Y-93130000D01*
X204822560Y-94830000D01*
X204866838Y-95065317D01*
X205005910Y-95281441D01*
X205218110Y-95426431D01*
X205470000Y-95477440D01*
X207470000Y-95477440D01*
X207705317Y-95433162D01*
X207921441Y-95294090D01*
X208066431Y-95081890D01*
X208110352Y-94865000D01*
X208459522Y-94865000D01*
X208757630Y-95163629D01*
X209270900Y-95376757D01*
X209826661Y-95377242D01*
X210340303Y-95165010D01*
X210733629Y-94772370D01*
X210819949Y-94564488D01*
X210904990Y-94770303D01*
X211297630Y-95163629D01*
X211810900Y-95376757D01*
X212366661Y-95377242D01*
X212880303Y-95165010D01*
X213273629Y-94772370D01*
X213486757Y-94259100D01*
X213487242Y-93703339D01*
X213275010Y-93189697D01*
X212882370Y-92796371D01*
X212369100Y-92583243D01*
X211813339Y-92582758D01*
X211299697Y-92794990D01*
X210906371Y-93187630D01*
X210820051Y-93395512D01*
X210735010Y-93189697D01*
X210342370Y-92796371D01*
X209829100Y-92583243D01*
X209273339Y-92582758D01*
X208759697Y-92794990D01*
X208459163Y-93095000D01*
X208110854Y-93095000D01*
X208073162Y-92894683D01*
X207934090Y-92678559D01*
X207721890Y-92533569D01*
X207470000Y-92482560D01*
X205470000Y-92482560D01*
X205234683Y-92526838D01*
X205018559Y-92665910D01*
X204873569Y-92878110D01*
X204822560Y-93130000D01*
X204105000Y-93130000D01*
X204105000Y-93003690D01*
X204008327Y-92770301D01*
X203829698Y-92591673D01*
X203596309Y-92495000D01*
X202755750Y-92495000D01*
X202597000Y-92653750D01*
X202343000Y-92653750D01*
X202184250Y-92495000D01*
X201343691Y-92495000D01*
X201110302Y-92591673D01*
X200931673Y-92770301D01*
X200835000Y-93003690D01*
X174786705Y-93003690D01*
X174790608Y-92999787D01*
X174721143Y-92757603D01*
X174197698Y-92570856D01*
X173642632Y-92598638D01*
X173258857Y-92757603D01*
X173189392Y-92999787D01*
X172250608Y-92999787D01*
X172181143Y-92757603D01*
X171657698Y-92570856D01*
X171102632Y-92598638D01*
X170718857Y-92757603D01*
X170649392Y-92999787D01*
X169584957Y-92999787D01*
X169627440Y-92790000D01*
X169627440Y-90090000D01*
X169583162Y-89854683D01*
X169444090Y-89638559D01*
X169231890Y-89493569D01*
X169175000Y-89482048D01*
X169175000Y-88143898D01*
X169356372Y-88068957D01*
X169887093Y-87539161D01*
X169954947Y-87375750D01*
X203035000Y-87375750D01*
X203035000Y-88216309D01*
X203131673Y-88449698D01*
X203310301Y-88628327D01*
X203543690Y-88725000D01*
X204184250Y-88725000D01*
X204343000Y-88566250D01*
X204343000Y-87217000D01*
X204597000Y-87217000D01*
X204597000Y-88566250D01*
X204755750Y-88725000D01*
X205396310Y-88725000D01*
X205629699Y-88628327D01*
X205808327Y-88449698D01*
X205905000Y-88216309D01*
X205905000Y-87375750D01*
X205746250Y-87217000D01*
X204597000Y-87217000D01*
X204343000Y-87217000D01*
X203193750Y-87217000D01*
X203035000Y-87375750D01*
X169954947Y-87375750D01*
X170174672Y-86846595D01*
X170175326Y-86096695D01*
X170120370Y-85963691D01*
X203035000Y-85963691D01*
X203035000Y-86804250D01*
X203193750Y-86963000D01*
X204343000Y-86963000D01*
X204343000Y-85613750D01*
X204597000Y-85613750D01*
X204597000Y-86963000D01*
X205746250Y-86963000D01*
X205905000Y-86804250D01*
X205905000Y-85963691D01*
X205808327Y-85730302D01*
X205629699Y-85551673D01*
X205396310Y-85455000D01*
X204755750Y-85455000D01*
X204597000Y-85613750D01*
X204343000Y-85613750D01*
X204184250Y-85455000D01*
X203543690Y-85455000D01*
X203310301Y-85551673D01*
X203131673Y-85730302D01*
X203035000Y-85963691D01*
X170120370Y-85963691D01*
X169888957Y-85403628D01*
X169359161Y-84872907D01*
X168666595Y-84585328D01*
X167916695Y-84584674D01*
X167223628Y-84871043D01*
X167040145Y-85054207D01*
X166859161Y-84872907D01*
X166166595Y-84585328D01*
X165416695Y-84584674D01*
X164723628Y-84871043D01*
X164594756Y-84999691D01*
X164541890Y-84963569D01*
X164290000Y-84912560D01*
X162290000Y-84912560D01*
X162054683Y-84956838D01*
X161838559Y-85095910D01*
X161693569Y-85308110D01*
X161642560Y-85560000D01*
X160925000Y-85560000D01*
X160925000Y-85433690D01*
X160828327Y-85200301D01*
X160649698Y-85021673D01*
X160416309Y-84925000D01*
X159575750Y-84925000D01*
X159417000Y-85083750D01*
X159163000Y-85083750D01*
X159004250Y-84925000D01*
X158163691Y-84925000D01*
X157930302Y-85021673D01*
X157904388Y-85047587D01*
X157814467Y-84843877D01*
X157114194Y-84575612D01*
X156364565Y-84595750D01*
X155975098Y-84757072D01*
X155899699Y-84681673D01*
X155666310Y-84585000D01*
X154575750Y-84585000D01*
X154417000Y-84743750D01*
X154163000Y-84743750D01*
X154004250Y-84585000D01*
X153110000Y-84585000D01*
X153110000Y-82090000D01*
X203022560Y-82090000D01*
X203022560Y-84090000D01*
X203066838Y-84325317D01*
X203205910Y-84541441D01*
X203418110Y-84686431D01*
X203670000Y-84737440D01*
X205270000Y-84737440D01*
X205505317Y-84693162D01*
X205721441Y-84554090D01*
X205866431Y-84341890D01*
X205917440Y-84090000D01*
X205917440Y-82354139D01*
X206021454Y-82250125D01*
X206224436Y-82453461D01*
X206733298Y-82664759D01*
X207284285Y-82665240D01*
X207793515Y-82454831D01*
X208183461Y-82065564D01*
X208394759Y-81556702D01*
X208395240Y-81005715D01*
X208184831Y-80496485D01*
X207795564Y-80106539D01*
X207286702Y-79895241D01*
X206735715Y-79894760D01*
X206226485Y-80105169D01*
X205936148Y-80395000D01*
X205740005Y-80395000D01*
X205740000Y-80394999D01*
X205401325Y-80462367D01*
X205114210Y-80654210D01*
X205114208Y-80654213D01*
X204325860Y-81442560D01*
X203670000Y-81442560D01*
X203434683Y-81486838D01*
X203218559Y-81625910D01*
X203073569Y-81838110D01*
X203022560Y-82090000D01*
X153110000Y-82090000D01*
X153110000Y-76835000D01*
X170740000Y-76835000D01*
X170890719Y-77592713D01*
X171319929Y-78235071D01*
X171962287Y-78664281D01*
X172720000Y-78815000D01*
X173477713Y-78664281D01*
X174120071Y-78235071D01*
X174549281Y-77592713D01*
X174700000Y-76835000D01*
X208840000Y-76835000D01*
X208990719Y-77592713D01*
X209419929Y-78235071D01*
X210062287Y-78664281D01*
X210820000Y-78815000D01*
X211577713Y-78664281D01*
X212220071Y-78235071D01*
X212649281Y-77592713D01*
X212800000Y-76835000D01*
X212649281Y-76077287D01*
X212220071Y-75434929D01*
X211577713Y-75005719D01*
X210820000Y-74855000D01*
X210062287Y-75005719D01*
X209419929Y-75434929D01*
X208990719Y-76077287D01*
X208840000Y-76835000D01*
X174700000Y-76835000D01*
X174549281Y-76077287D01*
X174120071Y-75434929D01*
X173477713Y-75005719D01*
X172720000Y-74855000D01*
X171962287Y-75005719D01*
X171319929Y-75434929D01*
X170890719Y-76077287D01*
X170740000Y-76835000D01*
X153110000Y-76835000D01*
X153110000Y-69829608D01*
X153136286Y-69803322D01*
X153265533Y-70096123D01*
X153965806Y-70364388D01*
X154715435Y-70344250D01*
X155314467Y-70096123D01*
X155433029Y-69827529D01*
X155522554Y-69917054D01*
X155540000Y-69899608D01*
X155557446Y-69917054D01*
X155646971Y-69827529D01*
X155765533Y-70096123D01*
X156465806Y-70364388D01*
X157215435Y-70344250D01*
X157814467Y-70096123D01*
X157904388Y-69892413D01*
X157930302Y-69918327D01*
X158163691Y-70015000D01*
X159004250Y-70015000D01*
X159163000Y-69856250D01*
X159163000Y-68707000D01*
X159417000Y-68707000D01*
X159417000Y-69856250D01*
X159575750Y-70015000D01*
X160416309Y-70015000D01*
X160649698Y-69918327D01*
X160828327Y-69739699D01*
X160925000Y-69506310D01*
X160925000Y-68865750D01*
X160766250Y-68707000D01*
X159417000Y-68707000D01*
X159163000Y-68707000D01*
X159143000Y-68707000D01*
X159143000Y-68453000D01*
X159163000Y-68453000D01*
X159163000Y-67303750D01*
X159417000Y-67303750D01*
X159417000Y-68453000D01*
X160766250Y-68453000D01*
X160925000Y-68294250D01*
X160925000Y-67780000D01*
X161642560Y-67780000D01*
X161642560Y-69380000D01*
X161686838Y-69615317D01*
X161825910Y-69831441D01*
X162038110Y-69976431D01*
X162290000Y-70027440D01*
X164290000Y-70027440D01*
X164525317Y-69983162D01*
X164593352Y-69939383D01*
X164720839Y-70067093D01*
X165413405Y-70354672D01*
X166163305Y-70355326D01*
X166856372Y-70068957D01*
X167039855Y-69885793D01*
X167220839Y-70067093D01*
X167913405Y-70354672D01*
X168663305Y-70355326D01*
X169356372Y-70068957D01*
X169887093Y-69539161D01*
X170174672Y-68846595D01*
X170175326Y-68096695D01*
X169888957Y-67403628D01*
X169359161Y-66872907D01*
X168666595Y-66585328D01*
X167916695Y-66584674D01*
X167223628Y-66871043D01*
X167040145Y-67054207D01*
X166859161Y-66872907D01*
X166166595Y-66585328D01*
X165416695Y-66584674D01*
X164723628Y-66871043D01*
X164432705Y-67161459D01*
X164290000Y-67132560D01*
X162290000Y-67132560D01*
X162054683Y-67176838D01*
X161838559Y-67315910D01*
X161693569Y-67528110D01*
X161642560Y-67780000D01*
X160925000Y-67780000D01*
X160925000Y-67653690D01*
X160828327Y-67420301D01*
X160649698Y-67241673D01*
X160416309Y-67145000D01*
X159575750Y-67145000D01*
X159417000Y-67303750D01*
X159163000Y-67303750D01*
X159004250Y-67145000D01*
X158163691Y-67145000D01*
X157930302Y-67241673D01*
X157751673Y-67420301D01*
X157655000Y-67653690D01*
X157655000Y-67784605D01*
X156969605Y-68470000D01*
X156983748Y-68484143D01*
X156804143Y-68663748D01*
X156790000Y-68649605D01*
X156775858Y-68663748D01*
X156596253Y-68484143D01*
X156610395Y-68470000D01*
X156596253Y-68455858D01*
X156775858Y-68276253D01*
X156790000Y-68290395D01*
X157943715Y-67136680D01*
X157814467Y-66843877D01*
X157114194Y-66575612D01*
X156364565Y-66595750D01*
X155765533Y-66843877D01*
X155646971Y-67112471D01*
X155557446Y-67022946D01*
X155540000Y-67040392D01*
X155522554Y-67022946D01*
X155433029Y-67112471D01*
X155314467Y-66843877D01*
X154614194Y-66575612D01*
X153864565Y-66595750D01*
X153265533Y-66843877D01*
X153136286Y-67136678D01*
X153110000Y-67110392D01*
X153110000Y-60670213D01*
X173189392Y-60670213D01*
X173258857Y-60912397D01*
X173782302Y-61099144D01*
X174337368Y-61071362D01*
X174721143Y-60912397D01*
X174790608Y-60670213D01*
X175729392Y-60670213D01*
X175798857Y-60912397D01*
X176322302Y-61099144D01*
X176877368Y-61071362D01*
X177261143Y-60912397D01*
X177330608Y-60670213D01*
X176530000Y-59869605D01*
X175729392Y-60670213D01*
X174790608Y-60670213D01*
X173990000Y-59869605D01*
X173189392Y-60670213D01*
X153110000Y-60670213D01*
X153110000Y-59933970D01*
X158685635Y-59933970D01*
X158845418Y-60252739D01*
X159636187Y-60562723D01*
X160485387Y-60546497D01*
X161194582Y-60252739D01*
X161354365Y-59933970D01*
X160020000Y-58599605D01*
X158685635Y-59933970D01*
X153110000Y-59933970D01*
X153110000Y-57904098D01*
X153110719Y-57907713D01*
X153539929Y-58550071D01*
X154182287Y-58979281D01*
X154940000Y-59130000D01*
X155697713Y-58979281D01*
X156340071Y-58550071D01*
X156683437Y-58036187D01*
X157877277Y-58036187D01*
X157893503Y-58885387D01*
X158187261Y-59594582D01*
X158506030Y-59754365D01*
X159840395Y-58420000D01*
X160199605Y-58420000D01*
X161533970Y-59754365D01*
X161852739Y-59594582D01*
X162162723Y-58803813D01*
X162146497Y-57954613D01*
X161852739Y-57245418D01*
X161533970Y-57085635D01*
X160199605Y-58420000D01*
X159840395Y-58420000D01*
X158506030Y-57085635D01*
X158187261Y-57245418D01*
X157877277Y-58036187D01*
X156683437Y-58036187D01*
X156769281Y-57907713D01*
X156920000Y-57150000D01*
X156871472Y-56906030D01*
X158685635Y-56906030D01*
X160020000Y-58240395D01*
X161354365Y-56906030D01*
X161194582Y-56587261D01*
X160403813Y-56277277D01*
X159554613Y-56293503D01*
X158845418Y-56587261D01*
X158685635Y-56906030D01*
X156871472Y-56906030D01*
X156769281Y-56392287D01*
X156340071Y-55749929D01*
X155697713Y-55320719D01*
X155694098Y-55320000D01*
X196353284Y-55320000D01*
X196328559Y-55335910D01*
X196328559Y-55335910D01*
G37*
X196328559Y-55335910D02*
X196183569Y-55548110D01*
X196132560Y-55800000D01*
X196132560Y-56265000D01*
X192843523Y-56265000D01*
X192555564Y-55976539D01*
X192046702Y-55765241D01*
X191495715Y-55764760D01*
X190986485Y-55975169D01*
X190696148Y-56265000D01*
X167640005Y-56265000D01*
X167640000Y-56264999D01*
X167345555Y-56323569D01*
X167301325Y-56332367D01*
X167074135Y-56484170D01*
X167064090Y-56468559D01*
X166851890Y-56323569D01*
X166600000Y-56272560D01*
X163600000Y-56272560D01*
X163364683Y-56316838D01*
X163148559Y-56455910D01*
X163003569Y-56668110D01*
X162952560Y-56920000D01*
X162952560Y-59920000D01*
X162996838Y-60155317D01*
X163135910Y-60371441D01*
X163348110Y-60516431D01*
X163600000Y-60567440D01*
X166600000Y-60567440D01*
X166835317Y-60523162D01*
X167051441Y-60384090D01*
X167196431Y-60171890D01*
X167247440Y-59920000D01*
X167247440Y-59482302D01*
X172580856Y-59482302D01*
X172608638Y-60037368D01*
X172767603Y-60421143D01*
X173009787Y-60490608D01*
X173810395Y-59690000D01*
X174169605Y-59690000D01*
X174970213Y-60490608D01*
X175212397Y-60421143D01*
X175256453Y-60297656D01*
X175307603Y-60421143D01*
X175549787Y-60490608D01*
X176350395Y-59690000D01*
X176709605Y-59690000D01*
X177510213Y-60490608D01*
X177752397Y-60421143D01*
X177939144Y-59897698D01*
X177911362Y-59342632D01*
X177752397Y-58958857D01*
X177510213Y-58889392D01*
X176709605Y-59690000D01*
X176350395Y-59690000D01*
X175549787Y-58889392D01*
X175307603Y-58958857D01*
X175263547Y-59082344D01*
X175212397Y-58958857D01*
X174970213Y-58889392D01*
X174169605Y-59690000D01*
X173810395Y-59690000D01*
X173009787Y-58889392D01*
X172767603Y-58958857D01*
X172580856Y-59482302D01*
X167247440Y-59482302D01*
X167247440Y-58794140D01*
X167331792Y-58709787D01*
X173189392Y-58709787D01*
X173990000Y-59510395D01*
X174790608Y-58709787D01*
X175729392Y-58709787D01*
X176530000Y-59510395D01*
X177330608Y-58709787D01*
X177261143Y-58467603D01*
X176737698Y-58280856D01*
X176182632Y-58308638D01*
X175798857Y-58467603D01*
X175729392Y-58709787D01*
X174790608Y-58709787D01*
X174721143Y-58467603D01*
X174197698Y-58280856D01*
X173642632Y-58308638D01*
X173258857Y-58467603D01*
X173189392Y-58709787D01*
X167331792Y-58709787D01*
X168006579Y-58035000D01*
X190696477Y-58035000D01*
X190984436Y-58323461D01*
X191493298Y-58534759D01*
X192044285Y-58535240D01*
X192553515Y-58324831D01*
X192843852Y-58035000D01*
X196132560Y-58035000D01*
X196132560Y-58500000D01*
X196176838Y-58735317D01*
X196315910Y-58951441D01*
X196528110Y-59096431D01*
X196780000Y-59147440D01*
X200280000Y-59147440D01*
X200515317Y-59103162D01*
X200731441Y-58964090D01*
X200876431Y-58751890D01*
X200927440Y-58500000D01*
X200927440Y-55800000D01*
X200883162Y-55564683D01*
X200744090Y-55348559D01*
X200702292Y-55320000D01*
X203153284Y-55320000D01*
X203128559Y-55335910D01*
X202983569Y-55548110D01*
X202932560Y-55800000D01*
X202932560Y-58304766D01*
X202925715Y-58304760D01*
X202416485Y-58515169D01*
X202026539Y-58904436D01*
X201815241Y-59413298D01*
X201814883Y-59823538D01*
X200034210Y-61604210D01*
X199842367Y-61891325D01*
X199842367Y-61891326D01*
X199774999Y-62230000D01*
X199775000Y-62230005D01*
X199775000Y-66236477D01*
X199486539Y-66524436D01*
X199275241Y-67033298D01*
X199274760Y-67584285D01*
X199485169Y-68093515D01*
X199874436Y-68483461D01*
X200383298Y-68694759D01*
X200934285Y-68695240D01*
X201443515Y-68484831D01*
X201833461Y-68095564D01*
X202044759Y-67586702D01*
X202045240Y-67035715D01*
X201834831Y-66526485D01*
X201545000Y-66236148D01*
X201545000Y-62596580D01*
X203066695Y-61074884D01*
X203474285Y-61075240D01*
X203983515Y-60864831D01*
X204373461Y-60475564D01*
X204584759Y-59966702D01*
X204585240Y-59415715D01*
X204474391Y-59147440D01*
X204855000Y-59147440D01*
X204855000Y-60959995D01*
X204854999Y-60960000D01*
X204905783Y-61215302D01*
X204922367Y-61298675D01*
X205010115Y-61430000D01*
X205114210Y-61585790D01*
X206384208Y-62855787D01*
X206384210Y-62855790D01*
X206644935Y-63030000D01*
X206671325Y-63047633D01*
X207010000Y-63115001D01*
X207010005Y-63115000D01*
X211205000Y-63115000D01*
X211205000Y-71119995D01*
X211204999Y-71120000D01*
X211261190Y-71402484D01*
X211272367Y-71458675D01*
X211464210Y-71745790D01*
X212493421Y-72775000D01*
X210623523Y-72775000D01*
X210335564Y-72486539D01*
X209826702Y-72275241D01*
X209275715Y-72274760D01*
X208766485Y-72485169D01*
X208376539Y-72874436D01*
X208165241Y-73383298D01*
X208164760Y-73934285D01*
X208375169Y-74443515D01*
X208764436Y-74833461D01*
X209273298Y-75044759D01*
X209824285Y-75045240D01*
X210333515Y-74834831D01*
X210623852Y-74545000D01*
X213556477Y-74545000D01*
X213844436Y-74833461D01*
X214353298Y-75044759D01*
X214904285Y-75045240D01*
X215413515Y-74834831D01*
X215803461Y-74445564D01*
X216014759Y-73936702D01*
X216015240Y-73385715D01*
X215969494Y-73275000D01*
X226445000Y-73275000D01*
X226445000Y-76752560D01*
X225980000Y-76752560D01*
X225744683Y-76796838D01*
X225528559Y-76935910D01*
X225383569Y-77148110D01*
X225332560Y-77400000D01*
X225332560Y-80900000D01*
X225376838Y-81135317D01*
X225515910Y-81351441D01*
X225728110Y-81496431D01*
X225980000Y-81547440D01*
X228680000Y-81547440D01*
X228915317Y-81503162D01*
X229131441Y-81364090D01*
X229160000Y-81322292D01*
X229160000Y-83773284D01*
X229144090Y-83748559D01*
X228931890Y-83603569D01*
X228680000Y-83552560D01*
X225980000Y-83552560D01*
X225744683Y-83596838D01*
X225528559Y-83735910D01*
X225383569Y-83948110D01*
X225332560Y-84200000D01*
X225332560Y-87700000D01*
X225376838Y-87935317D01*
X225515910Y-88151441D01*
X225682560Y-88265308D01*
X225682560Y-89900000D01*
X225726838Y-90135317D01*
X225865910Y-90351441D01*
X226008561Y-90448910D01*
X225944722Y-90512637D01*
X225695284Y-91113352D01*
X225694716Y-91763795D01*
X225943106Y-92364943D01*
X226402637Y-92825278D01*
X227003352Y-93074716D01*
X227653795Y-93075284D01*
X228254943Y-92826894D01*
X228715278Y-92367363D01*
X228964716Y-91766648D01*
X228965284Y-91116205D01*
X228716894Y-90515057D01*
X228650379Y-90448426D01*
X228781441Y-90364090D01*
X228926431Y-90151890D01*
X228977440Y-89900000D01*
X228977440Y-88263187D01*
X229131441Y-88164090D01*
X229160000Y-88122292D01*
X229160000Y-95765902D01*
X229159281Y-95762287D01*
X228730071Y-95119929D01*
X228087713Y-94690719D01*
X227330000Y-94540000D01*
X226572287Y-94690719D01*
X225929929Y-95119929D01*
X225500719Y-95762287D01*
X225350000Y-96520000D01*
X225500719Y-97277713D01*
X225929929Y-97920071D01*
X226572287Y-98349281D01*
X226575902Y-98350000D01*
X155694098Y-98350000D01*
X155697713Y-98349281D01*
X156340071Y-97920071D01*
X156769281Y-97277713D01*
X156920000Y-96520000D01*
X156769281Y-95762287D01*
X156340071Y-95119929D01*
X155697713Y-94690719D01*
X154940000Y-94540000D01*
X154182287Y-94690719D01*
X153539929Y-95119929D01*
X153110719Y-95762287D01*
X153110000Y-95765902D01*
X153110000Y-93750000D01*
X157872560Y-93750000D01*
X157872560Y-96750000D01*
X157916838Y-96985317D01*
X158055910Y-97201441D01*
X158268110Y-97346431D01*
X158520000Y-97397440D01*
X161520000Y-97397440D01*
X161755317Y-97353162D01*
X161971441Y-97214090D01*
X162116431Y-97001890D01*
X162164611Y-96763970D01*
X163765635Y-96763970D01*
X163925418Y-97082739D01*
X164716187Y-97392723D01*
X165565387Y-97376497D01*
X166274582Y-97082739D01*
X166417978Y-96796661D01*
X215772758Y-96796661D01*
X215984990Y-97310303D01*
X216377630Y-97703629D01*
X216890900Y-97916757D01*
X217446661Y-97917242D01*
X217960303Y-97705010D01*
X218353629Y-97312370D01*
X218439949Y-97104488D01*
X218524990Y-97310303D01*
X218917630Y-97703629D01*
X219430900Y-97916757D01*
X219986661Y-97917242D01*
X220500303Y-97705010D01*
X220800837Y-97405000D01*
X221159522Y-97405000D01*
X221457630Y-97703629D01*
X221970900Y-97916757D01*
X222526661Y-97917242D01*
X223040303Y-97705010D01*
X223433629Y-97312370D01*
X223646757Y-96799100D01*
X223647242Y-96243339D01*
X223435010Y-95729697D01*
X223042370Y-95336371D01*
X222529100Y-95123243D01*
X221973339Y-95122758D01*
X221459697Y-95334990D01*
X221159163Y-95635000D01*
X220800478Y-95635000D01*
X220502370Y-95336371D01*
X219989100Y-95123243D01*
X219433339Y-95122758D01*
X218919697Y-95334990D01*
X218526371Y-95727630D01*
X218440051Y-95935512D01*
X218355010Y-95729697D01*
X217962370Y-95336371D01*
X217449100Y-95123243D01*
X216893339Y-95122758D01*
X216379697Y-95334990D01*
X215986371Y-95727630D01*
X215773243Y-96240900D01*
X215772758Y-96796661D01*
X166417978Y-96796661D01*
X166434365Y-96763970D01*
X165100000Y-95429605D01*
X163765635Y-96763970D01*
X162164611Y-96763970D01*
X162167440Y-96750000D01*
X162167440Y-94866187D01*
X162957277Y-94866187D01*
X162973503Y-95715387D01*
X163267261Y-96424582D01*
X163586030Y-96584365D01*
X164920395Y-95250000D01*
X165279605Y-95250000D01*
X166613970Y-96584365D01*
X166932739Y-96424582D01*
X167242723Y-95633813D01*
X167229853Y-94960213D01*
X170649392Y-94960213D01*
X170718857Y-95202397D01*
X171242302Y-95389144D01*
X171797368Y-95361362D01*
X172181143Y-95202397D01*
X172250608Y-94960213D01*
X173189392Y-94960213D01*
X173258857Y-95202397D01*
X173782302Y-95389144D01*
X174337368Y-95361362D01*
X174721143Y-95202397D01*
X174790608Y-94960213D01*
X173990000Y-94159605D01*
X173189392Y-94960213D01*
X172250608Y-94960213D01*
X171450000Y-94159605D01*
X170649392Y-94960213D01*
X167229853Y-94960213D01*
X167226497Y-94784613D01*
X166932739Y-94075418D01*
X166613970Y-93915635D01*
X165279605Y-95250000D01*
X164920395Y-95250000D01*
X163586030Y-93915635D01*
X163267261Y-94075418D01*
X162957277Y-94866187D01*
X162167440Y-94866187D01*
X162167440Y-93750000D01*
X162123162Y-93514683D01*
X162073457Y-93437440D01*
X162180000Y-93437440D01*
X162415317Y-93393162D01*
X162631441Y-93254090D01*
X162776431Y-93041890D01*
X162827440Y-92790000D01*
X162827440Y-90090000D01*
X162783162Y-89854683D01*
X162644090Y-89638559D01*
X162431890Y-89493569D01*
X162180000Y-89442560D01*
X158680000Y-89442560D01*
X158444683Y-89486838D01*
X158228559Y-89625910D01*
X158083569Y-89838110D01*
X158032560Y-90090000D01*
X158032560Y-92790000D01*
X158076838Y-93025317D01*
X158192998Y-93205835D01*
X158068559Y-93285910D01*
X157923569Y-93498110D01*
X157872560Y-93750000D01*
X153110000Y-93750000D01*
X153110000Y-88355000D01*
X154004250Y-88355000D01*
X154163000Y-88196250D01*
X154163000Y-86597000D01*
X154143000Y-86597000D01*
X154143000Y-86343000D01*
X154163000Y-86343000D01*
X154163000Y-84743750D01*
X154417000Y-84743750D01*
X154417000Y-86343000D01*
X154437000Y-86343000D01*
X154437000Y-86597000D01*
X154417000Y-86597000D01*
X154417000Y-88196250D01*
X154575750Y-88355000D01*
X155666310Y-88355000D01*
X155899699Y-88258327D01*
X155979814Y-88178211D01*
X156465806Y-88364388D01*
X157215435Y-88344250D01*
X157814467Y-88096123D01*
X157943715Y-87803320D01*
X156790000Y-86649605D01*
X156775858Y-86663748D01*
X156596253Y-86484143D01*
X156610395Y-86470000D01*
X156596253Y-86455858D01*
X156775858Y-86276253D01*
X156790000Y-86290395D01*
X156804143Y-86276253D01*
X156983748Y-86455858D01*
X156969605Y-86470000D01*
X157655000Y-87155395D01*
X157655000Y-87286310D01*
X157751673Y-87519699D01*
X157930302Y-87698327D01*
X158163691Y-87795000D01*
X159004250Y-87795000D01*
X159163000Y-87636250D01*
X159163000Y-86487000D01*
X159417000Y-86487000D01*
X159417000Y-87636250D01*
X159575750Y-87795000D01*
X160416309Y-87795000D01*
X160649698Y-87698327D01*
X160828327Y-87519699D01*
X160925000Y-87286310D01*
X160925000Y-86645750D01*
X160766250Y-86487000D01*
X159417000Y-86487000D01*
X159163000Y-86487000D01*
X159143000Y-86487000D01*
X159143000Y-86233000D01*
X159163000Y-86233000D01*
X159163000Y-85083750D01*
X159417000Y-85083750D01*
X159417000Y-86233000D01*
X160766250Y-86233000D01*
X160925000Y-86074250D01*
X160925000Y-85560000D01*
X161642560Y-85560000D01*
X161642560Y-87160000D01*
X161686838Y-87395317D01*
X161825910Y-87611441D01*
X162038110Y-87756431D01*
X162290000Y-87807440D01*
X164290000Y-87807440D01*
X164434497Y-87780251D01*
X164720839Y-88067093D01*
X165413405Y-88354672D01*
X166163305Y-88355326D01*
X166856372Y-88068957D01*
X167039855Y-87885793D01*
X167220839Y-88067093D01*
X167405000Y-88143563D01*
X167405000Y-89442560D01*
X165480000Y-89442560D01*
X165244683Y-89486838D01*
X165028559Y-89625910D01*
X164883569Y-89838110D01*
X164832560Y-90090000D01*
X164832560Y-92790000D01*
X164876838Y-93025317D01*
X164936310Y-93117738D01*
X164634613Y-93123503D01*
X163925418Y-93417261D01*
X163765635Y-93736030D01*
X165100000Y-95070395D01*
X166398093Y-93772302D01*
X170040856Y-93772302D01*
X170068638Y-94327368D01*
X170227603Y-94711143D01*
X170469787Y-94780608D01*
X171270395Y-93980000D01*
X171629605Y-93980000D01*
X172430213Y-94780608D01*
X172672397Y-94711143D01*
X172716453Y-94587656D01*
X172767603Y-94711143D01*
X173009787Y-94780608D01*
X173810395Y-93980000D01*
X174169605Y-93980000D01*
X174970213Y-94780608D01*
X175212397Y-94711143D01*
X175371297Y-94265750D01*
X200835000Y-94265750D01*
X200835000Y-94956310D01*
X200931673Y-95189699D01*
X201110302Y-95368327D01*
X201343691Y-95465000D01*
X202184250Y-95465000D01*
X202343000Y-95306250D01*
X202343000Y-94107000D01*
X202597000Y-94107000D01*
X202597000Y-95306250D01*
X202755750Y-95465000D01*
X203596309Y-95465000D01*
X203829698Y-95368327D01*
X204008327Y-95189699D01*
X204105000Y-94956310D01*
X204105000Y-94265750D01*
X203946250Y-94107000D01*
X202597000Y-94107000D01*
X202343000Y-94107000D01*
X200993750Y-94107000D01*
X200835000Y-94265750D01*
X175371297Y-94265750D01*
X175399144Y-94187698D01*
X175371362Y-93632632D01*
X175212397Y-93248857D01*
X174970213Y-93179392D01*
X174169605Y-93980000D01*
X173810395Y-93980000D01*
X173009787Y-93179392D01*
X172767603Y-93248857D01*
X172723547Y-93372344D01*
X172672397Y-93248857D01*
X172430213Y-93179392D01*
X171629605Y-93980000D01*
X171270395Y-93980000D01*
X170469787Y-93179392D01*
X170227603Y-93248857D01*
X170040856Y-93772302D01*
X166398093Y-93772302D01*
X166434365Y-93736030D01*
X166284697Y-93437440D01*
X168980000Y-93437440D01*
X169215317Y-93393162D01*
X169431441Y-93254090D01*
X169576431Y-93041890D01*
X169584957Y-92999787D01*
X170649392Y-92999787D01*
X171450000Y-93800395D01*
X172250608Y-92999787D01*
X173189392Y-92999787D01*
X173990000Y-93800395D01*
X174786705Y-93003690D01*
X200835000Y-93003690D01*
X200835000Y-93694250D01*
X200993750Y-93853000D01*
X202343000Y-93853000D01*
X202343000Y-92653750D01*
X202597000Y-92653750D01*
X202597000Y-93853000D01*
X203946250Y-93853000D01*
X204105000Y-93694250D01*
X204105000Y-93130000D01*
X204822560Y-93130000D01*
X204822560Y-94830000D01*
X204866838Y-95065317D01*
X205005910Y-95281441D01*
X205218110Y-95426431D01*
X205470000Y-95477440D01*
X207470000Y-95477440D01*
X207705317Y-95433162D01*
X207921441Y-95294090D01*
X208066431Y-95081890D01*
X208110352Y-94865000D01*
X208459522Y-94865000D01*
X208757630Y-95163629D01*
X209270900Y-95376757D01*
X209826661Y-95377242D01*
X210340303Y-95165010D01*
X210733629Y-94772370D01*
X210819949Y-94564488D01*
X210904990Y-94770303D01*
X211297630Y-95163629D01*
X211810900Y-95376757D01*
X212366661Y-95377242D01*
X212880303Y-95165010D01*
X213273629Y-94772370D01*
X213486757Y-94259100D01*
X213487242Y-93703339D01*
X213275010Y-93189697D01*
X212882370Y-92796371D01*
X212369100Y-92583243D01*
X211813339Y-92582758D01*
X211299697Y-92794990D01*
X210906371Y-93187630D01*
X210820051Y-93395512D01*
X210735010Y-93189697D01*
X210342370Y-92796371D01*
X209829100Y-92583243D01*
X209273339Y-92582758D01*
X208759697Y-92794990D01*
X208459163Y-93095000D01*
X208110854Y-93095000D01*
X208073162Y-92894683D01*
X207934090Y-92678559D01*
X207721890Y-92533569D01*
X207470000Y-92482560D01*
X205470000Y-92482560D01*
X205234683Y-92526838D01*
X205018559Y-92665910D01*
X204873569Y-92878110D01*
X204822560Y-93130000D01*
X204105000Y-93130000D01*
X204105000Y-93003690D01*
X204008327Y-92770301D01*
X203829698Y-92591673D01*
X203596309Y-92495000D01*
X202755750Y-92495000D01*
X202597000Y-92653750D01*
X202343000Y-92653750D01*
X202184250Y-92495000D01*
X201343691Y-92495000D01*
X201110302Y-92591673D01*
X200931673Y-92770301D01*
X200835000Y-93003690D01*
X174786705Y-93003690D01*
X174790608Y-92999787D01*
X174721143Y-92757603D01*
X174197698Y-92570856D01*
X173642632Y-92598638D01*
X173258857Y-92757603D01*
X173189392Y-92999787D01*
X172250608Y-92999787D01*
X172181143Y-92757603D01*
X171657698Y-92570856D01*
X171102632Y-92598638D01*
X170718857Y-92757603D01*
X170649392Y-92999787D01*
X169584957Y-92999787D01*
X169627440Y-92790000D01*
X169627440Y-90090000D01*
X169583162Y-89854683D01*
X169444090Y-89638559D01*
X169231890Y-89493569D01*
X169175000Y-89482048D01*
X169175000Y-88143898D01*
X169356372Y-88068957D01*
X169887093Y-87539161D01*
X169954947Y-87375750D01*
X203035000Y-87375750D01*
X203035000Y-88216309D01*
X203131673Y-88449698D01*
X203310301Y-88628327D01*
X203543690Y-88725000D01*
X204184250Y-88725000D01*
X204343000Y-88566250D01*
X204343000Y-87217000D01*
X204597000Y-87217000D01*
X204597000Y-88566250D01*
X204755750Y-88725000D01*
X205396310Y-88725000D01*
X205629699Y-88628327D01*
X205808327Y-88449698D01*
X205905000Y-88216309D01*
X205905000Y-87375750D01*
X205746250Y-87217000D01*
X204597000Y-87217000D01*
X204343000Y-87217000D01*
X203193750Y-87217000D01*
X203035000Y-87375750D01*
X169954947Y-87375750D01*
X170174672Y-86846595D01*
X170175326Y-86096695D01*
X170120370Y-85963691D01*
X203035000Y-85963691D01*
X203035000Y-86804250D01*
X203193750Y-86963000D01*
X204343000Y-86963000D01*
X204343000Y-85613750D01*
X204597000Y-85613750D01*
X204597000Y-86963000D01*
X205746250Y-86963000D01*
X205905000Y-86804250D01*
X205905000Y-85963691D01*
X205808327Y-85730302D01*
X205629699Y-85551673D01*
X205396310Y-85455000D01*
X204755750Y-85455000D01*
X204597000Y-85613750D01*
X204343000Y-85613750D01*
X204184250Y-85455000D01*
X203543690Y-85455000D01*
X203310301Y-85551673D01*
X203131673Y-85730302D01*
X203035000Y-85963691D01*
X170120370Y-85963691D01*
X169888957Y-85403628D01*
X169359161Y-84872907D01*
X168666595Y-84585328D01*
X167916695Y-84584674D01*
X167223628Y-84871043D01*
X167040145Y-85054207D01*
X166859161Y-84872907D01*
X166166595Y-84585328D01*
X165416695Y-84584674D01*
X164723628Y-84871043D01*
X164594756Y-84999691D01*
X164541890Y-84963569D01*
X164290000Y-84912560D01*
X162290000Y-84912560D01*
X162054683Y-84956838D01*
X161838559Y-85095910D01*
X161693569Y-85308110D01*
X161642560Y-85560000D01*
X160925000Y-85560000D01*
X160925000Y-85433690D01*
X160828327Y-85200301D01*
X160649698Y-85021673D01*
X160416309Y-84925000D01*
X159575750Y-84925000D01*
X159417000Y-85083750D01*
X159163000Y-85083750D01*
X159004250Y-84925000D01*
X158163691Y-84925000D01*
X157930302Y-85021673D01*
X157904388Y-85047587D01*
X157814467Y-84843877D01*
X157114194Y-84575612D01*
X156364565Y-84595750D01*
X155975098Y-84757072D01*
X155899699Y-84681673D01*
X155666310Y-84585000D01*
X154575750Y-84585000D01*
X154417000Y-84743750D01*
X154163000Y-84743750D01*
X154004250Y-84585000D01*
X153110000Y-84585000D01*
X153110000Y-82090000D01*
X203022560Y-82090000D01*
X203022560Y-84090000D01*
X203066838Y-84325317D01*
X203205910Y-84541441D01*
X203418110Y-84686431D01*
X203670000Y-84737440D01*
X205270000Y-84737440D01*
X205505317Y-84693162D01*
X205721441Y-84554090D01*
X205866431Y-84341890D01*
X205917440Y-84090000D01*
X205917440Y-82354139D01*
X206021454Y-82250125D01*
X206224436Y-82453461D01*
X206733298Y-82664759D01*
X207284285Y-82665240D01*
X207793515Y-82454831D01*
X208183461Y-82065564D01*
X208394759Y-81556702D01*
X208395240Y-81005715D01*
X208184831Y-80496485D01*
X207795564Y-80106539D01*
X207286702Y-79895241D01*
X206735715Y-79894760D01*
X206226485Y-80105169D01*
X205936148Y-80395000D01*
X205740005Y-80395000D01*
X205740000Y-80394999D01*
X205401325Y-80462367D01*
X205114210Y-80654210D01*
X205114208Y-80654213D01*
X204325860Y-81442560D01*
X203670000Y-81442560D01*
X203434683Y-81486838D01*
X203218559Y-81625910D01*
X203073569Y-81838110D01*
X203022560Y-82090000D01*
X153110000Y-82090000D01*
X153110000Y-76835000D01*
X170740000Y-76835000D01*
X170890719Y-77592713D01*
X171319929Y-78235071D01*
X171962287Y-78664281D01*
X172720000Y-78815000D01*
X173477713Y-78664281D01*
X174120071Y-78235071D01*
X174549281Y-77592713D01*
X174700000Y-76835000D01*
X208840000Y-76835000D01*
X208990719Y-77592713D01*
X209419929Y-78235071D01*
X210062287Y-78664281D01*
X210820000Y-78815000D01*
X211577713Y-78664281D01*
X212220071Y-78235071D01*
X212649281Y-77592713D01*
X212800000Y-76835000D01*
X212649281Y-76077287D01*
X212220071Y-75434929D01*
X211577713Y-75005719D01*
X210820000Y-74855000D01*
X210062287Y-75005719D01*
X209419929Y-75434929D01*
X208990719Y-76077287D01*
X208840000Y-76835000D01*
X174700000Y-76835000D01*
X174549281Y-76077287D01*
X174120071Y-75434929D01*
X173477713Y-75005719D01*
X172720000Y-74855000D01*
X171962287Y-75005719D01*
X171319929Y-75434929D01*
X170890719Y-76077287D01*
X170740000Y-76835000D01*
X153110000Y-76835000D01*
X153110000Y-69829608D01*
X153136286Y-69803322D01*
X153265533Y-70096123D01*
X153965806Y-70364388D01*
X154715435Y-70344250D01*
X155314467Y-70096123D01*
X155433029Y-69827529D01*
X155522554Y-69917054D01*
X155540000Y-69899608D01*
X155557446Y-69917054D01*
X155646971Y-69827529D01*
X155765533Y-70096123D01*
X156465806Y-70364388D01*
X157215435Y-70344250D01*
X157814467Y-70096123D01*
X157904388Y-69892413D01*
X157930302Y-69918327D01*
X158163691Y-70015000D01*
X159004250Y-70015000D01*
X159163000Y-69856250D01*
X159163000Y-68707000D01*
X159417000Y-68707000D01*
X159417000Y-69856250D01*
X159575750Y-70015000D01*
X160416309Y-70015000D01*
X160649698Y-69918327D01*
X160828327Y-69739699D01*
X160925000Y-69506310D01*
X160925000Y-68865750D01*
X160766250Y-68707000D01*
X159417000Y-68707000D01*
X159163000Y-68707000D01*
X159143000Y-68707000D01*
X159143000Y-68453000D01*
X159163000Y-68453000D01*
X159163000Y-67303750D01*
X159417000Y-67303750D01*
X159417000Y-68453000D01*
X160766250Y-68453000D01*
X160925000Y-68294250D01*
X160925000Y-67780000D01*
X161642560Y-67780000D01*
X161642560Y-69380000D01*
X161686838Y-69615317D01*
X161825910Y-69831441D01*
X162038110Y-69976431D01*
X162290000Y-70027440D01*
X164290000Y-70027440D01*
X164525317Y-69983162D01*
X164593352Y-69939383D01*
X164720839Y-70067093D01*
X165413405Y-70354672D01*
X166163305Y-70355326D01*
X166856372Y-70068957D01*
X167039855Y-69885793D01*
X167220839Y-70067093D01*
X167913405Y-70354672D01*
X168663305Y-70355326D01*
X169356372Y-70068957D01*
X169887093Y-69539161D01*
X170174672Y-68846595D01*
X170175326Y-68096695D01*
X169888957Y-67403628D01*
X169359161Y-66872907D01*
X168666595Y-66585328D01*
X167916695Y-66584674D01*
X167223628Y-66871043D01*
X167040145Y-67054207D01*
X166859161Y-66872907D01*
X166166595Y-66585328D01*
X165416695Y-66584674D01*
X164723628Y-66871043D01*
X164432705Y-67161459D01*
X164290000Y-67132560D01*
X162290000Y-67132560D01*
X162054683Y-67176838D01*
X161838559Y-67315910D01*
X161693569Y-67528110D01*
X161642560Y-67780000D01*
X160925000Y-67780000D01*
X160925000Y-67653690D01*
X160828327Y-67420301D01*
X160649698Y-67241673D01*
X160416309Y-67145000D01*
X159575750Y-67145000D01*
X159417000Y-67303750D01*
X159163000Y-67303750D01*
X159004250Y-67145000D01*
X158163691Y-67145000D01*
X157930302Y-67241673D01*
X157751673Y-67420301D01*
X157655000Y-67653690D01*
X157655000Y-67784605D01*
X156969605Y-68470000D01*
X156983748Y-68484143D01*
X156804143Y-68663748D01*
X156790000Y-68649605D01*
X156775858Y-68663748D01*
X156596253Y-68484143D01*
X156610395Y-68470000D01*
X156596253Y-68455858D01*
X156775858Y-68276253D01*
X156790000Y-68290395D01*
X157943715Y-67136680D01*
X157814467Y-66843877D01*
X157114194Y-66575612D01*
X156364565Y-66595750D01*
X155765533Y-66843877D01*
X155646971Y-67112471D01*
X155557446Y-67022946D01*
X155540000Y-67040392D01*
X155522554Y-67022946D01*
X155433029Y-67112471D01*
X155314467Y-66843877D01*
X154614194Y-66575612D01*
X153864565Y-66595750D01*
X153265533Y-66843877D01*
X153136286Y-67136678D01*
X153110000Y-67110392D01*
X153110000Y-60670213D01*
X173189392Y-60670213D01*
X173258857Y-60912397D01*
X173782302Y-61099144D01*
X174337368Y-61071362D01*
X174721143Y-60912397D01*
X174790608Y-60670213D01*
X175729392Y-60670213D01*
X175798857Y-60912397D01*
X176322302Y-61099144D01*
X176877368Y-61071362D01*
X177261143Y-60912397D01*
X177330608Y-60670213D01*
X176530000Y-59869605D01*
X175729392Y-60670213D01*
X174790608Y-60670213D01*
X173990000Y-59869605D01*
X173189392Y-60670213D01*
X153110000Y-60670213D01*
X153110000Y-59933970D01*
X158685635Y-59933970D01*
X158845418Y-60252739D01*
X159636187Y-60562723D01*
X160485387Y-60546497D01*
X161194582Y-60252739D01*
X161354365Y-59933970D01*
X160020000Y-58599605D01*
X158685635Y-59933970D01*
X153110000Y-59933970D01*
X153110000Y-57904098D01*
X153110719Y-57907713D01*
X153539929Y-58550071D01*
X154182287Y-58979281D01*
X154940000Y-59130000D01*
X155697713Y-58979281D01*
X156340071Y-58550071D01*
X156683437Y-58036187D01*
X157877277Y-58036187D01*
X157893503Y-58885387D01*
X158187261Y-59594582D01*
X158506030Y-59754365D01*
X159840395Y-58420000D01*
X160199605Y-58420000D01*
X161533970Y-59754365D01*
X161852739Y-59594582D01*
X162162723Y-58803813D01*
X162146497Y-57954613D01*
X161852739Y-57245418D01*
X161533970Y-57085635D01*
X160199605Y-58420000D01*
X159840395Y-58420000D01*
X158506030Y-57085635D01*
X158187261Y-57245418D01*
X157877277Y-58036187D01*
X156683437Y-58036187D01*
X156769281Y-57907713D01*
X156920000Y-57150000D01*
X156871472Y-56906030D01*
X158685635Y-56906030D01*
X160020000Y-58240395D01*
X161354365Y-56906030D01*
X161194582Y-56587261D01*
X160403813Y-56277277D01*
X159554613Y-56293503D01*
X158845418Y-56587261D01*
X158685635Y-56906030D01*
X156871472Y-56906030D01*
X156769281Y-56392287D01*
X156340071Y-55749929D01*
X155697713Y-55320719D01*
X155694098Y-55320000D01*
X196353284Y-55320000D01*
X196328559Y-55335910D01*
G36*
X215766838Y-63265317D02*
X215905910Y-63481441D01*
X216118110Y-63626431D01*
X216273089Y-63657815D01*
X216127189Y-63755302D01*
X215816120Y-64220849D01*
X215706887Y-64770000D01*
X215816120Y-65319151D01*
X216127189Y-65784698D01*
X216509275Y-66040000D01*
X216127189Y-66295302D01*
X215816120Y-66760849D01*
X215706887Y-67310000D01*
X215816120Y-67859151D01*
X216127189Y-68324698D01*
X216531703Y-68594986D01*
X216314866Y-68697611D01*
X215938959Y-69112577D01*
X215778096Y-69500961D01*
X215900085Y-69723000D01*
X217043000Y-69723000D01*
X217043000Y-69703000D01*
X217297000Y-69703000D01*
X217297000Y-69723000D01*
X218439915Y-69723000D01*
X218561904Y-69500961D01*
X218401041Y-69112577D01*
X218025134Y-68697611D01*
X217808297Y-68594986D01*
X218211236Y-68325750D01*
X219545000Y-68325750D01*
X219545000Y-69166309D01*
X219641673Y-69399698D01*
X219820301Y-69578327D01*
X220053690Y-69675000D01*
X220694250Y-69675000D01*
X220853000Y-69516250D01*
X220853000Y-68167000D01*
X221107000Y-68167000D01*
X221107000Y-69516250D01*
X221265750Y-69675000D01*
X221906310Y-69675000D01*
X222139699Y-69578327D01*
X222318327Y-69399698D01*
X222415000Y-69166309D01*
X222415000Y-68325750D01*
X222256250Y-68167000D01*
X221107000Y-68167000D01*
X220853000Y-68167000D01*
X219703750Y-68167000D01*
X219545000Y-68325750D01*
X218211236Y-68325750D01*
X218212811Y-68324698D01*
X218523880Y-67859151D01*
X218633113Y-67310000D01*
X218523880Y-66760849D01*
X218212811Y-66295302D01*
X217830725Y-66040000D01*
X218207001Y-65788580D01*
X219084208Y-66665787D01*
X219084210Y-66665790D01*
X219226477Y-66760849D01*
X219371325Y-66857633D01*
X219553232Y-66893817D01*
X219545000Y-66913691D01*
X219545000Y-67754250D01*
X219703750Y-67913000D01*
X220853000Y-67913000D01*
X220853000Y-67893000D01*
X221107000Y-67893000D01*
X221107000Y-67913000D01*
X222256250Y-67913000D01*
X222415000Y-67754250D01*
X222415000Y-67456579D01*
X222635000Y-67676579D01*
X222635000Y-69850000D01*
X222702367Y-70188675D01*
X222894210Y-70475790D01*
X223181325Y-70667633D01*
X223520000Y-70735000D01*
X223660527Y-70735000D01*
X223747189Y-70864698D01*
X224212736Y-71175767D01*
X224761887Y-71285000D01*
X224818113Y-71285000D01*
X225367264Y-71175767D01*
X225832811Y-70864698D01*
X226143880Y-70399151D01*
X226253113Y-69850000D01*
X226143880Y-69300849D01*
X225832811Y-68835302D01*
X225450725Y-68580000D01*
X225832811Y-68324698D01*
X226143880Y-67859151D01*
X226253113Y-67310000D01*
X226143880Y-66760849D01*
X225832811Y-66295302D01*
X225450725Y-66040000D01*
X225827001Y-65788580D01*
X226445000Y-66406579D01*
X226445000Y-71505000D01*
X213726579Y-71505000D01*
X212975000Y-70753420D01*
X212975000Y-70199039D01*
X215778096Y-70199039D01*
X215938959Y-70587423D01*
X216314866Y-71002389D01*
X216820959Y-71241914D01*
X217043000Y-71120629D01*
X217043000Y-69977000D01*
X217297000Y-69977000D01*
X217297000Y-71120629D01*
X217519041Y-71241914D01*
X218025134Y-71002389D01*
X218401041Y-70587423D01*
X218561904Y-70199039D01*
X218439915Y-69977000D01*
X217297000Y-69977000D01*
X217043000Y-69977000D01*
X215900085Y-69977000D01*
X215778096Y-70199039D01*
X212975000Y-70199039D01*
X212975000Y-63115000D01*
X215738554Y-63115000D01*
X215766838Y-63265317D01*
X215766838Y-63265317D01*
G37*
X215766838Y-63265317D02*
X215905910Y-63481441D01*
X216118110Y-63626431D01*
X216273089Y-63657815D01*
X216127189Y-63755302D01*
X215816120Y-64220849D01*
X215706887Y-64770000D01*
X215816120Y-65319151D01*
X216127189Y-65784698D01*
X216509275Y-66040000D01*
X216127189Y-66295302D01*
X215816120Y-66760849D01*
X215706887Y-67310000D01*
X215816120Y-67859151D01*
X216127189Y-68324698D01*
X216531703Y-68594986D01*
X216314866Y-68697611D01*
X215938959Y-69112577D01*
X215778096Y-69500961D01*
X215900085Y-69723000D01*
X217043000Y-69723000D01*
X217043000Y-69703000D01*
X217297000Y-69703000D01*
X217297000Y-69723000D01*
X218439915Y-69723000D01*
X218561904Y-69500961D01*
X218401041Y-69112577D01*
X218025134Y-68697611D01*
X217808297Y-68594986D01*
X218211236Y-68325750D01*
X219545000Y-68325750D01*
X219545000Y-69166309D01*
X219641673Y-69399698D01*
X219820301Y-69578327D01*
X220053690Y-69675000D01*
X220694250Y-69675000D01*
X220853000Y-69516250D01*
X220853000Y-68167000D01*
X221107000Y-68167000D01*
X221107000Y-69516250D01*
X221265750Y-69675000D01*
X221906310Y-69675000D01*
X222139699Y-69578327D01*
X222318327Y-69399698D01*
X222415000Y-69166309D01*
X222415000Y-68325750D01*
X222256250Y-68167000D01*
X221107000Y-68167000D01*
X220853000Y-68167000D01*
X219703750Y-68167000D01*
X219545000Y-68325750D01*
X218211236Y-68325750D01*
X218212811Y-68324698D01*
X218523880Y-67859151D01*
X218633113Y-67310000D01*
X218523880Y-66760849D01*
X218212811Y-66295302D01*
X217830725Y-66040000D01*
X218207001Y-65788580D01*
X219084208Y-66665787D01*
X219084210Y-66665790D01*
X219226477Y-66760849D01*
X219371325Y-66857633D01*
X219553232Y-66893817D01*
X219545000Y-66913691D01*
X219545000Y-67754250D01*
X219703750Y-67913000D01*
X220853000Y-67913000D01*
X220853000Y-67893000D01*
X221107000Y-67893000D01*
X221107000Y-67913000D01*
X222256250Y-67913000D01*
X222415000Y-67754250D01*
X222415000Y-67456579D01*
X222635000Y-67676579D01*
X222635000Y-69850000D01*
X222702367Y-70188675D01*
X222894210Y-70475790D01*
X223181325Y-70667633D01*
X223520000Y-70735000D01*
X223660527Y-70735000D01*
X223747189Y-70864698D01*
X224212736Y-71175767D01*
X224761887Y-71285000D01*
X224818113Y-71285000D01*
X225367264Y-71175767D01*
X225832811Y-70864698D01*
X226143880Y-70399151D01*
X226253113Y-69850000D01*
X226143880Y-69300849D01*
X225832811Y-68835302D01*
X225450725Y-68580000D01*
X225832811Y-68324698D01*
X226143880Y-67859151D01*
X226253113Y-67310000D01*
X226143880Y-66760849D01*
X225832811Y-66295302D01*
X225450725Y-66040000D01*
X225827001Y-65788580D01*
X226445000Y-66406579D01*
X226445000Y-71505000D01*
X213726579Y-71505000D01*
X212975000Y-70753420D01*
X212975000Y-70199039D01*
X215778096Y-70199039D01*
X215938959Y-70587423D01*
X216314866Y-71002389D01*
X216820959Y-71241914D01*
X217043000Y-71120629D01*
X217043000Y-69977000D01*
X217297000Y-69977000D01*
X217297000Y-71120629D01*
X217519041Y-71241914D01*
X218025134Y-71002389D01*
X218401041Y-70587423D01*
X218561904Y-70199039D01*
X218439915Y-69977000D01*
X217297000Y-69977000D01*
X217043000Y-69977000D01*
X215900085Y-69977000D01*
X215778096Y-70199039D01*
X212975000Y-70199039D01*
X212975000Y-63115000D01*
X215738554Y-63115000D01*
X215766838Y-63265317D01*
G36*
X154483748Y-68455858D02*
X154469605Y-68470000D01*
X154483748Y-68484143D01*
X154304143Y-68663748D01*
X154290000Y-68649605D01*
X154275858Y-68663748D01*
X154096253Y-68484143D01*
X154110395Y-68470000D01*
X154096253Y-68455858D01*
X154275858Y-68276253D01*
X154290000Y-68290395D01*
X154304143Y-68276253D01*
X154483748Y-68455858D01*
X154483748Y-68455858D01*
G37*
X154483748Y-68455858D02*
X154469605Y-68470000D01*
X154483748Y-68484143D01*
X154304143Y-68663748D01*
X154290000Y-68649605D01*
X154275858Y-68663748D01*
X154096253Y-68484143D01*
X154110395Y-68470000D01*
X154096253Y-68455858D01*
X154275858Y-68276253D01*
X154290000Y-68290395D01*
X154304143Y-68276253D01*
X154483748Y-68455858D01*
M02*
