G04 #@! TF.FileFunction,Copper,L1,Top,Signal*
%FSLAX46Y46*%
G04 Gerber Fmt 4.6, Leading zero omitted, Abs format (unit mm)*
G04 Created by KiCad (PCBNEW 4.0.5) date 10/30/17 14:37:20*
%MOMM*%
%LPD*%
G01*
G04 APERTURE LIST*
%ADD10C,0.100000*%
%ADD11C,0.300000*%
%ADD12C,1.524000*%
%ADD13R,1.600000X3.500000*%
%ADD14R,1.600000X2.000000*%
%ADD15R,1.500000X1.500000*%
%ADD16R,2.000000X2.000000*%
%ADD17C,2.000000*%
%ADD18R,1.700000X2.000000*%
%ADD19R,2.000000X1.700000*%
%ADD20R,1.600000X2.600000*%
%ADD21R,2.600000X1.600000*%
%ADD22R,3.500000X1.600000*%
%ADD23R,3.000000X3.000000*%
%ADD24C,3.000000*%
%ADD25R,2.500000X2.500000*%
%ADD26C,2.500000*%
%ADD27R,1.143000X0.508000*%
%ADD28R,1.600000X1.600000*%
%ADD29O,1.600000X1.600000*%
%ADD30R,1.500000X1.250000*%
%ADD31C,1.500000*%
%ADD32C,0.500000*%
%ADD33C,0.254000*%
G04 APERTURE END LIST*
D10*
D11*
X185404286Y-61067143D02*
X186547143Y-61067143D01*
X185975714Y-61638571D02*
X185975714Y-60495714D01*
X187975715Y-60138571D02*
X187261429Y-60138571D01*
X187190000Y-60852857D01*
X187261429Y-60781429D01*
X187404286Y-60710000D01*
X187761429Y-60710000D01*
X187904286Y-60781429D01*
X187975715Y-60852857D01*
X188047143Y-60995714D01*
X188047143Y-61352857D01*
X187975715Y-61495714D01*
X187904286Y-61567143D01*
X187761429Y-61638571D01*
X187404286Y-61638571D01*
X187261429Y-61567143D01*
X187190000Y-61495714D01*
D12*
X171450000Y-93980000D03*
X173990000Y-93980000D03*
X173990000Y-59690000D03*
X176530000Y-59690000D03*
X209550000Y-93980000D03*
X212090000Y-93980000D03*
X209550000Y-59690000D03*
X212090000Y-59690000D03*
D13*
X165100000Y-62390000D03*
X165100000Y-56990000D03*
D14*
X194310000Y-83090000D03*
X194310000Y-87090000D03*
X194310000Y-74200000D03*
X194310000Y-78200000D03*
X213360000Y-83090000D03*
X213360000Y-87090000D03*
D15*
X143510000Y-61850000D03*
X143510000Y-65150000D03*
D16*
X227330000Y-90170000D03*
D17*
X227330000Y-92710000D03*
D18*
X196850000Y-83090000D03*
X196850000Y-87090000D03*
X191770000Y-83090000D03*
X191770000Y-87090000D03*
X190500000Y-78200000D03*
X190500000Y-74200000D03*
D19*
X206470000Y-90170000D03*
X202470000Y-90170000D03*
D18*
X147320000Y-71850000D03*
X147320000Y-67850000D03*
X196850000Y-74200000D03*
X196850000Y-78200000D03*
X210820000Y-83090000D03*
X210820000Y-87090000D03*
D19*
X210090000Y-67310000D03*
X214090000Y-67310000D03*
X206470000Y-73660000D03*
X202470000Y-73660000D03*
X214090000Y-64770000D03*
X210090000Y-64770000D03*
D18*
X228600000Y-71850000D03*
X228600000Y-67850000D03*
X228600000Y-60230000D03*
X228600000Y-64230000D03*
D19*
X216440000Y-78740000D03*
X220440000Y-78740000D03*
D20*
X196850000Y-90910000D03*
X196850000Y-94510000D03*
D13*
X157480000Y-90010000D03*
X157480000Y-95410000D03*
D20*
X186690000Y-83290000D03*
X186690000Y-86890000D03*
X186690000Y-78000000D03*
X186690000Y-74400000D03*
D21*
X206270000Y-64770000D03*
X202670000Y-64770000D03*
X206270000Y-77470000D03*
X202670000Y-77470000D03*
D22*
X223680000Y-86360000D03*
X218280000Y-86360000D03*
D23*
X149860000Y-90170000D03*
D24*
X149860000Y-95250000D03*
D23*
X149860000Y-58420000D03*
D24*
X149860000Y-63500000D03*
D12*
X219710000Y-96520000D03*
X222250000Y-96520000D03*
X217170000Y-96520000D03*
X219710000Y-57150000D03*
X222250000Y-57150000D03*
X217170000Y-57150000D03*
D13*
X157480000Y-56990000D03*
X157480000Y-62390000D03*
D25*
X143400000Y-69200000D03*
D26*
X143400000Y-83200000D03*
X161400000Y-83200000D03*
X161400000Y-69200000D03*
X143400000Y-71700000D03*
X143400000Y-80700000D03*
X161400000Y-80700000D03*
X161400000Y-71700000D03*
D27*
X207645000Y-83185000D03*
X207645000Y-84455000D03*
X207645000Y-85725000D03*
X207645000Y-86995000D03*
X201295000Y-86995000D03*
X201295000Y-85725000D03*
X201295000Y-84455000D03*
X201295000Y-83185000D03*
D28*
X217170000Y-62230000D03*
D29*
X224790000Y-69850000D03*
X217170000Y-64770000D03*
X224790000Y-67310000D03*
X217170000Y-67310000D03*
X224790000Y-64770000D03*
X217170000Y-69850000D03*
X224790000Y-62230000D03*
D30*
X224770000Y-73660000D03*
X222270000Y-73660000D03*
X210840000Y-90170000D03*
X213340000Y-90170000D03*
D31*
X154940000Y-86360000D03*
X217170000Y-73660000D03*
X215900000Y-88900000D03*
X199390000Y-88900000D03*
X207010000Y-81280000D03*
X214630000Y-73660000D03*
X209550000Y-73660000D03*
D32*
X196850000Y-90910000D02*
X197380000Y-90910000D01*
X197380000Y-90910000D02*
X198120000Y-90170000D01*
X198120000Y-90170000D02*
X202470000Y-90170000D01*
X201295000Y-85725000D02*
X202565000Y-85725000D01*
X203200000Y-86360000D02*
X203200000Y-89440000D01*
X202565000Y-85725000D02*
X203200000Y-86360000D01*
X203200000Y-89440000D02*
X202470000Y-90170000D01*
X196850000Y-94510000D02*
X196850000Y-95250000D01*
X196850000Y-95250000D02*
X198120000Y-96520000D01*
X198120000Y-96520000D02*
X208280000Y-96520000D01*
X208280000Y-96520000D02*
X209550000Y-95250000D01*
X209550000Y-95250000D02*
X209550000Y-93980000D01*
X157480000Y-90010000D02*
X157480000Y-87630000D01*
X156210000Y-86360000D02*
X154940000Y-86360000D01*
X157480000Y-87630000D02*
X156210000Y-86360000D01*
X143400000Y-80700000D02*
X143400000Y-83200000D01*
X217170000Y-73660000D02*
X217170000Y-69850000D01*
X173990000Y-93980000D02*
X185420000Y-93980000D01*
X185420000Y-93980000D02*
X186690000Y-92710000D01*
X186690000Y-92710000D02*
X186690000Y-86890000D01*
X157480000Y-95410000D02*
X170020000Y-95410000D01*
X170020000Y-95410000D02*
X171450000Y-93980000D01*
X218440000Y-87630000D02*
X218440000Y-86520000D01*
X217170000Y-88900000D02*
X218440000Y-87630000D01*
X215900000Y-88900000D02*
X217170000Y-88900000D01*
X218440000Y-86520000D02*
X218280000Y-86360000D01*
X149860000Y-95250000D02*
X157320000Y-95250000D01*
X157320000Y-95250000D02*
X157480000Y-95410000D01*
X143400000Y-69200000D02*
X143400000Y-71700000D01*
X161400000Y-69200000D02*
X161400000Y-71700000D01*
X202670000Y-77470000D02*
X202670000Y-73860000D01*
X202670000Y-73860000D02*
X202470000Y-73660000D01*
X149860000Y-63500000D02*
X156370000Y-63500000D01*
X156370000Y-63500000D02*
X157480000Y-62390000D01*
X201295000Y-86995000D02*
X199390000Y-88900000D01*
X187960000Y-88900000D02*
X186690000Y-87630000D01*
X199390000Y-88900000D02*
X187960000Y-88900000D01*
X186690000Y-87630000D02*
X186690000Y-86890000D01*
X201295000Y-83185000D02*
X203835000Y-83185000D01*
X217170000Y-92710000D02*
X217170000Y-96520000D01*
X215900000Y-91440000D02*
X217170000Y-92710000D01*
X209550000Y-91440000D02*
X215900000Y-91440000D01*
X208280000Y-92710000D02*
X209550000Y-91440000D01*
X205740000Y-92710000D02*
X208280000Y-92710000D01*
X204470000Y-91440000D02*
X205740000Y-92710000D01*
X204470000Y-83820000D02*
X204470000Y-91440000D01*
X203835000Y-83185000D02*
X204470000Y-83820000D01*
X194310000Y-83090000D02*
X196850000Y-83090000D01*
X201295000Y-83185000D02*
X196945000Y-83185000D01*
X196945000Y-83185000D02*
X196850000Y-83090000D01*
X194310000Y-87090000D02*
X196850000Y-87090000D01*
X191770000Y-87090000D02*
X194310000Y-87090000D01*
X201295000Y-84455000D02*
X200025000Y-84455000D01*
X200025000Y-84455000D02*
X197390000Y-87090000D01*
X197390000Y-87090000D02*
X196850000Y-87090000D01*
X191770000Y-69850000D02*
X165100000Y-69850000D01*
X209550000Y-59690000D02*
X199390000Y-59690000D01*
X198120000Y-67310000D02*
X200660000Y-69850000D01*
X198120000Y-60960000D02*
X198120000Y-67310000D01*
X199390000Y-59690000D02*
X198120000Y-60960000D01*
X190500000Y-74200000D02*
X190500000Y-71120000D01*
X190500000Y-71120000D02*
X191770000Y-69850000D01*
X191770000Y-69850000D02*
X200660000Y-69850000D01*
X210090000Y-69310000D02*
X210090000Y-67310000D01*
X200660000Y-69850000D02*
X209550000Y-69850000D01*
X209550000Y-69850000D02*
X210090000Y-69310000D01*
X161400000Y-80700000D02*
X161400000Y-83200000D01*
X165100000Y-62390000D02*
X165100000Y-69850000D01*
X165100000Y-69850000D02*
X165100000Y-82550000D01*
X165100000Y-82550000D02*
X164450000Y-83200000D01*
X164450000Y-83200000D02*
X161400000Y-83200000D01*
X210090000Y-67310000D02*
X210090000Y-71660000D01*
X214630000Y-76200000D02*
X214630000Y-78740000D01*
X210090000Y-71660000D02*
X214630000Y-76200000D01*
X207645000Y-83185000D02*
X207645000Y-81915000D01*
X207645000Y-81915000D02*
X210820000Y-78740000D01*
X210820000Y-78740000D02*
X214630000Y-78740000D01*
X214630000Y-78740000D02*
X216440000Y-78740000D01*
X207010000Y-81280000D02*
X207645000Y-81915000D01*
X228600000Y-60230000D02*
X225520000Y-60230000D01*
X225520000Y-60230000D02*
X224790000Y-60960000D01*
X224790000Y-60960000D02*
X224790000Y-62230000D01*
X165100000Y-62390000D02*
X165100000Y-62230000D01*
X165100000Y-62230000D02*
X162560000Y-59690000D01*
X144400000Y-60960000D02*
X143510000Y-61850000D01*
X153670000Y-60960000D02*
X144400000Y-60960000D01*
X154940000Y-59690000D02*
X153670000Y-60960000D01*
X162560000Y-59690000D02*
X154940000Y-59690000D01*
X143510000Y-61850000D02*
X143890000Y-61850000D01*
X191770000Y-83090000D02*
X186890000Y-83090000D01*
X186890000Y-83090000D02*
X186690000Y-83290000D01*
X210840000Y-90170000D02*
X210840000Y-87110000D01*
X210840000Y-87110000D02*
X210820000Y-87090000D01*
X210820000Y-87090000D02*
X213360000Y-87090000D01*
X207645000Y-85725000D02*
X210185000Y-85725000D01*
X210185000Y-85725000D02*
X210820000Y-86360000D01*
X210820000Y-86360000D02*
X210820000Y-87090000D01*
X219710000Y-96520000D02*
X222250000Y-96520000D01*
X219710000Y-96520000D02*
X219710000Y-91440000D01*
X219710000Y-91440000D02*
X218440000Y-90170000D01*
X218440000Y-90170000D02*
X213340000Y-90170000D01*
X207645000Y-86995000D02*
X206375000Y-86995000D01*
X198660000Y-80010000D02*
X196850000Y-78200000D01*
X199390000Y-80010000D02*
X198660000Y-80010000D01*
X200660000Y-81280000D02*
X199390000Y-80010000D01*
X204470000Y-81280000D02*
X200660000Y-81280000D01*
X205740000Y-82550000D02*
X204470000Y-81280000D01*
X205740000Y-86360000D02*
X205740000Y-82550000D01*
X206375000Y-86995000D02*
X205740000Y-86360000D01*
X194310000Y-78200000D02*
X196850000Y-78200000D01*
X186690000Y-78000000D02*
X194110000Y-78000000D01*
X194110000Y-78000000D02*
X194310000Y-78200000D01*
X207645000Y-86995000D02*
X207645000Y-88995000D01*
X207645000Y-88995000D02*
X206470000Y-90170000D01*
X218440000Y-76200000D02*
X220980000Y-76200000D01*
X222270000Y-74910000D02*
X222270000Y-73660000D01*
X220980000Y-76200000D02*
X222270000Y-74910000D01*
X213360000Y-83090000D02*
X216630000Y-83090000D01*
X218440000Y-81280000D02*
X218440000Y-76200000D01*
X216630000Y-83090000D02*
X218440000Y-81280000D01*
X210820000Y-83090000D02*
X213360000Y-83090000D01*
X207645000Y-84455000D02*
X210185000Y-84455000D01*
X210185000Y-84455000D02*
X210820000Y-83820000D01*
X210820000Y-83820000D02*
X210820000Y-83090000D01*
X214090000Y-64770000D02*
X217170000Y-64770000D01*
X224770000Y-73660000D02*
X227330000Y-73660000D01*
X227330000Y-73660000D02*
X228600000Y-72390000D01*
X228600000Y-72390000D02*
X228600000Y-71850000D01*
X224770000Y-73660000D02*
X224770000Y-69870000D01*
X224770000Y-69870000D02*
X224790000Y-69850000D01*
X206270000Y-64770000D02*
X210090000Y-64770000D01*
X210090000Y-64770000D02*
X212090000Y-64770000D01*
X212090000Y-67310000D02*
X214090000Y-67310000D01*
X212090000Y-64770000D02*
X212090000Y-67310000D01*
X214090000Y-67310000D02*
X217170000Y-67310000D01*
X219710000Y-57150000D02*
X219710000Y-66040000D01*
X218440000Y-67310000D02*
X217170000Y-67310000D01*
X219710000Y-66040000D02*
X218440000Y-67310000D01*
X217170000Y-57150000D02*
X219710000Y-57150000D01*
X206470000Y-73660000D02*
X209550000Y-73660000D01*
X219710000Y-72390000D02*
X224790000Y-67310000D01*
X219710000Y-73660000D02*
X219710000Y-72390000D01*
X218440000Y-74930000D02*
X219710000Y-73660000D01*
X215900000Y-74930000D02*
X218440000Y-74930000D01*
X214630000Y-73660000D02*
X215900000Y-74930000D01*
X224790000Y-67310000D02*
X223520000Y-67310000D01*
X222250000Y-57150000D02*
X222250000Y-66040000D01*
X222250000Y-66040000D02*
X223520000Y-67310000D01*
X206270000Y-77470000D02*
X206270000Y-73860000D01*
X206270000Y-73860000D02*
X206470000Y-73660000D01*
X224790000Y-67310000D02*
X228060000Y-67310000D01*
X228060000Y-67310000D02*
X228600000Y-67850000D01*
X227330000Y-90170000D02*
X227330000Y-87630000D01*
X226060000Y-86360000D02*
X223680000Y-86360000D01*
X227330000Y-87630000D02*
X226060000Y-86360000D01*
X143510000Y-65150000D02*
X146430000Y-65150000D01*
X147320000Y-66040000D02*
X147320000Y-67850000D01*
X146430000Y-65150000D02*
X147320000Y-66040000D01*
X224790000Y-64770000D02*
X228060000Y-64770000D01*
X228060000Y-64770000D02*
X228600000Y-64230000D01*
X227330000Y-92710000D02*
X222250000Y-92710000D01*
X220980000Y-91440000D02*
X220980000Y-79280000D01*
X222250000Y-92710000D02*
X220980000Y-91440000D01*
X220980000Y-79280000D02*
X220440000Y-78740000D01*
X157480000Y-56990000D02*
X151290000Y-56990000D01*
X151290000Y-56990000D02*
X149860000Y-58420000D01*
D33*
G36*
X156032560Y-56105000D02*
X151290000Y-56105000D01*
X150951325Y-56172367D01*
X150801375Y-56272560D01*
X148360000Y-56272560D01*
X148124683Y-56316838D01*
X147908559Y-56455910D01*
X147763569Y-56668110D01*
X147712560Y-56920000D01*
X147712560Y-59920000D01*
X147741725Y-60075000D01*
X144400005Y-60075000D01*
X144400000Y-60074999D01*
X144117516Y-60131190D01*
X144061325Y-60142367D01*
X143774210Y-60334210D01*
X143774208Y-60334213D01*
X143655861Y-60452560D01*
X142760000Y-60452560D01*
X142524683Y-60496838D01*
X142308559Y-60635910D01*
X142163569Y-60848110D01*
X142112560Y-61100000D01*
X142112560Y-62600000D01*
X142156838Y-62835317D01*
X142295910Y-63051441D01*
X142508110Y-63196431D01*
X142760000Y-63247440D01*
X144260000Y-63247440D01*
X144495317Y-63203162D01*
X144630479Y-63116187D01*
X147717277Y-63116187D01*
X147733503Y-63965387D01*
X148027261Y-64674582D01*
X148346030Y-64834365D01*
X149680395Y-63500000D01*
X150039605Y-63500000D01*
X151373970Y-64834365D01*
X151692739Y-64674582D01*
X152002723Y-63883813D01*
X151986497Y-63034613D01*
X151837852Y-62675750D01*
X156045000Y-62675750D01*
X156045000Y-64266309D01*
X156141673Y-64499698D01*
X156320301Y-64678327D01*
X156553690Y-64775000D01*
X157194250Y-64775000D01*
X157353000Y-64616250D01*
X157353000Y-62517000D01*
X157607000Y-62517000D01*
X157607000Y-64616250D01*
X157765750Y-64775000D01*
X158406310Y-64775000D01*
X158639699Y-64678327D01*
X158818327Y-64499698D01*
X158915000Y-64266309D01*
X158915000Y-62675750D01*
X158756250Y-62517000D01*
X157607000Y-62517000D01*
X157353000Y-62517000D01*
X156203750Y-62517000D01*
X156045000Y-62675750D01*
X151837852Y-62675750D01*
X151692739Y-62325418D01*
X151373970Y-62165635D01*
X150039605Y-63500000D01*
X149680395Y-63500000D01*
X148346030Y-62165635D01*
X148027261Y-62325418D01*
X147717277Y-63116187D01*
X144630479Y-63116187D01*
X144711441Y-63064090D01*
X144856431Y-62851890D01*
X144907440Y-62600000D01*
X144907440Y-61845000D01*
X148596326Y-61845000D01*
X148525635Y-61986030D01*
X149860000Y-63320395D01*
X151194365Y-61986030D01*
X151123674Y-61845000D01*
X153669995Y-61845000D01*
X153670000Y-61845001D01*
X153952484Y-61788810D01*
X154008675Y-61777633D01*
X154295790Y-61585790D01*
X155306579Y-60575000D01*
X156045000Y-60575000D01*
X156045000Y-62104250D01*
X156203750Y-62263000D01*
X157353000Y-62263000D01*
X157353000Y-62243000D01*
X157607000Y-62243000D01*
X157607000Y-62263000D01*
X158756250Y-62263000D01*
X158915000Y-62104250D01*
X158915000Y-60575000D01*
X162193420Y-60575000D01*
X163652560Y-62034139D01*
X163652560Y-64140000D01*
X163696838Y-64375317D01*
X163835910Y-64591441D01*
X164048110Y-64736431D01*
X164215000Y-64770227D01*
X164215000Y-82183421D01*
X164083420Y-82315000D01*
X163073898Y-82315000D01*
X162998957Y-82133628D01*
X162815793Y-81950145D01*
X162997093Y-81769161D01*
X163284672Y-81076595D01*
X163285326Y-80326695D01*
X162998957Y-79633628D01*
X162469161Y-79102907D01*
X161776595Y-78815328D01*
X161026695Y-78814674D01*
X160333628Y-79101043D01*
X159802907Y-79630839D01*
X159515328Y-80323405D01*
X159514674Y-81073305D01*
X159801043Y-81766372D01*
X159984207Y-81949855D01*
X159802907Y-82130839D01*
X159515328Y-82823405D01*
X159514674Y-83573305D01*
X159801043Y-84266372D01*
X160330839Y-84797093D01*
X161023405Y-85084672D01*
X161773305Y-85085326D01*
X162466372Y-84798957D01*
X162997093Y-84269161D01*
X163073563Y-84085000D01*
X164449995Y-84085000D01*
X164450000Y-84085001D01*
X164732484Y-84028810D01*
X164788675Y-84017633D01*
X165075790Y-83825790D01*
X165725787Y-83175792D01*
X165725790Y-83175790D01*
X165917633Y-82888675D01*
X165930616Y-82823405D01*
X165985001Y-82550000D01*
X165985000Y-82549995D01*
X165985000Y-76835000D01*
X170740000Y-76835000D01*
X170890719Y-77592713D01*
X171319929Y-78235071D01*
X171962287Y-78664281D01*
X172720000Y-78815000D01*
X173477713Y-78664281D01*
X174120071Y-78235071D01*
X174549281Y-77592713D01*
X174700000Y-76835000D01*
X174549281Y-76077287D01*
X174120071Y-75434929D01*
X173477713Y-75005719D01*
X172720000Y-74855000D01*
X171962287Y-75005719D01*
X171319929Y-75434929D01*
X170890719Y-76077287D01*
X170740000Y-76835000D01*
X165985000Y-76835000D01*
X165985000Y-72973691D01*
X185255000Y-72973691D01*
X185255000Y-74114250D01*
X185413750Y-74273000D01*
X186563000Y-74273000D01*
X186563000Y-72623750D01*
X186817000Y-72623750D01*
X186817000Y-74273000D01*
X187966250Y-74273000D01*
X188125000Y-74114250D01*
X188125000Y-72973691D01*
X188028327Y-72740302D01*
X187849699Y-72561673D01*
X187616310Y-72465000D01*
X186975750Y-72465000D01*
X186817000Y-72623750D01*
X186563000Y-72623750D01*
X186404250Y-72465000D01*
X185763690Y-72465000D01*
X185530301Y-72561673D01*
X185351673Y-72740302D01*
X185255000Y-72973691D01*
X165985000Y-72973691D01*
X165985000Y-70735000D01*
X189713320Y-70735000D01*
X189682367Y-70781325D01*
X189682367Y-70781326D01*
X189614999Y-71120000D01*
X189615000Y-71120005D01*
X189615000Y-72559146D01*
X189414683Y-72596838D01*
X189198559Y-72735910D01*
X189053569Y-72948110D01*
X189002560Y-73200000D01*
X189002560Y-75200000D01*
X189046838Y-75435317D01*
X189185910Y-75651441D01*
X189398110Y-75796431D01*
X189650000Y-75847440D01*
X191350000Y-75847440D01*
X191585317Y-75803162D01*
X191801441Y-75664090D01*
X191946431Y-75451890D01*
X191997440Y-75200000D01*
X191997440Y-74485750D01*
X192875000Y-74485750D01*
X192875000Y-75326309D01*
X192971673Y-75559698D01*
X193150301Y-75738327D01*
X193383690Y-75835000D01*
X194024250Y-75835000D01*
X194183000Y-75676250D01*
X194183000Y-74327000D01*
X194437000Y-74327000D01*
X194437000Y-75676250D01*
X194595750Y-75835000D01*
X195236310Y-75835000D01*
X195469699Y-75738327D01*
X195555000Y-75653026D01*
X195640301Y-75738327D01*
X195873690Y-75835000D01*
X196564250Y-75835000D01*
X196723000Y-75676250D01*
X196723000Y-74327000D01*
X196977000Y-74327000D01*
X196977000Y-75676250D01*
X197135750Y-75835000D01*
X197826310Y-75835000D01*
X198059699Y-75738327D01*
X198238327Y-75559698D01*
X198335000Y-75326309D01*
X198335000Y-74485750D01*
X198176250Y-74327000D01*
X196977000Y-74327000D01*
X196723000Y-74327000D01*
X194437000Y-74327000D01*
X194183000Y-74327000D01*
X193033750Y-74327000D01*
X192875000Y-74485750D01*
X191997440Y-74485750D01*
X191997440Y-73200000D01*
X191973674Y-73073691D01*
X192875000Y-73073691D01*
X192875000Y-73914250D01*
X193033750Y-74073000D01*
X194183000Y-74073000D01*
X194183000Y-72723750D01*
X194437000Y-72723750D01*
X194437000Y-74073000D01*
X196723000Y-74073000D01*
X196723000Y-72723750D01*
X196977000Y-72723750D01*
X196977000Y-74073000D01*
X198176250Y-74073000D01*
X198303500Y-73945750D01*
X200835000Y-73945750D01*
X200835000Y-74636310D01*
X200931673Y-74869699D01*
X201110302Y-75048327D01*
X201343691Y-75145000D01*
X202184250Y-75145000D01*
X202343000Y-74986250D01*
X202343000Y-73787000D01*
X202597000Y-73787000D01*
X202597000Y-74986250D01*
X202755750Y-75145000D01*
X203596309Y-75145000D01*
X203829698Y-75048327D01*
X204008327Y-74869699D01*
X204105000Y-74636310D01*
X204105000Y-73945750D01*
X203946250Y-73787000D01*
X202597000Y-73787000D01*
X202343000Y-73787000D01*
X200993750Y-73787000D01*
X200835000Y-73945750D01*
X198303500Y-73945750D01*
X198335000Y-73914250D01*
X198335000Y-73073691D01*
X198238327Y-72840302D01*
X198081716Y-72683690D01*
X200835000Y-72683690D01*
X200835000Y-73374250D01*
X200993750Y-73533000D01*
X202343000Y-73533000D01*
X202343000Y-72333750D01*
X202597000Y-72333750D01*
X202597000Y-73533000D01*
X203946250Y-73533000D01*
X204105000Y-73374250D01*
X204105000Y-72683690D01*
X204008327Y-72450301D01*
X203829698Y-72271673D01*
X203596309Y-72175000D01*
X202755750Y-72175000D01*
X202597000Y-72333750D01*
X202343000Y-72333750D01*
X202184250Y-72175000D01*
X201343691Y-72175000D01*
X201110302Y-72271673D01*
X200931673Y-72450301D01*
X200835000Y-72683690D01*
X198081716Y-72683690D01*
X198059699Y-72661673D01*
X197826310Y-72565000D01*
X197135750Y-72565000D01*
X196977000Y-72723750D01*
X196723000Y-72723750D01*
X196564250Y-72565000D01*
X195873690Y-72565000D01*
X195640301Y-72661673D01*
X195555000Y-72746974D01*
X195469699Y-72661673D01*
X195236310Y-72565000D01*
X194595750Y-72565000D01*
X194437000Y-72723750D01*
X194183000Y-72723750D01*
X194024250Y-72565000D01*
X193383690Y-72565000D01*
X193150301Y-72661673D01*
X192971673Y-72840302D01*
X192875000Y-73073691D01*
X191973674Y-73073691D01*
X191953162Y-72964683D01*
X191814090Y-72748559D01*
X191601890Y-72603569D01*
X191385000Y-72559648D01*
X191385000Y-71486580D01*
X192136579Y-70735000D01*
X209205000Y-70735000D01*
X209205000Y-71659995D01*
X209204999Y-71660000D01*
X209248682Y-71879605D01*
X209272367Y-71998675D01*
X209357065Y-72125435D01*
X209456946Y-72274918D01*
X209275715Y-72274760D01*
X208766485Y-72485169D01*
X208476148Y-72775000D01*
X208110854Y-72775000D01*
X208073162Y-72574683D01*
X207934090Y-72358559D01*
X207721890Y-72213569D01*
X207470000Y-72162560D01*
X205470000Y-72162560D01*
X205234683Y-72206838D01*
X205018559Y-72345910D01*
X204873569Y-72558110D01*
X204822560Y-72810000D01*
X204822560Y-74510000D01*
X204866838Y-74745317D01*
X205005910Y-74961441D01*
X205218110Y-75106431D01*
X205385000Y-75140227D01*
X205385000Y-76022560D01*
X204970000Y-76022560D01*
X204734683Y-76066838D01*
X204518559Y-76205910D01*
X204472031Y-76274006D01*
X204329698Y-76131673D01*
X204096309Y-76035000D01*
X202955750Y-76035000D01*
X202797000Y-76193750D01*
X202797000Y-77343000D01*
X202817000Y-77343000D01*
X202817000Y-77597000D01*
X202797000Y-77597000D01*
X202797000Y-78746250D01*
X202955750Y-78905000D01*
X204096309Y-78905000D01*
X204329698Y-78808327D01*
X204470936Y-78667090D01*
X204505910Y-78721441D01*
X204718110Y-78866431D01*
X204970000Y-78917440D01*
X207570000Y-78917440D01*
X207805317Y-78873162D01*
X208021441Y-78734090D01*
X208166431Y-78521890D01*
X208217440Y-78270000D01*
X208217440Y-76670000D01*
X208173162Y-76434683D01*
X208034090Y-76218559D01*
X207821890Y-76073569D01*
X207570000Y-76022560D01*
X207155000Y-76022560D01*
X207155000Y-75157440D01*
X207470000Y-75157440D01*
X207705317Y-75113162D01*
X207921441Y-74974090D01*
X208066431Y-74761890D01*
X208110352Y-74545000D01*
X208476477Y-74545000D01*
X208764436Y-74833461D01*
X209273298Y-75044759D01*
X209824285Y-75045240D01*
X210333515Y-74834831D01*
X210723461Y-74445564D01*
X210934759Y-73936702D01*
X210934916Y-73756496D01*
X213745000Y-76566579D01*
X213745000Y-77855000D01*
X212474026Y-77855000D01*
X212649281Y-77592713D01*
X212800000Y-76835000D01*
X212649281Y-76077287D01*
X212220071Y-75434929D01*
X211577713Y-75005719D01*
X210820000Y-74855000D01*
X210062287Y-75005719D01*
X209419929Y-75434929D01*
X208990719Y-76077287D01*
X208840000Y-76835000D01*
X208990719Y-77592713D01*
X209419929Y-78235071D01*
X209811626Y-78496795D01*
X207998546Y-80309875D01*
X207795564Y-80106539D01*
X207286702Y-79895241D01*
X206735715Y-79894760D01*
X206226485Y-80105169D01*
X205836539Y-80494436D01*
X205625241Y-81003298D01*
X205625084Y-81183504D01*
X205095790Y-80654210D01*
X204859736Y-80496485D01*
X204808675Y-80462367D01*
X204752484Y-80451190D01*
X204470000Y-80394999D01*
X204469995Y-80395000D01*
X201026579Y-80395000D01*
X200015790Y-79384210D01*
X199889760Y-79300000D01*
X199728675Y-79192367D01*
X199672484Y-79181190D01*
X199390000Y-79124999D01*
X199389995Y-79125000D01*
X199026579Y-79125000D01*
X198347440Y-78445860D01*
X198347440Y-77755750D01*
X200735000Y-77755750D01*
X200735000Y-78396310D01*
X200831673Y-78629699D01*
X201010302Y-78808327D01*
X201243691Y-78905000D01*
X202384250Y-78905000D01*
X202543000Y-78746250D01*
X202543000Y-77597000D01*
X200893750Y-77597000D01*
X200735000Y-77755750D01*
X198347440Y-77755750D01*
X198347440Y-77200000D01*
X198303162Y-76964683D01*
X198164090Y-76748559D01*
X197951890Y-76603569D01*
X197700000Y-76552560D01*
X196000000Y-76552560D01*
X195764683Y-76596838D01*
X195552174Y-76733584D01*
X195361890Y-76603569D01*
X195110000Y-76552560D01*
X193510000Y-76552560D01*
X193274683Y-76596838D01*
X193058559Y-76735910D01*
X192913569Y-76948110D01*
X192879773Y-77115000D01*
X191981446Y-77115000D01*
X191953162Y-76964683D01*
X191814090Y-76748559D01*
X191601890Y-76603569D01*
X191350000Y-76552560D01*
X189650000Y-76552560D01*
X189414683Y-76596838D01*
X189198559Y-76735910D01*
X189053569Y-76948110D01*
X189019773Y-77115000D01*
X188137440Y-77115000D01*
X188137440Y-76700000D01*
X188108029Y-76543690D01*
X200735000Y-76543690D01*
X200735000Y-77184250D01*
X200893750Y-77343000D01*
X202543000Y-77343000D01*
X202543000Y-76193750D01*
X202384250Y-76035000D01*
X201243691Y-76035000D01*
X201010302Y-76131673D01*
X200831673Y-76310301D01*
X200735000Y-76543690D01*
X188108029Y-76543690D01*
X188093162Y-76464683D01*
X187954090Y-76248559D01*
X187885994Y-76202031D01*
X188028327Y-76059698D01*
X188125000Y-75826309D01*
X188125000Y-74685750D01*
X187966250Y-74527000D01*
X186817000Y-74527000D01*
X186817000Y-74547000D01*
X186563000Y-74547000D01*
X186563000Y-74527000D01*
X185413750Y-74527000D01*
X185255000Y-74685750D01*
X185255000Y-75826309D01*
X185351673Y-76059698D01*
X185492910Y-76200936D01*
X185438559Y-76235910D01*
X185293569Y-76448110D01*
X185242560Y-76700000D01*
X185242560Y-79300000D01*
X185286838Y-79535317D01*
X185425910Y-79751441D01*
X185638110Y-79896431D01*
X185890000Y-79947440D01*
X187490000Y-79947440D01*
X187725317Y-79903162D01*
X187941441Y-79764090D01*
X188086431Y-79551890D01*
X188137440Y-79300000D01*
X188137440Y-78885000D01*
X189002560Y-78885000D01*
X189002560Y-79200000D01*
X189046838Y-79435317D01*
X189185910Y-79651441D01*
X189398110Y-79796431D01*
X189650000Y-79847440D01*
X191350000Y-79847440D01*
X191585317Y-79803162D01*
X191801441Y-79664090D01*
X191946431Y-79451890D01*
X191997440Y-79200000D01*
X191997440Y-78885000D01*
X192862560Y-78885000D01*
X192862560Y-79200000D01*
X192906838Y-79435317D01*
X193045910Y-79651441D01*
X193258110Y-79796431D01*
X193510000Y-79847440D01*
X195110000Y-79847440D01*
X195345317Y-79803162D01*
X195557826Y-79666416D01*
X195748110Y-79796431D01*
X196000000Y-79847440D01*
X197245861Y-79847440D01*
X198034208Y-80635787D01*
X198034210Y-80635790D01*
X198061778Y-80654210D01*
X198321326Y-80827634D01*
X198660000Y-80895001D01*
X198660005Y-80895000D01*
X199023420Y-80895000D01*
X200034208Y-81905787D01*
X200034210Y-81905790D01*
X200270264Y-82063515D01*
X200321325Y-82097633D01*
X200660000Y-82165001D01*
X200660005Y-82165000D01*
X204103420Y-82165000D01*
X204855000Y-82916579D01*
X204855000Y-82953421D01*
X204460790Y-82559210D01*
X204322652Y-82466910D01*
X204173675Y-82367367D01*
X204117484Y-82356190D01*
X203835000Y-82299999D01*
X203834995Y-82300000D01*
X201947683Y-82300000D01*
X201866500Y-82283560D01*
X200723500Y-82283560D01*
X200636129Y-82300000D01*
X198347440Y-82300000D01*
X198347440Y-82090000D01*
X198303162Y-81854683D01*
X198164090Y-81638559D01*
X197951890Y-81493569D01*
X197700000Y-81442560D01*
X196000000Y-81442560D01*
X195764683Y-81486838D01*
X195552174Y-81623584D01*
X195361890Y-81493569D01*
X195110000Y-81442560D01*
X193510000Y-81442560D01*
X193274683Y-81486838D01*
X193062174Y-81623584D01*
X192871890Y-81493569D01*
X192620000Y-81442560D01*
X190920000Y-81442560D01*
X190684683Y-81486838D01*
X190468559Y-81625910D01*
X190323569Y-81838110D01*
X190272560Y-82090000D01*
X190272560Y-82205000D01*
X188137440Y-82205000D01*
X188137440Y-81990000D01*
X188093162Y-81754683D01*
X187954090Y-81538559D01*
X187741890Y-81393569D01*
X187490000Y-81342560D01*
X185890000Y-81342560D01*
X185654683Y-81386838D01*
X185438559Y-81525910D01*
X185293569Y-81738110D01*
X185242560Y-81990000D01*
X185242560Y-84590000D01*
X185286838Y-84825317D01*
X185425910Y-85041441D01*
X185494006Y-85087969D01*
X185351673Y-85230302D01*
X185255000Y-85463691D01*
X185255000Y-86604250D01*
X185413750Y-86763000D01*
X186563000Y-86763000D01*
X186563000Y-86743000D01*
X186817000Y-86743000D01*
X186817000Y-86763000D01*
X187966250Y-86763000D01*
X188125000Y-86604250D01*
X188125000Y-85463691D01*
X188028327Y-85230302D01*
X187887090Y-85089064D01*
X187941441Y-85054090D01*
X188086431Y-84841890D01*
X188137440Y-84590000D01*
X188137440Y-83975000D01*
X190272560Y-83975000D01*
X190272560Y-84090000D01*
X190316838Y-84325317D01*
X190455910Y-84541441D01*
X190668110Y-84686431D01*
X190920000Y-84737440D01*
X192620000Y-84737440D01*
X192855317Y-84693162D01*
X193067826Y-84556416D01*
X193258110Y-84686431D01*
X193510000Y-84737440D01*
X195110000Y-84737440D01*
X195345317Y-84693162D01*
X195557826Y-84556416D01*
X195748110Y-84686431D01*
X196000000Y-84737440D01*
X197700000Y-84737440D01*
X197935317Y-84693162D01*
X198151441Y-84554090D01*
X198296431Y-84341890D01*
X198347440Y-84090000D01*
X198347440Y-84070000D01*
X199158421Y-84070000D01*
X197771401Y-85457019D01*
X197700000Y-85442560D01*
X196000000Y-85442560D01*
X195764683Y-85486838D01*
X195552174Y-85623584D01*
X195361890Y-85493569D01*
X195110000Y-85442560D01*
X193510000Y-85442560D01*
X193274683Y-85486838D01*
X193062174Y-85623584D01*
X192871890Y-85493569D01*
X192620000Y-85442560D01*
X190920000Y-85442560D01*
X190684683Y-85486838D01*
X190468559Y-85625910D01*
X190323569Y-85838110D01*
X190272560Y-86090000D01*
X190272560Y-88090000D01*
X190316838Y-88325317D01*
X190455910Y-88541441D01*
X190668110Y-88686431D01*
X190920000Y-88737440D01*
X192620000Y-88737440D01*
X192855317Y-88693162D01*
X193067826Y-88556416D01*
X193258110Y-88686431D01*
X193510000Y-88737440D01*
X195110000Y-88737440D01*
X195345317Y-88693162D01*
X195557826Y-88556416D01*
X195748110Y-88686431D01*
X196000000Y-88737440D01*
X197700000Y-88737440D01*
X197935317Y-88693162D01*
X198151441Y-88554090D01*
X198296431Y-88341890D01*
X198347440Y-88090000D01*
X198347440Y-87384140D01*
X198450829Y-87280750D01*
X200088500Y-87280750D01*
X200088500Y-87375309D01*
X200185173Y-87608698D01*
X200363801Y-87787327D01*
X200597190Y-87884000D01*
X201009250Y-87884000D01*
X201168000Y-87725250D01*
X201168000Y-87122000D01*
X200247250Y-87122000D01*
X200088500Y-87280750D01*
X198450829Y-87280750D01*
X200076060Y-85655519D01*
X200076060Y-85979000D01*
X200120338Y-86214317D01*
X200211104Y-86355371D01*
X200185173Y-86381302D01*
X200088500Y-86614691D01*
X200088500Y-86709250D01*
X200247250Y-86868000D01*
X201168000Y-86868000D01*
X201168000Y-86848000D01*
X201422000Y-86848000D01*
X201422000Y-86868000D01*
X201442000Y-86868000D01*
X201442000Y-87122000D01*
X201422000Y-87122000D01*
X201422000Y-87725250D01*
X201580750Y-87884000D01*
X201992810Y-87884000D01*
X202226199Y-87787327D01*
X202315000Y-87698526D01*
X202315000Y-88672560D01*
X201470000Y-88672560D01*
X201234683Y-88716838D01*
X201018559Y-88855910D01*
X200873569Y-89068110D01*
X200829648Y-89285000D01*
X198195453Y-89285000D01*
X198114090Y-89158559D01*
X197901890Y-89013569D01*
X197650000Y-88962560D01*
X196050000Y-88962560D01*
X195814683Y-89006838D01*
X195598559Y-89145910D01*
X195453569Y-89358110D01*
X195402560Y-89610000D01*
X195402560Y-92210000D01*
X195446838Y-92445317D01*
X195585910Y-92661441D01*
X195655711Y-92709134D01*
X195598559Y-92745910D01*
X195453569Y-92958110D01*
X195402560Y-93210000D01*
X195402560Y-95810000D01*
X195446838Y-96045317D01*
X195585910Y-96261441D01*
X195798110Y-96406431D01*
X196050000Y-96457440D01*
X196805860Y-96457440D01*
X197494208Y-97145787D01*
X197494210Y-97145790D01*
X197691648Y-97277713D01*
X197781325Y-97337633D01*
X198120000Y-97405001D01*
X198120005Y-97405000D01*
X208279995Y-97405000D01*
X208280000Y-97405001D01*
X208562484Y-97348810D01*
X208618675Y-97337633D01*
X208905790Y-97145790D01*
X208905791Y-97145789D01*
X210175787Y-95875792D01*
X210175790Y-95875790D01*
X210367633Y-95588675D01*
X210377912Y-95537000D01*
X210435001Y-95250000D01*
X210435000Y-95249995D01*
X210435000Y-95070478D01*
X210733629Y-94772370D01*
X210819949Y-94564488D01*
X210904990Y-94770303D01*
X211297630Y-95163629D01*
X211810900Y-95376757D01*
X212366661Y-95377242D01*
X212880303Y-95165010D01*
X213273629Y-94772370D01*
X213486757Y-94259100D01*
X213487242Y-93703339D01*
X213275010Y-93189697D01*
X212882370Y-92796371D01*
X212369100Y-92583243D01*
X211813339Y-92582758D01*
X211299697Y-92794990D01*
X210906371Y-93187630D01*
X210820051Y-93395512D01*
X210735010Y-93189697D01*
X210342370Y-92796371D01*
X209829100Y-92583243D01*
X209658485Y-92583094D01*
X209916579Y-92325000D01*
X215533420Y-92325000D01*
X216285000Y-93076579D01*
X216285000Y-95429522D01*
X215986371Y-95727630D01*
X215773243Y-96240900D01*
X215772758Y-96796661D01*
X215984990Y-97310303D01*
X216377630Y-97703629D01*
X216890900Y-97916757D01*
X217446661Y-97917242D01*
X217960303Y-97705010D01*
X218353629Y-97312370D01*
X218439949Y-97104488D01*
X218524990Y-97310303D01*
X218917630Y-97703629D01*
X219430900Y-97916757D01*
X219986661Y-97917242D01*
X220500303Y-97705010D01*
X220893629Y-97312370D01*
X220979949Y-97104488D01*
X221064990Y-97310303D01*
X221457630Y-97703629D01*
X221970900Y-97916757D01*
X222526661Y-97917242D01*
X223040303Y-97705010D01*
X223433629Y-97312370D01*
X223646757Y-96799100D01*
X223647242Y-96243339D01*
X223435010Y-95729697D01*
X223042370Y-95336371D01*
X222529100Y-95123243D01*
X221973339Y-95122758D01*
X221459697Y-95334990D01*
X221066371Y-95727630D01*
X220980051Y-95935512D01*
X220895010Y-95729697D01*
X220595000Y-95429163D01*
X220595000Y-92306580D01*
X221624208Y-93335787D01*
X221624210Y-93335790D01*
X221911325Y-93527633D01*
X222250000Y-93595001D01*
X222250005Y-93595000D01*
X225926602Y-93595000D01*
X225943106Y-93634943D01*
X226402637Y-94095278D01*
X227003352Y-94344716D01*
X227653795Y-94345284D01*
X228254943Y-94096894D01*
X228715278Y-93637363D01*
X228964716Y-93036648D01*
X228965284Y-92386205D01*
X228716894Y-91785057D01*
X228650379Y-91718426D01*
X228781441Y-91634090D01*
X228926431Y-91421890D01*
X228977440Y-91170000D01*
X228977440Y-89170000D01*
X228933162Y-88934683D01*
X228794090Y-88718559D01*
X228581890Y-88573569D01*
X228330000Y-88522560D01*
X228215000Y-88522560D01*
X228215000Y-87630005D01*
X228215001Y-87630000D01*
X228147633Y-87291325D01*
X228140567Y-87280750D01*
X227955790Y-87004210D01*
X227955787Y-87004208D01*
X226685790Y-85734210D01*
X226542637Y-85638559D01*
X226398675Y-85542367D01*
X226342484Y-85531190D01*
X226061502Y-85475298D01*
X226033162Y-85324683D01*
X225894090Y-85108559D01*
X225681890Y-84963569D01*
X225430000Y-84912560D01*
X221930000Y-84912560D01*
X221865000Y-84924791D01*
X221865000Y-80071104D01*
X221891441Y-80054090D01*
X222036431Y-79841890D01*
X222087440Y-79590000D01*
X222087440Y-77890000D01*
X222043162Y-77654683D01*
X221904090Y-77438559D01*
X221691890Y-77293569D01*
X221440000Y-77242560D01*
X219440000Y-77242560D01*
X219325000Y-77264199D01*
X219325000Y-77085000D01*
X220979995Y-77085000D01*
X220980000Y-77085001D01*
X221262484Y-77028810D01*
X221318675Y-77017633D01*
X221605790Y-76825790D01*
X222895787Y-75535792D01*
X222895790Y-75535790D01*
X223087633Y-75248675D01*
X223155000Y-74910000D01*
X223155000Y-74907038D01*
X223255317Y-74888162D01*
X223471441Y-74749090D01*
X223519134Y-74679289D01*
X223555910Y-74736441D01*
X223768110Y-74881431D01*
X224020000Y-74932440D01*
X225520000Y-74932440D01*
X225755317Y-74888162D01*
X225971441Y-74749090D01*
X226110890Y-74545000D01*
X227329995Y-74545000D01*
X227330000Y-74545001D01*
X227627868Y-74485750D01*
X227668675Y-74477633D01*
X227955790Y-74285790D01*
X227955791Y-74285789D01*
X228744139Y-73497440D01*
X229160000Y-73497440D01*
X229160000Y-95765902D01*
X229159281Y-95762287D01*
X228730071Y-95119929D01*
X228087713Y-94690719D01*
X227330000Y-94540000D01*
X226572287Y-94690719D01*
X225929929Y-95119929D01*
X225500719Y-95762287D01*
X225350000Y-96520000D01*
X225500719Y-97277713D01*
X225929929Y-97920071D01*
X226572287Y-98349281D01*
X226575902Y-98350000D01*
X144264098Y-98350000D01*
X144267713Y-98349281D01*
X144910071Y-97920071D01*
X145339281Y-97277713D01*
X145441471Y-96763970D01*
X148525635Y-96763970D01*
X148685418Y-97082739D01*
X149476187Y-97392723D01*
X150325387Y-97376497D01*
X151034582Y-97082739D01*
X151194365Y-96763970D01*
X149860000Y-95429605D01*
X148525635Y-96763970D01*
X145441471Y-96763970D01*
X145490000Y-96520000D01*
X145339281Y-95762287D01*
X144910071Y-95119929D01*
X144530320Y-94866187D01*
X147717277Y-94866187D01*
X147733503Y-95715387D01*
X148027261Y-96424582D01*
X148346030Y-96584365D01*
X149680395Y-95250000D01*
X150039605Y-95250000D01*
X151373970Y-96584365D01*
X151692739Y-96424582D01*
X151978443Y-95695750D01*
X156045000Y-95695750D01*
X156045000Y-97286309D01*
X156141673Y-97519698D01*
X156320301Y-97698327D01*
X156553690Y-97795000D01*
X157194250Y-97795000D01*
X157353000Y-97636250D01*
X157353000Y-95537000D01*
X157607000Y-95537000D01*
X157607000Y-97636250D01*
X157765750Y-97795000D01*
X158406310Y-97795000D01*
X158639699Y-97698327D01*
X158818327Y-97519698D01*
X158915000Y-97286309D01*
X158915000Y-95695750D01*
X158756250Y-95537000D01*
X157607000Y-95537000D01*
X157353000Y-95537000D01*
X156203750Y-95537000D01*
X156045000Y-95695750D01*
X151978443Y-95695750D01*
X152002723Y-95633813D01*
X151986497Y-94784613D01*
X151692739Y-94075418D01*
X151373970Y-93915635D01*
X150039605Y-95250000D01*
X149680395Y-95250000D01*
X148346030Y-93915635D01*
X148027261Y-94075418D01*
X147717277Y-94866187D01*
X144530320Y-94866187D01*
X144267713Y-94690719D01*
X143510000Y-94540000D01*
X142752287Y-94690719D01*
X142109929Y-95119929D01*
X141680719Y-95762287D01*
X141680000Y-95765902D01*
X141680000Y-93736030D01*
X148525635Y-93736030D01*
X149860000Y-95070395D01*
X151194365Y-93736030D01*
X151092943Y-93533691D01*
X156045000Y-93533691D01*
X156045000Y-95124250D01*
X156203750Y-95283000D01*
X157353000Y-95283000D01*
X157353000Y-93183750D01*
X157607000Y-93183750D01*
X157607000Y-95283000D01*
X158756250Y-95283000D01*
X158915000Y-95124250D01*
X158915000Y-94960213D01*
X170649392Y-94960213D01*
X170718857Y-95202397D01*
X171242302Y-95389144D01*
X171797368Y-95361362D01*
X172181143Y-95202397D01*
X172250608Y-94960213D01*
X173189392Y-94960213D01*
X173258857Y-95202397D01*
X173782302Y-95389144D01*
X174337368Y-95361362D01*
X174721143Y-95202397D01*
X174790608Y-94960213D01*
X173990000Y-94159605D01*
X173189392Y-94960213D01*
X172250608Y-94960213D01*
X171450000Y-94159605D01*
X170649392Y-94960213D01*
X158915000Y-94960213D01*
X158915000Y-93772302D01*
X170040856Y-93772302D01*
X170068638Y-94327368D01*
X170227603Y-94711143D01*
X170469787Y-94780608D01*
X171270395Y-93980000D01*
X171629605Y-93980000D01*
X172430213Y-94780608D01*
X172672397Y-94711143D01*
X172716453Y-94587656D01*
X172767603Y-94711143D01*
X173009787Y-94780608D01*
X173810395Y-93980000D01*
X174169605Y-93980000D01*
X174970213Y-94780608D01*
X175212397Y-94711143D01*
X175399144Y-94187698D01*
X175371362Y-93632632D01*
X175212397Y-93248857D01*
X174970213Y-93179392D01*
X174169605Y-93980000D01*
X173810395Y-93980000D01*
X173009787Y-93179392D01*
X172767603Y-93248857D01*
X172723547Y-93372344D01*
X172672397Y-93248857D01*
X172430213Y-93179392D01*
X171629605Y-93980000D01*
X171270395Y-93980000D01*
X170469787Y-93179392D01*
X170227603Y-93248857D01*
X170040856Y-93772302D01*
X158915000Y-93772302D01*
X158915000Y-93533691D01*
X158818327Y-93300302D01*
X158639699Y-93121673D01*
X158406310Y-93025000D01*
X157765750Y-93025000D01*
X157607000Y-93183750D01*
X157353000Y-93183750D01*
X157194250Y-93025000D01*
X156553690Y-93025000D01*
X156320301Y-93121673D01*
X156141673Y-93300302D01*
X156045000Y-93533691D01*
X151092943Y-93533691D01*
X151034582Y-93417261D01*
X150243813Y-93107277D01*
X149394613Y-93123503D01*
X148685418Y-93417261D01*
X148525635Y-93736030D01*
X141680000Y-93736030D01*
X141680000Y-92999787D01*
X170649392Y-92999787D01*
X171450000Y-93800395D01*
X172250608Y-92999787D01*
X173189392Y-92999787D01*
X173990000Y-93800395D01*
X174790608Y-92999787D01*
X174721143Y-92757603D01*
X174197698Y-92570856D01*
X173642632Y-92598638D01*
X173258857Y-92757603D01*
X173189392Y-92999787D01*
X172250608Y-92999787D01*
X172181143Y-92757603D01*
X171657698Y-92570856D01*
X171102632Y-92598638D01*
X170718857Y-92757603D01*
X170649392Y-92999787D01*
X141680000Y-92999787D01*
X141680000Y-88670000D01*
X147712560Y-88670000D01*
X147712560Y-91670000D01*
X147756838Y-91905317D01*
X147895910Y-92121441D01*
X148108110Y-92266431D01*
X148360000Y-92317440D01*
X151360000Y-92317440D01*
X151595317Y-92273162D01*
X151811441Y-92134090D01*
X151956431Y-91921890D01*
X152007440Y-91670000D01*
X152007440Y-88670000D01*
X151963162Y-88434683D01*
X151824090Y-88218559D01*
X151611890Y-88073569D01*
X151360000Y-88022560D01*
X148360000Y-88022560D01*
X148124683Y-88066838D01*
X147908559Y-88205910D01*
X147763569Y-88418110D01*
X147712560Y-88670000D01*
X141680000Y-88670000D01*
X141680000Y-86634285D01*
X153554760Y-86634285D01*
X153765169Y-87143515D01*
X154154436Y-87533461D01*
X154663298Y-87744759D01*
X155214285Y-87745240D01*
X155723515Y-87534831D01*
X155928562Y-87330141D01*
X156329425Y-87731004D01*
X156228559Y-87795910D01*
X156083569Y-88008110D01*
X156032560Y-88260000D01*
X156032560Y-91760000D01*
X156076838Y-91995317D01*
X156215910Y-92211441D01*
X156428110Y-92356431D01*
X156680000Y-92407440D01*
X158280000Y-92407440D01*
X158515317Y-92363162D01*
X158731441Y-92224090D01*
X158876431Y-92011890D01*
X158927440Y-91760000D01*
X158927440Y-88260000D01*
X158883162Y-88024683D01*
X158744090Y-87808559D01*
X158531890Y-87663569D01*
X158364954Y-87629764D01*
X158297633Y-87291325D01*
X158290567Y-87280750D01*
X158220409Y-87175750D01*
X185255000Y-87175750D01*
X185255000Y-88316309D01*
X185351673Y-88549698D01*
X185530301Y-88728327D01*
X185763690Y-88825000D01*
X186404250Y-88825000D01*
X186563000Y-88666250D01*
X186563000Y-87017000D01*
X186817000Y-87017000D01*
X186817000Y-88666250D01*
X186975750Y-88825000D01*
X187616310Y-88825000D01*
X187849699Y-88728327D01*
X188028327Y-88549698D01*
X188125000Y-88316309D01*
X188125000Y-87175750D01*
X187966250Y-87017000D01*
X186817000Y-87017000D01*
X186563000Y-87017000D01*
X185413750Y-87017000D01*
X185255000Y-87175750D01*
X158220409Y-87175750D01*
X158105790Y-87004210D01*
X158105787Y-87004208D01*
X156835790Y-85734210D01*
X156692637Y-85638559D01*
X156548675Y-85542367D01*
X156492484Y-85531190D01*
X156210000Y-85474999D01*
X156209995Y-85475000D01*
X156013523Y-85475000D01*
X155725564Y-85186539D01*
X155216702Y-84975241D01*
X154665715Y-84974760D01*
X154156485Y-85185169D01*
X153766539Y-85574436D01*
X153555241Y-86083298D01*
X153554760Y-86634285D01*
X141680000Y-86634285D01*
X141680000Y-83973425D01*
X141801043Y-84266372D01*
X142330839Y-84797093D01*
X143023405Y-85084672D01*
X143773305Y-85085326D01*
X144466372Y-84798957D01*
X144997093Y-84269161D01*
X145284672Y-83576595D01*
X145285326Y-82826695D01*
X144998957Y-82133628D01*
X144815793Y-81950145D01*
X144997093Y-81769161D01*
X145284672Y-81076595D01*
X145285326Y-80326695D01*
X144998957Y-79633628D01*
X144469161Y-79102907D01*
X143776595Y-78815328D01*
X143026695Y-78814674D01*
X142333628Y-79101043D01*
X141802907Y-79630839D01*
X141680000Y-79926831D01*
X141680000Y-73033320D01*
X142246285Y-73033320D01*
X142375533Y-73326123D01*
X143075806Y-73594388D01*
X143825435Y-73574250D01*
X144424467Y-73326123D01*
X144553715Y-73033320D01*
X143400000Y-71879605D01*
X142246285Y-73033320D01*
X141680000Y-73033320D01*
X141680000Y-72497828D01*
X141773877Y-72724467D01*
X142066680Y-72853715D01*
X143220395Y-71700000D01*
X143206253Y-71685858D01*
X143385858Y-71506253D01*
X143400000Y-71520395D01*
X143414143Y-71506253D01*
X143593748Y-71685858D01*
X143579605Y-71700000D01*
X144733320Y-72853715D01*
X145026123Y-72724467D01*
X145251652Y-72135750D01*
X145835000Y-72135750D01*
X145835000Y-72976309D01*
X145931673Y-73209698D01*
X146110301Y-73388327D01*
X146343690Y-73485000D01*
X147034250Y-73485000D01*
X147193000Y-73326250D01*
X147193000Y-71977000D01*
X147447000Y-71977000D01*
X147447000Y-73326250D01*
X147605750Y-73485000D01*
X148296310Y-73485000D01*
X148529699Y-73388327D01*
X148708327Y-73209698D01*
X148781385Y-73033320D01*
X160246285Y-73033320D01*
X160375533Y-73326123D01*
X161075806Y-73594388D01*
X161825435Y-73574250D01*
X162424467Y-73326123D01*
X162553715Y-73033320D01*
X161400000Y-71879605D01*
X160246285Y-73033320D01*
X148781385Y-73033320D01*
X148805000Y-72976309D01*
X148805000Y-72135750D01*
X148646250Y-71977000D01*
X147447000Y-71977000D01*
X147193000Y-71977000D01*
X145993750Y-71977000D01*
X145835000Y-72135750D01*
X145251652Y-72135750D01*
X145294388Y-72024194D01*
X145274250Y-71274565D01*
X145112928Y-70885098D01*
X145188327Y-70809699D01*
X145223952Y-70723691D01*
X145835000Y-70723691D01*
X145835000Y-71564250D01*
X145993750Y-71723000D01*
X147193000Y-71723000D01*
X147193000Y-70373750D01*
X147447000Y-70373750D01*
X147447000Y-71723000D01*
X148646250Y-71723000D01*
X148805000Y-71564250D01*
X148805000Y-70723691D01*
X148708327Y-70490302D01*
X148529699Y-70311673D01*
X148296310Y-70215000D01*
X147605750Y-70215000D01*
X147447000Y-70373750D01*
X147193000Y-70373750D01*
X147034250Y-70215000D01*
X146343690Y-70215000D01*
X146110301Y-70311673D01*
X145931673Y-70490302D01*
X145835000Y-70723691D01*
X145223952Y-70723691D01*
X145285000Y-70576310D01*
X145285000Y-69485750D01*
X145126250Y-69327000D01*
X143527000Y-69327000D01*
X143527000Y-69347000D01*
X143273000Y-69347000D01*
X143273000Y-69327000D01*
X143253000Y-69327000D01*
X143253000Y-69073000D01*
X143273000Y-69073000D01*
X143273000Y-67473750D01*
X143527000Y-67473750D01*
X143527000Y-69073000D01*
X145126250Y-69073000D01*
X145285000Y-68914250D01*
X145285000Y-67823690D01*
X145188327Y-67590301D01*
X145009698Y-67411673D01*
X144776309Y-67315000D01*
X143685750Y-67315000D01*
X143527000Y-67473750D01*
X143273000Y-67473750D01*
X143114250Y-67315000D01*
X142023691Y-67315000D01*
X141790302Y-67411673D01*
X141680000Y-67521974D01*
X141680000Y-64400000D01*
X142112560Y-64400000D01*
X142112560Y-65900000D01*
X142156838Y-66135317D01*
X142295910Y-66351441D01*
X142508110Y-66496431D01*
X142760000Y-66547440D01*
X144260000Y-66547440D01*
X144495317Y-66503162D01*
X144711441Y-66364090D01*
X144856431Y-66151890D01*
X144880102Y-66035000D01*
X146063420Y-66035000D01*
X146268833Y-66240412D01*
X146234683Y-66246838D01*
X146018559Y-66385910D01*
X145873569Y-66598110D01*
X145822560Y-66850000D01*
X145822560Y-68850000D01*
X145866838Y-69085317D01*
X146005910Y-69301441D01*
X146218110Y-69446431D01*
X146470000Y-69497440D01*
X148170000Y-69497440D01*
X148405317Y-69453162D01*
X148621441Y-69314090D01*
X148766431Y-69101890D01*
X148812214Y-68875806D01*
X159505612Y-68875806D01*
X159525750Y-69625435D01*
X159773877Y-70224467D01*
X160042471Y-70343029D01*
X159952946Y-70432554D01*
X159970392Y-70450000D01*
X159952946Y-70467446D01*
X160042471Y-70556971D01*
X159773877Y-70675533D01*
X159505612Y-71375806D01*
X159525750Y-72125435D01*
X159773877Y-72724467D01*
X160066680Y-72853715D01*
X161220395Y-71700000D01*
X161206253Y-71685858D01*
X161385858Y-71506253D01*
X161400000Y-71520395D01*
X161414143Y-71506253D01*
X161593748Y-71685858D01*
X161579605Y-71700000D01*
X162733320Y-72853715D01*
X163026123Y-72724467D01*
X163294388Y-72024194D01*
X163274250Y-71274565D01*
X163026123Y-70675533D01*
X162757529Y-70556971D01*
X162847054Y-70467446D01*
X162829608Y-70450000D01*
X162847054Y-70432554D01*
X162757529Y-70343029D01*
X163026123Y-70224467D01*
X163294388Y-69524194D01*
X163274250Y-68774565D01*
X163026123Y-68175533D01*
X162733320Y-68046285D01*
X161579605Y-69200000D01*
X161593748Y-69214143D01*
X161414143Y-69393748D01*
X161400000Y-69379605D01*
X161385858Y-69393748D01*
X161206253Y-69214143D01*
X161220395Y-69200000D01*
X160066680Y-68046285D01*
X159773877Y-68175533D01*
X159505612Y-68875806D01*
X148812214Y-68875806D01*
X148817440Y-68850000D01*
X148817440Y-67866680D01*
X160246285Y-67866680D01*
X161400000Y-69020395D01*
X162553715Y-67866680D01*
X162424467Y-67573877D01*
X161724194Y-67305612D01*
X160974565Y-67325750D01*
X160375533Y-67573877D01*
X160246285Y-67866680D01*
X148817440Y-67866680D01*
X148817440Y-66850000D01*
X148773162Y-66614683D01*
X148634090Y-66398559D01*
X148421890Y-66253569D01*
X148205000Y-66209648D01*
X148205000Y-66040005D01*
X148205001Y-66040000D01*
X148137633Y-65701326D01*
X148137633Y-65701325D01*
X147945790Y-65414210D01*
X147945787Y-65414208D01*
X147545550Y-65013970D01*
X148525635Y-65013970D01*
X148685418Y-65332739D01*
X149476187Y-65642723D01*
X150325387Y-65626497D01*
X151034582Y-65332739D01*
X151194365Y-65013970D01*
X149860000Y-63679605D01*
X148525635Y-65013970D01*
X147545550Y-65013970D01*
X147055790Y-64524210D01*
X146916778Y-64431326D01*
X146768675Y-64332367D01*
X146712484Y-64321190D01*
X146430000Y-64264999D01*
X146429995Y-64265000D01*
X144882038Y-64265000D01*
X144863162Y-64164683D01*
X144724090Y-63948559D01*
X144511890Y-63803569D01*
X144260000Y-63752560D01*
X142760000Y-63752560D01*
X142524683Y-63796838D01*
X142308559Y-63935910D01*
X142163569Y-64148110D01*
X142112560Y-64400000D01*
X141680000Y-64400000D01*
X141680000Y-57904098D01*
X141680719Y-57907713D01*
X142109929Y-58550071D01*
X142752287Y-58979281D01*
X143510000Y-59130000D01*
X144267713Y-58979281D01*
X144910071Y-58550071D01*
X145339281Y-57907713D01*
X145490000Y-57150000D01*
X145339281Y-56392287D01*
X144910071Y-55749929D01*
X144267713Y-55320719D01*
X144264098Y-55320000D01*
X156032560Y-55320000D01*
X156032560Y-56105000D01*
X156032560Y-56105000D01*
G37*
X156032560Y-56105000D02*
X151290000Y-56105000D01*
X150951325Y-56172367D01*
X150801375Y-56272560D01*
X148360000Y-56272560D01*
X148124683Y-56316838D01*
X147908559Y-56455910D01*
X147763569Y-56668110D01*
X147712560Y-56920000D01*
X147712560Y-59920000D01*
X147741725Y-60075000D01*
X144400005Y-60075000D01*
X144400000Y-60074999D01*
X144117516Y-60131190D01*
X144061325Y-60142367D01*
X143774210Y-60334210D01*
X143774208Y-60334213D01*
X143655861Y-60452560D01*
X142760000Y-60452560D01*
X142524683Y-60496838D01*
X142308559Y-60635910D01*
X142163569Y-60848110D01*
X142112560Y-61100000D01*
X142112560Y-62600000D01*
X142156838Y-62835317D01*
X142295910Y-63051441D01*
X142508110Y-63196431D01*
X142760000Y-63247440D01*
X144260000Y-63247440D01*
X144495317Y-63203162D01*
X144630479Y-63116187D01*
X147717277Y-63116187D01*
X147733503Y-63965387D01*
X148027261Y-64674582D01*
X148346030Y-64834365D01*
X149680395Y-63500000D01*
X150039605Y-63500000D01*
X151373970Y-64834365D01*
X151692739Y-64674582D01*
X152002723Y-63883813D01*
X151986497Y-63034613D01*
X151837852Y-62675750D01*
X156045000Y-62675750D01*
X156045000Y-64266309D01*
X156141673Y-64499698D01*
X156320301Y-64678327D01*
X156553690Y-64775000D01*
X157194250Y-64775000D01*
X157353000Y-64616250D01*
X157353000Y-62517000D01*
X157607000Y-62517000D01*
X157607000Y-64616250D01*
X157765750Y-64775000D01*
X158406310Y-64775000D01*
X158639699Y-64678327D01*
X158818327Y-64499698D01*
X158915000Y-64266309D01*
X158915000Y-62675750D01*
X158756250Y-62517000D01*
X157607000Y-62517000D01*
X157353000Y-62517000D01*
X156203750Y-62517000D01*
X156045000Y-62675750D01*
X151837852Y-62675750D01*
X151692739Y-62325418D01*
X151373970Y-62165635D01*
X150039605Y-63500000D01*
X149680395Y-63500000D01*
X148346030Y-62165635D01*
X148027261Y-62325418D01*
X147717277Y-63116187D01*
X144630479Y-63116187D01*
X144711441Y-63064090D01*
X144856431Y-62851890D01*
X144907440Y-62600000D01*
X144907440Y-61845000D01*
X148596326Y-61845000D01*
X148525635Y-61986030D01*
X149860000Y-63320395D01*
X151194365Y-61986030D01*
X151123674Y-61845000D01*
X153669995Y-61845000D01*
X153670000Y-61845001D01*
X153952484Y-61788810D01*
X154008675Y-61777633D01*
X154295790Y-61585790D01*
X155306579Y-60575000D01*
X156045000Y-60575000D01*
X156045000Y-62104250D01*
X156203750Y-62263000D01*
X157353000Y-62263000D01*
X157353000Y-62243000D01*
X157607000Y-62243000D01*
X157607000Y-62263000D01*
X158756250Y-62263000D01*
X158915000Y-62104250D01*
X158915000Y-60575000D01*
X162193420Y-60575000D01*
X163652560Y-62034139D01*
X163652560Y-64140000D01*
X163696838Y-64375317D01*
X163835910Y-64591441D01*
X164048110Y-64736431D01*
X164215000Y-64770227D01*
X164215000Y-82183421D01*
X164083420Y-82315000D01*
X163073898Y-82315000D01*
X162998957Y-82133628D01*
X162815793Y-81950145D01*
X162997093Y-81769161D01*
X163284672Y-81076595D01*
X163285326Y-80326695D01*
X162998957Y-79633628D01*
X162469161Y-79102907D01*
X161776595Y-78815328D01*
X161026695Y-78814674D01*
X160333628Y-79101043D01*
X159802907Y-79630839D01*
X159515328Y-80323405D01*
X159514674Y-81073305D01*
X159801043Y-81766372D01*
X159984207Y-81949855D01*
X159802907Y-82130839D01*
X159515328Y-82823405D01*
X159514674Y-83573305D01*
X159801043Y-84266372D01*
X160330839Y-84797093D01*
X161023405Y-85084672D01*
X161773305Y-85085326D01*
X162466372Y-84798957D01*
X162997093Y-84269161D01*
X163073563Y-84085000D01*
X164449995Y-84085000D01*
X164450000Y-84085001D01*
X164732484Y-84028810D01*
X164788675Y-84017633D01*
X165075790Y-83825790D01*
X165725787Y-83175792D01*
X165725790Y-83175790D01*
X165917633Y-82888675D01*
X165930616Y-82823405D01*
X165985001Y-82550000D01*
X165985000Y-82549995D01*
X165985000Y-76835000D01*
X170740000Y-76835000D01*
X170890719Y-77592713D01*
X171319929Y-78235071D01*
X171962287Y-78664281D01*
X172720000Y-78815000D01*
X173477713Y-78664281D01*
X174120071Y-78235071D01*
X174549281Y-77592713D01*
X174700000Y-76835000D01*
X174549281Y-76077287D01*
X174120071Y-75434929D01*
X173477713Y-75005719D01*
X172720000Y-74855000D01*
X171962287Y-75005719D01*
X171319929Y-75434929D01*
X170890719Y-76077287D01*
X170740000Y-76835000D01*
X165985000Y-76835000D01*
X165985000Y-72973691D01*
X185255000Y-72973691D01*
X185255000Y-74114250D01*
X185413750Y-74273000D01*
X186563000Y-74273000D01*
X186563000Y-72623750D01*
X186817000Y-72623750D01*
X186817000Y-74273000D01*
X187966250Y-74273000D01*
X188125000Y-74114250D01*
X188125000Y-72973691D01*
X188028327Y-72740302D01*
X187849699Y-72561673D01*
X187616310Y-72465000D01*
X186975750Y-72465000D01*
X186817000Y-72623750D01*
X186563000Y-72623750D01*
X186404250Y-72465000D01*
X185763690Y-72465000D01*
X185530301Y-72561673D01*
X185351673Y-72740302D01*
X185255000Y-72973691D01*
X165985000Y-72973691D01*
X165985000Y-70735000D01*
X189713320Y-70735000D01*
X189682367Y-70781325D01*
X189682367Y-70781326D01*
X189614999Y-71120000D01*
X189615000Y-71120005D01*
X189615000Y-72559146D01*
X189414683Y-72596838D01*
X189198559Y-72735910D01*
X189053569Y-72948110D01*
X189002560Y-73200000D01*
X189002560Y-75200000D01*
X189046838Y-75435317D01*
X189185910Y-75651441D01*
X189398110Y-75796431D01*
X189650000Y-75847440D01*
X191350000Y-75847440D01*
X191585317Y-75803162D01*
X191801441Y-75664090D01*
X191946431Y-75451890D01*
X191997440Y-75200000D01*
X191997440Y-74485750D01*
X192875000Y-74485750D01*
X192875000Y-75326309D01*
X192971673Y-75559698D01*
X193150301Y-75738327D01*
X193383690Y-75835000D01*
X194024250Y-75835000D01*
X194183000Y-75676250D01*
X194183000Y-74327000D01*
X194437000Y-74327000D01*
X194437000Y-75676250D01*
X194595750Y-75835000D01*
X195236310Y-75835000D01*
X195469699Y-75738327D01*
X195555000Y-75653026D01*
X195640301Y-75738327D01*
X195873690Y-75835000D01*
X196564250Y-75835000D01*
X196723000Y-75676250D01*
X196723000Y-74327000D01*
X196977000Y-74327000D01*
X196977000Y-75676250D01*
X197135750Y-75835000D01*
X197826310Y-75835000D01*
X198059699Y-75738327D01*
X198238327Y-75559698D01*
X198335000Y-75326309D01*
X198335000Y-74485750D01*
X198176250Y-74327000D01*
X196977000Y-74327000D01*
X196723000Y-74327000D01*
X194437000Y-74327000D01*
X194183000Y-74327000D01*
X193033750Y-74327000D01*
X192875000Y-74485750D01*
X191997440Y-74485750D01*
X191997440Y-73200000D01*
X191973674Y-73073691D01*
X192875000Y-73073691D01*
X192875000Y-73914250D01*
X193033750Y-74073000D01*
X194183000Y-74073000D01*
X194183000Y-72723750D01*
X194437000Y-72723750D01*
X194437000Y-74073000D01*
X196723000Y-74073000D01*
X196723000Y-72723750D01*
X196977000Y-72723750D01*
X196977000Y-74073000D01*
X198176250Y-74073000D01*
X198303500Y-73945750D01*
X200835000Y-73945750D01*
X200835000Y-74636310D01*
X200931673Y-74869699D01*
X201110302Y-75048327D01*
X201343691Y-75145000D01*
X202184250Y-75145000D01*
X202343000Y-74986250D01*
X202343000Y-73787000D01*
X202597000Y-73787000D01*
X202597000Y-74986250D01*
X202755750Y-75145000D01*
X203596309Y-75145000D01*
X203829698Y-75048327D01*
X204008327Y-74869699D01*
X204105000Y-74636310D01*
X204105000Y-73945750D01*
X203946250Y-73787000D01*
X202597000Y-73787000D01*
X202343000Y-73787000D01*
X200993750Y-73787000D01*
X200835000Y-73945750D01*
X198303500Y-73945750D01*
X198335000Y-73914250D01*
X198335000Y-73073691D01*
X198238327Y-72840302D01*
X198081716Y-72683690D01*
X200835000Y-72683690D01*
X200835000Y-73374250D01*
X200993750Y-73533000D01*
X202343000Y-73533000D01*
X202343000Y-72333750D01*
X202597000Y-72333750D01*
X202597000Y-73533000D01*
X203946250Y-73533000D01*
X204105000Y-73374250D01*
X204105000Y-72683690D01*
X204008327Y-72450301D01*
X203829698Y-72271673D01*
X203596309Y-72175000D01*
X202755750Y-72175000D01*
X202597000Y-72333750D01*
X202343000Y-72333750D01*
X202184250Y-72175000D01*
X201343691Y-72175000D01*
X201110302Y-72271673D01*
X200931673Y-72450301D01*
X200835000Y-72683690D01*
X198081716Y-72683690D01*
X198059699Y-72661673D01*
X197826310Y-72565000D01*
X197135750Y-72565000D01*
X196977000Y-72723750D01*
X196723000Y-72723750D01*
X196564250Y-72565000D01*
X195873690Y-72565000D01*
X195640301Y-72661673D01*
X195555000Y-72746974D01*
X195469699Y-72661673D01*
X195236310Y-72565000D01*
X194595750Y-72565000D01*
X194437000Y-72723750D01*
X194183000Y-72723750D01*
X194024250Y-72565000D01*
X193383690Y-72565000D01*
X193150301Y-72661673D01*
X192971673Y-72840302D01*
X192875000Y-73073691D01*
X191973674Y-73073691D01*
X191953162Y-72964683D01*
X191814090Y-72748559D01*
X191601890Y-72603569D01*
X191385000Y-72559648D01*
X191385000Y-71486580D01*
X192136579Y-70735000D01*
X209205000Y-70735000D01*
X209205000Y-71659995D01*
X209204999Y-71660000D01*
X209248682Y-71879605D01*
X209272367Y-71998675D01*
X209357065Y-72125435D01*
X209456946Y-72274918D01*
X209275715Y-72274760D01*
X208766485Y-72485169D01*
X208476148Y-72775000D01*
X208110854Y-72775000D01*
X208073162Y-72574683D01*
X207934090Y-72358559D01*
X207721890Y-72213569D01*
X207470000Y-72162560D01*
X205470000Y-72162560D01*
X205234683Y-72206838D01*
X205018559Y-72345910D01*
X204873569Y-72558110D01*
X204822560Y-72810000D01*
X204822560Y-74510000D01*
X204866838Y-74745317D01*
X205005910Y-74961441D01*
X205218110Y-75106431D01*
X205385000Y-75140227D01*
X205385000Y-76022560D01*
X204970000Y-76022560D01*
X204734683Y-76066838D01*
X204518559Y-76205910D01*
X204472031Y-76274006D01*
X204329698Y-76131673D01*
X204096309Y-76035000D01*
X202955750Y-76035000D01*
X202797000Y-76193750D01*
X202797000Y-77343000D01*
X202817000Y-77343000D01*
X202817000Y-77597000D01*
X202797000Y-77597000D01*
X202797000Y-78746250D01*
X202955750Y-78905000D01*
X204096309Y-78905000D01*
X204329698Y-78808327D01*
X204470936Y-78667090D01*
X204505910Y-78721441D01*
X204718110Y-78866431D01*
X204970000Y-78917440D01*
X207570000Y-78917440D01*
X207805317Y-78873162D01*
X208021441Y-78734090D01*
X208166431Y-78521890D01*
X208217440Y-78270000D01*
X208217440Y-76670000D01*
X208173162Y-76434683D01*
X208034090Y-76218559D01*
X207821890Y-76073569D01*
X207570000Y-76022560D01*
X207155000Y-76022560D01*
X207155000Y-75157440D01*
X207470000Y-75157440D01*
X207705317Y-75113162D01*
X207921441Y-74974090D01*
X208066431Y-74761890D01*
X208110352Y-74545000D01*
X208476477Y-74545000D01*
X208764436Y-74833461D01*
X209273298Y-75044759D01*
X209824285Y-75045240D01*
X210333515Y-74834831D01*
X210723461Y-74445564D01*
X210934759Y-73936702D01*
X210934916Y-73756496D01*
X213745000Y-76566579D01*
X213745000Y-77855000D01*
X212474026Y-77855000D01*
X212649281Y-77592713D01*
X212800000Y-76835000D01*
X212649281Y-76077287D01*
X212220071Y-75434929D01*
X211577713Y-75005719D01*
X210820000Y-74855000D01*
X210062287Y-75005719D01*
X209419929Y-75434929D01*
X208990719Y-76077287D01*
X208840000Y-76835000D01*
X208990719Y-77592713D01*
X209419929Y-78235071D01*
X209811626Y-78496795D01*
X207998546Y-80309875D01*
X207795564Y-80106539D01*
X207286702Y-79895241D01*
X206735715Y-79894760D01*
X206226485Y-80105169D01*
X205836539Y-80494436D01*
X205625241Y-81003298D01*
X205625084Y-81183504D01*
X205095790Y-80654210D01*
X204859736Y-80496485D01*
X204808675Y-80462367D01*
X204752484Y-80451190D01*
X204470000Y-80394999D01*
X204469995Y-80395000D01*
X201026579Y-80395000D01*
X200015790Y-79384210D01*
X199889760Y-79300000D01*
X199728675Y-79192367D01*
X199672484Y-79181190D01*
X199390000Y-79124999D01*
X199389995Y-79125000D01*
X199026579Y-79125000D01*
X198347440Y-78445860D01*
X198347440Y-77755750D01*
X200735000Y-77755750D01*
X200735000Y-78396310D01*
X200831673Y-78629699D01*
X201010302Y-78808327D01*
X201243691Y-78905000D01*
X202384250Y-78905000D01*
X202543000Y-78746250D01*
X202543000Y-77597000D01*
X200893750Y-77597000D01*
X200735000Y-77755750D01*
X198347440Y-77755750D01*
X198347440Y-77200000D01*
X198303162Y-76964683D01*
X198164090Y-76748559D01*
X197951890Y-76603569D01*
X197700000Y-76552560D01*
X196000000Y-76552560D01*
X195764683Y-76596838D01*
X195552174Y-76733584D01*
X195361890Y-76603569D01*
X195110000Y-76552560D01*
X193510000Y-76552560D01*
X193274683Y-76596838D01*
X193058559Y-76735910D01*
X192913569Y-76948110D01*
X192879773Y-77115000D01*
X191981446Y-77115000D01*
X191953162Y-76964683D01*
X191814090Y-76748559D01*
X191601890Y-76603569D01*
X191350000Y-76552560D01*
X189650000Y-76552560D01*
X189414683Y-76596838D01*
X189198559Y-76735910D01*
X189053569Y-76948110D01*
X189019773Y-77115000D01*
X188137440Y-77115000D01*
X188137440Y-76700000D01*
X188108029Y-76543690D01*
X200735000Y-76543690D01*
X200735000Y-77184250D01*
X200893750Y-77343000D01*
X202543000Y-77343000D01*
X202543000Y-76193750D01*
X202384250Y-76035000D01*
X201243691Y-76035000D01*
X201010302Y-76131673D01*
X200831673Y-76310301D01*
X200735000Y-76543690D01*
X188108029Y-76543690D01*
X188093162Y-76464683D01*
X187954090Y-76248559D01*
X187885994Y-76202031D01*
X188028327Y-76059698D01*
X188125000Y-75826309D01*
X188125000Y-74685750D01*
X187966250Y-74527000D01*
X186817000Y-74527000D01*
X186817000Y-74547000D01*
X186563000Y-74547000D01*
X186563000Y-74527000D01*
X185413750Y-74527000D01*
X185255000Y-74685750D01*
X185255000Y-75826309D01*
X185351673Y-76059698D01*
X185492910Y-76200936D01*
X185438559Y-76235910D01*
X185293569Y-76448110D01*
X185242560Y-76700000D01*
X185242560Y-79300000D01*
X185286838Y-79535317D01*
X185425910Y-79751441D01*
X185638110Y-79896431D01*
X185890000Y-79947440D01*
X187490000Y-79947440D01*
X187725317Y-79903162D01*
X187941441Y-79764090D01*
X188086431Y-79551890D01*
X188137440Y-79300000D01*
X188137440Y-78885000D01*
X189002560Y-78885000D01*
X189002560Y-79200000D01*
X189046838Y-79435317D01*
X189185910Y-79651441D01*
X189398110Y-79796431D01*
X189650000Y-79847440D01*
X191350000Y-79847440D01*
X191585317Y-79803162D01*
X191801441Y-79664090D01*
X191946431Y-79451890D01*
X191997440Y-79200000D01*
X191997440Y-78885000D01*
X192862560Y-78885000D01*
X192862560Y-79200000D01*
X192906838Y-79435317D01*
X193045910Y-79651441D01*
X193258110Y-79796431D01*
X193510000Y-79847440D01*
X195110000Y-79847440D01*
X195345317Y-79803162D01*
X195557826Y-79666416D01*
X195748110Y-79796431D01*
X196000000Y-79847440D01*
X197245861Y-79847440D01*
X198034208Y-80635787D01*
X198034210Y-80635790D01*
X198061778Y-80654210D01*
X198321326Y-80827634D01*
X198660000Y-80895001D01*
X198660005Y-80895000D01*
X199023420Y-80895000D01*
X200034208Y-81905787D01*
X200034210Y-81905790D01*
X200270264Y-82063515D01*
X200321325Y-82097633D01*
X200660000Y-82165001D01*
X200660005Y-82165000D01*
X204103420Y-82165000D01*
X204855000Y-82916579D01*
X204855000Y-82953421D01*
X204460790Y-82559210D01*
X204322652Y-82466910D01*
X204173675Y-82367367D01*
X204117484Y-82356190D01*
X203835000Y-82299999D01*
X203834995Y-82300000D01*
X201947683Y-82300000D01*
X201866500Y-82283560D01*
X200723500Y-82283560D01*
X200636129Y-82300000D01*
X198347440Y-82300000D01*
X198347440Y-82090000D01*
X198303162Y-81854683D01*
X198164090Y-81638559D01*
X197951890Y-81493569D01*
X197700000Y-81442560D01*
X196000000Y-81442560D01*
X195764683Y-81486838D01*
X195552174Y-81623584D01*
X195361890Y-81493569D01*
X195110000Y-81442560D01*
X193510000Y-81442560D01*
X193274683Y-81486838D01*
X193062174Y-81623584D01*
X192871890Y-81493569D01*
X192620000Y-81442560D01*
X190920000Y-81442560D01*
X190684683Y-81486838D01*
X190468559Y-81625910D01*
X190323569Y-81838110D01*
X190272560Y-82090000D01*
X190272560Y-82205000D01*
X188137440Y-82205000D01*
X188137440Y-81990000D01*
X188093162Y-81754683D01*
X187954090Y-81538559D01*
X187741890Y-81393569D01*
X187490000Y-81342560D01*
X185890000Y-81342560D01*
X185654683Y-81386838D01*
X185438559Y-81525910D01*
X185293569Y-81738110D01*
X185242560Y-81990000D01*
X185242560Y-84590000D01*
X185286838Y-84825317D01*
X185425910Y-85041441D01*
X185494006Y-85087969D01*
X185351673Y-85230302D01*
X185255000Y-85463691D01*
X185255000Y-86604250D01*
X185413750Y-86763000D01*
X186563000Y-86763000D01*
X186563000Y-86743000D01*
X186817000Y-86743000D01*
X186817000Y-86763000D01*
X187966250Y-86763000D01*
X188125000Y-86604250D01*
X188125000Y-85463691D01*
X188028327Y-85230302D01*
X187887090Y-85089064D01*
X187941441Y-85054090D01*
X188086431Y-84841890D01*
X188137440Y-84590000D01*
X188137440Y-83975000D01*
X190272560Y-83975000D01*
X190272560Y-84090000D01*
X190316838Y-84325317D01*
X190455910Y-84541441D01*
X190668110Y-84686431D01*
X190920000Y-84737440D01*
X192620000Y-84737440D01*
X192855317Y-84693162D01*
X193067826Y-84556416D01*
X193258110Y-84686431D01*
X193510000Y-84737440D01*
X195110000Y-84737440D01*
X195345317Y-84693162D01*
X195557826Y-84556416D01*
X195748110Y-84686431D01*
X196000000Y-84737440D01*
X197700000Y-84737440D01*
X197935317Y-84693162D01*
X198151441Y-84554090D01*
X198296431Y-84341890D01*
X198347440Y-84090000D01*
X198347440Y-84070000D01*
X199158421Y-84070000D01*
X197771401Y-85457019D01*
X197700000Y-85442560D01*
X196000000Y-85442560D01*
X195764683Y-85486838D01*
X195552174Y-85623584D01*
X195361890Y-85493569D01*
X195110000Y-85442560D01*
X193510000Y-85442560D01*
X193274683Y-85486838D01*
X193062174Y-85623584D01*
X192871890Y-85493569D01*
X192620000Y-85442560D01*
X190920000Y-85442560D01*
X190684683Y-85486838D01*
X190468559Y-85625910D01*
X190323569Y-85838110D01*
X190272560Y-86090000D01*
X190272560Y-88090000D01*
X190316838Y-88325317D01*
X190455910Y-88541441D01*
X190668110Y-88686431D01*
X190920000Y-88737440D01*
X192620000Y-88737440D01*
X192855317Y-88693162D01*
X193067826Y-88556416D01*
X193258110Y-88686431D01*
X193510000Y-88737440D01*
X195110000Y-88737440D01*
X195345317Y-88693162D01*
X195557826Y-88556416D01*
X195748110Y-88686431D01*
X196000000Y-88737440D01*
X197700000Y-88737440D01*
X197935317Y-88693162D01*
X198151441Y-88554090D01*
X198296431Y-88341890D01*
X198347440Y-88090000D01*
X198347440Y-87384140D01*
X198450829Y-87280750D01*
X200088500Y-87280750D01*
X200088500Y-87375309D01*
X200185173Y-87608698D01*
X200363801Y-87787327D01*
X200597190Y-87884000D01*
X201009250Y-87884000D01*
X201168000Y-87725250D01*
X201168000Y-87122000D01*
X200247250Y-87122000D01*
X200088500Y-87280750D01*
X198450829Y-87280750D01*
X200076060Y-85655519D01*
X200076060Y-85979000D01*
X200120338Y-86214317D01*
X200211104Y-86355371D01*
X200185173Y-86381302D01*
X200088500Y-86614691D01*
X200088500Y-86709250D01*
X200247250Y-86868000D01*
X201168000Y-86868000D01*
X201168000Y-86848000D01*
X201422000Y-86848000D01*
X201422000Y-86868000D01*
X201442000Y-86868000D01*
X201442000Y-87122000D01*
X201422000Y-87122000D01*
X201422000Y-87725250D01*
X201580750Y-87884000D01*
X201992810Y-87884000D01*
X202226199Y-87787327D01*
X202315000Y-87698526D01*
X202315000Y-88672560D01*
X201470000Y-88672560D01*
X201234683Y-88716838D01*
X201018559Y-88855910D01*
X200873569Y-89068110D01*
X200829648Y-89285000D01*
X198195453Y-89285000D01*
X198114090Y-89158559D01*
X197901890Y-89013569D01*
X197650000Y-88962560D01*
X196050000Y-88962560D01*
X195814683Y-89006838D01*
X195598559Y-89145910D01*
X195453569Y-89358110D01*
X195402560Y-89610000D01*
X195402560Y-92210000D01*
X195446838Y-92445317D01*
X195585910Y-92661441D01*
X195655711Y-92709134D01*
X195598559Y-92745910D01*
X195453569Y-92958110D01*
X195402560Y-93210000D01*
X195402560Y-95810000D01*
X195446838Y-96045317D01*
X195585910Y-96261441D01*
X195798110Y-96406431D01*
X196050000Y-96457440D01*
X196805860Y-96457440D01*
X197494208Y-97145787D01*
X197494210Y-97145790D01*
X197691648Y-97277713D01*
X197781325Y-97337633D01*
X198120000Y-97405001D01*
X198120005Y-97405000D01*
X208279995Y-97405000D01*
X208280000Y-97405001D01*
X208562484Y-97348810D01*
X208618675Y-97337633D01*
X208905790Y-97145790D01*
X208905791Y-97145789D01*
X210175787Y-95875792D01*
X210175790Y-95875790D01*
X210367633Y-95588675D01*
X210377912Y-95537000D01*
X210435001Y-95250000D01*
X210435000Y-95249995D01*
X210435000Y-95070478D01*
X210733629Y-94772370D01*
X210819949Y-94564488D01*
X210904990Y-94770303D01*
X211297630Y-95163629D01*
X211810900Y-95376757D01*
X212366661Y-95377242D01*
X212880303Y-95165010D01*
X213273629Y-94772370D01*
X213486757Y-94259100D01*
X213487242Y-93703339D01*
X213275010Y-93189697D01*
X212882370Y-92796371D01*
X212369100Y-92583243D01*
X211813339Y-92582758D01*
X211299697Y-92794990D01*
X210906371Y-93187630D01*
X210820051Y-93395512D01*
X210735010Y-93189697D01*
X210342370Y-92796371D01*
X209829100Y-92583243D01*
X209658485Y-92583094D01*
X209916579Y-92325000D01*
X215533420Y-92325000D01*
X216285000Y-93076579D01*
X216285000Y-95429522D01*
X215986371Y-95727630D01*
X215773243Y-96240900D01*
X215772758Y-96796661D01*
X215984990Y-97310303D01*
X216377630Y-97703629D01*
X216890900Y-97916757D01*
X217446661Y-97917242D01*
X217960303Y-97705010D01*
X218353629Y-97312370D01*
X218439949Y-97104488D01*
X218524990Y-97310303D01*
X218917630Y-97703629D01*
X219430900Y-97916757D01*
X219986661Y-97917242D01*
X220500303Y-97705010D01*
X220893629Y-97312370D01*
X220979949Y-97104488D01*
X221064990Y-97310303D01*
X221457630Y-97703629D01*
X221970900Y-97916757D01*
X222526661Y-97917242D01*
X223040303Y-97705010D01*
X223433629Y-97312370D01*
X223646757Y-96799100D01*
X223647242Y-96243339D01*
X223435010Y-95729697D01*
X223042370Y-95336371D01*
X222529100Y-95123243D01*
X221973339Y-95122758D01*
X221459697Y-95334990D01*
X221066371Y-95727630D01*
X220980051Y-95935512D01*
X220895010Y-95729697D01*
X220595000Y-95429163D01*
X220595000Y-92306580D01*
X221624208Y-93335787D01*
X221624210Y-93335790D01*
X221911325Y-93527633D01*
X222250000Y-93595001D01*
X222250005Y-93595000D01*
X225926602Y-93595000D01*
X225943106Y-93634943D01*
X226402637Y-94095278D01*
X227003352Y-94344716D01*
X227653795Y-94345284D01*
X228254943Y-94096894D01*
X228715278Y-93637363D01*
X228964716Y-93036648D01*
X228965284Y-92386205D01*
X228716894Y-91785057D01*
X228650379Y-91718426D01*
X228781441Y-91634090D01*
X228926431Y-91421890D01*
X228977440Y-91170000D01*
X228977440Y-89170000D01*
X228933162Y-88934683D01*
X228794090Y-88718559D01*
X228581890Y-88573569D01*
X228330000Y-88522560D01*
X228215000Y-88522560D01*
X228215000Y-87630005D01*
X228215001Y-87630000D01*
X228147633Y-87291325D01*
X228140567Y-87280750D01*
X227955790Y-87004210D01*
X227955787Y-87004208D01*
X226685790Y-85734210D01*
X226542637Y-85638559D01*
X226398675Y-85542367D01*
X226342484Y-85531190D01*
X226061502Y-85475298D01*
X226033162Y-85324683D01*
X225894090Y-85108559D01*
X225681890Y-84963569D01*
X225430000Y-84912560D01*
X221930000Y-84912560D01*
X221865000Y-84924791D01*
X221865000Y-80071104D01*
X221891441Y-80054090D01*
X222036431Y-79841890D01*
X222087440Y-79590000D01*
X222087440Y-77890000D01*
X222043162Y-77654683D01*
X221904090Y-77438559D01*
X221691890Y-77293569D01*
X221440000Y-77242560D01*
X219440000Y-77242560D01*
X219325000Y-77264199D01*
X219325000Y-77085000D01*
X220979995Y-77085000D01*
X220980000Y-77085001D01*
X221262484Y-77028810D01*
X221318675Y-77017633D01*
X221605790Y-76825790D01*
X222895787Y-75535792D01*
X222895790Y-75535790D01*
X223087633Y-75248675D01*
X223155000Y-74910000D01*
X223155000Y-74907038D01*
X223255317Y-74888162D01*
X223471441Y-74749090D01*
X223519134Y-74679289D01*
X223555910Y-74736441D01*
X223768110Y-74881431D01*
X224020000Y-74932440D01*
X225520000Y-74932440D01*
X225755317Y-74888162D01*
X225971441Y-74749090D01*
X226110890Y-74545000D01*
X227329995Y-74545000D01*
X227330000Y-74545001D01*
X227627868Y-74485750D01*
X227668675Y-74477633D01*
X227955790Y-74285790D01*
X227955791Y-74285789D01*
X228744139Y-73497440D01*
X229160000Y-73497440D01*
X229160000Y-95765902D01*
X229159281Y-95762287D01*
X228730071Y-95119929D01*
X228087713Y-94690719D01*
X227330000Y-94540000D01*
X226572287Y-94690719D01*
X225929929Y-95119929D01*
X225500719Y-95762287D01*
X225350000Y-96520000D01*
X225500719Y-97277713D01*
X225929929Y-97920071D01*
X226572287Y-98349281D01*
X226575902Y-98350000D01*
X144264098Y-98350000D01*
X144267713Y-98349281D01*
X144910071Y-97920071D01*
X145339281Y-97277713D01*
X145441471Y-96763970D01*
X148525635Y-96763970D01*
X148685418Y-97082739D01*
X149476187Y-97392723D01*
X150325387Y-97376497D01*
X151034582Y-97082739D01*
X151194365Y-96763970D01*
X149860000Y-95429605D01*
X148525635Y-96763970D01*
X145441471Y-96763970D01*
X145490000Y-96520000D01*
X145339281Y-95762287D01*
X144910071Y-95119929D01*
X144530320Y-94866187D01*
X147717277Y-94866187D01*
X147733503Y-95715387D01*
X148027261Y-96424582D01*
X148346030Y-96584365D01*
X149680395Y-95250000D01*
X150039605Y-95250000D01*
X151373970Y-96584365D01*
X151692739Y-96424582D01*
X151978443Y-95695750D01*
X156045000Y-95695750D01*
X156045000Y-97286309D01*
X156141673Y-97519698D01*
X156320301Y-97698327D01*
X156553690Y-97795000D01*
X157194250Y-97795000D01*
X157353000Y-97636250D01*
X157353000Y-95537000D01*
X157607000Y-95537000D01*
X157607000Y-97636250D01*
X157765750Y-97795000D01*
X158406310Y-97795000D01*
X158639699Y-97698327D01*
X158818327Y-97519698D01*
X158915000Y-97286309D01*
X158915000Y-95695750D01*
X158756250Y-95537000D01*
X157607000Y-95537000D01*
X157353000Y-95537000D01*
X156203750Y-95537000D01*
X156045000Y-95695750D01*
X151978443Y-95695750D01*
X152002723Y-95633813D01*
X151986497Y-94784613D01*
X151692739Y-94075418D01*
X151373970Y-93915635D01*
X150039605Y-95250000D01*
X149680395Y-95250000D01*
X148346030Y-93915635D01*
X148027261Y-94075418D01*
X147717277Y-94866187D01*
X144530320Y-94866187D01*
X144267713Y-94690719D01*
X143510000Y-94540000D01*
X142752287Y-94690719D01*
X142109929Y-95119929D01*
X141680719Y-95762287D01*
X141680000Y-95765902D01*
X141680000Y-93736030D01*
X148525635Y-93736030D01*
X149860000Y-95070395D01*
X151194365Y-93736030D01*
X151092943Y-93533691D01*
X156045000Y-93533691D01*
X156045000Y-95124250D01*
X156203750Y-95283000D01*
X157353000Y-95283000D01*
X157353000Y-93183750D01*
X157607000Y-93183750D01*
X157607000Y-95283000D01*
X158756250Y-95283000D01*
X158915000Y-95124250D01*
X158915000Y-94960213D01*
X170649392Y-94960213D01*
X170718857Y-95202397D01*
X171242302Y-95389144D01*
X171797368Y-95361362D01*
X172181143Y-95202397D01*
X172250608Y-94960213D01*
X173189392Y-94960213D01*
X173258857Y-95202397D01*
X173782302Y-95389144D01*
X174337368Y-95361362D01*
X174721143Y-95202397D01*
X174790608Y-94960213D01*
X173990000Y-94159605D01*
X173189392Y-94960213D01*
X172250608Y-94960213D01*
X171450000Y-94159605D01*
X170649392Y-94960213D01*
X158915000Y-94960213D01*
X158915000Y-93772302D01*
X170040856Y-93772302D01*
X170068638Y-94327368D01*
X170227603Y-94711143D01*
X170469787Y-94780608D01*
X171270395Y-93980000D01*
X171629605Y-93980000D01*
X172430213Y-94780608D01*
X172672397Y-94711143D01*
X172716453Y-94587656D01*
X172767603Y-94711143D01*
X173009787Y-94780608D01*
X173810395Y-93980000D01*
X174169605Y-93980000D01*
X174970213Y-94780608D01*
X175212397Y-94711143D01*
X175399144Y-94187698D01*
X175371362Y-93632632D01*
X175212397Y-93248857D01*
X174970213Y-93179392D01*
X174169605Y-93980000D01*
X173810395Y-93980000D01*
X173009787Y-93179392D01*
X172767603Y-93248857D01*
X172723547Y-93372344D01*
X172672397Y-93248857D01*
X172430213Y-93179392D01*
X171629605Y-93980000D01*
X171270395Y-93980000D01*
X170469787Y-93179392D01*
X170227603Y-93248857D01*
X170040856Y-93772302D01*
X158915000Y-93772302D01*
X158915000Y-93533691D01*
X158818327Y-93300302D01*
X158639699Y-93121673D01*
X158406310Y-93025000D01*
X157765750Y-93025000D01*
X157607000Y-93183750D01*
X157353000Y-93183750D01*
X157194250Y-93025000D01*
X156553690Y-93025000D01*
X156320301Y-93121673D01*
X156141673Y-93300302D01*
X156045000Y-93533691D01*
X151092943Y-93533691D01*
X151034582Y-93417261D01*
X150243813Y-93107277D01*
X149394613Y-93123503D01*
X148685418Y-93417261D01*
X148525635Y-93736030D01*
X141680000Y-93736030D01*
X141680000Y-92999787D01*
X170649392Y-92999787D01*
X171450000Y-93800395D01*
X172250608Y-92999787D01*
X173189392Y-92999787D01*
X173990000Y-93800395D01*
X174790608Y-92999787D01*
X174721143Y-92757603D01*
X174197698Y-92570856D01*
X173642632Y-92598638D01*
X173258857Y-92757603D01*
X173189392Y-92999787D01*
X172250608Y-92999787D01*
X172181143Y-92757603D01*
X171657698Y-92570856D01*
X171102632Y-92598638D01*
X170718857Y-92757603D01*
X170649392Y-92999787D01*
X141680000Y-92999787D01*
X141680000Y-88670000D01*
X147712560Y-88670000D01*
X147712560Y-91670000D01*
X147756838Y-91905317D01*
X147895910Y-92121441D01*
X148108110Y-92266431D01*
X148360000Y-92317440D01*
X151360000Y-92317440D01*
X151595317Y-92273162D01*
X151811441Y-92134090D01*
X151956431Y-91921890D01*
X152007440Y-91670000D01*
X152007440Y-88670000D01*
X151963162Y-88434683D01*
X151824090Y-88218559D01*
X151611890Y-88073569D01*
X151360000Y-88022560D01*
X148360000Y-88022560D01*
X148124683Y-88066838D01*
X147908559Y-88205910D01*
X147763569Y-88418110D01*
X147712560Y-88670000D01*
X141680000Y-88670000D01*
X141680000Y-86634285D01*
X153554760Y-86634285D01*
X153765169Y-87143515D01*
X154154436Y-87533461D01*
X154663298Y-87744759D01*
X155214285Y-87745240D01*
X155723515Y-87534831D01*
X155928562Y-87330141D01*
X156329425Y-87731004D01*
X156228559Y-87795910D01*
X156083569Y-88008110D01*
X156032560Y-88260000D01*
X156032560Y-91760000D01*
X156076838Y-91995317D01*
X156215910Y-92211441D01*
X156428110Y-92356431D01*
X156680000Y-92407440D01*
X158280000Y-92407440D01*
X158515317Y-92363162D01*
X158731441Y-92224090D01*
X158876431Y-92011890D01*
X158927440Y-91760000D01*
X158927440Y-88260000D01*
X158883162Y-88024683D01*
X158744090Y-87808559D01*
X158531890Y-87663569D01*
X158364954Y-87629764D01*
X158297633Y-87291325D01*
X158290567Y-87280750D01*
X158220409Y-87175750D01*
X185255000Y-87175750D01*
X185255000Y-88316309D01*
X185351673Y-88549698D01*
X185530301Y-88728327D01*
X185763690Y-88825000D01*
X186404250Y-88825000D01*
X186563000Y-88666250D01*
X186563000Y-87017000D01*
X186817000Y-87017000D01*
X186817000Y-88666250D01*
X186975750Y-88825000D01*
X187616310Y-88825000D01*
X187849699Y-88728327D01*
X188028327Y-88549698D01*
X188125000Y-88316309D01*
X188125000Y-87175750D01*
X187966250Y-87017000D01*
X186817000Y-87017000D01*
X186563000Y-87017000D01*
X185413750Y-87017000D01*
X185255000Y-87175750D01*
X158220409Y-87175750D01*
X158105790Y-87004210D01*
X158105787Y-87004208D01*
X156835790Y-85734210D01*
X156692637Y-85638559D01*
X156548675Y-85542367D01*
X156492484Y-85531190D01*
X156210000Y-85474999D01*
X156209995Y-85475000D01*
X156013523Y-85475000D01*
X155725564Y-85186539D01*
X155216702Y-84975241D01*
X154665715Y-84974760D01*
X154156485Y-85185169D01*
X153766539Y-85574436D01*
X153555241Y-86083298D01*
X153554760Y-86634285D01*
X141680000Y-86634285D01*
X141680000Y-83973425D01*
X141801043Y-84266372D01*
X142330839Y-84797093D01*
X143023405Y-85084672D01*
X143773305Y-85085326D01*
X144466372Y-84798957D01*
X144997093Y-84269161D01*
X145284672Y-83576595D01*
X145285326Y-82826695D01*
X144998957Y-82133628D01*
X144815793Y-81950145D01*
X144997093Y-81769161D01*
X145284672Y-81076595D01*
X145285326Y-80326695D01*
X144998957Y-79633628D01*
X144469161Y-79102907D01*
X143776595Y-78815328D01*
X143026695Y-78814674D01*
X142333628Y-79101043D01*
X141802907Y-79630839D01*
X141680000Y-79926831D01*
X141680000Y-73033320D01*
X142246285Y-73033320D01*
X142375533Y-73326123D01*
X143075806Y-73594388D01*
X143825435Y-73574250D01*
X144424467Y-73326123D01*
X144553715Y-73033320D01*
X143400000Y-71879605D01*
X142246285Y-73033320D01*
X141680000Y-73033320D01*
X141680000Y-72497828D01*
X141773877Y-72724467D01*
X142066680Y-72853715D01*
X143220395Y-71700000D01*
X143206253Y-71685858D01*
X143385858Y-71506253D01*
X143400000Y-71520395D01*
X143414143Y-71506253D01*
X143593748Y-71685858D01*
X143579605Y-71700000D01*
X144733320Y-72853715D01*
X145026123Y-72724467D01*
X145251652Y-72135750D01*
X145835000Y-72135750D01*
X145835000Y-72976309D01*
X145931673Y-73209698D01*
X146110301Y-73388327D01*
X146343690Y-73485000D01*
X147034250Y-73485000D01*
X147193000Y-73326250D01*
X147193000Y-71977000D01*
X147447000Y-71977000D01*
X147447000Y-73326250D01*
X147605750Y-73485000D01*
X148296310Y-73485000D01*
X148529699Y-73388327D01*
X148708327Y-73209698D01*
X148781385Y-73033320D01*
X160246285Y-73033320D01*
X160375533Y-73326123D01*
X161075806Y-73594388D01*
X161825435Y-73574250D01*
X162424467Y-73326123D01*
X162553715Y-73033320D01*
X161400000Y-71879605D01*
X160246285Y-73033320D01*
X148781385Y-73033320D01*
X148805000Y-72976309D01*
X148805000Y-72135750D01*
X148646250Y-71977000D01*
X147447000Y-71977000D01*
X147193000Y-71977000D01*
X145993750Y-71977000D01*
X145835000Y-72135750D01*
X145251652Y-72135750D01*
X145294388Y-72024194D01*
X145274250Y-71274565D01*
X145112928Y-70885098D01*
X145188327Y-70809699D01*
X145223952Y-70723691D01*
X145835000Y-70723691D01*
X145835000Y-71564250D01*
X145993750Y-71723000D01*
X147193000Y-71723000D01*
X147193000Y-70373750D01*
X147447000Y-70373750D01*
X147447000Y-71723000D01*
X148646250Y-71723000D01*
X148805000Y-71564250D01*
X148805000Y-70723691D01*
X148708327Y-70490302D01*
X148529699Y-70311673D01*
X148296310Y-70215000D01*
X147605750Y-70215000D01*
X147447000Y-70373750D01*
X147193000Y-70373750D01*
X147034250Y-70215000D01*
X146343690Y-70215000D01*
X146110301Y-70311673D01*
X145931673Y-70490302D01*
X145835000Y-70723691D01*
X145223952Y-70723691D01*
X145285000Y-70576310D01*
X145285000Y-69485750D01*
X145126250Y-69327000D01*
X143527000Y-69327000D01*
X143527000Y-69347000D01*
X143273000Y-69347000D01*
X143273000Y-69327000D01*
X143253000Y-69327000D01*
X143253000Y-69073000D01*
X143273000Y-69073000D01*
X143273000Y-67473750D01*
X143527000Y-67473750D01*
X143527000Y-69073000D01*
X145126250Y-69073000D01*
X145285000Y-68914250D01*
X145285000Y-67823690D01*
X145188327Y-67590301D01*
X145009698Y-67411673D01*
X144776309Y-67315000D01*
X143685750Y-67315000D01*
X143527000Y-67473750D01*
X143273000Y-67473750D01*
X143114250Y-67315000D01*
X142023691Y-67315000D01*
X141790302Y-67411673D01*
X141680000Y-67521974D01*
X141680000Y-64400000D01*
X142112560Y-64400000D01*
X142112560Y-65900000D01*
X142156838Y-66135317D01*
X142295910Y-66351441D01*
X142508110Y-66496431D01*
X142760000Y-66547440D01*
X144260000Y-66547440D01*
X144495317Y-66503162D01*
X144711441Y-66364090D01*
X144856431Y-66151890D01*
X144880102Y-66035000D01*
X146063420Y-66035000D01*
X146268833Y-66240412D01*
X146234683Y-66246838D01*
X146018559Y-66385910D01*
X145873569Y-66598110D01*
X145822560Y-66850000D01*
X145822560Y-68850000D01*
X145866838Y-69085317D01*
X146005910Y-69301441D01*
X146218110Y-69446431D01*
X146470000Y-69497440D01*
X148170000Y-69497440D01*
X148405317Y-69453162D01*
X148621441Y-69314090D01*
X148766431Y-69101890D01*
X148812214Y-68875806D01*
X159505612Y-68875806D01*
X159525750Y-69625435D01*
X159773877Y-70224467D01*
X160042471Y-70343029D01*
X159952946Y-70432554D01*
X159970392Y-70450000D01*
X159952946Y-70467446D01*
X160042471Y-70556971D01*
X159773877Y-70675533D01*
X159505612Y-71375806D01*
X159525750Y-72125435D01*
X159773877Y-72724467D01*
X160066680Y-72853715D01*
X161220395Y-71700000D01*
X161206253Y-71685858D01*
X161385858Y-71506253D01*
X161400000Y-71520395D01*
X161414143Y-71506253D01*
X161593748Y-71685858D01*
X161579605Y-71700000D01*
X162733320Y-72853715D01*
X163026123Y-72724467D01*
X163294388Y-72024194D01*
X163274250Y-71274565D01*
X163026123Y-70675533D01*
X162757529Y-70556971D01*
X162847054Y-70467446D01*
X162829608Y-70450000D01*
X162847054Y-70432554D01*
X162757529Y-70343029D01*
X163026123Y-70224467D01*
X163294388Y-69524194D01*
X163274250Y-68774565D01*
X163026123Y-68175533D01*
X162733320Y-68046285D01*
X161579605Y-69200000D01*
X161593748Y-69214143D01*
X161414143Y-69393748D01*
X161400000Y-69379605D01*
X161385858Y-69393748D01*
X161206253Y-69214143D01*
X161220395Y-69200000D01*
X160066680Y-68046285D01*
X159773877Y-68175533D01*
X159505612Y-68875806D01*
X148812214Y-68875806D01*
X148817440Y-68850000D01*
X148817440Y-67866680D01*
X160246285Y-67866680D01*
X161400000Y-69020395D01*
X162553715Y-67866680D01*
X162424467Y-67573877D01*
X161724194Y-67305612D01*
X160974565Y-67325750D01*
X160375533Y-67573877D01*
X160246285Y-67866680D01*
X148817440Y-67866680D01*
X148817440Y-66850000D01*
X148773162Y-66614683D01*
X148634090Y-66398559D01*
X148421890Y-66253569D01*
X148205000Y-66209648D01*
X148205000Y-66040005D01*
X148205001Y-66040000D01*
X148137633Y-65701326D01*
X148137633Y-65701325D01*
X147945790Y-65414210D01*
X147945787Y-65414208D01*
X147545550Y-65013970D01*
X148525635Y-65013970D01*
X148685418Y-65332739D01*
X149476187Y-65642723D01*
X150325387Y-65626497D01*
X151034582Y-65332739D01*
X151194365Y-65013970D01*
X149860000Y-63679605D01*
X148525635Y-65013970D01*
X147545550Y-65013970D01*
X147055790Y-64524210D01*
X146916778Y-64431326D01*
X146768675Y-64332367D01*
X146712484Y-64321190D01*
X146430000Y-64264999D01*
X146429995Y-64265000D01*
X144882038Y-64265000D01*
X144863162Y-64164683D01*
X144724090Y-63948559D01*
X144511890Y-63803569D01*
X144260000Y-63752560D01*
X142760000Y-63752560D01*
X142524683Y-63796838D01*
X142308559Y-63935910D01*
X142163569Y-64148110D01*
X142112560Y-64400000D01*
X141680000Y-64400000D01*
X141680000Y-57904098D01*
X141680719Y-57907713D01*
X142109929Y-58550071D01*
X142752287Y-58979281D01*
X143510000Y-59130000D01*
X144267713Y-58979281D01*
X144910071Y-58550071D01*
X145339281Y-57907713D01*
X145490000Y-57150000D01*
X145339281Y-56392287D01*
X144910071Y-55749929D01*
X144267713Y-55320719D01*
X144264098Y-55320000D01*
X156032560Y-55320000D01*
X156032560Y-56105000D01*
G36*
X219440000Y-80237440D02*
X220095000Y-80237440D01*
X220095000Y-84925000D01*
X218565750Y-84925000D01*
X218407000Y-85083750D01*
X218407000Y-86233000D01*
X218427000Y-86233000D01*
X218427000Y-86487000D01*
X218407000Y-86487000D01*
X218407000Y-87636250D01*
X218565750Y-87795000D01*
X220095000Y-87795000D01*
X220095000Y-90573421D01*
X219065790Y-89544210D01*
X218778675Y-89352367D01*
X218722484Y-89341190D01*
X218440000Y-89284999D01*
X218439995Y-89285000D01*
X214677279Y-89285000D01*
X214554090Y-89093559D01*
X214341890Y-88948569D01*
X214090000Y-88897560D01*
X212590000Y-88897560D01*
X212354683Y-88941838D01*
X212138559Y-89080910D01*
X212090866Y-89150711D01*
X212054090Y-89093559D01*
X211841890Y-88948569D01*
X211725000Y-88924898D01*
X211725000Y-88727091D01*
X211905317Y-88693162D01*
X212117826Y-88556416D01*
X212308110Y-88686431D01*
X212560000Y-88737440D01*
X214160000Y-88737440D01*
X214395317Y-88693162D01*
X214611441Y-88554090D01*
X214756431Y-88341890D01*
X214807440Y-88090000D01*
X214807440Y-86645750D01*
X215895000Y-86645750D01*
X215895000Y-87286310D01*
X215991673Y-87519699D01*
X216170302Y-87698327D01*
X216403691Y-87795000D01*
X217994250Y-87795000D01*
X218153000Y-87636250D01*
X218153000Y-86487000D01*
X216053750Y-86487000D01*
X215895000Y-86645750D01*
X214807440Y-86645750D01*
X214807440Y-86090000D01*
X214763162Y-85854683D01*
X214624090Y-85638559D01*
X214411890Y-85493569D01*
X214160000Y-85442560D01*
X212560000Y-85442560D01*
X212324683Y-85486838D01*
X212112174Y-85623584D01*
X211921890Y-85493569D01*
X211670000Y-85442560D01*
X211154139Y-85442560D01*
X211145270Y-85433690D01*
X215895000Y-85433690D01*
X215895000Y-86074250D01*
X216053750Y-86233000D01*
X218153000Y-86233000D01*
X218153000Y-85083750D01*
X217994250Y-84925000D01*
X216403691Y-84925000D01*
X216170302Y-85021673D01*
X215991673Y-85200301D01*
X215895000Y-85433690D01*
X211145270Y-85433690D01*
X210810790Y-85099210D01*
X210797006Y-85090000D01*
X210810790Y-85080790D01*
X210810791Y-85080789D01*
X211154139Y-84737440D01*
X211670000Y-84737440D01*
X211905317Y-84693162D01*
X212117826Y-84556416D01*
X212308110Y-84686431D01*
X212560000Y-84737440D01*
X214160000Y-84737440D01*
X214395317Y-84693162D01*
X214611441Y-84554090D01*
X214756431Y-84341890D01*
X214807440Y-84090000D01*
X214807440Y-83975000D01*
X216629995Y-83975000D01*
X216630000Y-83975001D01*
X216927667Y-83915790D01*
X216968675Y-83907633D01*
X217255790Y-83715790D01*
X217255791Y-83715789D01*
X219065787Y-81905792D01*
X219065790Y-81905790D01*
X219226680Y-81665000D01*
X219257634Y-81618674D01*
X219325001Y-81280000D01*
X219325000Y-81279995D01*
X219325000Y-80214152D01*
X219440000Y-80237440D01*
X219440000Y-80237440D01*
G37*
X219440000Y-80237440D02*
X220095000Y-80237440D01*
X220095000Y-84925000D01*
X218565750Y-84925000D01*
X218407000Y-85083750D01*
X218407000Y-86233000D01*
X218427000Y-86233000D01*
X218427000Y-86487000D01*
X218407000Y-86487000D01*
X218407000Y-87636250D01*
X218565750Y-87795000D01*
X220095000Y-87795000D01*
X220095000Y-90573421D01*
X219065790Y-89544210D01*
X218778675Y-89352367D01*
X218722484Y-89341190D01*
X218440000Y-89284999D01*
X218439995Y-89285000D01*
X214677279Y-89285000D01*
X214554090Y-89093559D01*
X214341890Y-88948569D01*
X214090000Y-88897560D01*
X212590000Y-88897560D01*
X212354683Y-88941838D01*
X212138559Y-89080910D01*
X212090866Y-89150711D01*
X212054090Y-89093559D01*
X211841890Y-88948569D01*
X211725000Y-88924898D01*
X211725000Y-88727091D01*
X211905317Y-88693162D01*
X212117826Y-88556416D01*
X212308110Y-88686431D01*
X212560000Y-88737440D01*
X214160000Y-88737440D01*
X214395317Y-88693162D01*
X214611441Y-88554090D01*
X214756431Y-88341890D01*
X214807440Y-88090000D01*
X214807440Y-86645750D01*
X215895000Y-86645750D01*
X215895000Y-87286310D01*
X215991673Y-87519699D01*
X216170302Y-87698327D01*
X216403691Y-87795000D01*
X217994250Y-87795000D01*
X218153000Y-87636250D01*
X218153000Y-86487000D01*
X216053750Y-86487000D01*
X215895000Y-86645750D01*
X214807440Y-86645750D01*
X214807440Y-86090000D01*
X214763162Y-85854683D01*
X214624090Y-85638559D01*
X214411890Y-85493569D01*
X214160000Y-85442560D01*
X212560000Y-85442560D01*
X212324683Y-85486838D01*
X212112174Y-85623584D01*
X211921890Y-85493569D01*
X211670000Y-85442560D01*
X211154139Y-85442560D01*
X211145270Y-85433690D01*
X215895000Y-85433690D01*
X215895000Y-86074250D01*
X216053750Y-86233000D01*
X218153000Y-86233000D01*
X218153000Y-85083750D01*
X217994250Y-84925000D01*
X216403691Y-84925000D01*
X216170302Y-85021673D01*
X215991673Y-85200301D01*
X215895000Y-85433690D01*
X211145270Y-85433690D01*
X210810790Y-85099210D01*
X210797006Y-85090000D01*
X210810790Y-85080790D01*
X210810791Y-85080789D01*
X211154139Y-84737440D01*
X211670000Y-84737440D01*
X211905317Y-84693162D01*
X212117826Y-84556416D01*
X212308110Y-84686431D01*
X212560000Y-84737440D01*
X214160000Y-84737440D01*
X214395317Y-84693162D01*
X214611441Y-84554090D01*
X214756431Y-84341890D01*
X214807440Y-84090000D01*
X214807440Y-83975000D01*
X216629995Y-83975000D01*
X216630000Y-83975001D01*
X216927667Y-83915790D01*
X216968675Y-83907633D01*
X217255790Y-83715790D01*
X217255791Y-83715789D01*
X219065787Y-81905792D01*
X219065790Y-81905790D01*
X219226680Y-81665000D01*
X219257634Y-81618674D01*
X219325001Y-81280000D01*
X219325000Y-81279995D01*
X219325000Y-80214152D01*
X219440000Y-80237440D01*
G36*
X221064990Y-57940303D02*
X221365000Y-58240837D01*
X221365000Y-66039995D01*
X221364999Y-66040000D01*
X221410241Y-66267440D01*
X221432367Y-66378675D01*
X221511049Y-66496431D01*
X221624210Y-66665790D01*
X222894208Y-67935787D01*
X222894210Y-67935790D01*
X222905252Y-67943168D01*
X219084210Y-71764210D01*
X218892367Y-72051325D01*
X218892367Y-72051326D01*
X218824999Y-72390000D01*
X218825000Y-72390005D01*
X218825000Y-73293421D01*
X218073420Y-74045000D01*
X216266579Y-74045000D01*
X216014884Y-73793305D01*
X216015240Y-73385715D01*
X215804831Y-72876485D01*
X215415564Y-72486539D01*
X214906702Y-72275241D01*
X214355715Y-72274760D01*
X213846485Y-72485169D01*
X213456539Y-72874436D01*
X213245241Y-73383298D01*
X213245084Y-73563504D01*
X210975000Y-71293420D01*
X210975000Y-70199039D01*
X215778096Y-70199039D01*
X215938959Y-70587423D01*
X216314866Y-71002389D01*
X216820959Y-71241914D01*
X217043000Y-71120629D01*
X217043000Y-69977000D01*
X217297000Y-69977000D01*
X217297000Y-71120629D01*
X217519041Y-71241914D01*
X218025134Y-71002389D01*
X218401041Y-70587423D01*
X218561904Y-70199039D01*
X218439915Y-69977000D01*
X217297000Y-69977000D01*
X217043000Y-69977000D01*
X215900085Y-69977000D01*
X215778096Y-70199039D01*
X210975000Y-70199039D01*
X210975000Y-68807440D01*
X211090000Y-68807440D01*
X211325317Y-68763162D01*
X211541441Y-68624090D01*
X211686431Y-68411890D01*
X211737440Y-68160000D01*
X211737440Y-68118355D01*
X211751325Y-68127633D01*
X212090000Y-68195000D01*
X212449146Y-68195000D01*
X212486838Y-68395317D01*
X212625910Y-68611441D01*
X212838110Y-68756431D01*
X213090000Y-68807440D01*
X215090000Y-68807440D01*
X215325317Y-68763162D01*
X215541441Y-68624090D01*
X215686431Y-68411890D01*
X215730352Y-68195000D01*
X216040527Y-68195000D01*
X216127189Y-68324698D01*
X216531703Y-68594986D01*
X216314866Y-68697611D01*
X215938959Y-69112577D01*
X215778096Y-69500961D01*
X215900085Y-69723000D01*
X217043000Y-69723000D01*
X217043000Y-69703000D01*
X217297000Y-69703000D01*
X217297000Y-69723000D01*
X218439915Y-69723000D01*
X218561904Y-69500961D01*
X218401041Y-69112577D01*
X218025134Y-68697611D01*
X217808297Y-68594986D01*
X218212811Y-68324698D01*
X218299473Y-68195000D01*
X218439995Y-68195000D01*
X218440000Y-68195001D01*
X218722484Y-68138810D01*
X218778675Y-68127633D01*
X219065790Y-67935790D01*
X219065791Y-67935789D01*
X220335787Y-66665792D01*
X220335790Y-66665790D01*
X220527633Y-66378675D01*
X220549759Y-66267440D01*
X220595001Y-66040000D01*
X220595000Y-66039995D01*
X220595000Y-58240478D01*
X220893629Y-57942370D01*
X220979949Y-57734488D01*
X221064990Y-57940303D01*
X221064990Y-57940303D01*
G37*
X221064990Y-57940303D02*
X221365000Y-58240837D01*
X221365000Y-66039995D01*
X221364999Y-66040000D01*
X221410241Y-66267440D01*
X221432367Y-66378675D01*
X221511049Y-66496431D01*
X221624210Y-66665790D01*
X222894208Y-67935787D01*
X222894210Y-67935790D01*
X222905252Y-67943168D01*
X219084210Y-71764210D01*
X218892367Y-72051325D01*
X218892367Y-72051326D01*
X218824999Y-72390000D01*
X218825000Y-72390005D01*
X218825000Y-73293421D01*
X218073420Y-74045000D01*
X216266579Y-74045000D01*
X216014884Y-73793305D01*
X216015240Y-73385715D01*
X215804831Y-72876485D01*
X215415564Y-72486539D01*
X214906702Y-72275241D01*
X214355715Y-72274760D01*
X213846485Y-72485169D01*
X213456539Y-72874436D01*
X213245241Y-73383298D01*
X213245084Y-73563504D01*
X210975000Y-71293420D01*
X210975000Y-70199039D01*
X215778096Y-70199039D01*
X215938959Y-70587423D01*
X216314866Y-71002389D01*
X216820959Y-71241914D01*
X217043000Y-71120629D01*
X217043000Y-69977000D01*
X217297000Y-69977000D01*
X217297000Y-71120629D01*
X217519041Y-71241914D01*
X218025134Y-71002389D01*
X218401041Y-70587423D01*
X218561904Y-70199039D01*
X218439915Y-69977000D01*
X217297000Y-69977000D01*
X217043000Y-69977000D01*
X215900085Y-69977000D01*
X215778096Y-70199039D01*
X210975000Y-70199039D01*
X210975000Y-68807440D01*
X211090000Y-68807440D01*
X211325317Y-68763162D01*
X211541441Y-68624090D01*
X211686431Y-68411890D01*
X211737440Y-68160000D01*
X211737440Y-68118355D01*
X211751325Y-68127633D01*
X212090000Y-68195000D01*
X212449146Y-68195000D01*
X212486838Y-68395317D01*
X212625910Y-68611441D01*
X212838110Y-68756431D01*
X213090000Y-68807440D01*
X215090000Y-68807440D01*
X215325317Y-68763162D01*
X215541441Y-68624090D01*
X215686431Y-68411890D01*
X215730352Y-68195000D01*
X216040527Y-68195000D01*
X216127189Y-68324698D01*
X216531703Y-68594986D01*
X216314866Y-68697611D01*
X215938959Y-69112577D01*
X215778096Y-69500961D01*
X215900085Y-69723000D01*
X217043000Y-69723000D01*
X217043000Y-69703000D01*
X217297000Y-69703000D01*
X217297000Y-69723000D01*
X218439915Y-69723000D01*
X218561904Y-69500961D01*
X218401041Y-69112577D01*
X218025134Y-68697611D01*
X217808297Y-68594986D01*
X218212811Y-68324698D01*
X218299473Y-68195000D01*
X218439995Y-68195000D01*
X218440000Y-68195001D01*
X218722484Y-68138810D01*
X218778675Y-68127633D01*
X219065790Y-67935790D01*
X219065791Y-67935789D01*
X220335787Y-66665792D01*
X220335790Y-66665790D01*
X220527633Y-66378675D01*
X220549759Y-66267440D01*
X220595001Y-66040000D01*
X220595000Y-66039995D01*
X220595000Y-58240478D01*
X220893629Y-57942370D01*
X220979949Y-57734488D01*
X221064990Y-57940303D01*
G36*
X163665000Y-56704250D02*
X163823750Y-56863000D01*
X164973000Y-56863000D01*
X164973000Y-56843000D01*
X165227000Y-56843000D01*
X165227000Y-56863000D01*
X166376250Y-56863000D01*
X166535000Y-56704250D01*
X166535000Y-55320000D01*
X226575902Y-55320000D01*
X226572287Y-55320719D01*
X225929929Y-55749929D01*
X225500719Y-56392287D01*
X225350000Y-57150000D01*
X225500719Y-57907713D01*
X225929929Y-58550071D01*
X226572287Y-58979281D01*
X227130833Y-59090383D01*
X227102560Y-59230000D01*
X227102560Y-59345000D01*
X225520005Y-59345000D01*
X225520000Y-59344999D01*
X225237516Y-59401190D01*
X225181325Y-59412367D01*
X224894210Y-59604210D01*
X224894208Y-59604213D01*
X224164210Y-60334210D01*
X223972367Y-60621325D01*
X223972367Y-60621326D01*
X223904999Y-60960000D01*
X223905000Y-60960005D01*
X223905000Y-61109856D01*
X223747189Y-61215302D01*
X223436120Y-61680849D01*
X223326887Y-62230000D01*
X223436120Y-62779151D01*
X223747189Y-63244698D01*
X224129275Y-63500000D01*
X223747189Y-63755302D01*
X223436120Y-64220849D01*
X223326887Y-64770000D01*
X223436120Y-65319151D01*
X223747189Y-65784698D01*
X224129275Y-66040000D01*
X223752999Y-66291420D01*
X223135000Y-65673420D01*
X223135000Y-58240478D01*
X223433629Y-57942370D01*
X223646757Y-57429100D01*
X223647242Y-56873339D01*
X223435010Y-56359697D01*
X223042370Y-55966371D01*
X222529100Y-55753243D01*
X221973339Y-55752758D01*
X221459697Y-55964990D01*
X221066371Y-56357630D01*
X220980051Y-56565512D01*
X220895010Y-56359697D01*
X220502370Y-55966371D01*
X219989100Y-55753243D01*
X219433339Y-55752758D01*
X218919697Y-55964990D01*
X218619163Y-56265000D01*
X218260478Y-56265000D01*
X217962370Y-55966371D01*
X217449100Y-55753243D01*
X216893339Y-55752758D01*
X216379697Y-55964990D01*
X215986371Y-56357630D01*
X215773243Y-56870900D01*
X215772758Y-57426661D01*
X215984990Y-57940303D01*
X216377630Y-58333629D01*
X216890900Y-58546757D01*
X217446661Y-58547242D01*
X217960303Y-58335010D01*
X218260837Y-58035000D01*
X218619522Y-58035000D01*
X218825000Y-58240837D01*
X218825000Y-65673421D01*
X218207001Y-66291420D01*
X217830725Y-66040000D01*
X218212811Y-65784698D01*
X218523880Y-65319151D01*
X218633113Y-64770000D01*
X218523880Y-64220849D01*
X218212811Y-63755302D01*
X218068535Y-63658899D01*
X218205317Y-63633162D01*
X218421441Y-63494090D01*
X218566431Y-63281890D01*
X218617440Y-63030000D01*
X218617440Y-61430000D01*
X218573162Y-61194683D01*
X218434090Y-60978559D01*
X218221890Y-60833569D01*
X217970000Y-60782560D01*
X216370000Y-60782560D01*
X216134683Y-60826838D01*
X215918559Y-60965910D01*
X215773569Y-61178110D01*
X215722560Y-61430000D01*
X215722560Y-63030000D01*
X215766838Y-63265317D01*
X215905910Y-63481441D01*
X216118110Y-63626431D01*
X216273089Y-63657815D01*
X216127189Y-63755302D01*
X216040527Y-63885000D01*
X215730854Y-63885000D01*
X215693162Y-63684683D01*
X215554090Y-63468559D01*
X215341890Y-63323569D01*
X215090000Y-63272560D01*
X213090000Y-63272560D01*
X212854683Y-63316838D01*
X212638559Y-63455910D01*
X212493569Y-63668110D01*
X212442560Y-63920000D01*
X212442560Y-63961645D01*
X212428675Y-63952367D01*
X212090000Y-63885000D01*
X211730854Y-63885000D01*
X211693162Y-63684683D01*
X211554090Y-63468559D01*
X211341890Y-63323569D01*
X211090000Y-63272560D01*
X209090000Y-63272560D01*
X208854683Y-63316838D01*
X208638559Y-63455910D01*
X208493569Y-63668110D01*
X208449648Y-63885000D01*
X208201446Y-63885000D01*
X208173162Y-63734683D01*
X208034090Y-63518559D01*
X207821890Y-63373569D01*
X207570000Y-63322560D01*
X204970000Y-63322560D01*
X204734683Y-63366838D01*
X204518559Y-63505910D01*
X204472031Y-63574006D01*
X204329698Y-63431673D01*
X204096309Y-63335000D01*
X202955750Y-63335000D01*
X202797000Y-63493750D01*
X202797000Y-64643000D01*
X202817000Y-64643000D01*
X202817000Y-64897000D01*
X202797000Y-64897000D01*
X202797000Y-66046250D01*
X202955750Y-66205000D01*
X204096309Y-66205000D01*
X204329698Y-66108327D01*
X204470936Y-65967090D01*
X204505910Y-66021441D01*
X204718110Y-66166431D01*
X204970000Y-66217440D01*
X207570000Y-66217440D01*
X207805317Y-66173162D01*
X208021441Y-66034090D01*
X208166431Y-65821890D01*
X208200227Y-65655000D01*
X208449146Y-65655000D01*
X208486838Y-65855317D01*
X208607015Y-66042077D01*
X208493569Y-66208110D01*
X208442560Y-66460000D01*
X208442560Y-68160000D01*
X208486838Y-68395317D01*
X208625910Y-68611441D01*
X208838110Y-68756431D01*
X209090000Y-68807440D01*
X209205000Y-68807440D01*
X209205000Y-68943421D01*
X209183420Y-68965000D01*
X201026579Y-68965000D01*
X199005000Y-66943420D01*
X199005000Y-65055750D01*
X200735000Y-65055750D01*
X200735000Y-65696310D01*
X200831673Y-65929699D01*
X201010302Y-66108327D01*
X201243691Y-66205000D01*
X202384250Y-66205000D01*
X202543000Y-66046250D01*
X202543000Y-64897000D01*
X200893750Y-64897000D01*
X200735000Y-65055750D01*
X199005000Y-65055750D01*
X199005000Y-63843690D01*
X200735000Y-63843690D01*
X200735000Y-64484250D01*
X200893750Y-64643000D01*
X202543000Y-64643000D01*
X202543000Y-63493750D01*
X202384250Y-63335000D01*
X201243691Y-63335000D01*
X201010302Y-63431673D01*
X200831673Y-63610301D01*
X200735000Y-63843690D01*
X199005000Y-63843690D01*
X199005000Y-61326580D01*
X199756579Y-60575000D01*
X208459522Y-60575000D01*
X208757630Y-60873629D01*
X209270900Y-61086757D01*
X209826661Y-61087242D01*
X210340303Y-60875010D01*
X210733629Y-60482370D01*
X210819949Y-60274488D01*
X210904990Y-60480303D01*
X211297630Y-60873629D01*
X211810900Y-61086757D01*
X212366661Y-61087242D01*
X212880303Y-60875010D01*
X213273629Y-60482370D01*
X213486757Y-59969100D01*
X213487242Y-59413339D01*
X213275010Y-58899697D01*
X212882370Y-58506371D01*
X212369100Y-58293243D01*
X211813339Y-58292758D01*
X211299697Y-58504990D01*
X210906371Y-58897630D01*
X210820051Y-59105512D01*
X210735010Y-58899697D01*
X210342370Y-58506371D01*
X209829100Y-58293243D01*
X209273339Y-58292758D01*
X208759697Y-58504990D01*
X208459163Y-58805000D01*
X199390005Y-58805000D01*
X199390000Y-58804999D01*
X199081780Y-58866309D01*
X199051325Y-58872367D01*
X198764210Y-59064210D01*
X198764208Y-59064213D01*
X197494210Y-60334210D01*
X197302367Y-60621325D01*
X197302367Y-60621326D01*
X197234999Y-60960000D01*
X197235000Y-60960005D01*
X197235000Y-67309995D01*
X197234999Y-67310000D01*
X197267572Y-67473750D01*
X197302367Y-67648675D01*
X197494209Y-67935789D01*
X198523420Y-68965000D01*
X191770005Y-68965000D01*
X191770000Y-68964999D01*
X191769995Y-68965000D01*
X165985000Y-68965000D01*
X165985000Y-64771446D01*
X166135317Y-64743162D01*
X166351441Y-64604090D01*
X166496431Y-64391890D01*
X166547440Y-64140000D01*
X166547440Y-60670213D01*
X173189392Y-60670213D01*
X173258857Y-60912397D01*
X173782302Y-61099144D01*
X174337368Y-61071362D01*
X174721143Y-60912397D01*
X174790608Y-60670213D01*
X175729392Y-60670213D01*
X175798857Y-60912397D01*
X176322302Y-61099144D01*
X176877368Y-61071362D01*
X177261143Y-60912397D01*
X177330608Y-60670213D01*
X176530000Y-59869605D01*
X175729392Y-60670213D01*
X174790608Y-60670213D01*
X173990000Y-59869605D01*
X173189392Y-60670213D01*
X166547440Y-60670213D01*
X166547440Y-60640000D01*
X166503162Y-60404683D01*
X166364090Y-60188559D01*
X166151890Y-60043569D01*
X165900000Y-59992560D01*
X164300000Y-59992560D01*
X164143573Y-60021994D01*
X163603882Y-59482302D01*
X172580856Y-59482302D01*
X172608638Y-60037368D01*
X172767603Y-60421143D01*
X173009787Y-60490608D01*
X173810395Y-59690000D01*
X174169605Y-59690000D01*
X174970213Y-60490608D01*
X175212397Y-60421143D01*
X175256453Y-60297656D01*
X175307603Y-60421143D01*
X175549787Y-60490608D01*
X176350395Y-59690000D01*
X176709605Y-59690000D01*
X177510213Y-60490608D01*
X177752397Y-60421143D01*
X177939144Y-59897698D01*
X177911362Y-59342632D01*
X177821216Y-59125000D01*
X184412143Y-59125000D01*
X184412143Y-62945000D01*
X188967857Y-62945000D01*
X188967857Y-59125000D01*
X184412143Y-59125000D01*
X177821216Y-59125000D01*
X177752397Y-58958857D01*
X177510213Y-58889392D01*
X176709605Y-59690000D01*
X176350395Y-59690000D01*
X175549787Y-58889392D01*
X175307603Y-58958857D01*
X175263547Y-59082344D01*
X175212397Y-58958857D01*
X174970213Y-58889392D01*
X174169605Y-59690000D01*
X173810395Y-59690000D01*
X173009787Y-58889392D01*
X172767603Y-58958857D01*
X172580856Y-59482302D01*
X163603882Y-59482302D01*
X163185790Y-59064210D01*
X163081735Y-58994683D01*
X162898675Y-58872367D01*
X162842484Y-58861190D01*
X162560000Y-58804999D01*
X162559995Y-58805000D01*
X158914277Y-58805000D01*
X158927440Y-58740000D01*
X158927440Y-57275750D01*
X163665000Y-57275750D01*
X163665000Y-58866309D01*
X163761673Y-59099698D01*
X163940301Y-59278327D01*
X164173690Y-59375000D01*
X164814250Y-59375000D01*
X164973000Y-59216250D01*
X164973000Y-57117000D01*
X165227000Y-57117000D01*
X165227000Y-59216250D01*
X165385750Y-59375000D01*
X166026310Y-59375000D01*
X166259699Y-59278327D01*
X166438327Y-59099698D01*
X166535000Y-58866309D01*
X166535000Y-58709787D01*
X173189392Y-58709787D01*
X173990000Y-59510395D01*
X174790608Y-58709787D01*
X175729392Y-58709787D01*
X176530000Y-59510395D01*
X177330608Y-58709787D01*
X177261143Y-58467603D01*
X176737698Y-58280856D01*
X176182632Y-58308638D01*
X175798857Y-58467603D01*
X175729392Y-58709787D01*
X174790608Y-58709787D01*
X174721143Y-58467603D01*
X174197698Y-58280856D01*
X173642632Y-58308638D01*
X173258857Y-58467603D01*
X173189392Y-58709787D01*
X166535000Y-58709787D01*
X166535000Y-57275750D01*
X166376250Y-57117000D01*
X165227000Y-57117000D01*
X164973000Y-57117000D01*
X163823750Y-57117000D01*
X163665000Y-57275750D01*
X158927440Y-57275750D01*
X158927440Y-55320000D01*
X163665000Y-55320000D01*
X163665000Y-56704250D01*
X163665000Y-56704250D01*
G37*
X163665000Y-56704250D02*
X163823750Y-56863000D01*
X164973000Y-56863000D01*
X164973000Y-56843000D01*
X165227000Y-56843000D01*
X165227000Y-56863000D01*
X166376250Y-56863000D01*
X166535000Y-56704250D01*
X166535000Y-55320000D01*
X226575902Y-55320000D01*
X226572287Y-55320719D01*
X225929929Y-55749929D01*
X225500719Y-56392287D01*
X225350000Y-57150000D01*
X225500719Y-57907713D01*
X225929929Y-58550071D01*
X226572287Y-58979281D01*
X227130833Y-59090383D01*
X227102560Y-59230000D01*
X227102560Y-59345000D01*
X225520005Y-59345000D01*
X225520000Y-59344999D01*
X225237516Y-59401190D01*
X225181325Y-59412367D01*
X224894210Y-59604210D01*
X224894208Y-59604213D01*
X224164210Y-60334210D01*
X223972367Y-60621325D01*
X223972367Y-60621326D01*
X223904999Y-60960000D01*
X223905000Y-60960005D01*
X223905000Y-61109856D01*
X223747189Y-61215302D01*
X223436120Y-61680849D01*
X223326887Y-62230000D01*
X223436120Y-62779151D01*
X223747189Y-63244698D01*
X224129275Y-63500000D01*
X223747189Y-63755302D01*
X223436120Y-64220849D01*
X223326887Y-64770000D01*
X223436120Y-65319151D01*
X223747189Y-65784698D01*
X224129275Y-66040000D01*
X223752999Y-66291420D01*
X223135000Y-65673420D01*
X223135000Y-58240478D01*
X223433629Y-57942370D01*
X223646757Y-57429100D01*
X223647242Y-56873339D01*
X223435010Y-56359697D01*
X223042370Y-55966371D01*
X222529100Y-55753243D01*
X221973339Y-55752758D01*
X221459697Y-55964990D01*
X221066371Y-56357630D01*
X220980051Y-56565512D01*
X220895010Y-56359697D01*
X220502370Y-55966371D01*
X219989100Y-55753243D01*
X219433339Y-55752758D01*
X218919697Y-55964990D01*
X218619163Y-56265000D01*
X218260478Y-56265000D01*
X217962370Y-55966371D01*
X217449100Y-55753243D01*
X216893339Y-55752758D01*
X216379697Y-55964990D01*
X215986371Y-56357630D01*
X215773243Y-56870900D01*
X215772758Y-57426661D01*
X215984990Y-57940303D01*
X216377630Y-58333629D01*
X216890900Y-58546757D01*
X217446661Y-58547242D01*
X217960303Y-58335010D01*
X218260837Y-58035000D01*
X218619522Y-58035000D01*
X218825000Y-58240837D01*
X218825000Y-65673421D01*
X218207001Y-66291420D01*
X217830725Y-66040000D01*
X218212811Y-65784698D01*
X218523880Y-65319151D01*
X218633113Y-64770000D01*
X218523880Y-64220849D01*
X218212811Y-63755302D01*
X218068535Y-63658899D01*
X218205317Y-63633162D01*
X218421441Y-63494090D01*
X218566431Y-63281890D01*
X218617440Y-63030000D01*
X218617440Y-61430000D01*
X218573162Y-61194683D01*
X218434090Y-60978559D01*
X218221890Y-60833569D01*
X217970000Y-60782560D01*
X216370000Y-60782560D01*
X216134683Y-60826838D01*
X215918559Y-60965910D01*
X215773569Y-61178110D01*
X215722560Y-61430000D01*
X215722560Y-63030000D01*
X215766838Y-63265317D01*
X215905910Y-63481441D01*
X216118110Y-63626431D01*
X216273089Y-63657815D01*
X216127189Y-63755302D01*
X216040527Y-63885000D01*
X215730854Y-63885000D01*
X215693162Y-63684683D01*
X215554090Y-63468559D01*
X215341890Y-63323569D01*
X215090000Y-63272560D01*
X213090000Y-63272560D01*
X212854683Y-63316838D01*
X212638559Y-63455910D01*
X212493569Y-63668110D01*
X212442560Y-63920000D01*
X212442560Y-63961645D01*
X212428675Y-63952367D01*
X212090000Y-63885000D01*
X211730854Y-63885000D01*
X211693162Y-63684683D01*
X211554090Y-63468559D01*
X211341890Y-63323569D01*
X211090000Y-63272560D01*
X209090000Y-63272560D01*
X208854683Y-63316838D01*
X208638559Y-63455910D01*
X208493569Y-63668110D01*
X208449648Y-63885000D01*
X208201446Y-63885000D01*
X208173162Y-63734683D01*
X208034090Y-63518559D01*
X207821890Y-63373569D01*
X207570000Y-63322560D01*
X204970000Y-63322560D01*
X204734683Y-63366838D01*
X204518559Y-63505910D01*
X204472031Y-63574006D01*
X204329698Y-63431673D01*
X204096309Y-63335000D01*
X202955750Y-63335000D01*
X202797000Y-63493750D01*
X202797000Y-64643000D01*
X202817000Y-64643000D01*
X202817000Y-64897000D01*
X202797000Y-64897000D01*
X202797000Y-66046250D01*
X202955750Y-66205000D01*
X204096309Y-66205000D01*
X204329698Y-66108327D01*
X204470936Y-65967090D01*
X204505910Y-66021441D01*
X204718110Y-66166431D01*
X204970000Y-66217440D01*
X207570000Y-66217440D01*
X207805317Y-66173162D01*
X208021441Y-66034090D01*
X208166431Y-65821890D01*
X208200227Y-65655000D01*
X208449146Y-65655000D01*
X208486838Y-65855317D01*
X208607015Y-66042077D01*
X208493569Y-66208110D01*
X208442560Y-66460000D01*
X208442560Y-68160000D01*
X208486838Y-68395317D01*
X208625910Y-68611441D01*
X208838110Y-68756431D01*
X209090000Y-68807440D01*
X209205000Y-68807440D01*
X209205000Y-68943421D01*
X209183420Y-68965000D01*
X201026579Y-68965000D01*
X199005000Y-66943420D01*
X199005000Y-65055750D01*
X200735000Y-65055750D01*
X200735000Y-65696310D01*
X200831673Y-65929699D01*
X201010302Y-66108327D01*
X201243691Y-66205000D01*
X202384250Y-66205000D01*
X202543000Y-66046250D01*
X202543000Y-64897000D01*
X200893750Y-64897000D01*
X200735000Y-65055750D01*
X199005000Y-65055750D01*
X199005000Y-63843690D01*
X200735000Y-63843690D01*
X200735000Y-64484250D01*
X200893750Y-64643000D01*
X202543000Y-64643000D01*
X202543000Y-63493750D01*
X202384250Y-63335000D01*
X201243691Y-63335000D01*
X201010302Y-63431673D01*
X200831673Y-63610301D01*
X200735000Y-63843690D01*
X199005000Y-63843690D01*
X199005000Y-61326580D01*
X199756579Y-60575000D01*
X208459522Y-60575000D01*
X208757630Y-60873629D01*
X209270900Y-61086757D01*
X209826661Y-61087242D01*
X210340303Y-60875010D01*
X210733629Y-60482370D01*
X210819949Y-60274488D01*
X210904990Y-60480303D01*
X211297630Y-60873629D01*
X211810900Y-61086757D01*
X212366661Y-61087242D01*
X212880303Y-60875010D01*
X213273629Y-60482370D01*
X213486757Y-59969100D01*
X213487242Y-59413339D01*
X213275010Y-58899697D01*
X212882370Y-58506371D01*
X212369100Y-58293243D01*
X211813339Y-58292758D01*
X211299697Y-58504990D01*
X210906371Y-58897630D01*
X210820051Y-59105512D01*
X210735010Y-58899697D01*
X210342370Y-58506371D01*
X209829100Y-58293243D01*
X209273339Y-58292758D01*
X208759697Y-58504990D01*
X208459163Y-58805000D01*
X199390005Y-58805000D01*
X199390000Y-58804999D01*
X199081780Y-58866309D01*
X199051325Y-58872367D01*
X198764210Y-59064210D01*
X198764208Y-59064213D01*
X197494210Y-60334210D01*
X197302367Y-60621325D01*
X197302367Y-60621326D01*
X197234999Y-60960000D01*
X197235000Y-60960005D01*
X197235000Y-67309995D01*
X197234999Y-67310000D01*
X197267572Y-67473750D01*
X197302367Y-67648675D01*
X197494209Y-67935789D01*
X198523420Y-68965000D01*
X191770005Y-68965000D01*
X191770000Y-68964999D01*
X191769995Y-68965000D01*
X165985000Y-68965000D01*
X165985000Y-64771446D01*
X166135317Y-64743162D01*
X166351441Y-64604090D01*
X166496431Y-64391890D01*
X166547440Y-64140000D01*
X166547440Y-60670213D01*
X173189392Y-60670213D01*
X173258857Y-60912397D01*
X173782302Y-61099144D01*
X174337368Y-61071362D01*
X174721143Y-60912397D01*
X174790608Y-60670213D01*
X175729392Y-60670213D01*
X175798857Y-60912397D01*
X176322302Y-61099144D01*
X176877368Y-61071362D01*
X177261143Y-60912397D01*
X177330608Y-60670213D01*
X176530000Y-59869605D01*
X175729392Y-60670213D01*
X174790608Y-60670213D01*
X173990000Y-59869605D01*
X173189392Y-60670213D01*
X166547440Y-60670213D01*
X166547440Y-60640000D01*
X166503162Y-60404683D01*
X166364090Y-60188559D01*
X166151890Y-60043569D01*
X165900000Y-59992560D01*
X164300000Y-59992560D01*
X164143573Y-60021994D01*
X163603882Y-59482302D01*
X172580856Y-59482302D01*
X172608638Y-60037368D01*
X172767603Y-60421143D01*
X173009787Y-60490608D01*
X173810395Y-59690000D01*
X174169605Y-59690000D01*
X174970213Y-60490608D01*
X175212397Y-60421143D01*
X175256453Y-60297656D01*
X175307603Y-60421143D01*
X175549787Y-60490608D01*
X176350395Y-59690000D01*
X176709605Y-59690000D01*
X177510213Y-60490608D01*
X177752397Y-60421143D01*
X177939144Y-59897698D01*
X177911362Y-59342632D01*
X177821216Y-59125000D01*
X184412143Y-59125000D01*
X184412143Y-62945000D01*
X188967857Y-62945000D01*
X188967857Y-59125000D01*
X184412143Y-59125000D01*
X177821216Y-59125000D01*
X177752397Y-58958857D01*
X177510213Y-58889392D01*
X176709605Y-59690000D01*
X176350395Y-59690000D01*
X175549787Y-58889392D01*
X175307603Y-58958857D01*
X175263547Y-59082344D01*
X175212397Y-58958857D01*
X174970213Y-58889392D01*
X174169605Y-59690000D01*
X173810395Y-59690000D01*
X173009787Y-58889392D01*
X172767603Y-58958857D01*
X172580856Y-59482302D01*
X163603882Y-59482302D01*
X163185790Y-59064210D01*
X163081735Y-58994683D01*
X162898675Y-58872367D01*
X162842484Y-58861190D01*
X162560000Y-58804999D01*
X162559995Y-58805000D01*
X158914277Y-58805000D01*
X158927440Y-58740000D01*
X158927440Y-57275750D01*
X163665000Y-57275750D01*
X163665000Y-58866309D01*
X163761673Y-59099698D01*
X163940301Y-59278327D01*
X164173690Y-59375000D01*
X164814250Y-59375000D01*
X164973000Y-59216250D01*
X164973000Y-57117000D01*
X165227000Y-57117000D01*
X165227000Y-59216250D01*
X165385750Y-59375000D01*
X166026310Y-59375000D01*
X166259699Y-59278327D01*
X166438327Y-59099698D01*
X166535000Y-58866309D01*
X166535000Y-58709787D01*
X173189392Y-58709787D01*
X173990000Y-59510395D01*
X174790608Y-58709787D01*
X175729392Y-58709787D01*
X176530000Y-59510395D01*
X177330608Y-58709787D01*
X177261143Y-58467603D01*
X176737698Y-58280856D01*
X176182632Y-58308638D01*
X175798857Y-58467603D01*
X175729392Y-58709787D01*
X174790608Y-58709787D01*
X174721143Y-58467603D01*
X174197698Y-58280856D01*
X173642632Y-58308638D01*
X173258857Y-58467603D01*
X173189392Y-58709787D01*
X166535000Y-58709787D01*
X166535000Y-57275750D01*
X166376250Y-57117000D01*
X165227000Y-57117000D01*
X164973000Y-57117000D01*
X163823750Y-57117000D01*
X163665000Y-57275750D01*
X158927440Y-57275750D01*
X158927440Y-55320000D01*
X163665000Y-55320000D01*
X163665000Y-56704250D01*
M02*
