G04 #@! TF.FileFunction,Legend,Top*
%FSLAX46Y46*%
G04 Gerber Fmt 4.6, Leading zero omitted, Abs format (unit mm)*
G04 Created by KiCad (PCBNEW 4.0.5) date 10/30/17 14:37:20*
%MOMM*%
%LPD*%
G01*
G04 APERTURE LIST*
%ADD10C,0.100000*%
%ADD11C,0.150000*%
%ADD12C,0.120000*%
G04 APERTURE END LIST*
D10*
D11*
X168910000Y-95250000D02*
X168910000Y-58420000D01*
X213360000Y-96520000D02*
X170180000Y-96520000D01*
X214630000Y-58420000D02*
X214630000Y-95250000D01*
X170180000Y-57150000D02*
X213360000Y-57150000D01*
X170180000Y-96520000D02*
G75*
G03X168910000Y-95250000I-1270000J0D01*
G01*
X213360000Y-57150000D02*
G75*
G03X214630000Y-58420000I1270000J0D01*
G01*
X214630000Y-95250000D02*
G75*
G03X213360000Y-96520000I0J-1270000D01*
G01*
X168910000Y-58420000D02*
G75*
G03X170180000Y-57150000I0J1270000D01*
G01*
X212090000Y-76835000D02*
G75*
G03X212090000Y-76835000I-1270000J0D01*
G01*
X173990000Y-76835000D02*
G75*
G03X173990000Y-76835000I-1270000J0D01*
G01*
D12*
X166215262Y-62523022D02*
G75*
G03X166217600Y-56857900I-1115262J2833022D01*
G01*
X163984738Y-56856978D02*
G75*
G03X163982400Y-62522100I1115262J-2833022D01*
G01*
X167640000Y-62992000D02*
X166217600Y-62992000D01*
X168402000Y-56388000D02*
X166217600Y-56388000D01*
X161798000Y-56388000D02*
X163982400Y-56388000D01*
X162560000Y-62992000D02*
X163982400Y-62992000D01*
X168402000Y-56388000D02*
X168402000Y-62230000D01*
X168402000Y-62230000D02*
X167640000Y-62992000D01*
X162560000Y-62992000D02*
X161798000Y-62230000D01*
X161798000Y-62230000D02*
X161798000Y-56388000D01*
D11*
X195335000Y-86090000D02*
X195335000Y-84090000D01*
X193285000Y-84090000D02*
X193285000Y-86090000D01*
X195335000Y-77200000D02*
X195335000Y-75200000D01*
X193285000Y-75200000D02*
X193285000Y-77200000D01*
X214385000Y-86090000D02*
X214385000Y-84090000D01*
X212335000Y-84090000D02*
X212335000Y-86090000D01*
D12*
X142660000Y-66000000D02*
X144360000Y-66000000D01*
X144360000Y-65950000D02*
X144360000Y-61900000D01*
X142660000Y-65950000D02*
X142660000Y-61900000D01*
D11*
X226016000Y-89971000D02*
X226216000Y-89971000D01*
X228610000Y-89971000D02*
X228430000Y-89971000D01*
X228299643Y-93198744D02*
G75*
G03X228616000Y-89971000I-1003643J1727744D01*
G01*
X228429068Y-92523006D02*
G75*
G03X228430000Y-90420000I-1133068J1052006D01*
G01*
X225989274Y-89983780D02*
G75*
G03X226336000Y-93221000I1306726J-1497220D01*
G01*
X226216747Y-90457111D02*
G75*
G03X226236000Y-92505000I1079253J-1013889D01*
G01*
X195775000Y-86090000D02*
X195775000Y-84090000D01*
X197925000Y-84090000D02*
X197925000Y-86090000D01*
X190695000Y-86090000D02*
X190695000Y-84090000D01*
X192845000Y-84090000D02*
X192845000Y-86090000D01*
X191575000Y-75200000D02*
X191575000Y-77200000D01*
X189425000Y-77200000D02*
X189425000Y-75200000D01*
X203470000Y-89095000D02*
X205470000Y-89095000D01*
X205470000Y-91245000D02*
X203470000Y-91245000D01*
X148395000Y-68850000D02*
X148395000Y-70850000D01*
X146245000Y-70850000D02*
X146245000Y-68850000D01*
X195775000Y-77200000D02*
X195775000Y-75200000D01*
X197925000Y-75200000D02*
X197925000Y-77200000D01*
X209745000Y-86090000D02*
X209745000Y-84090000D01*
X211895000Y-84090000D02*
X211895000Y-86090000D01*
X213090000Y-68385000D02*
X211090000Y-68385000D01*
X211090000Y-66235000D02*
X213090000Y-66235000D01*
X203470000Y-72585000D02*
X205470000Y-72585000D01*
X205470000Y-74735000D02*
X203470000Y-74735000D01*
X211090000Y-63695000D02*
X213090000Y-63695000D01*
X213090000Y-65845000D02*
X211090000Y-65845000D01*
X229675000Y-68850000D02*
X229675000Y-70850000D01*
X227525000Y-70850000D02*
X227525000Y-68850000D01*
X227525000Y-63230000D02*
X227525000Y-61230000D01*
X229675000Y-61230000D02*
X229675000Y-63230000D01*
X219440000Y-79815000D02*
X217440000Y-79815000D01*
X217440000Y-77665000D02*
X219440000Y-77665000D01*
D12*
X195730246Y-90895227D02*
G75*
G03X195732400Y-94526100I1119754J-1814773D01*
G01*
X197967600Y-94526100D02*
G75*
G03X197967600Y-90893900I-1117600J1816100D01*
G01*
X198374000Y-90424000D02*
X197967600Y-90424000D01*
X199136000Y-94996000D02*
X197967600Y-94996000D01*
X194564000Y-94996000D02*
X195732400Y-94996000D01*
X195326000Y-90424000D02*
X195732400Y-90424000D01*
X194564000Y-91186000D02*
X194564000Y-94996000D01*
X194564000Y-91186000D02*
X195326000Y-90424000D01*
X199136000Y-91186000D02*
X199136000Y-94996000D01*
X199136000Y-91186000D02*
X198374000Y-90424000D01*
X156364394Y-89877114D02*
G75*
G03X156362400Y-95542100I1115606J-2832886D01*
G01*
X158597600Y-95542100D02*
G75*
G03X158597600Y-89877900I-1117600J2832100D01*
G01*
X154178000Y-96012000D02*
X156362400Y-96012000D01*
X160782000Y-96012000D02*
X158597600Y-96012000D01*
X154940000Y-89408000D02*
X156362400Y-89408000D01*
X160020000Y-89408000D02*
X158597600Y-89408000D01*
X154178000Y-96012000D02*
X154178000Y-90170000D01*
X154178000Y-90170000D02*
X154940000Y-89408000D01*
X160020000Y-89408000D02*
X160782000Y-90170000D01*
X160782000Y-90170000D02*
X160782000Y-96012000D01*
X185570246Y-83275227D02*
G75*
G03X185572400Y-86906100I1119754J-1814773D01*
G01*
X187807600Y-86906100D02*
G75*
G03X187807600Y-83273900I-1117600J1816100D01*
G01*
X188214000Y-82804000D02*
X187807600Y-82804000D01*
X188976000Y-87376000D02*
X187807600Y-87376000D01*
X184404000Y-87376000D02*
X185572400Y-87376000D01*
X185166000Y-82804000D02*
X185572400Y-82804000D01*
X184404000Y-83566000D02*
X184404000Y-87376000D01*
X184404000Y-83566000D02*
X185166000Y-82804000D01*
X188976000Y-83566000D02*
X188976000Y-87376000D01*
X188976000Y-83566000D02*
X188214000Y-82804000D01*
X187809754Y-78014773D02*
G75*
G03X187807600Y-74383900I-1119754J1814773D01*
G01*
X185572400Y-74383900D02*
G75*
G03X185572400Y-78016100I1117600J-1816100D01*
G01*
X185166000Y-78486000D02*
X185572400Y-78486000D01*
X184404000Y-73914000D02*
X185572400Y-73914000D01*
X188976000Y-73914000D02*
X187807600Y-73914000D01*
X188214000Y-78486000D02*
X187807600Y-78486000D01*
X188976000Y-77724000D02*
X188976000Y-73914000D01*
X188976000Y-77724000D02*
X188214000Y-78486000D01*
X184404000Y-77724000D02*
X184404000Y-73914000D01*
X184404000Y-77724000D02*
X185166000Y-78486000D01*
X206284773Y-63650246D02*
G75*
G03X202653900Y-63652400I-1814773J-1119754D01*
G01*
X202653900Y-65887600D02*
G75*
G03X206286100Y-65887600I1816100J1117600D01*
G01*
X206756000Y-66294000D02*
X206756000Y-65887600D01*
X202184000Y-67056000D02*
X202184000Y-65887600D01*
X202184000Y-62484000D02*
X202184000Y-63652400D01*
X206756000Y-63246000D02*
X206756000Y-63652400D01*
X205994000Y-62484000D02*
X202184000Y-62484000D01*
X205994000Y-62484000D02*
X206756000Y-63246000D01*
X205994000Y-67056000D02*
X202184000Y-67056000D01*
X205994000Y-67056000D02*
X206756000Y-66294000D01*
X206284773Y-76350246D02*
G75*
G03X202653900Y-76352400I-1814773J-1119754D01*
G01*
X202653900Y-78587600D02*
G75*
G03X206286100Y-78587600I1816100J1117600D01*
G01*
X206756000Y-78994000D02*
X206756000Y-78587600D01*
X202184000Y-79756000D02*
X202184000Y-78587600D01*
X202184000Y-75184000D02*
X202184000Y-76352400D01*
X206756000Y-75946000D02*
X206756000Y-76352400D01*
X205994000Y-75184000D02*
X202184000Y-75184000D01*
X205994000Y-75184000D02*
X206756000Y-75946000D01*
X205994000Y-79756000D02*
X202184000Y-79756000D01*
X205994000Y-79756000D02*
X206756000Y-78994000D01*
X223812886Y-85244394D02*
G75*
G03X218147900Y-85242400I-2832886J-1115606D01*
G01*
X218147900Y-87477600D02*
G75*
G03X223812100Y-87477600I2832100J1117600D01*
G01*
X217678000Y-83058000D02*
X217678000Y-85242400D01*
X217678000Y-89662000D02*
X217678000Y-87477600D01*
X224282000Y-83820000D02*
X224282000Y-85242400D01*
X224282000Y-88900000D02*
X224282000Y-87477600D01*
X217678000Y-83058000D02*
X223520000Y-83058000D01*
X223520000Y-83058000D02*
X224282000Y-83820000D01*
X224282000Y-88900000D02*
X223520000Y-89662000D01*
X223520000Y-89662000D02*
X217678000Y-89662000D01*
X147320000Y-97790000D02*
X147320000Y-87630000D01*
X146050000Y-97790000D02*
X153670000Y-97790000D01*
X153670000Y-97790000D02*
X153670000Y-87630000D01*
X153670000Y-87630000D02*
X146050000Y-87630000D01*
X146050000Y-87630000D02*
X146050000Y-97790000D01*
X147320000Y-66040000D02*
X147320000Y-55880000D01*
X146050000Y-66040000D02*
X153670000Y-66040000D01*
X153670000Y-66040000D02*
X153670000Y-55880000D01*
X153670000Y-55880000D02*
X146050000Y-55880000D01*
X146050000Y-55880000D02*
X146050000Y-66040000D01*
D11*
X216154000Y-94488000D02*
X216154000Y-95758000D01*
X216941400Y-95237300D02*
X216903300Y-94983300D01*
X216903300Y-94983300D02*
X216725500Y-94703900D01*
X216725500Y-94703900D02*
X216408000Y-94488000D01*
X216408000Y-94488000D02*
X215963500Y-94475300D01*
X215963500Y-94475300D02*
X215607900Y-94678500D01*
X215607900Y-94678500D02*
X215430100Y-94970600D01*
X215430100Y-94970600D02*
X215379300Y-95288100D01*
X215379300Y-95288100D02*
X215480900Y-95694500D01*
X215480900Y-95694500D02*
X215823800Y-95948500D01*
X215823800Y-95948500D02*
X216001600Y-96037400D01*
X224536000Y-98298000D02*
X214884000Y-98298000D01*
X214884000Y-95250000D02*
X214884000Y-93980000D01*
X214884000Y-93980000D02*
X224536000Y-93980000D01*
X224536000Y-93980000D02*
X224536000Y-99060000D01*
X214884000Y-99060000D02*
X214884000Y-96520000D01*
X214884000Y-96520000D02*
X214884000Y-95250000D01*
X216154000Y-55118000D02*
X216154000Y-56388000D01*
X216941400Y-55867300D02*
X216903300Y-55613300D01*
X216903300Y-55613300D02*
X216725500Y-55333900D01*
X216725500Y-55333900D02*
X216408000Y-55118000D01*
X216408000Y-55118000D02*
X215963500Y-55105300D01*
X215963500Y-55105300D02*
X215607900Y-55308500D01*
X215607900Y-55308500D02*
X215430100Y-55600600D01*
X215430100Y-55600600D02*
X215379300Y-55918100D01*
X215379300Y-55918100D02*
X215480900Y-56324500D01*
X215480900Y-56324500D02*
X215823800Y-56578500D01*
X215823800Y-56578500D02*
X216001600Y-56667400D01*
X224536000Y-58928000D02*
X214884000Y-58928000D01*
X214884000Y-55880000D02*
X214884000Y-54610000D01*
X214884000Y-54610000D02*
X224536000Y-54610000D01*
X224536000Y-54610000D02*
X224536000Y-59690000D01*
X214884000Y-59690000D02*
X214884000Y-57150000D01*
X214884000Y-57150000D02*
X214884000Y-55880000D01*
D12*
X154180000Y-62990000D02*
X156360000Y-62990000D01*
X160780000Y-62990000D02*
X158600000Y-62990000D01*
X154940000Y-56390000D02*
X156360000Y-56390000D01*
X160020000Y-56390000D02*
X158600000Y-56390000D01*
X154180000Y-62990000D02*
X154180000Y-57150000D01*
X154180000Y-57150000D02*
X154940000Y-56390000D01*
X160020000Y-56390000D02*
X160780000Y-57150000D01*
X160780000Y-57150000D02*
X160780000Y-62990000D01*
D11*
X162900000Y-67700000D02*
X162900000Y-84700000D01*
X162900000Y-84700000D02*
X141900000Y-84700000D01*
X141900000Y-84700000D02*
X141900000Y-67700000D01*
X141900000Y-67700000D02*
X162900000Y-67700000D01*
X206756000Y-82550000D02*
X206756000Y-87630000D01*
X206756000Y-87630000D02*
X202184000Y-87630000D01*
X202184000Y-87630000D02*
X202184000Y-82550000D01*
X202184000Y-82550000D02*
X206756000Y-82550000D01*
X205232000Y-82550000D02*
X205232000Y-83058000D01*
X205232000Y-83058000D02*
X203962000Y-83058000D01*
X203962000Y-83058000D02*
X203962000Y-82550000D01*
D12*
X221980000Y-60900000D02*
G75*
G02X219980000Y-60900000I-1000000J0D01*
G01*
X219980000Y-60900000D02*
X218330000Y-60900000D01*
X218330000Y-60900000D02*
X218330000Y-71180000D01*
X218330000Y-71180000D02*
X223630000Y-71180000D01*
X223630000Y-71180000D02*
X223630000Y-60900000D01*
X223630000Y-60900000D02*
X221980000Y-60900000D01*
X215840000Y-60840000D02*
X215840000Y-71240000D01*
X215840000Y-71240000D02*
X226120000Y-71240000D01*
X226120000Y-71240000D02*
X226120000Y-60840000D01*
X226120000Y-60840000D02*
X215840000Y-60840000D01*
X223020000Y-74510000D02*
X224020000Y-74510000D01*
X224020000Y-72810000D02*
X223020000Y-72810000D01*
X212590000Y-89320000D02*
X211590000Y-89320000D01*
X211590000Y-91020000D02*
X212590000Y-91020000D01*
D11*
X174498095Y-76287381D02*
X174498095Y-77096905D01*
X174545714Y-77192143D01*
X174593333Y-77239762D01*
X174688571Y-77287381D01*
X174879048Y-77287381D01*
X174974286Y-77239762D01*
X175021905Y-77192143D01*
X175069524Y-77096905D01*
X175069524Y-76287381D01*
X175498095Y-76382619D02*
X175545714Y-76335000D01*
X175640952Y-76287381D01*
X175879048Y-76287381D01*
X175974286Y-76335000D01*
X176021905Y-76382619D01*
X176069524Y-76477857D01*
X176069524Y-76573095D01*
X176021905Y-76715952D01*
X175450476Y-77287381D01*
X176069524Y-77287381D01*
X209986666Y-91527381D02*
X210177143Y-91527381D01*
X210272381Y-91575000D01*
X210367619Y-91670238D01*
X210415238Y-91860714D01*
X210415238Y-92194048D01*
X210367619Y-92384524D01*
X210272381Y-92479762D01*
X210177143Y-92527381D01*
X209986666Y-92527381D01*
X209891428Y-92479762D01*
X209796190Y-92384524D01*
X209748571Y-92194048D01*
X209748571Y-91860714D01*
X209796190Y-91670238D01*
X209891428Y-91575000D01*
X209986666Y-91527381D01*
X211272381Y-91860714D02*
X211272381Y-92527381D01*
X210843809Y-91860714D02*
X210843809Y-92384524D01*
X210891428Y-92479762D01*
X210986666Y-92527381D01*
X211129524Y-92527381D01*
X211224762Y-92479762D01*
X211272381Y-92432143D01*
X211605714Y-91860714D02*
X211986666Y-91860714D01*
X211748571Y-91527381D02*
X211748571Y-92384524D01*
X211796190Y-92479762D01*
X211891428Y-92527381D01*
X211986666Y-92527381D01*
X171958096Y-94750000D02*
X171862858Y-94702381D01*
X171720001Y-94702381D01*
X171577143Y-94750000D01*
X171481905Y-94845238D01*
X171434286Y-94940476D01*
X171386667Y-95130952D01*
X171386667Y-95273810D01*
X171434286Y-95464286D01*
X171481905Y-95559524D01*
X171577143Y-95654762D01*
X171720001Y-95702381D01*
X171815239Y-95702381D01*
X171958096Y-95654762D01*
X172005715Y-95607143D01*
X172005715Y-95273810D01*
X171815239Y-95273810D01*
X172434286Y-95702381D02*
X172434286Y-94702381D01*
X173005715Y-95702381D01*
X173005715Y-94702381D01*
X173481905Y-95702381D02*
X173481905Y-94702381D01*
X173720000Y-94702381D01*
X173862858Y-94750000D01*
X173958096Y-94845238D01*
X174005715Y-94940476D01*
X174053334Y-95130952D01*
X174053334Y-95273810D01*
X174005715Y-95464286D01*
X173958096Y-95559524D01*
X173862858Y-95654762D01*
X173720000Y-95702381D01*
X173481905Y-95702381D01*
X209581905Y-61031429D02*
X210343810Y-61031429D01*
X209962858Y-61412381D02*
X209962858Y-60650476D01*
X211296191Y-60412381D02*
X210820000Y-60412381D01*
X210772381Y-60888571D01*
X210820000Y-60840952D01*
X210915238Y-60793333D01*
X211153334Y-60793333D01*
X211248572Y-60840952D01*
X211296191Y-60888571D01*
X211343810Y-60983810D01*
X211343810Y-61221905D01*
X211296191Y-61317143D01*
X211248572Y-61364762D01*
X211153334Y-61412381D01*
X210915238Y-61412381D01*
X210820000Y-61364762D01*
X210772381Y-61317143D01*
X211677143Y-60745714D02*
X211915238Y-61412381D01*
X212153334Y-60745714D01*
X174498096Y-61095000D02*
X174402858Y-61047381D01*
X174260001Y-61047381D01*
X174117143Y-61095000D01*
X174021905Y-61190238D01*
X173974286Y-61285476D01*
X173926667Y-61475952D01*
X173926667Y-61618810D01*
X173974286Y-61809286D01*
X174021905Y-61904524D01*
X174117143Y-61999762D01*
X174260001Y-62047381D01*
X174355239Y-62047381D01*
X174498096Y-61999762D01*
X174545715Y-61952143D01*
X174545715Y-61618810D01*
X174355239Y-61618810D01*
X174974286Y-62047381D02*
X174974286Y-61047381D01*
X175545715Y-62047381D01*
X175545715Y-61047381D01*
X176021905Y-62047381D02*
X176021905Y-61047381D01*
X176260000Y-61047381D01*
X176402858Y-61095000D01*
X176498096Y-61190238D01*
X176545715Y-61285476D01*
X176593334Y-61475952D01*
X176593334Y-61618810D01*
X176545715Y-61809286D01*
X176498096Y-61904524D01*
X176402858Y-61999762D01*
X176260000Y-62047381D01*
X176021905Y-62047381D01*
X169889443Y-59856666D02*
X169937062Y-59904285D01*
X169984681Y-60047142D01*
X169984681Y-60142380D01*
X169937062Y-60285238D01*
X169841824Y-60380476D01*
X169746586Y-60428095D01*
X169556110Y-60475714D01*
X169413252Y-60475714D01*
X169222776Y-60428095D01*
X169127538Y-60380476D01*
X169032300Y-60285238D01*
X168984681Y-60142380D01*
X168984681Y-60047142D01*
X169032300Y-59904285D01*
X169079919Y-59856666D01*
X169984681Y-59380476D02*
X169984681Y-59190000D01*
X169937062Y-59094761D01*
X169889443Y-59047142D01*
X169746586Y-58951904D01*
X169556110Y-58904285D01*
X169175157Y-58904285D01*
X169079919Y-58951904D01*
X169032300Y-58999523D01*
X168984681Y-59094761D01*
X168984681Y-59285238D01*
X169032300Y-59380476D01*
X169079919Y-59428095D01*
X169175157Y-59475714D01*
X169413252Y-59475714D01*
X169508490Y-59428095D01*
X169556110Y-59380476D01*
X169603729Y-59285238D01*
X169603729Y-59094761D01*
X169556110Y-58999523D01*
X169508490Y-58951904D01*
X169413252Y-58904285D01*
X168079729Y-64350852D02*
X168079729Y-63588947D01*
X168460681Y-63969899D02*
X167698776Y-63969899D01*
X194667143Y-85256666D02*
X194714762Y-85304285D01*
X194762381Y-85447142D01*
X194762381Y-85542380D01*
X194714762Y-85685238D01*
X194619524Y-85780476D01*
X194524286Y-85828095D01*
X194333810Y-85875714D01*
X194190952Y-85875714D01*
X194000476Y-85828095D01*
X193905238Y-85780476D01*
X193810000Y-85685238D01*
X193762381Y-85542380D01*
X193762381Y-85447142D01*
X193810000Y-85304285D01*
X193857619Y-85256666D01*
X194095714Y-84399523D02*
X194762381Y-84399523D01*
X193714762Y-84637619D02*
X194429048Y-84875714D01*
X194429048Y-84256666D01*
X194667143Y-81922857D02*
X194714762Y-81970476D01*
X194762381Y-82113333D01*
X194762381Y-82208571D01*
X194714762Y-82351429D01*
X194619524Y-82446667D01*
X194524286Y-82494286D01*
X194333810Y-82541905D01*
X194190952Y-82541905D01*
X194000476Y-82494286D01*
X193905238Y-82446667D01*
X193810000Y-82351429D01*
X193762381Y-82208571D01*
X193762381Y-82113333D01*
X193810000Y-81970476D01*
X193857619Y-81922857D01*
X194762381Y-80970476D02*
X194762381Y-81541905D01*
X194762381Y-81256191D02*
X193762381Y-81256191D01*
X193905238Y-81351429D01*
X194000476Y-81446667D01*
X194048095Y-81541905D01*
X193762381Y-80351429D02*
X193762381Y-80256190D01*
X193810000Y-80160952D01*
X193857619Y-80113333D01*
X193952857Y-80065714D01*
X194143333Y-80018095D01*
X194381429Y-80018095D01*
X194571905Y-80065714D01*
X194667143Y-80113333D01*
X194714762Y-80160952D01*
X194762381Y-80256190D01*
X194762381Y-80351429D01*
X194714762Y-80446667D01*
X194667143Y-80494286D01*
X194571905Y-80541905D01*
X194381429Y-80589524D01*
X194143333Y-80589524D01*
X193952857Y-80541905D01*
X193857619Y-80494286D01*
X193810000Y-80446667D01*
X193762381Y-80351429D01*
X213717143Y-90812857D02*
X213764762Y-90860476D01*
X213812381Y-91003333D01*
X213812381Y-91098571D01*
X213764762Y-91241429D01*
X213669524Y-91336667D01*
X213574286Y-91384286D01*
X213383810Y-91431905D01*
X213240952Y-91431905D01*
X213050476Y-91384286D01*
X212955238Y-91336667D01*
X212860000Y-91241429D01*
X212812381Y-91098571D01*
X212812381Y-91003333D01*
X212860000Y-90860476D01*
X212907619Y-90812857D01*
X213812381Y-89860476D02*
X213812381Y-90431905D01*
X213812381Y-90146191D02*
X212812381Y-90146191D01*
X212955238Y-90241429D01*
X213050476Y-90336667D01*
X213098095Y-90431905D01*
X212907619Y-89479524D02*
X212860000Y-89431905D01*
X212812381Y-89336667D01*
X212812381Y-89098571D01*
X212860000Y-89003333D01*
X212907619Y-88955714D01*
X213002857Y-88908095D01*
X213098095Y-88908095D01*
X213240952Y-88955714D01*
X213812381Y-89527143D01*
X213812381Y-88908095D01*
X145867381Y-66143095D02*
X144867381Y-66143095D01*
X144867381Y-65905000D01*
X144915000Y-65762142D01*
X145010238Y-65666904D01*
X145105476Y-65619285D01*
X145295952Y-65571666D01*
X145438810Y-65571666D01*
X145629286Y-65619285D01*
X145724524Y-65666904D01*
X145819762Y-65762142D01*
X145867381Y-65905000D01*
X145867381Y-66143095D01*
X144962619Y-65190714D02*
X144915000Y-65143095D01*
X144867381Y-65047857D01*
X144867381Y-64809761D01*
X144915000Y-64714523D01*
X144962619Y-64666904D01*
X145057857Y-64619285D01*
X145153095Y-64619285D01*
X145295952Y-64666904D01*
X145867381Y-65238333D01*
X145867381Y-64619285D01*
X230322381Y-93448095D02*
X229322381Y-93448095D01*
X229322381Y-93210000D01*
X229370000Y-93067142D01*
X229465238Y-92971904D01*
X229560476Y-92924285D01*
X229750952Y-92876666D01*
X229893810Y-92876666D01*
X230084286Y-92924285D01*
X230179524Y-92971904D01*
X230274762Y-93067142D01*
X230322381Y-93210000D01*
X230322381Y-93448095D01*
X229322381Y-91971904D02*
X229322381Y-92448095D01*
X229798571Y-92495714D01*
X229750952Y-92448095D01*
X229703333Y-92352857D01*
X229703333Y-92114761D01*
X229750952Y-92019523D01*
X229798571Y-91971904D01*
X229893810Y-91924285D01*
X230131905Y-91924285D01*
X230227143Y-91971904D01*
X230274762Y-92019523D01*
X230322381Y-92114761D01*
X230322381Y-92352857D01*
X230274762Y-92448095D01*
X230227143Y-92495714D01*
X226042381Y-88741905D02*
X225042381Y-88741905D01*
X226042381Y-88170476D02*
X225470952Y-88599048D01*
X225042381Y-88170476D02*
X225613810Y-88741905D01*
X197302381Y-85256666D02*
X196826190Y-85590000D01*
X197302381Y-85828095D02*
X196302381Y-85828095D01*
X196302381Y-85447142D01*
X196350000Y-85351904D01*
X196397619Y-85304285D01*
X196492857Y-85256666D01*
X196635714Y-85256666D01*
X196730952Y-85304285D01*
X196778571Y-85351904D01*
X196826190Y-85447142D01*
X196826190Y-85828095D01*
X196397619Y-84875714D02*
X196350000Y-84828095D01*
X196302381Y-84732857D01*
X196302381Y-84494761D01*
X196350000Y-84399523D01*
X196397619Y-84351904D01*
X196492857Y-84304285D01*
X196588095Y-84304285D01*
X196730952Y-84351904D01*
X197302381Y-84923333D01*
X197302381Y-84304285D01*
X194522381Y-85256666D02*
X194046190Y-85590000D01*
X194522381Y-85828095D02*
X193522381Y-85828095D01*
X193522381Y-85447142D01*
X193570000Y-85351904D01*
X193617619Y-85304285D01*
X193712857Y-85256666D01*
X193855714Y-85256666D01*
X193950952Y-85304285D01*
X193998571Y-85351904D01*
X194046190Y-85447142D01*
X194046190Y-85828095D01*
X193522381Y-84923333D02*
X193522381Y-84304285D01*
X193903333Y-84637619D01*
X193903333Y-84494761D01*
X193950952Y-84399523D01*
X193998571Y-84351904D01*
X194093810Y-84304285D01*
X194331905Y-84304285D01*
X194427143Y-84351904D01*
X194474762Y-84399523D01*
X194522381Y-84494761D01*
X194522381Y-84780476D01*
X194474762Y-84875714D01*
X194427143Y-84923333D01*
X188652381Y-76366666D02*
X188176190Y-76700000D01*
X188652381Y-76938095D02*
X187652381Y-76938095D01*
X187652381Y-76557142D01*
X187700000Y-76461904D01*
X187747619Y-76414285D01*
X187842857Y-76366666D01*
X187985714Y-76366666D01*
X188080952Y-76414285D01*
X188128571Y-76461904D01*
X188176190Y-76557142D01*
X188176190Y-76938095D01*
X187985714Y-75509523D02*
X188652381Y-75509523D01*
X187604762Y-75747619D02*
X188319048Y-75985714D01*
X188319048Y-75366666D01*
X204303334Y-90622381D02*
X203970000Y-90146190D01*
X203731905Y-90622381D02*
X203731905Y-89622381D01*
X204112858Y-89622381D01*
X204208096Y-89670000D01*
X204255715Y-89717619D01*
X204303334Y-89812857D01*
X204303334Y-89955714D01*
X204255715Y-90050952D01*
X204208096Y-90098571D01*
X204112858Y-90146190D01*
X203731905Y-90146190D01*
X205208096Y-89622381D02*
X204731905Y-89622381D01*
X204684286Y-90098571D01*
X204731905Y-90050952D01*
X204827143Y-90003333D01*
X205065239Y-90003333D01*
X205160477Y-90050952D01*
X205208096Y-90098571D01*
X205255715Y-90193810D01*
X205255715Y-90431905D01*
X205208096Y-90527143D01*
X205160477Y-90574762D01*
X205065239Y-90622381D01*
X204827143Y-90622381D01*
X204731905Y-90574762D01*
X204684286Y-90527143D01*
X147772381Y-70016666D02*
X147296190Y-70350000D01*
X147772381Y-70588095D02*
X146772381Y-70588095D01*
X146772381Y-70207142D01*
X146820000Y-70111904D01*
X146867619Y-70064285D01*
X146962857Y-70016666D01*
X147105714Y-70016666D01*
X147200952Y-70064285D01*
X147248571Y-70111904D01*
X147296190Y-70207142D01*
X147296190Y-70588095D01*
X146772381Y-69159523D02*
X146772381Y-69350000D01*
X146820000Y-69445238D01*
X146867619Y-69492857D01*
X147010476Y-69588095D01*
X147200952Y-69635714D01*
X147581905Y-69635714D01*
X147677143Y-69588095D01*
X147724762Y-69540476D01*
X147772381Y-69445238D01*
X147772381Y-69254761D01*
X147724762Y-69159523D01*
X147677143Y-69111904D01*
X147581905Y-69064285D01*
X147343810Y-69064285D01*
X147248571Y-69111904D01*
X147200952Y-69159523D01*
X147153333Y-69254761D01*
X147153333Y-69445238D01*
X147200952Y-69540476D01*
X147248571Y-69588095D01*
X147343810Y-69635714D01*
X197302381Y-81446666D02*
X196826190Y-81780000D01*
X197302381Y-82018095D02*
X196302381Y-82018095D01*
X196302381Y-81637142D01*
X196350000Y-81541904D01*
X196397619Y-81494285D01*
X196492857Y-81446666D01*
X196635714Y-81446666D01*
X196730952Y-81494285D01*
X196778571Y-81541904D01*
X196826190Y-81637142D01*
X196826190Y-82018095D01*
X196302381Y-81113333D02*
X196302381Y-80446666D01*
X197302381Y-80875238D01*
X211272381Y-90336666D02*
X210796190Y-90670000D01*
X211272381Y-90908095D02*
X210272381Y-90908095D01*
X210272381Y-90527142D01*
X210320000Y-90431904D01*
X210367619Y-90384285D01*
X210462857Y-90336666D01*
X210605714Y-90336666D01*
X210700952Y-90384285D01*
X210748571Y-90431904D01*
X210796190Y-90527142D01*
X210796190Y-90908095D01*
X210700952Y-89765238D02*
X210653333Y-89860476D01*
X210605714Y-89908095D01*
X210510476Y-89955714D01*
X210462857Y-89955714D01*
X210367619Y-89908095D01*
X210320000Y-89860476D01*
X210272381Y-89765238D01*
X210272381Y-89574761D01*
X210320000Y-89479523D01*
X210367619Y-89431904D01*
X210462857Y-89384285D01*
X210510476Y-89384285D01*
X210605714Y-89431904D01*
X210653333Y-89479523D01*
X210700952Y-89574761D01*
X210700952Y-89765238D01*
X210748571Y-89860476D01*
X210796190Y-89908095D01*
X210891429Y-89955714D01*
X211081905Y-89955714D01*
X211177143Y-89908095D01*
X211224762Y-89860476D01*
X211272381Y-89765238D01*
X211272381Y-89574761D01*
X211224762Y-89479523D01*
X211177143Y-89431904D01*
X211081905Y-89384285D01*
X210891429Y-89384285D01*
X210796190Y-89431904D01*
X210748571Y-89479523D01*
X210700952Y-89574761D01*
X210018334Y-69667381D02*
X209685000Y-69191190D01*
X209446905Y-69667381D02*
X209446905Y-68667381D01*
X209827858Y-68667381D01*
X209923096Y-68715000D01*
X209970715Y-68762619D01*
X210018334Y-68857857D01*
X210018334Y-69000714D01*
X209970715Y-69095952D01*
X209923096Y-69143571D01*
X209827858Y-69191190D01*
X209446905Y-69191190D01*
X210494524Y-69667381D02*
X210685000Y-69667381D01*
X210780239Y-69619762D01*
X210827858Y-69572143D01*
X210923096Y-69429286D01*
X210970715Y-69238810D01*
X210970715Y-68857857D01*
X210923096Y-68762619D01*
X210875477Y-68715000D01*
X210780239Y-68667381D01*
X210589762Y-68667381D01*
X210494524Y-68715000D01*
X210446905Y-68762619D01*
X210399286Y-68857857D01*
X210399286Y-69095952D01*
X210446905Y-69191190D01*
X210494524Y-69238810D01*
X210589762Y-69286429D01*
X210780239Y-69286429D01*
X210875477Y-69238810D01*
X210923096Y-69191190D01*
X210970715Y-69095952D01*
X208907143Y-74112381D02*
X208573809Y-73636190D01*
X208335714Y-74112381D02*
X208335714Y-73112381D01*
X208716667Y-73112381D01*
X208811905Y-73160000D01*
X208859524Y-73207619D01*
X208907143Y-73302857D01*
X208907143Y-73445714D01*
X208859524Y-73540952D01*
X208811905Y-73588571D01*
X208716667Y-73636190D01*
X208335714Y-73636190D01*
X209859524Y-74112381D02*
X209288095Y-74112381D01*
X209573809Y-74112381D02*
X209573809Y-73112381D01*
X209478571Y-73255238D01*
X209383333Y-73350476D01*
X209288095Y-73398095D01*
X210478571Y-73112381D02*
X210573810Y-73112381D01*
X210669048Y-73160000D01*
X210716667Y-73207619D01*
X210764286Y-73302857D01*
X210811905Y-73493333D01*
X210811905Y-73731429D01*
X210764286Y-73921905D01*
X210716667Y-74017143D01*
X210669048Y-74064762D01*
X210573810Y-74112381D01*
X210478571Y-74112381D01*
X210383333Y-74064762D01*
X210335714Y-74017143D01*
X210288095Y-73921905D01*
X210240476Y-73731429D01*
X210240476Y-73493333D01*
X210288095Y-73302857D01*
X210335714Y-73207619D01*
X210383333Y-73160000D01*
X210478571Y-73112381D01*
X212717143Y-67127381D02*
X212383809Y-66651190D01*
X212145714Y-67127381D02*
X212145714Y-66127381D01*
X212526667Y-66127381D01*
X212621905Y-66175000D01*
X212669524Y-66222619D01*
X212717143Y-66317857D01*
X212717143Y-66460714D01*
X212669524Y-66555952D01*
X212621905Y-66603571D01*
X212526667Y-66651190D01*
X212145714Y-66651190D01*
X213669524Y-67127381D02*
X213098095Y-67127381D01*
X213383809Y-67127381D02*
X213383809Y-66127381D01*
X213288571Y-66270238D01*
X213193333Y-66365476D01*
X213098095Y-66413095D01*
X214621905Y-67127381D02*
X214050476Y-67127381D01*
X214336190Y-67127381D02*
X214336190Y-66127381D01*
X214240952Y-66270238D01*
X214145714Y-66365476D01*
X214050476Y-66413095D01*
X230957381Y-67952857D02*
X230481190Y-68286191D01*
X230957381Y-68524286D02*
X229957381Y-68524286D01*
X229957381Y-68143333D01*
X230005000Y-68048095D01*
X230052619Y-68000476D01*
X230147857Y-67952857D01*
X230290714Y-67952857D01*
X230385952Y-68000476D01*
X230433571Y-68048095D01*
X230481190Y-68143333D01*
X230481190Y-68524286D01*
X230957381Y-67000476D02*
X230957381Y-67571905D01*
X230957381Y-67286191D02*
X229957381Y-67286191D01*
X230100238Y-67381429D01*
X230195476Y-67476667D01*
X230243095Y-67571905D01*
X230052619Y-66619524D02*
X230005000Y-66571905D01*
X229957381Y-66476667D01*
X229957381Y-66238571D01*
X230005000Y-66143333D01*
X230052619Y-66095714D01*
X230147857Y-66048095D01*
X230243095Y-66048095D01*
X230385952Y-66095714D01*
X230957381Y-66667143D01*
X230957381Y-66048095D01*
X227147381Y-62872857D02*
X226671190Y-63206191D01*
X227147381Y-63444286D02*
X226147381Y-63444286D01*
X226147381Y-63063333D01*
X226195000Y-62968095D01*
X226242619Y-62920476D01*
X226337857Y-62872857D01*
X226480714Y-62872857D01*
X226575952Y-62920476D01*
X226623571Y-62968095D01*
X226671190Y-63063333D01*
X226671190Y-63444286D01*
X227147381Y-61920476D02*
X227147381Y-62491905D01*
X227147381Y-62206191D02*
X226147381Y-62206191D01*
X226290238Y-62301429D01*
X226385476Y-62396667D01*
X226433095Y-62491905D01*
X226147381Y-61587143D02*
X226147381Y-60968095D01*
X226528333Y-61301429D01*
X226528333Y-61158571D01*
X226575952Y-61063333D01*
X226623571Y-61015714D01*
X226718810Y-60968095D01*
X226956905Y-60968095D01*
X227052143Y-61015714D01*
X227099762Y-61063333D01*
X227147381Y-61158571D01*
X227147381Y-61444286D01*
X227099762Y-61539524D01*
X227052143Y-61587143D01*
X212717143Y-79192381D02*
X212383809Y-78716190D01*
X212145714Y-79192381D02*
X212145714Y-78192381D01*
X212526667Y-78192381D01*
X212621905Y-78240000D01*
X212669524Y-78287619D01*
X212717143Y-78382857D01*
X212717143Y-78525714D01*
X212669524Y-78620952D01*
X212621905Y-78668571D01*
X212526667Y-78716190D01*
X212145714Y-78716190D01*
X213669524Y-79192381D02*
X213098095Y-79192381D01*
X213383809Y-79192381D02*
X213383809Y-78192381D01*
X213288571Y-78335238D01*
X213193333Y-78430476D01*
X213098095Y-78478095D01*
X214526667Y-78525714D02*
X214526667Y-79192381D01*
X214288571Y-78144762D02*
X214050476Y-78859048D01*
X214669524Y-78859048D01*
X193663843Y-92876666D02*
X193711462Y-92924285D01*
X193759081Y-93067142D01*
X193759081Y-93162380D01*
X193711462Y-93305238D01*
X193616224Y-93400476D01*
X193520986Y-93448095D01*
X193330510Y-93495714D01*
X193187652Y-93495714D01*
X192997176Y-93448095D01*
X192901938Y-93400476D01*
X192806700Y-93305238D01*
X192759081Y-93162380D01*
X192759081Y-93067142D01*
X192806700Y-92924285D01*
X192854319Y-92876666D01*
X193759081Y-91924285D02*
X193759081Y-92495714D01*
X193759081Y-92210000D02*
X192759081Y-92210000D01*
X192901938Y-92305238D01*
X192997176Y-92400476D01*
X193044795Y-92495714D01*
X194914829Y-90322352D02*
X194914829Y-89560447D01*
X195295781Y-89941399D02*
X194533876Y-89941399D01*
X159742143Y-92876666D02*
X159789762Y-92924285D01*
X159837381Y-93067142D01*
X159837381Y-93162380D01*
X159789762Y-93305238D01*
X159694524Y-93400476D01*
X159599286Y-93448095D01*
X159408810Y-93495714D01*
X159265952Y-93495714D01*
X159075476Y-93448095D01*
X158980238Y-93400476D01*
X158885000Y-93305238D01*
X158837381Y-93162380D01*
X158837381Y-93067142D01*
X158885000Y-92924285D01*
X158932619Y-92876666D01*
X158932619Y-92495714D02*
X158885000Y-92448095D01*
X158837381Y-92352857D01*
X158837381Y-92114761D01*
X158885000Y-92019523D01*
X158932619Y-91971904D01*
X159027857Y-91924285D01*
X159123095Y-91924285D01*
X159265952Y-91971904D01*
X159837381Y-92543333D01*
X159837381Y-91924285D01*
X154541529Y-88811052D02*
X154541529Y-88049147D01*
X154922481Y-88430099D02*
X154160576Y-88430099D01*
X183503843Y-85256666D02*
X183551462Y-85304285D01*
X183599081Y-85447142D01*
X183599081Y-85542380D01*
X183551462Y-85685238D01*
X183456224Y-85780476D01*
X183360986Y-85828095D01*
X183170510Y-85875714D01*
X183027652Y-85875714D01*
X182837176Y-85828095D01*
X182741938Y-85780476D01*
X182646700Y-85685238D01*
X182599081Y-85542380D01*
X182599081Y-85447142D01*
X182646700Y-85304285D01*
X182694319Y-85256666D01*
X182599081Y-84399523D02*
X182599081Y-84590000D01*
X182646700Y-84685238D01*
X182694319Y-84732857D01*
X182837176Y-84828095D01*
X183027652Y-84875714D01*
X183408605Y-84875714D01*
X183503843Y-84828095D01*
X183551462Y-84780476D01*
X183599081Y-84685238D01*
X183599081Y-84494761D01*
X183551462Y-84399523D01*
X183503843Y-84351904D01*
X183408605Y-84304285D01*
X183170510Y-84304285D01*
X183075271Y-84351904D01*
X183027652Y-84399523D01*
X182980033Y-84494761D01*
X182980033Y-84685238D01*
X183027652Y-84780476D01*
X183075271Y-84828095D01*
X183170510Y-84875714D01*
X184754829Y-82702352D02*
X184754829Y-81940447D01*
X185135781Y-82321399D02*
X184373876Y-82321399D01*
X190857143Y-80652857D02*
X190904762Y-80700476D01*
X190952381Y-80843333D01*
X190952381Y-80938571D01*
X190904762Y-81081429D01*
X190809524Y-81176667D01*
X190714286Y-81224286D01*
X190523810Y-81271905D01*
X190380952Y-81271905D01*
X190190476Y-81224286D01*
X190095238Y-81176667D01*
X190000000Y-81081429D01*
X189952381Y-80938571D01*
X189952381Y-80843333D01*
X190000000Y-80700476D01*
X190047619Y-80652857D01*
X190952381Y-79700476D02*
X190952381Y-80271905D01*
X190952381Y-79986191D02*
X189952381Y-79986191D01*
X190095238Y-80081429D01*
X190190476Y-80176667D01*
X190238095Y-80271905D01*
X190952381Y-78748095D02*
X190952381Y-79319524D01*
X190952381Y-79033810D02*
X189952381Y-79033810D01*
X190095238Y-79129048D01*
X190190476Y-79224286D01*
X190238095Y-79319524D01*
X188768029Y-79349552D02*
X188768029Y-78587647D01*
X189148981Y-78968599D02*
X188387076Y-78968599D01*
X203192143Y-68302143D02*
X203144524Y-68349762D01*
X203001667Y-68397381D01*
X202906429Y-68397381D01*
X202763571Y-68349762D01*
X202668333Y-68254524D01*
X202620714Y-68159286D01*
X202573095Y-67968810D01*
X202573095Y-67825952D01*
X202620714Y-67635476D01*
X202668333Y-67540238D01*
X202763571Y-67445000D01*
X202906429Y-67397381D01*
X203001667Y-67397381D01*
X203144524Y-67445000D01*
X203192143Y-67492619D01*
X204144524Y-68397381D02*
X203573095Y-68397381D01*
X203858809Y-68397381D02*
X203858809Y-67397381D01*
X203763571Y-67540238D01*
X203668333Y-67635476D01*
X203573095Y-67683095D01*
X205001667Y-67730714D02*
X205001667Y-68397381D01*
X204763571Y-67349762D02*
X204525476Y-68064048D01*
X205144524Y-68064048D01*
X206857648Y-62834829D02*
X207619553Y-62834829D01*
X207238601Y-63215781D02*
X207238601Y-62453876D01*
X209542143Y-77827143D02*
X209494524Y-77874762D01*
X209351667Y-77922381D01*
X209256429Y-77922381D01*
X209113571Y-77874762D01*
X209018333Y-77779524D01*
X208970714Y-77684286D01*
X208923095Y-77493810D01*
X208923095Y-77350952D01*
X208970714Y-77160476D01*
X209018333Y-77065238D01*
X209113571Y-76970000D01*
X209256429Y-76922381D01*
X209351667Y-76922381D01*
X209494524Y-76970000D01*
X209542143Y-77017619D01*
X210494524Y-77922381D02*
X209923095Y-77922381D01*
X210208809Y-77922381D02*
X210208809Y-76922381D01*
X210113571Y-77065238D01*
X210018333Y-77160476D01*
X209923095Y-77208095D01*
X211399286Y-76922381D02*
X210923095Y-76922381D01*
X210875476Y-77398571D01*
X210923095Y-77350952D01*
X211018333Y-77303333D01*
X211256429Y-77303333D01*
X211351667Y-77350952D01*
X211399286Y-77398571D01*
X211446905Y-77493810D01*
X211446905Y-77731905D01*
X211399286Y-77827143D01*
X211351667Y-77874762D01*
X211256429Y-77922381D01*
X211018333Y-77922381D01*
X210923095Y-77874762D01*
X210875476Y-77827143D01*
X206857648Y-75534829D02*
X207619553Y-75534829D01*
X207238601Y-75915781D02*
X207238601Y-75153876D01*
X226687143Y-86717143D02*
X226639524Y-86764762D01*
X226496667Y-86812381D01*
X226401429Y-86812381D01*
X226258571Y-86764762D01*
X226163333Y-86669524D01*
X226115714Y-86574286D01*
X226068095Y-86383810D01*
X226068095Y-86240952D01*
X226115714Y-86050476D01*
X226163333Y-85955238D01*
X226258571Y-85860000D01*
X226401429Y-85812381D01*
X226496667Y-85812381D01*
X226639524Y-85860000D01*
X226687143Y-85907619D01*
X227639524Y-86812381D02*
X227068095Y-86812381D01*
X227353809Y-86812381D02*
X227353809Y-85812381D01*
X227258571Y-85955238D01*
X227163333Y-86050476D01*
X227068095Y-86098095D01*
X227972857Y-85812381D02*
X228639524Y-85812381D01*
X228210952Y-86812381D01*
X224878948Y-83421529D02*
X225640853Y-83421529D01*
X225259901Y-83802481D02*
X225259901Y-83040576D01*
X152487381Y-93678333D02*
X153201667Y-93678333D01*
X153344524Y-93725953D01*
X153439762Y-93821191D01*
X153487381Y-93964048D01*
X153487381Y-94059286D01*
X153487381Y-92678333D02*
X153487381Y-93249762D01*
X153487381Y-92964048D02*
X152487381Y-92964048D01*
X152630238Y-93059286D01*
X152725476Y-93154524D01*
X152773095Y-93249762D01*
X152487381Y-61293333D02*
X153201667Y-61293333D01*
X153344524Y-61340953D01*
X153439762Y-61436191D01*
X153487381Y-61579048D01*
X153487381Y-61674286D01*
X152582619Y-60864762D02*
X152535000Y-60817143D01*
X152487381Y-60721905D01*
X152487381Y-60483809D01*
X152535000Y-60388571D01*
X152582619Y-60340952D01*
X152677857Y-60293333D01*
X152773095Y-60293333D01*
X152915952Y-60340952D01*
X153487381Y-60912381D01*
X153487381Y-60293333D01*
X220384762Y-95067381D02*
X220051428Y-94591190D01*
X219813333Y-95067381D02*
X219813333Y-94067381D01*
X220194286Y-94067381D01*
X220289524Y-94115000D01*
X220337143Y-94162619D01*
X220384762Y-94257857D01*
X220384762Y-94400714D01*
X220337143Y-94495952D01*
X220289524Y-94543571D01*
X220194286Y-94591190D01*
X219813333Y-94591190D01*
X220670476Y-94067381D02*
X221003809Y-95067381D01*
X221337143Y-94067381D01*
X222194286Y-95067381D02*
X221622857Y-95067381D01*
X221908571Y-95067381D02*
X221908571Y-94067381D01*
X221813333Y-94210238D01*
X221718095Y-94305476D01*
X221622857Y-94353095D01*
X220384762Y-55697381D02*
X220051428Y-55221190D01*
X219813333Y-55697381D02*
X219813333Y-54697381D01*
X220194286Y-54697381D01*
X220289524Y-54745000D01*
X220337143Y-54792619D01*
X220384762Y-54887857D01*
X220384762Y-55030714D01*
X220337143Y-55125952D01*
X220289524Y-55173571D01*
X220194286Y-55221190D01*
X219813333Y-55221190D01*
X220670476Y-54697381D02*
X221003809Y-55697381D01*
X221337143Y-54697381D01*
X221622857Y-54792619D02*
X221670476Y-54745000D01*
X221765714Y-54697381D01*
X222003810Y-54697381D01*
X222099048Y-54745000D01*
X222146667Y-54792619D01*
X222194286Y-54887857D01*
X222194286Y-54983095D01*
X222146667Y-55125952D01*
X221575238Y-55697381D01*
X222194286Y-55697381D01*
X153277143Y-60332857D02*
X153324762Y-60380476D01*
X153372381Y-60523333D01*
X153372381Y-60618571D01*
X153324762Y-60761429D01*
X153229524Y-60856667D01*
X153134286Y-60904286D01*
X152943810Y-60951905D01*
X152800952Y-60951905D01*
X152610476Y-60904286D01*
X152515238Y-60856667D01*
X152420000Y-60761429D01*
X152372381Y-60618571D01*
X152372381Y-60523333D01*
X152420000Y-60380476D01*
X152467619Y-60332857D01*
X153372381Y-59380476D02*
X153372381Y-59951905D01*
X153372381Y-59666191D02*
X152372381Y-59666191D01*
X152515238Y-59761429D01*
X152610476Y-59856667D01*
X152658095Y-59951905D01*
X152800952Y-58809048D02*
X152753333Y-58904286D01*
X152705714Y-58951905D01*
X152610476Y-58999524D01*
X152562857Y-58999524D01*
X152467619Y-58951905D01*
X152420000Y-58904286D01*
X152372381Y-58809048D01*
X152372381Y-58618571D01*
X152420000Y-58523333D01*
X152467619Y-58475714D01*
X152562857Y-58428095D01*
X152610476Y-58428095D01*
X152705714Y-58475714D01*
X152753333Y-58523333D01*
X152800952Y-58618571D01*
X152800952Y-58809048D01*
X152848571Y-58904286D01*
X152896190Y-58951905D01*
X152991429Y-58999524D01*
X153181905Y-58999524D01*
X153277143Y-58951905D01*
X153324762Y-58904286D01*
X153372381Y-58809048D01*
X153372381Y-58618571D01*
X153324762Y-58523333D01*
X153277143Y-58475714D01*
X153181905Y-58428095D01*
X152991429Y-58428095D01*
X152896190Y-58475714D01*
X152848571Y-58523333D01*
X152800952Y-58618571D01*
X154541429Y-55790952D02*
X154541429Y-55029047D01*
X154922381Y-55409999D02*
X154160476Y-55409999D01*
X151590476Y-84152381D02*
X151590476Y-83152381D01*
X151923810Y-83866667D01*
X152257143Y-83152381D01*
X152257143Y-84152381D01*
X153257143Y-84152381D02*
X152685714Y-84152381D01*
X152971428Y-84152381D02*
X152971428Y-83152381D01*
X152876190Y-83295238D01*
X152780952Y-83390476D01*
X152685714Y-83438095D01*
X205192381Y-85851905D02*
X206001905Y-85851905D01*
X206097143Y-85804286D01*
X206144762Y-85756667D01*
X206192381Y-85661429D01*
X206192381Y-85470952D01*
X206144762Y-85375714D01*
X206097143Y-85328095D01*
X206001905Y-85280476D01*
X205192381Y-85280476D01*
X206192381Y-84280476D02*
X206192381Y-84851905D01*
X206192381Y-84566191D02*
X205192381Y-84566191D01*
X205335238Y-84661429D01*
X205430476Y-84756667D01*
X205478095Y-84851905D01*
X220218095Y-59352381D02*
X220218095Y-60161905D01*
X220265714Y-60257143D01*
X220313333Y-60304762D01*
X220408571Y-60352381D01*
X220599048Y-60352381D01*
X220694286Y-60304762D01*
X220741905Y-60257143D01*
X220789524Y-60161905D01*
X220789524Y-59352381D01*
X221170476Y-59352381D02*
X221789524Y-59352381D01*
X221456190Y-59733333D01*
X221599048Y-59733333D01*
X221694286Y-59780952D01*
X221741905Y-59828571D01*
X221789524Y-59923810D01*
X221789524Y-60161905D01*
X221741905Y-60257143D01*
X221694286Y-60304762D01*
X221599048Y-60352381D01*
X221313333Y-60352381D01*
X221218095Y-60304762D01*
X221170476Y-60257143D01*
X222877143Y-75767143D02*
X222829524Y-75814762D01*
X222686667Y-75862381D01*
X222591429Y-75862381D01*
X222448571Y-75814762D01*
X222353333Y-75719524D01*
X222305714Y-75624286D01*
X222258095Y-75433810D01*
X222258095Y-75290952D01*
X222305714Y-75100476D01*
X222353333Y-75005238D01*
X222448571Y-74910000D01*
X222591429Y-74862381D01*
X222686667Y-74862381D01*
X222829524Y-74910000D01*
X222877143Y-74957619D01*
X223829524Y-75862381D02*
X223258095Y-75862381D01*
X223543809Y-75862381D02*
X223543809Y-74862381D01*
X223448571Y-75005238D01*
X223353333Y-75100476D01*
X223258095Y-75148095D01*
X224162857Y-74862381D02*
X224781905Y-74862381D01*
X224448571Y-75243333D01*
X224591429Y-75243333D01*
X224686667Y-75290952D01*
X224734286Y-75338571D01*
X224781905Y-75433810D01*
X224781905Y-75671905D01*
X224734286Y-75767143D01*
X224686667Y-75814762D01*
X224591429Y-75862381D01*
X224305714Y-75862381D01*
X224210476Y-75814762D01*
X224162857Y-75767143D01*
X211923334Y-88777143D02*
X211875715Y-88824762D01*
X211732858Y-88872381D01*
X211637620Y-88872381D01*
X211494762Y-88824762D01*
X211399524Y-88729524D01*
X211351905Y-88634286D01*
X211304286Y-88443810D01*
X211304286Y-88300952D01*
X211351905Y-88110476D01*
X211399524Y-88015238D01*
X211494762Y-87920000D01*
X211637620Y-87872381D01*
X211732858Y-87872381D01*
X211875715Y-87920000D01*
X211923334Y-87967619D01*
X212494762Y-88300952D02*
X212399524Y-88253333D01*
X212351905Y-88205714D01*
X212304286Y-88110476D01*
X212304286Y-88062857D01*
X212351905Y-87967619D01*
X212399524Y-87920000D01*
X212494762Y-87872381D01*
X212685239Y-87872381D01*
X212780477Y-87920000D01*
X212828096Y-87967619D01*
X212875715Y-88062857D01*
X212875715Y-88110476D01*
X212828096Y-88205714D01*
X212780477Y-88253333D01*
X212685239Y-88300952D01*
X212494762Y-88300952D01*
X212399524Y-88348571D01*
X212351905Y-88396190D01*
X212304286Y-88491429D01*
X212304286Y-88681905D01*
X212351905Y-88777143D01*
X212399524Y-88824762D01*
X212494762Y-88872381D01*
X212685239Y-88872381D01*
X212780477Y-88824762D01*
X212828096Y-88777143D01*
X212875715Y-88681905D01*
X212875715Y-88491429D01*
X212828096Y-88396190D01*
X212780477Y-88348571D01*
X212685239Y-88300952D01*
M02*
